<svg width="164" height="164" viewBox="0 0 164 164" fill="none" xmlns="http://www.w3.org/2000/svg">
<path d="M87.8471 107.449H75.8985C66.4685 107.449 57.8585 101.905 55.2423 93.8314L47.2474 69.1826C42.835 55.5745 52.7628 41.7614 68.294 41.7614H95.4516C110.993 41.7614 120.911 55.5745 116.498 69.1826L108.503 93.8314C105.887 101.914 97.2673 107.449 87.8471 107.449Z" fill="#FFEA62"/>
<path d="M118.373 69.866C118.334 69.5048 118.109 69.1924 117.826 68.88C117.836 68.841 117.836 68.8117 117.846 68.7726C117.855 68.7336 117.855 68.675 117.855 68.636C118.099 68.431 118.275 68.1479 118.236 67.7964C118.217 67.5524 118.109 67.3376 117.953 67.1229C118.285 66.6543 118.422 66.01 117.992 65.5707C117.924 65.4926 117.836 65.4438 117.748 65.395C117.836 65.2974 117.904 65.1802 117.933 65.0241C118.002 64.6824 117.865 64.3407 117.67 63.96C117.846 63.755 117.943 63.5012 117.865 63.2181C118.168 62.9545 118.353 62.5836 118.236 62.1638C118.187 61.9783 118.07 61.8124 117.933 61.666C117.972 61.6172 118.021 61.5683 118.06 61.5C118.334 61.0022 118.217 60.3774 118.07 59.6648C118.07 59.6453 118.06 59.6355 118.06 59.616C118.334 59.0986 118.431 58.3567 118.129 57.9076C118.08 57.8295 118.002 57.7612 117.924 57.6929C118.285 57.1852 118.461 56.3164 118.129 55.8088C118.07 55.721 117.982 55.6429 117.894 55.5648C117.894 55.2621 117.836 54.9595 117.67 54.7545C117.523 54.5788 117.279 54.4519 117.016 54.3738C117.074 54.12 117.065 53.8564 116.918 53.6026C116.655 53.1633 116.127 52.9583 115.512 52.7338C115.473 52.6752 115.434 52.6167 115.386 52.5483C115.347 52.48 115.278 52.4117 115.21 52.3531C115.229 52.0505 115.171 51.7186 115.034 51.455C115.034 51.2598 114.976 51.0743 114.839 50.8986C114.663 50.6643 114.39 50.5179 114.077 50.4105C114.077 50.2152 114.048 50.02 113.951 49.8638C113.785 49.5905 113.414 49.3855 113.062 49.3074C113.209 48.8974 113.199 48.4483 112.877 48.1067C112.672 47.8919 112.398 47.7845 112.076 47.7162C112.008 47.2964 111.813 46.8669 111.491 46.6814C111.364 46.6033 111.207 46.5741 111.042 46.5545C110.905 46.3202 110.71 46.1055 110.485 45.9591C110.436 45.8907 110.387 45.8322 110.339 45.7833C110.417 45.1781 110.231 44.3972 109.763 44.075C109.47 43.87 109.001 43.8212 108.591 43.8798C108.172 43.6552 107.527 43.6455 107.137 43.8505C107.01 43.9188 106.902 43.9969 106.795 44.075C106.766 44.0652 106.717 44.0652 106.688 44.0555C106.658 44.0067 106.649 43.9579 106.619 43.9188C106.561 43.8505 106.473 43.7919 106.385 43.7431C106.327 43.4502 106.219 43.1867 106.024 43.0012C105.624 42.6107 104.774 42.4741 104.267 42.6693C104.101 42.7279 103.954 42.8157 103.818 42.9036C103.769 42.845 103.72 42.7864 103.662 42.7279C103.261 42.2202 102.305 41.8102 101.68 42.0738C101.651 42.0836 101.621 42.1226 101.582 42.1421C101.572 42.1421 101.563 42.1324 101.553 42.1324C101.27 41.9274 100.85 41.82 100.538 41.8688C100.46 41.8102 100.391 41.7517 100.313 41.6931C99.8836 41.3124 99.0148 41.1269 98.4779 41.4003C98.4389 41.3905 98.3998 41.371 98.3608 41.371C98.1167 41.0586 97.7556 40.7852 97.3944 40.795C97.3748 40.795 97.3553 40.8048 97.3456 40.8048C97.3065 40.7852 97.2577 40.756 97.2187 40.7364C96.9356 40.3167 96.3596 39.9652 95.9008 39.9457C95.4713 39.9262 95.0808 40.0238 94.7489 40.2093C94.3487 40.0238 93.8801 39.9555 93.5287 40.1117C93.0991 39.8188 92.4158 39.7114 91.9668 39.8676C91.6641 39.975 91.4103 40.1312 91.2053 40.3264C90.6196 40.0141 89.9656 40.0043 89.3798 40.2581C89.331 40.2483 89.2822 40.2386 89.2334 40.2386C89.0772 40.1312 88.9113 40.0531 88.7551 40.0141C87.9937 39.8481 87.3006 40.0921 86.8125 40.5705H86.8027C86.5684 40.4826 86.3048 40.4338 86.012 40.3655C85.6801 40.2679 85.231 40.3264 84.8601 40.5021C84.3329 40.1702 83.7082 40.1214 83.1615 40.3362C82.8198 40.0433 82.3415 39.8383 81.951 39.8383C81.6386 39.8481 81.3556 39.9067 81.092 40.0238C80.8675 39.9945 80.6429 39.9945 80.4282 40.0336C80.1841 39.8091 79.901 39.6333 79.6082 39.6138C79.0615 39.565 78.3391 39.975 78.0463 40.4436C77.8706 40.346 77.6265 40.3167 77.3922 40.3362C77.3629 40.3167 77.3337 40.2972 77.3044 40.2776C76.8456 40.0824 76.377 40.0726 75.9475 40.1995C75.5863 39.9262 75.1372 39.7505 74.7467 39.8383C74.7077 39.8481 74.6589 39.8774 74.6198 39.8969C74.5418 39.8872 74.4539 39.8676 74.3856 39.8774C73.7608 39.9262 73.2532 40.2191 72.9018 40.6486C72.7358 40.6486 72.5698 40.6779 72.4039 40.7364C72.2184 40.6876 72.0232 40.6974 71.8377 40.7364C71.7498 40.6193 71.6522 40.5217 71.5253 40.4631C71.2715 40.346 70.9006 40.3753 70.6077 40.4924C70.2856 40.385 69.9634 40.385 69.6803 40.4631C69.5241 40.4045 69.3484 40.346 69.1727 40.2874C68.6553 40.0824 67.8158 40.1702 67.3863 40.5802C66.8494 40.2776 66.0782 40.1605 65.5998 40.4533C65.4046 40.5705 65.2484 40.7755 65.1215 41.0098C64.9165 41.0391 64.7213 41.0976 64.5846 41.2148C64.4675 41.3124 64.3796 41.4588 64.3015 41.6248C64.116 41.6833 63.9501 41.781 63.7841 41.8981C63.6279 41.9079 63.4815 41.9371 63.3351 41.9957C63.1984 41.9567 63.0618 41.9274 62.9348 41.9372C62.5151 41.9567 62.1637 42.1129 61.8903 42.3471C61.7146 42.3471 61.5487 42.3764 61.3827 42.4252C60.9532 42.2398 60.2503 42.3569 59.8989 42.64C59.811 42.7083 59.7427 42.7864 59.6744 42.8645C59.1667 42.9133 58.6884 43.1672 58.3467 43.5869C58.2979 43.5967 58.2491 43.5869 58.1906 43.5967C58.1222 43.5576 58.0539 43.4991 57.9758 43.4795C57.8489 43.4502 57.7122 43.4502 57.5658 43.4795C57.5072 43.4405 57.4487 43.4014 57.3901 43.3722C56.8825 43.1476 56.0332 43.3233 55.6329 43.6943C55.4182 43.8895 55.2522 44.1043 55.1351 44.3386C54.9106 44.446 54.7153 44.6022 54.6079 44.7779C54.5689 44.8462 54.5396 44.9145 54.5103 44.9829C54.4322 45.0024 54.3444 45.0414 54.2663 45.0707C54.1687 45.0414 54.0613 45.0219 53.9637 45.0219C53.4365 45.0317 52.7922 45.5198 52.5872 45.9883C52.5677 46.0274 52.5677 46.0664 52.5482 46.1055C52.3627 46.2324 52.187 46.3691 52.0796 46.5253C51.8356 46.8962 51.7184 47.2867 51.7184 47.6771C51.5037 47.9017 51.3475 48.1848 51.2596 48.5069C50.8984 48.6045 50.5372 48.7998 50.342 49.0438C50.0687 49.3952 49.9222 49.776 49.9027 50.1664C49.4439 50.2836 48.9656 50.6448 48.7801 51.0255C48.6239 51.3379 48.5653 51.66 48.5751 51.9724C48.3408 52.0505 48.1163 52.1579 47.9698 52.2945C47.511 52.7338 47.3256 53.3 47.3548 53.8564C47.2963 53.915 47.2377 53.9638 47.1791 54.0322C47.1108 54.12 47.0425 54.2274 46.9937 54.3445C46.6618 54.4519 46.3494 54.6374 46.2225 54.9107V54.9205C45.7929 55.0962 45.4025 55.3891 45.2658 55.7698C45.1194 56.17 45.2072 56.7557 45.4318 57.1755C45.4122 57.5464 45.4903 57.9564 45.666 58.2102C45.7734 58.3664 45.9003 58.4933 46.037 58.6007C46.0468 58.7276 46.0663 58.8643 46.0956 58.9912C45.9882 59.3036 45.9882 59.616 46.076 59.8991C46.0467 59.9283 46.0175 59.9576 45.9882 59.9967C45.5782 60.5043 45.3927 61.5098 46.0077 61.9588C45.7929 62.2712 45.6758 62.6519 45.6563 63.0619C45.6563 63.1107 45.666 63.1693 45.666 63.2181C45.256 63.8526 45.1291 64.9264 45.832 65.4048C45.7246 65.7757 45.7539 66.1662 45.8808 66.5176C45.7929 66.7617 45.7637 67.0155 45.7832 67.2791C45.2853 67.855 45.0022 68.8995 45.6953 69.4462C45.7734 69.5048 45.871 69.5438 45.9589 69.5926C46.076 69.866 46.2615 70.0905 46.4958 70.2564C46.5056 70.4126 46.5348 70.5688 46.5934 70.7153C46.5153 71.1057 46.5934 71.4767 46.7691 71.7891C46.691 72.2869 46.8179 72.7848 47.1206 73.1752C47.1596 73.6048 47.3548 73.9757 47.6575 74.2588C47.6965 74.4443 47.7551 74.6103 47.8429 74.7567L47.8332 74.7664C47.5306 75.2838 47.4622 76.1917 47.9796 76.6114C48.0187 76.7383 48.0675 76.8457 48.1358 76.9433C47.8722 77.5486 47.8527 78.3295 48.4579 78.72C48.6239 78.8274 48.8289 78.8762 49.0339 78.9055C49.0534 78.9348 49.0827 78.9738 49.1022 79.0031C49.0729 79.501 49.2584 79.95 49.5903 80.2722C49.5415 80.4772 49.5415 80.7212 49.5806 80.9457C49.2975 81.5314 49.2584 82.3222 49.8539 82.7029C49.9515 82.7712 50.0687 82.8102 50.176 82.8395C50.2444 82.9762 50.3322 83.0933 50.4396 83.2007C50.4396 83.2788 50.4396 83.3667 50.4591 83.435C50.547 83.7962 50.752 84.0695 51.0058 84.2648C50.9863 84.4502 51.0156 84.6357 51.0644 84.8212C50.7129 85.3776 50.586 86.2464 51.201 86.6564C51.2987 86.9786 51.4841 87.2422 51.7184 87.4472C51.7184 87.4472 51.7184 87.4472 51.7184 87.4569C51.777 87.7302 51.9039 87.9645 52.0698 88.1598C52.0601 88.1988 52.0406 88.2281 52.0308 88.2672C51.8648 88.8236 52.0015 89.6729 52.5579 89.9755C52.5872 90.1414 52.6458 90.3074 52.7434 90.4343C52.6751 90.5124 52.6165 90.5905 52.5775 90.6881C52.3529 91.1762 52.5091 91.9864 52.841 92.3867C52.9387 92.4941 53.0363 92.6014 53.1437 92.6795C53.1534 92.865 53.1729 93.0505 53.2217 93.236C53.3291 93.6264 53.6025 94.0462 53.9637 94.3293C53.9637 94.3488 53.9637 94.3781 53.9637 94.3976C54.0613 94.915 54.3444 95.325 54.7251 95.5886C54.7348 95.6179 54.7446 95.6667 54.7544 95.696C54.8227 95.8326 54.9106 95.9498 55.0082 96.0571C55.0082 96.0864 55.0082 96.1157 55.0082 96.145C55.1937 96.9455 55.7598 97.4824 56.4529 97.7069C56.5994 98.0779 56.8825 98.4 57.2827 98.4293C57.351 98.5855 57.4487 98.7417 57.5658 98.8686C57.5853 99.0052 57.6048 99.1517 57.6537 99.2884C57.7903 99.6984 58.1613 100.138 58.6006 100.313C58.5908 100.45 58.5908 100.596 58.6103 100.743C58.6494 101.075 58.8056 101.446 59.0301 101.748C59.0789 102.197 59.2839 102.617 59.7427 102.803C59.9867 102.9 60.2503 102.91 60.5334 102.871C60.4456 103.574 60.6994 104.433 61.4608 104.579C61.5291 104.589 61.5877 104.579 61.656 104.579C61.7146 104.648 61.7829 104.716 61.8806 104.765C62.1734 104.921 62.5248 104.901 62.9153 104.833C63.1887 105.058 63.5303 105.165 63.8818 105.175C63.9403 105.263 64.0184 105.341 64.0868 105.419C64.3894 105.712 64.897 105.926 65.346 105.868C65.4534 105.897 65.5608 105.917 65.6682 105.926C66.0001 106.493 66.6932 106.99 67.3472 106.727C67.6987 106.844 68.0696 106.864 68.4503 106.795C68.5382 106.825 68.6358 106.844 68.7432 106.844C68.8701 106.834 68.9872 106.785 69.1044 106.727C69.3875 106.961 69.7584 107.098 70.1587 107.117C70.2075 107.117 70.2563 107.117 70.3051 107.108C70.4515 107.205 70.6175 107.283 70.7932 107.342C70.9006 107.498 71.0275 107.645 71.1739 107.771C71.2618 107.84 71.3594 107.908 71.457 107.967C71.6815 108.425 72.0622 108.777 72.6089 108.767C72.8529 108.767 73.0677 108.679 73.2922 108.562C73.546 108.757 73.8584 108.855 74.1903 108.748C74.2684 108.728 74.327 108.679 74.3953 108.65C74.571 108.748 74.7565 108.826 74.9615 108.875C75.1275 108.914 75.3032 108.923 75.4984 108.914C75.6351 108.982 75.7815 109.05 75.9279 109.089C76.3477 109.206 76.8944 109.167 77.3239 108.943C77.3434 108.962 77.3629 108.982 77.3825 109.001C77.8901 109.402 78.7882 109.616 79.3934 109.265C79.9108 109.333 80.5063 109.226 80.8675 108.875C80.9358 108.826 81.0041 108.777 81.0725 108.728C81.0822 108.738 81.092 108.738 81.1017 108.748C81.3946 108.875 81.8046 108.904 82.156 108.806C82.5465 109.001 83.0248 109.04 83.3372 108.699C83.347 108.689 83.347 108.679 83.3567 108.679C83.4641 108.709 83.5813 108.718 83.6887 108.728C83.9327 108.835 84.2158 108.816 84.5184 108.757C84.5575 108.806 84.5965 108.865 84.6453 108.914C85.2017 109.48 86.3927 109.841 87.0175 109.128C87.2322 109.138 87.4568 109.109 87.6618 109.04C87.8375 109.099 88.0132 109.148 88.1987 109.177C88.5696 109.226 89.0284 109.138 89.4091 108.953C89.6532 108.953 89.8875 108.884 90.0827 108.699C90.3072 108.484 90.4146 108.191 90.4927 107.85C90.5317 107.84 90.561 107.83 90.5903 107.81C90.7563 107.889 90.9222 107.957 91.1175 107.996C91.2151 108.015 91.3127 108.025 91.4201 108.025C91.7617 108.269 92.1717 108.377 92.5817 108.191C92.9722 108.025 93.226 107.664 93.4701 107.215C93.7044 107.176 93.9387 107.088 94.1534 106.961C94.2217 106.922 94.2803 106.873 94.3486 106.815C94.7098 106.854 95.1101 106.756 95.3346 106.483C95.3639 106.483 95.3834 106.493 95.4127 106.493C95.4225 106.493 95.4225 106.493 95.4322 106.493C96.0472 106.981 97.1601 107.235 97.6775 106.473C97.697 106.444 97.7067 106.395 97.7263 106.366C97.8141 106.356 97.902 106.346 97.9898 106.327C98.146 106.356 98.312 106.366 98.4877 106.307C98.8782 106.18 99.1613 105.848 99.4444 105.429C99.6103 105.419 99.7763 105.39 99.9422 105.341C100.479 105.604 101.172 105.643 101.553 105.126C101.66 104.98 101.709 104.814 101.748 104.628C102.119 104.57 102.441 104.374 102.578 103.994C102.656 103.779 102.646 103.545 102.588 103.3C102.832 103.183 103.027 103.008 103.144 102.793C103.642 102.656 104.101 102.295 104.12 101.768C104.501 101.534 104.852 101.104 104.931 100.645C105.223 100.616 105.507 100.489 105.682 100.206C105.838 99.9619 105.868 99.6788 105.868 99.3567C106.258 99.1907 106.658 98.8393 106.815 98.4098C106.873 98.3414 106.932 98.2731 106.971 98.1755C107.234 98.1364 107.478 98.0193 107.644 97.7655C107.791 97.5605 107.849 97.3164 107.859 97.0431C108.357 96.8674 108.845 96.4867 108.962 96.0279C108.992 95.9107 108.992 95.7741 108.982 95.6472C109.001 95.6179 109.021 95.5886 109.05 95.5593C109.236 95.3348 109.362 95.0029 109.421 94.6612C109.86 94.5929 110.261 94.3683 110.417 93.9095C110.514 93.5972 110.466 93.2652 110.358 92.9041C110.622 92.6893 110.827 92.4062 110.866 92.1133C110.866 92.1036 110.866 92.0938 110.866 92.0938C111.422 91.6252 111.822 90.8541 111.412 90.1903L111.403 90.1805C111.461 89.9853 111.5 89.7607 111.5 89.5362C111.803 89.1067 111.959 88.521 111.715 88.0719C112.281 87.74 112.808 86.9298 112.535 86.2562C112.535 86.0414 112.516 85.8169 112.486 85.5826C112.721 85.3191 112.906 84.9481 112.926 84.5967C112.945 84.5772 112.965 84.5576 112.984 84.5381C113.16 84.46 113.316 84.3331 113.423 84.1476C113.638 83.7962 113.628 83.3667 113.57 82.8786C113.736 82.7419 113.853 82.5564 113.882 82.3124C113.892 82.1855 113.872 82.0488 113.833 81.9219C113.912 81.8243 113.98 81.7267 114.058 81.6193C114.243 81.3948 114.37 81.0629 114.439 80.7212C114.751 80.4088 114.985 79.9891 114.956 79.6083C114.946 79.4326 114.868 79.2569 114.771 79.0812C114.819 78.9641 114.849 78.8372 114.868 78.6907C115.22 78.3491 115.493 77.7926 115.434 77.3338C115.561 77.1093 115.649 76.8262 115.678 76.5236C115.864 76.3381 115.991 76.1136 116.02 75.8891C116.04 75.7426 116.001 75.5669 115.942 75.401C116.254 75.0691 116.401 74.5712 116.557 73.9953C116.684 73.6341 116.664 73.1069 116.508 72.6774C116.616 72.4919 116.703 72.2772 116.791 72.0429C116.869 71.8769 116.899 71.6524 116.899 71.4376C116.947 71.3986 116.996 71.3498 117.035 71.2912C117.787 71.1252 118.461 70.6176 118.373 69.866ZM83.0639 106.073C83.0541 106.073 83.0541 106.063 83.0444 106.053C82.7515 105.936 82.3317 106.005 82.0291 106.17C81.7851 105.985 81.502 105.868 81.2482 105.907C81.1994 105.917 81.1408 105.936 81.0822 105.956C81.0041 105.936 80.9358 105.907 80.8675 105.897C80.6625 105.878 80.4672 105.897 80.2817 105.946C79.9206 105.604 79.4227 105.36 78.9932 105.429C78.9444 105.438 78.8858 105.468 78.837 105.487C78.7394 105.438 78.6417 105.399 78.5344 105.39C78.0267 105.311 77.3434 105.643 77.0115 106.053C76.621 105.712 76.0646 105.468 75.6253 105.585C75.3422 105.419 75.0201 105.321 74.7272 105.341C74.4051 105.028 73.956 104.784 73.5753 104.765C73.3898 104.755 73.2141 104.775 73.0482 104.804C72.8529 104.599 72.6187 104.443 72.3746 104.394C72.0525 104.335 71.662 104.452 71.3301 104.648C71.086 104.53 70.8322 104.482 70.6077 104.53C70.3539 104.355 70.022 104.238 69.7096 104.228C69.4168 103.964 69.0165 103.759 68.5675 103.554C68.4503 103.486 68.3137 103.447 68.1672 103.408C68.1477 103.398 68.1477 103.369 68.1282 103.359C67.7475 103.047 66.986 102.988 66.5565 103.193C66.5272 103.203 66.5175 103.222 66.4882 103.232C66.3222 103.203 66.1367 103.183 65.9513 103.164C65.7853 102.91 65.551 102.695 65.2972 102.627C65.0141 102.559 64.6529 102.646 64.3601 102.803C64.3113 102.783 64.2625 102.764 64.2039 102.744C64.1941 102.744 64.1844 102.744 64.1844 102.734C64.2137 102.598 64.2234 102.461 64.2039 102.334C64.116 101.826 63.5498 101.27 63.0715 101.143C63.052 101.133 63.0325 101.133 63.0129 101.133C63.0129 101.104 63.0227 101.085 63.0227 101.055C63.0325 100.528 62.5834 99.8448 62.1246 99.6007C62.1051 99.3567 62.0563 99.1321 61.9196 98.9564C61.6756 98.6245 61.1387 98.3902 60.6798 98.361C60.6213 98.2633 60.5432 98.1852 60.4748 98.1072C60.4553 97.7557 60.3382 97.4141 60.1137 97.2091C59.9477 97.0626 59.6939 96.9748 59.4401 96.9357C59.4206 96.9064 59.4206 96.8674 59.401 96.8381C59.3425 96.76 59.2448 96.6917 59.1375 96.6331C59.2351 96.3891 59.2741 96.1255 59.1863 95.8424C59.0398 95.3641 58.6103 95.0322 58.0929 94.6807C58.0832 94.6514 58.0734 94.6319 58.0637 94.6026C57.9368 94.4074 57.7513 94.261 57.5268 94.1438C57.3608 93.7533 56.9898 93.4605 56.5506 93.1383C56.531 93.0798 56.5115 93.0212 56.4725 92.9626C56.4627 92.9431 56.4432 92.9333 56.4334 92.9138C56.6287 92.4941 56.6872 91.8888 56.5213 91.4105C56.5994 91.0298 56.5408 90.6393 56.2479 90.3367C56.0137 90.1024 55.6915 89.9853 55.3303 89.9169C55.2718 89.8486 55.2132 89.7803 55.1448 89.7119C55.2132 89.5753 55.2522 89.4386 55.2522 89.3019C55.2425 89.136 55.1644 88.9603 55.0472 88.8041C55.1937 88.5405 55.262 88.2476 55.2034 87.9841C55.1546 87.7595 54.9887 87.5252 54.7837 87.3398C54.7837 87.3203 54.7837 87.3007 54.7739 87.2714C54.7544 87.1933 54.7056 87.125 54.6665 87.0567C54.7641 86.8712 54.8032 86.6564 54.7544 86.4319C54.6958 86.1391 54.5201 85.895 54.2858 85.651C54.3541 85.2019 54.0906 84.5772 53.7391 84.3136C53.6415 84.2355 53.5341 84.1769 53.4365 84.1183C53.4365 83.9914 53.417 83.8645 53.3779 83.7474C53.4463 83.5814 53.4658 83.396 53.4072 83.2007C53.3584 83.0543 53.2706 82.9372 53.1632 82.82C53.251 82.6345 53.2803 82.4295 53.212 82.205C53.1729 82.0683 53.0948 81.9512 53.007 81.8438C53.0363 81.7852 53.0558 81.7169 53.0753 81.6486C53.1729 81.1702 52.8703 80.4772 52.4896 80.1941C52.4506 80.1648 52.4017 80.1355 52.3529 80.116C52.3529 80.0672 52.3725 80.0183 52.3627 79.9695C52.3334 79.8426 52.2553 79.706 52.1577 79.5888C52.1089 79.2764 51.9332 78.9641 51.7282 78.6224C51.8258 78.3979 51.8551 78.1636 51.7672 77.9293C51.816 77.8414 51.8648 77.7438 51.8844 77.6462C51.9918 77.1386 51.6794 76.4064 51.2791 76.1038C51.2694 76.1038 51.2694 76.0941 51.2596 76.0941C51.2889 75.8207 51.2206 75.5474 51.0253 75.3326C51.0253 75.3033 51.0351 75.2741 51.0351 75.235C51.0351 74.7762 50.6446 74.2002 50.2444 74.005C50.2346 73.9855 50.2151 73.9562 50.2053 73.9367C50.2151 73.9074 50.2346 73.8781 50.2346 73.8391C50.2932 73.4486 50.1077 73.0679 49.8539 72.6481C49.8344 72.365 49.7563 72.0624 49.6684 71.7305C49.6196 71.4669 49.4537 71.1643 49.2389 70.9105C49.1608 70.7641 49.0729 70.6176 48.9851 70.4614C48.9363 70.3638 48.8484 70.2564 48.7606 70.1686C48.7703 70.1198 48.7703 70.071 48.7703 70.0222C48.8582 69.8855 48.9168 69.7293 48.9168 69.5341C48.9168 69.4169 48.8972 69.3095 48.8582 69.2022C49.0339 69.046 49.1803 68.8702 49.2389 68.6652C49.3853 68.2064 49.1706 67.5231 48.8387 67.1522C48.8972 66.8691 48.8875 66.5469 48.8191 66.2541C48.8094 66.0686 48.7898 65.8831 48.7606 65.6879C48.7508 65.5805 48.7313 65.4633 48.6922 65.3364C48.7508 65.2095 48.7996 65.0729 48.8387 64.9362C49.1217 64.6921 49.3365 64.3798 49.3756 64.0576C49.4146 63.716 49.2584 63.306 49.0339 62.9741C49.1608 62.5836 49.1803 62.1638 49.0144 61.8514C48.946 61.7343 48.8484 61.6171 48.7313 61.5195C48.9167 61.3438 49.0437 61.1291 49.0827 60.9045C49.1413 60.5433 48.946 60.065 48.6825 59.7624C48.6434 59.6062 48.5848 59.4305 48.5165 59.2645C48.5653 59.0595 48.5848 58.8252 48.6141 58.5812C49.1022 58.1907 49.5025 57.4683 49.2584 56.8729C49.4341 56.5214 49.522 56.131 49.4537 55.7698C49.7368 55.76 50.0101 55.6624 50.2248 55.4183C50.547 55.0571 50.6056 54.5398 50.6348 53.9345C50.6446 53.9345 50.6446 53.9248 50.6544 53.9248C51.2108 53.9541 51.777 53.7588 52.0015 53.2122C52.1089 52.9388 52.0991 52.6362 52.0406 52.3141C52.4115 52.3043 52.7629 52.1774 52.9875 51.8455C53.2413 51.4745 53.251 50.9864 53.2022 50.43C53.2315 50.3714 53.251 50.3031 53.2706 50.2348C53.4658 50.1176 53.661 49.981 53.8758 49.8248C54.3639 49.8541 54.852 49.6979 55.1058 49.2391C55.2034 49.0633 55.2425 48.8681 55.262 48.6631C55.5353 48.546 55.7696 48.341 55.877 48.0286C55.9941 47.7064 55.9453 47.3452 55.8379 46.9645H55.8477C56.4334 47.4233 57.3218 47.6674 57.8879 47.0817C58.0344 46.9255 58.132 46.7303 58.2003 46.5253C58.4346 46.496 58.6494 46.3886 58.8056 46.1738C58.8446 46.1152 58.8739 46.0469 58.8934 45.9786C59.3034 46.0469 59.7622 45.9298 60.2796 45.7931C60.3382 45.7833 60.387 45.7638 60.4456 45.7443C60.8751 45.9395 61.3632 45.9688 61.7244 45.6174C61.861 45.4905 61.9489 45.3245 62.0172 45.1391C62.066 45.1195 62.1148 45.1 62.1637 45.0805C62.3101 45.1488 62.4663 45.1781 62.642 45.1586C63.052 45.1098 63.3839 44.8072 63.7353 44.446C63.9403 44.3874 64.1551 44.3093 64.3894 44.2117C64.4382 44.2019 64.4772 44.1629 64.526 44.1433C64.6822 44.1433 64.8482 44.1433 65.0239 44.1336C65.2679 44.1433 65.5608 44.0555 65.8244 43.9091C66.0001 43.9286 66.1758 43.9286 66.3515 43.8993C66.4101 43.8895 66.4784 43.87 66.537 43.8505C66.7615 43.9091 66.986 43.9481 67.2301 43.9383C67.7475 43.9188 68.382 43.6552 68.7432 43.216C68.9189 43.2355 69.0946 43.2257 69.2703 43.1964C69.6706 43.2941 70.0806 43.1183 70.5491 42.8938C70.9298 43.1672 71.4668 43.2843 71.8182 42.9329C71.8572 42.8938 71.8768 42.845 71.906 42.806C72.0134 42.806 72.1306 42.7962 72.2575 42.7962C72.3746 42.7962 72.5015 42.7767 72.6382 42.7376C72.8725 43.3722 73.3898 43.9481 74.1122 43.8407C74.4539 43.7919 74.737 43.5967 75.0201 43.3331C75.0396 43.3429 75.0591 43.3526 75.0787 43.3526C75.1372 43.3722 75.2056 43.3819 75.2739 43.4014C75.2934 43.4112 75.3129 43.421 75.3325 43.4307C75.8498 43.6064 76.416 43.4014 77.0701 43.1476C77.0994 43.1379 77.1287 43.1281 77.1579 43.1086C77.4801 43.255 77.8413 43.2843 78.1244 43.0402L78.1341 43.0305C78.222 43.0207 78.3098 43.011 78.4075 42.9817C78.5246 43.1086 78.6515 43.2257 78.7979 43.3331C79.2665 43.665 80.0279 43.831 80.6137 43.6162C80.8382 43.7919 81.1115 43.8993 81.4337 43.87C81.8925 43.831 82.2732 43.5381 82.6734 43.1672C83.0541 43.2941 83.5129 43.2843 84.0303 43.2648C84.372 43.2745 84.8015 43.1281 85.1432 42.9036C85.5434 43.1086 86.0022 43.1476 86.4415 43.0207H86.4513C86.627 43.3722 86.9101 43.6552 87.3396 43.7138C87.8277 43.7822 88.306 43.5479 88.8332 43.2257C89.2627 43.421 89.8094 43.421 90.4341 43.3917C90.6489 43.4014 90.8929 43.3429 91.137 43.255C91.5372 43.7431 92.1425 44.0848 92.7575 43.8114C93.1187 43.6552 93.3725 43.3233 93.6067 42.9231C93.7434 43.0207 93.8996 43.0891 94.0656 43.1476C94.2901 43.5186 94.6415 43.7919 95.1198 43.7822C95.4029 43.7724 95.6665 43.6748 95.9203 43.5088C96.1253 43.6357 96.3694 43.6943 96.6232 43.626C96.7403 43.5967 96.8379 43.5381 96.9356 43.4698C96.9941 43.5088 97.0429 43.5479 97.1015 43.5869C97.4041 43.7529 97.8239 43.8212 98.2046 43.7431C98.556 44.2117 99.1027 44.485 99.7177 44.5143C99.9715 44.8072 100.323 44.9926 100.713 44.8755C100.84 44.8364 100.957 44.7681 101.055 44.69C101.104 44.7291 101.153 44.7583 101.211 44.7876C101.231 44.7974 101.25 44.7974 101.26 44.8072C101.602 45.2367 102.119 45.5295 102.715 45.5979C102.861 45.6174 103.007 45.6076 103.164 45.5881C103.505 46.3007 104.325 46.9743 105.126 46.5936C105.302 46.5155 105.438 46.3886 105.565 46.2422C105.663 46.2519 105.77 46.2422 105.877 46.2031C105.956 46.1738 106.034 46.125 106.102 46.0762C106.18 46.1152 106.248 46.1641 106.327 46.1836C106.336 46.2226 106.346 46.2617 106.366 46.3007C106.59 46.8279 107.195 47.3745 107.81 47.3843C108.113 47.6479 108.484 47.8529 108.865 47.8626C108.962 48.0774 109.099 48.2726 109.284 48.4386C109.314 48.6924 109.392 48.9364 109.528 49.1805C109.528 49.1902 109.538 49.2 109.548 49.2098C109.597 49.4636 109.694 49.7076 109.831 49.8833C110.134 50.2543 110.524 50.4593 110.934 50.5374C111.022 50.6448 111.129 50.7326 111.237 50.8107C111.227 50.8986 111.217 50.9864 111.227 51.0743C111.237 51.455 111.422 51.8943 111.715 52.1969C111.715 52.2067 111.725 52.2164 111.725 52.2164C111.959 52.5776 112.272 52.8217 112.633 52.9486C112.662 53.0462 112.691 53.1536 112.74 53.2512C112.857 53.5245 113.101 53.7979 113.394 53.9833C113.394 54.2176 113.433 54.4421 113.511 54.6179C113.765 55.1352 114.185 55.4574 114.673 55.6038C114.78 55.76 114.917 55.8771 115.063 55.9748C115.063 56.0821 115.073 56.1798 115.083 56.2872C114.956 56.5898 114.888 56.9217 114.907 57.2731C114.917 57.566 115.024 57.9076 115.19 58.2005C114.985 58.5617 114.878 58.9814 114.907 59.4305C114.907 59.4598 114.917 59.4891 114.917 59.5086C114.8 60.065 114.927 60.6312 115.249 61.1095C115.034 61.4317 114.917 61.8905 114.985 62.2126C115.044 62.5055 115.161 62.7495 115.327 62.9643C115.307 63.0912 115.307 63.2181 115.327 63.3255C115.347 63.3938 115.386 63.4426 115.405 63.511C115.366 63.5793 115.327 63.6476 115.307 63.716C115.181 64.165 115.259 64.5848 115.464 64.9362C115.425 65.0631 115.405 65.19 115.415 65.3267C115.21 65.4438 115.044 65.6098 114.956 65.7952C114.79 66.1467 114.868 66.6836 115.063 67.0545C115.054 67.1229 115.034 67.201 115.034 67.2595C115.034 67.5524 115.112 67.816 115.239 68.0502C114.878 68.3724 114.605 68.9386 114.624 69.3681C114.634 69.6414 114.702 69.905 114.8 70.1295C114.712 70.3638 114.722 70.6664 114.81 70.93C114.634 71.2131 114.566 71.5255 114.585 71.8672C114.556 71.916 114.507 71.955 114.478 72.0136C113.619 72.5407 113.345 73.5169 113.648 74.4053C113.619 74.4931 113.599 74.5907 113.58 74.6883C113.433 74.7957 113.287 74.9324 113.17 75.0886C113.033 75.2838 112.926 75.5376 112.877 75.8012C112.662 76.1331 112.555 76.5333 112.564 76.9531C112.428 77.1581 112.32 77.3826 112.252 77.6364C112.223 77.7438 112.213 77.8707 112.213 77.9879C112.106 78.2026 112.047 78.4272 112.027 78.6712C111.842 78.8469 111.686 79.0617 111.569 79.296C111.461 79.5205 111.393 79.8036 111.383 80.0867C111.247 80.3893 111.188 80.731 111.198 81.0922C111.178 81.141 111.149 81.1995 111.139 81.2483C111.129 81.2874 111.129 81.3264 111.129 81.3655C111.071 81.4143 111.012 81.4631 110.973 81.5217C110.641 81.9903 110.553 82.5174 110.651 83.0153C110.544 83.2398 110.475 83.4936 110.505 83.6888C110.514 83.7669 110.534 83.8353 110.553 83.9133C110.427 84.05 110.329 84.216 110.251 84.3917C110.192 84.4405 110.124 84.4893 110.075 84.5479C109.851 84.8407 109.724 85.1629 109.694 85.4948C109.48 85.6022 109.304 85.7486 109.197 85.9341C108.952 86.3636 109.011 87.1153 109.294 87.5155C109.304 87.5253 109.314 87.535 109.323 87.5448C108.952 87.6912 108.621 87.945 108.494 88.2672C108.425 88.4526 108.425 88.6967 108.464 88.931C108.406 89.0383 108.357 89.1457 108.318 89.2629C108.113 89.3507 107.937 89.4679 107.81 89.6338C107.469 90.0731 107.439 90.9419 107.683 91.4202C107.693 91.43 107.693 91.4398 107.703 91.4495C107.683 91.4983 107.664 91.5472 107.644 91.596C107.547 91.7033 107.478 91.8205 107.43 91.9376C107.254 92.3574 107.244 92.7771 107.342 93.1579C106.893 93.3824 106.571 93.7631 106.405 94.2122C106.2 94.3195 106.004 94.4562 105.838 94.6319C105.712 94.7686 105.594 94.9345 105.497 95.12C105.497 95.12 105.487 95.1298 105.477 95.1298C105.253 95.4129 105.126 95.7253 105.087 96.0376C104.97 96.1353 104.872 96.2426 104.804 96.35C104.765 96.4281 104.735 96.4964 104.706 96.5745C104.374 96.6038 104.042 96.721 103.857 96.9455C103.72 97.1114 103.632 97.3457 103.593 97.5995C103.554 97.6386 103.515 97.6679 103.486 97.7069C103.252 98.0193 103.134 98.361 103.125 98.7026C103.017 98.8198 102.92 98.9369 102.851 99.0736C102.392 99.1029 101.914 99.2688 101.69 99.6007C101.602 99.7374 101.553 99.9131 101.524 100.099C101.26 100.362 101.065 100.792 101.065 101.114C101.065 101.192 101.075 101.26 101.084 101.329C101.045 101.358 101.016 101.387 100.977 101.416C100.635 101.495 100.274 101.748 100.079 102.051C99.8251 102.139 99.5908 102.285 99.4444 102.461C99.4053 102.5 99.3858 102.549 99.3468 102.598C99.2003 102.578 99.0441 102.578 98.8879 102.598C98.6927 102.568 98.5072 102.559 98.3413 102.598C98.0972 102.656 97.8825 102.754 97.697 102.881C97.2089 102.695 96.6232 102.656 96.2327 102.9C96.2132 102.91 96.1937 102.939 96.1741 102.949C95.7837 103.037 95.3932 103.242 95.1784 103.505C95.0808 103.623 95.0125 103.74 94.9441 103.867C94.827 103.876 94.7196 103.896 94.622 103.945C94.5244 103.994 94.4463 104.072 94.3682 104.16C94.2901 104.14 94.2022 104.12 94.1241 104.13C93.9191 104.15 93.7044 104.286 93.5287 104.452C93.4896 104.443 93.4506 104.433 93.4115 104.433C93.4018 104.433 93.392 104.433 93.3822 104.433C92.9722 104.218 92.406 104.16 92.0253 104.296C91.7422 104.394 91.4982 104.55 91.3029 104.726C91.0784 104.667 90.8441 104.648 90.6391 104.716C90.3756 104.804 90.1315 105.038 89.9558 105.311C89.5556 105.136 88.9406 105.224 88.5598 105.458C88.1401 105.272 87.6715 105.204 87.3103 105.36C87.1834 105.409 87.0663 105.497 86.9589 105.604C86.8515 105.565 86.7344 105.546 86.627 105.536C86.5196 105.458 86.4025 105.39 86.2756 105.36C85.7484 105.214 84.9479 105.497 84.5965 105.907C84.5087 106.014 84.4306 106.122 84.3622 106.229C84.3037 106.249 84.2548 106.268 84.1963 106.297C83.8546 106.141 83.4348 106.014 83.0639 106.073Z" fill="#00C113"/>
<path d="M76.3576 106.336C76.3576 106.17 76.3283 106.014 76.2697 105.878C76.055 105.419 75.3716 105.028 74.8835 105.028C74.6395 105.028 74.415 105.077 74.2002 105.145C73.8195 104.862 73.3314 104.687 72.9214 104.794C72.8726 104.804 72.814 104.843 72.7652 104.872C72.57 104.853 72.3845 104.862 72.2283 104.911C72.1307 104.94 72.0428 104.98 71.955 105.028C71.8183 104.94 71.6719 104.872 71.5254 104.862C71.135 104.814 70.6371 105.048 70.3345 105.35C70.3247 105.35 70.315 105.35 70.315 105.35C70.2466 105.292 70.1783 105.243 70.11 105.185C69.6316 104.755 68.6164 104.521 68.0502 104.901C67.9721 104.96 67.894 105.038 67.8257 105.126C67.7378 105.126 67.6402 105.126 67.5621 105.136C67.3766 105.097 67.1716 105.097 66.9666 105.145C66.5469 104.775 65.9514 104.521 65.4731 104.638C65.2485 104.696 65.024 104.853 64.8288 105.038C64.3895 104.833 63.7257 104.843 63.3352 105.067C63.1595 105.175 63.0131 105.302 62.8764 105.438C62.5542 105.243 62.1247 105.136 61.8123 105.194C61.6561 105.224 61.5097 105.272 61.3731 105.341C60.8459 105.028 60.0259 104.901 59.5378 105.224C59.45 105.282 59.3621 105.38 59.284 105.477C58.9033 105.263 58.3761 105.175 58.0052 105.272C57.8392 105.321 57.6831 105.39 57.5366 105.468C57.0778 105.39 56.4823 105.555 56.17 105.839C56.1309 105.878 56.0919 105.926 56.0528 105.965C56.0138 105.975 55.965 105.985 55.9259 105.995L55.9161 105.985C55.4281 105.741 54.5983 105.858 54.1883 106.19C54.0223 106.317 53.8954 106.473 53.7783 106.629C53.6611 106.668 53.5635 106.717 53.4562 106.766C53.3878 106.756 53.3195 106.737 53.2609 106.737C52.6361 106.756 52.1285 107.049 51.8064 107.498C51.4452 107.498 51.0645 107.615 50.8009 107.83C50.7619 107.81 50.7131 107.781 50.6642 107.771C50.1371 107.615 49.3366 107.879 48.9754 108.269C48.9559 108.299 48.9364 108.328 48.9169 108.347C48.8583 108.367 48.7997 108.367 48.7411 108.386C48.419 108.523 48.1652 108.738 47.9602 108.972C47.5111 109.031 46.9938 109.46 46.8376 109.87V109.88C46.5935 109.9 46.369 109.978 46.1933 110.105C45.6661 110.056 45.0414 110.212 44.7583 110.593C44.5338 110.905 44.485 111.442 44.5923 111.852C44.5923 111.862 44.5826 111.881 44.5728 111.891C44.5338 112.047 44.524 112.194 44.5338 112.34C44.4069 112.418 44.2995 112.506 44.2214 112.623C44.0359 112.887 43.9969 113.316 44.075 113.677C44.0554 113.726 44.0164 113.765 44.0066 113.814C43.909 114.146 43.909 114.468 43.9773 114.771C43.8992 114.868 43.8211 114.966 43.7528 115.083C43.5576 115.415 43.46 115.903 43.5381 116.333C43.5283 116.381 43.5381 116.44 43.5381 116.489C43.4502 116.606 43.3721 116.733 43.3331 116.85C42.9914 117.865 43.5088 118.841 44.4361 119.251C44.485 119.271 44.5338 119.29 44.5923 119.3C44.6802 119.417 44.7973 119.515 44.9633 119.564C45.0414 119.593 45.1195 119.593 45.2073 119.593C45.2854 119.798 45.4026 119.984 45.549 120.159C45.5685 120.491 45.7052 120.794 46.0078 120.989C46.2323 121.126 46.4862 121.175 46.7692 121.184C47.0231 121.545 47.4038 121.809 47.8528 121.965C47.9407 122.258 48.0871 122.531 48.2628 122.707C48.585 123.02 48.9559 123.205 49.3366 123.273C49.815 123.781 50.5373 124.005 51.2695 123.879C51.4354 123.937 51.6111 123.976 51.7966 123.986C52.07 123.996 52.3921 123.927 52.6752 123.771C52.8607 123.81 53.0657 123.8 53.2707 123.752C53.3878 123.84 53.5245 123.908 53.6611 123.947C53.8173 124.123 54.0126 124.259 54.2761 124.279C54.6471 124.318 55.0083 124.142 55.389 123.908C55.6916 124.113 56.0528 124.201 56.3847 124.005C56.5019 123.937 56.5995 123.83 56.6776 123.713C56.9119 123.752 57.1559 123.742 57.3804 123.664C57.7807 123.859 58.2492 123.888 58.6885 123.713C58.6983 123.722 58.7178 123.732 58.7276 123.742C58.8545 123.81 59.0009 123.849 59.1571 123.879C59.4597 124.25 59.899 124.503 60.3773 124.328C60.5823 124.25 60.7483 124.113 60.9045 123.937C61.0607 123.957 61.2169 123.966 61.3731 123.937C61.6073 124.132 61.8904 124.25 62.2223 124.181C62.4664 124.132 62.6714 124.005 62.8666 123.82C63.2181 123.888 63.589 123.859 63.9404 123.742C64.4871 124.005 65.19 124.054 65.6097 123.595C65.9904 123.625 66.42 123.556 66.7421 123.351C66.9373 123.342 67.1228 123.283 67.2888 123.137C67.2985 123.127 67.2985 123.117 67.3083 123.117C67.3864 123.127 67.4742 123.117 67.5621 123.098C67.6695 123.068 67.7769 123.02 67.8647 122.951C68.0892 123.068 68.3333 123.156 68.5969 123.195C69.2704 123.303 70.2271 123.01 70.52 122.326C70.7835 122.336 71.0569 122.287 71.3302 122.19C71.8769 121.975 72.4431 121.37 72.4431 120.745C72.4431 120.735 72.4528 120.735 72.4528 120.725C72.4723 120.725 72.4919 120.725 72.5114 120.716C73.1459 120.599 73.9073 119.993 73.8488 119.281C73.8585 119.271 73.8585 119.251 73.8683 119.242C74.3173 119.212 74.7469 119.017 74.9031 118.568C75.4204 118.461 75.8792 118.158 75.9573 117.602C75.9769 117.445 75.9573 117.299 75.9183 117.143C76.3185 116.84 76.5919 116.381 76.4357 115.874C76.4064 115.786 76.3576 115.698 76.3088 115.62C76.4259 115.444 76.5138 115.249 76.5235 115.054C76.5333 114.946 76.504 114.82 76.4747 114.702C76.5919 114.546 76.67 114.37 76.6992 114.185C76.7871 113.638 76.4064 112.877 75.9573 112.584C75.9281 112.565 75.8988 112.555 75.8695 112.535C75.8402 112.486 75.8109 112.438 75.7816 112.389C75.9378 112.203 76.055 111.979 76.0745 111.754C76.2502 111.608 76.3966 111.432 76.4552 111.227C76.5821 110.807 76.3966 110.212 76.1135 109.86C76.1819 109.675 76.1916 109.48 76.1233 109.285C76.3381 109.021 76.4845 108.699 76.465 108.377C76.7285 108.055 76.9042 107.684 76.875 107.322C76.8652 106.99 76.6407 106.619 76.3576 106.336Z" fill="#00C113"/>
<path d="M120.345 116.928C120.335 116.889 120.306 116.86 120.296 116.821C120.384 116.586 120.403 116.342 120.315 116.128C120.423 115.952 120.491 115.757 120.491 115.571C120.491 115.2 120.247 114.761 119.945 114.478C119.886 114.331 119.818 114.175 119.74 114.009C119.954 113.658 120.032 113.228 119.779 112.867C119.681 112.73 119.554 112.633 119.398 112.545C119.359 112.418 119.31 112.301 119.242 112.174C119.466 111.803 119.554 111.354 119.29 110.964C119.017 110.544 118.47 110.368 117.855 110.173C117.67 110.105 117.445 110.085 117.221 110.085C117.133 110.046 117.035 110.007 116.938 109.968C116.918 109.958 116.879 109.958 116.85 109.948C116.762 109.753 116.616 109.548 116.43 109.372C116.362 109.07 116.235 108.787 116.03 108.601C115.776 108.377 115.356 108.269 114.956 108.26C114.771 108.015 114.546 107.82 114.283 107.732C113.931 107.625 113.463 107.713 113.082 107.898C112.935 107.801 112.76 107.732 112.574 107.664C112.555 107.596 112.535 107.527 112.506 107.469C112.291 107.03 111.627 106.678 111.149 106.688C111.042 106.688 110.954 106.707 110.856 106.727C110.661 106.62 110.446 106.532 110.231 106.502C110.095 106.258 109.919 106.044 109.695 105.936C109.333 105.751 108.777 105.77 108.347 105.936C108.211 105.917 108.074 105.907 107.937 105.907C107.801 105.712 107.625 105.546 107.42 105.468C107.244 105.399 107.039 105.39 106.815 105.409C106.434 105.214 105.946 105.126 105.595 105.224C105.311 105.302 105.058 105.429 104.853 105.604C104.784 105.585 104.716 105.546 104.648 105.546C104.462 105.526 104.296 105.536 104.13 105.565C104.081 105.526 104.042 105.497 104.003 105.468C103.525 105.038 102.51 104.814 101.944 105.185C101.934 105.194 101.934 105.204 101.924 105.204C101.709 105.263 101.524 105.35 101.358 105.468C101.27 105.302 101.153 105.165 101.016 105.067C100.596 104.775 99.8057 104.784 99.3664 105.028C99.2395 105.097 99.1322 105.185 99.0345 105.272C98.9857 105.263 98.9369 105.253 98.8881 105.243C98.4684 104.804 97.7948 104.472 97.2579 104.599C96.9748 104.667 96.6917 104.882 96.4672 105.145C96.35 105.185 96.2426 105.233 96.1548 105.292C95.94 105.175 95.6862 105.097 95.4129 105.087C94.9053 104.706 93.9779 104.521 93.4507 104.872C93.3629 104.931 93.2946 105.009 93.2165 105.097C93.0505 104.96 92.865 104.862 92.6698 104.833C92.5136 104.814 92.3281 104.853 92.1524 104.911C91.84 104.823 91.5081 104.814 91.2543 104.892C91.1372 104.931 91.0298 104.98 90.9322 105.028C90.5807 104.814 90.1707 104.696 89.8291 104.784C89.6729 104.823 89.5069 104.921 89.3605 105.048C88.5698 105.165 87.9841 105.721 87.7693 106.463C87.6034 106.639 87.4667 106.834 87.3593 107.059C87.0372 107.732 87.0665 108.855 87.7693 109.294C87.7693 109.304 87.7791 109.304 87.7791 109.314C87.7498 109.519 87.7693 109.724 87.8279 109.909C87.3495 110.436 87.0762 111.422 87.7303 111.93C87.7888 111.979 87.8572 111.998 87.9157 112.028C87.9353 112.086 87.9548 112.135 87.9743 112.184C87.9548 112.242 87.9157 112.311 87.906 112.369C87.8767 112.535 87.8865 112.691 87.906 112.838C87.8279 112.916 87.7498 112.984 87.6815 113.072C87.2519 113.609 87.0372 114.575 87.4667 115.181C87.4276 115.483 87.4667 115.786 87.5838 116.05C87.5838 116.069 87.5838 116.089 87.5838 116.108C87.6717 116.479 87.8474 116.782 88.0914 117.016C88.2086 117.67 88.6674 118.197 89.3019 118.461C89.4288 118.656 89.6045 118.822 89.8095 118.959C89.8193 119.017 89.8291 119.085 89.8486 119.144C89.956 119.505 90.2293 119.886 90.5807 120.11C90.7857 120.355 91.0395 120.53 91.3324 120.638C91.4007 120.735 91.4886 120.794 91.5667 120.872C91.5862 121.018 91.6253 121.165 91.6741 121.282C91.9474 121.848 92.4257 122.18 92.9626 122.297C93.0798 122.512 93.2555 122.678 93.5093 122.736C93.7241 122.785 93.9388 122.766 94.1634 122.688C94.4757 122.951 94.8564 123.127 95.2957 123.195C95.5886 123.244 95.94 123.205 96.2622 123.107C96.3012 123.107 96.3305 123.107 96.3598 123.098C96.4672 123.068 96.5648 123.02 96.6526 122.961C96.9553 123.234 97.3848 123.42 97.7753 123.342C97.9119 123.42 98.0486 123.478 98.195 123.527C98.3805 123.586 98.5855 123.615 98.8003 123.605C99.2493 123.898 99.8741 124.054 100.362 123.849C100.45 123.849 100.528 123.859 100.616 123.849C100.86 124.093 101.172 124.24 101.534 124.171C101.739 124.132 101.924 124.025 102.09 123.879C102.305 123.937 102.529 123.957 102.744 123.927C103.037 124.259 103.457 124.474 103.906 124.318C104.16 124.23 104.355 124.035 104.531 123.791C104.843 123.898 105.233 123.918 105.536 123.781C105.848 123.84 106.18 123.83 106.502 123.693C106.512 123.693 106.512 123.683 106.522 123.683C106.737 123.732 106.951 123.732 107.166 123.674C107.391 123.918 107.693 124.093 108.006 124.093C108.133 124.181 108.269 124.24 108.435 124.259C108.845 124.298 109.246 124.084 109.675 123.8C110.026 124.005 110.466 124.074 110.778 123.771C110.807 123.742 110.827 123.703 110.856 123.674C110.915 123.693 110.983 123.722 111.042 123.732C111.208 123.771 111.393 123.771 111.588 123.742C111.813 123.859 112.076 123.937 112.35 123.947C112.545 123.957 112.76 123.918 112.965 123.849C113.209 123.888 113.463 123.888 113.716 123.84C114.224 123.752 114.81 123.39 115.083 122.893C115.171 122.834 115.269 122.766 115.356 122.697C115.542 122.531 115.718 122.297 115.845 122.043C116.606 122.102 117.563 121.741 117.641 120.891C117.641 120.862 117.631 120.833 117.631 120.804C117.68 120.774 117.719 120.755 117.758 120.716C118.012 120.696 118.256 120.599 118.431 120.384C118.666 120.101 118.724 119.71 118.744 119.271C118.754 119.271 118.763 119.261 118.763 119.261C119.456 119.486 120.491 119.349 120.706 118.529C120.862 118.051 120.618 117.533 120.345 116.928Z" fill="#00C113"/>
<path d="M67.4645 67.7476C66.2345 66.4591 66.9959 62.5836 70.7152 62.2907C74.4345 61.9979 74.5126 65.2388 73.8976 66.9667C73.4095 68.3236 70.4614 70.891 67.4645 67.7476Z" fill="#494949"/>
<path d="M87.8376 67.2693C86.6466 65.9417 87.9742 61.5391 91.6447 62.1834C94.6221 62.7007 94.583 64.6141 94.1438 66.3224C93.6849 68.0698 90.7661 70.5493 87.8376 67.2693Z" fill="#494949"/>
<path d="M87.613 73.8488C87.5154 73.7414 87.3788 73.6438 87.2323 73.5559C87.2226 73.5364 87.2226 73.5169 87.2128 73.4974C86.998 73.1752 86.5002 72.9507 86.0707 72.9214C86.0316 72.7945 85.973 72.6578 85.8754 72.5407C85.5142 72.0819 84.8699 71.9452 84.1378 71.789C83.9523 71.7402 83.7278 71.7207 83.5033 71.7402C83.3373 71.5645 83.1616 71.4083 82.9761 71.3302C82.6052 71.174 82.2342 71.135 81.873 71.1838C81.463 70.7836 80.8383 70.4907 80.3404 70.6176C79.9792 70.7055 79.618 71.0276 79.3838 71.3888C78.8761 71.3107 78.3978 71.4376 78.0073 71.7109C77.9683 71.7012 77.9195 71.6914 77.8804 71.6914C77.5192 71.6817 77.0897 71.9257 76.8359 72.2186C76.4942 72.1502 76.133 72.16 75.8792 72.3259C75.6254 72.4919 75.4302 72.8531 75.3618 73.2045C75.2057 73.3314 75.0788 73.4778 74.9811 73.6438C74.9323 73.6536 74.8738 73.6438 74.8249 73.6536C74.4149 73.7902 74.0147 74.3271 73.9659 74.7469C73.9464 74.8836 73.9561 75.0105 73.9659 75.1374C73.8878 75.1862 73.8097 75.2545 73.7316 75.3228C73.3411 75.7036 73.0776 76.5333 73.6145 76.9336C73.9171 77.1581 74.3466 77.1386 74.8347 77.119C75.1861 77.1288 75.6449 76.914 75.889 76.6017C76.4259 76.5236 76.9628 76.2112 76.9921 75.6352C76.9921 75.5962 76.9823 75.5669 76.9823 75.5278C77.0702 75.3912 77.1678 75.2447 77.2557 75.0886C77.4704 75.069 77.6949 74.9909 77.9097 74.8738C78.3002 74.9519 78.7199 74.8933 79.003 74.6493C79.208 74.5809 79.413 74.4931 79.6376 74.3955C79.8035 74.3369 79.9695 74.2295 80.1257 74.1026C80.1257 74.1026 80.1354 74.1026 80.1354 74.1124C80.2623 74.4052 80.4771 74.6493 80.8188 74.7664C81.2776 74.9226 81.7657 74.7859 82.3221 74.5809C82.3611 74.5809 82.3904 74.5907 82.4295 74.5907C82.9566 75.1276 83.6888 75.3131 84.3916 75.1667C84.5088 75.6059 84.8016 76.0745 85.2214 76.2502C85.6216 76.6895 86.1976 76.9628 86.8321 76.9824C87.6618 77.0019 88.843 76.3967 88.7064 75.4009C88.6283 74.8055 88.1597 74.3564 87.613 73.8488Z" fill="#494949"/>
<path d="M95.7935 98.1071C95.6764 97.7069 95.3054 97.4433 94.8563 97.1309C94.7782 97.0626 94.6611 97.0138 94.5537 96.965C94.5342 96.9064 94.5244 96.8381 94.4854 96.7893C94.3975 96.6624 94.2511 96.5647 94.0949 96.4867C93.9875 95.8717 93.5092 95.1298 92.9137 94.9833C92.6599 94.9248 92.3475 94.9638 92.0449 95.0809C91.9082 95.0028 91.7716 94.9443 91.6252 94.9345C91.4104 94.915 91.1664 94.9931 90.9418 95.12C90.9223 95.1102 90.9125 95.1005 90.893 95.0907C90.8735 95.0614 90.8735 95.0224 90.854 95.0029C90.5514 94.6319 89.829 94.4269 89.3702 94.544C89.0187 94.2024 88.5502 93.9583 88.1304 94.0071C87.8668 94.0364 87.5837 94.1828 87.3397 94.3878C86.9687 93.9778 86.3635 93.6557 85.8656 93.7533C85.768 93.7728 85.6802 93.8217 85.5825 93.8705C85.2018 93.7045 84.7235 93.6557 84.1963 93.6069C84.1475 93.5971 84.089 93.5971 84.0304 93.5971C83.7766 93.3531 83.474 93.1871 83.1616 93.1774C83.0249 93.1774 82.8785 93.2067 82.7223 93.2555C82.4002 93.1774 82.039 93.1774 81.7852 93.2847C81.668 93.3336 81.5606 93.3921 81.463 93.4507C80.8675 93.1969 79.9011 93.2457 79.4618 93.7338C79.4228 93.7826 79.3935 93.8509 79.3544 93.9095C79.2861 93.9388 79.2178 93.9778 79.1592 94.0169C78.9347 94.0071 78.7004 94.0462 78.4856 94.1243C78.2221 93.9388 77.9097 93.8314 77.6363 93.8607C77.4216 93.89 77.1971 94.0071 77.0018 94.1731C76.7187 94.1633 76.3868 94.2707 76.133 94.4464C76.0159 94.4367 75.8987 94.4464 75.7913 94.4659C75.3521 94.2609 74.7468 94.2414 74.3563 94.4171C74.3368 94.4269 74.3173 94.4464 74.2978 94.4562C74.2587 94.4464 74.2294 94.4171 74.1904 94.4171C73.673 94.2805 72.8921 94.5733 72.5602 94.9833C72.5211 95.0321 72.5016 95.0809 72.4625 95.12C72.1502 95.12 71.7987 95.2078 71.5059 95.364C71.2813 95.4226 71.0666 95.5202 70.9202 95.6471C70.6761 95.8717 70.5102 96.1255 70.4125 96.3988C70.3735 96.4086 70.3344 96.3988 70.2954 96.4183C70.1002 96.5062 69.9244 96.7112 69.7975 96.9455C69.5437 97.0333 69.2997 97.1797 69.163 97.3555C68.6456 98.0486 68.8018 98.9271 69.4071 99.4738C69.8561 99.874 70.7835 100.089 71.174 99.4738C71.2716 99.3176 71.3106 99.1321 71.3302 98.9271C71.4375 98.9076 71.5547 98.8881 71.6621 98.849C72.0623 98.9662 72.4821 98.9271 72.7847 98.605C72.9213 98.4586 73.0092 98.2731 73.0678 98.0778C73.5266 98.3609 74.1318 98.5074 74.6199 98.3219C74.864 98.3707 75.108 98.3512 75.3521 98.2145C75.5863 98.0876 75.7621 97.8826 75.9085 97.6386C76.1135 97.5702 76.3185 97.4921 76.5333 97.3945C76.5625 97.3848 76.5918 97.3652 76.6211 97.3555C77.0506 97.5214 77.568 97.5409 77.9097 97.2383C78.388 97.3262 78.9444 97.2383 79.2861 96.9162C79.6375 96.9357 80.0378 96.8576 80.4771 96.76C80.5356 96.7502 80.5942 96.7307 80.6625 96.7112C80.9359 96.7698 81.2287 96.7795 81.5118 96.7307C81.8242 96.9259 82.1952 96.9943 82.5563 96.8186C82.5954 96.799 82.6247 96.7698 82.6637 96.7405C82.9273 96.8771 83.2592 96.9552 83.5813 96.9552C83.9913 97.0626 84.4209 97.0333 84.8309 96.8967C84.9578 96.8967 85.0847 96.8674 85.2213 96.8283C85.4459 97.0431 85.7192 97.2188 86.0316 97.3262C86.4123 97.4531 86.9102 97.4531 87.3299 97.2969C87.5154 97.4628 87.7302 97.6093 87.9644 97.7167C88.1597 97.8045 88.3842 97.8533 88.6283 97.8728C88.9113 98.0974 89.253 98.2145 89.6337 98.0876C89.868 98.0095 90.0633 97.8533 90.239 97.6386C90.4147 97.7069 90.6197 97.7362 90.8247 97.7362C90.8637 97.7655 90.9028 97.8045 90.9516 97.8338C91.0004 97.8631 91.0492 97.8924 91.1078 97.9217C91.2152 98.1169 91.3518 98.2926 91.5275 98.4488C91.8887 98.7905 92.5135 99.0443 93.0602 98.9857C93.1383 99.0052 93.2261 99.0052 93.314 98.9955C93.6459 99.3079 94.1047 99.4836 94.5928 99.425C95.2175 99.3567 95.9887 98.81 95.7935 98.1071Z" fill="#00C113"/>
<path d="M98.3218 76.9336C98.3413 76.7774 98.2339 76.5626 98.0973 76.4748C98.107 76.465 98.1168 76.4552 98.1168 76.4455C98.1558 76.2893 98.0777 76.055 97.9606 75.9574C97.9508 75.9476 97.9313 75.9476 97.9215 75.9379C97.902 75.85 97.863 75.7719 97.8044 75.7231C97.7946 75.7133 97.7751 75.7036 97.7556 75.6938C97.7458 75.6157 97.7165 75.5474 97.658 75.4888C97.6482 75.4498 97.6384 75.4009 97.6287 75.3619C97.7165 75.2545 97.7653 75.1276 97.7068 74.991C97.6873 74.9617 97.658 74.9421 97.6385 74.9129C97.6482 74.7762 97.5994 74.6005 97.5018 74.5224C97.453 74.4833 97.4042 74.454 97.3456 74.4248C97.3651 74.3955 97.3846 74.3662 97.3846 74.3369C97.4042 74.2393 97.3553 74.1124 97.2773 74.0148C97.3261 73.839 97.2675 73.5462 97.1113 73.4486C97.1406 73.3412 97.1406 73.2338 97.0723 73.146C97.0235 73.0874 96.9551 73.0483 96.8673 73.0191C96.8477 72.9605 96.8185 72.9117 96.7696 72.8629C96.7306 72.7652 96.672 72.6676 96.5842 72.5602C96.5744 72.5505 96.5646 72.5505 96.5646 72.5407C96.5744 72.4236 96.5646 72.2967 96.4865 72.2186C96.4865 72.2186 96.467 72.2186 96.467 72.2088C96.467 72.1405 96.4475 72.0819 96.3889 72.0331C96.3889 72.0331 96.3792 72.0331 96.3792 72.0233C96.3694 71.9452 96.3499 71.8769 96.3011 71.8183C96.3108 71.7793 96.3206 71.7402 96.3206 71.7012C96.3108 71.6231 96.262 71.5352 96.2035 71.4669C96.2035 71.4181 96.2035 71.3693 96.1742 71.3205C96.1254 71.2326 96.0277 71.174 95.9106 71.1252C95.9106 71.0471 95.8813 70.9691 95.8325 70.891C95.8325 70.8617 95.8423 70.8226 95.8325 70.7933C95.8227 70.7445 95.7837 70.7055 95.7446 70.6664C95.7349 70.6176 95.7251 70.5688 95.7154 70.5102C95.6958 70.3541 95.5494 70.1588 95.3932 70.0905C95.3444 69.9733 95.2468 69.8562 95.1394 69.8269C94.9832 69.7781 94.8368 69.8074 94.7196 69.8855C94.5537 69.7976 94.3682 69.7683 94.1925 69.7976C94.0363 69.7586 93.8703 69.7879 93.7239 69.8855C93.6946 69.8855 93.6751 69.8855 93.6458 69.8952C93.5092 69.8269 93.3334 69.7879 93.2065 69.8464C93.0699 69.9148 92.9527 70.1295 92.9527 70.2857C92.9527 70.315 92.9625 70.3443 92.9723 70.3736C92.9235 70.4321 92.8844 70.5005 92.8649 70.5786C92.8551 70.6079 92.8551 70.6371 92.8551 70.6664C92.8161 70.764 92.7965 70.8714 92.8161 70.969C92.8063 70.9788 92.7965 70.9983 92.7868 71.0179C92.7673 71.0179 92.7575 71.0179 92.738 71.0276C92.6208 71.0862 92.5232 71.2619 92.5232 71.3888C92.5232 71.4181 92.533 71.4474 92.5427 71.4767C92.533 71.4864 92.5232 71.4962 92.5232 71.506C92.4939 71.5645 92.4842 71.6133 92.4842 71.6719C92.4061 71.7305 92.3475 71.8183 92.3084 71.916C92.2011 72.0038 92.123 72.121 92.0937 72.2674C92.0839 72.2869 92.0937 72.3162 92.0937 72.3357C92.0839 72.3455 92.0742 72.3455 92.0644 72.3552C92.0254 72.4041 91.9961 72.4724 91.9765 72.5407C91.957 72.57 91.9375 72.5993 91.9277 72.6286C91.8301 72.6969 91.7423 72.7945 91.7227 72.8921C91.713 72.9507 91.713 73.019 91.713 73.0776C91.6544 73.1655 91.6349 73.2631 91.6251 73.3705C91.5665 73.4486 91.5177 73.5462 91.508 73.6438C91.4396 73.7414 91.4103 73.8488 91.4201 73.9562C91.3811 74.0148 91.3615 74.0831 91.3615 74.1514C91.342 74.1612 91.3127 74.1514 91.303 74.171C91.2249 74.2393 91.1858 74.3955 91.1956 74.5029C91.137 74.581 91.098 74.6688 91.0785 74.7664C91.0687 74.7762 91.0492 74.7762 91.0394 74.786C90.8734 74.9421 90.7661 75.2741 90.9515 75.4595C90.9418 75.4693 90.9223 75.4693 90.9125 75.4888C90.893 75.5279 90.8832 75.5864 90.8832 75.645C90.8051 75.7231 90.7368 75.811 90.7075 75.9281C90.6977 75.9671 90.6977 76.0062 90.6977 76.0452C90.6587 76.1233 90.6489 76.221 90.6489 76.3088C90.6099 76.3674 90.6001 76.4455 90.6099 76.5236C90.5708 76.5529 90.5318 76.5821 90.5025 76.6212C90.3756 76.7871 90.317 77.1288 90.5415 77.2557C90.5708 77.2655 90.6001 77.2655 90.6294 77.2752C90.6977 77.3924 90.8051 77.4998 90.9418 77.5583H90.9515C91.2151 78.9055 92.2694 79.9695 93.6165 80.2429C93.6361 80.399 93.7239 80.5552 93.8899 80.5845C93.9192 80.5845 93.9484 80.5748 93.9875 80.565C94.007 80.5943 94.0266 80.6236 94.0558 80.6529C94.2023 80.7798 94.5146 80.8579 94.6415 80.6529C94.6806 80.5943 94.6904 80.526 94.6904 80.4479C94.7196 80.4088 94.7489 80.36 94.7782 80.3112C94.827 80.3014 94.8758 80.3014 94.9246 80.2819C94.9442 80.2721 94.9637 80.2526 94.993 80.2429C96.3108 79.9695 97.3554 78.9348 97.6385 77.6267C97.7068 77.5779 97.7849 77.5193 97.8532 77.4607C97.9118 77.4217 97.9606 77.3436 98.0094 77.2752C98.1656 77.2167 98.3023 77.08 98.3218 76.9336Z" fill="#64BFFF"/>
</svg>
