<svg width="164" height="164" viewBox="0 0 164 164" fill="none" xmlns="http://www.w3.org/2000/svg">
<path d="M88.1101 109.48H75.8701C66.2101 109.48 57.3901 103.8 54.7101 95.53L46.5201 70.28C42.0001 56.34 52.1701 42.19 68.0801 42.19H95.9001C111.82 42.19 121.98 56.34 117.46 70.28L109.27 95.53C106.59 103.8 97.7701 109.48 88.1101 109.48Z" fill="#FFEA62"/>
<path d="M119.38 70.97C119.34 70.6 119.11 70.28 118.82 69.96C118.83 69.92 118.83 69.89 118.84 69.85C118.85 69.81 118.85 69.75 118.85 69.71C119.1 69.5 119.28 69.21 119.24 68.85C119.22 68.6 119.11 68.38 118.95 68.16C119.29 67.68 119.43 67.02 118.99 66.57C118.92 66.49 118.83 66.44 118.74 66.39C118.83 66.29 118.9 66.17 118.93 66.01C119 65.66 118.86 65.31 118.66 64.92C118.84 64.71 118.94 64.45 118.86 64.16C119.17 63.89 119.36 63.51 119.24 63.08C119.19 62.89 119.07 62.72 118.93 62.57C118.97 62.52 119.02 62.47 119.06 62.4C119.34 61.89 119.22 61.25 119.07 60.52C119.07 60.5 119.06 60.49 119.06 60.47C119.34 59.94 119.44 59.18 119.13 58.72C119.08 58.64 119 58.57 118.92 58.5C119.29 57.98 119.47 57.09 119.13 56.57C119.07 56.48 118.98 56.4 118.89 56.32C118.89 56.01 118.83 55.7 118.66 55.49C118.51 55.31 118.26 55.18 117.99 55.1C118.05 54.84 118.04 54.57 117.89 54.31C117.62 53.86 117.08 53.65 116.45 53.42C116.41 53.36 116.37 53.3 116.32 53.23C116.28 53.16 116.21 53.09 116.14 53.03C116.16 52.72 116.1 52.38 115.96 52.11C115.96 51.91 115.9 51.72 115.76 51.54C115.58 51.3 115.3 51.15 114.98 51.04C114.98 50.84 114.95 50.64 114.85 50.48C114.68 50.2 114.3 49.99 113.94 49.91C114.09 49.49 114.08 49.03 113.75 48.68C113.54 48.46 113.26 48.35 112.93 48.28C112.86 47.85 112.65 47.41 112.33 47.22C112.2 47.14 112.04 47.11 111.87 47.09C111.73 46.85 111.53 46.63 111.3 46.48C111.25 46.41 111.2 46.35 111.15 46.3C111.23 45.68 111.04 44.88 110.56 44.55C110.26 44.34 109.78 44.29 109.36 44.35C108.93 44.12 108.27 44.11 107.87 44.32C107.74 44.39 107.63 44.47 107.52 44.55C107.49 44.54 107.44 44.54 107.41 44.53C107.38 44.48 107.37 44.43 107.34 44.39C107.28 44.32 107.19 44.26 107.1 44.21C107.04 43.91 106.93 43.64 106.73 43.45C106.32 43.05 105.45 42.91 104.93 43.11C104.76 43.17 104.61 43.26 104.47 43.35C104.42 43.29 104.37 43.23 104.31 43.17C103.9 42.65 102.92 42.23 102.28 42.5C102.25 42.51 102.22 42.55 102.18 42.57C102.17 42.57 102.16 42.56 102.15 42.56C101.86 42.35 101.43 42.24 101.11 42.29C101.03 42.23 100.96 42.17 100.88 42.11C100.44 41.72 99.5501 41.53 99.0001 41.81C98.9601 41.8 98.9201 41.78 98.8801 41.78C98.6301 41.46 98.2601 41.18 97.8901 41.19C97.8701 41.19 97.8501 41.2 97.8401 41.2C97.8001 41.18 97.7501 41.15 97.7101 41.13C97.4201 40.7 96.8301 40.34 96.3601 40.32C95.9201 40.3 95.5201 40.4 95.1801 40.59C94.7701 40.4 94.2901 40.33 93.9301 40.49C93.4901 40.19 92.7901 40.08 92.3301 40.24C92.0201 40.35 91.7601 40.51 91.5501 40.71C90.9501 40.39 90.2801 40.38 89.6801 40.64C89.6301 40.63 89.5801 40.62 89.5301 40.62C89.3701 40.51 89.2001 40.43 89.0401 40.39C88.2601 40.22 87.5501 40.47 87.0501 40.96H87.0401C86.8001 40.87 86.5301 40.82 86.2301 40.75C85.8901 40.65 85.4301 40.71 85.0501 40.89C84.5101 40.55 83.8701 40.5 83.3101 40.72C82.9601 40.42 82.4701 40.21 82.0701 40.21C81.7501 40.22 81.4601 40.28 81.1901 40.4C80.9501 40.37 80.7301 40.37 80.5101 40.41C80.2601 40.18 79.9701 40 79.6701 39.98C79.1101 39.93 78.3701 40.35 78.0701 40.83C77.8901 40.73 77.6401 40.7 77.4001 40.72C77.3701 40.7 77.3401 40.68 77.3101 40.66C76.8401 40.46 76.3601 40.45 75.9201 40.58C75.5501 40.3 75.0901 40.12 74.6901 40.21C74.6501 40.22 74.6001 40.25 74.5601 40.27C74.4801 40.26 74.3901 40.24 74.3201 40.25C73.6801 40.3 73.1601 40.6 72.8001 41.04C72.6301 41.04 72.4601 41.07 72.2901 41.13C72.1001 41.08 71.9001 41.09 71.7101 41.13C71.6201 41.01 71.5201 40.91 71.3901 40.85C71.1301 40.73 70.7501 40.76 70.4501 40.88C70.1201 40.77 69.7901 40.77 69.5001 40.85C69.3401 40.79 69.1601 40.73 68.9801 40.67C68.4501 40.46 67.5901 40.55 67.1501 40.97C66.6001 40.66 65.8101 40.54 65.3201 40.84C65.1201 40.96 64.9601 41.17 64.8301 41.41C64.6201 41.44 64.4201 41.5 64.2801 41.62C64.1601 41.72 64.0701 41.87 63.9901 42.04C63.8001 42.1 63.6301 42.2 63.4601 42.32C63.3001 42.33 63.1501 42.36 63.0001 42.42C62.8601 42.38 62.7201 42.35 62.5901 42.36C62.1601 42.38 61.8001 42.54 61.5201 42.78C61.3401 42.78 61.1701 42.81 61.0001 42.86C60.5601 42.67 59.8401 42.79 59.4701 43.08C59.3801 43.15 59.3101 43.23 59.2401 43.31C58.7201 43.36 58.2301 43.62 57.8801 44.05C57.8301 44.06 57.7801 44.05 57.7201 44.06C57.6501 44.02 57.5801 43.96 57.5001 43.94C57.3701 43.91 57.2301 43.91 57.0801 43.94C57.0201 43.9 56.9601 43.86 56.9001 43.83C56.3801 43.6 55.5101 43.78 55.1001 44.15C54.8801 44.35 54.7101 44.57 54.5901 44.81C54.3601 44.92 54.1601 45.08 54.0501 45.26C54.0101 45.33 53.9801 45.4 53.9501 45.47C53.8701 45.49 53.7801 45.53 53.7001 45.56C53.6001 45.53 53.4901 45.51 53.3901 45.51C52.8501 45.52 52.1901 46.02 51.9801 46.5C51.9601 46.54 51.9601 46.58 51.9401 46.62C51.7501 46.75 51.5701 46.89 51.4601 47.05C51.2101 47.43 51.0901 47.83 51.0901 48.23C50.8701 48.46 50.7101 48.75 50.6201 49.08C50.2501 49.18 49.8801 49.38 49.6801 49.63C49.4001 49.99 49.2501 50.38 49.2301 50.78C48.7601 50.9 48.2701 51.27 48.0801 51.66C47.9201 51.98 47.8601 52.31 47.8701 52.63C47.6301 52.71 47.4001 52.82 47.2501 52.96C46.7801 53.41 46.5901 53.99 46.6201 54.56C46.5601 54.62 46.5001 54.67 46.4401 54.74C46.3701 54.83 46.3001 54.94 46.2501 55.06C45.9101 55.17 45.5901 55.36 45.4601 55.64V55.65C45.0201 55.83 44.6201 56.13 44.4801 56.52C44.3301 56.93 44.4201 57.53 44.6501 57.96C44.6301 58.34 44.7101 58.76 44.8901 59.02C45.0001 59.18 45.1301 59.31 45.2701 59.42C45.2801 59.55 45.3001 59.69 45.3301 59.82C45.2201 60.14 45.2201 60.46 45.3101 60.75C45.2801 60.78 45.2501 60.81 45.2201 60.85C44.8001 61.37 44.6101 62.4 45.2401 62.86C45.0201 63.18 44.9001 63.57 44.8801 63.99C44.8801 64.04 44.8901 64.1 44.8901 64.15C44.4701 64.8 44.3401 65.9 45.0601 66.39C44.9501 66.77 44.9801 67.17 45.1101 67.53C45.0201 67.78 44.9901 68.04 45.0101 68.31C44.5001 68.9 44.2101 69.97 44.9201 70.53C45.0001 70.59 45.1001 70.63 45.1901 70.68C45.3101 70.96 45.5001 71.19 45.7401 71.36C45.7501 71.52 45.7801 71.68 45.8401 71.83C45.7601 72.23 45.8401 72.61 46.0201 72.93C45.9301 73.44 46.0701 73.95 46.3801 74.35C46.4201 74.79 46.6201 75.17 46.9301 75.46C46.9701 75.65 47.0301 75.82 47.1201 75.97L47.1101 75.98C46.8001 76.51 46.7301 77.44 47.2601 77.87C47.3001 78 47.3501 78.11 47.4201 78.21C47.1501 78.83 47.1301 79.63 47.7501 80.03C47.9201 80.14 48.1301 80.19 48.3401 80.22C48.3601 80.25 48.3901 80.29 48.4101 80.32C48.3801 80.83 48.5701 81.29 48.9101 81.62C48.8601 81.83 48.8601 82.08 48.9001 82.31C48.6101 82.91 48.5701 83.72 49.1801 84.11C49.2801 84.18 49.4001 84.22 49.5101 84.25C49.5801 84.39 49.6701 84.51 49.7801 84.62C49.7801 84.7 49.7801 84.79 49.8001 84.86C49.8901 85.23 50.1001 85.51 50.3601 85.71C50.3501 85.9 50.3701 86.09 50.4201 86.28C50.0601 86.85 49.9301 87.74 50.5601 88.16C50.6601 88.49 50.8501 88.76 51.0901 88.97C51.0901 88.97 51.0901 88.97 51.0901 88.98C51.1501 89.26 51.2801 89.5 51.4501 89.7C51.4401 89.74 51.4201 89.77 51.4101 89.81C51.2401 90.38 51.3801 91.25 51.9501 91.56C51.9801 91.73 52.0401 91.9 52.1401 92.03C52.0701 92.11 52.0101 92.19 51.9701 92.29C51.7401 92.79 51.9001 93.62 52.2401 94.03C52.3401 94.14 52.4401 94.25 52.5501 94.33C52.5601 94.52 52.5801 94.71 52.6301 94.9C52.7401 95.3 53.0201 95.73 53.3901 96.02C53.3901 96.04 53.3901 96.07 53.3901 96.09C53.4901 96.62 53.7801 97.04 54.1701 97.31C54.1801 97.34 54.1901 97.39 54.2001 97.42C54.2701 97.56 54.3601 97.68 54.4601 97.8C54.4601 97.83 54.4601 97.86 54.4701 97.89C54.6601 98.71 55.2401 99.26 55.9501 99.49C56.1001 99.87 56.3901 100.2 56.8001 100.23C56.8701 100.39 56.9701 100.55 57.0901 100.68C57.1101 100.82 57.1301 100.97 57.1801 101.11C57.3201 101.53 57.7001 101.98 58.1501 102.16C58.1401 102.3 58.1401 102.45 58.1601 102.6C58.2001 102.94 58.3601 103.32 58.5901 103.63C58.6401 104.09 58.8501 104.52 59.3201 104.71C59.5701 104.81 59.8401 104.82 60.1301 104.78C60.0401 105.5 60.3001 106.38 61.0801 106.53C61.1501 106.54 61.2101 106.53 61.2801 106.53C61.3401 106.6 61.4101 106.67 61.5101 106.72C61.8101 106.88 62.1701 106.86 62.5701 106.79C62.8501 107.02 63.2001 107.13 63.5601 107.14C63.6201 107.23 63.7001 107.31 63.7701 107.39C64.0801 107.69 64.6001 107.91 65.0601 107.85C65.1701 107.88 65.2801 107.9 65.3901 107.91C65.7301 108.49 66.4401 109 67.1101 108.73C67.4701 108.85 67.8501 108.87 68.2401 108.8C68.3301 108.83 68.4301 108.85 68.5401 108.85C68.6701 108.84 68.7901 108.79 68.9101 108.73C69.2001 108.97 69.5801 109.11 69.9901 109.13C70.0401 109.13 70.0901 109.13 70.1401 109.12C70.2901 109.22 70.4601 109.3 70.6401 109.36C70.7501 109.52 70.8801 109.67 71.0301 109.8C71.1201 109.87 71.2201 109.94 71.3201 110C71.5501 110.47 71.9401 110.83 72.5001 110.82C72.7501 110.82 72.9701 110.73 73.2001 110.61C73.4601 110.81 73.7801 110.91 74.1201 110.8C74.2001 110.78 74.2601 110.73 74.3301 110.7C74.5101 110.8 74.7001 110.88 74.9101 110.93C75.0801 110.97 75.2601 110.98 75.4601 110.97C75.6001 111.04 75.7501 111.11 75.9101 111.15C76.3401 111.27 76.9001 111.23 77.3401 111C77.3601 111.02 77.3801 111.04 77.4001 111.06C77.9201 111.47 78.8401 111.69 79.4601 111.33C79.9901 111.4 80.6001 111.29 80.9701 110.93C81.0401 110.88 81.1101 110.83 81.1801 110.78C81.1901 110.79 81.2001 110.79 81.2101 110.8C81.5101 110.93 81.9301 110.96 82.2901 110.86C82.6901 111.06 83.1801 111.1 83.5001 110.75C83.5101 110.74 83.5101 110.73 83.5201 110.73C83.6301 110.76 83.7401 110.77 83.8601 110.78C84.1101 110.89 84.4001 110.87 84.7101 110.81C84.7501 110.86 84.7901 110.92 84.8401 110.97C85.4101 111.55 86.6301 111.92 87.2701 111.19C87.4901 111.2 87.7201 111.17 87.9301 111.1C88.1101 111.16 88.2901 111.21 88.4801 111.24C88.8601 111.29 89.3301 111.2 89.7201 111.01C89.9701 111.01 90.2101 110.94 90.4101 110.75C90.6401 110.53 90.7501 110.23 90.8301 109.88C90.8701 109.87 90.9001 109.86 90.9301 109.84C91.1001 109.93 91.2701 109.99 91.4701 110.03C91.5701 110.05 91.6701 110.06 91.7801 110.06C92.1301 110.31 92.5501 110.42 92.9701 110.23C93.3701 110.06 93.6301 109.69 93.8801 109.23C94.1201 109.19 94.3601 109.1 94.5801 108.97C94.6501 108.93 94.7101 108.88 94.7801 108.82C95.1501 108.86 95.5601 108.76 95.7901 108.48C95.8201 108.48 95.8401 108.49 95.8701 108.49C95.8801 108.49 95.8801 108.49 95.8901 108.49C96.5201 108.99 97.6601 109.25 98.1901 108.47C98.2101 108.44 98.2201 108.39 98.2401 108.36C98.3301 108.35 98.4201 108.34 98.5101 108.32C98.6701 108.35 98.8401 108.36 99.0201 108.3C99.4201 108.17 99.7101 107.83 100 107.4C100.17 107.39 100.34 107.36 100.51 107.31C101.06 107.58 101.77 107.62 102.16 107.09C102.27 106.94 102.32 106.77 102.36 106.58C102.74 106.52 103.07 106.32 103.21 105.93C103.29 105.71 103.28 105.47 103.22 105.22C103.47 105.1 103.67 104.92 103.79 104.7C104.3 104.56 104.77 104.19 104.79 103.65C105.18 103.41 105.54 102.97 105.62 102.5C105.92 102.47 106.21 102.34 106.39 102.05C106.55 101.8 106.58 101.51 106.58 101.18C106.98 101.01 107.39 100.65 107.55 100.21C107.61 100.14 107.67 100.07 107.71 99.97C107.98 99.93 108.23 99.81 108.4 99.55C108.55 99.34 108.61 99.09 108.62 98.81C109.13 98.63 109.63 98.24 109.75 97.77C109.78 97.65 109.78 97.51 109.77 97.38C109.79 97.35 109.81 97.32 109.84 97.29C110.03 97.06 110.16 96.72 110.23 96.37C110.68 96.3 111.09 96.07 111.25 95.6C111.35 95.28 111.3 94.94 111.19 94.57C111.46 94.35 111.67 94.06 111.71 93.76C111.71 93.75 111.71 93.74 111.71 93.74C112.28 93.26 112.69 92.47 112.27 91.79L112.26 91.78C112.32 91.58 112.36 91.35 112.36 91.12C112.67 90.68 112.83 90.08 112.58 89.62C113.16 89.28 113.7 88.45 113.42 87.76C113.42 87.54 113.4 87.31 113.37 87.07C113.61 86.8 113.8 86.42 113.82 86.06C113.84 86.04 113.86 86.02 113.88 86C114.06 85.92 114.21 85.79 114.33 85.6C114.55 85.24 114.54 84.8 114.48 84.3C114.65 84.16 114.77 83.97 114.8 83.72C114.81 83.59 114.79 83.45 114.75 83.32C114.83 83.22 114.9 83.12 114.98 83.01C115.17 82.78 115.3 82.44 115.37 82.09C115.69 81.77 115.93 81.34 115.9 80.95C115.89 80.77 115.81 80.59 115.71 80.41C115.76 80.29 115.79 80.16 115.81 80.01C116.17 79.66 116.45 79.09 116.39 78.62C116.52 78.39 116.61 78.1 116.64 77.79C116.83 77.6 116.96 77.37 116.99 77.14C117.01 76.99 116.97 76.81 116.91 76.64C117.23 76.3 117.38 75.79 117.54 75.2C117.67 74.83 117.65 74.29 117.49 73.85C117.6 73.66 117.69 73.44 117.78 73.2C117.86 73.03 117.89 72.8 117.89 72.58C117.94 72.54 117.99 72.49 118.03 72.43C118.78 72.26 119.47 71.74 119.38 70.97ZM83.2201 108.06C83.2101 108.06 83.2101 108.05 83.2001 108.04C82.9001 107.92 82.4701 107.99 82.1601 108.16C81.9101 107.97 81.6201 107.85 81.3601 107.89C81.3101 107.9 81.2501 107.92 81.1901 107.94C81.1101 107.92 81.0401 107.89 80.9701 107.88C80.7601 107.86 80.5601 107.88 80.3601 107.93C79.9901 107.58 79.4801 107.33 79.0401 107.4C78.9901 107.41 78.9301 107.44 78.8801 107.46C78.7801 107.41 78.6801 107.37 78.5701 107.36C78.0501 107.28 77.3501 107.62 77.0101 108.04C76.6101 107.69 76.0501 107.44 75.5901 107.56C75.3001 107.39 74.9701 107.29 74.6701 107.31C74.3401 106.99 73.8801 106.74 73.4901 106.72C73.3001 106.71 73.1201 106.73 72.9501 106.76C72.7501 106.55 72.5101 106.39 72.2601 106.34C71.9301 106.28 71.5301 106.4 71.1901 106.6C70.9401 106.48 70.6801 106.43 70.4501 106.48C70.1901 106.3 69.8501 106.18 69.5301 106.17C69.2301 105.9 68.8201 105.69 68.3601 105.48C68.2401 105.41 68.1001 105.37 67.9501 105.33C67.9301 105.32 67.9301 105.29 67.9101 105.28C67.5201 104.96 66.7401 104.9 66.3001 105.11C66.2701 105.12 66.2601 105.14 66.2301 105.15C66.0601 105.12 65.8701 105.1 65.6801 105.08C65.5101 104.82 65.2701 104.6 65.0101 104.53C64.7201 104.46 64.3501 104.55 64.0501 104.71C64.0001 104.69 63.9501 104.67 63.8901 104.65C63.8801 104.65 63.8701 104.65 63.8701 104.64C63.9001 104.5 63.9101 104.36 63.8901 104.23C63.8001 103.71 63.2201 103.14 62.7301 103.01C62.7101 103 62.6901 103 62.6701 103C62.6701 102.97 62.6801 102.95 62.6801 102.92C62.6901 102.38 62.2301 101.68 61.7601 101.43C61.7401 101.18 61.6901 100.95 61.5501 100.77C61.3001 100.43 60.7501 100.19 60.2801 100.16C60.2201 100.06 60.1401 99.98 60.0701 99.9C60.0501 99.54 59.9301 99.19 59.7001 98.98C59.5301 98.83 59.2701 98.74 59.0101 98.7C58.9901 98.67 58.9901 98.63 58.9701 98.6C58.9101 98.52 58.8101 98.45 58.7001 98.39C58.8001 98.14 58.8401 97.87 58.7501 97.58C58.6001 97.09 58.1601 96.75 57.6301 96.39C57.6201 96.36 57.6101 96.34 57.6001 96.31C57.4701 96.11 57.2801 95.96 57.0501 95.84C56.8801 95.44 56.5001 95.14 56.0501 94.81C56.0301 94.75 56.0101 94.69 55.9701 94.63C55.9601 94.61 55.9401 94.6 55.9301 94.58C56.1301 94.15 56.1901 93.53 56.0201 93.04C56.1001 92.65 56.0401 92.25 55.7401 91.94C55.5001 91.7 55.1701 91.58 54.8001 91.51C54.7401 91.44 54.6801 91.37 54.6101 91.3C54.6801 91.16 54.7201 91.02 54.7201 90.88C54.7101 90.71 54.6301 90.53 54.5101 90.37C54.6601 90.1 54.7301 89.8 54.6701 89.53C54.6201 89.3 54.4501 89.06 54.2401 88.87C54.2401 88.85 54.2401 88.83 54.2301 88.8C54.2101 88.72 54.1601 88.65 54.1201 88.58C54.2101 88.39 54.2601 88.17 54.2101 87.94C54.1501 87.64 53.9701 87.39 53.7301 87.14C53.8001 86.68 53.5301 86.04 53.1701 85.77C53.0701 85.69 52.9601 85.63 52.8601 85.57C52.8601 85.44 52.8401 85.31 52.8001 85.19C52.8701 85.02 52.8901 84.83 52.8301 84.63C52.7801 84.48 52.6901 84.35 52.5801 84.24C52.6701 84.05 52.7001 83.84 52.6301 83.61C52.5901 83.47 52.5101 83.35 52.4201 83.24C52.4501 83.18 52.4701 83.11 52.4901 83.04C52.5901 82.55 52.2801 81.84 51.8901 81.55C51.8401 81.52 51.8001 81.49 51.7501 81.47C51.7501 81.42 51.7701 81.37 51.7601 81.32C51.7301 81.19 51.6501 81.05 51.5501 80.93C51.5001 80.61 51.3201 80.29 51.1101 79.94C51.2101 79.71 51.2401 79.47 51.1501 79.23C51.2001 79.14 51.2401 79.04 51.2701 78.94C51.3801 78.42 51.0601 77.67 50.6501 77.36C50.6401 77.36 50.6401 77.35 50.6301 77.35C50.6601 77.07 50.5901 76.79 50.3901 76.57C50.3901 76.54 50.4001 76.51 50.4001 76.47C50.4001 76 50.0001 75.41 49.5901 75.21C49.5801 75.19 49.5601 75.16 49.5501 75.14C49.5601 75.11 49.5801 75.08 49.5801 75.04C49.6401 74.64 49.4501 74.25 49.1901 73.82C49.1701 73.53 49.0901 73.22 49.0001 72.88C48.9501 72.61 48.7801 72.3 48.5601 72.04C48.4801 71.89 48.3901 71.74 48.3001 71.58C48.2501 71.48 48.1601 71.37 48.0701 71.28C48.0801 71.23 48.0801 71.18 48.0801 71.13C48.1701 70.99 48.2301 70.83 48.2301 70.63C48.2301 70.51 48.2101 70.4 48.1701 70.29C48.3501 70.13 48.5001 69.95 48.5601 69.74C48.7101 69.27 48.4901 68.57 48.1501 68.19C48.2101 67.9 48.2001 67.57 48.1301 67.27C48.1201 67.08 48.1001 66.89 48.0701 66.69C48.0601 66.58 48.0401 66.46 48.0001 66.33C48.0601 66.2 48.1101 66.06 48.1401 65.92C48.4301 65.67 48.6501 65.35 48.6901 65.02C48.7301 64.67 48.5701 64.25 48.3401 63.91C48.4701 63.51 48.4901 63.08 48.3201 62.76C48.2501 62.64 48.1501 62.52 48.0301 62.42C48.2201 62.24 48.3501 62.02 48.3901 61.79C48.4501 61.42 48.2501 60.93 47.9801 60.62C47.9401 60.46 47.8801 60.28 47.8101 60.11C47.8601 59.9 47.8801 59.66 47.9101 59.41C48.4101 59.01 48.8201 58.27 48.5701 57.66C48.7501 57.3 48.8401 56.9 48.7701 56.53C49.0601 56.52 49.3401 56.42 49.5601 56.17C49.8901 55.8 49.9501 55.27 49.9801 54.65C49.9901 54.65 49.9901 54.64 50.0001 54.64C50.5701 54.67 51.1501 54.47 51.3801 53.91C51.4901 53.63 51.4801 53.32 51.4201 52.99C51.8001 52.98 52.1601 52.85 52.3901 52.51C52.6501 52.13 52.6601 51.63 52.6101 51.06C52.6401 51 52.6601 50.93 52.6801 50.86C52.8801 50.74 53.0801 50.6 53.3001 50.44C53.8001 50.47 54.3001 50.31 54.5601 49.84C54.6601 49.66 54.7001 49.46 54.7201 49.25C55.0001 49.13 55.2401 48.92 55.3501 48.6C55.4701 48.27 55.4201 47.9 55.3101 47.51H55.3201C55.9201 47.98 56.8301 48.23 57.4101 47.63C57.5601 47.47 57.6601 47.27 57.7301 47.06C57.9701 47.03 58.1901 46.92 58.3401 46.7C58.3801 46.64 58.4101 46.57 58.4301 46.5C58.8501 46.57 59.3201 46.45 59.8501 46.31C59.9101 46.3 59.9601 46.28 60.0201 46.26C60.4601 46.46 60.9601 46.49 61.3301 46.13C61.4701 46 61.5601 45.83 61.6301 45.64C61.6801 45.62 61.7301 45.6 61.7801 45.58C61.9301 45.65 62.0901 45.68 62.2701 45.66C62.6901 45.61 63.0301 45.3 63.3901 44.93C63.6001 44.87 63.8201 44.79 64.0601 44.69C64.1101 44.68 64.1501 44.64 64.2001 44.62C64.3601 44.62 64.5301 44.62 64.7101 44.61C64.9601 44.62 65.2601 44.53 65.5301 44.38C65.7101 44.4 65.8901 44.4 66.0701 44.37C66.1301 44.36 66.2001 44.34 66.2601 44.32C66.4901 44.38 66.7201 44.42 66.9701 44.41C67.5001 44.39 68.1501 44.12 68.5201 43.67C68.7001 43.69 68.8801 43.68 69.0601 43.65C69.4701 43.75 69.8901 43.57 70.3601 43.34C70.7501 43.62 71.3001 43.74 71.6601 43.38C71.7001 43.34 71.7201 43.29 71.7501 43.25C71.8601 43.25 71.9801 43.24 72.1101 43.24C72.2301 43.24 72.3601 43.22 72.5001 43.18C72.7401 43.83 73.2701 44.42 74.0101 44.31C74.3601 44.26 74.6501 44.06 74.9401 43.79C74.9601 43.8 74.9801 43.81 75.0001 43.81C75.0601 43.83 75.1301 43.84 75.2001 43.86C75.2201 43.87 75.2401 43.88 75.2601 43.89C75.7901 44.07 76.3701 43.86 77.0401 43.6C77.0701 43.59 77.1001 43.58 77.1301 43.56C77.4601 43.71 77.8301 43.74 78.1201 43.49L78.1301 43.48C78.2201 43.47 78.3101 43.46 78.4101 43.43C78.5301 43.56 78.6601 43.68 78.8101 43.79C79.2901 44.13 80.0701 44.3 80.6701 44.08C80.9001 44.26 81.1801 44.37 81.5101 44.34C81.9801 44.3 82.3701 44 82.7801 43.62C83.1701 43.75 83.6401 43.74 84.1701 43.72C84.5201 43.73 84.9601 43.58 85.3101 43.35C85.7201 43.56 86.1901 43.6 86.6401 43.47H86.6501C86.8301 43.83 87.1201 44.12 87.5601 44.18C88.0601 44.25 88.5501 44.01 89.0901 43.68C89.5301 43.88 90.0901 43.88 90.7301 43.85C90.9501 43.86 91.2001 43.8 91.4501 43.71C91.8601 44.21 92.4801 44.56 93.1101 44.28C93.4801 44.12 93.7401 43.78 93.9801 43.37C94.1201 43.47 94.2801 43.54 94.4501 43.6C94.6801 43.98 95.0401 44.26 95.5301 44.25C95.8201 44.24 96.0901 44.14 96.3501 43.97C96.5601 44.1 96.8101 44.16 97.0701 44.09C97.1901 44.06 97.2901 44 97.3901 43.93C97.4501 43.97 97.5001 44.01 97.5601 44.05C97.8701 44.22 98.3001 44.29 98.6901 44.21C99.0501 44.69 99.6101 44.97 100.24 45C100.5 45.3 100.86 45.49 101.26 45.37C101.39 45.33 101.51 45.26 101.61 45.18C101.66 45.22 101.71 45.25 101.77 45.28C101.79 45.29 101.81 45.29 101.82 45.3C102.17 45.74 102.7 46.04 103.31 46.11C103.46 46.13 103.61 46.12 103.77 46.1C104.12 46.83 104.96 47.52 105.78 47.13C105.96 47.05 106.1 46.92 106.23 46.77C106.33 46.78 106.44 46.77 106.55 46.73C106.63 46.7 106.71 46.65 106.78 46.6C106.86 46.64 106.93 46.69 107.01 46.71C107.02 46.75 107.03 46.79 107.05 46.83C107.28 47.37 107.9 47.93 108.53 47.94C108.84 48.22 109.22 48.42 109.61 48.43C109.71 48.65 109.85 48.85 110.04 49.02C110.07 49.28 110.15 49.53 110.29 49.78C110.3 49.79 110.3 49.8 110.31 49.81C110.36 50.07 110.46 50.32 110.6 50.5C110.91 50.88 111.31 51.09 111.73 51.17C111.82 51.28 111.93 51.37 112.04 51.45C112.03 51.54 112.02 51.63 112.03 51.72C112.04 52.11 112.23 52.56 112.53 52.87C112.53 52.88 112.54 52.89 112.54 52.89C112.78 53.26 113.1 53.51 113.47 53.64C113.5 53.74 113.53 53.85 113.58 53.95C113.7 54.23 113.95 54.51 114.25 54.7C114.25 54.94 114.29 55.17 114.37 55.35C114.63 55.88 115.06 56.21 115.56 56.36C115.67 56.52 115.81 56.64 115.96 56.74C115.96 56.85 115.97 56.95 115.98 57.06C115.85 57.37 115.78 57.71 115.8 58.07C115.81 58.37 115.92 58.72 116.09 59.02C115.88 59.39 115.77 59.82 115.8 60.28C115.8 60.31 115.81 60.34 115.81 60.36C115.69 60.93 115.82 61.51 116.15 62C115.93 62.33 115.81 62.8 115.88 63.13C115.94 63.43 116.06 63.68 116.23 63.9C116.21 64.03 116.21 64.16 116.23 64.27C116.25 64.34 116.29 64.39 116.31 64.46C116.27 64.53 116.23 64.6 116.21 64.67C116.08 65.13 116.16 65.56 116.37 65.92C116.33 66.05 116.31 66.18 116.32 66.32C116.11 66.44 115.94 66.61 115.85 66.8C115.68 67.16 115.76 67.71 115.96 68.09C115.95 68.16 115.93 68.24 115.93 68.3C115.93 68.6 116.01 68.87 116.14 69.11C115.77 69.44 115.49 70.02 115.51 70.46C115.52 70.74 115.59 71.01 115.69 71.24C115.6 71.48 115.61 71.79 115.7 72.06C115.52 72.35 115.44 72.67 115.47 73.02C115.44 73.07 115.39 73.11 115.36 73.17C114.48 73.71 114.2 74.71 114.51 75.62C114.48 75.71 114.46 75.81 114.44 75.91C114.29 76.02 114.14 76.16 114.02 76.32C113.88 76.52 113.77 76.78 113.72 77.05C113.5 77.39 113.39 77.8 113.4 78.23C113.26 78.44 113.15 78.67 113.08 78.93C113.05 79.04 113.04 79.17 113.04 79.29C112.93 79.51 112.87 79.74 112.85 79.99C112.66 80.17 112.5 80.39 112.38 80.63C112.27 80.86 112.2 81.15 112.19 81.44C112.05 81.75 111.99 82.1 112 82.47C111.98 82.52 111.95 82.58 111.94 82.63C111.93 82.67 111.93 82.71 111.93 82.75C111.87 82.8 111.81 82.85 111.77 82.91C111.43 83.39 111.34 83.93 111.44 84.44C111.33 84.67 111.26 84.93 111.29 85.13C111.3 85.21 111.32 85.28 111.34 85.36C111.21 85.5 111.11 85.67 111.03 85.85C110.97 85.9 110.9 85.95 110.85 86.01C110.62 86.31 110.49 86.64 110.46 86.98C110.24 87.09 110.06 87.24 109.95 87.43C109.7 87.87 109.76 88.64 110.04 89.05C110.05 89.06 110.06 89.07 110.07 89.08C109.69 89.23 109.35 89.49 109.22 89.82C109.15 90.01 109.15 90.26 109.19 90.5C109.13 90.61 109.08 90.72 109.04 90.84C108.83 90.93 108.65 91.05 108.52 91.22C108.17 91.67 108.14 92.56 108.39 93.05C108.4 93.06 108.4 93.07 108.41 93.08C108.39 93.13 108.37 93.18 108.35 93.23C108.25 93.34 108.18 93.46 108.13 93.58C107.95 94.01 107.94 94.44 108.04 94.83C107.58 95.06 107.25 95.45 107.08 95.91C106.87 96.02 106.67 96.16 106.5 96.34C106.37 96.48 106.25 96.65 106.15 96.84C106.15 96.84 106.14 96.85 106.13 96.85C105.9 97.14 105.77 97.46 105.73 97.78C105.61 97.88 105.51 97.99 105.44 98.1C105.4 98.18 105.37 98.25 105.34 98.33C105 98.36 104.66 98.48 104.47 98.71C104.33 98.88 104.24 99.12 104.2 99.38C104.16 99.42 104.12 99.45 104.09 99.49C103.85 99.81 103.73 100.16 103.72 100.51C103.61 100.63 103.51 100.75 103.44 100.89C102.97 100.92 102.48 101.09 102.25 101.43C102.16 101.57 102.11 101.75 102.08 101.94C101.81 102.21 101.61 102.65 101.61 102.98C101.61 103.06 101.62 103.13 101.63 103.2C101.59 103.23 101.56 103.26 101.52 103.29C101.17 103.37 100.8 103.63 100.6 103.94C100.34 104.03 100.1 104.18 99.9501 104.36C99.9101 104.4 99.8901 104.45 99.8501 104.5C99.7001 104.48 99.5401 104.48 99.3801 104.5C99.1801 104.47 98.9901 104.46 98.8201 104.5C98.5701 104.56 98.3501 104.66 98.1601 104.79C97.6601 104.6 97.0601 104.56 96.6601 104.81C96.6401 104.82 96.6201 104.85 96.6001 104.86C96.2001 104.95 95.8001 105.16 95.5801 105.43C95.4801 105.55 95.4101 105.67 95.3401 105.8C95.2201 105.81 95.1101 105.83 95.0101 105.88C94.9201 105.93 94.8301 106.01 94.7501 106.1C94.6701 106.08 94.5801 106.06 94.5001 106.07C94.2901 106.09 94.0701 106.23 93.8901 106.4C93.8501 106.39 93.8101 106.38 93.7701 106.38C93.7601 106.38 93.7501 106.38 93.7401 106.38C93.3201 106.16 92.7401 106.1 92.3501 106.24C92.0601 106.34 91.8101 106.5 91.6101 106.68C91.3801 106.62 91.1401 106.6 90.9301 106.67C90.6601 106.76 90.4101 107 90.2301 107.28C89.8201 107.1 89.1901 107.19 88.8001 107.43C88.3701 107.24 87.8901 107.17 87.5201 107.33C87.3901 107.38 87.2701 107.47 87.1601 107.58C87.0501 107.54 86.9301 107.52 86.8201 107.51C86.7101 107.43 86.5901 107.36 86.4601 107.33C85.9201 107.18 85.1001 107.47 84.7401 107.89C84.6501 108 84.5701 108.11 84.5001 108.22C84.4401 108.24 84.3901 108.26 84.3301 108.29C84.0201 108.13 83.5901 108.01 83.2201 108.06Z" fill="#00C113"/>
<path d="M76.3401 108.33C76.3401 108.16 76.3101 108 76.2501 107.86C76.0301 107.39 75.3401 106.99 74.8301 106.99C74.5801 106.99 74.3501 107.04 74.1301 107.11C73.7401 106.82 73.2401 106.64 72.8201 106.75C72.7701 106.76 72.7101 106.8 72.6601 106.83C72.4601 106.81 72.2701 106.82 72.1101 106.87C72.0101 106.9 71.9201 106.94 71.8301 106.99C71.6901 106.9 71.5401 106.83 71.3901 106.82C70.9901 106.77 70.4801 107.01 70.1701 107.32C70.1601 107.32 70.1501 107.32 70.1501 107.32C70.0801 107.26 70.0101 107.21 69.9401 107.15C69.4501 106.71 68.4101 106.47 67.8301 106.86C67.7501 106.92 67.6701 107 67.6001 107.09C67.5101 107.09 67.4101 107.09 67.3301 107.1C67.1401 107.06 66.9301 107.06 66.7201 107.11C66.2901 106.73 65.6801 106.47 65.1901 106.59C64.9601 106.65 64.7401 106.81 64.5301 107C64.0801 106.79 63.4001 106.8 63.0001 107.03C62.8201 107.14 62.6701 107.27 62.5301 107.41C62.2001 107.21 61.7601 107.1 61.4401 107.16C61.2801 107.19 61.1301 107.24 60.9901 107.31C60.4501 106.99 59.6101 106.86 59.1101 107.19C59.0201 107.25 58.9301 107.35 58.8501 107.45C58.4601 107.23 57.9201 107.14 57.5401 107.24C57.3701 107.29 57.2101 107.36 57.0601 107.44C56.5901 107.36 55.9801 107.53 55.6601 107.82C55.6201 107.86 55.5801 107.91 55.5401 107.95C55.5001 107.96 55.4501 107.97 55.4101 107.98L55.4001 107.97C54.9001 107.72 54.0501 107.84 53.6301 108.18C53.4601 108.31 53.3301 108.47 53.2101 108.63C53.0901 108.67 52.9901 108.72 52.8801 108.77C52.8101 108.76 52.7401 108.74 52.6801 108.74C52.0401 108.76 51.5201 109.06 51.1901 109.52C50.8201 109.52 50.4301 109.64 50.1601 109.86C50.1101 109.84 50.0701 109.81 50.0201 109.8C49.4801 109.64 48.6601 109.91 48.2901 110.31C48.2701 110.34 48.2501 110.37 48.2301 110.39C48.1701 110.41 48.1101 110.41 48.0501 110.43C47.7201 110.57 47.4601 110.79 47.2501 111.03C46.7901 111.09 46.2601 111.53 46.1001 111.95V111.96C45.8501 111.98 45.6201 112.06 45.4401 112.19C44.9001 112.14 44.2601 112.3 43.9701 112.69C43.7401 113.01 43.6901 113.56 43.8001 113.98C43.8001 113.99 43.7901 114.01 43.7801 114.02C43.7401 114.18 43.7301 114.33 43.7401 114.48C43.6101 114.56 43.5001 114.65 43.4201 114.77C43.2301 115.04 43.1901 115.48 43.2701 115.85C43.2501 115.9 43.2101 115.94 43.2001 115.99C43.1001 116.33 43.1001 116.66 43.1701 116.97C43.0901 117.07 43.0101 117.17 42.9401 117.29C42.7401 117.63 42.6401 118.13 42.7201 118.57C42.7101 118.62 42.7201 118.68 42.7201 118.73C42.6301 118.85 42.5601 118.98 42.5101 119.1C42.1601 120.14 42.6901 121.14 43.6401 121.56C43.6901 121.58 43.7401 121.6 43.8001 121.61C43.8901 121.73 44.0101 121.83 44.1801 121.88C44.2601 121.91 44.3401 121.91 44.4301 121.91C44.5101 122.12 44.6301 122.31 44.7801 122.49C44.8001 122.83 44.9401 123.14 45.2501 123.34C45.4801 123.48 45.7401 123.53 46.0301 123.54C46.2901 123.91 46.6801 124.18 47.1401 124.34C47.2301 124.64 47.3801 124.92 47.5601 125.1C47.8901 125.42 48.2701 125.61 48.6601 125.68C49.1501 126.2 49.8901 126.43 50.6401 126.3C50.8101 126.36 50.9901 126.4 51.1801 126.41C51.4601 126.42 51.7901 126.35 52.0801 126.19C52.2701 126.23 52.4801 126.22 52.6901 126.17C52.8101 126.26 52.9501 126.33 53.0901 126.37C53.2501 126.55 53.4501 126.69 53.7201 126.71C54.1001 126.75 54.4701 126.57 54.8601 126.33C55.1601 126.54 55.5401 126.63 55.8801 126.43C56.0001 126.36 56.1001 126.25 56.1801 126.13C56.4201 126.17 56.6701 126.16 56.9001 126.08C57.3101 126.28 57.7901 126.31 58.2401 126.13C58.2501 126.14 58.2701 126.15 58.2801 126.16C58.4101 126.23 58.5601 126.27 58.7201 126.3C59.0301 126.68 59.4801 126.94 59.9701 126.76C60.1801 126.68 60.3501 126.54 60.5101 126.36C60.6701 126.38 60.8301 126.39 60.9901 126.36C61.2301 126.56 61.5201 126.68 61.8601 126.61C62.1101 126.56 62.3201 126.43 62.5201 126.24C62.8801 126.31 63.2601 126.28 63.6201 126.16C64.1801 126.43 64.9001 126.48 65.3301 126.01C65.7201 126.04 66.1601 125.97 66.4901 125.76C66.6901 125.75 66.8801 125.69 67.0501 125.54C67.0601 125.53 67.0601 125.52 67.0701 125.52C67.1501 125.53 67.2401 125.52 67.3301 125.5C67.4401 125.47 67.5501 125.42 67.6401 125.35C67.8701 125.47 68.1201 125.56 68.3901 125.6C69.0801 125.71 70.0601 125.41 70.3601 124.71C70.6301 124.72 70.9101 124.67 71.1901 124.57C71.7501 124.35 72.3301 123.73 72.3301 123.09C72.3301 123.08 72.3401 123.08 72.3401 123.07C72.3601 123.07 72.3801 123.07 72.4001 123.06C73.0501 122.94 73.8301 122.32 73.7701 121.59C73.7801 121.58 73.7801 121.56 73.7901 121.55C74.2501 121.52 74.6901 121.32 74.8501 120.86C75.3801 120.75 75.8501 120.44 75.9301 119.87C75.9501 119.71 75.9301 119.56 75.8901 119.4C76.3001 119.09 76.5801 118.62 76.4201 118.1C76.3901 118.01 76.3401 117.92 76.2901 117.84C76.4101 117.66 76.5001 117.46 76.5101 117.26C76.5201 117.15 76.4901 117.02 76.4601 116.9C76.5801 116.74 76.6601 116.56 76.6901 116.37C76.7801 115.81 76.3901 115.03 75.9301 114.73C75.9001 114.71 75.8701 114.7 75.8401 114.68C75.8101 114.63 75.7801 114.58 75.7501 114.53C75.9101 114.34 76.0301 114.11 76.0501 113.88C76.2301 113.73 76.3801 113.55 76.4401 113.34C76.5701 112.91 76.3801 112.3 76.0901 111.94C76.1601 111.75 76.1701 111.55 76.1001 111.35C76.3201 111.08 76.4701 110.75 76.4501 110.43C76.7201 110.1 76.9001 109.72 76.8701 109.35C76.8601 109.01 76.6301 108.63 76.3401 108.33Z" fill="#00C113"/>
<path d="M121.4 119.18C121.39 119.14 121.36 119.11 121.35 119.07C121.44 118.83 121.46 118.58 121.37 118.36C121.48 118.18 121.55 117.98 121.55 117.79C121.55 117.41 121.3 116.96 120.99 116.67C120.93 116.52 120.86 116.36 120.78 116.19C121 115.83 121.08 115.39 120.82 115.02C120.72 114.88 120.59 114.78 120.43 114.69C120.39 114.56 120.34 114.44 120.27 114.31C120.5 113.92 120.59 113.47 120.32 113.07C120.04 112.64 119.48 112.46 118.85 112.26C118.67 112.19 118.43 112.17 118.2 112.17C118.11 112.13 118.01 112.09 117.91 112.05C117.88 112.04 117.85 112.04 117.82 112.03C117.73 111.83 117.58 111.62 117.39 111.44C117.32 111.13 117.19 110.84 116.98 110.65C116.72 110.42 116.29 110.31 115.88 110.3C115.69 110.05 115.46 109.85 115.19 109.76C114.83 109.65 114.35 109.74 113.96 109.93C113.81 109.83 113.63 109.76 113.44 109.69C113.42 109.62 113.4 109.55 113.37 109.49C113.15 109.04 112.47 108.68 111.98 108.69C111.87 108.69 111.78 108.71 111.68 108.73C111.48 108.62 111.26 108.53 111.04 108.5C110.9 108.25 110.72 108.03 110.49 107.92C110.12 107.73 109.55 107.75 109.11 107.92C108.97 107.9 108.83 107.89 108.69 107.89C108.55 107.69 108.37 107.52 108.16 107.44C107.98 107.37 107.77 107.36 107.54 107.38C107.15 107.18 106.65 107.09 106.29 107.19C106 107.27 105.74 107.4 105.53 107.58C105.46 107.56 105.39 107.52 105.32 107.52C105.13 107.5 104.96 107.51 104.79 107.54C104.74 107.5 104.7 107.47 104.66 107.44C104.17 107 103.13 106.77 102.55 107.15C102.54 107.16 102.54 107.17 102.53 107.17C102.31 107.23 102.12 107.32 101.95 107.44C101.86 107.27 101.74 107.13 101.6 107.03C101.17 106.73 100.36 106.74 99.9101 106.99C99.7801 107.06 99.6701 107.15 99.5701 107.24C99.5201 107.23 99.4701 107.22 99.4201 107.21C98.9901 106.76 98.3001 106.42 97.7501 106.55C97.4601 106.62 97.1701 106.84 96.9401 107.11C96.8201 107.15 96.7101 107.2 96.6201 107.26C96.4001 107.14 96.1401 107.06 95.8601 107.05C95.3401 106.66 94.3901 106.47 93.8501 106.83C93.7601 106.89 93.6901 106.97 93.6101 107.06C93.4401 106.92 93.2501 106.82 93.0501 106.79C92.8901 106.77 92.7001 106.81 92.5201 106.87C92.2001 106.78 91.8601 106.77 91.6001 106.85C91.4801 106.89 91.3701 106.94 91.2701 106.99C90.9101 106.77 90.4901 106.65 90.1401 106.74C89.9801 106.78 89.8101 106.88 89.6601 107.01C88.8501 107.13 88.2501 107.7 88.0301 108.46C87.8601 108.64 87.7201 108.84 87.6101 109.07C87.2801 109.76 87.3101 110.91 88.0301 111.36C88.0301 111.37 88.0401 111.37 88.0401 111.38C88.0101 111.59 88.0301 111.8 88.0901 111.99C87.6001 112.53 87.3201 113.54 87.9901 114.06C88.0501 114.11 88.1201 114.13 88.1801 114.16C88.2001 114.22 88.2201 114.27 88.2401 114.32C88.2101 114.38 88.1801 114.45 88.1701 114.51C88.1401 114.68 88.1501 114.84 88.1701 114.99C88.0901 115.07 88.0101 115.14 87.9401 115.23C87.5001 115.78 87.2801 116.77 87.7201 117.39C87.6801 117.7 87.7201 118.01 87.8401 118.28C87.8401 118.3 87.8401 118.32 87.8401 118.34C87.9301 118.72 88.1101 119.03 88.3601 119.27C88.4801 119.94 88.9501 120.48 89.6001 120.75C89.7401 120.95 89.9101 121.12 90.1201 121.26C90.1301 121.32 90.1401 121.39 90.1601 121.45C90.2701 121.82 90.5501 122.21 90.9101 122.44C91.1201 122.69 91.3801 122.87 91.6801 122.98C91.7501 123.08 91.8401 123.14 91.9201 123.22C91.9401 123.37 91.9701 123.52 92.0301 123.64C92.3101 124.22 92.8001 124.56 93.3501 124.68C93.4701 124.9 93.6501 125.07 93.9101 125.13C94.1301 125.18 94.3501 125.16 94.5801 125.08C94.9001 125.35 95.2901 125.53 95.7401 125.6C96.0401 125.65 96.4001 125.61 96.7301 125.51C96.7701 125.51 96.8001 125.51 96.8301 125.5C96.9401 125.47 97.0401 125.42 97.1301 125.36C97.4401 125.64 97.8801 125.83 98.2801 125.75C98.4201 125.83 98.5601 125.89 98.7101 125.94C98.9001 126 99.1101 126.03 99.3301 126.02C99.7901 126.32 100.43 126.48 100.93 126.27C101.02 126.27 101.1 126.28 101.19 126.27C101.44 126.52 101.76 126.67 102.13 126.6C102.34 126.56 102.53 126.45 102.7 126.3C102.92 126.36 103.15 126.38 103.37 126.35C103.67 126.69 104.1 126.91 104.56 126.75C104.82 126.66 105.02 126.46 105.2 126.21C105.52 126.32 105.92 126.34 106.23 126.2C106.55 126.26 106.89 126.25 107.22 126.11C107.23 126.11 107.23 126.1 107.24 126.1C107.46 126.15 107.68 126.15 107.9 126.09C108.13 126.34 108.44 126.52 108.76 126.52C108.89 126.61 109.03 126.67 109.2 126.69C109.63 126.73 110.03 126.51 110.47 126.22C110.83 126.43 111.28 126.49 111.6 126.19C111.63 126.16 111.65 126.12 111.68 126.09C111.74 126.11 111.81 126.14 111.87 126.15C112.04 126.19 112.23 126.19 112.43 126.16C112.66 126.28 112.93 126.36 113.21 126.37C113.41 126.38 113.63 126.34 113.84 126.27C114.09 126.31 114.35 126.31 114.61 126.26C115.13 126.17 115.73 125.8 116.01 125.29C116.1 125.23 116.2 125.16 116.29 125.09C116.49 124.92 116.66 124.68 116.79 124.42C117.57 124.48 118.55 124.11 118.63 123.24C118.63 123.21 118.62 123.18 118.62 123.15C118.67 123.12 118.71 123.1 118.75 123.06C119.01 123.04 119.26 122.94 119.44 122.72C119.68 122.43 119.74 122.03 119.76 121.58C119.77 121.58 119.78 121.57 119.78 121.57C120.49 121.8 121.55 121.66 121.77 120.82C121.93 120.34 121.69 119.8 121.4 119.18Z" fill="#00C113"/>
<path d="M96.2501 99.9C96.1301 99.49 95.75 99.22 95.29 98.9C95.2 98.83 95.0901 98.78 94.9801 98.73C94.9601 98.67 94.9501 98.6 94.9101 98.55C94.8201 98.42 94.67 98.32 94.51 98.24C94.4 97.61 93.9101 96.85 93.3001 96.7C93.0401 96.64 92.7101 96.68 92.4101 96.8C92.2701 96.72 92.1301 96.66 91.9801 96.65C91.7601 96.63 91.5101 96.71 91.2801 96.84C91.2601 96.83 91.2501 96.82 91.2301 96.81C91.2101 96.78 91.2101 96.74 91.1901 96.72C90.8801 96.34 90.1401 96.13 89.6701 96.25C89.3101 95.9 88.83 95.65 88.4 95.7C88.13 95.73 87.8401 95.88 87.5901 96.09C87.2101 95.67 86.5901 95.34 86.0801 95.44C85.9801 95.46 85.89 95.51 85.79 95.56C85.4 95.39 84.9101 95.34 84.3701 95.29C84.3201 95.28 84.2601 95.28 84.2001 95.28C83.9401 95.03 83.6301 94.86 83.3101 94.85C83.1701 94.85 83.0201 94.88 82.8601 94.93C82.5301 94.85 82.16 94.85 81.9 94.96C81.78 95.01 81.6701 95.07 81.5701 95.13C80.9601 94.88 79.9701 94.92 79.5201 95.42C79.4801 95.47 79.4501 95.54 79.4101 95.6C79.3401 95.63 79.2701 95.67 79.2101 95.71C78.9701 95.7 78.7401 95.74 78.5201 95.82C78.2501 95.63 77.9301 95.52 77.6501 95.55C77.4301 95.58 77.2001 95.7 76.9901 95.87C76.7001 95.86 76.3601 95.97 76.1001 96.15C75.9801 96.14 75.8601 96.15 75.7501 96.17C75.3001 95.96 74.6801 95.94 74.2801 96.12C74.2601 96.13 74.2401 96.15 74.2201 96.16C74.1801 96.15 74.1501 96.12 74.1101 96.12C73.5801 95.98 72.7801 96.28 72.4401 96.7C72.4001 96.75 72.3801 96.8 72.3401 96.84C72.0201 96.84 71.6601 96.93 71.3601 97.09C71.1301 97.15 70.9101 97.25 70.7601 97.38C70.5101 97.61 70.3401 97.87 70.2401 98.15C70.2001 98.16 70.1601 98.15 70.1201 98.17C69.9201 98.26 69.7401 98.47 69.6101 98.71C69.3501 98.8 69.1001 98.95 68.9601 99.13C68.4301 99.84 68.5901 100.74 69.2101 101.3C69.6701 101.71 70.6201 101.93 71.0201 101.3C71.1201 101.14 71.1601 100.95 71.1801 100.74C71.2901 100.72 71.4101 100.7 71.5201 100.66C71.9301 100.78 72.3601 100.74 72.6701 100.41C72.8101 100.26 72.9001 100.07 72.9601 99.87C73.4301 100.16 74.0501 100.31 74.5501 100.12C74.8001 100.17 75.0501 100.15 75.3001 100.01C75.5401 99.88 75.7201 99.67 75.8701 99.42C76.0801 99.35 76.2901 99.27 76.5101 99.17C76.5401 99.16 76.5701 99.14 76.6001 99.13C77.0401 99.3 77.5701 99.32 77.9201 99.01C78.4101 99.1 78.9801 99.01 79.3301 98.68C79.6901 98.7 80.1001 98.62 80.5501 98.52C80.6101 98.51 80.6701 98.49 80.7401 98.47C81.0201 98.53 81.3201 98.54 81.6101 98.49C81.9301 98.69 82.31 98.76 82.68 98.58C82.72 98.56 82.75 98.53 82.79 98.5C83.06 98.64 83.4001 98.72 83.7301 98.72C84.1501 98.83 84.59 98.8 85.01 98.66C85.14 98.66 85.2701 98.63 85.4101 98.59C85.6401 98.81 85.9201 98.99 86.2401 99.1C86.6301 99.23 87.1401 99.23 87.5701 99.07C87.7601 99.24 87.9801 99.39 88.2201 99.5C88.4201 99.59 88.65 99.64 88.9 99.66C89.1901 99.89 89.54 100.01 89.93 99.88C90.17 99.8 90.3701 99.64 90.5501 99.42C90.7301 99.49 90.9401 99.52 91.15 99.52C91.1901 99.55 91.2301 99.59 91.2801 99.62C91.3301 99.65 91.3801 99.68 91.4401 99.71C91.5501 99.91 91.6901 100.09 91.8701 100.25C92.2401 100.6 92.8801 100.86 93.4401 100.8C93.5201 100.82 93.6101 100.82 93.7001 100.81C94.0401 101.13 94.51 101.31 95.01 101.25C95.66 101.19 96.4501 100.62 96.2501 99.9Z" fill="#00C113"/>
<path d="M86.3101 73.89C86.1501 73.87 86.0001 73.87 85.8701 73.92C85.4501 74.06 85.0401 74.61 84.9901 75.04C84.9901 75.06 84.9901 75.07 84.9901 75.09C84.8401 75.2 84.7301 75.34 84.6301 75.49C84.3701 75.48 84.1201 75.5 83.9301 75.63C83.9001 75.65 83.8801 75.69 83.8501 75.71C83.5601 75.72 83.2401 75.88 83.0001 76.09C82.5301 76.12 82.1101 76.31 81.7701 76.63C81.3801 76.28 80.8301 76.03 80.3601 76.09C80.0701 76.04 79.7801 76.06 79.5101 76.12C79.1201 75.77 78.5501 75.63 77.8801 75.49C77.7301 75.45 77.5601 75.43 77.3801 75.43C77.3501 75.34 77.3401 75.25 77.2901 75.18C77.1501 74.97 76.9001 74.81 76.6301 74.7C76.4601 74.51 76.2601 74.32 76.0501 74.12C75.5801 73.62 74.5301 73.28 73.9001 73.62C73.4001 73.89 73.0101 74.67 73.0401 75.23C73.0901 76.18 73.6901 76.87 74.4901 77.16C74.7201 77.7 75.2101 78.17 75.8201 78.04C75.8301 78.04 75.8401 78.03 75.8501 78.03C76.3501 78.75 77.1301 79.06 77.9101 78.97C78.0301 79.32 78.2701 79.6 78.6501 79.73C79.0501 79.87 79.4901 79.78 79.9701 79.62C80.1701 79.75 80.3801 79.86 80.6201 79.93C81.1801 80.09 81.9701 80 82.4401 79.59C82.8201 79.55 83.2201 79.38 83.6701 79.18C83.8001 79.13 83.9301 79.06 84.0501 78.97C84.5301 79.04 85.0501 78.91 85.2801 78.47C85.8501 78.43 86.5601 78.02 86.6901 77.42C86.7801 77.28 86.8801 77.12 86.9701 76.95C87.5201 76.87 88.0801 76.55 88.1001 75.96C88.1101 75.85 88.0901 75.74 88.0601 75.63C88.3001 75.49 88.4901 75.29 88.5601 75.06C88.6601 74.7 88.4701 74.15 88.2001 73.91C87.6101 73.41 86.8501 73.45 86.3101 73.89Z" fill="#494949"/>
<path d="M96.4901 68.16C96.3501 67.84 95.9001 67.49 95.5401 67.55C95.5301 67.55 95.5101 67.56 95.5001 67.57C95.3701 67.34 95.1601 67.13 94.9501 67.05C94.8401 67.01 94.7401 66.99 94.6401 66.97C94.4901 66.87 94.3101 66.8 94.1101 66.73C94.0001 66.59 93.8701 66.46 93.7301 66.39C93.3901 66.22 93.0301 66.18 92.7101 66.25C92.6901 66.24 92.6801 66.22 92.6701 66.21C92.4601 66.09 92.1201 66.1 91.8701 66.2C91.8701 66.2 91.8701 66.2 91.8601 66.19C91.8101 66.1 91.7601 66.02 91.7101 65.92C91.4901 65.48 90.8401 65.02 90.3301 65.12C90.3201 65.12 90.3101 65.13 90.3101 65.13C90.3401 65.08 90.3801 65.03 90.4001 64.97C90.4201 64.88 90.4301 64.77 90.4201 64.66C90.5801 64.62 90.7301 64.57 90.8801 64.48C91.0101 64.4 91.1401 64.29 91.2501 64.15C91.6301 64.29 92.0601 64.29 92.3301 63.96C92.3401 63.95 92.3401 63.95 92.3401 63.94C92.3601 63.93 92.3801 63.93 92.4001 63.92C92.6101 63.83 92.7701 63.66 92.9101 63.44C93.2301 63.49 93.5701 63.44 93.8101 63.24C93.9501 63.22 94.0901 63.17 94.2101 63.06C94.3701 62.93 94.4701 62.75 94.5401 62.54C94.7401 62.49 94.9401 62.4 95.1201 62.27C95.6201 61.91 96.0301 61.03 95.5001 60.51C95.2001 60.21 94.7301 60.16 94.1801 60.11C93.8901 60.06 93.5101 60.15 93.2001 60.32C93.0901 60.36 92.9901 60.4 92.9101 60.46C92.8701 60.49 92.8501 60.53 92.8201 60.56C92.8101 60.56 92.7901 60.55 92.7801 60.55C92.4201 60.54 91.9801 60.83 91.7701 61.15C91.6601 61.2 91.5401 61.26 91.4501 61.33C91.1501 61.36 90.8301 61.48 90.6601 61.66C90.5501 61.78 90.4601 61.9 90.3901 62.03C90.1201 62.05 89.8501 62.14 89.7001 62.32C89.6701 62.35 89.6601 62.39 89.6401 62.43C89.3001 62.49 88.9701 62.65 88.8301 62.91C88.7701 63.02 88.7401 63.16 88.7301 63.31H88.7201C88.6701 63.36 88.6301 63.42 88.5901 63.49C88.3401 63.57 88.1101 63.71 87.9101 63.91C87.7501 64.07 87.6201 64.3 87.5501 64.54C87.2101 64.55 86.8501 64.66 86.6701 64.9C86.5701 65.04 86.5101 65.25 86.5001 65.46C86.1401 65.98 86.2701 66.61 86.7201 67.01C86.8201 67.09 86.9501 67.16 87.0901 67.21C87.1901 67.52 87.3901 67.77 87.7401 67.84C88.1401 67.92 88.5501 67.71 89.0201 67.46C89.0901 67.43 89.1601 67.37 89.2301 67.32C89.4201 67.58 89.7201 67.77 90.0301 67.7C90.1601 67.79 90.3101 67.87 90.4801 67.93C90.7501 68.02 91.0901 68.03 91.4001 67.94C91.4301 68.3 91.5801 68.64 91.9401 68.79C92.2401 68.92 92.5801 68.87 92.9601 68.77C93.0401 68.81 93.1201 68.86 93.2101 68.88C93.3001 69.04 93.4301 69.18 93.6301 69.24C93.9501 69.34 94.2901 69.22 94.6701 69.06C94.7301 69.1 94.7801 69.14 94.8501 69.17C94.9301 69.2 95.0301 69.22 95.1301 69.23C95.2501 69.36 95.3901 69.47 95.5701 69.54C95.9801 69.7 96.6601 69.61 96.7701 69.09C96.8201 68.81 96.6701 68.51 96.4901 68.16Z" fill="#494949"/>
<path d="M74.1001 67.84C74.2201 67.79 74.3401 67.7 74.4501 67.59C74.5001 67.58 74.5401 67.58 74.5901 67.57C74.8501 67.59 75.1101 67.52 75.2601 67.28C75.4201 67.02 75.3801 66.67 75.3201 66.28C75.3101 66.17 75.2701 66.04 75.2101 65.92C75.2101 65.78 75.1801 65.65 75.0901 65.52C74.9001 65.23 74.5501 65.11 74.1401 64.98C74.1201 64.93 74.1101 64.88 74.0801 64.85C74.0601 64.82 74.0201 64.8 73.9901 64.77C73.9101 64.54 73.7901 64.33 73.6401 64.21C73.3901 64 73.1001 63.89 72.8201 63.87C72.8101 63.71 72.7601 63.56 72.6401 63.42C72.4101 63.15 72.0301 63.06 71.6001 62.98C71.4501 62.89 71.2701 62.81 71.0701 62.74C70.9501 62.41 70.7301 62.1 70.4401 62C70.3801 61.98 70.3101 61.98 70.2401 61.97C70.0001 61.78 69.6201 61.69 69.3001 61.72C69.1401 61.54 68.9401 61.41 68.7301 61.35C68.6701 61.28 68.6101 61.2 68.5301 61.16C68.3501 61.06 68.0901 61.03 67.8401 61.06C67.6201 61.01 67.3801 60.98 67.1101 60.96C66.6301 60.88 65.8801 61.14 65.6701 61.61C65.5001 61.98 65.6201 62.6 65.8801 62.9C66.1701 63.24 66.5501 63.41 66.9401 63.44C67.2101 63.8 67.7201 64.11 68.1701 64.03C68.2201 64.06 68.2701 64.08 68.3301 64.1C68.6001 64.49 69.0401 64.78 69.5001 64.62C69.7701 64.8 70.1101 64.9 70.4201 64.85C70.6401 65.04 70.8801 65.17 71.1501 65.21C71.1301 65.35 71.1401 65.49 71.1701 65.62C71.0301 65.58 70.8801 65.56 70.7501 65.59C70.3901 65.66 70.0201 66.03 69.8701 66.38C69.8101 66.42 69.7501 66.46 69.7001 66.52C69.5401 66.53 69.3801 66.58 69.2601 66.65C68.8301 66.6 68.4101 66.74 68.0801 67.02C67.6801 67 67.2201 67.13 67.0101 67.42C66.9501 67.5 66.9101 67.6 66.8801 67.71C66.8101 67.76 66.7501 67.82 66.6901 67.88C66.6701 67.88 66.6501 67.87 66.6301 67.87C66.4801 67.89 66.3201 68 66.2001 68.13C66.1001 68.1 66.0001 68.08 65.9001 68.09C65.7801 68.11 65.6501 68.18 65.5301 68.28C65.3001 68.19 65.0401 68.16 64.8401 68.24C64.5101 68.37 64.2101 68.83 64.1901 69.18C64.1501 69.95 64.6901 70.53 65.4201 70.63C65.8401 70.69 66.4301 70.51 66.6401 70.11C66.8201 70.05 66.9601 69.93 67.0401 69.77C67.3401 69.79 67.6601 69.67 68.0201 69.52C68.0901 69.5 68.1701 69.45 68.2501 69.4C68.4701 69.4 68.7001 69.37 68.9201 69.27C68.9401 69.26 68.9601 69.24 68.9901 69.23C69.1301 69.19 69.2701 69.15 69.4201 69.11C69.6601 69.05 69.9301 68.89 70.1501 68.68C70.1601 68.67 70.1801 68.67 70.1901 68.65C70.3201 68.54 70.4001 68.38 70.4601 68.2C70.4701 68.2 70.4801 68.2 70.4901 68.2C70.6201 68.29 70.7601 68.36 70.9101 68.41C71.3901 68.57 72.1201 68.48 72.4401 68.03C72.5401 68.12 72.6601 68.2 72.8201 68.23C73.2301 68.3 73.6301 68.09 74.1001 67.84Z" fill="#494949"/>
<path d="M43.3801 34.89C42.6701 34.77 42.1401 34.67 41.6601 34.56C41.2701 34.47 41.0201 34.22 40.9701 33.85C40.8801 33.3 40.8001 32.73 40.8201 32.18C40.8501 31.38 41.3601 27.76 41.5101 26.76C41.8801 25.14 40.8501 24.6 39.8501 25.92C38.2501 27.84 36.6801 29.77 35.0801 31.7C34.5401 32.36 34.2601 32.4 33.5501 31.93C32.8201 31.44 32.1101 30.91 31.4201 30.36C30.4101 29.54 29.4301 28.69 28.4401 27.85C27.5001 27.25 26.9501 27.67 27.2901 28.65C28.3001 30.63 29.2601 32.46 30.1901 34.4C30.5401 35.14 30.5201 35.81 29.9701 36.46C29.0801 37.51 28.2301 38.58 27.3401 39.63C26.2801 40.9 25.0201 42 24.1801 43.45C24.0301 43.71 24.2001 44.53 26.2901 43.56C28.3801 42.66 30.3401 41.95 32.3701 41.17C33.0601 40.9 33.4401 41.13 33.7101 41.8C34.0901 42.75 34.4201 43.72 34.8301 44.66C35.6001 46.4 36.4101 48.12 37.2201 49.84C37.3701 50.16 38.1401 50.57 38.2401 49.34C38.3401 48.57 39.2501 43.74 39.6101 42.09C39.7001 41.68 39.8301 41.27 39.9401 40.87C40.0501 40.47 40.2901 40.2 40.7201 40.09C43.2401 39.43 45.7601 38.78 48.2701 38.1C48.8801 37.94 49.4801 37.72 50.0601 37.47C50.2401 37.39 50.6601 36.62 49.4801 36.28C47.3801 35.75 45.6001 35.13 43.3801 34.89Z" fill="#00C113" stroke="#00C113" stroke-width="0.35" stroke-miterlimit="10" stroke-linecap="round" stroke-linejoin="round"/>
</svg>
