<svg width="164" height="164" viewBox="0 0 164 164" fill="none" xmlns="http://www.w3.org/2000/svg">
<path d="M87.99 108.07H75.75C66.09 108.07 57.27 102.39 54.59 94.12L46.4 68.87C41.88 54.93 52.05 40.78 67.96 40.78H95.78C111.7 40.78 121.86 54.93 117.34 68.87L109.15 94.12C106.47 102.4 97.64 108.07 87.99 108.07Z" fill="#FFEA62"/>
<path d="M119.26 69.57C119.22 69.2 118.99 68.88 118.7 68.56C118.71 68.52 118.71 68.49 118.72 68.45C118.73 68.41 118.73 68.35 118.73 68.31C118.98 68.1 119.16 67.81 119.12 67.45C119.1 67.2 118.99 66.98 118.82 66.76C119.16 66.28 119.3 65.62 118.86 65.17C118.79 65.09 118.7 65.04 118.61 64.99C118.7 64.89 118.77 64.77 118.8 64.61C118.87 64.26 118.73 63.91 118.53 63.52C118.71 63.31 118.81 63.05 118.73 62.76C119.04 62.49 119.23 62.11 119.11 61.68C119.06 61.49 118.94 61.32 118.8 61.17C118.84 61.12 118.89 61.07 118.93 61C119.21 60.49 119.09 59.85 118.94 59.12C118.94 59.1 118.93 59.09 118.93 59.07C119.21 58.54 119.31 57.78 119 57.32C118.95 57.24 118.87 57.17 118.79 57.1C119.16 56.58 119.34 55.69 119 55.17C118.94 55.08 118.85 55 118.76 54.92C118.77 54.61 118.7 54.3 118.53 54.09C118.38 53.91 118.13 53.78 117.86 53.7C117.92 53.44 117.91 53.17 117.76 52.91C117.49 52.46 116.95 52.25 116.32 52.02C116.28 51.96 116.23 51.9 116.19 51.83C116.15 51.76 116.08 51.69 116.01 51.63C116.03 51.32 115.97 50.98 115.83 50.71C115.83 50.51 115.77 50.32 115.63 50.14C115.45 49.9 115.17 49.75 114.85 49.64C114.85 49.44 114.82 49.24 114.72 49.08C114.55 48.8 114.17 48.59 113.81 48.51C113.96 48.09 113.95 47.63 113.62 47.28C113.41 47.06 113.13 46.95 112.8 46.88C112.73 46.45 112.52 46.01 112.19 45.82C112.06 45.74 111.9 45.71 111.73 45.69C111.59 45.45 111.39 45.23 111.16 45.08C111.11 45.01 111.06 44.95 111.01 44.9C111.09 44.28 110.9 43.48 110.42 43.15C110.12 42.94 109.64 42.89 109.22 42.95C108.79 42.72 108.13 42.71 107.73 42.92C107.6 42.99 107.49 43.07 107.38 43.15C107.35 43.14 107.3 43.14 107.27 43.13C107.24 43.08 107.23 43.03 107.2 42.99C107.14 42.92 107.05 42.86 106.96 42.81C106.9 42.51 106.79 42.24 106.59 42.05C106.18 41.65 105.31 41.51 104.79 41.71C104.62 41.77 104.47 41.86 104.33 41.95C104.28 41.89 104.23 41.83 104.17 41.77C103.76 41.25 102.78 40.83 102.14 41.1C102.11 41.11 102.08 41.15 102.04 41.17C102.03 41.17 102.02 41.16 102.01 41.16C101.72 40.95 101.29 40.84 100.97 40.89C100.89 40.83 100.82 40.77 100.74 40.71C100.3 40.32 99.4101 40.13 98.8601 40.41C98.8201 40.4 98.7801 40.38 98.7401 40.38C98.4901 40.06 98.1201 39.78 97.7501 39.79C97.7301 39.79 97.71 39.8 97.7001 39.8C97.66 39.78 97.6101 39.75 97.5701 39.73C97.2801 39.3 96.6901 38.94 96.2201 38.92C95.7801 38.9 95.38 39 95.04 39.19C94.63 39 94.15 38.93 93.79 39.09C93.35 38.79 92.6501 38.68 92.1901 38.84C91.8801 38.95 91.6201 39.11 91.4101 39.31C90.8101 38.99 90.1401 38.98 89.5401 39.24C89.4901 39.23 89.4401 39.22 89.3801 39.22C89.2201 39.11 89.0501 39.03 88.8901 38.99C88.1101 38.82 87.4001 39.07 86.9001 39.56H86.8901C86.6501 39.47 86.3801 39.42 86.0801 39.35C85.7401 39.25 85.2801 39.31 84.9001 39.49C84.3601 39.15 83.7201 39.1 83.1601 39.32C82.8101 39.02 82.3201 38.81 81.9201 38.81C81.6001 38.82 81.3101 38.88 81.0401 39C80.8101 38.97 80.5801 38.97 80.3601 39.01C80.1101 38.78 79.82 38.6 79.5201 38.58C78.96 38.53 78.2201 38.95 77.9201 39.43C77.7401 39.33 77.4901 39.3 77.2501 39.32C77.2201 39.3 77.1901 39.28 77.1601 39.26C76.6901 39.06 76.2101 39.05 75.7701 39.18C75.4001 38.9 74.9401 38.72 74.5401 38.81C74.5001 38.82 74.4501 38.85 74.4101 38.87C74.3301 38.86 74.2401 38.84 74.1701 38.85C73.5301 38.9 73.0101 39.2 72.6501 39.64C72.4801 39.64 72.3101 39.67 72.1401 39.73C71.9501 39.68 71.7501 39.69 71.5601 39.73C71.4701 39.61 71.3701 39.51 71.2401 39.45C70.9801 39.33 70.6001 39.36 70.3001 39.48C69.9701 39.37 69.6401 39.37 69.3501 39.45C69.1901 39.39 69.0101 39.33 68.8301 39.27C68.3001 39.06 67.4401 39.15 67.0001 39.57C66.4501 39.26 65.6601 39.14 65.1701 39.44C64.9701 39.56 64.8101 39.77 64.6801 40.01C64.4701 40.04 64.2701 40.1 64.1301 40.22C64.0101 40.32 63.9201 40.47 63.8401 40.64C63.6501 40.7 63.4801 40.8 63.3101 40.92C63.1501 40.93 63.0001 40.96 62.8501 41.02C62.7101 40.98 62.5701 40.95 62.4401 40.96C62.0101 40.98 61.6501 41.14 61.3701 41.38C61.1901 41.38 61.0201 41.41 60.8501 41.46C60.4101 41.27 59.6901 41.39 59.3201 41.68C59.2301 41.75 59.1601 41.83 59.0901 41.91C58.5701 41.96 58.0801 42.22 57.7301 42.65C57.6801 42.66 57.6301 42.65 57.5701 42.66C57.5001 42.62 57.4301 42.56 57.3501 42.54C57.2201 42.51 57.0801 42.51 56.9301 42.54C56.8701 42.5 56.8101 42.46 56.7501 42.43C56.2301 42.2 55.3601 42.38 54.9501 42.76C54.7301 42.96 54.5601 43.18 54.4401 43.42C54.2101 43.53 54.0101 43.69 53.9001 43.87C53.8601 43.94 53.8301 44.01 53.8001 44.08C53.7101 44.1 53.6301 44.14 53.5501 44.17C53.4501 44.14 53.3401 44.12 53.2401 44.12C52.7001 44.13 52.0401 44.63 51.8301 45.11C51.8101 45.15 51.8101 45.19 51.7901 45.23C51.6001 45.36 51.4201 45.5 51.3101 45.66C51.0601 46.04 50.9401 46.44 50.9401 46.84C50.7201 47.07 50.5601 47.36 50.4701 47.69C50.1001 47.79 49.7301 47.99 49.5301 48.24C49.2501 48.6 49.1001 48.99 49.0801 49.39C48.6101 49.51 48.1201 49.88 47.9301 50.27C47.7701 50.59 47.7101 50.92 47.7201 51.24C47.4801 51.32 47.2501 51.43 47.1001 51.57C46.6301 52.02 46.4401 52.6 46.4701 53.17C46.4101 53.23 46.3501 53.28 46.2901 53.35C46.2201 53.44 46.1501 53.55 46.1001 53.67C45.7601 53.78 45.4401 53.97 45.3101 54.25V54.26C44.8701 54.44 44.4701 54.74 44.3301 55.13C44.1801 55.54 44.2701 56.14 44.5001 56.57C44.4801 56.95 44.5601 57.37 44.7401 57.63C44.8501 57.79 44.9801 57.92 45.1201 58.03C45.1301 58.16 45.1501 58.3 45.1801 58.43C45.0701 58.75 45.0701 59.07 45.1601 59.36C45.1301 59.39 45.1001 59.42 45.0701 59.46C44.6501 59.98 44.4601 61.01 45.0901 61.47C44.8701 61.79 44.7501 62.18 44.7301 62.6C44.7301 62.65 44.7401 62.71 44.7401 62.76C44.3201 63.41 44.1901 64.51 44.9101 65C44.8001 65.38 44.8301 65.78 44.9601 66.14C44.8701 66.39 44.8401 66.65 44.8601 66.92C44.3501 67.51 44.0601 68.58 44.7701 69.14C44.8501 69.2 44.9501 69.24 45.0401 69.29C45.1601 69.57 45.3501 69.8 45.5901 69.97C45.6001 70.13 45.6301 70.29 45.6901 70.44C45.6101 70.84 45.6901 71.22 45.8701 71.54C45.7801 72.05 45.9201 72.56 46.2301 72.96C46.2701 73.4 46.4701 73.78 46.7801 74.07C46.8201 74.26 46.8801 74.43 46.9701 74.58L46.9601 74.59C46.6501 75.12 46.5801 76.05 47.1101 76.48C47.1501 76.61 47.2001 76.72 47.2701 76.82C47.0001 77.44 46.9801 78.24 47.6001 78.64C47.7701 78.75 47.9801 78.8 48.1901 78.83C48.2101 78.86 48.2401 78.9 48.2601 78.93C48.2301 79.44 48.4201 79.9 48.7601 80.23C48.7101 80.44 48.7101 80.69 48.7501 80.92C48.4601 81.52 48.4201 82.33 49.0301 82.72C49.1301 82.79 49.2501 82.83 49.3601 82.86C49.4301 83 49.5201 83.12 49.6301 83.23C49.6301 83.31 49.6301 83.4 49.6501 83.47C49.7401 83.84 49.9501 84.12 50.2101 84.32C50.1901 84.51 50.2201 84.7 50.2701 84.89C49.9101 85.46 49.7801 86.35 50.4101 86.77C50.5101 87.1 50.7001 87.37 50.9401 87.58C50.9401 87.58 50.9401 87.58 50.9401 87.59C51.0001 87.87 51.1301 88.11 51.3001 88.31C51.2901 88.35 51.2701 88.38 51.2601 88.42C51.0901 88.99 51.2301 89.86 51.8001 90.17C51.8301 90.34 51.8901 90.51 51.9901 90.64C51.9201 90.72 51.8601 90.8 51.8201 90.9C51.5901 91.4 51.7501 92.23 52.0901 92.64C52.1901 92.75 52.2901 92.86 52.4001 92.94C52.4101 93.13 52.4301 93.32 52.4801 93.51C52.5901 93.91 52.8701 94.34 53.2401 94.63C53.2401 94.65 53.2401 94.68 53.2401 94.7C53.3401 95.23 53.6301 95.65 54.0201 95.92C54.0301 95.95 54.0401 96 54.0501 96.03C54.1201 96.17 54.2101 96.29 54.3101 96.4C54.3101 96.43 54.3101 96.46 54.3201 96.49C54.5101 97.31 55.0901 97.86 55.8001 98.09C55.9501 98.47 56.2401 98.8 56.6501 98.83C56.7201 98.99 56.8201 99.15 56.9401 99.28C56.9601 99.42 56.9801 99.57 57.0301 99.71C57.1701 100.13 57.5501 100.58 58.0001 100.76C57.9901 100.9 57.9901 101.05 58.0101 101.2C58.0501 101.54 58.2101 101.92 58.4401 102.23C58.4901 102.69 58.7001 103.12 59.1701 103.31C59.4201 103.41 59.6901 103.42 59.9801 103.38C59.8901 104.1 60.1501 104.98 60.9301 105.13C61.0001 105.14 61.0601 105.13 61.1301 105.13C61.1901 105.2 61.2601 105.27 61.3601 105.32C61.6601 105.48 62.0201 105.46 62.4201 105.39C62.7001 105.62 63.0501 105.73 63.4101 105.74C63.4701 105.83 63.5501 105.91 63.6301 105.99C63.9401 106.29 64.4601 106.51 64.9201 106.45C65.0301 106.48 65.1401 106.5 65.2501 106.51C65.5901 107.09 66.3001 107.6 66.9701 107.33C67.3301 107.45 67.7101 107.47 68.1001 107.4C68.1901 107.43 68.2901 107.45 68.4001 107.45C68.5301 107.44 68.6501 107.39 68.7701 107.33C69.0601 107.57 69.4401 107.71 69.8501 107.73C69.9001 107.73 69.9501 107.73 70.0001 107.72C70.1501 107.82 70.3201 107.9 70.5001 107.96C70.6101 108.12 70.7401 108.27 70.8901 108.4C70.9801 108.47 71.0801 108.54 71.1801 108.6C71.4101 109.07 71.8001 109.43 72.3601 109.42C72.6101 109.42 72.8301 109.33 73.0601 109.21C73.3201 109.41 73.6401 109.51 73.9801 109.4C74.0601 109.38 74.1201 109.33 74.1901 109.3C74.3701 109.4 74.5601 109.48 74.7701 109.53C74.9401 109.57 75.1201 109.58 75.3201 109.57C75.4601 109.64 75.6101 109.71 75.7701 109.75C76.2001 109.87 76.7601 109.83 77.2001 109.6C77.2201 109.62 77.2401 109.64 77.2601 109.66C77.7801 110.07 78.7001 110.29 79.3201 109.93C79.8501 110 80.4601 109.89 80.8301 109.53C80.9001 109.48 80.9701 109.43 81.0401 109.38C81.0501 109.39 81.0601 109.39 81.0701 109.4C81.3701 109.53 81.7901 109.56 82.1501 109.46C82.5501 109.66 83.0401 109.7 83.3601 109.35C83.3701 109.34 83.3701 109.33 83.3801 109.33C83.4901 109.36 83.6001 109.37 83.7201 109.38C83.9701 109.49 84.2601 109.47 84.5701 109.41C84.6101 109.46 84.6501 109.52 84.7001 109.57C85.2701 110.15 86.4901 110.52 87.1301 109.79C87.3501 109.8 87.5801 109.77 87.7901 109.7C87.9701 109.76 88.1501 109.81 88.34 109.84C88.7201 109.89 89.1901 109.8 89.5801 109.61C89.8301 109.61 90.0701 109.54 90.2701 109.35C90.5001 109.13 90.6101 108.83 90.6901 108.48C90.7301 108.47 90.76 108.46 90.79 108.44C90.96 108.53 91.1301 108.59 91.3301 108.63C91.4301 108.65 91.5301 108.66 91.6401 108.66C91.9901 108.91 92.4101 109.02 92.8301 108.83C93.2301 108.66 93.4901 108.29 93.7401 107.83C93.9801 107.79 94.2201 107.7 94.4401 107.57C94.5101 107.53 94.5701 107.48 94.6401 107.42C95.0101 107.46 95.42 107.36 95.65 107.08C95.68 107.08 95.7001 107.09 95.73 107.09C95.74 107.09 95.7401 107.09 95.7501 107.09C96.3801 107.59 97.5201 107.85 98.0501 107.07C98.0701 107.04 98.0801 106.99 98.1001 106.96C98.1901 106.95 98.28 106.94 98.37 106.92C98.53 106.95 98.7001 106.96 98.8801 106.9C99.2801 106.77 99.5701 106.43 99.8601 106C100.03 105.99 100.2 105.96 100.37 105.91C100.92 106.18 101.63 106.22 102.02 105.69C102.13 105.54 102.18 105.37 102.22 105.18C102.6 105.12 102.93 104.92 103.07 104.53C103.15 104.31 103.14 104.07 103.08 103.82C103.33 103.7 103.53 103.52 103.65 103.3C104.16 103.16 104.63 102.79 104.65 102.25C105.04 102.01 105.4 101.57 105.48 101.1C105.78 101.07 106.07 100.94 106.25 100.65C106.41 100.4 106.44 100.11 106.44 99.78C106.84 99.61 107.25 99.25 107.41 98.81C107.47 98.74 107.53 98.67 107.57 98.57C107.84 98.53 108.09 98.41 108.26 98.15C108.41 97.94 108.47 97.69 108.48 97.41C108.99 97.23 109.49 96.84 109.61 96.37C109.64 96.25 109.64 96.11 109.63 95.98C109.65 95.95 109.67 95.92 109.7 95.89C109.89 95.66 110.02 95.32 110.08 94.97C110.53 94.9 110.94 94.67 111.1 94.2C111.2 93.88 111.15 93.54 111.04 93.17C111.31 92.95 111.52 92.66 111.56 92.36C111.56 92.35 111.56 92.34 111.56 92.34C112.13 91.86 112.54 91.07 112.12 90.39L112.11 90.38C112.17 90.18 112.21 89.95 112.21 89.72C112.52 89.28 112.68 88.68 112.43 88.22C113.01 87.88 113.55 87.05 113.27 86.36C113.27 86.14 113.25 85.91 113.22 85.67C113.46 85.4 113.65 85.02 113.67 84.66C113.69 84.64 113.71 84.62 113.73 84.6C113.91 84.52 114.07 84.39 114.18 84.2C114.4 83.84 114.39 83.4 114.33 82.9C114.5 82.76 114.62 82.57 114.65 82.32C114.66 82.19 114.64 82.05 114.6 81.92C114.68 81.82 114.75 81.72 114.83 81.61C115.02 81.38 115.15 81.04 115.22 80.69C115.54 80.37 115.78 79.94 115.75 79.55C115.74 79.37 115.66 79.19 115.56 79.01C115.61 78.89 115.64 78.76 115.66 78.61C116.02 78.26 116.3 77.69 116.24 77.22C116.37 76.99 116.46 76.7 116.49 76.39C116.68 76.2 116.81 75.97 116.84 75.74C116.86 75.59 116.82 75.41 116.76 75.24C117.08 74.9 117.23 74.39 117.39 73.8C117.52 73.43 117.5 72.89 117.34 72.45C117.45 72.26 117.54 72.04 117.63 71.8C117.71 71.63 117.74 71.4 117.74 71.18C117.79 71.14 117.84 71.09 117.88 71.03C118.66 70.86 119.35 70.34 119.26 69.57ZM83.09 106.66C83.0801 106.66 83.0801 106.65 83.0701 106.64C82.7701 106.52 82.3401 106.59 82.0301 106.76C81.7801 106.57 81.4901 106.45 81.2301 106.49C81.1801 106.5 81.1201 106.52 81.0601 106.54C80.98 106.52 80.91 106.49 80.84 106.48C80.6301 106.46 80.4301 106.48 80.2301 106.53C79.8601 106.18 79.3501 105.93 78.9101 106C78.8601 106.01 78.8001 106.04 78.7501 106.06C78.6501 106.01 78.5501 105.97 78.4401 105.96C77.9201 105.88 77.2201 106.22 76.8801 106.64C76.48 106.29 75.9201 106.04 75.4601 106.16C75.1701 105.99 74.8401 105.89 74.5401 105.91C74.2101 105.59 73.7501 105.34 73.3601 105.32C73.1701 105.31 72.9901 105.33 72.8201 105.36C72.6201 105.15 72.3801 104.99 72.1301 104.94C71.8001 104.88 71.4001 105 71.0601 105.2C70.8101 105.08 70.5501 105.03 70.3201 105.08C70.0601 104.9 69.7201 104.78 69.4001 104.77C69.1001 104.5 68.6901 104.29 68.2301 104.08C68.1101 104.01 67.9701 103.97 67.8201 103.93C67.8001 103.92 67.8001 103.89 67.7801 103.88C67.3901 103.56 66.6101 103.5 66.1701 103.71C66.1501 103.72 66.1301 103.74 66.1001 103.75C65.9301 103.72 65.7401 103.7 65.5501 103.68C65.3801 103.42 65.1401 103.2 64.8801 103.13C64.5901 103.06 64.2201 103.15 63.9101 103.31C63.8601 103.29 63.8101 103.27 63.7501 103.25C63.7401 103.25 63.7301 103.25 63.7301 103.24C63.7601 103.1 63.7701 102.96 63.7501 102.83C63.6601 102.31 63.0801 101.74 62.5901 101.61C62.5701 101.6 62.5501 101.6 62.5301 101.6C62.5301 101.57 62.5401 101.55 62.5401 101.52C62.5501 100.98 62.0901 100.28 61.6201 100.03C61.6001 99.78 61.5501 99.55 61.4101 99.37C61.1601 99.03 60.6101 98.79 60.1401 98.76C60.0801 98.66 60.0001 98.58 59.9301 98.5C59.9101 98.14 59.7901 97.79 59.5601 97.58C59.3901 97.43 59.1301 97.34 58.8701 97.3C58.8501 97.27 58.8501 97.23 58.8301 97.2C58.7601 97.12 58.6701 97.05 58.5601 96.99C58.6601 96.74 58.7001 96.47 58.6101 96.18C58.4601 95.69 58.0201 95.35 57.4901 94.99C57.4801 94.96 57.4701 94.94 57.4601 94.91C57.3301 94.71 57.1401 94.56 56.9101 94.44C56.7401 94.04 56.3601 93.74 55.9101 93.41C55.8901 93.35 55.8701 93.29 55.8301 93.23C55.8201 93.21 55.8001 93.2 55.7901 93.18C55.9901 92.75 56.0501 92.13 55.8801 91.64C55.9601 91.25 55.9001 90.85 55.6001 90.54C55.3601 90.3 55.0301 90.18 54.6601 90.11C54.6001 90.04 54.5401 89.97 54.4701 89.9C54.5401 89.76 54.5801 89.62 54.5801 89.48C54.5701 89.31 54.4901 89.13 54.3701 88.97C54.5201 88.7 54.5901 88.4 54.5301 88.13C54.4801 87.9 54.3101 87.66 54.1001 87.47C54.1001 87.45 54.1001 87.43 54.0901 87.4C54.0701 87.32 54.0201 87.25 53.9801 87.18C54.0701 86.99 54.1201 86.77 54.0701 86.54C54.0101 86.24 53.8301 85.99 53.5901 85.74C53.6601 85.28 53.3901 84.64 53.0301 84.37C52.9301 84.29 52.8201 84.23 52.7201 84.17C52.7201 84.04 52.7001 83.91 52.6601 83.79C52.7301 83.62 52.7501 83.43 52.6901 83.23C52.6401 83.08 52.5501 82.96 52.4401 82.84C52.5301 82.65 52.5601 82.44 52.4901 82.21C52.4501 82.07 52.3701 81.95 52.2801 81.84C52.3101 81.78 52.3301 81.71 52.3501 81.64C52.4501 81.15 52.1401 80.44 51.7501 80.15C51.7001 80.12 51.6601 80.09 51.6101 80.07C51.6101 80.02 51.6301 79.97 51.6201 79.92C51.5901 79.79 51.5101 79.65 51.4101 79.53C51.3601 79.21 51.1801 78.89 50.9701 78.54C51.0701 78.31 51.1001 78.07 51.0101 77.83C51.0601 77.74 51.1101 77.64 51.1301 77.54C51.2401 77.02 50.9201 76.27 50.5001 75.96C50.4901 75.96 50.4901 75.95 50.4801 75.95C50.5101 75.67 50.4401 75.39 50.2401 75.17C50.2401 75.14 50.2501 75.11 50.2501 75.07C50.2601 74.6 49.8501 74.01 49.4401 73.81C49.4301 73.79 49.4101 73.76 49.4001 73.74C49.4101 73.71 49.4301 73.68 49.4301 73.64C49.4901 73.24 49.3001 72.85 49.0401 72.42C49.0201 72.13 48.9401 71.82 48.8501 71.48C48.8001 71.21 48.6301 70.9 48.4101 70.64C48.3301 70.49 48.2401 70.34 48.1501 70.18C48.1001 70.08 48.0101 69.97 47.9201 69.88C47.9301 69.83 47.9301 69.78 47.9301 69.73C48.0201 69.59 48.0801 69.43 48.0801 69.23C48.0801 69.11 48.0601 69 48.0201 68.89C48.2001 68.73 48.3401 68.55 48.4101 68.34C48.5601 67.87 48.3401 67.17 48.0001 66.79C48.0601 66.5 48.0501 66.17 47.9801 65.87C47.9701 65.68 47.9501 65.49 47.9201 65.29C47.9101 65.18 47.8901 65.06 47.8501 64.93C47.9101 64.8 47.9601 64.66 47.9901 64.52C48.2801 64.27 48.5001 63.95 48.5401 63.62C48.5801 63.27 48.4201 62.85 48.1901 62.51C48.3201 62.11 48.3401 61.68 48.1701 61.36C48.1001 61.24 48.0001 61.12 47.8801 61.02C48.0701 60.84 48.2001 60.62 48.2401 60.39C48.3001 60.02 48.1001 59.53 47.8301 59.22C47.7901 59.06 47.7301 58.88 47.6601 58.71C47.7101 58.5 47.7301 58.26 47.7601 58.01C48.2601 57.61 48.6701 56.87 48.4201 56.26C48.6001 55.9 48.6901 55.5 48.6101 55.13C48.9001 55.12 49.1801 55.02 49.4001 54.77C49.7301 54.4 49.7901 53.87 49.8201 53.25C49.8301 53.25 49.8301 53.24 49.8401 53.24C50.4101 53.27 50.9901 53.07 51.2201 52.51C51.3301 52.23 51.3201 51.92 51.2601 51.59C51.6401 51.58 52.0001 51.45 52.2301 51.11C52.4901 50.73 52.5001 50.23 52.4501 49.66C52.4801 49.6 52.5001 49.53 52.5101 49.46C52.7101 49.34 52.9101 49.2 53.1301 49.04C53.6301 49.07 54.1301 48.91 54.3901 48.44C54.4901 48.26 54.5301 48.06 54.5501 47.85C54.8301 47.73 55.0701 47.52 55.1801 47.2C55.3001 46.87 55.2501 46.5 55.1401 46.11H55.1501C55.7501 46.58 56.6601 46.83 57.2401 46.23C57.3901 46.07 57.4901 45.87 57.5601 45.66C57.8001 45.63 58.0201 45.52 58.1701 45.3C58.2101 45.24 58.2401 45.17 58.2601 45.1C58.6801 45.17 59.1501 45.05 59.6801 44.91C59.7401 44.9 59.7901 44.88 59.8501 44.86C60.2901 45.06 60.7901 45.09 61.1601 44.73C61.3001 44.6 61.3901 44.43 61.4601 44.24C61.5101 44.22 61.5601 44.2 61.6101 44.18C61.7601 44.25 61.9201 44.28 62.1001 44.26C62.5201 44.21 62.8601 43.9 63.2201 43.53C63.4301 43.47 63.6501 43.39 63.8901 43.29C63.9401 43.28 63.9801 43.24 64.0301 43.22C64.1901 43.22 64.3601 43.22 64.5401 43.21C64.7901 43.22 65.0901 43.13 65.3601 42.98C65.5401 43 65.7201 43 65.9001 42.97C65.9601 42.96 66.0301 42.94 66.0901 42.92C66.3201 42.98 66.5501 43.02 66.8001 43.01C67.3301 42.99 67.9801 42.72 68.3501 42.27C68.5301 42.29 68.7101 42.28 68.8901 42.25C69.3001 42.35 69.7201 42.17 70.1901 41.94C70.5801 42.22 71.1301 42.34 71.4901 41.98C71.5301 41.94 71.5501 41.89 71.5801 41.85C71.6901 41.85 71.8101 41.84 71.9401 41.84C72.0601 41.84 72.1901 41.82 72.3301 41.78C72.5701 42.43 73.1001 43.02 73.8401 42.91C74.1901 42.86 74.4801 42.66 74.7701 42.39C74.7901 42.4 74.8101 42.41 74.8301 42.41C74.8901 42.43 74.9601 42.44 75.0301 42.46C75.0501 42.47 75.0701 42.48 75.0901 42.49C75.6201 42.67 76.2001 42.46 76.8701 42.2C76.9001 42.19 76.9301 42.18 76.9601 42.16C77.2901 42.31 77.66 42.34 77.9501 42.09L77.9601 42.08C78.0501 42.07 78.1401 42.06 78.2401 42.03C78.3601 42.16 78.4901 42.28 78.6401 42.39C79.1201 42.73 79.9001 42.9 80.5001 42.68C80.7301 42.86 81.01 42.97 81.34 42.94C81.8101 42.9 82.2001 42.6 82.6101 42.22C83.0001 42.35 83.4701 42.34 84.0001 42.32C84.3501 42.33 84.7901 42.18 85.1401 41.95C85.5501 42.16 86.0201 42.2 86.4701 42.07H86.4801C86.6601 42.43 86.9501 42.72 87.3901 42.78C87.8901 42.85 88.3801 42.61 88.9201 42.28C89.3601 42.48 89.9201 42.48 90.5601 42.45C90.7801 42.46 91.0301 42.4 91.2801 42.31C91.6901 42.81 92.3101 43.16 92.9401 42.88C93.3101 42.72 93.57 42.38 93.8101 41.97C93.9501 42.07 94.1101 42.14 94.2801 42.2C94.5101 42.58 94.8701 42.86 95.3601 42.85C95.6501 42.84 95.92 42.74 96.18 42.57C96.39 42.7 96.64 42.76 96.9 42.69C97.02 42.66 97.1201 42.6 97.2201 42.53C97.2801 42.57 97.3301 42.61 97.3901 42.65C97.7001 42.82 98.1301 42.89 98.5201 42.81C98.8801 43.29 99.4401 43.57 100.07 43.6C100.33 43.9 100.69 44.09 101.09 43.97C101.22 43.93 101.34 43.86 101.44 43.78C101.49 43.82 101.54 43.85 101.6 43.88C101.62 43.89 101.64 43.89 101.65 43.9C102 44.34 102.53 44.64 103.14 44.71C103.29 44.73 103.44 44.72 103.6 44.7C103.95 45.43 104.79 46.12 105.61 45.73C105.79 45.65 105.93 45.52 106.06 45.37C106.16 45.38 106.27 45.37 106.38 45.33C106.46 45.3 106.54 45.25 106.61 45.2C106.69 45.24 106.76 45.29 106.84 45.31C106.85 45.35 106.86 45.39 106.88 45.43C107.11 45.97 107.73 46.53 108.36 46.54C108.67 46.82 109.05 47.02 109.44 47.03C109.54 47.25 109.68 47.45 109.87 47.62C109.9 47.88 109.98 48.13 110.12 48.38C110.13 48.39 110.13 48.4 110.14 48.41C110.19 48.67 110.29 48.92 110.43 49.1C110.74 49.48 111.14 49.69 111.56 49.77C111.65 49.88 111.76 49.97 111.87 50.05C111.86 50.14 111.85 50.23 111.86 50.32C111.87 50.71 112.06 51.16 112.36 51.47C112.36 51.48 112.37 51.49 112.37 51.49C112.61 51.86 112.93 52.11 113.3 52.24C113.33 52.34 113.36 52.45 113.41 52.55C113.53 52.83 113.78 53.11 114.08 53.3C114.08 53.54 114.12 53.77 114.2 53.95C114.46 54.48 114.89 54.81 115.39 54.96C115.5 55.12 115.64 55.24 115.79 55.34C115.79 55.45 115.8 55.55 115.81 55.66C115.68 55.97 115.61 56.31 115.63 56.67C115.64 56.97 115.75 57.32 115.92 57.62C115.71 57.99 115.6 58.42 115.63 58.88C115.63 58.91 115.64 58.94 115.64 58.96C115.52 59.53 115.65 60.11 115.98 60.6C115.76 60.93 115.64 61.4 115.71 61.73C115.77 62.03 115.89 62.28 116.06 62.5C116.04 62.63 116.04 62.76 116.06 62.87C116.08 62.94 116.12 62.99 116.14 63.06C116.1 63.13 116.06 63.2 116.04 63.27C115.91 63.73 115.99 64.16 116.2 64.52C116.16 64.65 116.14 64.78 116.15 64.92C115.94 65.04 115.77 65.21 115.68 65.4C115.51 65.76 115.59 66.31 115.79 66.69C115.78 66.76 115.76 66.84 115.76 66.9C115.76 67.2 115.84 67.47 115.97 67.71C115.6 68.04 115.32 68.62 115.34 69.06C115.35 69.34 115.42 69.61 115.52 69.84C115.43 70.08 115.44 70.39 115.53 70.66C115.35 70.95 115.27 71.27 115.3 71.62C115.27 71.67 115.22 71.71 115.19 71.77C114.31 72.31 114.03 73.31 114.34 74.22C114.31 74.31 114.29 74.41 114.27 74.51C114.12 74.62 113.97 74.76 113.85 74.92C113.71 75.12 113.6 75.38 113.55 75.65C113.33 75.99 113.22 76.4 113.23 76.83C113.09 77.04 112.98 77.27 112.91 77.53C112.88 77.64 112.87 77.77 112.87 77.89C112.76 78.11 112.7 78.34 112.68 78.59C112.49 78.77 112.33 78.99 112.21 79.23C112.1 79.46 112.03 79.75 112.02 80.04C111.88 80.35 111.82 80.7 111.83 81.07C111.81 81.12 111.78 81.18 111.77 81.23C111.76 81.27 111.76 81.31 111.76 81.35C111.7 81.4 111.64 81.45 111.6 81.51C111.26 81.99 111.17 82.53 111.27 83.04C111.16 83.27 111.09 83.53 111.12 83.73C111.13 83.81 111.15 83.88 111.17 83.96C111.04 84.1 110.94 84.27 110.86 84.45C110.8 84.5 110.73 84.55 110.68 84.61C110.45 84.91 110.32 85.24 110.29 85.58C110.07 85.69 109.89 85.84 109.78 86.03C109.53 86.47 109.59 87.24 109.87 87.65C109.88 87.66 109.89 87.67 109.9 87.68C109.52 87.83 109.18 88.09 109.05 88.42C108.98 88.61 108.98 88.86 109.02 89.1C108.96 89.21 108.91 89.32 108.87 89.44C108.66 89.53 108.48 89.65 108.35 89.82C108 90.27 107.97 91.16 108.22 91.65C108.23 91.66 108.23 91.67 108.24 91.68C108.22 91.73 108.2 91.78 108.18 91.83C108.08 91.94 108.01 92.06 107.96 92.18C107.78 92.61 107.77 93.04 107.87 93.43C107.41 93.66 107.08 94.05 106.91 94.51C106.7 94.62 106.5 94.76 106.33 94.94C106.2 95.08 106.08 95.25 105.98 95.44C105.98 95.44 105.97 95.45 105.96 95.45C105.73 95.74 105.6 96.06 105.56 96.38C105.44 96.48 105.34 96.59 105.27 96.7C105.23 96.77 105.2 96.85 105.17 96.93C104.83 96.96 104.49 97.08 104.3 97.31C104.16 97.48 104.07 97.72 104.03 97.98C103.99 98.02 103.95 98.05 103.92 98.09C103.68 98.41 103.56 98.76 103.55 99.11C103.44 99.23 103.34 99.35 103.27 99.49C102.8 99.52 102.31 99.69 102.08 100.03C101.99 100.17 101.94 100.35 101.91 100.54C101.64 100.81 101.44 101.25 101.44 101.58C101.44 101.66 101.45 101.73 101.46 101.8C101.42 101.83 101.39 101.86 101.35 101.89C101 101.97 100.63 102.23 100.43 102.54C100.17 102.63 99.9301 102.78 99.7801 102.96C99.7401 103 99.72 103.05 99.68 103.1C99.53 103.08 99.3701 103.08 99.2101 103.1C99.0101 103.07 98.82 103.06 98.65 103.1C98.4 103.16 98.1801 103.26 97.9901 103.39C97.4901 103.2 96.8901 103.16 96.4901 103.41C96.4701 103.42 96.45 103.45 96.43 103.46C96.03 103.55 95.6301 103.76 95.4101 104.03C95.3101 104.15 95.2401 104.27 95.1701 104.4C95.0501 104.41 94.94 104.43 94.84 104.48C94.75 104.53 94.6601 104.61 94.5801 104.7C94.5001 104.68 94.4101 104.66 94.3301 104.67C94.1201 104.69 93.9001 104.83 93.7201 105C93.6801 104.99 93.6401 104.98 93.6001 104.98C93.5901 104.98 93.5801 104.98 93.5701 104.98C93.1501 104.76 92.57 104.7 92.18 104.84C91.89 104.94 91.6401 105.1 91.4401 105.28C91.2101 105.22 90.97 105.2 90.76 105.27C90.49 105.36 90.2401 105.6 90.0601 105.88C89.6501 105.7 89.0201 105.79 88.6301 106.03C88.2001 105.84 87.7201 105.77 87.3501 105.93C87.2201 105.98 87.1001 106.07 86.9901 106.18C86.8801 106.14 86.7601 106.12 86.6501 106.11C86.5401 106.03 86.4201 105.96 86.2901 105.93C85.7501 105.78 84.9301 106.07 84.5701 106.49C84.4801 106.6 84.4001 106.71 84.3301 106.82C84.2701 106.84 84.2201 106.86 84.1601 106.89C83.9001 106.73 83.4701 106.6 83.09 106.66Z" fill="#00C113"/>
<path d="M75.8301 113.33C75.8001 113.31 75.7701 113.3 75.7401 113.28C75.7101 113.23 75.6901 113.18 75.6501 113.13C75.8101 112.94 75.9301 112.71 75.9501 112.48C76.1301 112.33 76.2801 112.15 76.3401 111.94C76.4701 111.51 76.2801 110.9 75.9901 110.54C76.0601 110.35 76.0701 110.15 76.0001 109.95C76.2201 109.68 76.3701 109.35 76.3501 109.03C76.6201 108.7 76.8001 108.32 76.7701 107.95C76.7401 107.6 76.5101 107.22 76.2301 106.92C76.2301 106.75 76.2001 106.59 76.1401 106.45C75.9201 105.98 75.2201 105.58 74.7201 105.58C74.4701 105.58 74.2401 105.63 74.0201 105.7C73.6301 105.41 73.1301 105.23 72.7101 105.34C72.6601 105.35 72.6001 105.39 72.5501 105.42C72.3501 105.4 72.1601 105.41 72.0001 105.46C71.9001 105.49 71.8101 105.53 71.7201 105.58C71.5801 105.49 71.4301 105.42 71.2801 105.41C70.8801 105.36 70.3701 105.6 70.0601 105.91C70.0501 105.91 70.0401 105.91 70.0401 105.91C69.9701 105.85 69.9001 105.8 69.8301 105.74C69.3401 105.3 68.3001 105.06 67.7201 105.45C67.6401 105.51 67.5601 105.59 67.4901 105.68C67.4001 105.68 67.3001 105.68 67.2201 105.69C67.0301 105.65 66.8201 105.65 66.6101 105.7C66.1801 105.32 65.5701 105.06 65.0801 105.18C64.8501 105.24 64.6301 105.4 64.4201 105.59C63.9701 105.38 63.2901 105.39 62.8901 105.62C62.7101 105.73 62.5601 105.86 62.4201 106C62.0901 105.8 61.6501 105.69 61.3301 105.75C61.1701 105.78 61.0201 105.83 60.8801 105.9C60.3401 105.58 59.5001 105.45 59.0001 105.78C58.9101 105.84 58.8201 105.94 58.7401 106.04C58.3501 105.82 57.8101 105.73 57.4301 105.83C57.2601 105.88 57.1001 105.95 56.9501 106.03C56.4801 105.95 55.8701 106.12 55.5501 106.41C55.5101 106.45 55.4701 106.5 55.4301 106.54C55.3901 106.55 55.3401 106.56 55.3001 106.57L55.2901 106.56C54.7901 106.31 53.9401 106.43 53.5101 106.77C53.3401 106.9 53.2101 107.06 53.0901 107.22C52.9701 107.26 52.8701 107.31 52.7601 107.36C52.6901 107.35 52.6201 107.33 52.5601 107.33C51.9201 107.35 51.4001 107.65 51.0701 108.11C50.7001 108.11 50.3101 108.23 50.0401 108.45C49.9901 108.43 49.9501 108.4 49.9001 108.39C49.3601 108.23 48.5401 108.5 48.1701 108.9C48.1501 108.93 48.1301 108.96 48.1101 108.98C48.0501 109 47.9901 109 47.9301 109.02C47.6001 109.16 47.3401 109.38 47.1301 109.62C46.6701 109.68 46.1401 110.12 45.9801 110.54V110.55C45.7301 110.57 45.5001 110.65 45.3201 110.78C44.7801 110.73 44.1401 110.89 43.8501 111.28C43.6201 111.6 43.5701 112.15 43.6801 112.57C43.6801 112.58 43.6701 112.6 43.6601 112.61C43.6201 112.77 43.6101 112.92 43.6201 113.07C43.4901 113.15 43.3801 113.24 43.3001 113.36C43.1101 113.63 43.0701 114.07 43.1501 114.44C43.1301 114.49 43.0901 114.53 43.0801 114.58C42.9801 114.92 42.9801 115.25 43.0501 115.56C42.9701 115.66 42.8901 115.76 42.8201 115.88C42.6201 116.22 42.5201 116.72 42.6001 117.16C42.5901 117.21 42.6001 117.27 42.6001 117.32C42.5101 117.44 42.4401 117.57 42.3901 117.69C42.0401 118.73 42.5701 119.73 43.5201 120.15C43.5701 120.17 43.6201 120.19 43.6801 120.2C43.7701 120.32 43.8901 120.42 44.0601 120.47C44.1401 120.5 44.2201 120.5 44.3101 120.5C44.3901 120.71 44.5101 120.9 44.6601 121.08C44.6801 121.42 44.8201 121.73 45.1301 121.93C45.3601 122.07 45.6201 122.12 45.9101 122.13C46.1701 122.5 46.5601 122.77 47.0201 122.93C47.1101 123.23 47.2601 123.51 47.4401 123.69C47.7701 124.01 48.1501 124.2 48.5401 124.27C49.0301 124.79 49.7701 125.02 50.5201 124.89C50.6901 124.95 50.8701 124.99 51.0601 125C51.3401 125.01 51.6701 124.94 51.9601 124.78C52.1501 124.82 52.3601 124.81 52.5701 124.76C52.6901 124.85 52.8301 124.92 52.9701 124.96C53.1301 125.14 53.3301 125.28 53.6001 125.3C53.9801 125.34 54.3501 125.16 54.7401 124.92C55.0501 125.13 55.4201 125.22 55.7601 125.02C55.8801 124.95 55.9701 124.84 56.0601 124.72C56.3001 124.76 56.5501 124.75 56.7801 124.67C57.1901 124.87 57.6701 124.9 58.1201 124.72C58.1301 124.73 58.1501 124.74 58.1601 124.75C58.2901 124.82 58.4401 124.86 58.6001 124.89C58.9101 125.27 59.3601 125.53 59.8501 125.35C60.0601 125.27 60.2301 125.13 60.3901 124.95C60.5501 124.97 60.7101 124.98 60.8701 124.95C61.1101 125.15 61.4001 125.27 61.7401 125.2C61.9901 125.15 62.2001 125.02 62.4001 124.83C62.7601 124.9 63.1401 124.87 63.5001 124.75C64.0601 125.02 64.7801 125.07 65.2101 124.6C65.6001 124.63 66.0401 124.56 66.3701 124.35C66.5701 124.34 66.7601 124.28 66.9301 124.13C66.9401 124.12 66.9401 124.11 66.9501 124.11C67.0301 124.12 67.1201 124.11 67.2101 124.09C67.3201 124.06 67.4301 124.01 67.5201 123.94C67.7501 124.06 68.0001 124.15 68.2701 124.19C68.9601 124.3 69.9401 124 70.2401 123.3C70.5101 123.31 70.7901 123.26 71.0701 123.16C71.6301 122.94 72.2101 122.32 72.2101 121.68C72.2101 121.67 72.2201 121.67 72.2201 121.66C72.2401 121.66 72.2601 121.66 72.2801 121.65C72.9301 121.53 73.7101 120.91 73.6501 120.18C73.6601 120.17 73.6601 120.15 73.6701 120.14C74.1301 120.11 74.5701 119.91 74.7301 119.45C75.2601 119.34 75.7301 119.03 75.8101 118.46C75.8301 118.3 75.8101 118.15 75.7701 117.99C76.1801 117.68 76.4601 117.21 76.3001 116.69C76.2701 116.6 76.2201 116.51 76.1701 116.43C76.2901 116.25 76.3801 116.05 76.3901 115.85C76.4001 115.74 76.3701 115.61 76.3401 115.49C76.4601 115.33 76.5401 115.15 76.5701 114.96C76.6701 114.42 76.2801 113.64 75.8301 113.33Z" fill="#00C113"/>
<path d="M121.28 117.78C121.27 117.74 121.24 117.71 121.23 117.67C121.32 117.43 121.34 117.18 121.25 116.96C121.36 116.78 121.43 116.58 121.43 116.39C121.43 116.01 121.18 115.56 120.87 115.27C120.81 115.12 120.74 114.96 120.66 114.79C120.88 114.43 120.96 113.99 120.7 113.62C120.6 113.48 120.47 113.38 120.31 113.29C120.27 113.16 120.22 113.04 120.15 112.91C120.38 112.53 120.47 112.07 120.2 111.67C119.92 111.24 119.36 111.06 118.73 110.86C118.55 110.79 118.31 110.77 118.08 110.77C117.99 110.73 117.89 110.69 117.79 110.65C117.76 110.64 117.73 110.64 117.7 110.63C117.61 110.43 117.46 110.22 117.27 110.04C117.2 109.73 117.07 109.44 116.86 109.25C116.6 109.02 116.17 108.91 115.76 108.9C115.57 108.65 115.34 108.45 115.07 108.36C114.71 108.25 114.23 108.34 113.84 108.53C113.69 108.43 113.51 108.36 113.32 108.29C113.3 108.22 113.28 108.15 113.25 108.09C113.03 107.64 112.35 107.28 111.86 107.29C111.75 107.29 111.66 107.31 111.56 107.33C111.36 107.22 111.14 107.13 110.92 107.1C110.78 106.85 110.6 106.63 110.37 106.52C110 106.33 109.43 106.35 108.99 106.52C108.85 106.5 108.71 106.49 108.57 106.49C108.43 106.29 108.25 106.12 108.04 106.04C107.86 105.97 107.65 105.96 107.43 105.98C107.04 105.78 106.54 105.69 106.18 105.79C105.89 105.87 105.63 106 105.42 106.18C105.35 106.16 105.28 106.12 105.21 106.12C105.02 106.1 104.85 106.11 104.68 106.14C104.63 106.1 104.59 106.07 104.55 106.04C104.06 105.6 103.02 105.37 102.44 105.75C102.43 105.76 102.43 105.77 102.42 105.77C102.2 105.83 102.01 105.92 101.84 106.04C101.75 105.87 101.63 105.73 101.49 105.63C101.06 105.33 100.25 105.34 99.8001 105.59C99.6701 105.66 99.5601 105.75 99.4601 105.84C99.4101 105.83 99.3601 105.82 99.3101 105.8C98.8801 105.35 98.1901 105.01 97.6401 105.14C97.3501 105.21 97.0601 105.43 96.8301 105.7C96.7101 105.74 96.6001 105.79 96.5101 105.85C96.2901 105.73 96.0301 105.65 95.7501 105.64C95.2301 105.25 94.2801 105.06 93.7401 105.42C93.6501 105.48 93.5801 105.56 93.5101 105.65C93.3401 105.51 93.1501 105.41 92.9501 105.38C92.7901 105.36 92.6001 105.4 92.4201 105.46C92.1001 105.37 91.7601 105.36 91.5001 105.44C91.3801 105.48 91.2701 105.53 91.1701 105.58C90.8101 105.36 90.3901 105.24 90.0401 105.33C89.8801 105.37 89.7101 105.47 89.5601 105.6C88.7501 105.72 88.1501 106.29 87.9301 107.05C87.7601 107.23 87.6201 107.43 87.5101 107.66C87.1801 108.35 87.2101 109.5 87.9301 109.95C87.9301 109.96 87.9401 109.96 87.9401 109.97C87.9101 110.18 87.9301 110.39 87.9901 110.58C87.5001 111.12 87.2201 112.13 87.8901 112.65C87.9501 112.7 88.0201 112.72 88.0801 112.75C88.1001 112.81 88.1201 112.86 88.1401 112.91C88.1101 112.97 88.0801 113.04 88.0701 113.1C88.0401 113.27 88.0501 113.43 88.0701 113.58C87.9901 113.66 87.9101 113.73 87.8401 113.82C87.4001 114.37 87.1801 115.36 87.6201 115.98C87.5801 116.29 87.6201 116.6 87.7401 116.87C87.7401 116.89 87.7401 116.91 87.7401 116.93C87.8301 117.31 88.0101 117.62 88.2601 117.86C88.3801 118.53 88.8501 119.07 89.5001 119.34C89.6401 119.54 89.8101 119.71 90.0201 119.85C90.0301 119.91 90.0401 119.98 90.0601 120.04C90.1701 120.41 90.4501 120.8 90.8101 121.03C91.0201 121.28 91.2801 121.46 91.5801 121.57C91.6501 121.67 91.7401 121.73 91.8201 121.81C91.8401 121.96 91.8701 122.11 91.9301 122.23C92.2101 122.81 92.7001 123.15 93.2501 123.27C93.3701 123.49 93.5501 123.66 93.8101 123.72C94.0301 123.77 94.2501 123.75 94.4801 123.67C94.8001 123.94 95.1901 124.12 95.6401 124.19C95.9401 124.24 96.3001 124.2 96.6301 124.1C96.6701 124.1 96.7001 124.1 96.7301 124.09C96.8401 124.06 96.9401 124.01 97.0301 123.95C97.3401 124.23 97.7801 124.42 98.1801 124.34C98.3201 124.42 98.4601 124.48 98.6101 124.53C98.8001 124.59 99.0101 124.62 99.2301 124.61C99.6801 124.91 100.33 125.07 100.83 124.86C100.92 124.86 101 124.87 101.09 124.86C101.34 125.11 101.66 125.26 102.03 125.19C102.24 125.15 102.43 125.04 102.6 124.89C102.82 124.95 103.05 124.97 103.27 124.94C103.57 125.28 104 125.5 104.46 125.34C104.72 125.25 104.92 125.05 105.1 124.8C105.42 124.91 105.82 124.93 106.13 124.79C106.45 124.85 106.79 124.84 107.12 124.7C107.13 124.7 107.13 124.69 107.14 124.69C107.36 124.74 107.58 124.74 107.8 124.68C108.03 124.93 108.34 125.11 108.66 125.11C108.79 125.2 108.93 125.26 109.1 125.28C109.53 125.32 109.93 125.1 110.37 124.81C110.73 125.02 111.18 125.09 111.5 124.78C111.53 124.75 111.55 124.71 111.58 124.68C111.64 124.7 111.71 124.73 111.77 124.74C111.94 124.78 112.13 124.78 112.33 124.75C112.56 124.87 112.83 124.95 113.11 124.96C113.31 124.97 113.53 124.93 113.74 124.86C113.99 124.9 114.25 124.9 114.51 124.85C115.03 124.76 115.63 124.39 115.91 123.88C116 123.82 116.1 123.75 116.19 123.68C116.38 123.51 116.56 123.27 116.69 123.01C117.47 123.07 118.45 122.7 118.53 121.83C118.53 121.8 118.52 121.77 118.52 121.74C118.57 121.71 118.61 121.69 118.65 121.65C118.91 121.63 119.16 121.53 119.34 121.31C119.58 121.02 119.64 120.62 119.66 120.17C119.67 120.17 119.68 120.16 119.68 120.16C120.39 120.39 121.45 120.25 121.67 119.41C121.81 118.93 121.56 118.4 121.28 117.78Z" fill="#00C113"/>
<path d="M88.0601 72.5C87.4901 72.01 86.7301 72.05 86.1901 72.49C86.0301 72.47 85.8801 72.47 85.7501 72.52C85.3301 72.66 84.9201 73.21 84.8701 73.64C84.8701 73.66 84.8701 73.67 84.8701 73.69C84.7201 73.8 84.6101 73.94 84.5101 74.09C84.2501 74.08 84.0001 74.1 83.8101 74.23C83.7801 74.25 83.7601 74.29 83.7301 74.31C83.4401 74.32 83.1201 74.48 82.8801 74.69C82.4101 74.72 81.9901 74.91 81.6501 75.23C81.2601 74.88 80.7101 74.63 80.2401 74.69C79.9501 74.64 79.6601 74.66 79.3901 74.72C79.0001 74.37 78.4301 74.23 77.7601 74.09C77.6101 74.05 77.4401 74.03 77.2601 74.03C77.2301 73.94 77.2201 73.85 77.1701 73.78C77.0301 73.57 76.7901 73.41 76.5101 73.3C76.3401 73.11 76.1401 72.92 75.9301 72.72C75.4601 72.22 74.4101 71.88 73.7801 72.22C73.2801 72.49 72.8901 73.27 72.9201 73.83C72.9701 74.78 73.5701 75.47 74.3701 75.76C74.6001 76.3 75.0901 76.77 75.7001 76.64C75.7101 76.64 75.7201 76.63 75.7301 76.63C76.2301 77.35 77.0101 77.66 77.7901 77.57C77.9101 77.92 78.1501 78.2 78.5301 78.33C78.9301 78.47 79.3701 78.38 79.8501 78.22C80.0501 78.35 80.2601 78.46 80.5001 78.53C81.0601 78.69 81.8501 78.6 82.3201 78.19C82.7001 78.15 83.1001 77.98 83.5501 77.78C83.6801 77.73 83.8101 77.66 83.9301 77.57C84.4101 77.64 84.9301 77.51 85.1601 77.07C85.7301 77.03 86.4401 76.62 86.5701 76.02C86.6601 75.88 86.7601 75.72 86.8501 75.55C87.4001 75.47 87.9601 75.15 87.9801 74.56C87.9801 74.45 87.9701 74.34 87.9401 74.23C88.1801 74.09 88.3701 73.89 88.4401 73.66C88.5201 73.28 88.3301 72.74 88.0601 72.5Z" fill="#494949"/>
<path d="M96.1301 98.5C96.0101 98.09 95.6301 97.82 95.1701 97.5C95.0801 97.43 94.9701 97.38 94.8601 97.33C94.8401 97.27 94.8301 97.1999 94.7901 97.1499C94.7001 97.0199 94.5501 96.92 94.3901 96.84C94.2801 96.21 93.7901 95.45 93.1801 95.3C92.9201 95.24 92.5901 95.2799 92.2901 95.3999C92.1501 95.3199 92.0101 95.26 91.8601 95.25C91.6401 95.23 91.3901 95.31 91.1601 95.44C91.1401 95.43 91.1301 95.42 91.1101 95.41C91.0901 95.38 91.0901 95.34 91.0701 95.32C90.7601 94.94 90.0201 94.73 89.5501 94.85C89.1901 94.5 88.7101 94.25 88.2801 94.3C88.0101 94.33 87.7201 94.48 87.4701 94.69C87.0901 94.27 86.4701 93.9399 85.9601 94.0399C85.8601 94.0599 85.7701 94.11 85.6701 94.16C85.2801 93.99 84.7901 93.94 84.2501 93.89C84.2001 93.88 84.1401 93.88 84.0801 93.88C83.8201 93.63 83.5101 93.46 83.1901 93.45C83.0501 93.45 82.9001 93.48 82.7401 93.53C82.4101 93.45 82.0401 93.45 81.7801 93.56C81.6601 93.61 81.5501 93.6699 81.4501 93.7299C80.8401 93.4699 79.8501 93.52 79.4001 94.02C79.3601 94.07 79.3301 94.14 79.2901 94.2C79.2201 94.23 79.1501 94.27 79.0901 94.31C78.8601 94.3 78.6201 94.34 78.4001 94.42C78.1301 94.23 77.8101 94.1199 77.5301 94.1499C77.3101 94.1799 77.0801 94.3 76.8701 94.47C76.5801 94.46 76.2401 94.57 75.9801 94.75C75.8601 94.74 75.7401 94.75 75.6301 94.77C75.1801 94.56 74.5601 94.54 74.1601 94.72C74.1401 94.73 74.1201 94.7499 74.1001 94.7599C74.0601 94.7499 74.0301 94.72 73.9901 94.72C73.4601 94.58 72.6601 94.88 72.3201 95.3C72.2801 95.35 72.2601 95.4 72.2201 95.44C71.9001 95.44 71.5401 95.53 71.2401 95.69C71.0101 95.75 70.7901 95.8499 70.6401 95.9799C70.3901 96.2099 70.2201 96.47 70.1201 96.75C70.0801 96.76 70.0401 96.75 70.0001 96.77C69.8001 96.86 69.6201 97.07 69.4901 97.31C69.2301 97.4 68.9801 97.55 68.8401 97.7299C68.3101 98.4399 68.4701 99.3399 69.0901 99.8999C69.5501 100.31 70.5001 100.53 70.9001 99.8999C71.0001 99.7399 71.0401 99.55 71.0601 99.34C71.1701 99.32 71.2901 99.2999 71.4001 99.2599C71.8101 99.3799 72.2401 99.3399 72.5501 99.0099C72.6901 98.8599 72.7801 98.67 72.8401 98.47C73.3101 98.76 73.9301 98.91 74.4301 98.72C74.6801 98.77 74.9301 98.75 75.1801 98.61C75.4201 98.48 75.6001 98.27 75.7501 98.02C75.9601 97.95 76.1701 97.87 76.3901 97.77C76.4201 97.76 76.4501 97.74 76.4801 97.7299C76.9201 97.9 77.4501 97.92 77.8001 97.61C78.2901 97.7 78.8601 97.61 79.2101 97.28C79.5701 97.3 79.9801 97.2199 80.4301 97.1199C80.4901 97.1099 80.5501 97.09 80.6201 97.07C80.9001 97.13 81.2001 97.14 81.4901 97.09C81.8101 97.29 82.1901 97.3599 82.5601 97.1799C82.6001 97.1599 82.6301 97.13 82.6701 97.1C82.9401 97.24 83.2801 97.32 83.6101 97.32C84.0301 97.43 84.4701 97.3999 84.8901 97.2599C85.0201 97.2599 85.1501 97.23 85.2901 97.19C85.5201 97.41 85.8001 97.59 86.1201 97.7C86.5101 97.83 87.0201 97.83 87.4501 97.67C87.6401 97.84 87.8601 97.99 88.1001 98.1C88.3001 98.19 88.5301 98.2399 88.7801 98.2599C89.0701 98.4899 89.4201 98.61 89.8101 98.4799C90.0501 98.4 90.2501 98.24 90.4301 98.02C90.6101 98.09 90.8201 98.1199 91.0301 98.1199C91.0701 98.1499 91.1101 98.19 91.1601 98.22C91.2101 98.25 91.2601 98.28 91.3201 98.31C91.4301 98.51 91.5701 98.69 91.7501 98.85C92.1201 99.2 92.7601 99.4599 93.3201 99.3999C93.4001 99.4199 93.4901 99.42 93.5801 99.41C93.9201 99.73 94.3901 99.91 94.8901 99.85C95.5401 99.78 96.3301 99.22 96.1301 98.5Z" fill="#00C113"/>
<path d="M75.7001 62.66C75.7001 62.61 75.6801 62.56 75.6501 62.52C75.6501 62.46 75.6201 62.39 75.5801 62.32L75.5701 62.31C75.5801 62.28 75.5801 62.26 75.5901 62.23C75.6001 62.21 75.6101 62.19 75.6101 62.17V62.16C75.8601 61.08 75.6001 60.24 75.0801 59.64C75.0901 59.62 75.0901 59.59 75.0801 59.56C75.0701 59.52 75.0301 59.49 74.9901 59.46C74.9801 59.43 74.9701 59.39 74.9401 59.36C74.9401 59.35 74.9301 59.35 74.9301 59.34C74.9201 59.3 74.9101 59.27 74.8901 59.25C74.8601 59.22 74.8301 59.21 74.7901 59.2C74.7801 59.18 74.7801 59.16 74.7701 59.15C74.7401 59.11 74.6801 59.1 74.6201 59.1C74.6201 59.1 74.6201 59.1 74.6201 59.09C74.5701 59.05 74.4701 59.03 74.4101 59.06C74.4001 59.06 74.4001 59.07 74.3901 59.07C74.3701 59.06 74.3501 59.05 74.3301 59.03C74.3101 59 74.2801 58.97 74.2501 58.96C74.2401 58.96 74.2201 58.96 74.2001 58.96C73.7201 58.71 73.1701 58.58 72.6301 58.55C72.5801 58.53 72.5301 58.51 72.4901 58.52C72.4601 58.52 72.4301 58.54 72.4101 58.55H72.4001C72.3901 58.54 72.3901 58.53 72.3801 58.52C72.2901 58.46 72.1901 58.46 72.1001 58.5C72.0901 58.5 72.0801 58.49 72.0601 58.49C72.0501 58.49 72.0501 58.49 72.0401 58.49C72.0301 58.47 72.0101 58.45 71.9901 58.44C71.9901 58.44 71.9901 58.43 71.9801 58.43C71.9401 58.37 71.8301 58.34 71.7601 58.35C71.6401 58.37 71.5701 58.46 71.5401 58.57C71.5201 58.59 71.5101 58.6 71.5001 58.63C71.4901 58.63 71.4801 58.63 71.4701 58.64C71.4601 58.65 71.4501 58.66 71.4301 58.68C71.4101 58.68 71.3901 58.69 71.3701 58.7C70.6401 58.91 70.0401 59.37 69.8001 60.07C69.7601 60.08 69.7201 60.1 69.7001 60.13C69.6901 60.14 69.6901 60.15 69.6901 60.17C69.6801 60.17 69.6601 60.16 69.6501 60.16C69.6301 60.14 69.6001 60.13 69.5701 60.12C69.2301 59.45 68.5601 59.1 67.7901 59C67.7701 58.97 67.7501 58.94 67.7201 58.93C67.6901 58.91 67.6601 58.91 67.6301 58.9C67.5901 58.83 67.4901 58.75 67.4001 58.77C67.4001 58.77 67.4001 58.77 67.3901 58.77C67.3201 58.77 67.2601 58.79 67.2201 58.82C67.1501 58.82 67.0901 58.85 67.0401 58.89C67.0001 58.9 66.9601 58.92 66.9301 58.96C66.8901 58.97 66.8401 58.98 66.8101 59.01C66.7601 59 66.7101 59 66.6801 59.02C66.6701 59.03 66.6701 59.04 66.6601 59.05C66.0501 59.17 65.4601 59.43 64.9901 59.81C64.9701 59.81 64.9501 59.8 64.9401 59.81C64.8901 59.82 64.8401 59.86 64.8101 59.89C64.7701 59.9 64.7401 59.91 64.7101 59.94C64.6601 59.95 64.6101 59.96 64.5701 59.99C64.5301 59.98 64.4901 59.97 64.4501 59.99C64.3801 60.02 64.3301 60.11 64.3201 60.18C64.3201 60.21 64.3201 60.23 64.3301 60.26C64.3001 60.35 64.3201 60.43 64.3701 60.5C63.9101 61.21 63.7801 62.14 64.2801 63.25C64.2801 63.26 64.2701 63.27 64.2701 63.28C64.2701 63.3 64.2801 63.32 64.2901 63.34C64.2901 63.34 64.2801 63.34 64.2801 63.35C64.2501 63.39 64.2301 63.46 64.2301 63.52C64.1801 63.61 64.1701 63.73 64.2501 63.79C64.2801 63.81 64.3201 63.82 64.3601 63.83C64.3701 63.85 64.3901 63.86 64.4101 63.87C64.4101 63.97 64.4701 64.09 64.5801 64.09C64.6001 64.09 64.6201 64.08 64.6301 64.07C64.6501 64.07 64.6601 64.08 64.6801 64.08C64.6401 64.15 64.6401 64.24 64.7001 64.3C64.7401 64.34 64.8001 64.35 64.8601 64.35C64.8801 64.41 64.9301 64.46 64.9901 64.46C65.0001 64.47 65.0101 64.48 65.0201 64.49C65.0301 64.5 65.0401 64.51 65.0401 64.52C65.0501 64.55 65.0701 64.59 65.0901 64.61C65.1101 64.63 65.1401 64.65 65.1701 64.67C65.1601 64.73 65.1701 64.79 65.2201 64.83C65.2501 64.86 65.3001 64.87 65.3501 64.87C65.3801 64.9 65.4001 64.93 65.4301 64.97C65.4401 65.04 65.4801 65.09 65.5501 65.11C65.5701 65.14 65.5901 65.16 65.6101 65.18C65.6101 65.18 65.6101 65.18 65.6201 65.18C65.6301 65.19 65.6401 65.19 65.6401 65.2C65.6601 65.26 65.7101 65.32 65.7801 65.33C65.7901 65.34 65.7901 65.34 65.8001 65.35C65.8101 65.36 65.8201 65.37 65.8301 65.38C65.8401 65.4 65.8501 65.43 65.8601 65.46C65.8601 65.53 65.8801 65.6 65.9401 65.64C65.9701 65.66 66.0101 65.66 66.0501 65.66C66.0601 65.68 66.0801 65.71 66.1101 65.72H66.1201C66.1301 65.75 66.1401 65.78 66.1701 65.79C66.1801 65.79 66.1901 65.79 66.2001 65.8C66.2101 65.89 66.2801 66.01 66.3901 66.01C66.4201 66.09 66.4801 66.14 66.5601 66.17C66.5701 66.18 66.5801 66.2 66.6001 66.21C66.6001 66.27 66.6201 66.33 66.6601 66.37C66.6701 66.43 66.7001 66.49 66.7601 66.51C66.7901 66.52 66.8201 66.52 66.8501 66.52C66.8701 66.56 66.9101 66.6 66.9601 66.6C66.9801 66.6 67.0101 66.59 67.0301 66.58C67.0601 66.62 67.1001 66.65 67.1401 66.66C67.1501 66.67 67.1701 66.68 67.1801 66.69C67.2201 66.76 67.2901 66.81 67.3801 66.83C67.4001 66.85 67.4301 66.88 67.4701 66.89C67.4901 66.9 67.5201 66.9 67.5401 66.91C67.5501 66.92 67.5601 66.93 67.5701 66.94C67.6001 67.02 67.6601 67.09 67.7401 67.09V67.1C67.7801 67.14 67.8501 67.18 67.9201 67.19C67.9401 67.2 67.9601 67.21 67.9801 67.21C68.0201 67.24 68.0701 67.26 68.1201 67.26C68.1301 67.27 68.1301 67.29 68.1501 67.3C68.1601 67.33 68.1701 67.36 68.2001 67.38C68.2401 67.41 68.2901 67.41 68.3501 67.41C68.3901 67.49 68.4701 67.55 68.5501 67.52L68.5601 67.51C68.5701 67.51 68.5801 67.52 68.5901 67.52C68.6101 67.58 68.6401 67.63 68.7001 67.63C68.7001 67.63 68.7001 67.63 68.7101 67.63C68.7501 67.67 68.8001 67.7 68.8501 67.7C68.9001 67.75 68.9701 67.78 69.0401 67.78C69.0701 67.81 69.1101 67.83 69.1601 67.84C69.1801 67.86 69.2101 67.87 69.2301 67.87C69.2601 67.91 69.3001 67.94 69.3501 67.95C69.3601 68 69.3901 68.04 69.4401 68.04C69.4901 68.11 69.5701 68.16 69.6601 68.16C69.6701 68.16 69.6701 68.16 69.6801 68.16C69.7001 68.21 69.7401 68.26 69.7901 68.3C69.8301 68.33 69.8801 68.34 69.9301 68.34C69.9301 68.34 69.9301 68.34 69.9301 68.35C69.9601 68.45 70.0801 68.55 70.1901 68.51C70.2001 68.51 70.2001 68.51 70.2101 68.51C70.2301 68.53 70.2601 68.55 70.2901 68.55C70.3401 68.55 70.3901 68.51 70.4501 68.46C70.5501 68.47 70.6901 68.42 70.6901 68.3V68.29C70.7201 68.27 70.7401 68.25 70.7601 68.23C70.7801 68.22 70.8001 68.21 70.8201 68.2C70.8901 68.21 70.9601 68.19 70.9901 68.13C71.0001 68.11 71.0001 68.08 71.0001 68.06C71.0201 68.05 71.0301 68.04 71.0401 68.03C71.0501 68.02 71.0501 68.01 71.0501 68H71.0601C71.1401 68 71.2601 67.92 71.2801 67.84C71.2901 67.83 71.3001 67.82 71.3101 67.8C71.3201 67.79 71.3201 67.77 71.3301 67.75C71.3401 67.74 71.3601 67.74 71.3701 67.73C71.3901 67.72 71.4001 67.7 71.4201 67.68C71.4601 67.67 71.5101 67.65 71.5401 67.61C71.5801 67.6 71.6101 67.59 71.6301 67.55C71.6801 67.55 71.7301 67.53 71.7701 67.5C71.8401 67.49 71.9001 67.46 71.9201 67.4C71.9301 67.37 71.9301 67.34 71.9301 67.31C71.9801 67.29 72.0301 67.25 72.0801 67.21C72.1101 67.18 72.1501 67.14 72.1701 67.09C72.1801 67.08 72.1901 67.08 72.2001 67.07C72.2301 67.06 72.2601 67.06 72.2801 67.04C72.3301 67.01 72.3801 66.96 72.4001 66.9C72.4401 66.88 72.4701 66.85 72.5101 66.82L72.5201 66.81C72.5801 66.81 72.6501 66.79 72.6701 66.73C72.6801 66.7 72.6801 66.66 72.6801 66.63C72.7001 66.63 72.7301 66.64 72.7501 66.64C72.8501 66.63 72.9901 66.54 72.9801 66.42V66.41C72.9901 66.4 73.0101 66.4 73.0201 66.39C73.0201 66.39 73.0201 66.39 73.0301 66.39C73.1301 66.41 73.2401 66.39 73.2701 66.29C73.2801 66.26 73.2801 66.23 73.2701 66.19C73.2801 66.19 73.2901 66.19 73.3001 66.19C73.3501 66.16 73.3901 66.11 73.4201 66.04C73.4401 66.03 73.4501 66.03 73.4701 66.01C73.5001 65.98 73.5101 65.93 73.5101 65.87C73.5501 65.86 73.5801 65.83 73.6001 65.79C73.6001 65.77 73.6001 65.76 73.6001 65.74C73.6101 65.74 73.6201 65.74 73.6301 65.73C73.6501 65.72 73.6701 65.7 73.6801 65.69C73.7601 65.67 73.8401 65.61 73.8701 65.53C73.9101 65.5 73.9401 65.47 73.9401 65.41C73.9401 65.4 73.9301 65.38 73.9301 65.37C73.9801 65.33 74.0201 65.27 74.0201 65.21C74.0201 65.19 74.0101 65.18 74.0001 65.16C74.0001 65.15 74.0001 65.15 74.0101 65.14C74.0201 65.13 74.0301 65.12 74.0301 65.11C74.0701 65.09 74.1001 65.06 74.1101 65.02C74.1401 65 74.1801 64.97 74.2001 64.94C74.2801 64.91 74.3401 64.85 74.3401 64.77C74.3501 64.76 74.3601 64.75 74.3601 64.74C74.4001 64.7 74.4301 64.64 74.4601 64.57V64.56C74.4601 64.56 74.4701 64.56 74.4701 64.55C74.5201 64.52 74.5701 64.45 74.5901 64.38C74.6001 64.37 74.6101 64.36 74.6101 64.34V64.33C74.6601 64.25 74.7201 64.17 74.7701 64.08C74.8401 64.05 74.9001 63.99 74.9001 63.91C74.9601 63.88 74.9901 63.81 75.0201 63.73C75.1201 63.69 75.2101 63.6 75.1701 63.49C75.1701 63.49 75.1701 63.49 75.1601 63.48C75.1701 63.48 75.1701 63.48 75.1701 63.47C75.2301 63.44 75.3001 63.37 75.3201 63.3C75.3501 63.28 75.3701 63.26 75.3801 63.23C75.3801 63.22 75.3801 63.21 75.3801 63.21C75.3901 63.19 75.4001 63.16 75.4101 63.13C75.4901 63.1 75.5801 63.03 75.5901 62.95C75.5901 62.93 75.5801 62.91 75.5801 62.89C75.5901 62.88 75.5901 62.87 75.6001 62.86C75.6701 62.75 75.7001 62.71 75.7001 62.66Z" fill="#00C113"/>
<path d="M96.8401 63.15C96.8501 63.1 96.8302 63.06 96.8102 63.01C96.8202 62.95 96.8002 62.88 96.7702 62.81C96.7702 62.8 96.7601 62.8 96.7601 62.79C96.7701 62.76 96.7801 62.74 96.7901 62.72C96.8001 62.7 96.8102 62.68 96.8202 62.66V62.65C97.1902 61.64 97.0402 60.8 96.6102 60.16C96.6202 60.14 96.6301 60.11 96.6201 60.08C96.6101 60.04 96.5801 60 96.5401 59.97C96.5401 59.94 96.5201 59.9 96.5101 59.86C96.5101 59.85 96.5002 59.85 96.5002 59.84C96.5002 59.8 96.4902 59.77 96.4702 59.74C96.4502 59.71 96.4102 59.69 96.3802 59.68C96.3802 59.66 96.3801 59.64 96.3701 59.63C96.3401 59.59 96.2901 59.57 96.2301 59.57C96.2301 59.57 96.2301 59.57 96.2301 59.56C96.1901 59.51 96.1001 59.49 96.0401 59.5C96.0301 59.5 96.0302 59.51 96.0202 59.51C96.0002 59.5 95.9802 59.48 95.9602 59.47C95.9402 59.44 95.9202 59.41 95.8902 59.39C95.8802 59.38 95.8602 59.39 95.8502 59.39C95.4202 59.1 94.9102 58.9 94.3902 58.81C94.3502 58.78 94.3001 58.76 94.2601 58.76C94.2301 58.76 94.2001 58.77 94.1801 58.78C94.1801 58.78 94.1802 58.78 94.1702 58.78C94.1602 58.77 94.1601 58.76 94.1501 58.75C94.0701 58.68 93.9702 58.67 93.8802 58.7C93.8702 58.7 93.8602 58.69 93.8502 58.69C93.8402 58.69 93.8402 58.69 93.8302 58.69C93.8202 58.67 93.8001 58.65 93.7901 58.64V58.63C93.7501 58.57 93.6601 58.52 93.5901 58.53C93.4701 58.54 93.3902 58.62 93.3602 58.72C93.3402 58.73 93.3302 58.75 93.3202 58.77C93.3102 58.77 93.3001 58.77 93.2901 58.77C93.2701 58.78 93.2602 58.79 93.2502 58.8C93.2302 58.8 93.2102 58.81 93.1902 58.81C92.4602 58.93 91.8302 59.3 91.5202 59.94C91.4802 59.94 91.4402 59.96 91.4202 59.98C91.4102 59.99 91.4102 60 91.4102 60.01C91.4002 60.01 91.3901 60 91.3701 60C91.3501 59.98 91.3302 59.96 91.3002 59.95C91.0502 59.27 90.4402 58.84 89.7202 58.67C89.7102 58.64 89.6902 58.61 89.6602 58.6C89.6302 58.58 89.6102 58.57 89.5802 58.56C89.5502 58.48 89.4602 58.4 89.3702 58.4C89.3702 58.4 89.3702 58.4 89.3602 58.4C89.3002 58.39 89.2402 58.4 89.1902 58.43C89.1202 58.42 89.0602 58.44 89.0002 58.48C88.9602 58.49 88.9201 58.5 88.8801 58.53C88.8401 58.53 88.7902 58.54 88.7502 58.56C88.7102 58.54 88.6602 58.54 88.6202 58.56C88.6102 58.56 88.6002 58.58 88.6002 58.58C88.0002 58.62 87.4002 58.8 86.9002 59.11C86.8802 59.11 86.8602 59.1 86.8502 59.1C86.8002 59.11 86.7502 59.13 86.7102 59.16C86.6702 59.16 86.6402 59.17 86.6102 59.19C86.5602 59.19 86.5102 59.2 86.4702 59.23C86.4302 59.21 86.3902 59.21 86.3602 59.21C86.2902 59.23 86.2302 59.31 86.2102 59.37C86.2102 59.4 86.2102 59.42 86.2102 59.45C86.1702 59.53 86.1802 59.61 86.2202 59.69C85.6902 60.32 85.4602 61.2 85.8102 62.33C85.8102 62.34 85.8002 62.35 85.8002 62.35C85.8002 62.37 85.8102 62.39 85.8102 62.41C85.8102 62.41 85.8002 62.41 85.8002 62.42C85.7602 62.46 85.7402 62.52 85.7302 62.57C85.6702 62.65 85.6402 62.76 85.7202 62.84C85.7502 62.87 85.7802 62.88 85.8202 62.89C85.8302 62.91 85.8402 62.92 85.8602 62.94C85.8502 63.04 85.8902 63.16 86.0002 63.17C86.0202 63.17 86.0402 63.16 86.0502 63.16C86.0702 63.17 86.0802 63.17 86.1002 63.18C86.0602 63.25 86.0401 63.33 86.0901 63.39C86.1201 63.43 86.1802 63.45 86.2402 63.46C86.2602 63.52 86.3002 63.57 86.3502 63.58C86.3602 63.59 86.3701 63.6 86.3801 63.61C86.3901 63.62 86.3902 63.63 86.4002 63.64C86.4102 63.67 86.4202 63.71 86.4402 63.74C86.4602 63.76 86.4802 63.79 86.5102 63.81C86.4902 63.86 86.4902 63.92 86.5302 63.97C86.5602 64 86.6002 64.01 86.6502 64.02C86.6702 64.05 86.7002 64.09 86.7202 64.12C86.7302 64.18 86.7602 64.25 86.8202 64.27C86.8302 64.3 86.8502 64.33 86.8702 64.35C86.8702 64.35 86.8701 64.35 86.8801 64.35C86.8901 64.36 86.8902 64.37 86.9002 64.37C86.9202 64.43 86.9601 64.49 87.0201 64.51C87.0201 64.52 87.0302 64.52 87.0302 64.53C87.0402 64.54 87.0502 64.55 87.0602 64.56C87.0602 64.58 87.0702 64.61 87.0802 64.64C87.0702 64.71 87.0802 64.78 87.1402 64.82C87.1702 64.84 87.2002 64.85 87.2402 64.85C87.2502 64.88 87.2702 64.9 87.3002 64.91H87.3102C87.3102 64.94 87.3202 64.97 87.3502 64.99C87.3602 65 87.3701 65 87.3801 65C87.3801 65.09 87.4402 65.21 87.5402 65.22C87.5602 65.3 87.6202 65.36 87.6902 65.39C87.7002 65.4 87.7102 65.42 87.7202 65.43C87.7102 65.49 87.7202 65.55 87.7602 65.59C87.7602 65.65 87.7801 65.71 87.8401 65.74C87.8701 65.75 87.8902 65.76 87.9202 65.76C87.9402 65.8 87.9602 65.84 88.0102 65.85C88.0302 65.85 88.0602 65.85 88.0802 65.84C88.1002 65.88 88.1402 65.91 88.1802 65.93C88.1902 65.94 88.2002 65.96 88.2202 65.97C88.2502 66.05 88.3102 66.1 88.4002 66.13C88.4202 66.16 88.4502 66.18 88.4802 66.2C88.5002 66.21 88.5202 66.22 88.5502 66.22C88.5602 66.23 88.5702 66.24 88.5802 66.25C88.6002 66.33 88.6502 66.4 88.7302 66.42V66.43C88.7602 66.48 88.8302 66.52 88.8902 66.53C88.9102 66.54 88.9301 66.55 88.9501 66.56C88.9901 66.6 89.0302 66.62 89.0802 66.63C89.0902 66.64 89.0902 66.66 89.1002 66.67C89.1002 66.7 89.1102 66.73 89.1402 66.76C89.1802 66.79 89.2302 66.8 89.2802 66.81C89.3102 66.89 89.3702 66.96 89.4602 66.94C89.4602 66.94 89.4702 66.94 89.4702 66.93C89.4802 66.93 89.4902 66.94 89.5002 66.94C89.5102 67 89.5402 67.05 89.6002 67.06C89.6002 67.06 89.6002 67.06 89.6102 67.06C89.6502 67.1 89.6902 67.13 89.7402 67.15C89.7802 67.2 89.8402 67.24 89.9202 67.25C89.9502 67.28 89.9802 67.31 90.0302 67.32C90.0502 67.34 90.0702 67.35 90.1002 67.36C90.1202 67.41 90.1602 67.44 90.2102 67.45C90.2202 67.5 90.2402 67.54 90.2802 67.55C90.3202 67.62 90.3901 67.68 90.4801 67.7C90.4901 67.7 90.4902 67.7 90.5002 67.7C90.5202 67.75 90.5401 67.81 90.5901 67.84C90.6201 67.87 90.6702 67.89 90.7202 67.9C90.7402 68 90.8401 68.11 90.9501 68.08C90.9601 68.08 90.9602 68.08 90.9702 68.08C90.9902 68.11 91.0101 68.13 91.0401 68.13C91.0901 68.14 91.1401 68.1 91.2001 68.07C91.2901 68.1 91.4401 68.06 91.4501 67.95V67.94C91.4801 67.93 91.5002 67.91 91.5202 67.89C91.5402 67.88 91.5602 67.88 91.5802 67.87C91.6402 67.88 91.7102 67.88 91.7502 67.82C91.7602 67.8 91.7602 67.78 91.7702 67.75C91.7902 67.74 91.8001 67.74 91.8102 67.72C91.8202 67.71 91.8202 67.7 91.8202 67.69H91.8302C91.9102 67.7 92.0301 67.64 92.0602 67.56C92.0702 67.55 92.0801 67.54 92.0901 67.53C92.1001 67.52 92.1002 67.5 92.1102 67.49C92.1202 67.49 92.1401 67.48 92.1501 67.48C92.1701 67.47 92.1901 67.46 92.2001 67.44C92.2401 67.44 92.2902 67.42 92.3302 67.39C92.3702 67.39 92.4002 67.38 92.4202 67.34C92.4702 67.34 92.5202 67.33 92.5602 67.31C92.6202 67.31 92.6902 67.29 92.7202 67.23C92.7302 67.2 92.7402 67.17 92.7402 67.14C92.7902 67.12 92.8402 67.1 92.8902 67.06C92.9302 67.04 92.9602 67 92.9902 66.95C93.0002 66.94 93.0102 66.94 93.0202 66.93C93.0502 66.93 93.0802 66.92 93.1002 66.91C93.1502 66.89 93.2001 66.84 93.2301 66.79C93.2701 66.77 93.3001 66.75 93.3401 66.72L93.3502 66.71C93.4102 66.72 93.4801 66.71 93.5101 66.65C93.5301 66.62 93.5302 66.59 93.5302 66.55C93.5502 66.56 93.5702 66.56 93.6002 66.56C93.7002 66.56 93.8401 66.5 93.8401 66.38V66.37C93.8601 66.36 93.8702 66.36 93.8802 66.36C93.8802 66.36 93.8802 66.36 93.8902 66.36C93.9802 66.39 94.0902 66.38 94.1402 66.29C94.1502 66.26 94.1602 66.23 94.1602 66.19C94.1702 66.19 94.1801 66.19 94.1801 66.19C94.2301 66.17 94.2702 66.12 94.3102 66.06C94.3302 66.06 94.3402 66.05 94.3602 66.04C94.3902 66.01 94.4102 65.96 94.4202 65.91C94.4602 65.9 94.5001 65.88 94.5101 65.84C94.5201 65.82 94.5101 65.81 94.5101 65.79C94.5201 65.79 94.5301 65.79 94.5401 65.78C94.5601 65.77 94.5802 65.76 94.6002 65.74C94.6802 65.73 94.7702 65.68 94.8002 65.61C94.8402 65.59 94.8702 65.56 94.8802 65.51C94.8802 65.5 94.8701 65.48 94.8701 65.47C94.9201 65.44 94.9702 65.38 94.9702 65.33C94.9702 65.32 94.9602 65.3 94.9602 65.28C94.9602 65.27 94.9702 65.27 94.9702 65.26C94.9802 65.25 94.9902 65.24 95.0002 65.23C95.0402 65.21 95.0701 65.19 95.0901 65.15C95.1301 65.14 95.1602 65.11 95.1902 65.08C95.2702 65.06 95.3401 65.01 95.3401 64.93C95.3501 64.92 95.3601 64.92 95.3701 64.91C95.4201 64.87 95.4502 64.82 95.4902 64.76C95.4902 64.76 95.4902 64.75 95.5002 64.75H95.5101C95.5601 64.72 95.6202 64.66 95.6402 64.6C95.6502 64.59 95.6602 64.58 95.6602 64.57V64.56C95.7202 64.49 95.7902 64.42 95.8502 64.34C95.9202 64.32 95.9902 64.27 95.9902 64.2C96.0502 64.17 96.0902 64.11 96.1302 64.04C96.2302 64.02 96.3302 63.94 96.3102 63.83C96.3102 63.83 96.3102 63.83 96.3102 63.82C96.3202 63.82 96.3202 63.82 96.3202 63.82C96.3802 63.8 96.4501 63.74 96.4801 63.67C96.5101 63.65 96.5301 63.63 96.5401 63.61C96.5401 63.6 96.5401 63.59 96.5401 63.59C96.5501 63.57 96.5702 63.54 96.5802 63.52C96.6602 63.5 96.7602 63.44 96.7702 63.36C96.7702 63.34 96.7701 63.32 96.7601 63.3C96.7701 63.29 96.7702 63.28 96.7802 63.27C96.8002 63.22 96.8301 63.19 96.8401 63.15Z" fill="#00C113"/>
</svg>
