<svg width="164" height="164" viewBox="0 0 164 164" fill="none" xmlns="http://www.w3.org/2000/svg">
<path d="M38.19 30.32C37.84 29.96 37.08 29.8 36.62 29.96C35.61 30.3 35.14 31.29 35.36 32.27C35.31 32.4 35.27 32.54 35.26 32.69C34.99 33.02 34.88 33.41 34.92 33.79C34.75 33.88 34.59 33.99 34.51 34.14C34.44 34.26 34.42 34.43 34.42 34.59C34.27 34.76 34.14 34.95 34.09 35.13C34.07 35.22 34.05 35.31 34.04 35.4C33.83 35.49 33.65 35.62 33.53 35.78C33.28 36.13 33.26 36.73 33.4 37.18C33.18 37.36 32.98 37.57 32.89 37.79C32.77 38.07 32.7 38.35 32.69 38.62C32.35 39.01 32.21 39.74 32.36 40.2C32.42 40.39 32.52 40.56 32.62 40.72C32.29 40.97 32.04 41.51 32.07 41.9C32.08 41.97 32.09 42.03 32.11 42.1C32.07 42.13 32.03 42.16 32 42.19C31.59 42.59 31.3 43.34 31.5 43.92C31.5 44.21 31.56 44.48 31.69 44.71C31.65 44.73 31.6 44.73 31.56 44.75C31.15 45 30.85 45.68 30.9 46.15C30.93 46.47 31.05 46.74 31.2 46.98C31.16 47.16 31.15 47.34 31.18 47.53C31.09 47.6 31 47.69 30.92 47.78C30.53 48.25 30.36 49.21 31 49.58C31.37 49.79 31.84 49.72 32.38 49.63C32.87 49.58 33.52 49.14 33.61 48.63C33.65 48.4 33.57 48.12 33.43 47.87C33.44 47.81 33.45 47.75 33.46 47.69C34.03 47.47 34.54 46.99 34.42 46.35C34.37 46.08 34.21 45.84 34 45.62C34.01 45.61 34.01 45.59 34.02 45.58C34.46 45.42 34.82 45.09 34.83 44.6C34.83 44.46 34.8 44.32 34.75 44.18C34.95 44.01 35.11 43.81 35.18 43.58C35.25 43.33 35.21 43.02 35.11 42.72C35.21 42.55 35.26 42.36 35.23 42.14C35.2 41.95 35.1 41.78 34.98 41.61C35 41.57 35.02 41.52 35.03 41.48C35.51 41.32 36 40.93 36.2 40.44C36.28 40.34 36.35 40.23 36.4 40.1C36.56 39.65 36.45 39.15 36.26 38.59C36.44 38.35 36.57 38.07 36.62 37.78C37.02 37.38 37.27 36.82 37.06 36.3C37.07 36.02 36.98 35.75 36.83 35.45C37 35.28 37.14 35.06 37.2 34.82C37.4 34.5 37.39 34.09 37.36 33.61C37.43 33.51 37.5 33.41 37.58 33.31C37.6 33.29 37.61 33.26 37.62 33.24C37.86 32.98 38.06 32.64 38.26 32.24C38.58 31.76 38.63 30.78 38.19 30.32Z" fill="#494949"/>
<path d="M27.8201 57.52C26.9001 56.28 27.9601 53.04 31.1801 53.18C34.4001 53.32 34.1301 56.11 33.4201 57.52C32.8701 58.64 30.0601 60.53 27.8201 57.52Z" fill="#494949"/>
<path d="M87.99 108.07H75.75C66.09 108.07 57.27 102.39 54.59 94.12L46.4 68.87C41.88 54.93 52.05 40.78 67.96 40.78H95.78C111.7 40.78 121.86 54.93 117.34 68.87L109.15 94.12C106.47 102.4 97.64 108.07 87.99 108.07Z" fill="#FFEA62"/>
<path d="M119.26 69.57C119.22 69.2 118.99 68.88 118.7 68.56C118.71 68.52 118.71 68.49 118.72 68.45C118.73 68.41 118.73 68.35 118.73 68.31C118.98 68.1 119.16 67.81 119.12 67.45C119.1 67.2 118.99 66.98 118.82 66.76C119.16 66.28 119.3 65.62 118.86 65.17C118.79 65.09 118.7 65.04 118.61 64.99C118.7 64.89 118.77 64.77 118.8 64.61C118.87 64.26 118.73 63.91 118.53 63.52C118.71 63.31 118.81 63.05 118.73 62.76C119.04 62.49 119.23 62.11 119.11 61.68C119.06 61.49 118.94 61.32 118.8 61.17C118.84 61.12 118.89 61.07 118.93 61C119.21 60.49 119.09 59.85 118.94 59.12C118.94 59.1 118.93 59.09 118.93 59.07C119.21 58.54 119.31 57.78 119 57.32C118.95 57.24 118.87 57.17 118.79 57.1C119.16 56.58 119.34 55.69 119 55.17C118.94 55.08 118.85 55 118.76 54.92C118.77 54.61 118.7 54.3 118.53 54.09C118.38 53.91 118.13 53.78 117.86 53.7C117.92 53.44 117.91 53.17 117.76 52.91C117.49 52.46 116.95 52.25 116.32 52.02C116.28 51.96 116.23 51.9 116.19 51.83C116.15 51.76 116.08 51.69 116.01 51.63C116.03 51.32 115.97 50.98 115.83 50.71C115.83 50.51 115.77 50.32 115.63 50.14C115.45 49.9 115.17 49.75 114.85 49.64C114.85 49.44 114.82 49.24 114.72 49.08C114.55 48.8 114.17 48.59 113.81 48.51C113.96 48.09 113.95 47.63 113.62 47.28C113.41 47.06 113.13 46.95 112.8 46.88C112.73 46.45 112.52 46.01 112.19 45.82C112.06 45.74 111.9 45.71 111.73 45.69C111.59 45.45 111.39 45.23 111.16 45.08C111.11 45.01 111.06 44.95 111.01 44.9C111.09 44.28 110.9 43.48 110.42 43.15C110.12 42.94 109.64 42.89 109.22 42.95C108.79 42.72 108.13 42.71 107.73 42.92C107.6 42.99 107.49 43.07 107.38 43.15C107.35 43.14 107.3 43.14 107.27 43.13C107.24 43.08 107.23 43.03 107.2 42.99C107.14 42.92 107.05 42.86 106.96 42.81C106.9 42.51 106.79 42.24 106.59 42.05C106.18 41.65 105.31 41.51 104.79 41.71C104.62 41.77 104.47 41.86 104.33 41.95C104.28 41.89 104.23 41.83 104.17 41.77C103.76 41.25 102.78 40.83 102.14 41.1C102.11 41.11 102.08 41.15 102.04 41.17C102.03 41.17 102.02 41.16 102.01 41.16C101.72 40.95 101.29 40.84 100.97 40.89C100.89 40.83 100.82 40.77 100.74 40.71C100.3 40.32 99.4101 40.13 98.8601 40.41C98.8201 40.4 98.7801 40.38 98.7401 40.38C98.4901 40.06 98.1201 39.78 97.7501 39.79C97.7301 39.79 97.7101 39.8 97.7001 39.8C97.6601 39.78 97.6101 39.75 97.5701 39.73C97.2801 39.3 96.6901 38.94 96.2201 38.92C95.7801 38.9 95.3801 39 95.0401 39.19C94.6301 39 94.1501 38.93 93.7901 39.09C93.3501 38.79 92.6501 38.68 92.1901 38.84C91.8801 38.95 91.6201 39.11 91.4101 39.31C90.8101 38.99 90.1401 38.98 89.5401 39.24C89.4901 39.23 89.4401 39.22 89.3901 39.22C89.2301 39.11 89.0601 39.03 88.9001 38.99C88.1201 38.82 87.4101 39.07 86.9101 39.56H86.9001C86.6601 39.47 86.3901 39.42 86.0901 39.35C85.7501 39.25 85.2901 39.31 84.9101 39.49C84.3701 39.15 83.7301 39.1 83.1701 39.32C82.8201 39.02 82.3301 38.81 81.9301 38.81C81.6101 38.82 81.3201 38.88 81.0501 39C80.8101 38.97 80.5901 38.97 80.3701 39.01C80.1201 38.78 79.8301 38.6 79.5301 38.58C78.9701 38.53 78.2301 38.95 77.9301 39.43C77.7501 39.33 77.5001 39.3 77.2601 39.32C77.2301 39.3 77.2001 39.28 77.1701 39.26C76.7001 39.06 76.2201 39.05 75.7801 39.18C75.4101 38.9 74.9501 38.72 74.5501 38.81C74.5101 38.82 74.4601 38.85 74.4201 38.87C74.3401 38.86 74.2501 38.84 74.1801 38.85C73.5401 38.9 73.0201 39.2 72.6601 39.64C72.4901 39.64 72.3201 39.67 72.1501 39.73C71.9601 39.68 71.7601 39.69 71.5701 39.73C71.4801 39.61 71.3801 39.51 71.2501 39.45C70.9901 39.33 70.6101 39.36 70.3101 39.48C69.9801 39.37 69.6501 39.37 69.3601 39.45C69.2001 39.39 69.0201 39.33 68.8401 39.27C68.3101 39.06 67.4501 39.15 67.0101 39.57C66.4601 39.26 65.6701 39.14 65.1801 39.44C64.9801 39.56 64.8201 39.77 64.6901 40.01C64.4801 40.04 64.2801 40.1 64.1401 40.22C64.0201 40.32 63.9301 40.47 63.8501 40.64C63.6601 40.7 63.4901 40.8 63.3201 40.92C63.1601 40.93 63.0101 40.96 62.8601 41.02C62.7201 40.98 62.5801 40.95 62.4501 40.96C62.0201 40.98 61.6601 41.14 61.3801 41.38C61.2001 41.38 61.0301 41.41 60.8601 41.46C60.4201 41.27 59.7001 41.39 59.3301 41.68C59.2401 41.75 59.1701 41.83 59.1001 41.9C58.5801 41.95 58.0901 42.21 57.7401 42.64C57.6901 42.65 57.6401 42.64 57.5801 42.65C57.5101 42.61 57.4401 42.55 57.3601 42.53C57.2301 42.5 57.0901 42.5 56.9401 42.53C56.8801 42.49 56.8201 42.45 56.7601 42.42C56.2401 42.19 55.3701 42.37 54.9601 42.74C54.7401 42.94 54.5701 43.16 54.4501 43.4C54.2201 43.51 54.0201 43.67 53.9101 43.85C53.8701 43.92 53.8401 43.99 53.8101 44.06C53.7201 44.08 53.6401 44.12 53.5601 44.15C53.4601 44.12 53.3501 44.1 53.2501 44.1C52.7101 44.11 52.0501 44.61 51.8401 45.09C51.8201 45.13 51.8101 45.17 51.8001 45.21C51.6101 45.34 51.4301 45.48 51.3201 45.64C51.0701 46.02 50.9501 46.42 50.9501 46.82C50.7301 47.05 50.5701 47.34 50.4801 47.67C50.1101 47.77 49.7401 47.97 49.5401 48.22C49.2601 48.58 49.1101 48.97 49.0901 49.37C48.6201 49.49 48.1301 49.86 47.9401 50.25C47.7801 50.57 47.7201 50.9 47.7301 51.22C47.4901 51.3 47.2601 51.41 47.1101 51.55C46.6401 52 46.4501 52.58 46.4801 53.15C46.4201 53.21 46.3601 53.26 46.3001 53.33C46.2301 53.42 46.1601 53.53 46.1101 53.65C45.7701 53.76 45.4501 53.95 45.3201 54.23V54.24C44.8801 54.42 44.4801 54.72 44.3401 55.11C44.1901 55.52 44.2801 56.12 44.5101 56.55C44.4901 56.93 44.5701 57.35 44.7501 57.61C44.8601 57.77 44.9901 57.9 45.1301 58.01C45.1401 58.14 45.1601 58.28 45.1901 58.41C45.0801 58.73 45.0801 59.05 45.1701 59.34C45.1401 59.37 45.1101 59.4 45.0801 59.44C44.6601 59.96 44.4701 60.99 45.1001 61.45C44.8801 61.77 44.7601 62.16 44.7401 62.58C44.7401 62.63 44.7501 62.69 44.7501 62.74C44.3301 63.39 44.2001 64.49 44.9201 64.98C44.8101 65.36 44.8401 65.76 44.9701 66.12C44.8801 66.37 44.8501 66.63 44.8701 66.9C44.3601 67.49 44.0701 68.56 44.7801 69.12C44.8601 69.18 44.9601 69.22 45.0501 69.27C45.1701 69.55 45.3601 69.78 45.6001 69.95C45.6101 70.11 45.6401 70.27 45.7001 70.42C45.6201 70.82 45.7001 71.2 45.8801 71.52C45.7901 72.03 45.9301 72.54 46.2401 72.94C46.2801 73.38 46.4801 73.76 46.7901 74.05C46.8301 74.24 46.8901 74.41 46.9801 74.56L46.9701 74.57C46.6601 75.1 46.5901 76.03 47.1201 76.46C47.1601 76.59 47.2101 76.7 47.2801 76.8C47.0101 77.42 46.9901 78.22 47.6101 78.62C47.7801 78.73 47.9901 78.78 48.2001 78.81C48.2201 78.84 48.2501 78.88 48.2701 78.91C48.2401 79.42 48.4301 79.88 48.7701 80.21C48.7201 80.42 48.7201 80.67 48.7601 80.9C48.4701 81.5 48.4301 82.31 49.0401 82.7C49.1401 82.77 49.2601 82.81 49.3701 82.84C49.4401 82.98 49.5301 83.1 49.6401 83.21C49.6401 83.29 49.6401 83.38 49.6601 83.45C49.7501 83.82 49.9601 84.1 50.2201 84.3C50.2101 84.49 50.2301 84.68 50.2801 84.87C49.9201 85.44 49.7901 86.33 50.4201 86.75C50.5201 87.08 50.7101 87.35 50.9501 87.56C50.9501 87.56 50.9501 87.56 50.9501 87.57C51.0101 87.85 51.1401 88.09 51.3101 88.29C51.3001 88.33 51.2801 88.36 51.2701 88.4C51.1001 88.97 51.2401 89.84 51.8101 90.15C51.8401 90.32 51.9001 90.49 52.0001 90.62C51.9301 90.7 51.8701 90.78 51.8301 90.88C51.6001 91.38 51.7601 92.21 52.1001 92.62C52.2001 92.73 52.3001 92.84 52.4101 92.92C52.4201 93.11 52.4401 93.3 52.4901 93.49C52.6001 93.89 52.8801 94.32 53.2501 94.61C53.2501 94.63 53.2501 94.66 53.2501 94.68C53.3501 95.21 53.6401 95.63 54.0301 95.9C54.0401 95.93 54.0501 95.98 54.0601 96.01C54.1301 96.15 54.2201 96.27 54.3201 96.39C54.3201 96.42 54.3201 96.45 54.3301 96.48C54.5201 97.3 55.1001 97.85 55.8101 98.08C55.9601 98.46 56.2501 98.79 56.6601 98.82C56.7301 98.98 56.8301 99.14 56.9501 99.27C56.9701 99.41 56.9901 99.56 57.0401 99.7C57.1801 100.12 57.5601 100.57 58.0101 100.75C58.0001 100.89 58.0001 101.04 58.0201 101.19C58.0601 101.53 58.2201 101.91 58.4501 102.22C58.5001 102.68 58.7101 103.11 59.1801 103.3C59.4301 103.4 59.7001 103.41 59.9901 103.37C59.9001 104.09 60.1601 104.97 60.9401 105.12C61.0101 105.13 61.0701 105.12 61.1401 105.12C61.2001 105.19 61.2701 105.26 61.3701 105.31C61.6701 105.47 62.0301 105.45 62.4301 105.38C62.7101 105.61 63.0601 105.72 63.4201 105.73C63.4801 105.82 63.5601 105.9 63.6301 105.98C63.9401 106.28 64.4601 106.5 64.9201 106.44C65.0301 106.47 65.1401 106.49 65.2501 106.5C65.5901 107.08 66.3001 107.59 66.9701 107.32C67.3301 107.44 67.7101 107.46 68.1001 107.39C68.1901 107.42 68.2901 107.44 68.4001 107.44C68.5301 107.43 68.6501 107.38 68.7701 107.32C69.0601 107.56 69.4401 107.7 69.8501 107.72C69.9001 107.72 69.9501 107.72 70.0001 107.71C70.1501 107.81 70.3201 107.89 70.5001 107.95C70.6101 108.11 70.7401 108.26 70.8901 108.39C70.9801 108.46 71.0801 108.53 71.1801 108.59C71.4101 109.06 71.8001 109.42 72.3601 109.41C72.6101 109.41 72.8301 109.32 73.0601 109.2C73.3201 109.4 73.6401 109.5 73.9801 109.39C74.0601 109.37 74.1201 109.32 74.1901 109.29C74.3701 109.39 74.5601 109.47 74.7701 109.52C74.9401 109.56 75.1201 109.57 75.3201 109.56C75.4601 109.63 75.6101 109.7 75.7701 109.74C76.2001 109.86 76.7601 109.82 77.2001 109.59C77.2201 109.61 77.2401 109.63 77.2601 109.65C77.7801 110.06 78.7001 110.28 79.3201 109.92C79.8501 109.99 80.4601 109.88 80.8301 109.52C80.9001 109.47 80.9701 109.42 81.0401 109.37C81.0501 109.38 81.0601 109.38 81.0701 109.39C81.3701 109.52 81.7901 109.55 82.1501 109.45C82.5501 109.65 83.0401 109.69 83.3601 109.34C83.3701 109.33 83.3701 109.32 83.3801 109.32C83.4901 109.35 83.6001 109.36 83.7201 109.37C83.9701 109.48 84.2601 109.46 84.5701 109.4C84.6101 109.45 84.6501 109.51 84.7001 109.56C85.2701 110.14 86.4901 110.51 87.1301 109.78C87.3501 109.79 87.5801 109.76 87.7901 109.69C87.9701 109.75 88.1501 109.8 88.3401 109.83C88.7201 109.88 89.1901 109.79 89.5801 109.6C89.8301 109.6 90.0701 109.53 90.2701 109.34C90.5001 109.12 90.6101 108.82 90.6901 108.47C90.7301 108.46 90.7601 108.44 90.7901 108.43C90.9601 108.51 91.1301 108.58 91.3301 108.62C91.4301 108.64 91.5301 108.65 91.6401 108.65C91.9901 108.9 92.4101 109.01 92.8301 108.82C93.2301 108.65 93.4901 108.28 93.7401 107.82C93.9801 107.78 94.2201 107.69 94.4401 107.56C94.5101 107.52 94.5701 107.47 94.6401 107.41C95.0101 107.45 95.4201 107.35 95.6501 107.07C95.6801 107.07 95.7001 107.08 95.7301 107.08C95.7401 107.08 95.7401 107.08 95.7501 107.08C96.3801 107.58 97.5201 107.84 98.0501 107.06C98.0701 107.03 98.0801 106.98 98.1001 106.95C98.1901 106.94 98.2801 106.93 98.3701 106.91C98.5301 106.94 98.7001 106.95 98.8801 106.89C99.2801 106.76 99.5701 106.42 99.8601 105.99C100.03 105.98 100.2 105.95 100.37 105.9C100.92 106.17 101.63 106.21 102.02 105.68C102.13 105.53 102.18 105.36 102.22 105.17C102.6 105.11 102.93 104.91 103.07 104.52C103.15 104.3 103.14 104.06 103.08 103.81C103.33 103.69 103.53 103.51 103.65 103.29C104.16 103.15 104.63 102.78 104.65 102.24C105.04 102 105.4 101.56 105.48 101.09C105.78 101.06 106.07 100.93 106.25 100.64C106.41 100.39 106.44 100.1 106.44 99.77C106.84 99.6 107.25 99.24 107.41 98.8C107.47 98.73 107.53 98.66 107.57 98.56C107.84 98.52 108.09 98.4 108.26 98.14C108.41 97.93 108.47 97.68 108.48 97.4C108.99 97.22 109.49 96.83 109.61 96.36C109.64 96.24 109.64 96.1 109.63 95.97C109.65 95.94 109.67 95.91 109.7 95.88C109.89 95.65 110.02 95.31 110.08 94.96C110.53 94.89 110.94 94.66 111.1 94.19C111.2 93.87 111.15 93.53 111.04 93.16C111.31 92.94 111.52 92.65 111.56 92.35C111.56 92.34 111.56 92.33 111.56 92.33C112.13 91.85 112.54 91.06 112.12 90.38L112.11 90.37C112.17 90.17 112.21 89.94 112.21 89.71C112.52 89.27 112.68 88.67 112.43 88.21C113.01 87.87 113.55 87.04 113.27 86.35C113.27 86.13 113.25 85.9 113.22 85.66C113.46 85.39 113.65 85.01 113.67 84.65C113.69 84.63 113.71 84.61 113.73 84.59C113.91 84.51 114.07 84.38 114.18 84.19C114.4 83.83 114.39 83.39 114.33 82.89C114.5 82.75 114.62 82.56 114.65 82.31C114.66 82.18 114.64 82.04 114.6 81.91C114.68 81.81 114.75 81.71 114.83 81.6C115.02 81.37 115.15 81.03 115.22 80.68C115.54 80.36 115.78 79.93 115.75 79.54C115.74 79.36 115.66 79.18 115.56 79C115.61 78.88 115.64 78.75 115.66 78.6C116.02 78.25 116.3 77.68 116.24 77.21C116.37 76.98 116.46 76.69 116.49 76.38C116.68 76.19 116.81 75.96 116.84 75.73C116.86 75.58 116.82 75.4 116.76 75.23C117.08 74.89 117.23 74.38 117.39 73.79C117.52 73.42 117.5 72.88 117.34 72.44C117.45 72.25 117.54 72.03 117.63 71.79C117.71 71.62 117.74 71.39 117.74 71.17C117.79 71.13 117.84 71.08 117.88 71.02C118.66 70.86 119.35 70.34 119.26 69.57ZM83.0901 106.66C83.0801 106.66 83.0801 106.65 83.0701 106.64C82.7701 106.52 82.3401 106.59 82.0301 106.76C81.7801 106.57 81.4901 106.45 81.2301 106.48C81.1801 106.49 81.1201 106.51 81.0601 106.53C80.9801 106.51 80.9101 106.48 80.8401 106.47C80.6301 106.45 80.4301 106.47 80.2301 106.52C79.8601 106.17 79.3501 105.92 78.9101 105.99C78.8601 106 78.8001 106.03 78.7501 106.05C78.6501 106 78.5501 105.96 78.4401 105.95C77.9201 105.87 77.2201 106.21 76.8801 106.63C76.4801 106.28 75.9201 106.03 75.4601 106.15C75.1701 105.98 74.8401 105.88 74.5401 105.9C74.2101 105.58 73.7501 105.33 73.3601 105.31C73.1701 105.3 72.9901 105.32 72.8201 105.35C72.6201 105.14 72.3801 104.98 72.1301 104.93C71.8001 104.87 71.4001 104.99 71.0601 105.19C70.8101 105.07 70.5501 105.02 70.3201 105.07C70.0601 104.89 69.7201 104.77 69.4001 104.76C69.1001 104.49 68.6901 104.28 68.2301 104.07C68.1101 104 67.9701 103.96 67.8201 103.92C67.8001 103.91 67.8001 103.88 67.7801 103.87C67.3901 103.55 66.6101 103.49 66.1701 103.7C66.1401 103.71 66.1301 103.73 66.1001 103.74C65.9301 103.71 65.7401 103.69 65.5501 103.67C65.3801 103.41 65.1401 103.19 64.8801 103.12C64.5901 103.05 64.2201 103.14 63.9201 103.3C63.8701 103.28 63.8201 103.26 63.7601 103.24C63.7501 103.24 63.7401 103.24 63.7401 103.23C63.7701 103.09 63.7801 102.95 63.7601 102.82C63.6701 102.3 63.0901 101.73 62.6001 101.6C62.5801 101.59 62.5601 101.59 62.5401 101.59C62.5401 101.56 62.5501 101.54 62.5501 101.51C62.5601 100.97 62.1001 100.27 61.6301 100.02C61.6101 99.77 61.5601 99.54 61.4201 99.36C61.1701 99.02 60.6201 98.78 60.1501 98.75C60.0901 98.65 60.0101 98.57 59.9401 98.49C59.9201 98.13 59.8001 97.78 59.5701 97.57C59.4001 97.42 59.1401 97.33 58.8801 97.29C58.8601 97.26 58.8601 97.22 58.8401 97.19C58.7701 97.11 58.6801 97.04 58.5701 96.98C58.6701 96.73 58.7101 96.46 58.6201 96.17C58.4701 95.68 58.0301 95.34 57.5001 94.98C57.4901 94.95 57.4801 94.93 57.4701 94.9C57.3401 94.7 57.1501 94.55 56.9201 94.43C56.7501 94.03 56.3701 93.73 55.9201 93.4C55.9001 93.34 55.8801 93.28 55.8401 93.22C55.8301 93.2 55.8101 93.19 55.8001 93.17C56.0001 92.74 56.0601 92.12 55.8901 91.63C55.9701 91.24 55.9101 90.84 55.6101 90.53C55.3701 90.29 55.0401 90.17 54.6701 90.1C54.6101 90.03 54.5501 89.96 54.4801 89.89C54.5501 89.75 54.5901 89.61 54.5901 89.47C54.5801 89.3 54.5001 89.12 54.3801 88.96C54.5301 88.69 54.6001 88.39 54.5401 88.12C54.4901 87.89 54.3201 87.65 54.1101 87.46C54.1101 87.44 54.1101 87.42 54.1001 87.39C54.0801 87.31 54.0301 87.24 53.9901 87.17C54.0801 86.98 54.1301 86.76 54.0801 86.53C54.0201 86.23 53.8401 85.98 53.6001 85.73C53.6701 85.27 53.4001 84.63 53.0401 84.36C52.9401 84.28 52.8301 84.22 52.7301 84.16C52.7301 84.03 52.7101 83.9 52.6701 83.78C52.7401 83.61 52.7601 83.42 52.7001 83.22C52.6501 83.07 52.5601 82.94 52.4501 82.83C52.5401 82.64 52.5701 82.43 52.5001 82.2C52.4601 82.06 52.3801 81.94 52.2901 81.83C52.3201 81.77 52.3401 81.7 52.3601 81.63C52.4601 81.14 52.1501 80.43 51.7601 80.14C51.7101 80.11 51.6701 80.08 51.6201 80.06C51.6201 80.01 51.6401 79.96 51.6301 79.91C51.6001 79.78 51.5201 79.64 51.4201 79.52C51.3701 79.2 51.1901 78.88 50.9801 78.53C51.0801 78.3 51.1101 78.06 51.0201 77.82C51.0701 77.73 51.1201 77.63 51.1401 77.53C51.2501 77.01 50.9301 76.26 50.5201 75.95C50.5101 75.95 50.5101 75.94 50.5001 75.94C50.5301 75.66 50.4601 75.38 50.2601 75.16C50.2601 75.13 50.2701 75.1 50.2701 75.06C50.2801 74.59 49.8701 74 49.4601 73.8C49.4501 73.78 49.4301 73.75 49.4201 73.73C49.4301 73.7 49.4501 73.67 49.4501 73.63C49.5101 73.23 49.3201 72.84 49.0601 72.41C49.0401 72.12 48.9601 71.81 48.8701 71.47C48.8201 71.2 48.6501 70.89 48.4301 70.63C48.3501 70.48 48.2601 70.33 48.1701 70.17C48.1201 70.07 48.0301 69.96 47.9401 69.87C47.9501 69.82 47.9501 69.77 47.9501 69.72C48.0401 69.58 48.1001 69.42 48.1001 69.22C48.1001 69.1 48.0801 68.99 48.0401 68.88C48.2201 68.72 48.3601 68.54 48.4301 68.33C48.5801 67.86 48.3601 67.16 48.0201 66.78C48.0801 66.49 48.0701 66.16 48.0001 65.86C47.9901 65.67 47.9701 65.48 47.9401 65.28C47.9301 65.17 47.9101 65.05 47.8701 64.92C47.9301 64.79 47.9801 64.65 48.0101 64.51C48.3001 64.26 48.5201 63.94 48.5601 63.61C48.6001 63.26 48.4401 62.84 48.2101 62.5C48.3401 62.1 48.3601 61.67 48.1901 61.35C48.1201 61.23 48.0201 61.11 47.9001 61.01C48.0901 60.83 48.2201 60.61 48.2601 60.38C48.3201 60.01 48.1201 59.52 47.8501 59.21C47.8101 59.05 47.7501 58.87 47.6801 58.7C47.7301 58.49 47.7501 58.25 47.7801 58C48.2801 57.6 48.6901 56.86 48.4401 56.25C48.6201 55.89 48.7101 55.49 48.6301 55.12C48.9201 55.11 49.2001 55.01 49.4201 54.76C49.7501 54.39 49.8101 53.86 49.8401 53.24C49.8501 53.24 49.8501 53.23 49.8601 53.23C50.4301 53.26 51.0101 53.06 51.2401 52.5C51.3501 52.22 51.3401 51.91 51.2801 51.58C51.6601 51.57 52.0201 51.44 52.2501 51.1C52.5101 50.72 52.5201 50.22 52.4701 49.65C52.5001 49.59 52.5201 49.52 52.5401 49.45C52.7401 49.33 52.9401 49.19 53.1601 49.03C53.6601 49.06 54.1601 48.9 54.4201 48.43C54.5201 48.25 54.5601 48.05 54.5801 47.84C54.8601 47.72 55.1001 47.51 55.2101 47.19C55.3301 46.86 55.2801 46.49 55.1701 46.11H55.1801C55.7801 46.58 56.6901 46.83 57.2701 46.23C57.4201 46.07 57.5201 45.87 57.5901 45.66C57.8301 45.63 58.0501 45.52 58.2001 45.3C58.2401 45.24 58.2701 45.17 58.2901 45.1C58.7101 45.17 59.1801 45.05 59.7101 44.91C59.7701 44.9 59.8201 44.88 59.8801 44.86C60.3201 45.06 60.8201 45.09 61.1901 44.73C61.3301 44.6 61.4201 44.43 61.4901 44.24C61.5401 44.22 61.5901 44.2 61.6401 44.18C61.7901 44.25 61.9501 44.28 62.1301 44.26C62.5501 44.21 62.8901 43.9 63.2501 43.53C63.4601 43.47 63.6801 43.39 63.9201 43.29C63.9701 43.28 64.0101 43.24 64.0601 43.22C64.2201 43.22 64.3901 43.22 64.5701 43.21C64.8201 43.22 65.1201 43.13 65.3901 42.98C65.5701 43 65.7501 43 65.9301 42.97C65.9901 42.96 66.0601 42.94 66.1201 42.92C66.3501 42.98 66.5801 43.02 66.8301 43.01C67.3601 42.99 68.0101 42.72 68.3801 42.27C68.5601 42.29 68.7401 42.28 68.9201 42.25C69.3301 42.35 69.7501 42.17 70.2201 41.94C70.6101 42.22 71.1601 42.34 71.5201 41.98C71.5601 41.94 71.5801 41.89 71.6101 41.85C71.7201 41.85 71.8401 41.84 71.9701 41.84C72.0901 41.84 72.2201 41.82 72.3601 41.78C72.6001 42.43 73.1301 43.02 73.8701 42.91C74.2201 42.86 74.5101 42.66 74.8001 42.39C74.8201 42.4 74.8401 42.41 74.8601 42.41C74.9201 42.43 74.9901 42.44 75.0601 42.46C75.0801 42.47 75.1001 42.48 75.1201 42.49C75.6501 42.67 76.2301 42.46 76.9001 42.2C76.9301 42.19 76.9601 42.18 76.9901 42.16C77.3201 42.31 77.6901 42.34 77.9801 42.09L77.9901 42.08C78.0801 42.07 78.1701 42.06 78.2701 42.03C78.3901 42.16 78.5201 42.28 78.6701 42.39C79.1501 42.73 79.9301 42.9 80.5301 42.68C80.7601 42.86 81.0401 42.97 81.3701 42.94C81.8401 42.9 82.2301 42.6 82.6401 42.22C83.0301 42.35 83.5001 42.34 84.0301 42.32C84.3801 42.33 84.8201 42.18 85.1701 41.95C85.5801 42.16 86.0501 42.2 86.5001 42.07H86.5101C86.6901 42.43 86.9801 42.72 87.4201 42.78C87.9201 42.85 88.4101 42.61 88.9501 42.28C89.3901 42.48 89.9501 42.48 90.5901 42.45C90.8101 42.46 91.0601 42.4 91.3101 42.31C91.7201 42.81 92.3401 43.16 92.9701 42.88C93.3401 42.72 93.6001 42.38 93.8401 41.97C93.9801 42.07 94.1401 42.14 94.3101 42.2C94.5401 42.58 94.9001 42.86 95.3901 42.85C95.6801 42.84 95.9501 42.74 96.2101 42.57C96.4201 42.7 96.6701 42.76 96.9301 42.69C97.0501 42.66 97.1501 42.6 97.2501 42.53C97.3101 42.57 97.3601 42.61 97.4201 42.65C97.7301 42.82 98.1601 42.89 98.5501 42.81C98.9101 43.29 99.4701 43.57 100.1 43.6C100.36 43.9 100.72 44.09 101.12 43.97C101.25 43.93 101.37 43.86 101.47 43.78C101.52 43.82 101.57 43.85 101.63 43.88C101.65 43.89 101.67 43.89 101.68 43.9C102.03 44.34 102.56 44.64 103.17 44.71C103.32 44.73 103.47 44.72 103.63 44.7C103.98 45.43 104.82 46.12 105.64 45.73C105.82 45.65 105.96 45.52 106.09 45.37C106.19 45.38 106.3 45.37 106.41 45.33C106.49 45.3 106.57 45.25 106.64 45.2C106.72 45.24 106.79 45.29 106.87 45.31C106.88 45.35 106.89 45.39 106.91 45.43C107.14 45.97 107.76 46.53 108.39 46.54C108.7 46.81 109.08 47.02 109.47 47.03C109.57 47.25 109.71 47.45 109.9 47.62C109.93 47.88 110.01 48.13 110.15 48.38C110.16 48.39 110.16 48.4 110.17 48.41C110.22 48.67 110.32 48.92 110.46 49.1C110.77 49.48 111.17 49.69 111.59 49.77C111.68 49.88 111.79 49.97 111.9 50.05C111.89 50.14 111.88 50.23 111.89 50.32C111.9 50.71 112.09 51.16 112.39 51.47C112.39 51.48 112.4 51.49 112.4 51.49C112.64 51.86 112.96 52.11 113.33 52.24C113.36 52.34 113.39 52.45 113.44 52.55C113.56 52.83 113.81 53.11 114.11 53.3C114.11 53.54 114.15 53.77 114.23 53.95C114.49 54.48 114.92 54.81 115.42 54.96C115.53 55.12 115.67 55.24 115.82 55.34C115.82 55.45 115.83 55.55 115.84 55.66C115.71 55.97 115.64 56.31 115.66 56.67C115.67 56.97 115.78 57.32 115.95 57.62C115.74 57.99 115.63 58.42 115.66 58.88C115.66 58.91 115.67 58.94 115.67 58.96C115.55 59.53 115.68 60.11 116.01 60.6C115.79 60.93 115.67 61.4 115.74 61.73C115.8 62.03 115.92 62.28 116.09 62.5C116.07 62.63 116.07 62.76 116.09 62.87C116.11 62.94 116.15 62.99 116.17 63.06C116.13 63.13 116.09 63.2 116.07 63.27C115.94 63.73 116.02 64.16 116.23 64.52C116.19 64.65 116.17 64.78 116.18 64.92C115.97 65.04 115.8 65.21 115.71 65.4C115.54 65.76 115.62 66.31 115.82 66.69C115.81 66.76 115.79 66.84 115.79 66.9C115.79 67.2 115.87 67.47 116 67.71C115.63 68.04 115.35 68.62 115.37 69.06C115.38 69.34 115.45 69.61 115.55 69.84C115.46 70.08 115.47 70.39 115.56 70.66C115.38 70.95 115.3 71.27 115.33 71.62C115.3 71.67 115.25 71.71 115.22 71.77C114.34 72.31 114.06 73.31 114.37 74.22C114.34 74.31 114.32 74.41 114.3 74.51C114.15 74.62 114 74.76 113.88 74.92C113.74 75.12 113.63 75.38 113.58 75.65C113.36 75.99 113.25 76.4 113.26 76.83C113.12 77.04 113.01 77.27 112.94 77.53C112.91 77.64 112.9 77.77 112.9 77.89C112.79 78.11 112.73 78.34 112.71 78.59C112.52 78.77 112.36 78.99 112.24 79.23C112.13 79.46 112.06 79.75 112.05 80.04C111.91 80.35 111.85 80.7 111.86 81.07C111.84 81.12 111.81 81.18 111.8 81.23C111.79 81.27 111.79 81.31 111.79 81.35C111.73 81.4 111.67 81.45 111.63 81.51C111.29 81.99 111.2 82.53 111.3 83.04C111.19 83.27 111.12 83.53 111.15 83.73C111.16 83.81 111.18 83.88 111.2 83.96C111.07 84.1 110.97 84.27 110.89 84.45C110.83 84.5 110.76 84.55 110.71 84.61C110.48 84.91 110.35 85.24 110.32 85.58C110.1 85.69 109.92 85.84 109.81 86.03C109.56 86.47 109.62 87.24 109.9 87.65C109.91 87.66 109.92 87.67 109.93 87.68C109.55 87.83 109.21 88.09 109.08 88.42C109.01 88.61 109.01 88.86 109.05 89.1C108.99 89.21 108.94 89.32 108.9 89.44C108.69 89.53 108.51 89.65 108.38 89.82C108.03 90.27 108 91.16 108.25 91.65C108.26 91.66 108.26 91.67 108.27 91.68C108.25 91.73 108.23 91.78 108.21 91.83C108.11 91.94 108.04 92.06 107.99 92.18C107.81 92.61 107.8 93.04 107.9 93.43C107.44 93.66 107.11 94.05 106.94 94.51C106.73 94.62 106.53 94.76 106.36 94.94C106.23 95.08 106.11 95.25 106.01 95.44C106.01 95.44 106 95.45 105.99 95.45C105.76 95.74 105.63 96.06 105.59 96.38C105.47 96.48 105.37 96.59 105.3 96.7C105.26 96.78 105.23 96.85 105.2 96.93C104.86 96.96 104.52 97.08 104.33 97.31C104.18 97.48 104.1 97.72 104.06 97.98C104.02 98.02 103.98 98.05 103.95 98.09C103.71 98.41 103.59 98.76 103.58 99.11C103.47 99.23 103.37 99.35 103.3 99.49C102.83 99.52 102.34 99.69 102.11 100.03C102.02 100.17 101.97 100.35 101.94 100.54C101.67 100.81 101.47 101.25 101.47 101.58C101.47 101.66 101.48 101.73 101.49 101.8C101.45 101.83 101.42 101.86 101.38 101.89C101.03 101.97 100.66 102.23 100.46 102.54C100.2 102.63 99.9601 102.78 99.8101 102.96C99.7701 103 99.7501 103.05 99.7101 103.1C99.5601 103.08 99.4001 103.08 99.2401 103.1C99.0401 103.07 98.8501 103.06 98.6801 103.1C98.4301 103.16 98.2101 103.26 98.0201 103.39C97.5201 103.2 96.9201 103.16 96.5201 103.41C96.5001 103.42 96.4801 103.45 96.4601 103.46C96.0601 103.55 95.6601 103.76 95.4401 104.03C95.3401 104.15 95.2701 104.27 95.2001 104.4C95.0801 104.41 94.9701 104.43 94.8701 104.48C94.7801 104.53 94.6901 104.61 94.6101 104.7C94.5301 104.68 94.4401 104.66 94.3601 104.67C94.1501 104.69 93.9301 104.83 93.7501 105C93.7101 104.99 93.6701 104.98 93.6301 104.98C93.6201 104.98 93.6101 104.98 93.6001 104.98C93.1801 104.76 92.6001 104.7 92.2101 104.84C91.9201 104.94 91.6701 105.1 91.4701 105.28C91.2401 105.22 91.0001 105.2 90.7901 105.27C90.5201 105.36 90.2701 105.6 90.0901 105.88C89.6801 105.7 89.0501 105.79 88.6601 106.03C88.2301 105.84 87.7501 105.77 87.3801 105.93C87.2501 105.98 87.1301 106.07 87.0201 106.18C86.9101 106.14 86.7901 106.12 86.6801 106.11C86.5701 106.03 86.4501 105.96 86.3201 105.93C85.7801 105.78 84.9601 106.07 84.6001 106.49C84.5101 106.6 84.4301 106.71 84.3601 106.82C84.3001 106.84 84.2501 106.86 84.1901 106.89C83.9001 106.73 83.4701 106.6 83.0901 106.66Z" fill="#00C113"/>
<path d="M75.8301 113.33C75.8001 113.31 75.7701 113.3 75.7401 113.28C75.7101 113.23 75.6801 113.18 75.6501 113.13C75.8101 112.94 75.9301 112.71 75.9501 112.48C76.1301 112.33 76.2801 112.15 76.3401 111.94C76.4701 111.51 76.2801 110.9 75.9901 110.54C76.0601 110.35 76.0701 110.15 76.0001 109.95C76.2201 109.68 76.3701 109.35 76.3501 109.02C76.6201 108.69 76.8001 108.31 76.7701 107.94C76.7401 107.59 76.5101 107.21 76.2301 106.91C76.2301 106.74 76.2001 106.58 76.1401 106.44C75.9201 105.97 75.2201 105.57 74.7201 105.57C74.4701 105.57 74.2401 105.62 74.0201 105.69C73.6301 105.4 73.1301 105.22 72.7101 105.33C72.6601 105.34 72.6001 105.38 72.5501 105.41C72.3501 105.39 72.1601 105.4 72.0001 105.45C71.9001 105.48 71.8101 105.52 71.7201 105.57C71.5801 105.48 71.4301 105.41 71.2801 105.4C70.8801 105.35 70.3701 105.59 70.0601 105.9C70.0501 105.9 70.0401 105.9 70.0401 105.9C69.9701 105.84 69.9001 105.79 69.8301 105.73C69.3401 105.29 68.3001 105.05 67.7201 105.44C67.6401 105.5 67.5601 105.58 67.4901 105.67C67.4001 105.67 67.3001 105.67 67.2201 105.68C67.0301 105.64 66.8201 105.64 66.6101 105.69C66.1801 105.31 65.5701 105.05 65.0801 105.17C64.8501 105.23 64.6301 105.39 64.4201 105.58C63.9701 105.37 63.2901 105.38 62.8901 105.61C62.7101 105.72 62.5601 105.85 62.4201 105.99C62.0901 105.79 61.6501 105.68 61.3301 105.74C61.1701 105.77 61.0201 105.82 60.8801 105.89C60.3401 105.57 59.5001 105.44 59.0001 105.77C58.9101 105.83 58.8201 105.93 58.7401 106.03C58.3501 105.81 57.8101 105.72 57.4301 105.82C57.2601 105.87 57.1001 105.94 56.9501 106.02C56.4801 105.94 55.8701 106.11 55.5501 106.4C55.5101 106.44 55.4701 106.49 55.4301 106.53C55.3901 106.54 55.3401 106.55 55.3001 106.56L55.2901 106.55C54.7901 106.3 53.9401 106.42 53.5201 106.76C53.3501 106.89 53.2201 107.05 53.1001 107.21C52.9801 107.25 52.8801 107.3 52.7701 107.35C52.7001 107.34 52.6301 107.32 52.5701 107.32C51.9301 107.34 51.4101 107.64 51.0801 108.1C50.7101 108.1 50.3201 108.22 50.0501 108.44C50.0001 108.42 49.9601 108.39 49.9101 108.38C49.3701 108.22 48.5501 108.49 48.1801 108.89C48.1601 108.92 48.1401 108.95 48.1201 108.97C48.0601 108.99 48.0001 108.99 47.9401 109.01C47.6101 109.15 47.3501 109.37 47.1401 109.61C46.6801 109.67 46.1501 110.11 45.9901 110.53V110.54C45.7401 110.56 45.5101 110.64 45.3301 110.77C44.7901 110.72 44.1501 110.88 43.8601 111.27C43.6301 111.59 43.5801 112.14 43.6901 112.56C43.6901 112.57 43.6801 112.59 43.6701 112.6C43.6301 112.76 43.6201 112.91 43.6301 113.06C43.5001 113.14 43.3901 113.23 43.3101 113.35C43.1201 113.62 43.0801 114.06 43.1601 114.43C43.1401 114.48 43.1001 114.52 43.0901 114.57C42.9901 114.91 42.9901 115.24 43.0601 115.55C42.9801 115.65 42.9001 115.75 42.8301 115.87C42.6301 116.21 42.5301 116.71 42.6101 117.15C42.6001 117.2 42.6101 117.26 42.6101 117.31C42.5201 117.43 42.4501 117.56 42.4001 117.68C42.0501 118.72 42.5801 119.72 43.5301 120.14C43.5801 120.16 43.6301 120.18 43.6901 120.19C43.7801 120.31 43.9001 120.41 44.0701 120.46C44.1501 120.49 44.2301 120.49 44.3201 120.49C44.4001 120.7 44.5201 120.89 44.6701 121.07C44.6901 121.41 44.8301 121.72 45.1401 121.92C45.3701 122.06 45.6301 122.11 45.9201 122.12C46.1801 122.49 46.5701 122.76 47.0301 122.92C47.1201 123.22 47.2701 123.5 47.4501 123.68C47.7801 124 48.1601 124.19 48.5501 124.26C49.0401 124.78 49.7801 125.01 50.5301 124.88C50.7001 124.94 50.8801 124.98 51.0701 124.99C51.3501 125 51.6801 124.93 51.9701 124.77C52.1601 124.81 52.3701 124.8 52.5801 124.75C52.7001 124.84 52.8401 124.91 52.9801 124.95C53.1401 125.13 53.3401 125.27 53.6101 125.29C53.9901 125.33 54.3601 125.15 54.7501 124.91C55.0501 125.12 55.4301 125.21 55.7701 125.01C55.8901 124.94 55.9901 124.83 56.0701 124.71C56.3101 124.75 56.5601 124.74 56.7901 124.66C57.2001 124.86 57.6801 124.89 58.1301 124.71C58.1401 124.72 58.1601 124.73 58.1701 124.74C58.3001 124.81 58.4501 124.85 58.6101 124.88C58.9201 125.26 59.3701 125.52 59.8601 125.34C60.0701 125.26 60.2401 125.12 60.4001 124.94C60.5601 124.96 60.7201 124.97 60.8801 124.94C61.1201 125.14 61.4101 125.26 61.7501 125.19C62.0001 125.14 62.2101 125.01 62.4101 124.82C62.7701 124.89 63.1501 124.86 63.5101 124.74C64.0701 125.01 64.7901 125.06 65.2201 124.59C65.6101 124.62 66.0501 124.55 66.3801 124.34C66.5801 124.33 66.7701 124.27 66.9401 124.12C66.9501 124.11 66.9501 124.1 66.9601 124.1C67.0401 124.11 67.1301 124.1 67.2201 124.08C67.3301 124.05 67.4401 124 67.5301 123.93C67.7601 124.05 68.0101 124.14 68.2801 124.18C68.9701 124.29 69.9501 123.99 70.2501 123.29C70.5201 123.3 70.8001 123.25 71.0801 123.15C71.6401 122.93 72.2201 122.31 72.2201 121.67C72.2201 121.66 72.2301 121.66 72.2301 121.65C72.2501 121.65 72.2701 121.65 72.2901 121.64C72.9401 121.52 73.7201 120.9 73.6601 120.17C73.6701 120.16 73.6701 120.14 73.6801 120.13C74.1401 120.1 74.5801 119.9 74.7401 119.44C75.2701 119.33 75.7401 119.02 75.8201 118.45C75.8401 118.29 75.8201 118.14 75.7801 117.98C76.1901 117.67 76.4701 117.2 76.3101 116.68C76.2801 116.59 76.2301 116.5 76.1801 116.42C76.3001 116.24 76.3901 116.04 76.4001 115.84C76.4101 115.73 76.3801 115.6 76.3501 115.48C76.4701 115.32 76.5501 115.14 76.5801 114.95C76.6701 114.42 76.2801 113.64 75.8301 113.33Z" fill="#00C113"/>
<path d="M121.28 117.78C121.27 117.74 121.24 117.71 121.23 117.67C121.32 117.43 121.34 117.18 121.25 116.96C121.36 116.78 121.43 116.58 121.43 116.39C121.43 116.01 121.18 115.56 120.87 115.27C120.81 115.12 120.74 114.96 120.66 114.79C120.88 114.43 120.96 113.99 120.7 113.62C120.6 113.48 120.47 113.38 120.31 113.29C120.27 113.16 120.22 113.04 120.15 112.91C120.38 112.53 120.47 112.07 120.2 111.67C119.92 111.24 119.36 111.06 118.73 110.86C118.55 110.79 118.31 110.77 118.08 110.77C117.99 110.73 117.89 110.69 117.79 110.65C117.76 110.64 117.73 110.64 117.7 110.63C117.61 110.43 117.46 110.22 117.27 110.04C117.2 109.73 117.07 109.44 116.86 109.25C116.6 109.02 116.17 108.91 115.76 108.9C115.57 108.65 115.34 108.45 115.07 108.36C114.71 108.25 114.23 108.34 113.84 108.53C113.69 108.43 113.51 108.36 113.32 108.29C113.3 108.22 113.28 108.15 113.25 108.09C113.03 107.64 112.35 107.28 111.86 107.29C111.75 107.29 111.66 107.31 111.56 107.33C111.36 107.22 111.14 107.13 110.92 107.1C110.78 106.85 110.6 106.63 110.37 106.52C110 106.33 109.43 106.35 108.99 106.52C108.85 106.5 108.71 106.49 108.57 106.49C108.43 106.29 108.25 106.12 108.04 106.04C107.86 105.97 107.65 105.96 107.43 105.98C107.04 105.78 106.54 105.69 106.18 105.79C105.89 105.87 105.63 106 105.42 106.18C105.35 106.16 105.28 106.12 105.21 106.12C105.02 106.1 104.85 106.11 104.68 106.14C104.63 106.1 104.59 106.07 104.55 106.04C104.06 105.6 103.02 105.37 102.44 105.75C102.43 105.76 102.43 105.77 102.42 105.77C102.2 105.83 102.01 105.92 101.84 106.04C101.75 105.87 101.63 105.73 101.49 105.63C101.06 105.33 100.25 105.34 99.8001 105.59C99.6701 105.66 99.5601 105.75 99.4601 105.84C99.4101 105.83 99.3601 105.82 99.3101 105.81C98.8801 105.36 98.1901 105.02 97.6401 105.15C97.3501 105.22 97.0601 105.44 96.8301 105.71C96.7101 105.75 96.6001 105.8 96.5101 105.86C96.2901 105.74 96.0301 105.66 95.7501 105.65C95.2301 105.26 94.2801 105.07 93.7401 105.43C93.6501 105.49 93.5801 105.57 93.5001 105.66C93.3301 105.52 93.1401 105.42 92.9401 105.39C92.7801 105.37 92.5901 105.41 92.4101 105.47C92.0901 105.38 91.7501 105.37 91.4901 105.45C91.3701 105.49 91.2601 105.54 91.1601 105.59C90.8001 105.37 90.3801 105.25 90.0301 105.34C89.8701 105.38 89.7001 105.48 89.5501 105.61C88.7401 105.73 88.1401 106.3 87.9201 107.06C87.7501 107.24 87.6101 107.44 87.5001 107.67C87.1701 108.36 87.2001 109.51 87.9201 109.96C87.9201 109.97 87.9301 109.97 87.9301 109.98C87.9001 110.19 87.9201 110.4 87.9801 110.59C87.4901 111.13 87.2101 112.14 87.8801 112.66C87.9401 112.71 88.0101 112.73 88.0701 112.76C88.0901 112.82 88.1101 112.87 88.1301 112.92C88.1001 112.98 88.0701 113.05 88.0601 113.11C88.0301 113.28 88.0401 113.44 88.0601 113.59C87.9801 113.67 87.9001 113.74 87.8301 113.83C87.3901 114.38 87.1701 115.37 87.6101 115.99C87.5701 116.3 87.6101 116.61 87.7301 116.88C87.7301 116.9 87.7301 116.92 87.7301 116.94C87.8201 117.32 88.0001 117.63 88.2501 117.87C88.3701 118.54 88.8401 119.08 89.4901 119.35C89.6301 119.55 89.8001 119.72 90.0101 119.86C90.0201 119.92 90.0301 119.99 90.0501 120.05C90.1601 120.42 90.4401 120.81 90.8001 121.04C91.0101 121.29 91.2701 121.47 91.5701 121.58C91.6401 121.68 91.7301 121.74 91.8101 121.82C91.8301 121.97 91.8601 122.12 91.9201 122.24C92.2001 122.82 92.6901 123.16 93.2401 123.28C93.3601 123.5 93.5401 123.67 93.8001 123.73C94.0201 123.78 94.2401 123.76 94.4701 123.68C94.7901 123.95 95.1801 124.13 95.6301 124.2C95.9301 124.25 96.2901 124.21 96.6201 124.11C96.6601 124.11 96.6901 124.11 96.7201 124.1C96.8301 124.07 96.9301 124.02 97.0201 123.96C97.3301 124.24 97.7701 124.43 98.1701 124.35C98.3101 124.43 98.4501 124.49 98.6001 124.54C98.7901 124.6 99.0001 124.63 99.2201 124.62C99.6701 124.92 100.32 125.08 100.82 124.87C100.91 124.87 100.99 124.88 101.08 124.87C101.33 125.12 101.65 125.27 102.02 125.2C102.23 125.16 102.42 125.05 102.59 124.9C102.81 124.96 103.04 124.98 103.26 124.95C103.56 125.29 103.99 125.51 104.45 125.35C104.71 125.26 104.91 125.06 105.09 124.81C105.41 124.92 105.81 124.94 106.12 124.8C106.44 124.86 106.78 124.85 107.11 124.71C107.12 124.71 107.12 124.7 107.13 124.7C107.35 124.75 107.57 124.75 107.79 124.69C108.02 124.94 108.33 125.12 108.65 125.12C108.78 125.21 108.92 125.27 109.09 125.29C109.52 125.33 109.92 125.11 110.36 124.82C110.72 125.03 111.17 125.1 111.49 124.79C111.52 124.76 111.54 124.72 111.57 124.69C111.63 124.71 111.7 124.74 111.76 124.75C111.93 124.79 112.12 124.79 112.32 124.76C112.55 124.88 112.82 124.96 113.1 124.97C113.3 124.98 113.52 124.94 113.73 124.87C113.98 124.91 114.24 124.91 114.5 124.86C115.02 124.77 115.62 124.4 115.9 123.89C115.99 123.83 116.09 123.76 116.18 123.69C116.38 123.52 116.55 123.28 116.68 123.02C117.46 123.08 118.44 122.71 118.52 121.84C118.52 121.81 118.51 121.78 118.51 121.75C118.56 121.72 118.6 121.7 118.64 121.66C118.9 121.64 119.15 121.54 119.33 121.32C119.57 121.03 119.63 120.63 119.65 120.18C119.66 120.18 119.67 120.17 119.67 120.17C120.38 120.4 121.44 120.26 121.66 119.42C121.81 118.93 121.56 118.4 121.28 117.78Z" fill="#00C113"/>
<path d="M67.1101 67.4C65.8501 66.08 66.6301 62.11 70.4401 61.81C74.2501 61.51 74.3301 64.83 73.7001 66.6C73.2001 67.99 70.1801 70.62 67.1101 67.4Z" fill="#494949"/>
<path d="M87.98 66.9099C86.76 65.5499 88.12 61.0399 91.88 61.6999C94.93 62.2299 94.89 64.1899 94.44 65.9399C93.97 67.7299 90.98 70.2699 87.98 66.9099Z" fill="#494949"/>
<path d="M95.1702 97.5C94.7902 97.19 94.0002 97.06 93.5902 97.36C93.2602 97.6 93.0602 98.2 93.1402 98.59C93.3102 99.45 94.0902 99.94 94.9202 99.84C95.5302 99.77 96.3202 99.21 96.1202 98.49C96.0102 98.09 95.6302 97.82 95.1702 97.5Z" fill="#00C113"/>
<path d="M94.6302 98.57C94.9202 98.23 95.0602 97.53 94.8002 97.15C94.5902 96.85 94.0602 96.65 93.7002 96.71C92.9102 96.84 92.4602 97.53 92.5202 98.28C92.5702 98.83 93.0502 99.56 93.7102 99.4C94.0702 99.31 94.3302 98.97 94.6302 98.57Z" fill="#00C113"/>
<path d="M94.4202 97.05C94.4002 96.39 93.8602 95.46 93.1802 95.3C92.6402 95.17 91.8502 95.49 91.5202 95.91C90.7802 96.84 90.9602 98.0599 91.7902 98.8399C92.3902 99.4099 93.6702 99.7299 94.2302 98.8999C94.5502 98.4299 94.4902 97.79 94.4202 97.05Z" fill="#00C113"/>
<path d="M93.0601 96.48C92.9601 95.96 92.4201 95.3 91.8701 95.26C91.4301 95.23 90.8501 95.57 90.6401 95.95C90.1701 96.78 90.4601 97.72 91.2101 98.22C91.7501 98.59 92.8001 98.69 93.1401 97.97C93.3301 97.54 93.2001 97.05 93.0601 96.48Z" fill="#00C113"/>
<path d="M91.78 96.15C91.62 95.7 91.04 95.19 90.53 95.23C90.13 95.27 89.66 95.66 89.53 96.03C89.24 96.84 89.64 97.63 90.38 97.97C90.92 98.22 91.87 98.15 92.06 97.45C92.18 97.06 92 96.64 91.78 96.15Z" fill="#00C113"/>
<path d="M91 97.25C91.35 96.77 91.47 95.81 91.07 95.32C90.76 94.94 90.02 94.73 89.55 94.85C88.51 95.11 87.97 96.08 88.14 97.09C88.26 97.83 88.99 98.76 89.85 98.47C90.34 98.3 90.65 97.81 91 97.25Z" fill="#00C113"/>
<path d="M90.02 95.53C89.78 94.91 88.97 94.23 88.28 94.3C87.73 94.36 87.1 94.92 86.93 95.43C86.55 96.55 87.12 97.64 88.15 98.09C88.9 98.42 90.21 98.3 90.46 97.33C90.6 96.77 90.33 96.19 90.02 95.53Z" fill="#00C113"/>
<path d="M88.2702 97.02C88.6402 96.77 88.9702 96.13 88.8202 95.69C88.7002 95.34 88.2302 95.01 87.8702 94.97C87.0702 94.89 86.4502 95.43 86.3002 96.18C86.2002 96.73 86.4702 97.57 87.1502 97.59C87.5402 97.59 87.8802 97.33 88.2702 97.02Z" fill="#00C113"/>
<path d="M87.7401 95.07C87.4601 94.5 86.6201 93.91 85.9601 94.04C85.4401 94.14 84.8801 94.74 84.7501 95.24C84.4801 96.35 85.1201 97.34 86.1501 97.69C86.9001 97.94 88.1401 97.72 88.3001 96.77C88.4001 96.22 88.1001 95.68 87.7401 95.07Z" fill="#00C113"/>
<path d="M85.9901 96.89C86.4401 96.71 86.9401 96.1 86.8801 95.59C86.8301 95.19 86.4101 94.73 86.0301 94.6C85.2001 94.33 84.4101 94.77 84.0801 95.53C83.8501 96.09 83.9501 97.05 84.6701 97.22C85.0801 97.33 85.5001 97.13 85.9901 96.89Z" fill="#00C113"/>
<path d="M84.26 93.88C83.58 93.77 82.54 94.15 82.24 94.81C82.01 95.33 82.18 96.2 82.55 96.62C83.36 97.55 84.64 97.6 85.58 96.9C86.27 96.39 86.84 95.16 86.1 94.42C85.69 94.01 85.03 93.95 84.26 93.88Z" fill="#00C113"/>
<path d="M84.6902 94.85C84.5502 94.23 83.8702 93.47 83.2002 93.45C82.6702 93.43 81.9902 93.88 81.7602 94.34C81.2402 95.35 81.6402 96.46 82.5602 97.03C83.2302 97.45 84.4802 97.51 84.8602 96.63C85.0702 96.11 84.9002 95.52 84.6902 94.85Z" fill="#00C113"/>
<path d="M83.5902 95.78C83.8802 95.24 83.8702 94.26 83.4002 93.82C83.0302 93.47 82.2602 93.37 81.8002 93.55C80.7902 93.96 80.3702 95.01 80.6802 96C80.9002 96.73 81.7702 97.57 82.6002 97.16C83.0702 96.93 83.3102 96.4 83.5902 95.78Z" fill="#00C113"/>
<path d="M81.5801 93.77C80.9801 93.46 79.8901 93.49 79.4201 94.01C79.0401 94.43 78.9401 95.28 79.1501 95.79C79.6201 96.91 80.7901 97.35 81.8801 96.99C82.6801 96.73 83.6001 95.76 83.1301 94.85C82.8701 94.33 82.2701 94.07 81.5801 93.77Z" fill="#00C113"/>
<path d="M80.4602 97.1C81.0702 97.01 81.8702 96.4 81.9402 95.75C82.0002 95.24 81.6102 94.54 81.1802 94.28C80.2302 93.7 79.1202 94.01 78.5002 94.86C78.0402 95.48 77.8902 96.7 78.7302 97.13C79.2002 97.38 79.7902 97.25 80.4602 97.1Z" fill="#00C113"/>
<path d="M79.2801 97.22C79.8601 97.17 80.6301 96.64 80.7301 96.04C80.8101 95.56 80.4901 94.89 80.1001 94.63C79.2401 94.04 78.1901 94.27 77.5601 95.03C77.1001 95.59 76.8901 96.72 77.6501 97.16C78.0901 97.41 78.6401 97.32 79.2801 97.22Z" fill="#00C113"/>
<path d="M79.1101 95.21C78.8901 94.67 78.1601 94.07 77.5501 94.14C77.0701 94.2 76.5101 94.7 76.3601 95.16C76.0401 96.16 76.5601 97.11 77.4801 97.5C78.1501 97.78 79.3001 97.66 79.5201 96.8C79.6401 96.3 79.4001 95.79 79.1101 95.21Z" fill="#00C113"/>
<path d="M78.12 95.85C78.08 95.31 77.61 94.56 77.05 94.45C76.6 94.36 75.96 94.65 75.7 95.01C75.12 95.8 75.31 96.8 76.01 97.41C76.52 97.86 77.58 98.09 78.02 97.38C78.27 96.98 78.2 96.46 78.12 95.85Z" fill="#00C113"/>
<path d="M76.4301 97.75C77.0101 97.55 77.6801 96.81 77.6401 96.17C77.6001 95.66 77.1001 95.04 76.6301 94.86C75.6001 94.46 74.5601 94.96 74.1001 95.91C73.7701 96.6 73.8301 97.82 74.7301 98.09C75.2501 98.25 75.8001 98.02 76.4301 97.75Z" fill="#00C113"/>
<path d="M76.2402 97.03C76.5302 96.43 76.4702 95.36 75.9402 94.91C75.5202 94.55 74.6702 94.47 74.1802 94.69C73.1002 95.18 72.7002 96.35 73.0702 97.41C73.3502 98.19 74.3302 99.06 75.2102 98.58C75.7202 98.31 75.9602 97.72 76.2402 97.03Z" fill="#00C113"/>
<path d="M75.21 96.46C75.2 95.8 74.68 94.86 74.01 94.69C73.48 94.55 72.68 94.85 72.34 95.27C71.58 96.19 71.74 97.41 72.55 98.2C73.14 98.78 74.41 99.13 74.99 98.31C75.31 97.83 75.27 97.19 75.21 96.46Z" fill="#00C113"/>
<path d="M72.58 95.44C72.01 95.3 71.1 95.55 70.81 96.09C70.58 96.52 70.67 97.26 70.95 97.64C71.57 98.48 72.65 98.61 73.5 98.09C74.12 97.71 74.69 96.7 74.11 96.03C73.78 95.65 73.23 95.55 72.58 95.44Z" fill="#00C113"/>
<path d="M73.04 97.39C73.12 96.81 72.79 95.91 72.21 95.67C71.76 95.48 71.01 95.64 70.66 95.96C69.87 96.67 69.84 97.77 70.45 98.57C70.9 99.16 71.97 99.64 72.59 98.99C72.95 98.62 72.99 98.05 73.04 97.39Z" fill="#00C113"/>
<path d="M71.47 97.2C71.18 96.84 70.48 96.55 70.03 96.75C69.68 96.91 69.37 97.43 69.36 97.81C69.35 98.65 69.97 99.26 70.76 99.34C71.34 99.4 72.19 99.04 72.15 98.33C72.13 97.92 71.82 97.58 71.47 97.2Z" fill="#00C113"/>
<path d="M71.0501 98.5C71.0201 98.01 70.6001 97.33 70.1001 97.23C69.7001 97.15 69.1201 97.4 68.8801 97.72C68.3501 98.43 68.5101 99.33 69.1301 99.89C69.5901 100.3 70.5401 100.52 70.9401 99.89C71.1701 99.52 71.1201 99.04 71.0501 98.5Z" fill="#00C113"/>
<path d="M73.4703 74.0399C72.7403 75.3199 75.7903 80.5599 80.2703 80.5799C83.0603 80.5899 84.6303 79.8899 86.3203 79.0599C87.7703 78.3399 88.7803 76.1899 89.3803 74.6899C89.9803 73.1899 86.4603 71.4699 81.2703 71.8499C76.3403 72.1999 74.6503 71.9799 73.4703 74.0399Z" fill="#FFEA62"/>
<path d="M90.1301 74C90.0201 73.82 89.7701 73.69 89.5401 73.65C89.5701 73.54 89.5801 73.44 89.5501 73.34C89.4801 73.05 89.1401 72.74 88.8601 72.68C88.8001 72.67 88.7501 72.68 88.7001 72.68C88.6201 72.49 88.4901 72.32 88.3201 72.27C88.3001 72.26 88.2801 72.27 88.2601 72.26C88.2001 72.2 88.1301 72.15 88.0701 72.11C87.9601 71.98 87.8201 71.85 87.6701 71.71C87.4001 71.43 86.8201 71.25 86.4601 71.44C86.2901 71.26 86.0801 71.13 85.8701 71.12C85.7201 71.11 85.5401 71.17 85.3801 71.26C85.2401 71.25 85.1101 71.27 85.0001 71.31C84.9401 71.33 84.9101 71.38 84.8601 71.41C84.7001 71.38 84.5501 71.38 84.3901 71.42C84.3001 71.33 84.2001 71.26 84.0901 71.25C83.9801 71.23 83.8401 71.26 83.7101 71.32C83.7001 71.32 83.6901 71.31 83.6801 71.31C83.5701 71.29 83.4601 71.29 83.3601 71.31C83.2901 71.26 83.2301 71.23 83.1601 71.21C82.9601 71.15 82.7701 71.17 82.5901 71.23C82.4901 71.19 82.4001 71.16 82.2901 71.12C82.1701 71.07 82.0101 71.07 81.8501 71.08C81.8201 71.07 81.8001 71.06 81.7701 71.04C81.6701 70.99 81.5401 70.96 81.4101 70.95C81.1701 70.74 80.8401 70.6 80.5701 70.66C80.4401 70.69 80.3101 70.78 80.2001 70.88C79.9701 70.93 79.7701 71.03 79.6101 71.19C79.5901 71.18 79.5701 71.16 79.5501 71.16C79.1401 71.01 78.7501 71.12 78.4501 71.37C78.4201 71.37 78.3801 71.36 78.3501 71.37C78.3401 71.36 78.3301 71.35 78.3101 71.35C78.1101 71.27 77.9201 71.27 77.7401 71.3C77.5101 71.18 77.1701 71.15 76.9501 71.24C76.8301 71.29 76.7401 71.36 76.6601 71.44C76.5001 71.39 76.3101 71.38 76.1301 71.42C76.0701 71.41 76.0001 71.4 75.9301 71.4C75.7301 71.37 75.4701 71.42 75.2401 71.53C75.2101 71.53 75.1701 71.52 75.1401 71.53C74.9701 71.56 74.8001 71.69 74.6601 71.84C74.3601 71.91 74.0301 72.2 73.9301 72.48C73.9101 72.54 73.9201 72.59 73.9101 72.64C73.7901 72.74 73.7001 72.86 73.6401 72.99C73.3701 72.88 73.0601 72.85 72.8401 72.97C72.5501 73.12 72.3301 73.57 72.3501 73.89C72.3701 74.29 72.5701 74.59 72.8501 74.8C72.8501 74.81 72.8501 74.82 72.8501 74.83C72.8601 74.98 72.9101 75.15 73.0001 75.3C72.8901 75.59 72.9301 76 73.0901 76.24C73.1901 76.39 73.3101 76.5 73.4401 76.59C73.4401 76.7 73.4601 76.8 73.5101 76.89C73.3901 77.32 73.4701 77.88 73.9401 78.03C73.9501 78.03 73.9601 78.03 73.9701 78.04C74.1001 78.23 74.2901 78.37 74.5101 78.47C74.5401 78.51 74.5701 78.56 74.6201 78.59C74.6601 78.62 74.7101 78.63 74.7501 78.64C74.7901 78.92 74.9201 79.19 75.2201 79.27C75.4301 79.33 75.6501 79.28 75.8901 79.19C75.9301 79.22 75.9601 79.27 76.0101 79.29C76.1001 79.35 76.2201 79.39 76.3401 79.41C76.4501 79.5 76.5801 79.56 76.7201 79.59C76.8701 79.92 77.2101 80.23 77.5801 80.09C77.5901 80.09 77.6001 80.08 77.6101 80.07C77.6901 80.12 77.7801 80.14 77.8701 80.17C77.8901 80.19 77.8901 80.21 77.9101 80.22C78.0501 80.33 78.2501 80.34 78.4701 80.33C78.5301 80.4 78.6001 80.46 78.6801 80.5C78.8301 80.89 79.1701 81.18 79.6001 81.28C79.7301 81.31 79.8701 81.31 80.0201 81.29C80.0801 81.3 80.1401 81.32 80.2001 81.32C80.3301 81.45 80.5001 81.54 80.7001 81.51C80.8501 81.49 80.9801 81.42 81.1001 81.31C81.3601 81.46 81.6701 81.5 81.9101 81.3C82.0001 81.22 82.0601 81.12 82.1101 81C82.3901 81.06 82.6901 80.93 83.0301 80.78C83.1601 80.73 83.2801 80.63 83.4001 80.52C83.4101 80.52 83.4101 80.52 83.4201 80.51C83.6001 80.59 83.7901 80.65 84.0101 80.64C84.3201 80.63 84.7001 80.45 84.8701 80.16C84.9101 80.14 84.9501 80.12 84.9901 80.1C84.9901 80.1 85.0001 80.1 85.0001 80.11C85.1701 80.14 85.3801 80.11 85.5501 80.02C85.8601 80.1 86.2701 80.03 86.4101 79.72C86.4201 79.72 86.4401 79.72 86.4501 79.71C86.4701 79.7 86.5001 79.71 86.5201 79.7H86.5301C86.7001 79.66 86.8801 79.58 87.0701 79.5C87.4101 79.38 87.7801 78.98 87.8001 78.6C87.9701 78.45 88.0701 78.22 88.1501 77.95C88.4501 77.85 88.7701 77.56 88.8501 77.23C89.0601 77.03 89.2201 76.68 89.2301 76.35C89.2801 76.33 89.3201 76.32 89.3601 76.29C89.5501 76.29 89.7301 76.22 89.8701 76.07C90.0901 75.82 90.1001 75.44 90.1101 75.01C90.1101 74.96 90.1001 74.9 90.1001 74.84C90.2201 74.57 90.2701 74.22 90.1301 74ZM84.7101 78.59C84.6201 78.62 84.5301 78.7 84.4501 78.79C84.3301 78.75 84.2001 78.74 84.1001 78.78C83.8101 78.63 83.4201 78.58 83.1701 78.74C83.0501 78.81 82.9501 78.95 82.8801 79.1C82.5701 79.06 82.2801 79.14 82.0501 79.33C82.0201 79.33 81.9801 79.34 81.9501 79.35C81.9401 79.34 81.9301 79.32 81.9101 79.31C81.6601 79.17 81.2101 79.21 80.9801 79.38C80.9201 79.43 80.8801 79.49 80.8301 79.54C80.6801 79.56 80.5501 79.61 80.4301 79.68C80.4101 79.65 80.3901 79.62 80.3701 79.59C80.1601 79.27 79.6201 78.97 79.2401 79.1C79.1801 79.12 79.1301 79.16 79.0801 79.19C78.9601 79.1 78.8301 79.05 78.7001 79.04C78.6601 78.98 78.6201 78.92 78.5701 78.86C78.5001 78.75 78.3801 78.66 78.2401 78.58C78.2201 78.52 78.1901 78.46 78.1501 78.41C77.9901 78.23 77.6401 78.15 77.4001 78.2C77.3701 78.18 77.3401 78.15 77.3101 78.13C77.2201 78.05 77.0801 77.99 76.9301 77.95C76.8901 77.89 76.8501 77.83 76.7901 77.77C76.6701 77.58 76.4901 77.4 76.3201 77.34C76.1401 77.28 75.9701 77.27 75.8101 77.28C75.7901 77.25 75.7801 77.22 75.7601 77.18C75.8101 77.07 75.8401 76.96 75.8401 76.85C75.8301 76.56 75.5801 76.21 75.3101 76.06C75.4501 75.79 75.4901 75.47 75.2901 75.21C75.1501 75.04 74.9501 74.95 74.7101 74.88C74.6701 74.84 74.6301 74.79 74.5801 74.75C74.6001 74.69 74.6201 74.64 74.6301 74.58C74.6701 74.52 74.7001 74.45 74.7201 74.38C74.8201 74.31 74.9101 74.22 74.9801 74.11C75.3801 74.17 75.8501 74.05 76.0101 73.66C76.2801 73.58 76.5101 73.41 76.5601 73.11C76.5601 73.09 76.5601 73.06 76.5601 73.04H76.5701C76.5901 73.04 76.6201 73.03 76.6401 73.03C76.8601 73.26 77.1801 73.41 77.4801 73.25C77.5601 73.21 77.6301 73.14 77.6901 73.07C77.8501 73.04 78.0101 72.97 78.1901 72.9C78.2101 72.89 78.2301 72.88 78.2501 72.87C78.3201 72.95 78.4001 73.01 78.5201 73.04C78.8101 73.12 79.1201 72.98 79.4801 72.82C79.6301 73.03 79.8401 73.17 80.1101 73.15C80.3201 73.13 80.5101 73.02 80.7001 72.86C80.7301 72.87 80.7501 72.89 80.7701 72.9C81.1001 73 81.5601 72.95 81.8401 72.71C81.9101 72.73 81.9801 72.73 82.0401 72.73C82.1101 72.82 82.2101 72.89 82.3401 72.92C82.5001 72.95 82.6601 72.91 82.8401 72.84C82.9101 72.89 82.9801 72.93 83.0701 72.95C83.2501 72.97 83.4301 72.9 83.6101 72.79C83.6201 72.8 83.6201 72.8 83.6301 72.81C83.6701 72.84 83.7301 72.87 83.7801 72.89C83.9801 73.05 84.2701 73.06 84.6001 73.06C84.8301 73.34 85.1901 73.54 85.5301 73.36C85.5301 73.36 85.5301 73.36 85.5401 73.35C85.8701 73.52 86.3301 73.56 86.6401 73.34C86.8201 73.44 87.0301 73.51 87.2501 73.51C87.3001 73.51 87.3501 73.5 87.4001 73.5C87.4201 73.55 87.4601 73.6 87.4901 73.64C87.4301 74.06 87.5901 74.63 88.0701 74.69C88.1201 74.7 88.1601 74.69 88.2101 74.69C88.1901 74.78 88.1601 74.87 88.1501 74.96C88.0701 75.03 87.9901 75.1 87.9301 75.19C87.8601 75.29 87.8201 75.42 87.7901 75.55C87.5001 75.67 87.2901 75.89 87.1501 76.16C87.0201 76.2 86.9001 76.25 86.8201 76.34C86.6701 76.5 86.6101 76.8 86.6301 77.05C86.5301 77.21 86.4901 77.39 86.4801 77.58C86.4501 77.6 86.4101 77.62 86.3801 77.65C86.3701 77.66 86.3601 77.68 86.3501 77.69C86.0601 77.8 85.8101 78.02 85.6601 78.32C85.5901 78.3 85.5201 78.29 85.4501 78.3C85.3001 78.32 85.1401 78.44 85.0201 78.58C84.9101 78.57 84.8001 78.56 84.7101 78.59Z" fill="#494949"/>
</svg>
