<svg width="164" height="164" viewBox="0 0 164 164" fill="none" xmlns="http://www.w3.org/2000/svg">
<path d="M79.1901 127.86C79.2201 127.51 79.0501 127.1 78.8001 126.77C78.8001 126.71 78.8101 126.66 78.8101 126.59C78.8301 126.42 78.8101 126.22 78.7701 126.02C78.9201 125.77 78.9801 125.49 78.8401 125.21C78.6601 124.85 78.2601 124.66 77.7901 124.44C77.7701 124.43 77.7301 124.42 77.7101 124.41C77.4501 123.91 76.9601 123.44 76.4601 123.41C76.1801 123.39 75.8601 123.5 75.5701 123.67C75.4301 123.66 75.3001 123.67 75.1901 123.7C75.0601 123.73 74.9401 123.78 74.8301 123.83C74.8201 123.82 74.8101 123.81 74.8001 123.81C74.4701 123.65 73.9301 123.74 73.6101 123.95C73.6001 123.95 73.5901 123.95 73.5901 123.94C73.4601 123.57 73.2301 123.25 72.9301 123.09C72.4501 122.84 71.6101 122.95 71.1901 123.28C71.1801 123.28 71.1801 123.29 71.1701 123.3C71.1601 123.3 71.1501 123.3 71.1301 123.3C70.9801 123.2 70.8301 123.11 70.6801 123.07C70.0601 122.9 69.4701 123.03 68.9901 123.34C68.7901 123.34 68.6101 123.38 68.4401 123.45C68.1001 123.12 67.4701 122.91 67.0001 123.06C66.7801 123.02 66.5501 123.03 66.3701 123.09C66.2801 123.12 66.2101 123.19 66.1301 123.23C65.8701 123.13 65.6001 123.11 65.3301 123.16C65.0501 122.84 64.6601 122.58 64.2901 122.59C64.1301 122.6 63.9601 122.67 63.7901 122.76C63.5001 122.71 63.2101 122.74 62.9301 122.82C62.8801 122.8 62.8401 122.78 62.8001 122.75C62.2601 122.43 61.2401 122.41 60.7701 122.88C60.7401 122.91 60.7101 122.97 60.6801 123.01C60.4001 122.78 60.0601 122.61 59.7501 122.66C59.6901 122.67 59.6401 122.7 59.5801 122.72C59.3701 122.66 59.1501 122.63 58.9801 122.66C58.8801 122.68 58.7801 122.71 58.6901 122.74C58.5101 122.7 58.3101 122.69 58.0901 122.68C57.9601 122.58 57.8301 122.51 57.7001 122.47C57.1001 122.27 56.5101 122.36 56.0401 122.64C55.8201 122.53 55.5901 122.48 55.3701 122.49C54.9801 122.2 54.3501 122.06 53.9301 122.17C53.8401 122.19 53.7601 122.23 53.6801 122.26C53.4301 122.32 53.2001 122.41 53.0401 122.58C52.9401 122.68 52.8601 122.81 52.8001 122.95C52.5401 123.32 52.4101 123.78 52.4201 124.26C52.2801 124.59 52.2401 124.95 52.3001 125.3C52.1901 125.45 52.0901 125.62 52.0101 125.81C51.9301 126.01 51.8901 126.24 51.8801 126.48C51.7201 126.93 51.7401 127.43 51.9001 127.89C51.8801 127.96 51.8601 128.04 51.8401 128.12C51.5301 128.08 51.1701 128.13 50.8701 128.28C50.7101 128.11 50.5301 127.98 50.3301 127.92C49.8701 127.78 49.2001 127.97 48.7901 128.28C48.6101 128.29 48.4401 128.33 48.3001 128.39C48.0401 128.5 47.8201 128.66 47.6401 128.84C47.5901 128.84 47.5401 128.83 47.4901 128.83C47.0701 128.86 46.5901 129.24 46.3701 129.63C46.1401 129.63 45.9101 129.66 45.7101 129.75C45.2101 129.64 44.5601 129.74 44.1801 130.08C43.9401 130.14 43.7101 130.32 43.5301 130.54C43.3001 130.5 43.0401 130.51 42.7901 130.58C42.5801 130.49 42.3701 130.44 42.1701 130.47C41.7601 130.53 41.3201 130.91 41.1201 131.3C40.7201 131.44 40.3801 131.71 40.1201 132.08C40.0901 132.08 40.0701 132.09 40.0401 132.1C39.8201 131.99 39.5901 131.93 39.3701 131.95C38.8601 132.01 38.2801 132.52 38.1201 132.99C38.1001 133.06 38.0901 133.13 38.0701 133.2C37.6401 133.16 37.1001 133.33 36.8301 133.61C36.7001 133.74 36.6101 133.89 36.5301 134.04C36.2901 134.1 36.0501 134.2 35.8401 134.36C35.7701 134.37 35.7101 134.37 35.6401 134.39C35.1101 134.54 34.5701 135.2 34.4901 135.73C34.4301 136.12 34.4701 136.48 34.6001 136.81C34.0801 136.98 33.5801 137.33 33.4301 137.79C33.3701 137.96 33.3701 138.17 33.3901 138.38C33.2101 138.76 33.1401 139.23 33.2301 139.58C33.2501 139.65 33.2801 139.71 33.3001 139.77C33.2401 139.93 33.2101 140.08 33.2101 140.22C33.2201 140.65 33.3901 141.02 33.6401 141.3C33.6401 141.7 33.8001 142.06 34.0701 142.32C34.0401 142.56 34.0801 142.81 34.1801 143.04C34.1101 143.17 34.0601 143.3 34.0201 143.45C33.8501 144.08 34.0701 145.04 34.7701 145.26C34.6901 145.62 34.8001 146.1 35.0301 146.35C35.0401 146.36 35.0501 146.37 35.0701 146.38C35.0601 146.62 35.1001 146.87 35.1901 147.04C35.5001 147.63 36.0701 147.92 36.6701 147.9C36.8001 148.06 36.9601 148.19 37.1501 148.3C37.3201 148.91 37.9101 149.59 38.6001 149.46C38.7401 149.53 38.8901 149.58 39.0501 149.61C39.2501 150.11 39.6601 150.56 40.2001 150.56C40.5101 150.76 40.8601 150.87 41.2201 150.89C41.2801 150.97 41.3501 151.05 41.4301 151.12C41.7001 151.38 42.1301 151.58 42.5501 151.64C42.7201 151.75 42.8901 151.84 43.0901 151.9C43.3901 152 43.7801 152.01 44.1301 151.93C44.4401 152.06 44.7801 152.07 45.0601 151.9C45.2001 151.94 45.3401 151.96 45.5001 151.92C45.5601 151.9 45.6201 151.87 45.6801 151.84C45.9501 152.01 46.2501 152.13 46.5801 152.18C47.0601 152.26 47.6801 152.13 48.1201 151.81C48.5701 151.97 49.0801 151.96 49.5601 151.77C49.6601 151.73 49.7501 151.68 49.8501 151.62C49.9101 151.62 49.9701 151.63 50.0301 151.62C50.3801 151.83 50.7901 151.92 51.2201 151.89C51.5501 152.18 51.9701 152.33 52.4001 152.13C52.5501 152.06 52.6701 151.95 52.7801 151.82C53.0501 151.93 53.3901 151.97 53.7101 151.92C53.8001 151.96 53.8801 152 53.9701 152.02C54.3101 152.12 54.7601 152.12 55.1501 151.99L55.1601 152C55.5101 152.16 55.9101 152.12 56.3501 152.02C56.7901 152.12 57.3101 152.04 57.8901 151.93C58.2401 151.89 58.6501 151.7 58.9801 151.43C59.2101 151.4 59.4501 151.33 59.6301 151.2C59.9801 151.3 60.3901 151.3 60.8501 151.28C61.2801 151.3 61.8501 151.07 62.2001 150.72C62.3501 150.95 62.5501 151.13 62.8401 151.22C63.2701 151.35 63.7301 151.23 64.2301 151.04C64.3701 151.1 64.5201 151.14 64.7001 151.12C65.0701 151.09 65.3901 150.89 65.7101 150.61C65.7701 150.63 65.8201 150.66 65.8901 150.68C66.0701 150.73 66.2901 150.75 66.5001 150.74C66.7901 150.9 67.1201 150.96 67.4601 150.82C67.7101 150.72 67.9101 150.54 68.0901 150.31C68.6601 150.48 69.3301 150.41 69.6201 149.85C69.6401 149.8 69.6501 149.75 69.6701 149.7C69.7101 149.69 69.7601 149.67 69.8001 149.65C70.0701 149.74 70.3701 149.78 70.6701 149.76C71.3101 149.72 72.1201 149.28 72.3401 148.62C72.5701 148.63 72.8001 148.58 72.9901 148.4C73.0201 148.37 73.0401 148.33 73.0701 148.29C73.8901 148.46 75.0601 148.14 75.1801 147.17C75.2001 146.99 75.1701 146.81 75.1201 146.63C75.3401 146.44 75.4901 146.21 75.5301 145.94C75.6601 145.67 75.7501 145.35 75.8501 145C75.9001 144.86 75.9301 144.7 75.9401 144.53C76.0501 144.4 76.1201 144.25 76.1301 144.06C76.1301 144.02 76.1201 143.98 76.1101 143.94C76.2301 143.8 76.3401 143.64 76.4601 143.48C76.5101 143.42 76.5501 143.33 76.5901 143.25C77.2301 142.98 77.8001 142.4 77.6401 141.68C77.5701 141.37 77.3701 141.11 77.1201 140.86C77.2201 140.63 77.2501 140.39 77.2101 140.18C77.3101 140.04 77.3901 139.9 77.4101 139.74C77.4301 139.61 77.4101 139.46 77.3601 139.31C77.4101 138.99 77.4001 138.63 77.3801 138.24C77.7801 137.83 78.0201 137.21 77.7301 136.71C77.9601 136.28 77.9901 135.73 78.0001 135.09C78.0001 135.06 78.0001 135.03 78.0001 135C78.1601 134.79 78.2601 134.54 78.2201 134.25C78.1801 133.99 78.0401 133.76 77.8501 133.54C77.8501 133.37 77.8201 133.19 77.7701 133C77.8101 132.95 77.8501 132.89 77.8801 132.82C77.9801 132.57 77.9501 132.29 77.8801 131.98C78.0201 131.69 78.0601 131.32 78.1001 130.91C78.1401 130.7 78.1001 130.44 78.0201 130.19C78.0501 130.13 78.0801 130.06 78.1101 129.99C78.1901 129.94 78.2701 129.89 78.3401 129.83C78.7501 129.49 79.0801 128.84 79.0401 128.26C79.1201 128.19 79.1801 128.02 79.1901 127.86Z" fill="#FF8412"/>
<path d="M78.9801 101.88L56.5501 100.43L54.0701 124.03C60.6801 123.86 71.8701 124.64 77.4101 125.53L78.9801 101.88Z" fill="#FFEA62"/>
<path d="M80.34 107.25C80.46 106.96 80.47 106.65 80.3 106.36C80.22 106.23 80.12 106.13 80 106.05C80 106.04 80.01 106.02 80.01 106.01C80.39 105.77 80.72 105.4 80.78 105.01C80.82 104.75 80.75 104.44 80.61 104.15C80.76 103.87 80.82 103.55 80.71 103.25C80.71 102.87 80.6 102.44 80.46 101.98C80.41 101.76 80.29 101.52 80.13 101.3C80.02 100.93 79.8 100.58 79.48 100.46C79.18 100.35 78.74 100.43 78.44 100.61C78.31 100.59 78.16 100.58 78.01 100.58C77.96 100.5 77.91 100.42 77.85 100.37C77.63 100.2 77.28 100.13 76.96 100.14C76.56 99.83 75.82 99.74 75.37 99.93C75.28 99.97 75.21 100.01 75.13 100.06C74.99 99.98 74.84 99.92 74.69 99.91C74.56 99.9 74.43 99.93 74.29 99.98C74.1 99.83 73.89 99.72 73.68 99.7C73.44 99.68 73.16 99.76 72.91 99.9C72.44 99.68 71.82 99.62 71.42 99.86C71.1 99.78 70.76 99.78 70.51 99.92C70.5 99.93 70.49 99.94 70.48 99.94C70.4 99.94 70.32 99.95 70.24 99.96C70.19 99.93 70.14 99.89 70.09 99.87C69.9 99.79 69.71 99.76 69.52 99.75C69.2 99.51 68.79 99.34 68.46 99.34C68.31 99.34 68.16 99.36 68.03 99.39C68 99.37 67.98 99.35 67.95 99.33C67.49 99.08 66.69 99.17 66.28 99.47C66.24 99.5 66.21 99.54 66.17 99.57C66.03 99.57 65.88 99.59 65.73 99.64C65.65 99.6 65.57 99.56 65.5 99.54C65.11 99.45 64.74 99.5 64.42 99.65C64.26 99.61 64.09 99.58 63.91 99.54C63.87 99.53 63.83 99.54 63.79 99.53C63.68 99.38 63.54 99.25 63.38 99.18C63.08 99.05 62.64 99.08 62.29 99.22C62.28 99.22 62.28 99.21 62.27 99.21C61.98 99.15 61.71 99.17 61.46 99.23C61.45 99.23 61.44 99.22 61.43 99.21C60.9 99.02 60.38 99.07 59.94 99.29C59.57 99.08 59 99.02 58.56 99.17C58.34 99.08 58.11 99.03 57.91 99.09C57.88 99.1 57.85 99.12 57.81 99.14C57.39 98.89 56.8 98.76 56.41 98.97C56.18 99.09 55.98 99.36 55.86 99.64C55.6 99.84 55.41 100.12 55.31 100.43C55.27 100.47 55.22 100.51 55.19 100.55C54.84 101.02 54.73 101.56 54.81 102.07C54.68 102.35 54.63 102.7 54.67 102.99C54.62 103.08 54.57 103.16 54.55 103.25C54.4 103.78 54.47 104.28 54.69 104.71C54.69 104.73 54.67 104.76 54.67 104.78C54.65 105.1 54.72 105.39 54.85 105.63C54.57 105.71 54.32 105.86 54.16 106.06C53.82 106.49 53.77 107.35 54.02 107.83C54.11 108.01 54.23 108.16 54.35 108.3C54.18 108.46 54.03 108.64 53.91 108.85C53.58 109.42 53.49 110.36 53.91 110.94C53.74 111.31 53.68 111.73 53.73 112.17C53.73 112.2 53.75 112.24 53.75 112.27C53.68 112.53 53.66 112.81 53.7 113.09C53.61 113.32 53.56 113.56 53.55 113.81C53.33 114.19 53.25 114.72 53.36 115.08C53.4 115.21 53.45 115.33 53.52 115.45V115.46C53.48 115.73 53.5 115.99 53.58 116.22C53.47 116.38 53.41 116.6 53.4 116.83C53.04 117.32 52.92 117.91 53.02 118.49C52.92 118.81 52.9 119.15 52.96 119.48C52.77 119.95 52.76 120.47 52.92 120.96C52.88 121.1 52.87 121.25 52.86 121.4C52.81 121.45 52.75 121.48 52.71 121.54C52.45 121.94 52.47 122.68 52.72 123.08C52.73 123.09 52.73 123.1 52.74 123.1C52.44 123.62 52.35 124.36 52.89 124.74C53.15 124.93 53.48 124.96 53.85 124.96C54.14 125.37 54.69 125.71 55.17 125.5C55.44 125.63 55.74 125.72 56.07 125.73C56.31 125.74 56.57 125.69 56.83 125.59C57.13 125.99 57.58 126.27 58.1 126.14C58.32 126.08 58.51 125.95 58.69 125.79C58.85 125.85 59.01 125.89 59.19 125.92C59.51 125.96 59.89 125.91 60.23 125.78C60.45 126 60.73 126.15 61.08 126.11C61.37 126.08 61.62 125.93 61.88 125.73C62.09 125.85 62.32 125.89 62.57 125.81C62.68 125.77 62.78 125.71 62.87 125.64C62.91 125.65 62.95 125.67 62.99 125.68C63.16 125.7 63.33 125.66 63.51 125.6C63.96 125.92 64.54 126.06 65.13 125.96C65.32 126.07 65.54 126.15 65.75 126.19C66.21 126.61 66.83 126.85 67.4 126.53C67.62 126.41 67.78 126.22 67.92 126C68.21 126.22 68.56 126.37 68.95 126.42C69.26 126.47 69.64 126.43 69.98 126.3C70.56 126.66 71.3 126.73 71.99 126.47C72.07 126.44 72.15 126.4 72.22 126.36C72.35 126.37 72.48 126.36 72.61 126.34C72.62 126.34 72.62 126.34 72.63 126.34C72.87 126.43 73.13 126.46 73.39 126.43C73.77 126.87 74.38 127.17 74.91 126.84C74.95 126.82 74.97 126.78 75.01 126.75C75.29 127.27 75.77 127.68 76.39 127.58C76.84 127.51 77.19 127.19 77.56 126.79C77.7 126.75 77.84 126.71 77.98 126.67C78.5 126.55 79.14 125.98 79.15 125.42C79.15 125.38 79.13 125.33 79.13 125.29C79.39 125.03 79.57 124.72 79.59 124.4C79.61 124.03 79.41 123.59 79.13 123.27C79.18 123.03 79.21 122.78 79.16 122.55C79.17 122.47 79.18 122.4 79.17 122.31C79.15 122.1 79.04 121.91 78.9 121.73C79.16 121.42 79.34 121 79.26 120.66C79.23 120.55 79.17 120.44 79.1 120.34C79.21 120.15 79.28 119.95 79.25 119.76C79.24 119.68 79.21 119.6 79.17 119.52C79.31 119.31 79.41 119.06 79.46 118.8C79.84 118.39 80.12 117.79 80.01 117.3C79.97 117.13 79.87 116.96 79.75 116.8C79.71 116.63 79.64 116.48 79.54 116.33C79.57 116.25 79.61 116.16 79.64 116.08C79.78 115.78 79.82 115.37 79.76 114.98C79.96 114.53 79.99 113.92 79.79 113.48C79.71 113.28 79.6 113.07 79.45 112.85C79.45 112.81 79.46 112.78 79.46 112.74C79.59 112.65 79.71 112.54 79.79 112.37C79.94 112.06 79.91 111.71 79.83 111.32C80.34 110.9 80.71 110.22 80.35 109.61C80.31 109.55 80.26 109.5 80.21 109.44C80.24 109.36 80.26 109.28 80.27 109.19C80.28 109.04 80.23 108.87 80.17 108.71C80.4 108.26 80.56 107.7 80.34 107.25ZM73.33 123.76C73.14 123.71 72.9 123.72 72.66 123.76C72.65 123.75 72.63 123.75 72.62 123.74C72.31 123.53 71.92 123.37 71.49 123.2C71.06 123 70.41 122.98 69.89 123.16C69.83 123.15 69.77 123.16 69.71 123.16C69.25 122.79 68.54 122.55 68.04 122.75L68.03 122.76C68.02 122.75 68.02 122.75 68.01 122.74C67.57 122.38 66.7 122.32 66.2 122.56C66.18 122.57 66.17 122.58 66.15 122.59C66.12 122.58 66.1 122.56 66.07 122.55C65.74 122.46 65.3 122.55 64.95 122.74C64.4 122.49 63.61 122.45 63.16 122.81C63.11 122.85 63.07 122.92 63.02 122.98C62.82 122.9 62.6 122.87 62.4 122.89C62.12 122.71 61.8 122.59 61.52 122.59C61.18 122.6 60.88 122.69 60.61 122.85C60.43 122.81 60.24 122.8 60.06 122.82C59.61 122.37 58.77 122.05 58.2 122.28C58.16 122.3 58.11 122.34 58.07 122.37C58.05 122.37 58.02 122.37 58 122.37C57.65 122.43 57.35 122.58 57.1 122.78C57.02 122.77 56.95 122.76 56.86 122.76C56.8 122.75 56.73 122.76 56.66 122.76C56.5 122.62 56.29 122.49 56.06 122.4C56.07 122.19 56.02 121.97 55.88 121.78C55.87 121.76 55.85 121.76 55.84 121.74C55.99 121.39 56.07 120.97 56.13 120.5C56.24 120.16 56.24 119.75 56.22 119.3C56.31 119 56.36 118.66 56.41 118.29C56.48 117.95 56.44 117.52 56.3 117.13C56.31 117.08 56.31 117.04 56.31 116.99C56.41 116.86 56.48 116.7 56.5 116.52C56.51 116.34 56.47 116.17 56.4 116C56.8 115.66 57.07 115.16 56.86 114.64C56.82 114.53 56.75 114.43 56.68 114.34C56.68 114.33 56.69 114.32 56.69 114.31C56.83 114 56.88 113.55 56.81 113.14C56.9 112.9 56.94 112.6 56.92 112.29C57.17 111.83 57.27 111.18 57.08 110.68C57.45 110.35 57.74 109.91 57.74 109.48C57.74 109.15 57.56 108.78 57.32 108.47C57.83 108.01 58.16 107.3 57.79 106.68C57.67 106.48 57.49 106.34 57.29 106.21C57.47 106.05 57.58 105.84 57.6 105.59C57.8 105.43 57.96 105.22 58.01 104.94C58.08 104.57 57.97 104.2 57.79 103.81C58.05 103.5 58.18 103.11 58.02 102.71C58.04 102.45 58.02 102.17 57.98 101.87C58.01 101.86 58.04 101.85 58.08 101.83C58.12 101.84 58.15 101.86 58.19 101.87C58.35 101.91 58.53 101.92 58.72 101.9C58.81 101.94 58.9 101.98 59 102C59.13 102.2 59.32 102.36 59.58 102.44C59.87 102.52 60.16 102.47 60.47 102.37C60.6 102.47 60.75 102.55 60.94 102.57C61.28 102.61 61.61 102.48 61.96 102.29C62.45 102.66 63.16 102.85 63.63 102.38C63.64 102.37 63.65 102.35 63.66 102.34C63.8 102.5 63.98 102.62 64.22 102.65C64.6 102.7 64.97 102.53 65.37 102.3C65.55 102.43 65.77 102.53 65.98 102.56C66.3 102.9 66.77 103.16 67.23 103.17C67.41 103.26 67.6 103.31 67.83 103.29C68.13 103.26 68.39 103.13 68.65 102.93C68.96 102.92 69.29 102.8 69.65 102.66C69.91 102.87 70.24 102.98 70.57 102.83C70.66 102.79 70.74 102.73 70.81 102.67C71.04 102.78 71.3 102.84 71.58 102.84C71.62 102.84 71.66 102.83 71.69 102.83C72.02 103 72.4 103.09 72.8 103.07C72.87 103.07 72.94 103.05 73.01 103.04C73.45 103.28 74.08 103.38 74.54 103.15C74.58 103.16 74.61 103.16 74.65 103.17C75.05 103.62 75.65 103.93 76.22 103.63C76.31 103.58 76.38 103.52 76.46 103.45C76.67 103.54 76.89 103.57 77.1 103.52C77.1 103.74 77.14 103.95 77.21 104.13C76.85 104.68 76.69 105.57 77.15 106.09C77 106.37 76.95 106.75 77.01 107.09C76.93 107.18 76.85 107.27 76.81 107.37C76.63 107.79 76.76 108.45 77.03 108.83C77.01 108.87 77 108.91 76.99 108.96C76.95 109 76.89 109.02 76.85 109.07C76.53 109.47 76.48 110.25 76.7 110.7C76.77 110.83 76.84 110.95 76.93 111.06C76.91 111.41 76.99 111.76 77.18 112.06C77.16 112.15 77.12 112.23 77.12 112.32C76.95 112.52 76.82 112.76 76.78 112.97C76.74 113.22 76.75 113.46 76.81 113.69C76.55 114.12 76.46 114.66 76.57 115.19C76.49 115.47 76.47 115.77 76.52 116.07C76.47 116.22 76.43 116.37 76.43 116.51C76.43 116.67 76.46 116.81 76.5 116.95C76.35 117.15 76.23 117.38 76.16 117.64C76 118.17 76.07 118.92 76.43 119.39C76.45 119.55 76.49 119.71 76.55 119.86C76.47 120.09 76.46 120.38 76.52 120.64C76.47 120.75 76.42 120.86 76.38 120.98C76.33 121.17 76.32 121.39 76.35 121.62C76.31 121.75 76.28 121.88 76.28 121.99C76.29 122.17 76.33 122.33 76.38 122.48C76.21 122.75 76.11 123.08 76.1 123.42C76.02 123.51 75.95 123.6 75.88 123.7C75.86 123.73 75.84 123.77 75.82 123.8C75.75 123.84 75.68 123.89 75.61 123.93C75.5 123.92 75.4 123.93 75.29 123.94C75.27 123.92 75.26 123.89 75.24 123.87C74.88 123.6 74.19 123.57 73.8 123.78C73.74 123.81 73.69 123.85 73.64 123.88C73.56 123.8 73.45 123.78 73.33 123.76Z" fill="#FF8412"/>
<path d="M138.15 140.08C138.08 139.75 137.8 139.42 137.48 139.2C137.46 138.72 137.25 138.17 136.89 137.9C136.89 137.89 136.88 137.89 136.88 137.88C136.96 137.73 137.01 137.57 137.01 137.41C137.01 136.94 136.6 136.33 136.18 136.13C136.15 136.11 136.11 136.11 136.08 136.09C136.08 136.08 136.08 136.07 136.08 136.06C136.35 135.59 136.42 135.02 136.05 134.58C135.69 134.16 135.09 134.05 134.39 133.93C134.32 133.91 134.24 133.9 134.15 133.89C134.11 133.85 134.08 133.8 134.03 133.77C133.95 133.72 133.84 133.68 133.73 133.66C133.71 133.63 133.69 133.59 133.68 133.56C133.43 133.02 132.68 132.46 132.06 132.52C131.87 132.33 131.65 132.15 131.41 131.96C131.26 131.82 131.06 131.71 130.83 131.62C130.45 131.06 129.56 130.56 128.9 130.74C128.89 130.74 128.88 130.75 128.87 130.75C128.41 130.4 127.88 130.29 127.36 130.37C127.2 130.3 127.03 130.25 126.86 130.23C126.58 129.72 126.07 129.24 125.54 129.21C125.31 129.2 125.06 129.27 124.82 129.39C124.76 129.38 124.7 129.37 124.64 129.37C124.6 129.37 124.57 129.38 124.54 129.39C124.39 129.29 124.23 129.2 124.06 129.15C124 129.01 123.94 128.87 123.83 128.77C123.43 128.37 122.57 128.21 122.05 128.4C121.85 128.47 121.67 128.58 121.51 128.69C121.18 128.47 120.72 128.43 120.2 128.39H120.19C120.1 128.33 120.02 128.26 119.93 128.2C119.87 128.15 119.79 128.12 119.72 128.08C119.73 127.81 119.66 127.55 119.46 127.33C119.43 127.3 119.39 127.28 119.36 127.25C119.46 126.75 119.43 126.2 119.14 125.86C119.12 125.83 119.08 125.82 119.06 125.79C119.05 125.36 118.9 124.91 118.63 124.63C118.91 124.22 119.03 123.71 118.72 123.28C118.43 122.87 117.89 122.72 117.26 122.56C117.19 122.53 117.09 122.53 117 122.52C116.95 122.49 116.91 122.45 116.86 122.44C116.57 122.36 116.17 122.45 115.86 122.62C115.77 122.6 115.69 122.57 115.59 122.55C115.18 122.42 114.58 122.48 114.15 122.71C113.61 122.46 113.02 122.48 112.51 122.72C112.27 122.7 112.04 122.72 111.83 122.79C111.76 122.76 111.69 122.72 111.62 122.71C111.33 122.65 111.05 122.68 110.79 122.75C110.55 122.65 110.28 122.59 110.06 122.61C109.73 122.65 109.45 122.76 109.21 122.93C109.03 122.83 108.84 122.75 108.66 122.77C108.61 122.77 108.56 122.8 108.51 122.81C108.18 122.54 107.77 122.36 107.4 122.41C107.25 122.43 107.1 122.5 106.95 122.6C106.51 122.43 105.99 122.38 105.63 122.58C105.59 122.6 105.55 122.65 105.51 122.68C105.15 122.62 104.77 122.65 104.47 122.79C104.23 122.81 103.99 122.87 103.76 122.97C103.59 122.96 103.42 122.96 103.24 122.97C103.06 122.96 102.85 122.99 102.64 123.06C102.12 123.02 101.61 123.2 101.2 123.54C101.05 123.51 100.91 123.51 100.76 123.53C100.29 123.22 99.52 123.09 99.07 123.39C99.02 123.43 98.98 123.48 98.93 123.53C98.9 123.53 98.87 123.52 98.84 123.52C98.72 123.41 98.59 123.33 98.44 123.29C98.08 123.19 97.57 123.32 97.21 123.55C96.99 123.54 96.77 123.57 96.56 123.63C96.33 123.56 96.09 123.52 95.9 123.55C95.45 123.62 95.08 123.82 94.79 124.11C94.52 124.14 94.29 124.24 94.08 124.39C93.65 124.16 92.86 124.16 92.51 124.53C92.29 124.76 92.19 125.18 92.22 125.53C92.13 125.69 92.06 125.85 92.04 126C91.94 126.63 92.12 127.2 92.47 127.64C92.35 127.74 92.26 127.85 92.19 127.98C91.96 128.46 92.09 129.27 92.42 129.68C92.59 129.9 92.8 130.06 93.02 130.19C93.03 130.29 93.04 130.38 93.07 130.48C92.94 130.9 92.99 131.35 93.2 131.76C93.15 132 93.17 132.24 93.23 132.49C93.12 132.7 93.04 132.93 93 133.18C92.97 133.38 92.98 133.61 93.03 133.84C93.03 133.88 93.01 133.92 93.01 133.95C93.02 134.42 93.19 134.82 93.46 135.13C93.43 135.18 93.38 135.23 93.36 135.27C92.95 136.17 93.2 137.1 93.84 137.72C93.69 138.04 93.64 138.45 93.73 138.74C93.78 138.91 93.88 139.04 93.97 139.17C93.91 139.42 93.91 139.68 93.96 139.93C93.75 140.47 93.78 141.07 94.05 141.6C94.01 141.99 94.08 142.4 94.27 142.79C94.31 142.88 94.37 142.96 94.43 143.04C94.44 143.07 94.45 143.1 94.46 143.14C94.36 143.56 94.4 144.06 94.57 144.38C94.66 144.54 94.77 144.68 94.89 144.81C94.74 145.44 94.85 146.15 95.47 146.47C95.74 146.61 96.05 146.64 96.38 146.61C96.41 146.65 96.43 146.7 96.47 146.74C96.51 146.78 96.55 146.83 96.59 146.87C96.68 147.24 96.88 147.58 97.19 147.85C97.3 147.94 97.43 148.02 97.57 148.09C97.59 148.11 97.61 148.14 97.64 148.16C97.86 148.33 98.15 148.39 98.47 148.41C98.47 148.42 98.47 148.42 98.48 148.43C98.72 149.1 99.55 149.84 100.32 149.53C100.42 149.57 100.52 149.6 100.62 149.62C100.63 149.64 100.64 149.67 100.66 149.69C101.05 150.27 102 150.78 102.67 150.32C102.82 150.49 103.01 150.62 103.26 150.67C103.7 150.75 104.14 150.54 104.62 150.27C104.78 150.36 104.97 150.43 105.16 150.46C105.34 150.68 105.59 150.83 105.9 150.8C106.17 150.78 106.4 150.64 106.63 150.45C106.73 150.49 106.84 150.53 106.95 150.55C107.09 150.87 107.34 151.13 107.72 151.17C108.01 151.2 108.28 151.1 108.57 150.95C108.92 151.3 109.41 151.51 109.86 151.24C109.87 151.23 109.88 151.22 109.9 151.21C109.97 151.25 110.04 151.29 110.12 151.33C110.31 151.65 110.6 151.89 111.01 151.91C111.34 151.93 111.66 151.78 111.98 151.57C112.19 151.58 112.41 151.56 112.65 151.53C112.99 151.97 113.55 152.28 114.08 152.06C114.55 152.23 115.08 152.24 115.59 152.07C115.7 152.03 115.82 151.98 115.93 151.92C116.21 151.99 116.54 152.01 116.89 152C117.31 152.48 117.95 152.8 118.55 152.49C118.86 152.33 119.08 152.04 119.27 151.68C119.57 151.89 119.93 152.02 120.32 152.06C120.61 152.09 120.95 152.03 121.26 151.9C121.46 151.95 121.67 151.96 121.86 151.92C122.17 152.09 122.57 152.18 122.94 152.14C123.19 152.27 123.48 152.31 123.77 152.19C123.88 152.14 123.99 152.08 124.08 151.99C124.52 152.24 125.07 152.32 125.46 151.95C125.49 151.93 125.5 151.89 125.52 151.87C125.67 151.87 125.82 151.85 125.96 151.82C126.52 152.26 127.53 152.48 128 151.8C128.12 151.79 128.24 151.75 128.35 151.68C128.7 151.62 129.07 151.5 129.47 151.35C129.49 151.34 129.51 151.33 129.53 151.33C129.98 151.24 130.38 150.91 130.81 150.51C131.48 150.56 132.33 150.25 132.62 149.61C132.67 149.6 132.72 149.6 132.78 149.58C133.16 149.45 133.43 149.12 133.7 148.71C134.19 148.77 134.7 148.63 134.9 148.15C134.94 148.05 134.96 147.94 134.97 147.83C135.11 147.71 135.26 147.56 135.41 147.4C135.54 147.28 135.64 147.11 135.72 146.92C135.83 146.77 135.91 146.58 135.99 146.37C136.11 146.32 136.23 146.24 136.33 146.13C136.66 145.75 136.67 145.2 136.69 144.55C136.69 144.53 136.69 144.5 136.69 144.48C136.75 144.36 136.81 144.24 136.87 144.12C136.88 144.11 136.88 144.1 136.88 144.09C137.06 143.85 137.22 143.57 137.39 143.26C137.58 142.98 137.68 142.56 137.68 142.15C137.72 142.09 137.77 142.03 137.79 141.96C137.85 141.75 137.82 141.48 137.74 141.23C138.05 140.89 138.22 140.45 138.15 140.08Z" fill="#FF8412"/>
<path d="M92.12 101.88L114.55 100.43L117.03 124.03C110.42 123.86 99.23 124.64 93.69 125.53L92.12 101.88Z" fill="#FFEA62"/>
<path d="M118.54 122.39C118.47 122.16 118.32 121.96 118.12 121.79C118.49 121.56 118.75 121.21 118.74 120.74C118.73 120.22 118.39 119.77 117.96 119.27C117.94 119.11 117.89 118.95 117.82 118.81C117.91 118.69 117.98 118.57 118 118.43C118.06 118.1 117.91 117.67 117.68 117.38C117.78 117.17 117.85 116.96 117.81 116.76C117.79 116.64 117.72 116.52 117.64 116.4C117.63 116.17 117.55 115.93 117.43 115.67C117.49 115.57 117.54 115.45 117.54 115.31C117.55 115.07 117.47 114.85 117.33 114.62C117.39 114.29 117.33 113.9 117.26 113.47C117.25 113.33 117.2 113.18 117.14 113.03C117.13 112.96 117.12 112.89 117.1 112.82C117.44 112.57 117.68 112.2 117.61 111.75C117.56 111.44 117.38 111.18 117.14 110.93C117.17 110.85 117.22 110.78 117.23 110.7C117.24 110.59 117.23 110.47 117.19 110.34C117.32 110.18 117.43 110.01 117.46 109.82C117.55 109.37 117.3 108.75 116.96 108.4C117.06 107.98 117 107.49 116.94 106.94C116.93 106.77 116.89 106.59 116.82 106.41C116.92 106.14 116.96 105.87 116.88 105.63C116.81 105.39 116.61 105.16 116.37 104.98C116.39 104.79 116.39 104.61 116.32 104.46C116.31 104.44 116.29 104.43 116.28 104.41C116.41 104.16 116.48 103.89 116.43 103.66C116.41 103.59 116.37 103.53 116.34 103.46C116.49 103.2 116.54 102.91 116.4 102.61C116.35 102.51 116.29 102.42 116.21 102.34C116.23 102.19 116.24 102.05 116.26 101.89C116.29 101.7 116.27 101.48 116.23 101.26C116.48 100.8 116.55 100.24 116.16 99.83C115.83 99.49 115.32 99.41 114.74 99.34C114.58 99.13 114.38 98.96 114.16 98.91C114.09 98.89 114.01 98.9 113.92 98.9C113.6 98.73 113.24 98.63 112.94 98.66C112.66 98.69 112.4 98.77 112.18 98.89C111.92 98.74 111.64 98.65 111.38 98.68C111.24 98.7 111.09 98.76 110.94 98.85C110.66 98.72 110.36 98.66 110.09 98.72C109.9 98.76 109.71 98.89 109.53 99.04C109.21 99.07 108.89 99.19 108.69 99.37C108.44 99.35 108.2 99.38 107.96 99.46C107.78 99.41 107.6 99.39 107.42 99.39C107.33 99.29 107.23 99.2 107.12 99.14C106.71 98.93 106.06 99 105.62 99.22C105.16 99 104.6 98.9 104.19 99.09C104.01 99.17 103.86 99.33 103.71 99.5C103.65 99.5 103.59 99.5 103.53 99.51C102.94 99.2 101.91 99.17 101.42 99.65C101.39 99.68 101.37 99.73 101.34 99.77C101.09 99.72 100.85 99.73 100.61 99.78C100.04 99.56 99.43 99.6 98.89 99.87C98.51 99.72 98.09 99.66 97.77 99.81C97.66 99.87 97.55 99.95 97.45 100.06C97.41 100.07 97.37 100.07 97.33 100.08C97.12 99.87 96.87 99.71 96.61 99.68C96.29 99.64 95.89 99.79 95.58 100.01C95.5 100.01 95.43 100.02 95.35 100.03C94.92 99.81 94.32 99.75 93.92 99.91C93.62 100.03 93.38 100.2 93.18 100.41C93.12 100.38 93.06 100.33 93.01 100.31C91.95 99.93 90.91 100.46 90.46 101.44C90.18 102.05 90.22 103.02 90.79 103.46C90.79 103.66 90.83 103.85 90.9 104.02C90.7 104.5 90.69 105.05 90.91 105.58C90.9 105.78 90.93 106 91 106.18C90.64 106.65 90.44 107.41 90.78 107.92C90.54 108.37 90.48 109.02 90.65 109.45C90.79 109.78 90.99 110.05 91.23 110.27C90.91 110.87 90.89 111.61 91.19 112.28C91.2 112.3 91.21 112.32 91.22 112.34C91.26 112.75 91.44 113.13 91.72 113.43C91.72 113.54 91.74 113.64 91.76 113.75C91.68 113.91 91.64 114.09 91.63 114.25C91.62 114.26 91.6 114.26 91.59 114.27C91.23 114.63 91.1 115.41 91.27 115.87C91.3 115.96 91.35 116.03 91.39 116.11C91.33 116.23 91.28 116.37 91.24 116.5C91.04 117.22 91.25 118.31 91.98 118.68C91.91 118.77 91.84 118.87 91.8 118.97C91.51 119.68 91.66 120.4 92.08 120.93C92.09 121.07 92.12 121.2 92.17 121.32C92.17 121.33 92.16 121.34 92.16 121.35C92.04 121.68 92.03 122.02 92.1 122.32C91.99 122.47 91.89 122.62 91.81 122.8C91.56 123.37 91.57 124.26 92.03 124.76C92.01 124.79 91.99 124.82 91.98 124.85C91.6 125.58 91.62 126.9 92.58 127.21C93.13 127.39 93.72 127.17 94.41 126.9C94.49 126.87 94.58 126.84 94.66 126.79C94.79 126.76 94.93 126.73 95.07 126.7C95.14 126.69 95.21 126.67 95.29 126.64C95.51 126.72 95.75 126.76 96 126.76C96.23 126.76 96.49 126.69 96.73 126.58C96.84 126.67 96.97 126.75 97.13 126.78C97.52 126.86 97.91 126.72 98.33 126.51C98.73 126.62 99.14 126.61 99.53 126.48C99.91 126.59 100.33 126.61 100.75 126.51C100.77 126.51 100.79 126.5 100.81 126.49C100.92 126.53 101.04 126.56 101.16 126.58C101.54 126.64 102 126.57 102.4 126.4C102.83 126.46 103.31 126.33 103.84 126.17C104.43 126.48 105.26 126.57 105.75 126.11C105.92 126.12 106.08 126.09 106.24 126.03C106.55 126.16 106.89 126.18 107.2 125.98C107.28 125.93 107.35 125.86 107.41 125.79C107.65 125.88 107.91 125.89 108.16 125.74C108.27 125.67 108.36 125.57 108.44 125.46C108.81 126.1 109.53 126.64 110.26 126.31C110.55 126.18 110.77 125.94 110.96 125.65C111.13 125.66 111.3 125.65 111.48 125.61C111.52 125.6 111.56 125.58 111.6 125.57C111.77 125.56 111.96 125.51 112.15 125.45C112.43 125.74 112.82 125.97 113.22 126.01C113.47 126.19 113.76 126.29 114.1 126.23C114.25 126.2 114.38 126.15 114.51 126.08C114.91 126.34 115.38 126.45 115.84 126.22C116.05 126.11 116.21 125.95 116.35 125.75C116.59 125.68 116.84 125.59 117.1 125.48C117.71 125.28 118.42 124.53 118.38 123.86C118.37 123.69 118.3 123.5 118.2 123.32C118.49 123.09 118.64 122.76 118.54 122.39ZM108.2 122.92C108.01 122.87 107.8 122.86 107.6 122.89L107.59 122.88C107.25 122.63 106.65 122.61 106.24 122.77C106.16 122.72 106.09 122.67 106 122.65C105.8 122.58 105.54 122.6 105.3 122.66C105.12 122.5 104.91 122.39 104.7 122.35C104.28 122.28 103.73 122.49 103.36 122.79C102.93 122.83 102.52 123 102.18 123.28C101.7 122.84 100.9 122.53 100.33 122.75C100.18 122.81 100.03 122.92 99.9 123.04C99.41 122.99 98.89 123.06 98.58 123.35L98.57 123.36C98.36 123.38 98.13 123.45 97.92 123.55C97.61 123.59 97.32 123.71 97.07 123.9C96.75 123.77 96.39 123.73 96.11 123.85C95.9 123.76 95.67 123.7 95.44 123.69C95.57 123.45 95.64 123.19 95.61 122.94C95.56 122.49 95.16 121.98 94.73 121.73C94.73 121.72 94.73 121.72 94.72 121.71C94.8 121.59 94.84 121.46 94.85 121.31C94.93 121.21 95.01 121.1 95.05 120.96C95.21 120.45 94.99 119.89 94.74 119.25C94.69 119.09 94.59 118.92 94.47 118.75C94.48 118.6 94.45 118.44 94.4 118.28C94.5 118.13 94.58 117.96 94.62 117.78C95.05 117.34 95.38 116.65 95.24 116.1C95.2 115.96 95.13 115.82 95.04 115.68C95.05 115.52 95.03 115.36 94.96 115.2C94.85 114.96 94.67 114.78 94.44 114.62C94.44 114.6 94.44 114.59 94.44 114.57C94.39 114.31 94.23 114.1 94.01 113.89C94.21 113.77 94.37 113.61 94.45 113.37C94.59 112.97 94.49 112.53 94.33 112.05C94.38 111.92 94.42 111.78 94.47 111.64C94.64 111.2 94.63 110.55 94.41 110.04C94.77 109.63 94.97 109.09 94.71 108.56C94.56 108.25 94.29 108.04 93.96 107.85C94.11 107.7 94.23 107.53 94.28 107.34C94.39 106.9 94.17 106.27 93.84 105.93C93.92 105.68 93.91 105.43 93.78 105.2C93.79 105.16 93.8 105.13 93.82 105.09C93.98 104.71 93.97 104.14 93.79 103.69C94.1 103.84 94.45 103.88 94.79 103.71C94.92 103.65 95.04 103.56 95.14 103.45C95.31 103.49 95.5 103.48 95.69 103.41C95.82 103.36 95.94 103.27 96.04 103.17C96.64 103.46 97.49 103.48 97.89 102.89C97.98 102.89 98.08 102.88 98.17 102.86C98.18 102.87 98.19 102.88 98.2 102.89C98.69 103.21 99.34 103.14 100.08 103.06C100.27 103.05 100.49 102.99 100.7 102.91C100.9 102.86 101.11 102.8 101.32 102.72C101.57 102.73 101.83 102.72 102.12 102.71C102.16 102.71 102.19 102.7 102.23 102.7C102.69 102.9 103.21 102.94 103.73 102.81C103.9 102.77 104.08 102.68 104.25 102.58C104.31 102.58 104.37 102.57 104.43 102.56C104.7 102.7 104.99 102.79 105.31 102.81C105.46 102.82 105.62 102.81 105.79 102.78C106.26 103.02 106.82 103.08 107.24 102.71C107.36 102.61 107.44 102.48 107.52 102.34C107.58 102.33 107.64 102.32 107.71 102.31C107.79 102.3 107.88 102.28 107.97 102.26C108.18 102.27 108.4 102.26 108.64 102.24C108.74 102.24 108.84 102.22 108.95 102.2C109.38 102.47 109.94 102.6 110.36 102.32C110.37 102.32 110.38 102.33 110.39 102.33C110.77 102.45 111.28 102.44 111.7 102.27C111.97 102.52 112.3 102.67 112.7 102.6C112.89 102.57 113.06 102.47 113.23 102.36C113.25 102.45 113.29 102.53 113.32 102.61C113.29 102.83 113.3 103.05 113.37 103.22C113.45 103.42 113.56 103.59 113.69 103.74C113.67 103.8 113.64 103.85 113.63 103.91C113.51 104.3 113.57 104.85 113.84 105.2C113.84 105.23 113.83 105.25 113.83 105.28C113.82 105.37 113.83 105.48 113.85 105.58C113.75 105.76 113.67 105.95 113.62 106.15C113.58 106.32 113.57 106.52 113.59 106.72C113.45 107.35 113.62 108 114.03 108.52C114.03 108.56 114.03 108.61 114.03 108.65C113.53 109.25 113.29 110.42 114.08 110.92C114.08 110.95 114.08 110.98 114.08 111.01C114.04 111.16 114.02 111.32 114.03 111.45C114.07 111.95 114.29 112.37 114.62 112.67C114.63 112.81 114.65 112.94 114.7 113.07C114.52 113.53 114.56 114.02 114.77 114.44V114.45C114.73 114.78 114.78 115.08 114.92 115.34C114.79 115.82 114.88 116.27 115.13 116.63C115.09 116.7 115.06 116.77 115.03 116.84C114.93 117.13 114.92 117.51 115.02 117.84C114.84 118.24 114.8 118.74 115.06 119.08C114.91 119.33 114.81 119.59 114.8 119.83C114.76 120.55 115.06 121.17 115.55 121.57C115.48 121.7 115.43 121.84 115.4 121.99C115.22 122 115.05 122.03 114.91 122.09C114.84 122.12 114.78 122.16 114.71 122.2C114.6 122.19 114.5 122.17 114.4 122.18C114.14 122.21 113.91 122.28 113.7 122.38C113.29 122.29 112.77 122.37 112.47 122.58C112.35 122.66 112.25 122.75 112.16 122.85C112 122.86 111.85 122.89 111.7 122.94C111.65 122.91 111.61 122.88 111.55 122.86C111.5 122.83 111.43 122.81 111.37 122.78C111.35 122.76 111.35 122.72 111.33 122.7C110.94 122.31 110.1 122.16 109.59 122.34C109.24 122.46 108.96 122.66 108.74 122.91C108.55 122.88 108.37 122.88 108.2 122.92Z" fill="#FF8412"/>
<path d="M56.8101 44.28C56.8101 44.28 63.6701 9.14996 104.44 16.75C141.37 23.63 139.23 58.98 127.7 67.54C142.21 71.26 140.91 88.56 137.93 97.87C134.95 107.17 128.57 118.9 101.14 116.67C90.4601 114.81 86.2101 110.89 83.2301 104.57C83.2301 104.57 48.4401 124.94 30.0201 95.27C10.0101 63.02 46.7601 39.81 56.8101 44.28Z" fill="#FFEA62"/>
<path d="M141.58 85.21C141.53 85.11 141.44 85.01 141.35 84.92C141.38 84.41 141.25 83.87 140.94 83.56C141 83.4 141.02 83.22 140.98 83.03C140.9 82.67 140.64 82.39 140.31 82.1C140.42 81.76 140.44 81.39 140.29 81.12C140.19 80.93 139.99 80.77 139.76 80.65C139.76 80.63 139.75 80.62 139.75 80.6C139.99 80.35 140.12 80.03 140.01 79.67C139.98 79.58 139.93 79.5 139.88 79.42C140.06 79.18 140.17 78.9 140.16 78.64C140.15 78.3 139.92 77.91 139.64 77.63C139.68 77.28 139.6 76.86 139.43 76.51C139.38 76.25 139.26 76 139.1 75.81C139.21 75.53 139.23 75.22 139.03 74.94C138.96 74.84 138.86 74.76 138.76 74.69C138.67 74.42 138.53 74.14 138.38 73.85C138.19 73.41 137.68 72.95 137.17 72.81C136.89 72.48 136.49 72.22 136.12 72.22C136.08 72.22 136.03 72.24 135.98 72.25C135.92 72.19 135.86 72.14 135.8 72.09C135.66 71.87 135.47 71.68 135.28 71.59C135.27 71.59 135.26 71.58 135.25 71.58C135.21 71.48 135.18 71.38 135.14 71.28C134.95 70.66 134.22 69.93 133.53 69.91C133.49 69.88 133.45 69.83 133.4 69.81C133.4 69.81 133.4 69.81 133.39 69.81L133.38 69.8C133.1 69.51 132.68 69.41 132.19 69.35C132.02 68.93 131.66 68.51 131.25 68.43C131.17 68.42 131.09 68.43 131 68.43C130.93 68.35 130.85 68.27 130.76 68.19C130.64 68.02 130.5 67.84 130.34 67.66C130.24 67.52 130.1 67.39 129.93 67.28C129.88 67.21 129.82 67.13 129.77 67.06C129.77 67.04 129.77 67.02 129.76 67C129.78 66.97 129.8 66.95 129.81 66.92C130.04 66.84 130.24 66.68 130.34 66.42C130.37 66.33 130.39 66.24 130.39 66.14C130.41 66.13 130.42 66.13 130.44 66.12C130.83 65.99 131.25 65.62 131.48 65.2C132.08 64.88 132.57 64.26 132.34 63.58C132.33 63.55 132.31 63.52 132.29 63.49C132.33 63.42 132.37 63.36 132.4 63.29C132.76 63.15 133.08 62.88 133.21 62.54C133.85 62.24 134.43 61.58 134.16 60.85C134.15 60.84 134.14 60.82 134.14 60.81C134.22 60.69 134.29 60.57 134.31 60.44C134.31 60.43 134.31 60.43 134.31 60.42C134.84 60.1 135.28 59.47 134.98 58.87C134.96 58.82 134.92 58.78 134.89 58.74C134.91 58.57 134.93 58.38 134.94 58.19C134.94 58.17 134.94 58.14 134.94 58.12C135.14 57.96 135.29 57.76 135.35 57.54C135.41 57.3 135.36 56.99 135.25 56.72C135.29 56.6 135.32 56.48 135.36 56.36C135.45 56.1 135.47 55.76 135.41 55.43C135.42 55.37 135.43 55.3 135.44 55.24C135.82 55 136.15 54.65 136.22 54.26C136.3 53.85 136.11 53.3 135.82 52.93C135.85 52.81 135.87 52.69 135.86 52.58C135.85 52.54 135.83 52.5 135.82 52.46C136.08 52.11 136.22 51.5 136.11 51.02C136.23 50.79 136.29 50.54 136.25 50.31C136.22 50.18 136.15 50.06 136.06 49.93C136.16 49.68 136.2 49.38 136.16 49.09C136.41 48.75 136.55 48.28 136.37 47.91C136.43 47.81 136.48 47.7 136.49 47.59C136.51 47.4 136.45 47.18 136.35 46.99C136.64 46.44 136.75 45.64 136.41 45.16C136.31 45.02 136.15 44.9 135.98 44.8C135.9 44.65 135.81 44.5 135.7 44.41C135.67 44.39 135.65 44.37 135.62 44.35C135.59 44.24 135.55 44.13 135.5 44.01C135.72 43.75 135.86 43.44 135.86 43.15C135.86 43.01 135.81 42.86 135.75 42.72C135.76 42.67 135.77 42.62 135.77 42.57C135.75 42.03 135.37 41.57 134.91 41.06C134.91 41.05 134.92 41.05 134.92 41.05C135.07 40.53 134.83 39.97 134.55 39.33C134.52 39.25 134.48 39.17 134.44 39.09C134.48 38.96 134.49 38.83 134.48 38.7C134.58 38.55 134.65 38.39 134.67 38.22C134.74 37.68 134.36 36.94 133.92 36.65C133.91 36.64 133.9 36.64 133.89 36.64C133.88 36.46 133.82 36.29 133.68 36.15C133.61 36.07 133.53 36.01 133.44 35.96C133.79 35.6 134 35.13 133.82 34.62C133.62 34.07 133.07 33.73 132.42 33.34C132.37 33.31 132.3 33.29 132.24 33.26C132.19 33.22 132.15 33.17 132.1 33.14C132.12 32.98 132.12 32.83 132.09 32.69C131.98 32.29 131.56 31.9 131.15 31.73C131 31.17 130.47 30.52 129.88 30.32C129.8 30.09 129.64 29.86 129.45 29.68C129.34 29.39 129.11 29.15 128.83 28.94C128.87 28.58 128.78 28.23 128.5 27.95C128.37 27.82 128.2 27.73 128.02 27.66C127.97 27.45 127.87 27.26 127.69 27.09C127.58 26.99 127.45 26.91 127.31 26.86C127.27 26.77 127.23 26.68 127.16 26.59C126.91 26.26 126.51 26.1 126.04 25.98C126.04 25.95 126.04 25.92 126.04 25.89C125.93 25.31 125.42 24.89 124.83 24.4C124.82 24.39 124.8 24.38 124.79 24.37C124.54 24 124.08 23.84 123.55 23.67C123.53 23.62 123.5 23.57 123.48 23.52C123.35 23.23 123.04 22.94 122.7 22.78C122.63 22.7 122.55 22.62 122.47 22.54C122.18 22.2 121.6 21.93 121.1 21.95C120.95 21.46 120.63 21 120.21 20.84C119.84 20.7 119.31 20.77 118.9 20.95C118.68 20.79 118.43 20.65 118.16 20.49C117.96 20.36 117.69 20.28 117.4 20.24C117.27 20.1 117.12 19.98 116.95 19.93C116.83 19.89 116.7 19.88 116.55 19.89C116.34 19.76 116.1 19.66 115.87 19.63C115.73 19.5 115.59 19.38 115.45 19.32C115.07 19.16 114.7 19.12 114.34 19.18C114.31 19.16 114.28 19.14 114.25 19.12C114.19 19.01 114.12 18.9 114.02 18.81C113.81 18.62 113.54 18.53 113.24 18.48C113.2 18.43 113.17 18.38 113.12 18.34C112.74 18 112.19 17.94 111.56 17.92C111.41 17.81 111.25 17.74 111.09 17.69C111.07 17.66 111.07 17.61 111.05 17.58C110.75 17.14 109.97 16.85 109.45 16.93C109.26 16.96 109.09 17.02 108.93 17.09C108.69 16.91 108.42 16.8 108.16 16.83C108.09 16.84 108.01 16.87 107.93 16.9C107.78 16.87 107.62 16.84 107.44 16.82C107.31 16.38 107.03 15.94 106.71 15.73C106.18 15.39 105.59 15.3 105.05 15.43C104.82 15.39 104.57 15.36 104.3 15.34C104.15 15.32 103.98 15.32 103.81 15.35C103.45 15.11 103 14.98 102.64 15.09C102.61 15.1 102.58 15.13 102.55 15.14C102.48 15.12 102.4 15.11 102.33 15.09C102.07 15.02 101.75 15.02 101.43 15.08C101.38 15.08 101.33 15.06 101.28 15.06C100.99 15.08 100.73 15.16 100.5 15.28C100.39 15.25 100.28 15.23 100.16 15.2C99.64 15.05 98.83 15.19 98.41 15.59C98.09 15.34 97.64 15.19 97.28 15.28C96.75 14.97 95.81 14.9 95.34 15.32C95.28 15.37 95.24 15.45 95.19 15.52C95.05 15.47 94.92 15.44 94.78 15.43C94.72 15.38 94.65 15.32 94.59 15.29C93.93 14.95 93.23 14.99 92.66 15.31C92.39 15.18 92.1 15.11 91.85 15.19C91.84 15.19 91.83 15.2 91.81 15.21C91.4 14.97 90.9 14.84 90.51 14.99C90.44 15.02 90.37 15.07 90.31 15.12C90.25 15.12 90.2 15.11 90.15 15.1C89.86 15.06 89.51 15.11 89.18 15.23C88.97 15.1 88.74 15 88.53 14.98C87.84 14.91 87.25 15.16 86.83 15.6C86.45 15.13 85.58 14.76 85.01 15C84.96 15.02 84.91 15.07 84.86 15.1C84.56 15.09 84.21 15.2 83.95 15.39C83.84 15.38 83.74 15.38 83.65 15.4C83.28 15.47 82.98 15.66 82.76 15.91C82.72 15.9 82.68 15.88 82.63 15.88C82.47 15.75 82.3 15.65 82.11 15.6C81.55 15.47 80.73 15.8 80.38 16.24C80.23 16.43 80.13 16.63 80.05 16.84C79.97 16.89 79.9 16.96 79.83 17.02C79.23 16.88 78.39 17.04 78.04 17.51C77.96 17.62 77.9 17.77 77.85 17.93C77.79 17.96 77.73 17.97 77.68 18.01C77.61 18.07 77.54 18.16 77.49 18.26C77.2 18.26 76.88 18.35 76.63 18.5C76.04 18.45 75.21 18.77 74.96 19.32C74.94 19.36 74.94 19.41 74.93 19.45C74.64 19.42 74.27 19.55 74.01 19.75C73.53 19.59 72.97 19.56 72.6 19.81C72.4 19.94 72.24 20.17 72.13 20.43C71.8 20.42 71.45 20.48 71.21 20.61C70.88 20.8 70.63 21.06 70.46 21.35C70.29 21.41 70.14 21.49 70.03 21.59C70.02 21.6 70.02 21.6 70.01 21.61C69.59 21.62 69.11 21.83 68.87 22.12C68.7 22.33 68.58 22.55 68.52 22.79C68.11 22.9 67.7 23.15 67.5 23.49C67.36 23.6 67.24 23.72 67.14 23.85C66.72 24.03 66.31 24.4 66.16 24.77C66.02 25.09 65.98 25.42 66 25.73C65.19 25.99 64.64 26.7 64.55 27.58C64.09 27.59 63.56 27.78 63.28 28.12C63.09 28.16 62.92 28.23 62.78 28.34C62.49 28.57 62.29 29.03 62.24 29.46C62.01 29.72 61.86 30.08 61.84 30.38C61.65 30.54 61.49 30.79 61.42 31.04C61.02 31.11 60.62 31.3 60.45 31.62C60.41 31.69 60.4 31.77 60.38 31.85C59.96 32.03 59.59 32.34 59.46 32.71C59.35 33.04 59.43 33.48 59.59 33.86C59.58 33.88 59.57 33.9 59.56 33.91C59.51 34.01 59.48 34.12 59.46 34.24C59.29 34.48 59.19 34.75 59.17 35.02C59.02 35.12 58.88 35.24 58.75 35.39C58.62 35.42 58.5 35.46 58.39 35.52C57.94 35.81 57.62 36.57 57.68 37.09C57.7 37.24 57.73 37.38 57.78 37.51C57.76 37.56 57.74 37.6 57.72 37.65C57.22 37.99 56.87 38.53 56.75 39.17C56.71 39.37 56.71 39.6 56.74 39.82C56.72 39.88 56.69 39.93 56.67 40C56.4 40.28 56.23 40.76 56.28 41.11C56.29 41.18 56.31 41.24 56.33 41.3C56.24 41.37 56.16 41.44 56.11 41.53C56.02 41.69 55.99 41.91 56 42.14C55.92 42.21 55.86 42.28 55.79 42.36C55.26 42.22 54.47 42.52 54.13 42.94C54.06 43.03 54 43.12 53.94 43.22C53.88 43.24 53.83 43.27 53.77 43.29C53.76 43.29 53.74 43.28 53.73 43.28C53.39 42.93 52.83 42.67 52.4 42.68C51.86 42.69 51.39 42.89 51.03 43.21C50.99 43.21 50.95 43.21 50.92 43.22C50.85 43.24 50.79 43.28 50.73 43.31C50.59 43.25 50.45 43.2 50.32 43.19C50.14 43.18 49.97 43.2 49.8 43.23C49.71 43.15 49.62 43.07 49.51 43.03C49.06 42.83 48.31 42.98 47.94 43.3C47.85 43.38 47.77 43.47 47.7 43.55C47.48 43.51 47.26 43.5 47.07 43.58C46.78 43.71 46.53 44.04 46.4 44.38C46.35 44.41 46.29 44.43 46.25 44.46C45.77 44.26 45.19 44.2 44.8 44.44C44.52 44.61 44.29 44.96 44.16 45.33C43.96 45.48 43.79 45.66 43.71 45.85C43.71 45.86 43.7 45.87 43.7 45.88C43.49 45.95 43.31 46.05 43.14 46.19C43.09 46.19 43.04 46.18 42.99 46.18C42.37 46.1 41.43 46.48 41.18 47.09C41.14 47.18 41.13 47.29 41.12 47.4C40.87 47.44 40.62 47.53 40.46 47.67C40.38 47.74 40.31 47.81 40.25 47.89C39.96 47.92 39.66 48.02 39.48 48.19C39.46 48.2 39.45 48.22 39.44 48.23C39.3 48.23 39.17 48.25 39.06 48.29C38.87 48.35 38.71 48.44 38.56 48.55C38.2 48.41 37.81 48.36 37.49 48.48C37.14 48.61 36.82 48.98 36.62 49.36C36.4 49.49 36.21 49.65 36.1 49.83C35.95 50.07 35.86 50.32 35.83 50.57C35.74 50.61 35.65 50.64 35.58 50.7C35.36 50.9 35.22 51.28 35.21 51.62C35.17 51.66 35.15 51.71 35.11 51.75C34.94 51.78 34.78 51.83 34.66 51.9C34.35 52.09 34.12 52.34 33.97 52.63C33.38 52.89 32.92 53.39 32.7 54.05C32.67 54.15 32.64 54.26 32.63 54.37C32.27 54.39 31.92 54.51 31.7 54.74C31.47 54.99 31.36 55.43 31.37 55.83C31.19 56.06 31.07 56.33 31.02 56.62C30.88 56.75 30.77 56.9 30.69 57.06C30.41 57.17 30.17 57.35 29.99 57.58C29.43 57.79 29.03 58.2 28.83 58.71C28.79 58.73 28.73 58.73 28.69 58.75C28.36 58.95 28.13 59.46 28.12 59.87C28.09 59.9 28.05 59.93 28.02 59.96C27.96 60.04 27.9 60.13 27.86 60.22C27.29 60.25 26.62 60.55 26.4 61.04C26.28 61.31 26.29 61.68 26.37 62.02C26.06 62.27 25.81 62.6 25.72 62.92C25.57 63.45 25.63 63.97 25.83 64.41C25.52 64.54 25.25 64.73 25.11 64.99C24.85 65.47 24.94 66.3 25.26 66.73C25.3 66.78 25.34 66.82 25.38 66.86C25.38 66.9 25.38 66.95 25.39 66.99C25.31 67.09 25.24 67.19 25.18 67.3C24.8 67.56 24.49 68.02 24.42 68.41C24.34 68.88 24.41 69.31 24.59 69.69C24.56 69.75 24.53 69.8 24.51 69.86C24.38 70.18 24.35 70.62 24.47 70.99C24.45 71.04 24.43 71.08 24.42 71.13C24.41 71.16 24.41 71.18 24.41 71.21C24.03 71.65 23.89 72.25 24.04 72.85C24.04 72.86 24.05 72.87 24.05 72.88C24.03 72.91 24.01 72.93 24 72.96C23.91 73.13 23.85 73.36 23.85 73.58C23.73 73.72 23.62 73.89 23.54 74.07C23.46 74.26 23.42 74.49 23.43 74.73C23.29 74.95 23.19 75.2 23.15 75.48C23.13 75.6 23.14 75.74 23.15 75.88C23.12 75.93 23.09 75.98 23.06 76.04C22.82 76.15 22.61 76.31 22.48 76.51C22.2 76.97 22.25 77.8 22.54 78.24C22.64 78.39 22.75 78.51 22.87 78.62C22.86 78.86 22.88 79.11 22.95 79.35C23.08 79.82 23.45 80.34 23.92 80.62C23.91 80.7 23.9 80.79 23.9 80.88C23.9 81.04 23.93 81.22 23.98 81.39C23.72 82.1 23.88 83.24 24.73 83.48C24.81 83.59 24.9 83.68 25.01 83.77C24.92 83.95 24.86 84.13 24.84 84.3C24.8 84.76 24.91 85.17 25.12 85.52C25.1 85.83 25.16 86.14 25.28 86.37C25.38 86.55 25.51 86.7 25.64 86.84C25.63 87.18 25.69 87.52 25.83 87.85C25.95 88.13 26.17 88.41 26.44 88.63C26.5 88.81 26.6 88.99 26.72 89.13C26.65 89.23 26.58 89.34 26.52 89.46C26.13 90.23 26.18 91.6 27.18 91.92C27.29 91.95 27.4 91.96 27.51 91.97C27.54 92 27.57 92.03 27.61 92.06C27.48 92.33 27.41 92.63 27.43 92.87C27.47 93.41 27.7 93.86 28.04 94.2C28.07 94.41 28.14 94.61 28.24 94.76C28.38 94.96 28.56 95.12 28.75 95.23C28.7 95.6 28.8 96.06 29.07 96.32C29.09 96.39 29.11 96.46 29.14 96.51C29.34 96.84 29.61 97.08 29.92 97.23C29.98 97.47 30.09 97.7 30.23 97.91C30.36 98.1 30.54 98.27 30.75 98.42C30.83 98.57 30.94 98.7 31.11 98.79C31.29 98.89 31.5 98.92 31.72 98.92C31.82 99.24 32.01 99.56 32.27 99.76C32.52 100.18 32.92 100.5 33.4 100.67C33.47 100.75 33.55 100.83 33.63 100.9C33.75 101.36 34.01 101.79 34.4 102.12C34.42 102.13 34.44 102.15 34.45 102.16C34.53 102.35 34.65 102.52 34.85 102.64C35.05 102.76 35.28 102.8 35.53 102.81C35.61 102.98 35.71 103.15 35.83 103.3C36.04 103.56 36.38 103.78 36.74 103.9C36.86 104.06 37 104.19 37.18 104.26C37.2 104.32 37.22 104.39 37.25 104.45C37.29 104.53 37.34 104.61 37.39 104.68C37.38 105.39 37.69 106.19 38.46 106.31H38.47C38.66 106.73 39.01 107.06 39.5 107.08C39.62 107.08 39.74 107.06 39.86 107.03C39.95 107.39 40.12 107.75 40.38 108.05C40.64 108.36 41.07 108.62 41.52 108.73C41.6 108.97 41.75 109.18 41.99 109.32C42.32 109.5 42.72 109.5 43.16 109.43C43.59 109.98 44.41 110.41 45.07 110.08C45.19 110.1 45.31 110.11 45.44 110.07C45.59 110.03 45.72 109.95 45.84 109.86C45.95 109.95 46.06 110.02 46.18 110.07C46.55 110.45 47.06 110.69 47.64 110.73C47.88 110.75 48.15 110.71 48.41 110.63C48.49 110.64 48.57 110.64 48.65 110.64C48.73 110.71 48.81 110.78 48.9 110.84C49.06 111.36 49.42 111.8 50 111.85C50.37 111.88 50.73 111.73 51.1 111.52C51.23 111.53 51.37 111.51 51.52 111.48C51.76 111.74 52.05 111.95 52.4 112.08C52.79 112.23 53.32 112.26 53.78 112.12C54.13 112.59 54.71 112.93 55.26 112.7C55.51 112.79 55.78 112.84 56.06 112.83C56.08 112.85 56.1 112.87 56.13 112.89C56.78 113.4 58.08 113.62 58.57 112.74C58.6 112.68 58.61 112.62 58.63 112.56C58.72 112.49 58.81 112.42 58.9 112.35C58.98 112.37 59.06 112.4 59.15 112.41C59.23 112.42 59.31 112.43 59.39 112.43C59.51 112.51 59.64 112.59 59.77 112.65C60.43 112.95 61.51 112.9 61.94 112.23C62.06 112.19 62.17 112.14 62.28 112.08C62.3 112.07 62.31 112.06 62.33 112.05C62.44 112.05 62.54 112.04 62.65 112.02C62.94 112.14 63.25 112.17 63.56 112.14C64.01 112.57 64.64 112.82 65.21 112.48C65.52 112.3 65.72 111.98 65.89 111.6C66.22 111.78 66.6 111.88 67.01 111.88C67.48 111.88 68.06 111.65 68.42 111.27C68.51 111.24 68.61 111.19 68.71 111.13C68.83 111.25 68.97 111.34 69.15 111.39C69.43 111.46 69.72 111.4 70.03 111.29C70.14 111.34 70.26 111.38 70.39 111.39C70.86 111.43 71.3 111.17 71.78 110.84C72.13 110.96 72.52 110.99 72.86 110.9C73.05 110.92 73.24 110.91 73.44 110.82C73.68 110.72 73.87 110.53 74.04 110.31C74.38 110.21 74.68 109.99 74.98 109.69C75.65 109.86 76.52 109.71 76.77 109C77.33 109.25 78.01 109.28 78.41 108.76C78.55 108.57 78.62 108.35 78.66 108.1C78.73 108.06 78.81 108.02 78.89 107.98C78.97 107.95 79.04 107.88 79.11 107.83C79.56 107.94 80.15 107.85 80.43 107.46C80.69 107.46 81 107.37 81.26 107.22C81.82 107.28 82.51 107.09 82.81 106.6C82.87 106.91 82.99 107.21 83.18 107.49C83.25 107.59 83.34 107.69 83.44 107.78C83.5 108 83.61 108.2 83.83 108.35C83.87 108.38 83.92 108.39 83.96 108.41C83.97 108.79 84.11 109.15 84.46 109.37C84.54 109.42 84.64 109.45 84.73 109.48C84.79 109.89 84.98 110.25 85.4 110.42C85.58 110.49 85.77 110.5 85.96 110.49C86.02 110.63 86.1 110.76 86.19 110.88C86.3 111.16 86.47 111.39 86.67 111.58C86.61 112.32 86.9 113.19 87.69 113.34C87.84 113.49 88 113.61 88.17 113.7C88.26 113.92 88.41 114.11 88.63 114.25C89.14 114.56 89.8 114.47 90.55 114.37C90.59 114.37 90.64 114.36 90.68 114.35C90.91 114.98 91.45 115.57 92.16 115.43C92.17 115.43 92.19 115.42 92.2 115.41C92.44 115.64 92.76 115.79 93.12 115.72C93.26 115.7 93.39 115.64 93.51 115.58C93.82 115.74 94.17 115.82 94.54 115.82C94.55 115.82 94.57 115.82 94.58 115.82C94.68 115.89 94.79 115.95 94.91 115.97C95.31 116.41 95.9 116.68 96.55 116.69C96.55 116.69 96.55 116.69 96.56 116.69C96.77 116.86 97.02 116.99 97.28 117.05C97.45 117.2 97.64 117.33 97.86 117.43C98.08 117.53 98.34 117.59 98.61 117.61C98.68 117.7 98.76 117.79 98.87 117.86C99.33 118.18 99.95 118.12 100.67 118.06C100.68 118.06 100.7 118.06 100.71 118.06C100.92 118.23 101.18 118.32 101.47 118.25C101.66 118.2 101.82 118.09 101.97 117.94C101.98 117.95 102 117.96 102.01 117.97C102.47 118.24 103.24 118.3 103.67 117.92C103.76 117.91 103.86 117.89 103.95 117.87C104.38 118.07 104.9 118.11 105.39 117.95C105.45 117.93 105.51 117.9 105.56 117.88C105.89 118 106.27 118.02 106.58 117.89C106.87 118.32 107.3 118.63 107.85 118.54C108.23 118.47 108.55 118.22 108.86 117.9C108.94 117.93 109.03 117.95 109.12 117.97C109.28 118.09 109.48 118.17 109.71 118.17C109.89 118.17 110.07 118.12 110.24 118.04C110.46 118.22 110.73 118.32 111.05 118.28C111.36 118.24 111.63 118.07 111.89 117.84C112.18 117.92 112.49 117.95 112.81 117.91C112.91 117.9 113.01 117.87 113.12 117.84C113.53 118 114.01 118.04 114.37 117.82C114.64 117.85 114.92 117.83 115.2 117.76C115.42 117.7 115.64 117.59 115.85 117.45C115.93 117.45 116 117.43 116.09 117.41C116.34 117.42 116.61 117.39 116.91 117.34C117.17 117.51 117.47 117.63 117.81 117.68C118.26 117.74 118.84 117.6 119.24 117.29C119.44 117.37 119.66 117.38 119.9 117.32C120.32 117.2 120.63 116.87 120.93 116.44C121.01 116.43 121.09 116.42 121.18 116.4C121.56 116.36 122.03 116.13 122.35 115.81C122.65 115.75 122.96 115.6 123.18 115.38C123.41 115.36 123.65 115.29 123.85 115.18C124.34 115.25 124.99 115.09 125.35 114.7C125.73 114.89 126.15 114.94 126.54 114.69C126.77 114.54 126.93 114.32 127.06 114.06C127.32 114.2 127.61 114.27 127.94 114.19C128.32 114.09 128.61 113.82 128.9 113.47C129.47 113.57 130.08 113.46 130.38 112.92C130.54 112.65 130.57 112.33 130.56 111.99C130.9 111.83 131.16 111.56 131.21 111.17C131.22 111.16 131.24 111.15 131.25 111.14C131.31 111.07 131.34 111 131.38 110.92C131.68 110.73 131.98 110.46 132.29 110.15C132.31 110.13 132.33 110.11 132.35 110.09C132.76 110.05 133.14 109.87 133.33 109.46C133.4 109.31 133.42 109.15 133.43 108.99C133.5 108.94 133.56 108.88 133.62 108.81C133.83 108.54 133.87 108.19 133.88 107.78C134.28 107.65 134.63 107.36 134.66 106.94C134.76 106.81 134.86 106.65 134.95 106.48C135.11 106.41 135.27 106.33 135.45 106.25C135.8 106.11 136.17 105.73 136.33 105.32C136.36 105.3 136.39 105.29 136.42 105.26C136.98 104.84 137.46 103.89 137.09 103.2C137.13 103.15 137.18 103.1 137.21 103.03C137.27 102.92 137.29 102.8 137.3 102.68C137.91 102.52 138.48 102.09 138.45 101.42C138.44 101.26 138.39 101.11 138.33 100.96C138.39 100.82 138.44 100.68 138.5 100.53C138.51 100.51 138.52 100.48 138.53 100.46C139.22 100.05 139.85 99.04 139.37 98.26C139.37 98.25 139.37 98.24 139.38 98.22C139.44 97.98 139.43 97.67 139.36 97.37C139.57 97.25 139.75 97.06 139.82 96.79C139.9 96.49 139.84 96.17 139.72 95.84C140.17 95.44 140.47 94.8 140.13 94.25C140.12 94.23 140.1 94.22 140.09 94.2C140.09 94.12 140.09 94.04 140.09 93.95C140.42 93.73 140.66 93.39 140.62 92.96C140.6 92.69 140.47 92.45 140.28 92.21C140.43 91.99 140.5 91.73 140.4 91.46C140.36 91.35 140.3 91.26 140.23 91.17C140.47 90.85 140.59 90.3 140.46 89.88C140.47 89.71 140.46 89.53 140.45 89.34C140.45 89.33 140.45 89.32 140.45 89.32C140.5 89.26 140.54 89.21 140.59 89.15C140.66 89.07 140.72 88.96 140.78 88.85C141.01 88.73 141.21 88.54 141.29 88.26C141.39 87.92 141.31 87.57 141.18 87.18C141.62 86.63 141.87 85.77 141.58 85.21ZM115.16 114.55C114.79 114.33 114.22 114.26 113.72 114.35C113.44 114.32 113.11 114.4 112.83 114.55C112.33 114.32 111.66 114.27 111.2 114.52C111.03 114.56 110.87 114.61 110.73 114.69C110.71 114.69 110.68 114.67 110.66 114.67C110.32 114.64 110.01 114.71 109.74 114.83C109.62 114.75 109.5 114.69 109.37 114.66C109.27 114.64 109.17 114.65 109.06 114.66C108.78 114.53 108.47 114.46 108.22 114.49C107.77 114.53 107.39 114.7 107.08 114.95C106.9 114.89 106.73 114.85 106.56 114.89C106.46 114.91 106.37 114.96 106.27 115.01C106.17 114.96 106.07 114.91 105.96 114.9C105.74 114.88 105.48 114.96 105.26 115.09C105.25 115.09 105.25 115.08 105.24 115.08C104.74 114.82 103.86 114.83 103.42 115.22C103.37 115.22 103.33 115.22 103.28 115.23C103.06 115.04 102.8 114.91 102.54 114.9C102.31 114.9 102.05 115.01 101.82 115.17C101.36 114.82 100.84 114.7 100.34 114.76C100.17 114.59 99.94 114.45 99.68 114.35C99.32 113.86 98.7 113.43 98.15 113.48C98.06 113.49 97.96 113.53 97.86 113.56C97.72 113.53 97.58 113.53 97.43 113.54C97.41 113.53 97.4 113.51 97.39 113.5C96.97 113.06 96.06 112.75 95.44 112.97C95.38 112.91 95.31 112.86 95.25 112.8C95.11 112.66 94.9 112.54 94.68 112.44C94.42 112.22 94.06 112.07 93.73 112.03C93.38 111.71 92.82 111.51 92.41 111.56C92.28 111.58 92.15 111.61 92.03 111.64C91.92 111.49 91.81 111.35 91.68 111.26C91.34 111.02 90.97 110.89 90.61 110.85C90.5 110.32 89.89 109.74 89.38 109.61C89.34 109.6 89.31 109.6 89.27 109.59C89.1 109.44 88.92 109.29 88.72 109.14C88.71 109.13 88.69 109.12 88.68 109.11C88.66 108.91 88.62 108.72 88.51 108.58C88.49 108.56 88.46 108.54 88.44 108.52C88.36 108.09 88.04 107.63 87.68 107.42C87.56 107.12 87.37 106.85 87.16 106.69C87.05 106.61 86.93 106.54 86.81 106.49C86.71 106.28 86.59 106.09 86.44 105.98C86.38 105.94 86.32 105.9 86.27 105.87C86.25 105.24 85.93 104.48 85.4 104.23C85.26 104.16 85.09 104.13 84.91 104.12C84.87 104.07 84.83 104.02 84.79 103.98C84.55 103.67 84.16 103.46 83.7 103.23C83.22 102.94 82.31 102.91 81.89 103.32C81.81 103.4 81.73 103.51 81.68 103.63C81.58 103.67 81.49 103.72 81.4 103.77C81.16 103.68 80.9 103.65 80.68 103.71C80.34 103.8 80 104.13 79.8 104.48C79.64 104.49 79.48 104.52 79.35 104.6C79.21 104.69 79.08 104.84 78.98 105.01C78.72 105.06 78.46 105.25 78.27 105.49C78.2 105.5 78.14 105.51 78.07 105.53C77.96 105.44 77.83 105.36 77.7 105.32C77.21 105.18 76.46 105.43 76.13 105.8C76 105.95 75.9 106.12 75.82 106.28C75.55 106.08 75.25 105.96 74.96 105.97C74.6 105.99 74.18 106.26 73.91 106.57C73.8 106.6 73.69 106.64 73.59 106.69C73.32 106.65 73.04 106.66 72.83 106.73C72.62 106.8 72.45 106.9 72.28 107.02C72.26 107.02 72.24 107.01 72.22 107C71.73 106.95 71.1 107.29 70.8 107.69C70.43 107.79 70.11 108 69.85 108.28C69.56 108.34 69.3 108.48 69.08 108.67C68.85 108.61 68.58 108.6 68.32 108.66C68.07 108.61 67.82 108.63 67.58 108.7C67.09 108.32 66.22 108.11 65.69 108.42C65.64 108.45 65.6 108.5 65.55 108.54C65.1 108.36 64.49 108.36 64.11 108.55C63.89 108.66 63.71 108.8 63.55 108.95C63.5 108.95 63.45 108.95 63.4 108.95C63.04 108.92 62.57 109.05 62.2 109.28C62.08 109.28 61.96 109.3 61.84 109.33C61.74 109.31 61.65 109.28 61.54 109.26C61.39 109.22 61.22 109.2 61.05 109.2C60.73 108.95 60.36 108.79 60.01 108.83C59.62 108.87 59.17 109.17 58.89 109.52C58.78 109.52 58.67 109.52 58.58 109.56C58.56 109.57 58.53 109.59 58.51 109.6C58.35 109.59 58.2 109.6 58.05 109.63C57.82 109.39 57.55 109.22 57.27 109.17C56.95 109.12 56.57 109.24 56.24 109.44C56.14 109.41 56.06 109.38 55.95 109.36C55.57 109.12 54.95 109.06 54.57 109.22C54.46 109.27 54.35 109.33 54.26 109.39C54.25 109.38 54.25 109.36 54.24 109.35C53.97 108.74 53.12 108.09 52.43 108.19C52.34 108.2 52.25 108.25 52.16 108.29C51.91 108.09 51.63 107.95 51.38 107.9C51.02 107.84 50.69 107.88 50.38 107.97C50.09 107.73 49.73 107.57 49.41 107.6C49.26 107.62 49.11 107.68 48.97 107.76C48.91 107.73 48.85 107.71 48.78 107.69C48.74 107.65 48.71 107.61 48.67 107.57C48.24 107.06 47.23 106.67 46.59 106.97C46.55 106.99 46.52 107.03 46.48 107.05C46.3 106.93 46.08 106.85 45.86 106.82C45.73 106.56 45.56 106.34 45.33 106.21C44.94 105.99 44.32 106.03 43.87 106.22C43.69 106.18 43.51 106.18 43.33 106.19C43.29 105.53 42.86 104.69 42.25 104.47C42.16 104.44 42.04 104.43 41.93 104.42C41.92 104.38 41.92 104.34 41.91 104.31C41.8 104 41.5 103.72 41.18 103.52C40.96 103.07 40.47 102.64 40.03 102.54C39.94 102.52 39.86 102.51 39.77 102.51C39.68 102.31 39.57 102.12 39.41 102.02C39.27 101.92 39.07 101.88 38.87 101.86C38.77 101.74 38.64 101.63 38.47 101.55C38.4 100.98 38.05 100.32 37.54 100.13C37.49 100.11 37.42 100.11 37.36 100.1C37.35 100.09 37.35 100.08 37.34 100.08C37.25 100.02 37.16 99.97 37.07 99.92C36.97 99.24 36.39 98.39 35.71 98.27C35.62 98.25 35.51 98.27 35.41 98.27C35.31 98.12 35.19 97.96 35.07 97.79C34.92 97.56 34.68 97.34 34.39 97.18C34.25 96.98 33.99 96.82 33.72 96.73C33.61 96.55 33.48 96.39 33.33 96.29C33.26 96.25 33.19 96.22 33.12 96.18C33.06 95.62 32.77 95 32.32 94.78C32.14 94.69 31.91 94.67 31.68 94.67C31.55 94.62 31.41 94.57 31.27 94.53C31.25 94.48 31.23 94.43 31.19 94.39C31.3 94.16 31.36 93.91 31.32 93.67C31.38 93.5 31.42 93.33 31.39 93.13C31.31 92.61 30.9 92.21 30.42 91.77C30.41 91.7 30.39 91.63 30.36 91.57C30.45 91.39 30.5 91.18 30.45 90.95C30.42 90.79 30.34 90.66 30.25 90.52C30.41 90.26 30.51 89.98 30.49 89.71C30.46 89.14 29.91 88.44 29.38 88.23C29.22 88.17 29.06 88.13 28.9 88.1C29.04 87.77 29.07 87.37 28.94 87.07C29.06 86.7 29.06 86.19 28.92 85.76C28.95 85.52 28.92 85.28 28.77 85.06C28.72 84.98 28.64 84.91 28.57 84.84C28.46 84.41 28.14 84.01 27.78 83.56C27.74 83.51 27.69 83.45 27.65 83.4C27.65 83.35 27.63 83.31 27.63 83.27C27.72 83.09 27.77 82.88 27.72 82.65C27.67 82.43 27.55 82.23 27.39 82.05C27.53 81.79 27.61 81.51 27.57 81.25C27.51 80.87 27.19 80.44 26.82 80.2C26.82 80.02 26.8 79.85 26.72 79.7C26.63 79.54 26.46 79.4 26.26 79.28C26.26 79.22 26.26 79.17 26.25 79.11C26.25 79.11 26.25 79.1 26.26 79.1C26.52 78.64 26.59 77.88 26.37 77.32C26.39 77.05 26.34 76.79 26.16 76.55C26.1 76.47 26.02 76.41 25.94 76.35C25.97 76.2 25.97 76.06 25.94 75.93C26.16 75.6 26.27 75.19 26.21 74.84C26.39 74.59 26.5 74.31 26.46 74.05C26.45 73.93 26.4 73.81 26.33 73.69C26.45 73.52 26.54 73.33 26.53 73.14C26.53 73.11 26.51 73.08 26.51 73.05C26.57 72.94 26.63 72.83 26.69 72.71C26.88 72.4 26.94 71.93 26.87 71.51C26.98 71.33 27.04 71.14 27.05 70.95C27.15 70.86 27.23 70.77 27.31 70.66C27.75 70.49 28.11 70.16 28.16 69.66C28.2 69.26 28.03 68.88 27.79 68.48C27.91 68.27 27.99 67.98 28 67.69C28.12 67.54 28.2 67.36 28.19 67.14C28.19 67.13 28.18 67.11 28.18 67.1C28.71 66.74 29.16 66 29.02 65.34C29.26 65.17 29.44 64.94 29.51 64.62C29.61 64.11 29.38 63.59 29.08 63.02C29.17 62.97 29.26 62.92 29.35 62.86C29.78 62.55 30.15 61.94 30.13 61.37C30.46 61.3 30.8 61.12 31.03 60.86C31.27 60.63 31.48 60.33 31.71 60C31.85 59.82 31.95 59.56 32.02 59.29C32.06 59.25 32.09 59.21 32.13 59.17C32.24 59.06 32.32 58.91 32.4 58.74C32.46 58.67 32.51 58.6 32.56 58.52C32.58 58.51 32.6 58.52 32.62 58.51C33.08 58.36 33.37 57.9 33.7 57.37C33.71 57.36 33.71 57.34 33.72 57.33C33.76 57.32 33.81 57.31 33.85 57.3C34.4 57.13 35 56.58 35.06 55.96C35.23 55.87 35.39 55.77 35.57 55.67C36.18 55.37 36.8 54.47 36.68 53.77C36.69 53.73 36.7 53.7 36.71 53.66V53.65C36.84 53.47 36.95 53.26 37.07 53.03C37.08 53.01 37.09 52.97 37.1 52.94C37.11 52.94 37.11 52.94 37.12 52.94C37.29 52.91 37.46 52.83 37.62 52.72C38.09 52.77 38.56 52.63 38.81 52.21C39.57 52.15 40.42 51.71 40.43 50.87C40.67 50.88 40.9 50.81 41.09 50.61C41.18 50.52 41.24 50.41 41.29 50.29C41.55 50.32 41.8 50.26 42 50.05C42.12 49.92 42.19 49.77 42.25 49.59C42.41 49.51 42.56 49.4 42.72 49.26C43.26 49.33 43.82 49.18 44.29 48.81C44.45 48.68 44.6 48.51 44.72 48.32C44.73 48.32 44.74 48.31 44.74 48.31C44.85 48.26 44.95 48.19 45.05 48.11C45.47 48.17 45.94 48.08 46.2 47.77C46.93 47.76 47.91 47.23 47.94 46.4C48.05 46.41 48.17 46.4 48.3 46.38C48.78 46.65 49.38 46.74 49.81 46.34C50 46.29 50.18 46.19 50.36 46.06C50.48 46.14 50.62 46.2 50.77 46.22C51.03 46.53 51.38 46.73 51.81 46.69C52.34 46.64 52.76 46.25 53.23 45.79C53.32 45.78 53.4 45.77 53.49 45.75C53.67 45.9 53.9 45.98 54.15 45.94C54.24 45.93 54.32 45.89 54.4 45.86C54.83 46.23 55.53 46.48 56.11 46.34C56.15 46.34 56.19 46.35 56.24 46.34C56.67 46.28 57.03 45.99 57.39 45.62C57.86 45.5 58.36 45.17 58.49 44.75C58.54 44.6 58.53 44.42 58.51 44.24C58.85 43.93 59.11 43.52 59.1 43.12C59.09 42.88 58.98 42.62 58.83 42.38C58.87 42.28 58.89 42.18 58.9 42.08C59.2 41.85 59.41 41.51 59.32 41.11C59.31 41.07 59.29 41.03 59.27 41C59.41 40.87 59.54 40.72 59.63 40.55C59.69 40.51 59.74 40.47 59.8 40.42C60.29 40.08 60.74 39.29 60.69 38.64C61.25 38.37 61.72 37.86 61.59 37.21C61.57 37.13 61.53 37.06 61.5 36.98C61.72 36.73 61.87 36.44 61.87 36.16C61.87 36.02 61.83 35.87 61.77 35.72C61.78 35.6 61.78 35.48 61.78 35.35C62.11 35.17 62.44 34.81 62.57 34.44C62.63 34.4 62.69 34.36 62.74 34.31C63.15 33.94 63.47 33.27 63.39 32.68C63.42 32.62 63.45 32.57 63.47 32.51C63.68 32.41 63.86 32.26 63.97 32.06C64.39 31.97 64.8 31.73 64.99 31.37C65.62 31.14 66.23 30.57 66.18 29.89C66.35 29.71 66.5 29.49 66.59 29.25C66.9 29.07 67.19 28.81 67.51 28.51C67.73 28.33 67.92 28.04 68.05 27.73C68.06 27.72 68.07 27.71 68.08 27.7C68.08 27.7 68.08 27.69 68.09 27.69C68.7 27.71 69.32 27.49 69.53 26.87C69.58 26.71 69.59 26.54 69.58 26.36C69.7 26.21 69.82 26.06 69.94 25.89C70.1 25.7 70.23 25.45 70.31 25.17C70.32 25.16 70.34 25.15 70.35 25.14C70.37 25.13 70.38 25.11 70.4 25.09C70.68 25.06 70.93 24.94 71.11 24.69C71.17 24.61 71.21 24.51 71.24 24.42C71.32 24.41 71.39 24.39 71.46 24.36C71.82 24.5 72.21 24.52 72.56 24.28C72.87 24.07 73.05 23.73 73.19 23.33C73.26 23.3 73.33 23.27 73.39 23.22C73.46 23.16 73.52 23.1 73.57 23.02C73.76 23.05 73.95 23.07 74.15 23.06C74.64 23.03 75.24 22.75 75.57 22.32C75.69 22.25 75.8 22.16 75.88 22.03C75.92 21.96 75.95 21.88 75.97 21.8C75.99 21.8 76.01 21.8 76.03 21.79C76.23 21.77 76.46 21.68 76.67 21.56C77.08 21.55 77.5 21.42 77.86 21.16C78 21.06 78.13 20.92 78.25 20.76C78.36 20.72 78.47 20.67 78.58 20.61C78.71 20.53 78.83 20.43 78.94 20.3C79 20.29 79.06 20.31 79.13 20.3C79.21 20.28 79.29 20.26 79.37 20.23C79.77 20.29 80.19 20.24 80.59 20.07C80.65 20.04 80.71 20.01 80.76 19.97C80.89 19.96 81.03 19.94 81.16 19.86C81.23 19.82 81.3 19.76 81.36 19.7C82 19.94 82.76 19.92 83.17 19.32C83.34 19.07 83.41 18.77 83.42 18.44C83.44 18.43 83.45 18.43 83.47 18.42C83.54 18.42 83.62 18.42 83.7 18.39C83.89 18.34 84.05 18.22 84.2 18.07C84.57 18.28 85.07 18.39 85.46 18.23C85.58 18.27 85.71 18.3 85.84 18.31C86.06 18.34 86.32 18.31 86.57 18.25C86.78 18.53 87.07 18.72 87.45 18.73C87.97 18.75 88.43 18.42 88.95 18.02C89.51 18.39 90.19 18.45 90.82 18.21C90.96 18.26 91.1 18.3 91.25 18.33C91.47 18.36 91.72 18.35 91.96 18.29C92.03 18.35 92.11 18.4 92.2 18.44C92.72 18.66 93.32 18.48 94.02 18.27C94.08 18.26 94.14 18.23 94.2 18.21C94.3 18.23 94.41 18.24 94.53 18.21C94.7 18.17 94.85 18.07 94.99 17.94C95.19 17.97 95.42 17.97 95.66 17.96C96.12 18.27 96.7 18.39 97.28 18.27C97.45 18.23 97.63 18.16 97.81 18.06C97.96 18.08 98.12 18.08 98.28 18.05C98.38 18.1 98.49 18.13 98.61 18.12C98.72 18.11 98.83 18.08 98.93 18.03C99.24 18.21 99.58 18.3 99.94 18.3C100.18 18.56 100.5 18.72 100.88 18.67C101.13 18.64 101.34 18.52 101.55 18.35C102.03 18.47 102.54 18.43 103.02 18.21C103.06 18.22 103.09 18.24 103.13 18.25C103.21 18.27 103.3 18.28 103.39 18.28C103.49 18.48 103.65 18.66 103.87 18.78C104.39 19.06 105.05 18.94 105.8 18.79C105.96 18.77 106.14 18.72 106.31 18.64C106.6 18.92 106.95 19.05 107.32 19.04C107.43 19.19 107.57 19.32 107.73 19.43C107.91 20.18 108.55 21 109.4 20.8C109.43 20.79 109.45 20.77 109.48 20.76C109.62 20.84 109.77 20.9 109.95 20.9C110.01 20.9 110.07 20.88 110.13 20.87C110.47 21.1 110.86 21.21 111.25 21.21C111.64 21.46 112.09 21.55 112.53 21.5C112.57 21.54 112.61 21.58 112.65 21.62C112.74 22 112.96 22.34 113.37 22.47C113.67 22.57 113.98 22.54 114.32 22.45C114.57 22.79 114.93 23.03 115.38 22.94C115.48 22.92 115.57 22.88 115.65 22.84C115.83 23 116.05 23.13 116.3 23.21C116.76 23.56 117.37 23.7 117.99 23.6C118.07 23.78 118.17 23.95 118.3 24.11C118.78 24.7 119.84 25.16 120.53 24.65C120.79 24.86 121.1 25.01 121.45 25.06C121.47 25.2 121.51 25.34 121.57 25.45C121.66 25.62 121.78 25.75 121.9 25.88C122.07 26.64 122.59 27.19 123.27 27.43C123.3 27.7 123.37 27.96 123.5 28.15C123.66 28.38 123.84 28.57 124.05 28.72C124.13 28.93 124.23 29.13 124.36 29.27C124.47 29.39 124.59 29.49 124.72 29.57C124.79 29.76 124.87 29.93 124.99 30.06C125.22 30.33 125.5 30.51 125.79 30.63C125.96 30.9 126.18 31.12 126.45 31.28C126.49 31.77 126.71 32.24 127.22 32.38C127.3 32.4 127.39 32.4 127.48 32.41C127.58 32.55 127.69 32.68 127.83 32.79C127.96 33.22 128.24 33.61 128.62 33.91C128.72 34.47 129.05 35 129.65 35.06C129.68 35.06 129.71 35.05 129.74 35.05C129.93 35.69 130.36 36.14 130.9 36.38C130.82 36.66 130.85 37.02 130.97 37.3C130.55 37.97 130.43 39.09 131.24 39.53C131.32 39.57 131.4 39.59 131.49 39.62C131.43 40.19 131.62 40.73 131.99 41.15C131.9 41.35 131.82 41.56 131.82 41.74C131.8 42.28 131.97 42.75 132.27 43.12C132.09 43.78 132.22 44.64 132.93 44.89C132.96 44.9 132.99 44.9 133.02 44.9C132.76 45.37 132.69 45.98 133.06 46.38C133.04 46.54 133.04 46.71 133.05 46.87C133.09 47.29 133.31 47.78 133.65 48.13C133.58 48.4 133.64 48.75 133.78 49.02C133.65 49.29 133.62 49.59 133.66 49.91C133.52 50.08 133.41 50.28 133.34 50.5C133.3 50.64 133.28 50.8 133.27 50.96C133.06 51.33 132.97 51.77 133.04 52.23C133.05 52.31 133.07 52.4 133.1 52.49C133.09 52.52 133.07 52.54 133.06 52.57C133.05 52.6 133.04 52.63 133.03 52.67C132.9 52.77 132.77 52.88 132.66 53.01C132.19 53.56 131.92 54.62 132.45 55.22C132.27 55.6 132.22 56.03 132.3 56.45C132 56.85 131.82 57.46 132.01 57.93C132 57.99 132 58.06 132 58.12L131.99 58.13C131.72 58.42 131.63 58.96 131.71 59.37C131.38 59.38 131.05 59.45 130.83 59.64C130.53 59.9 130.35 60.41 130.34 60.86C130.16 61.1 130.05 61.42 130.04 61.7C129.94 61.79 129.85 61.89 129.78 62C129.47 62.01 129.18 62.08 128.97 62.25C128.61 62.54 128.41 63.18 128.45 63.67C128.3 63.83 128.17 64.02 128.07 64.23C127.97 64.43 127.92 64.67 127.89 64.92C127.86 65 127.84 65.08 127.83 65.17C127.59 65.32 127.4 65.52 127.26 65.76C126.82 65.81 126.38 66 126.17 66.32C125.88 66.74 125.9 67.53 126.15 67.95C126.3 68.2 126.49 68.4 126.71 68.55C126.97 69.18 127.54 69.65 128.25 69.83C128.52 70.07 128.86 70.23 129.24 70.3C129.41 70.46 129.62 70.58 129.85 70.66C129.96 70.87 130.11 71.07 130.3 71.24C130.32 71.26 130.34 71.27 130.37 71.29C130.4 71.35 130.43 71.41 130.46 71.45C130.76 71.82 131.15 72.02 131.56 72.08C131.61 72.18 131.67 72.28 131.73 72.38C131.81 72.49 131.92 72.6 132.05 72.7C132.26 73.12 132.6 73.49 133.06 73.73C133.18 73.79 133.32 73.84 133.47 73.88C133.52 73.92 133.58 73.96 133.65 73.98C133.89 74.07 134.14 74.04 134.42 73.97C134.52 74.13 134.66 74.28 134.83 74.4C134.98 74.82 135.3 75.19 135.73 75.43C135.74 75.44 135.75 75.44 135.76 75.44C135.88 75.63 136.04 75.8 136.23 75.95C136.24 75.97 136.24 76 136.26 76.02C136.3 76.08 136.35 76.12 136.4 76.17C136.14 76.64 136.07 77.26 136.45 77.65C136.45 77.92 136.5 78.2 136.62 78.46C136.37 79.15 136.46 80.16 137.26 80.43C137.28 80.44 137.3 80.43 137.32 80.44C137.38 80.53 137.47 80.59 137.55 80.66C137.53 80.93 137.59 81.19 137.71 81.43C137.61 81.66 137.54 81.91 137.54 82.18C137.54 82.18 137.54 82.19 137.54 82.2C137.45 82.45 137.4 82.72 137.43 82.94C137.48 83.27 137.61 83.56 137.78 83.8C137.75 84.11 137.78 84.43 137.9 84.73C137.8 85.15 137.82 85.6 137.97 86.04C137.99 86.1 138.02 86.15 138.04 86.21C138.03 86.29 138.01 86.38 138.01 86.46C137.99 86.82 138.1 87.25 138.31 87.61C138.33 87.69 138.36 87.77 138.4 87.85C138.29 88.1 138.23 88.38 138.24 88.68C138.25 88.77 138.26 88.87 138.29 88.97C138.22 89.21 138.21 89.46 138.27 89.7C138.08 89.95 137.98 90.26 137.97 90.6C137.83 90.76 137.73 91 137.7 91.24C137.4 91.53 137.19 92 137.19 92.36C137.19 92.57 137.23 92.76 137.3 92.94C137.21 93.16 137.17 93.38 137.17 93.6C137.11 93.65 137.04 93.68 136.99 93.74C136.72 94.1 136.69 94.76 136.86 95.18C136.74 95.62 136.78 96.06 136.96 96.43C136.95 96.48 136.94 96.53 136.93 96.58C136.69 96.81 136.52 97.07 136.42 97.36C136.07 97.47 135.75 97.67 135.58 97.94C135.35 98.31 135.34 98.91 135.48 99.38C135.12 99.67 134.83 100.19 134.81 100.61C134.8 100.92 134.86 101.2 134.97 101.46C134.94 101.57 134.92 101.69 134.91 101.8C134.87 101.83 134.83 101.86 134.8 101.89C134.66 102.05 134.57 102.22 134.51 102.4C134.01 102.53 133.51 102.82 133.34 103.24C133.18 103.63 133.25 104.2 133.45 104.62C133.44 104.64 133.43 104.66 133.42 104.69C133.39 104.76 133.37 104.83 133.35 104.9C133.24 105.02 133.15 105.14 133.08 105.29C132.92 105.28 132.76 105.3 132.64 105.36C132.48 105.44 132.35 105.61 132.24 105.79C132.01 105.87 131.79 105.99 131.66 106.14C131.62 106.19 131.59 106.24 131.55 106.28C131.13 106.39 130.69 106.71 130.5 107.04C130.42 107.18 130.37 107.33 130.33 107.48C129.9 107.76 129.6 108.2 129.46 108.72C129.41 108.79 129.36 108.86 129.31 108.93C129.21 108.93 129.11 108.92 129.02 108.95C128.83 109.01 128.65 109.17 128.5 109.34C128.11 109.47 127.72 109.71 127.53 109.99C127.53 109.99 127.52 110 127.52 110.01C127.09 110.18 126.75 110.48 126.51 110.84C126.11 110.77 125.67 110.8 125.37 110.96C125.04 111.14 124.8 111.39 124.62 111.67C124.38 111.66 124.16 111.72 123.97 111.82C123.7 111.74 123.43 111.72 123.2 111.81C122.94 111.91 122.7 112.16 122.52 112.44C122.45 112.45 122.37 112.44 122.31 112.46C122.14 112.52 121.97 112.67 121.83 112.84C121.54 112.78 121.25 112.78 121.03 112.9C120.91 112.97 120.8 113.08 120.71 113.2C120.55 113.23 120.39 113.28 120.24 113.35C120.11 113.34 119.98 113.34 119.87 113.36C119.29 113.48 118.84 113.81 118.56 114.25C118.46 114.25 118.36 114.26 118.26 114.28C117.86 114.08 117.4 114 117.04 114.14C116.79 114.24 116.56 114.48 116.38 114.76C116.36 114.77 116.34 114.77 116.33 114.77C116.07 114.67 115.8 114.65 115.54 114.68C115.41 114.68 115.29 114.61 115.16 114.55Z" fill="#FF8412"/>
<path d="M51.8701 18.06C51.8701 17.97 51.83 17.87 51.7701 17.78C51.8101 17.66 51.8101 17.52 51.7501 17.42C51.7401 17.41 51.7301 17.41 51.7201 17.4C51.6701 17.31 51.6101 17.23 51.5401 17.13C51.5201 17.1 51.4901 17.07 51.4501 17.04C51.43 17 51.4101 16.97 51.3901 16.93C51.3601 16.86 51.2901 16.8 51.2201 16.75C51.2201 16.74 51.2201 16.73 51.2101 16.72C51.2101 16.71 51.2201 16.7 51.2201 16.69C51.2201 16.66 51.2001 16.63 51.1901 16.6C50.7201 14.18 49.43 12.74 47.84 12.05C47.7801 11.95 47.6701 11.88 47.5401 11.8C47.5301 11.79 47.5101 11.79 47.5001 11.79C47.4801 11.76 47.4701 11.74 47.4501 11.71C47.41 11.64 47.3301 11.59 47.2401 11.55C47.1601 11.49 47.0601 11.46 46.9701 11.46C46.8701 11.38 46.6901 11.35 46.5801 11.4C46.5501 11.41 46.5401 11.43 46.5101 11.44C46.4101 11.42 46.3101 11.42 46.2301 11.45C46.1601 11.48 46.1101 11.53 46.0601 11.58C46.0301 11.58 46.0101 11.57 45.9801 11.57C45.9501 11.54 45.9101 11.52 45.8701 11.51C45.7901 11.49 45.7001 11.51 45.6101 11.54C44.4301 11.49 43.2101 11.73 42.1001 12.18C42.0901 12.18 42.0801 12.17 42.0701 12.18C41.9701 12.2 41.8801 12.25 41.8101 12.31C41.7701 12.33 41.7201 12.35 41.6801 12.38C41.4601 12.32 41.25 12.38 41.09 12.53C41.0601 12.53 41.0301 12.53 40.9901 12.54C40.9701 12.53 40.9501 12.51 40.9301 12.51C40.8901 12.5 40.8501 12.52 40.8101 12.53C40.7101 12.49 40.6 12.48 40.5201 12.5C40.2001 12.59 40.0301 12.89 40.0801 13.21V13.22C40.0701 13.26 40.0601 13.31 40.0601 13.36C40.0401 13.39 40.0201 13.42 40.0101 13.45C38.7301 14.52 37.9301 15.97 38.0801 17.56C38.0601 17.58 38.0301 17.6 38.0101 17.62C37.9701 17.67 37.9601 17.75 37.9601 17.83C37.9201 17.81 37.8701 17.8 37.8301 17.8C37.8001 17.8 37.7801 17.83 37.7501 17.84C37.7301 17.83 37.7101 17.82 37.6901 17.81C37.6401 17.79 37.5801 17.78 37.5101 17.78L37.5001 17.77C37.4601 17.71 37.4101 17.64 37.3601 17.61C37.2801 17.56 37.1901 17.54 37.1101 17.53C36.5301 17.22 35.9101 17.07 35.2601 17.04C35.1601 17 35.0501 16.99 34.9601 17.03C34.9301 17.02 34.8901 17.02 34.8501 17.01C34.8101 16.96 34.76 16.92 34.7 16.89C34.64 16.78 34.5601 16.69 34.4601 16.66C34.3801 16.64 34.2901 16.65 34.2 16.68C34.11 16.66 34.0201 16.65 33.95 16.67C33.8101 16.72 33.7001 16.82 33.6501 16.94C33.5901 16.97 33.5301 17.01 33.4901 17.06C33.3701 17.03 33.2301 17.03 33.1401 17.11C33.1101 17.14 33.1001 17.18 33.0801 17.22C33.0501 17.23 33.0301 17.25 33.0101 17.26C32.9301 17.23 32.8601 17.21 32.7901 17.23C32.6801 17.26 32.58 17.38 32.52 17.49C32.47 17.52 32.4201 17.54 32.3801 17.58C32.2401 17.6 32.1101 17.67 32.0101 17.78C31.9201 17.82 31.8501 17.88 31.8001 17.95C31.7101 17.97 31.6201 18.02 31.5501 18.08C31.4601 18.07 31.3701 18.08 31.3001 18.13C31.2201 18.19 31.1701 18.3 31.1501 18.41C31.1201 18.43 31.0901 18.46 31.0501 18.48H31.0401C31.0001 18.49 30.9601 18.52 30.9301 18.54C30.9101 18.54 30.8901 18.53 30.8701 18.53C30.7501 18.54 30.6501 18.59 30.5701 18.66C30.5101 18.67 30.4501 18.67 30.4101 18.69C30.3001 18.75 30.2301 18.83 30.1801 18.92C30.1001 18.95 30.0301 19 29.9801 19.06C29.8701 19.08 29.7701 19.13 29.6901 19.21C29.5701 19.24 29.4601 19.31 29.3701 19.41C29.2801 19.47 29.1901 19.54 29.1601 19.63C29.1201 19.73 29.1101 19.82 29.1201 19.91C29.0501 20.02 29.0101 20.14 29.0101 20.27C29.0101 20.27 29.0101 20.27 29.0001 20.28C28.9801 20.34 28.9701 20.4 28.9701 20.46C28.9501 20.48 28.9301 20.49 28.9201 20.51C28.8701 20.61 28.8601 20.71 28.8701 20.81C28.8401 20.84 28.8101 20.86 28.7801 20.89C28.7201 20.96 28.6801 21.07 28.6701 21.18C28.6701 21.19 28.6601 21.19 28.6601 21.2C28.6301 21.26 28.6001 21.32 28.5701 21.38C28.5401 21.43 28.5201 21.48 28.5001 21.53C28.4201 21.71 28.34 21.89 28.27 22.07C28.27 22.08 28.2701 22.08 28.2601 22.09C28.2601 22.1 28.2601 22.1 28.2501 22.11C28.1601 22.2 28.0801 22.33 28.0801 22.44C28.0801 22.45 28.0801 22.45 28.0801 22.46C28.0501 22.5 28.0101 22.54 28.0001 22.59C27.9701 22.71 27.9801 22.83 28.0101 22.93C27.9901 23.01 27.9801 23.1 27.9601 23.18C27.9401 23.21 27.9301 23.24 27.9201 23.27C27.8101 23.29 27.7101 23.35 27.6601 23.43C27.6301 23.49 27.6101 23.56 27.6101 23.64C27.5601 23.68 27.5101 23.72 27.4801 23.78C27.4401 23.87 27.4601 24 27.5001 24.11C27.4501 24.25 27.4601 24.41 27.5301 24.56C27.5401 24.57 27.5501 24.58 27.5501 24.59C27.5501 24.62 27.5401 24.65 27.5401 24.68C27.5601 24.86 27.6801 25.07 27.8701 25.13C27.9001 25.25 27.9601 25.36 28.0501 25.44C28.3201 26.48 28.9401 27.52 29.9901 28.49C29.9501 28.63 29.9701 28.78 30.0601 28.89C30.0501 29.02 30.0901 29.15 30.2101 29.22C30.2801 29.27 30.3701 29.28 30.4601 29.29C30.4701 29.31 30.4901 29.32 30.5001 29.33C30.5001 29.34 30.5001 29.34 30.5001 29.35C30.4801 29.58 30.6301 29.91 30.9001 29.89C30.9901 29.88 31.0801 29.83 31.1601 29.76C31.1901 29.76 31.23 29.76 31.27 29.76C31.27 29.86 31.2901 29.96 31.3801 30.03C31.5001 30.13 31.6701 30.13 31.8601 30.13C31.9301 30.22 32.0301 30.28 32.1501 30.25C32.1801 30.24 32.2001 30.22 32.2301 30.2C32.2801 30.23 32.3401 30.25 32.4001 30.26C32.4201 30.29 32.4301 30.32 32.4601 30.34C32.5401 30.43 32.6801 30.49 32.8101 30.49C32.8301 30.52 32.85 30.56 32.8801 30.59C32.9901 30.67 33.1301 30.67 33.3001 30.66C33.3201 30.67 33.3401 30.68 33.3601 30.69C33.3901 30.72 33.4201 30.73 33.4601 30.74C33.4801 30.75 33.5 30.76 33.52 30.77C33.58 30.88 33.6701 30.96 33.8001 30.95C33.8301 30.95 33.8501 30.93 33.8701 30.92C33.8801 30.92 33.8901 30.93 33.9001 30.93C33.9201 30.95 33.93 30.97 33.95 30.99C34.01 31.03 34.0901 31.06 34.1701 31.08C34.2501 31.17 34.3701 31.24 34.5001 31.2C34.5101 31.2 34.51 31.19 34.52 31.19C34.55 31.2 34.5801 31.22 34.6201 31.23C34.6501 31.25 34.6901 31.26 34.7201 31.27C34.7501 31.31 34.7801 31.34 34.8101 31.37C34.8401 31.43 34.8901 31.49 34.9601 31.52C35.0701 31.57 35.2 31.55 35.34 31.52C35.36 31.53 35.3801 31.55 35.4001 31.56C35.4501 31.57 35.4901 31.56 35.5401 31.55C35.5401 31.55 35.5501 31.55 35.5501 31.56C35.5701 31.58 35.5801 31.6 35.6001 31.61C35.6501 31.63 35.7001 31.64 35.7601 31.64C35.8401 31.83 36.0101 32.01 36.2301 31.95C36.2701 31.94 36.3001 31.9 36.3301 31.88C36.3501 31.89 36.3701 31.91 36.4001 31.92C36.5201 32.04 36.6801 32.11 36.8701 32.1C36.8801 32.1 36.9001 32.09 36.9101 32.09C36.9501 32.21 37.0301 32.31 37.1501 32.35C37.1901 32.4 37.2401 32.45 37.3101 32.47C37.4101 32.5 37.5101 32.49 37.6301 32.46C37.6801 32.5 37.7301 32.54 37.8001 32.54C37.8701 32.54 37.9401 32.52 38.0101 32.48C38.0801 32.55 38.1801 32.6 38.2801 32.59C38.3501 32.63 38.4201 32.65 38.5001 32.66C38.6101 32.75 38.7501 32.8 38.9001 32.8C38.9401 32.8 38.9801 32.79 39.0201 32.78C39.0301 32.78 39.0301 32.79 39.0401 32.79C39.1401 32.83 39.2701 32.83 39.3801 32.8C39.3901 32.8 39.4101 32.8 39.4201 32.8C39.5201 32.92 39.6501 33.01 39.8101 32.95C39.8301 32.94 39.8401 32.93 39.8501 32.92C40.0001 33.02 40.2101 33.06 40.3601 32.96C40.3701 32.96 40.3701 32.96 40.3701 32.96C40.4601 32.97 40.5601 32.95 40.6501 32.92C40.7001 32.92 40.7401 32.92 40.7901 32.9C40.8201 32.91 40.8401 32.93 40.8701 32.93H40.8801C40.8801 32.93 40.8801 32.94 40.8901 32.94C41.0101 33.01 41.1601 33 41.3301 32.98C41.4301 33.08 41.5601 33.15 41.6901 33.09C41.7501 33.06 41.79 33.02 41.84 32.96C41.8601 32.96 41.8801 32.95 41.9001 32.95C41.9501 33.02 42.0101 33.08 42.1101 33.08C42.1601 33.08 42.2101 33.06 42.2501 33.04C42.3701 33.11 42.5201 33.12 42.6501 33.08C42.7501 33.12 42.8601 33.15 42.9801 33.13C43.0101 33.13 43.05 33.11 43.09 33.1C43.1901 33.14 43.3001 33.15 43.3801 33.07C43.4401 33.08 43.5001 33.08 43.5601 33.07C43.6301 33.11 43.7201 33.13 43.8101 33.13C43.8501 33.17 43.8901 33.2 43.9501 33.21C43.9901 33.21 44.0201 33.2 44.0501 33.19C44.1601 33.28 44.3001 33.34 44.4601 33.34C44.5401 33.34 44.6201 33.32 44.7001 33.28C44.7401 33.32 44.7701 33.36 44.8201 33.38C44.9601 33.46 45.1601 33.48 45.3201 33.41C45.4501 33.55 45.6401 33.63 45.8201 33.53C45.8601 33.5 45.8901 33.45 45.9201 33.41C45.9401 33.4 45.9601 33.4 45.9801 33.39C46.0401 33.46 46.1301 33.51 46.2301 33.49C46.2601 33.48 46.2801 33.46 46.3101 33.45C46.3501 33.48 46.4001 33.5 46.4601 33.5C46.4801 33.5 46.4901 33.49 46.5001 33.49C46.5201 33.49 46.5301 33.5 46.5401 33.5C46.6601 33.49 46.7501 33.4 46.8601 33.3C46.8801 33.28 46.8901 33.24 46.9101 33.22C47.0901 33.19 47.2701 33.07 47.2501 32.87C47.2501 32.82 47.2201 32.78 47.2001 32.74C47.2701 32.68 47.3101 32.6 47.3201 32.53C47.3201 32.52 47.3101 32.51 47.3101 32.49C47.3401 32.47 47.3601 32.43 47.3901 32.4C47.4601 32.37 47.5301 32.33 47.5601 32.25C47.6001 32.16 47.5901 32.06 47.5601 31.96C47.5901 31.91 47.6001 31.85 47.6001 31.79C47.7601 31.73 47.92 31.6 47.9501 31.44C47.9601 31.38 47.9401 31.32 47.9101 31.25C47.9501 31.18 47.9801 31.09 47.9901 30.99C48.0301 30.94 48.07 30.88 48.09 30.81C48.18 30.75 48.2501 30.65 48.2601 30.54C48.2701 30.53 48.2801 30.52 48.2901 30.51C48.3001 30.48 48.3001 30.44 48.3001 30.41C48.4301 30.37 48.5401 30.29 48.5801 30.17C48.6401 30.13 48.6901 30.08 48.7101 30C48.7501 29.87 48.7201 29.73 48.6601 29.58C48.7101 29.54 48.7601 29.49 48.8201 29.44C48.9401 29.34 49.0301 29.13 49.0201 28.95C49.0301 28.93 49.0401 28.92 49.0401 28.9C49.2101 28.78 49.3401 28.53 49.2401 28.33C49.2501 28.32 49.2601 28.3 49.2601 28.29C49.2701 28.28 49.2801 28.27 49.2901 28.27C49.3301 28.24 49.3601 28.19 49.3901 28.13C49.4501 28.1 49.5101 28.05 49.5301 27.98C49.5701 27.87 49.5401 27.76 49.4901 27.63C49.7301 27.6 50.0301 27.37 49.9501 27.09C49.93 27.03 49.8901 26.99 49.8501 26.95C49.8501 26.94 49.8501 26.94 49.8501 26.93C49.8901 26.91 49.9301 26.88 49.9601 26.85C50.1001 26.83 50.23 26.75 50.2701 26.61C50.3101 26.48 50.26 26.33 50.2001 26.18C50.2701 26.1 50.3301 26 50.3801 25.87C50.4201 25.79 50.4301 25.67 50.4101 25.56C50.4101 25.51 50.4201 25.46 50.4101 25.4C50.4401 25.37 50.4601 25.34 50.4701 25.29C50.4801 25.22 50.4601 25.16 50.4301 25.09C50.5001 25.04 50.56 24.96 50.59 24.87C50.7101 24.78 50.8001 24.66 50.8101 24.53C50.8101 24.49 50.7901 24.46 50.7801 24.42C50.7901 24.38 50.8101 24.35 50.8101 24.31C50.8101 24.24 50.7801 24.18 50.7401 24.11C50.8101 24.03 50.85 23.93 50.84 23.84C50.83 23.75 50.7801 23.67 50.7101 23.59C50.7201 23.54 50.7301 23.51 50.7301 23.46C50.7901 23.39 50.8201 23.3 50.8001 23.21C50.8701 23.14 50.9201 23.05 50.9301 22.96C51.0101 22.89 51.0601 22.79 51.0401 22.68C51.0301 22.64 51.0001 22.61 50.9801 22.57C50.9901 22.54 51.0101 22.51 51.0101 22.47C51.0101 22.43 50.9901 22.4 50.9801 22.37C51.0101 22.31 51.0301 22.25 51.0601 22.18C51.0901 22.12 51.1001 22.05 51.1001 21.97C51.1901 21.84 51.25 21.66 51.2001 21.53C51.1901 21.5 51.1601 21.48 51.1401 21.45C51.1701 21.25 51.2101 21.04 51.2301 20.84C51.3301 20.76 51.4001 20.65 51.3701 20.51C51.3601 20.45 51.32 20.4 51.2701 20.34C51.2701 20.32 51.2701 20.31 51.2701 20.29C51.32 20.21 51.3501 20.11 51.3901 20C51.4001 19.97 51.4001 19.94 51.4101 19.91C51.5401 19.8 51.6301 19.64 51.5601 19.47C51.5301 19.4 51.4801 19.36 51.4201 19.31C51.5601 19.2 51.6901 19 51.6501 18.83C51.6501 18.82 51.6301 18.81 51.6301 18.8C51.6301 18.79 51.6401 18.78 51.6401 18.77C51.6601 18.68 51.6301 18.58 51.5801 18.49C51.5901 18.46 51.5901 18.43 51.6001 18.4C51.7701 18.31 51.8701 18.18 51.8701 18.06Z" fill="#FFB2A3"/>
<path d="M93.7401 64C93.7201 63.99 93.6901 63.98 93.6701 63.97C93.7101 63.75 93.6801 63.52 93.5601 63.29C93.4901 63.16 93.4101 63.05 93.3001 62.95C93.3001 62.94 93.3101 62.93 93.3101 62.92C93.3201 62.77 93.2901 62.61 93.2301 62.44C93.3201 62.29 93.3701 62.11 93.3501 61.91C93.3401 61.79 93.3001 61.68 93.2501 61.58C93.2801 61.54 93.3001 61.51 93.3301 61.47C93.4901 61.28 93.6001 61 93.6701 60.71C93.8001 60.57 93.8901 60.39 93.9201 60.18C93.9701 59.7 93.6801 59.25 93.3501 58.74C93.0801 58.26 92.3201 57.78 91.7601 57.93C91.3101 58.04 90.8501 58.58 90.7701 59.03C90.7201 59.28 90.7301 59.52 90.7801 59.74C90.5301 60.11 90.4101 60.56 90.4401 61.04C90.3801 61.2 90.3301 61.36 90.3401 61.5C90.3401 61.63 90.3701 61.75 90.4001 61.87C90.3101 61.96 90.2301 62.05 90.1601 62.15C90.0501 62.3 89.9701 62.49 89.9101 62.7C89.9101 62.7 89.9101 62.7 89.9101 62.71C89.6201 62.64 89.3301 62.65 89.0801 62.74C89.0001 62.71 88.9201 62.69 88.8301 62.69C88.6101 62.68 88.3601 62.77 88.1301 62.91C87.5501 62.86 87.0101 63.06 86.6001 63.45C86.2501 63.1 85.7301 62.83 85.2701 62.83C85.0101 62.77 84.7501 62.76 84.5101 62.8V62.79C84.1401 62.32 83.4801 62.18 82.7301 62.02C82.6101 61.99 82.4801 61.97 82.3501 61.97C82.3201 61.85 82.3001 61.73 82.2301 61.63C82.0501 61.19 81.6601 60.81 81.2101 60.38C80.7401 59.88 79.6901 59.54 79.0601 59.88C78.5601 60.15 78.1701 60.93 78.2001 61.49C78.2501 62.3 78.6901 62.93 79.3301 63.27C79.4701 63.9 79.9901 64.58 80.6901 64.49C80.7001 64.51 80.7101 64.53 80.7201 64.55C81.1901 65.23 81.9001 65.54 82.6401 65.51C82.6501 65.51 82.6701 65.52 82.6801 65.53C82.7801 65.95 83.0201 66.31 83.4601 66.45C83.8501 66.58 84.2601 66.5 84.7101 66.36C84.9101 66.5 85.1401 66.61 85.3901 66.69C85.9201 66.85 86.6601 66.77 87.1401 66.41C87.5701 66.41 88.0201 66.22 88.5301 65.99C88.5801 65.97 88.6401 65.94 88.7001 65.91C89.1801 66.05 89.7501 66.01 90.0801 65.65C90.1301 65.65 90.1901 65.66 90.2501 65.65C90.2801 65.65 90.3101 65.64 90.3401 65.64C90.4601 65.72 90.5901 65.79 90.7201 65.82C90.7401 65.86 90.7601 65.9 90.7801 65.94C90.7901 66.24 90.8601 66.55 90.9901 66.85C91.1201 67.13 91.3401 67.42 91.6101 67.65C91.9501 68.11 92.4701 68.41 93.0801 68.48C93.8601 68.57 95.0101 68.1 94.9601 67.15C94.9401 66.72 94.6801 66.34 94.3301 65.94C94.4301 65.28 94.2501 64.38 93.7401 64Z" fill="#494949"/>
<path d="M104.99 56.3C104.89 55.99 104.62 55.68 104.35 55.57C104.33 55.56 104.31 55.56 104.29 55.55C104.15 55.4 103.96 55.29 103.73 55.21C103.6 54.99 103.42 54.79 103.23 54.7C102.93 54.55 102.63 54.5 102.34 54.53C102.3 54.49 102.26 54.44 102.22 54.41C102.06 54.32 101.82 54.31 101.6 54.35C101.53 54.21 101.45 54.07 101.36 53.92C101.16 53.51 100.6 53.11 100.11 53.13C100.23 53.01 100.32 52.88 100.36 52.74C100.37 52.71 100.36 52.67 100.37 52.64C100.58 52.61 100.79 52.55 100.99 52.44C101.08 52.38 101.17 52.31 101.26 52.22C101.62 52.42 102.07 52.49 102.4 52.26C102.49 52.26 102.58 52.24 102.67 52.2C102.85 52.12 102.99 51.99 103.12 51.81C103.4 51.87 103.7 51.85 103.95 51.74C104.17 51.76 104.39 51.72 104.58 51.56C104.7 51.46 104.78 51.32 104.85 51.17C105.09 51.12 105.32 51.03 105.53 50.88C106.03 50.52 106.44 49.64 105.91 49.12C105.61 48.82 105.14 48.77 104.59 48.72C104.43 48.69 104.24 48.72 104.05 48.76C103.77 48.76 103.47 48.83 103.28 48.97C103.27 48.98 103.27 48.98 103.26 48.99C103.21 48.98 103.15 48.95 103.1 48.95C102.82 48.95 102.49 49.12 102.25 49.34C102.23 49.34 102.21 49.34 102.19 49.35C102.08 49.39 102 49.46 101.9 49.51C101.55 49.47 101.1 49.61 100.88 49.84C100.8 49.92 100.73 50.01 100.67 50.11C100.37 50.11 100.07 50.19 99.8901 50.38C99.5101 50.41 99.1001 50.59 98.9401 50.88C98.9001 50.96 98.8701 51.05 98.8501 51.14C98.8201 51.16 98.7801 51.17 98.7601 51.19C98.7501 51.2 98.7401 51.22 98.7301 51.24C98.4201 51.3 98.1301 51.45 97.8901 51.7C97.7701 51.82 97.6701 51.98 97.5901 52.16C97.2001 52.11 96.7201 52.22 96.5001 52.51C96.4301 52.61 96.3901 52.73 96.3701 52.87C96.3401 52.9 96.3001 52.93 96.2801 52.96C95.9001 53.48 96.0301 54.13 96.4901 54.53C96.5601 54.59 96.6601 54.65 96.7601 54.69C96.8301 55.08 97.0401 55.44 97.4601 55.53C97.8601 55.61 98.2701 55.4 98.7401 55.15C98.7501 55.15 98.7501 55.14 98.7601 55.14C98.7901 55.14 98.8201 55.14 98.8401 55.13C99.0001 55.4 99.2701 55.63 99.5701 55.64C99.7301 55.78 99.9301 55.89 100.14 55.97C100.37 56.05 100.65 56.06 100.91 56.02C100.86 56.48 100.99 56.96 101.45 57.15C101.7 57.26 101.98 57.23 102.29 57.17C102.38 57.22 102.46 57.28 102.56 57.31C102.64 57.54 102.79 57.74 103.05 57.82C103.33 57.91 103.63 57.82 103.96 57.7C104.04 57.76 104.12 57.82 104.22 57.86C104.25 57.87 104.3 57.87 104.33 57.88C104.46 58.07 104.64 58.23 104.88 58.32C105.29 58.48 105.97 58.39 106.08 57.87C106.14 57.57 105.99 57.27 105.81 56.93C105.67 56.62 105.32 56.34 104.99 56.3Z" fill="#494949"/>
<path d="M79.4901 51.94C79.6101 52.13 79.7801 52.28 80.0301 52.33C80.4301 52.41 80.8401 52.2 81.3101 51.95C81.3601 51.93 81.4101 51.88 81.4501 51.85C81.5301 51.85 81.6201 51.83 81.7001 51.81C82.0101 51.88 82.3301 51.82 82.5101 51.54C82.6701 51.28 82.6301 50.93 82.5701 50.54C82.5601 50.46 82.5401 50.38 82.5101 50.29C82.5601 50.09 82.5501 49.88 82.4201 49.69C82.2501 49.43 81.9501 49.31 81.6001 49.19C81.5901 49.15 81.5701 49.11 81.5501 49.08C81.5201 48.75 81.3501 48.39 81.1201 48.2C80.9101 48.03 80.6801 47.93 80.4401 47.88C80.4801 47.66 80.4401 47.43 80.2801 47.24C80.1001 47.03 79.8301 46.93 79.5101 46.85C79.3501 46.7 79.1301 46.6 78.8901 46.5C78.7901 46.12 78.5401 45.73 78.2101 45.61C78.2001 45.61 78.2001 45.61 78.1901 45.61C78.1701 45.59 78.1701 45.56 78.1501 45.54C77.9501 45.33 77.5801 45.22 77.2601 45.22C77.1201 45.05 76.9701 44.9 76.7801 44.8C76.6901 44.66 76.5901 44.53 76.4601 44.46C76.3701 44.41 76.2501 44.38 76.1301 44.36C75.8501 44.23 75.4901 44.19 75.1001 44.15C74.6201 44.07 73.8701 44.33 73.6601 44.8C73.4901 45.17 73.6101 45.79 73.8701 46.09C74.1301 46.39 74.4501 46.55 74.7901 46.61C74.7901 46.62 74.8001 46.63 74.8001 46.64C75.0101 46.99 75.4601 47.31 75.9001 47.34C75.9201 47.36 75.9501 47.38 75.9701 47.39C76.0001 47.41 76.0301 47.42 76.0501 47.43C76.2701 47.85 76.7001 48.23 77.1701 48.16C77.3701 48.31 77.6101 48.42 77.8601 48.46C78.0801 48.75 78.3701 48.92 78.6901 48.99C78.6501 49.15 78.6301 49.31 78.6501 49.46C78.4201 49.34 78.1801 49.27 77.9601 49.31C77.6601 49.37 77.3401 49.64 77.1601 49.93C77.1601 49.93 77.1601 49.93 77.1501 49.93C77.1001 49.95 77.0501 49.98 77.0001 50.02C76.8501 50.01 76.7001 50.03 76.5601 50.07C76.1101 49.96 75.6601 50.06 75.2901 50.32C74.8601 50.25 74.3001 50.36 74.0601 50.69C74.0401 50.72 74.0301 50.75 74.0201 50.79C73.9401 50.84 73.8701 50.89 73.8001 50.95C73.7301 50.94 73.6701 50.92 73.6001 50.93C73.4701 50.95 73.3401 51.03 73.2301 51.13C73.1001 51.07 72.9601 51.02 72.8301 51.04C72.7301 51.05 72.6301 51.11 72.5401 51.17C72.2701 51.05 71.9701 50.99 71.7401 51.08C71.4101 51.21 71.1101 51.67 71.0901 52.02C71.0501 52.79 71.5901 53.37 72.3201 53.47C72.6901 53.52 73.1901 53.39 73.4501 53.08C73.6001 53.05 73.7501 53 73.8601 52.91C73.8601 52.91 73.8601 52.91 73.8701 52.91C74.2201 53.02 74.6001 52.86 75.0401 52.68C75.0601 52.67 75.0801 52.66 75.1001 52.65C75.1901 52.66 75.2701 52.68 75.3601 52.68C75.7001 52.73 76.0901 52.63 76.5201 52.49C76.6601 52.46 76.8201 52.38 76.9601 52.28C77.0901 52.27 77.2201 52.24 77.3301 52.14C77.4301 52.06 77.5001 51.94 77.5501 51.82C77.7101 51.95 77.9001 52.06 78.1101 52.13C78.5201 52.3 79.1301 52.25 79.4901 51.94Z" fill="#494949"/>
</svg>
