<svg width="36" height="36" viewBox="0 0 36 36" fill="none" xmlns="http://www.w3.org/2000/svg">
<path d="M18 3C14.8185 3.00354 11.7684 4.24644 9.51871 6.45601C7.26905 8.66557 6.00361 11.6614 6 14.7862C6 24.8714 16.9091 32.4922 17.3727 32.8137C17.5585 32.9352 17.7768 33 18 33C18.2232 33 18.4415 32.9352 18.6273 32.8137C19.0909 32.4922 30 24.8714 30 14.7862C29.9964 11.6614 28.731 8.66557 26.4813 6.45601C24.2316 4.24644 21.1815 3.00354 18 3ZM18 10.5003C18.863 10.5003 19.7067 10.7517 20.4243 11.2226C21.1419 11.6935 21.7012 12.3629 22.0315 13.146C22.3617 13.9292 22.4482 14.7909 22.2798 15.6223C22.1114 16.4537 21.6958 17.2174 21.0856 17.8167C20.4753 18.4161 19.6978 18.8243 18.8513 18.9897C18.0048 19.1551 17.1275 19.0702 16.3301 18.7458C15.5328 18.4214 14.8513 17.8721 14.3718 17.1673C13.8923 16.4625 13.6364 15.6338 13.6364 14.7862C13.6364 13.6495 14.0961 12.5594 14.9144 11.7556C15.7328 10.9518 16.8427 10.5003 18 10.5003Z" fill="#00C113"/>
</svg>
