<svg width="41" height="38" viewBox="0 0 41 38" fill="none" xmlns="http://www.w3.org/2000/svg">
<path d="M15.5359 29.7292C15.8875 31.7904 16.0984 33.8515 16.5063 35.9127C17.0125 38.9198 21.5406 38.6374 22.3281 34.8398C23.0453 28.8256 26.0125 23.7574 36.2078 19.9739C39.4281 18.7739 42.6063 18.788 36.8125 16.9809C32.5656 15.3574 31.4125 14.0021 29.4156 12.308C25.6891 9.15977 23.8328 5.67271 23.2844 2.03036C23.1437 1.08447 20.3594 -1.9367 18.5312 2.10094C17.8281 6.44918 16.675 10.1056 11.9922 13.9315C10.0094 15.5551 7.68906 16.8115 4.21563 17.6445C-2.37969 19.2539 2.95 20.2139 4.1875 20.5245C11.4719 22.388 14.8469 25.7198 15.5359 29.7292Z" fill="#FFEB62"/>
</svg>
