<svg width="36" height="36" viewBox="0 0 36 36" fill="none" xmlns="http://www.w3.org/2000/svg">
<path d="M24 14C25.6569 14 27 12.6569 27 11C27 9.34315 25.6569 8 24 8C22.3431 8 21 9.34315 21 11C21 12.6569 22.3431 14 24 14Z" stroke="#9B9B9B" stroke-width="2" stroke-linecap="round" stroke-linejoin="round"/>
<path d="M12 21C13.6569 21 15 19.6569 15 18C15 16.3431 13.6569 15 12 15C10.3431 15 9 16.3431 9 18C9 19.6569 10.3431 21 12 21Z" stroke="#9B9B9B" stroke-width="2" stroke-linecap="round" stroke-linejoin="round"/>
<path d="M24 28C25.6569 28 27 26.6569 27 25C27 23.3431 25.6569 22 24 22C22.3431 22 21 23.3431 21 25C21 26.6569 22.3431 28 24 28Z" stroke="#9B9B9B" stroke-width="2" stroke-linecap="round" stroke-linejoin="round"/>
<path d="M15 20L21 23" stroke="#9B9B9B" stroke-width="2" stroke-linecap="round" stroke-linejoin="round"/>
<path d="M21 13L15 16" stroke="#9B9B9B" stroke-width="2" stroke-linecap="round" stroke-linejoin="round"/>
</svg>
