<svg width="38" height="42" viewBox="0 0 38 42" fill="none" xmlns="http://www.w3.org/2000/svg">
<path d="M21.6052 33.0075H15.8733C11.3496 33.0075 7.21927 30.3476 5.96425 26.4748L2.12894 14.6504C0.0122537 8.12244 4.77479 1.49609 12.2253 1.49609H25.2532C32.7084 1.49609 37.4663 8.12244 35.3496 14.6504L31.5143 26.4748C30.2593 30.3523 26.1242 33.0075 21.6052 33.0075Z" fill="#FFEA62"/>
<path d="M36.2487 14.9791C36.2299 14.8059 36.1222 14.656 35.9864 14.5062C35.9911 14.4874 35.9911 14.4734 35.9958 14.4546C36.0005 14.4359 36.0005 14.4078 36.0005 14.3891C36.1176 14.2907 36.2019 14.1549 36.1831 13.9863C36.1738 13.8693 36.1222 13.7663 36.0426 13.6632C36.2019 13.4384 36.2674 13.1294 36.0614 12.9186C36.0286 12.8812 35.9864 12.8578 35.9443 12.8343C35.9864 12.7875 36.0192 12.7313 36.0333 12.6564C36.066 12.4925 36.0005 12.3286 35.9068 12.146C35.9911 12.0476 36.0379 11.9259 36.0005 11.7901C36.1457 11.6636 36.2346 11.4857 36.1784 11.2843C36.155 11.1953 36.0988 11.1157 36.0333 11.0455C36.052 11.0221 36.0754 10.9986 36.0941 10.9659C36.2253 10.727 36.1691 10.4273 36.0988 10.0855C36.0988 10.0761 36.0941 10.0714 36.0941 10.0621C36.2253 9.81386 36.2721 9.45796 36.1269 9.24255C36.1035 9.20508 36.066 9.1723 36.0286 9.13952C36.2018 8.89601 36.2861 8.47923 36.1269 8.23572C36.0988 8.19357 36.0567 8.15611 36.0145 8.11864C36.0145 7.97347 35.9864 7.8283 35.9068 7.72996C35.8366 7.64567 35.7195 7.58479 35.5931 7.54732C35.6212 7.42557 35.6165 7.29913 35.5462 7.17738C35.4198 6.96664 35.1669 6.8683 34.8719 6.76059C34.8532 6.7325 34.8344 6.7044 34.811 6.67162C34.7923 6.63884 34.7595 6.60606 34.7267 6.57796C34.7361 6.43279 34.708 6.27357 34.6424 6.14713C34.6424 6.05347 34.6143 5.9645 34.5488 5.8802C34.4645 5.76781 34.3334 5.69757 34.1835 5.64606C34.1835 5.5524 34.1695 5.45874 34.1226 5.38381C34.043 5.25269 33.8651 5.15435 33.6965 5.11689C33.7667 4.92021 33.762 4.70479 33.6075 4.54089C33.5092 4.43786 33.378 4.38635 33.2235 4.35357C33.1907 4.1522 33.0924 3.94616 32.9379 3.85718C32.877 3.81972 32.802 3.80567 32.7224 3.7963C32.6569 3.68391 32.5632 3.58089 32.4555 3.51064C32.4321 3.47786 32.4087 3.44977 32.3853 3.42635C32.4227 3.13601 32.3338 2.76138 32.109 2.60684C31.9685 2.5085 31.7437 2.48508 31.547 2.51318C31.3457 2.40547 31.0366 2.40079 30.8493 2.49913C30.7884 2.53191 30.7369 2.56938 30.6854 2.60684C30.6713 2.60216 30.6479 2.60215 30.6339 2.59747C30.6198 2.57406 30.6151 2.55064 30.6011 2.53191C30.573 2.49913 30.5308 2.47103 30.4887 2.44762C30.4606 2.30713 30.4091 2.18069 30.3154 2.09172C30.1234 1.9044 29.716 1.83884 29.4725 1.9325C29.3929 1.96059 29.3226 2.00274 29.2571 2.04489C29.2337 2.01679 29.2102 1.98869 29.1821 1.96059C28.9901 1.71708 28.5312 1.5204 28.2315 1.64684C28.2175 1.65152 28.2034 1.67025 28.1847 1.67962C28.18 1.67962 28.1753 1.67494 28.1706 1.67494C28.0348 1.5766 27.8335 1.52508 27.6836 1.5485C27.6461 1.5204 27.6134 1.4923 27.5759 1.4642C27.3699 1.28157 26.9531 1.1926 26.6955 1.32372C26.6768 1.31904 26.6581 1.30967 26.6393 1.30967C26.5222 1.15981 26.349 1.02869 26.1757 1.03338C26.1663 1.03338 26.157 1.03806 26.1523 1.03806C26.1336 1.02869 26.1102 1.01465 26.0914 1.00528C25.9556 0.803913 25.6793 0.635326 25.4592 0.62596C25.2532 0.616594 25.0659 0.663425 24.9066 0.752401C24.7146 0.663425 24.4899 0.630642 24.3213 0.705569C24.1152 0.565081 23.7874 0.513569 23.572 0.588495C23.4268 0.640008 23.3051 0.714935 23.2067 0.808594C22.9258 0.65874 22.612 0.654057 22.331 0.775813C22.3076 0.77113 22.2842 0.766449 22.2561 0.766449C22.1812 0.714937 22.1016 0.677472 22.0266 0.65874C21.6614 0.57913 21.3289 0.696203 21.0947 0.925667H21.09C20.9777 0.88352 20.8512 0.860106 20.7107 0.827326C20.5515 0.780496 20.3361 0.808594 20.1581 0.892886C19.9053 0.733667 19.6056 0.710253 19.3433 0.813277C19.1794 0.67279 18.95 0.574447 18.7626 0.574447C18.6128 0.57913 18.477 0.607229 18.3505 0.663424C18.2381 0.649375 18.1351 0.649376 18.0321 0.668108C17.915 0.560401 17.7792 0.476108 17.6387 0.466742C17.3765 0.443327 17.03 0.640009 16.8895 0.86479C16.8052 0.817961 16.6881 0.803912 16.5757 0.813277C16.5617 0.803912 16.5476 0.794547 16.5336 0.785181C16.3135 0.691523 16.0887 0.686839 15.8826 0.747717C15.7094 0.616595 15.494 0.532301 15.3066 0.574447C15.2879 0.57913 15.2645 0.593181 15.2458 0.602547C15.2083 0.597864 15.1661 0.588496 15.1334 0.593179C14.8337 0.616594 14.5901 0.757082 14.4216 0.963131C14.342 0.963131 14.2623 0.977182 14.1827 1.00528C14.0938 0.981865 14.0001 0.986547 13.9111 1.00528C13.869 0.949084 13.8221 0.902252 13.7613 0.874154C13.6395 0.817959 13.4616 0.832011 13.3211 0.888206C13.1665 0.836694 13.012 0.836691 12.8762 0.874154C12.8013 0.846057 12.717 0.817959 12.6327 0.789861C12.3845 0.69152 11.9818 0.733668 11.7757 0.930351C11.5181 0.78518 11.1482 0.728986 10.9187 0.869474C10.8251 0.925669 10.7501 1.02401 10.6893 1.1364C10.5909 1.15045 10.4973 1.17855 10.4317 1.23474C10.3755 1.28157 10.3334 1.35181 10.2959 1.43142C10.2069 1.45952 10.1273 1.50635 10.0477 1.56255C9.97278 1.56723 9.90254 1.58128 9.8323 1.60937C9.76673 1.59064 9.70118 1.57659 9.6403 1.58128C9.43893 1.59064 9.27035 1.66557 9.13922 1.77796C9.05493 1.77796 8.97532 1.79201 8.89571 1.81542C8.68966 1.72645 8.35249 1.78264 8.17922 1.91845C8.13708 1.95123 8.10429 1.98869 8.07151 2.02616C7.828 2.04957 7.59854 2.17133 7.43464 2.37269C7.41122 2.37738 7.38781 2.37269 7.35971 2.37738C7.32693 2.35864 7.29415 2.33055 7.25669 2.32118C7.19581 2.30713 7.13025 2.30713 7.06 2.32118C7.03191 2.30245 7.00381 2.28372 6.97571 2.26967C6.7322 2.16196 6.32478 2.24625 6.13278 2.41952C6.02976 2.51318 5.95015 2.61621 5.89396 2.7286C5.78625 2.78011 5.69259 2.85503 5.64108 2.93933C5.62235 2.97211 5.6083 3.00489 5.59425 3.03767C5.55679 3.04703 5.51464 3.06577 5.47718 3.07982C5.43035 3.06577 5.37883 3.0564 5.332 3.0564C5.07912 3.06108 4.77005 3.29523 4.67171 3.52001C4.66235 3.53874 4.66235 3.55747 4.65298 3.5762C4.564 3.63708 4.47971 3.70264 4.4282 3.77757C4.31112 3.95552 4.25493 4.14284 4.25493 4.33016C4.15191 4.43786 4.07698 4.57367 4.03483 4.7282C3.86157 4.77503 3.6883 4.86869 3.59464 4.98577C3.46352 5.15435 3.39327 5.33698 3.38391 5.5243C3.16381 5.5805 2.93435 5.75377 2.84537 5.9364C2.77044 6.08625 2.74235 6.24079 2.74703 6.39064C2.63464 6.42811 2.52693 6.47962 2.45669 6.54518C2.23659 6.75591 2.14761 7.02752 2.16166 7.29445C2.13357 7.32255 2.10547 7.34596 2.07737 7.37874C2.04459 7.42089 2.01181 7.4724 1.98839 7.5286C1.82917 7.58011 1.67932 7.66908 1.61844 7.8002V7.80489C1.41239 7.88918 1.22508 8.02967 1.15952 8.2123C1.08927 8.4043 1.13142 8.68528 1.23913 8.88664C1.22976 9.06459 1.26722 9.26128 1.35152 9.38303C1.40303 9.45796 1.46391 9.51884 1.52947 9.57035C1.53415 9.63123 1.54352 9.69679 1.55757 9.75767C1.50605 9.90752 1.50605 10.0574 1.5482 10.1932C1.53415 10.2072 1.5201 10.2213 1.50605 10.24C1.30937 10.4835 1.22039 10.9659 1.51542 11.1813C1.41239 11.3311 1.3562 11.5138 1.34683 11.7104C1.34683 11.7339 1.35152 11.762 1.35152 11.7854C1.15483 12.0898 1.09396 12.6049 1.43113 12.8343C1.37962 13.0123 1.39366 13.1996 1.45454 13.3682C1.41239 13.4853 1.39835 13.607 1.40771 13.7335C1.16888 14.0098 1.03308 14.5108 1.36556 14.7731C1.40303 14.8012 1.44986 14.8199 1.492 14.8433C1.5482 14.9744 1.63717 15.0822 1.74956 15.1618C1.75425 15.2367 1.7683 15.3116 1.7964 15.3819C1.75893 15.5692 1.7964 15.7471 1.88069 15.897C1.83854 16.1358 1.9041 16.3746 2.04927 16.562C2.06801 16.768 2.16166 16.946 2.30683 17.0818C2.32556 17.1707 2.35366 17.2504 2.39581 17.3206L2.39113 17.3253C2.24595 17.5735 2.21318 18.009 2.46137 18.2104C2.4801 18.2712 2.50351 18.3227 2.5363 18.3696C2.40986 18.6599 2.40049 19.0345 2.69083 19.2219C2.77044 19.2734 2.86879 19.2968 2.96713 19.3108C2.97649 19.3249 2.99054 19.3436 2.99991 19.3577C2.98586 19.5965 3.07483 19.8119 3.23405 19.9664C3.21064 20.0648 3.21064 20.1819 3.22937 20.2896C3.09356 20.5705 3.07483 20.9499 3.36049 21.1325C3.40732 21.1653 3.46352 21.184 3.51503 21.1981C3.54781 21.2636 3.58995 21.3198 3.64147 21.3713C3.64147 21.4088 3.64147 21.4509 3.65083 21.4837C3.69298 21.657 3.79132 21.7881 3.91308 21.8818C3.90839 21.9707 3.91776 22.0597 3.94117 22.1487C3.77259 22.4156 3.71171 22.8324 4.00674 23.0291C4.05357 23.1836 4.14254 23.3101 4.25493 23.4084C4.25493 23.4084 4.25493 23.4084 4.25493 23.4131C4.28303 23.5442 4.34391 23.6566 4.42352 23.7503C4.41883 23.769 4.40947 23.783 4.40479 23.8018C4.32518 24.0687 4.39074 24.4761 4.65766 24.6213C4.67171 24.7009 4.69981 24.7805 4.74664 24.8414C4.71386 24.8788 4.68576 24.9163 4.66703 24.9631C4.55932 25.1973 4.63425 25.586 4.79347 25.778C4.84029 25.8295 4.88713 25.881 4.93864 25.9184C4.94332 26.0074 4.95269 26.0964 4.9761 26.1854C5.02761 26.3727 5.15873 26.5741 5.332 26.7099C5.332 26.7192 5.332 26.7333 5.332 26.7426C5.37883 26.9908 5.51464 27.1875 5.69727 27.314C5.70195 27.328 5.70664 27.3514 5.71132 27.3655C5.7441 27.431 5.78625 27.4872 5.83308 27.5434C5.83308 27.5575 5.83308 27.5715 5.83776 27.5856C5.92674 27.9696 6.19835 28.2271 6.53083 28.3348C6.60108 28.5128 6.73688 28.6673 6.92888 28.6814C6.96166 28.7563 7.00849 28.8312 7.06469 28.8921C7.07405 28.9577 7.08342 29.0279 7.10683 29.0935C7.17239 29.2902 7.35034 29.5009 7.56108 29.5852C7.55639 29.6507 7.55639 29.721 7.56576 29.7912C7.58449 29.9504 7.65942 30.1284 7.76713 30.2736C7.79054 30.489 7.88888 30.6903 8.10898 30.7793C8.22605 30.8262 8.35249 30.8308 8.4883 30.8121C8.44615 31.1493 8.56791 31.5614 8.93317 31.6316C8.96595 31.6363 8.99405 31.6316 9.02683 31.6316C9.05493 31.6644 9.08771 31.6972 9.13454 31.7206C9.27503 31.7955 9.44361 31.7862 9.63093 31.7534C9.76205 31.8611 9.92596 31.9126 10.0945 31.9173C10.1226 31.9594 10.1601 31.9969 10.1929 32.0344C10.3381 32.1748 10.5816 32.2779 10.797 32.2498C10.8485 32.2638 10.9 32.2732 10.9515 32.2779C11.1107 32.5495 11.4432 32.7883 11.757 32.6619C11.9256 32.7181 12.1035 32.7274 12.2861 32.6946C12.3283 32.7087 12.3751 32.7181 12.4266 32.7181C12.4875 32.7134 12.5437 32.69 12.5999 32.6619C12.7357 32.7743 12.9137 32.8398 13.1057 32.8492C13.1291 32.8492 13.1525 32.8492 13.1759 32.8445C13.2461 32.8913 13.3258 32.9288 13.4101 32.9569C13.4616 33.0318 13.5224 33.1021 13.5927 33.1629C13.6348 33.1957 13.6817 33.2285 13.7285 33.2566C13.8362 33.4767 14.0188 33.6453 14.2811 33.6406C14.3981 33.6406 14.5012 33.5984 14.6089 33.5423C14.7306 33.6359 14.8805 33.6827 15.0397 33.6312C15.0772 33.6219 15.1053 33.5984 15.1381 33.5844C15.2223 33.6312 15.3113 33.6687 15.4097 33.6921C15.4893 33.7108 15.5736 33.7155 15.6672 33.7108C15.7328 33.7436 15.803 33.7764 15.878 33.7951C16.0793 33.8513 16.3416 33.8326 16.5476 33.7249C16.557 33.7343 16.5663 33.7436 16.5757 33.753C16.8192 33.945 17.25 34.048 17.5404 33.8794C17.7886 33.9122 18.0742 33.8607 18.2475 33.6921C18.2803 33.6687 18.3131 33.6453 18.3459 33.6219C18.3505 33.6265 18.3552 33.6265 18.3599 33.6312C18.5004 33.6921 18.6971 33.7062 18.8657 33.6593C19.053 33.753 19.2824 33.7717 19.4323 33.6078C19.437 33.6031 19.437 33.5984 19.4417 33.5984C19.4932 33.6125 19.5447 33.6172 19.6009 33.6172C19.718 33.6687 19.8538 33.6593 19.9989 33.6312C20.0177 33.6546 20.0364 33.6827 20.0598 33.7062C20.3267 33.9778 20.8981 34.151 21.1978 33.8092C21.3008 33.8139 21.4085 33.7998 21.5068 33.767C21.5911 33.7951 21.6754 33.8185 21.7644 33.8326C21.9423 33.856 22.1624 33.8139 22.3451 33.7249C22.4621 33.7249 22.5745 33.6921 22.6682 33.6031C22.7759 33.5001 22.8274 33.3596 22.8649 33.1957C22.8836 33.191 22.8977 33.1863 22.9117 33.177C22.9913 33.2191 23.0709 33.2472 23.1646 33.266C23.2114 33.2753 23.2582 33.28 23.3098 33.28C23.4737 33.3971 23.6703 33.4486 23.867 33.3596C24.0543 33.28 24.1761 33.1067 24.2932 32.8913C24.4056 32.8726 24.5179 32.8304 24.621 32.7696C24.6538 32.7508 24.6819 32.7274 24.7146 32.6993C24.8879 32.7181 25.0799 32.6712 25.1876 32.5401C25.2017 32.5401 25.211 32.5448 25.2251 32.5448C25.2298 32.5448 25.2298 32.5448 25.2344 32.5448C25.5295 32.7789 26.0633 32.9007 26.3115 32.5354C26.3209 32.5214 26.3256 32.498 26.3349 32.4839C26.3771 32.4792 26.4192 32.4745 26.4614 32.4652C26.5363 32.4792 26.6159 32.4839 26.7002 32.4558C26.8875 32.3949 27.0233 32.2357 27.1591 32.0344C27.2387 32.0297 27.3183 32.0156 27.398 31.9922C27.6555 32.1186 27.988 32.1374 28.1706 31.8892C28.2221 31.8189 28.2456 31.7393 28.2643 31.6503C28.4422 31.6222 28.5968 31.5286 28.6623 31.346C28.6998 31.2429 28.6951 31.1305 28.667 31.0135C28.7841 30.9573 28.8778 30.873 28.934 30.77C29.1728 30.7044 29.3929 30.5311 29.4022 30.2783C29.5849 30.1659 29.7535 29.9598 29.7909 29.7397C29.9314 29.7257 30.0672 29.6648 30.1515 29.529C30.2264 29.4119 30.2405 29.2761 30.2405 29.1216C30.4278 29.042 30.6198 28.8734 30.6947 28.6673C30.7228 28.6345 30.7509 28.6018 30.7697 28.5549C30.8961 28.5362 31.0132 28.48 31.0928 28.3583C31.163 28.2599 31.1911 28.1428 31.1958 28.0117C31.4346 27.9274 31.6688 27.7448 31.725 27.5247C31.739 27.4685 31.739 27.4029 31.7343 27.3421C31.7437 27.328 31.7531 27.314 31.7671 27.2999C31.8561 27.1922 31.917 27.033 31.9451 26.8691C32.1558 26.8363 32.3478 26.7286 32.4227 26.5085C32.4696 26.3586 32.4461 26.1994 32.3946 26.0262C32.5211 25.9231 32.6194 25.7873 32.6381 25.6468C32.6381 25.6422 32.6381 25.6375 32.6381 25.6375C32.9051 25.4127 33.0971 25.0427 32.9004 24.7243L32.8957 24.7196C32.9238 24.626 32.9425 24.5183 32.9425 24.4105C33.0877 24.2045 33.1626 23.9235 33.0456 23.7081C33.3172 23.5489 33.57 23.1602 33.4389 22.8371C33.4389 22.7341 33.4296 22.6264 33.4155 22.514C33.5279 22.3875 33.6169 22.2096 33.6262 22.041C33.6356 22.0316 33.645 22.0223 33.6543 22.0129C33.7386 21.9754 33.8089 21.9145 33.8651 21.8256C33.9681 21.657 33.9634 21.4509 33.9353 21.2168C34.0149 21.1512 34.0711 21.0623 34.0852 20.9452C34.0899 20.8843 34.0805 20.8187 34.0618 20.7579C34.0992 20.711 34.132 20.6642 34.1695 20.6127C34.2584 20.505 34.3193 20.3458 34.3521 20.1819C34.502 20.032 34.6143 19.8306 34.6003 19.648C34.5956 19.5637 34.5581 19.4794 34.5113 19.3951C34.5347 19.3389 34.5488 19.2781 34.5581 19.2078C34.7267 19.0439 34.8579 18.777 34.8298 18.5569C34.8906 18.4492 34.9328 18.3134 34.9468 18.1682C35.0358 18.0792 35.0967 17.9715 35.1107 17.8638C35.1201 17.7936 35.1014 17.7093 35.0733 17.6297C35.2231 17.4704 35.2934 17.2316 35.3683 16.9553C35.4292 16.7821 35.4198 16.5292 35.3449 16.3231C35.3964 16.2342 35.4385 16.1311 35.4807 16.0187C35.5181 15.9391 35.5322 15.8314 35.5322 15.7284C35.5556 15.7097 35.579 15.6863 35.5978 15.6582C35.9677 15.5832 36.2908 15.3397 36.2487 14.9791ZM19.3105 32.3481C19.3059 32.3481 19.3059 32.3434 19.3012 32.3387C19.1607 32.2825 18.9593 32.3153 18.8141 32.3949C18.6971 32.306 18.5613 32.2498 18.4395 32.2685C18.4161 32.2732 18.388 32.2825 18.3599 32.2919C18.3224 32.2825 18.2897 32.2685 18.2569 32.2638C18.1585 32.2544 18.0649 32.2638 17.9712 32.2872C17.798 32.1233 17.5591 32.0063 17.3531 32.039C17.3297 32.0437 17.3016 32.0578 17.2781 32.0671C17.2313 32.0437 17.1845 32.025 17.133 32.0203C16.8895 31.9828 16.5617 32.1421 16.4024 32.3387C16.2151 32.1748 15.9482 32.0578 15.7375 32.114C15.6017 32.0343 15.4471 31.9875 15.3066 31.9969C15.1521 31.847 14.9367 31.73 14.7541 31.7206C14.6651 31.7159 14.5808 31.7253 14.5012 31.7393C14.4075 31.641 14.2951 31.5661 14.1781 31.5426C14.0235 31.5145 13.8362 31.5707 13.677 31.6644C13.5599 31.6082 13.4381 31.5848 13.3304 31.6082C13.2087 31.5239 13.0495 31.4677 12.8996 31.463C12.7591 31.3366 12.5671 31.2383 12.3517 31.1399C12.2955 31.1071 12.23 31.0884 12.1597 31.0697C12.1503 31.065 12.1503 31.0509 12.141 31.0463C11.9583 30.8964 11.5931 30.8683 11.387 30.9666C11.3777 30.9713 11.3683 30.9807 11.3542 30.9854C11.2746 30.9713 11.1857 30.962 11.0967 30.9526C11.0171 30.8308 10.9047 30.7278 10.7829 30.695C10.6471 30.6623 10.4739 30.7044 10.3334 30.7793C10.31 30.77 10.2865 30.7606 10.2584 30.7512C10.2538 30.7512 10.2491 30.7512 10.2491 30.7465C10.2631 30.681 10.2678 30.6154 10.2584 30.5545C10.2163 30.311 9.94469 30.0441 9.71522 29.9832C9.70586 29.9785 9.69649 29.9785 9.68713 29.9785C9.68713 29.9645 9.69181 29.9551 9.69181 29.9411C9.69649 29.6882 9.48108 29.3604 9.26098 29.2433C9.25161 29.1263 9.2282 29.0185 9.16264 28.9342C9.04556 28.775 8.788 28.6626 8.56791 28.6486C8.53981 28.6018 8.50235 28.5643 8.46957 28.5268C8.4602 28.3583 8.404 28.1944 8.2963 28.096C8.21669 28.0258 8.09493 27.9836 7.97317 27.9649C7.96381 27.9508 7.96381 27.9321 7.95444 27.9181C7.92166 27.8806 7.87952 27.8478 7.828 27.8197C7.87483 27.7026 7.89357 27.5762 7.85142 27.4404C7.78118 27.2109 7.57513 27.0517 7.32693 26.8831C7.32225 26.8691 7.31756 26.8597 7.31288 26.8457C7.252 26.752 7.16303 26.6818 7.05532 26.6256C6.97571 26.4383 6.79776 26.2978 6.58703 26.1432C6.57766 26.1151 6.56829 26.087 6.54956 26.0589C6.54488 26.0496 6.53552 26.0449 6.53083 26.0355C6.62449 25.8342 6.65259 25.5438 6.57298 25.3143C6.61044 25.1317 6.58235 24.9444 6.44186 24.7992C6.32947 24.6868 6.17493 24.6306 6.00166 24.5979C5.97356 24.5651 5.94547 24.5323 5.91269 24.4995C5.94547 24.434 5.9642 24.3684 5.9642 24.3028C5.95951 24.2232 5.92205 24.1389 5.86586 24.064C5.9361 23.9376 5.96888 23.7971 5.94078 23.6706C5.91737 23.5629 5.83776 23.4505 5.73942 23.3616C5.73942 23.3522 5.73942 23.3428 5.73473 23.3288C5.72537 23.2913 5.70195 23.2585 5.68322 23.2258C5.72537 23.1368 5.74878 23.0338 5.72537 22.9261C5.69727 22.7856 5.61298 22.6685 5.50059 22.5514C5.53337 22.336 5.40693 22.0363 5.23835 21.9099C5.19152 21.8724 5.14001 21.8443 5.09318 21.8162C5.09318 21.7553 5.08381 21.6944 5.06508 21.6383C5.09786 21.5586 5.10722 21.4697 5.07912 21.376C5.05571 21.3058 5.01356 21.2449 4.96205 21.1934C5.0042 21.1044 5.01825 21.0061 4.98547 20.8983C4.96674 20.8328 4.92927 20.7766 4.88713 20.7251C4.90117 20.697 4.91054 20.6642 4.91991 20.6314C4.96674 20.402 4.82157 20.0695 4.63893 19.9337C4.61552 19.9196 4.59679 19.9056 4.57337 19.8962C4.57337 19.8728 4.58273 19.8494 4.57805 19.826C4.564 19.7651 4.52654 19.6995 4.47971 19.6433C4.4563 19.4935 4.37201 19.3436 4.27366 19.1797C4.32049 19.072 4.33454 18.9596 4.29239 18.8472C4.31581 18.8051 4.33454 18.7583 4.34859 18.7114C4.4001 18.4679 4.25025 18.1167 4.05825 17.9715C4.05356 17.9715 4.05356 17.9668 4.04888 17.9668C4.06293 17.8357 4.03015 17.7046 3.93649 17.6016C3.93649 17.5875 3.94117 17.5735 3.94117 17.5547C3.94586 17.3346 3.75386 17.0583 3.56186 16.9647C3.55717 16.9553 3.54781 16.9413 3.54312 16.9319C3.54781 16.9179 3.55717 16.9038 3.55717 16.8851C3.58527 16.6978 3.4963 16.5151 3.37454 16.3138C3.36517 16.178 3.32771 16.0328 3.28557 15.8736C3.26215 15.7471 3.18254 15.602 3.07952 15.4802C3.04205 15.41 2.99991 15.3397 2.95776 15.2648C2.93434 15.218 2.8922 15.1664 2.85005 15.1243C2.85474 15.1009 2.85473 15.0775 2.85473 15.0541C2.89688 14.9885 2.92498 14.9136 2.92498 14.8199C2.92498 14.7637 2.91561 14.7122 2.89688 14.6607C2.98118 14.5858 3.04674 14.5015 3.07952 14.4031C3.14976 14.183 3.04673 13.8552 2.88751 13.6773C2.91561 13.5415 2.91093 13.3869 2.87815 13.2464C2.87347 13.1575 2.8641 13.0685 2.85005 12.9748C2.84537 12.9233 2.83601 12.8671 2.81727 12.8063C2.84537 12.7454 2.86879 12.6798 2.88283 12.6143C3.01864 12.4972 3.12166 12.3473 3.14039 12.1928C3.15912 12.0289 3.0842 11.8322 2.97649 11.673C3.03737 11.4857 3.04674 11.2843 2.96713 11.1344C2.93435 11.0783 2.88752 11.0221 2.83132 10.9752C2.9203 10.8909 2.98118 10.7879 2.99991 10.6802C3.028 10.5069 2.93434 10.2775 2.80791 10.1323C2.78917 10.0574 2.76108 9.97308 2.7283 9.89347C2.75171 9.79513 2.76108 9.68274 2.77513 9.56567C3.00927 9.37835 3.20127 9.03181 3.0842 8.74616C3.16849 8.57757 3.21064 8.39025 3.17786 8.21698C3.31366 8.2123 3.44478 8.16547 3.54781 8.0484C3.70235 7.87513 3.73044 7.62694 3.74449 7.33659C3.74917 7.33659 3.74918 7.33191 3.75386 7.33191C4.02079 7.34596 4.29239 7.2523 4.4001 6.99006C4.45161 6.85894 4.44693 6.71376 4.41883 6.55923C4.59678 6.55454 4.76537 6.49367 4.87308 6.33445C4.99483 6.1565 4.99952 5.92235 4.9761 5.65543C4.99015 5.62733 4.99952 5.59455 5.0042 5.56176C5.09786 5.50557 5.19152 5.44001 5.29454 5.36508C5.52869 5.37913 5.76283 5.30421 5.88459 5.08411C5.93142 4.99981 5.95015 4.90615 5.95952 4.80781C6.09064 4.75162 6.20303 4.65328 6.25454 4.50342C6.31073 4.34889 6.28732 4.17562 6.23581 3.99298H6.24049C6.52147 4.21308 6.94761 4.33016 7.21922 4.04918C7.28947 3.97425 7.33629 3.8806 7.36907 3.78225C7.48147 3.76821 7.58449 3.71669 7.65942 3.61367C7.67815 3.58557 7.6922 3.55279 7.70157 3.52001C7.89825 3.55279 8.11835 3.4966 8.36654 3.43104C8.39464 3.42635 8.41805 3.41698 8.44615 3.40762C8.6522 3.50128 8.88634 3.51533 9.05961 3.34674C9.12517 3.28586 9.16732 3.20625 9.2001 3.11728C9.22352 3.10791 9.24693 3.09855 9.27035 3.08918C9.34059 3.12196 9.41552 3.13601 9.49981 3.12664C9.69649 3.10323 9.85571 2.95806 10.0243 2.78479C10.1226 2.75669 10.2257 2.71923 10.3381 2.6724C10.3615 2.66772 10.3802 2.64899 10.4036 2.63962C10.4785 2.63962 10.5582 2.63962 10.6424 2.63494C10.7595 2.63962 10.9 2.59747 11.0264 2.52723C11.1107 2.5366 11.195 2.5366 11.2793 2.52255C11.3074 2.51786 11.3402 2.5085 11.3683 2.49913C11.476 2.52723 11.5837 2.54596 11.7008 2.54128C11.949 2.53191 12.2534 2.40547 12.4266 2.19474C12.5109 2.20411 12.5952 2.19942 12.6795 2.18538C12.8715 2.2322 13.0682 2.14791 13.2883 2.04021C13.4709 2.17133 13.7285 2.22752 13.8971 2.05894C13.9158 2.04021 13.9252 2.01679 13.9392 1.99806C13.9907 1.99806 14.0469 1.99337 14.1078 1.99337C14.164 1.99337 14.2249 1.98401 14.2904 1.96528C14.4028 2.26967 14.651 2.54596 14.9976 2.49445C15.1615 2.47104 15.2973 2.37737 15.4331 2.25094C15.4424 2.25562 15.4518 2.2603 15.4612 2.2603C15.4893 2.26967 15.5221 2.27435 15.5548 2.28372C15.5642 2.2884 15.5736 2.29308 15.5829 2.29776C15.8311 2.38206 16.1027 2.28372 16.4165 2.16196C16.4305 2.15728 16.4446 2.1526 16.4586 2.14323C16.6132 2.21347 16.7864 2.22752 16.9222 2.11045L16.9269 2.10577C16.9691 2.10108 17.0112 2.0964 17.058 2.08235C17.1142 2.14323 17.1751 2.19942 17.2454 2.25094C17.4701 2.41016 17.8354 2.48977 18.1164 2.38674C18.2241 2.47103 18.3552 2.52255 18.5098 2.5085C18.7299 2.48977 18.9125 2.34928 19.1045 2.17133C19.2871 2.2322 19.5072 2.22752 19.7554 2.21816C19.9193 2.22284 20.1254 2.15259 20.2893 2.04489C20.4813 2.14323 20.7014 2.16196 20.9121 2.10108H20.9168C21.0011 2.26967 21.1369 2.40547 21.3429 2.43357C21.5771 2.46635 21.8065 2.35396 22.0594 2.19942C22.2655 2.29308 22.5277 2.29308 22.8274 2.27903C22.9304 2.28372 23.0475 2.25562 23.1646 2.21347C23.3566 2.44762 23.6469 2.61152 23.942 2.4804C24.1152 2.40547 24.237 2.24625 24.3494 2.05425C24.4149 2.10108 24.4899 2.13386 24.5695 2.16196C24.6772 2.33991 24.8458 2.47103 25.0752 2.46635C25.211 2.46167 25.3375 2.41484 25.4592 2.33523C25.5576 2.39611 25.6746 2.42889 25.7964 2.39142C25.8526 2.37738 25.8994 2.34928 25.9462 2.3165C25.9743 2.33523 25.9978 2.35396 26.0259 2.37269C26.171 2.4523 26.3724 2.48508 26.555 2.44762C26.7236 2.6724 26.9859 2.80352 27.2809 2.81757C27.4026 2.95806 27.5712 3.04703 27.7585 2.99084C27.8194 2.97211 27.8756 2.93933 27.9224 2.90186C27.9459 2.92059 27.9693 2.93464 27.9974 2.94869C28.0067 2.95337 28.0161 2.95338 28.0208 2.95806C28.1847 3.16411 28.4329 3.30459 28.7185 3.33737C28.7888 3.34674 28.859 3.34206 28.934 3.33269C29.0979 3.67454 29.4912 3.99767 29.8752 3.81503C29.9595 3.77757 30.0251 3.71669 30.086 3.64645C30.1328 3.65113 30.1843 3.64645 30.2358 3.62772C30.2733 3.61367 30.3107 3.59025 30.3435 3.56684C30.381 3.58557 30.4138 3.60898 30.4512 3.61835C30.4559 3.63708 30.4606 3.65581 30.47 3.67455C30.5777 3.92742 30.868 4.18967 31.163 4.19435C31.3082 4.32547 31.4861 4.41913 31.6688 4.42381C31.7156 4.52684 31.7812 4.6205 31.8701 4.70011C31.8842 4.82186 31.9217 4.93893 31.9872 5.05601C31.9919 5.06069 31.9919 5.06538 31.9966 5.07006C32.02 5.19182 32.0668 5.30889 32.1324 5.39318C32.2776 5.57113 32.4649 5.66947 32.6616 5.70693C32.7037 5.75845 32.7552 5.8006 32.8067 5.83806C32.8021 5.88021 32.7974 5.92235 32.802 5.9645C32.8067 6.14713 32.8957 6.35786 33.0362 6.50303C33.0362 6.50772 33.0409 6.5124 33.0409 6.5124C33.1533 6.68567 33.3031 6.80274 33.4764 6.86362C33.4904 6.91045 33.5045 6.96196 33.5279 7.00879C33.5841 7.13991 33.7012 7.27103 33.8417 7.36001C33.8417 7.4724 33.8604 7.5801 33.8979 7.6644C34.0196 7.91259 34.221 8.06713 34.4551 8.13737C34.5066 8.2123 34.5722 8.26849 34.6424 8.31532C34.6424 8.36684 34.6471 8.41367 34.6518 8.46518C34.5909 8.61035 34.5581 8.76957 34.5675 8.93815C34.5722 9.07864 34.6237 9.24255 34.7033 9.38303C34.605 9.5563 34.5535 9.75767 34.5675 9.97308C34.5675 9.98713 34.5722 10.0012 34.5722 10.0105C34.516 10.2775 34.5769 10.5491 34.7314 10.7785C34.6284 10.9331 34.5722 11.1532 34.605 11.3077C34.6331 11.4482 34.6893 11.5653 34.7689 11.6683C34.7595 11.7292 34.7595 11.7901 34.7689 11.8416C34.7782 11.8744 34.797 11.8978 34.8063 11.9305C34.7876 11.9633 34.7689 11.9961 34.7595 12.0289C34.6986 12.2443 34.7361 12.4457 34.8344 12.6143C34.8157 12.6751 34.8063 12.736 34.811 12.8016C34.7127 12.8578 34.6331 12.9374 34.5909 13.0264C34.5113 13.1949 34.5488 13.4525 34.6424 13.6304C34.6378 13.6632 34.6284 13.7007 34.6284 13.7288C34.6284 13.8693 34.6659 13.9957 34.7267 14.1081C34.5535 14.2626 34.4223 14.5343 34.4317 14.7403C34.4364 14.8714 34.4692 14.9979 34.516 15.1056C34.4739 15.218 34.4785 15.3631 34.5207 15.4896C34.4364 15.6254 34.3989 15.7752 34.413 15.9391C34.3989 15.9625 34.3755 15.9813 34.3615 16.0094C33.9494 16.2623 33.8182 16.7305 33.9634 17.1567C33.9494 17.1988 33.94 17.2457 33.9306 17.2925C33.8604 17.344 33.7901 17.4096 33.734 17.4845C33.6684 17.5782 33.6169 17.6999 33.5935 17.8264C33.4904 17.9856 33.4389 18.1776 33.4436 18.3789C33.3781 18.4773 33.3265 18.585 33.2938 18.7067C33.2797 18.7583 33.275 18.8191 33.275 18.8753C33.2235 18.9784 33.1954 19.0861 33.186 19.2031C33.0971 19.2874 33.0221 19.3904 32.966 19.5028C32.9144 19.6105 32.8817 19.7464 32.877 19.8822C32.8114 20.0273 32.7833 20.1959 32.788 20.3645C32.7786 20.3879 32.7646 20.416 32.7599 20.4394C32.7552 20.4582 32.7552 20.4769 32.7552 20.4956C32.7271 20.519 32.699 20.5424 32.6803 20.5705C32.5211 20.7953 32.4789 21.0482 32.5258 21.287C32.4742 21.3947 32.4415 21.5165 32.4555 21.6102C32.4602 21.6476 32.4696 21.6804 32.4789 21.7179C32.4181 21.7834 32.3712 21.863 32.3338 21.9473C32.3057 21.9707 32.2729 21.9942 32.2495 22.0223C32.1418 22.1627 32.0809 22.3173 32.0668 22.4765C31.9638 22.528 31.8795 22.5983 31.828 22.6872C31.7109 22.8933 31.739 23.2539 31.8701 23.4459C31.8748 23.4505 31.8795 23.4552 31.8842 23.4599C31.7062 23.5302 31.547 23.6519 31.4861 23.8064C31.4534 23.8954 31.4534 24.0125 31.4721 24.1249C31.444 24.1764 31.4206 24.2279 31.4019 24.2841C31.3035 24.3263 31.2192 24.3824 31.1583 24.4621C30.9944 24.6728 30.9804 25.0896 31.0975 25.319C31.1021 25.3237 31.1021 25.3284 31.1068 25.3331C31.0975 25.3565 31.0881 25.3799 31.0787 25.4033C31.0319 25.4548 30.9991 25.511 30.9757 25.5672C30.8914 25.7686 30.8867 25.97 30.9336 26.1526C30.7181 26.2603 30.5636 26.4429 30.484 26.6583C30.3857 26.7099 30.292 26.7754 30.2124 26.8597C30.1515 26.9253 30.0953 27.0049 30.0485 27.0939C30.0485 27.0939 30.0438 27.0985 30.0391 27.0985C29.9314 27.2343 29.8705 27.3842 29.8518 27.5341C29.7956 27.5809 29.7488 27.6324 29.716 27.6839C29.6973 27.7214 29.6832 27.7542 29.6692 27.7916C29.51 27.8057 29.3507 27.8619 29.2618 27.9696C29.1962 28.0492 29.1541 28.1616 29.1353 28.2833C29.1166 28.3021 29.0979 28.3161 29.0838 28.3348C28.9714 28.4847 28.9152 28.6486 28.9105 28.8125C28.859 28.8687 28.8122 28.9249 28.7794 28.9904C28.5593 29.0045 28.3299 29.0841 28.2221 29.2433C28.18 29.3089 28.1566 29.3932 28.1425 29.4822C28.0161 29.6086 27.9224 29.8146 27.9224 29.9692C27.9224 30.0066 27.9271 30.0394 27.9318 30.0722C27.9131 30.0863 27.899 30.1003 27.8803 30.1143C27.7164 30.1518 27.5431 30.2736 27.4495 30.4187C27.3277 30.4609 27.2153 30.5311 27.1451 30.6154C27.1263 30.6342 27.117 30.6576 27.0982 30.681C27.028 30.6716 26.9531 30.6716 26.8781 30.681C26.7845 30.6669 26.6955 30.6623 26.6159 30.681C26.4988 30.7091 26.3958 30.7559 26.3068 30.8168C26.0727 30.7278 25.7917 30.7091 25.6044 30.8262C25.595 30.8308 25.5857 30.8449 25.5763 30.8496C25.389 30.8917 25.2017 30.9901 25.0986 31.1165C25.0518 31.1727 25.019 31.2289 24.9862 31.2898C24.9301 31.2944 24.8785 31.3038 24.8317 31.3272C24.7896 31.3506 24.7474 31.3881 24.7099 31.4302C24.6725 31.4209 24.6303 31.4115 24.5929 31.4162C24.4945 31.4256 24.3915 31.4911 24.3072 31.5707C24.2885 31.5661 24.2698 31.5614 24.251 31.5614C24.2463 31.5614 24.2417 31.5614 24.237 31.5614C24.0403 31.4583 23.7687 31.4302 23.5861 31.4958C23.4502 31.5426 23.3332 31.6176 23.2395 31.7019C23.1318 31.6738 23.0194 31.6644 22.9211 31.6972C22.7946 31.7393 22.6776 31.8517 22.5933 31.9828C22.4013 31.8985 22.1062 31.9407 21.9236 32.0531C21.7222 31.9641 21.4975 31.9313 21.3242 32.0062C21.2633 32.0297 21.2071 32.0718 21.1556 32.1233C21.1041 32.1046 21.0479 32.0952 20.9964 32.0905C20.9449 32.0531 20.8887 32.0203 20.8278 32.0062C20.5749 31.936 20.1909 32.0718 20.0223 32.2685C19.9802 32.32 19.9427 32.3715 19.91 32.423C19.8819 32.4324 19.8584 32.4418 19.8303 32.4558C19.6899 32.3809 19.4885 32.32 19.3105 32.3481Z" fill="#00C113"/>
<path d="M16.0934 32.4732C16.0934 32.3936 16.0793 32.3187 16.0512 32.2531C15.9482 32.033 15.6204 31.8457 15.3863 31.8457C15.2692 31.8457 15.1615 31.8691 15.0585 31.9019C14.8758 31.7661 14.6417 31.6818 14.445 31.7333C14.4216 31.738 14.3935 31.7567 14.3701 31.7707C14.2764 31.7614 14.1874 31.7661 14.1125 31.7895C14.0657 31.8035 14.0235 31.8223 13.9814 31.8457C13.9158 31.8035 13.8456 31.7708 13.7753 31.7661C13.588 31.7427 13.3492 31.855 13.204 32.0002C13.1993 32.0002 13.1947 32.0002 13.1947 32.0002C13.1619 31.9721 13.1291 31.9487 13.0963 31.9206C12.8669 31.7146 12.3798 31.6022 12.1082 31.7848C12.0708 31.8129 12.0333 31.8504 12.0005 31.8925C11.9584 31.8925 11.9115 31.8925 11.8741 31.8972C11.7851 31.8785 11.6868 31.8785 11.5884 31.9019C11.387 31.7239 11.1014 31.6022 10.8719 31.6584C10.7642 31.6865 10.6612 31.7614 10.5629 31.8504C10.3521 31.752 10.0337 31.7567 9.84637 31.8644C9.76207 31.9159 9.69183 31.9768 9.62627 32.0424C9.47174 31.9487 9.26568 31.8972 9.11583 31.9253C9.0409 31.9393 8.97066 31.9628 8.9051 31.9955C8.65222 31.8457 8.25885 31.7848 8.02471 31.9393C7.98256 31.9674 7.94042 32.0143 7.90295 32.0611C7.72032 31.9581 7.46744 31.9159 7.28949 31.9628C7.20988 31.9862 7.13495 32.0189 7.06471 32.0564C6.84461 32.0189 6.55895 32.0986 6.4091 32.2344C6.39037 32.2531 6.37163 32.2765 6.3529 32.2952C6.33417 32.2999 6.31076 32.3046 6.29203 32.3093L6.28734 32.3046C6.0532 32.1875 5.65515 32.2437 5.45847 32.4029C5.37886 32.4638 5.31798 32.5388 5.26178 32.6137C5.20559 32.6324 5.15876 32.6558 5.10725 32.6792C5.07447 32.6746 5.04168 32.6652 5.01359 32.6652C4.71388 32.6746 4.47037 32.815 4.31583 33.0305C4.14256 33.0305 3.95993 33.0867 3.83349 33.1897C3.81008 33.1803 3.79134 33.1663 3.76793 33.1616C3.51505 33.0867 3.13105 33.2131 2.95778 33.4004C2.94842 33.4145 2.93905 33.4285 2.92969 33.4379C2.90159 33.4472 2.87349 33.4472 2.84539 33.4566C2.69086 33.5222 2.5691 33.6252 2.47076 33.7376C2.25534 33.7657 2.00715 33.9717 1.93222 34.1684V34.1731C1.81515 34.1825 1.70744 34.2199 1.62315 34.2808C1.37027 34.2574 1.07056 34.3323 0.934758 34.5149C0.82705 34.6648 0.803636 34.9224 0.855149 35.119C0.855149 35.1237 0.850467 35.1331 0.845784 35.1378C0.827053 35.2127 0.822369 35.2829 0.827052 35.3532C0.766174 35.3907 0.714662 35.4328 0.677199 35.489C0.588223 35.6154 0.569491 35.8215 0.606954 35.9948C0.597588 36.0182 0.578857 36.0369 0.574174 36.0603C0.527345 36.2195 0.527345 36.3741 0.560126 36.5192C0.522662 36.5661 0.485197 36.6129 0.452417 36.6691C0.358758 36.8283 0.311928 37.0625 0.349392 37.2685C0.344709 37.2919 0.349392 37.32 0.349392 37.3434C0.307245 37.3996 0.274465 37.4605 0.251051 37.5167C0.0871483 38.0037 0.335342 38.472 0.78022 38.6687C0.803635 38.6781 0.827051 38.6874 0.855149 38.6921C0.897295 38.7483 0.953489 38.7951 1.0331 38.8186C1.07056 38.8326 1.10803 38.8326 1.15017 38.8326C1.18764 38.9309 1.24383 39.0199 1.31408 39.1042C1.32344 39.2634 1.389 39.4086 1.53417 39.5023C1.64188 39.5678 1.76364 39.5912 1.89944 39.5959C2.0212 39.7692 2.20383 39.8956 2.41924 39.9706C2.46139 40.111 2.53164 40.2422 2.61593 40.3265C2.77047 40.4763 2.94842 40.5653 3.13105 40.5981C3.36051 40.8416 3.70705 40.9493 4.05827 40.8884C4.13788 40.9165 4.22217 40.9352 4.31115 40.9399C4.44227 40.9446 4.59681 40.9118 4.73261 40.8369C4.82159 40.8556 4.91993 40.8509 5.01827 40.8275C5.07447 40.8697 5.14003 40.9025 5.20559 40.9212C5.28051 41.0055 5.37417 41.071 5.50061 41.0804C5.67856 41.0991 5.85183 41.0148 6.03446 40.9025C6.17495 41.0008 6.35291 41.0429 6.51212 40.9493C6.56832 40.9165 6.61046 40.865 6.65261 40.8088C6.765 40.8275 6.88207 40.8228 6.98978 40.7854C7.18178 40.879 7.40656 40.8931 7.6173 40.8088C7.62198 40.8135 7.63134 40.8182 7.63603 40.8228C7.69691 40.8556 7.76715 40.8744 7.84207 40.8884C7.98725 41.0664 8.19798 41.1881 8.42744 41.1038C8.52578 41.0664 8.60539 41.0008 8.68032 40.9165C8.75525 40.9259 8.83017 40.9306 8.9051 40.9165C9.01749 41.0102 9.15329 41.0664 9.31251 41.0336C9.42959 41.0102 9.52793 40.9493 9.62159 40.8603C9.79017 40.8931 9.96812 40.879 10.1367 40.8228C10.399 40.9493 10.7361 40.9727 10.9375 40.7526C11.1201 40.7667 11.3262 40.7339 11.4807 40.6355C11.5744 40.6308 11.6633 40.6028 11.743 40.5325C11.7476 40.5278 11.7476 40.5231 11.7523 40.5231C11.7898 40.5278 11.8319 40.5231 11.8741 40.5138C11.9256 40.4997 11.9771 40.4763 12.0192 40.4435C12.127 40.4997 12.244 40.5419 12.3705 40.5606C12.6936 40.6121 13.1525 40.4716 13.293 40.1438C13.4194 40.1485 13.5506 40.1251 13.6817 40.0783C13.9439 39.9752 14.2155 39.6849 14.2155 39.3852C14.2155 39.3805 14.2202 39.3805 14.2202 39.3758C14.2296 39.3758 14.239 39.3758 14.2483 39.3711C14.5527 39.3149 14.918 39.0246 14.8899 38.6828C14.8946 38.6781 14.8946 38.6687 14.8992 38.664C15.1147 38.65 15.3207 38.5563 15.3956 38.3409C15.6438 38.2894 15.8639 38.1442 15.9014 37.8773C15.9108 37.8024 15.9014 37.7321 15.8827 37.6572C16.0747 37.512 16.2058 37.2919 16.1309 37.0484C16.1168 37.0063 16.0934 36.9641 16.07 36.9267C16.1262 36.8424 16.1683 36.7487 16.173 36.655C16.1777 36.6035 16.1636 36.5427 16.1496 36.4865C16.2058 36.4115 16.2432 36.3272 16.2573 36.2383C16.2994 35.976 16.1168 35.6108 15.9014 35.4703C15.8873 35.4609 15.8733 35.4562 15.8592 35.4468C15.8452 35.4234 15.8311 35.4 15.8171 35.3766C15.892 35.2876 15.9482 35.1799 15.9576 35.0722C16.0419 35.002 16.1121 34.9177 16.1402 34.8193C16.2011 34.618 16.1121 34.3323 15.9763 34.1637C16.0091 34.0747 16.0138 33.9811 15.981 33.8874C16.084 33.761 16.1543 33.6065 16.1449 33.4566C16.2713 33.3021 16.3556 33.1241 16.3416 32.9508C16.3369 32.7869 16.2292 32.609 16.0934 32.4732Z" fill="#00C113"/>
<path d="M37.1946 37.5546C37.1899 37.5359 37.1759 37.5218 37.1712 37.5031C37.2133 37.3907 37.2227 37.2736 37.1806 37.1706C37.2321 37.0863 37.2648 36.9927 37.2648 36.9037C37.2648 36.7257 37.1478 36.515 37.0026 36.3792C36.9745 36.3089 36.9417 36.234 36.9043 36.1544C37.0073 35.9858 37.0447 35.7798 36.923 35.6065C36.8762 35.5409 36.8153 35.4941 36.7404 35.452C36.7216 35.3911 36.6982 35.3349 36.6654 35.274C36.7731 35.0914 36.8153 34.8807 36.6888 34.6933C36.5577 34.492 36.2955 34.4077 36.0005 34.314C35.9162 34.2812 35.8038 34.2719 35.6961 34.2719C35.6539 34.2531 35.6071 34.2344 35.5603 34.2157C35.5462 34.211 35.5322 34.211 35.5181 34.2063C35.476 34.1127 35.4057 34.0143 35.3168 33.93C35.284 33.7848 35.2231 33.649 35.1247 33.5601C35.003 33.4524 34.8016 33.4008 34.6096 33.3962C34.5206 33.2791 34.4129 33.1854 34.2865 33.1433C34.1179 33.0918 33.8931 33.1339 33.7105 33.2229C33.6403 33.1761 33.556 33.1433 33.467 33.1105C33.4576 33.0777 33.4483 33.0449 33.4342 33.0168C33.3312 32.8061 33.0127 32.6375 32.7833 32.6422C32.7318 32.6422 32.6896 32.6516 32.6428 32.6609C32.5491 32.6094 32.4461 32.5673 32.3431 32.5532C32.2775 32.4362 32.1932 32.3331 32.0855 32.2816C31.9123 32.1927 31.6453 32.202 31.4393 32.2816C31.3737 32.2723 31.3082 32.2676 31.2426 32.2676C31.177 32.1739 31.0927 32.0943 30.9944 32.0568C30.9101 32.0241 30.8118 32.0194 30.7087 32.0288C30.5261 31.9351 30.292 31.8929 30.1234 31.9398C29.9876 31.9772 29.8658 32.0381 29.7675 32.1224C29.7347 32.113 29.7019 32.0943 29.6691 32.0943C29.5802 32.0849 29.5006 32.0896 29.4209 32.1037C29.3975 32.0849 29.3788 32.0709 29.3601 32.0568C29.1306 31.8508 28.6436 31.7431 28.372 31.921C28.3673 31.9257 28.3673 31.9304 28.3626 31.9304C28.2596 31.9585 28.1706 32.0007 28.091 32.0568C28.0488 31.9772 27.9927 31.9117 27.9271 31.8649C27.7257 31.7244 27.3464 31.729 27.1357 31.8461C27.0748 31.8789 27.0233 31.921 26.9765 31.9632C26.953 31.9585 26.9296 31.9538 26.9062 31.9491C26.7048 31.7384 26.3817 31.5792 26.1242 31.6401C25.9884 31.6728 25.8526 31.7759 25.7448 31.9023C25.6887 31.921 25.6371 31.9445 25.595 31.9726C25.492 31.9164 25.3702 31.8789 25.2391 31.8742C24.9956 31.6916 24.5507 31.6026 24.2978 31.7712C24.2557 31.7993 24.2229 31.8368 24.1901 31.8789C24.1105 31.8133 24.0215 31.7665 23.9279 31.7525C23.8529 31.7431 23.764 31.7618 23.6797 31.7899C23.5298 31.7478 23.3706 31.7431 23.2488 31.7806C23.1927 31.7993 23.1411 31.8227 23.0943 31.8461C22.9257 31.7431 22.729 31.6869 22.5651 31.729C22.4902 31.7478 22.4106 31.7946 22.3404 31.8555C21.961 31.9117 21.6801 32.1786 21.577 32.5345C21.4974 32.6188 21.4319 32.7125 21.3804 32.8202C21.2258 33.1433 21.2399 33.6818 21.577 33.8926C21.577 33.8972 21.5817 33.8972 21.5817 33.9019C21.5677 34.0003 21.577 34.0986 21.6051 34.1876C21.3757 34.4405 21.2446 34.9134 21.5583 35.1569C21.5864 35.1804 21.6192 35.1897 21.6473 35.2038C21.6567 35.2319 21.666 35.2553 21.6754 35.2787C21.6613 35.3068 21.6473 35.3396 21.6426 35.3677C21.6286 35.4473 21.6332 35.5222 21.6426 35.5925C21.6051 35.6299 21.5677 35.6627 21.5349 35.7049C21.3288 35.9624 21.2258 36.426 21.4319 36.7164C21.4131 36.8615 21.4319 37.0067 21.4881 37.1285C21.4881 37.1378 21.4881 37.1472 21.4881 37.1566C21.5302 37.3345 21.6145 37.4797 21.7316 37.5921C21.7878 37.9058 22.0079 38.1587 22.3123 38.2851C22.3778 38.3788 22.4574 38.4584 22.5558 38.524C22.5605 38.5521 22.5651 38.5848 22.5745 38.6129C22.626 38.7862 22.7571 38.9688 22.9257 39.0766C23.0241 39.1936 23.1458 39.2779 23.2863 39.3294C23.3191 39.3763 23.3612 39.4044 23.3987 39.4418C23.4081 39.5121 23.4221 39.5823 23.4502 39.6385C23.5813 39.9101 23.8108 40.0693 24.0684 40.1255C24.1246 40.2286 24.2088 40.3082 24.3306 40.3363C24.4336 40.3597 24.5367 40.3503 24.6444 40.3128C24.7942 40.4393 24.9768 40.5236 25.1876 40.5564C25.3281 40.5798 25.4967 40.561 25.6512 40.5142C25.6699 40.5142 25.684 40.5142 25.698 40.5095C25.7495 40.4955 25.7964 40.4721 25.8385 40.444C25.9837 40.5751 26.1897 40.6641 26.377 40.6266C26.4426 40.6641 26.5082 40.6922 26.5784 40.7156C26.6674 40.7437 26.7657 40.7577 26.8687 40.753C27.0842 40.8935 27.3839 40.9685 27.618 40.8701C27.6602 40.8701 27.6976 40.8748 27.7398 40.8701C27.8568 40.9872 28.0067 41.0574 28.18 41.0247C28.2783 41.0059 28.3673 40.9544 28.4469 40.8842C28.5499 40.9123 28.6576 40.9216 28.7607 40.9076C28.9011 41.0668 29.1025 41.1698 29.3179 41.0949C29.4397 41.0528 29.5333 40.9591 29.6176 40.842C29.7675 40.8935 29.9548 40.9029 30.1 40.8373C30.2498 40.8654 30.409 40.8608 30.5636 40.7952C30.5683 40.7952 30.5683 40.7905 30.5729 40.7905C30.676 40.8139 30.779 40.8139 30.882 40.7858C30.9897 40.9029 31.1349 40.9872 31.2848 40.9872C31.3456 41.0293 31.4112 41.0574 31.4908 41.0668C31.6875 41.0855 31.8795 40.9825 32.0855 40.8467C32.2541 40.945 32.4648 40.9731 32.6147 40.8327C32.6287 40.8186 32.6381 40.7999 32.6522 40.7858C32.6803 40.7952 32.713 40.8092 32.7411 40.8139C32.8208 40.8327 32.9097 40.8327 33.0034 40.8186C33.1111 40.8748 33.2375 40.9123 33.3687 40.917C33.4623 40.9216 33.5653 40.9029 33.6637 40.8701C33.7808 40.8889 33.9025 40.8889 34.0243 40.8654C34.2678 40.8233 34.5488 40.65 34.6799 40.4112C34.722 40.3831 34.7688 40.3503 34.811 40.3175C34.9047 40.2379 34.9843 40.1255 35.0451 40.0038C35.4104 40.0319 35.8693 39.8586 35.9068 39.4512C35.9068 39.4371 35.9021 39.4231 35.9021 39.409C35.9255 39.395 35.9443 39.3856 35.963 39.3669C36.0847 39.3575 36.2018 39.3107 36.2861 39.2077C36.4032 39.0719 36.4266 38.8846 36.436 38.6738C36.4407 38.6738 36.4453 38.6691 36.4453 38.6691C36.7778 38.7769 37.2742 38.7113 37.3772 38.3179C37.4428 38.0931 37.3257 37.8449 37.1946 37.5546Z" fill="#00C113"/>
<path d="M11.8273 13.9626C11.2373 13.3445 11.6025 11.4853 13.3867 11.3448C15.1709 11.2044 15.2084 12.7591 14.9133 13.588C14.6792 14.2389 13.265 15.4705 11.8273 13.9626Z" fill="#494949"/>
<path d="M21.6005 13.7342C21.0292 13.0973 21.666 10.9853 23.4268 11.2944C24.8551 11.5426 24.8364 12.4604 24.6256 13.2799C24.4055 14.1182 23.0054 15.3076 21.6005 13.7342Z" fill="#494949"/>
<path d="M21.6379 16.3516C21.371 16.1221 21.0151 16.1408 20.7622 16.3469C20.6873 16.3375 20.6171 16.3375 20.5562 16.3609C20.3595 16.4265 20.1675 16.6841 20.1441 16.8854C20.1441 16.8948 20.1441 16.8995 20.1441 16.9088C20.0739 16.9603 20.0223 17.0259 19.9755 17.0961C19.8538 17.0915 19.7367 17.1008 19.6477 17.1617C19.6337 17.1711 19.6243 17.1898 19.6102 17.1992C19.4744 17.2039 19.3246 17.2788 19.2122 17.3771C18.9921 17.3912 18.7954 17.4802 18.6362 17.63C18.4536 17.4661 18.196 17.349 17.9759 17.3771C17.8401 17.3537 17.7043 17.3631 17.5779 17.3912C17.3952 17.2273 17.1283 17.1617 16.8145 17.0961C16.7443 17.0774 16.6647 17.0681 16.5804 17.0681C16.5663 17.0259 16.5617 16.9838 16.5382 16.951C16.4727 16.8526 16.3603 16.7777 16.2292 16.7262C16.1496 16.6372 16.0559 16.5482 15.9576 16.4546C15.7375 16.2204 15.2458 16.0612 14.9507 16.2204C14.7166 16.3469 14.534 16.7122 14.548 16.9744C14.5714 17.4193 14.8524 17.7424 15.227 17.8782C15.3347 18.1311 15.5642 18.3512 15.8499 18.2903C15.8545 18.2903 15.8592 18.2856 15.8639 18.2856C16.0981 18.6228 16.4633 18.768 16.8286 18.7258C16.8848 18.8897 16.9972 19.0208 17.1751 19.0817C17.3624 19.1473 17.5685 19.1051 17.7933 19.0302C17.8869 19.0911 17.9853 19.1426 18.0977 19.1754C18.3599 19.2503 18.7299 19.2082 18.95 19.0162C19.1279 18.9974 19.3152 18.9178 19.526 18.8242C19.5868 18.8007 19.6477 18.768 19.7039 18.7258C19.9287 18.7586 20.1722 18.6977 20.2799 18.4917C20.5468 18.4729 20.8793 18.2809 20.9402 18C20.9823 17.9344 21.0292 17.8595 21.0713 17.7799C21.3289 17.7424 21.5911 17.5925 21.6005 17.3162C21.6005 17.2647 21.5958 17.2132 21.5818 17.1617C21.6941 17.0962 21.7831 17.0025 21.8159 16.8948C21.8534 16.7168 21.7644 16.464 21.6379 16.3516Z" fill="#494949"/>
<path d="M25.4171 28.527C25.3609 28.335 25.183 28.2085 24.9676 28.0587C24.9254 28.0259 24.8739 28.0025 24.8224 27.9791C24.813 27.951 24.8084 27.9182 24.7896 27.8948C24.7475 27.8339 24.6772 27.7871 24.6023 27.7496C24.5508 27.4546 24.3213 27.0987 24.0357 27.0285C23.9139 27.0004 23.7594 27.0191 23.6189 27.0753C23.5533 27.0378 23.4878 27.0097 23.4175 27.005C23.3145 26.9957 23.1974 27.0331 23.0897 27.094C23.0804 27.0893 23.0757 27.0846 23.0663 27.08C23.0569 27.0659 23.0569 27.0472 23.0476 27.0378C22.9024 26.8599 22.5559 26.7615 22.3358 26.8177C22.1672 26.6538 21.9424 26.5367 21.741 26.5602C21.6146 26.5742 21.4788 26.6445 21.3617 26.7428C21.1838 26.5461 20.8934 26.3916 20.6546 26.4384C20.6078 26.4478 20.5656 26.4712 20.5188 26.4946C20.3362 26.415 20.1067 26.3916 19.8538 26.3682C19.8304 26.3635 19.8023 26.3635 19.7742 26.3635C19.6525 26.2464 19.5073 26.1668 19.3574 26.1621C19.2919 26.1621 19.2216 26.1762 19.1467 26.1996C18.9922 26.1621 18.8189 26.1621 18.6971 26.2136C18.6409 26.237 18.5894 26.2651 18.5426 26.2932C18.2569 26.1715 17.7933 26.1949 17.5826 26.429C17.5639 26.4525 17.5498 26.4852 17.5311 26.5133C17.4983 26.5274 17.4655 26.5461 17.4374 26.5648C17.325 26.5602 17.2173 26.5789 17.1143 26.6164C16.9879 26.5274 16.838 26.4759 16.7069 26.4899C16.6039 26.504 16.4962 26.5602 16.3978 26.6398C16.262 26.6351 16.1028 26.6866 15.981 26.7709C15.9248 26.7662 15.8686 26.7709 15.8171 26.7803C15.6064 26.6819 15.3161 26.6726 15.1287 26.7568C15.1194 26.7615 15.11 26.7709 15.1006 26.7756C15.0819 26.7709 15.0679 26.7568 15.0491 26.7568C14.8009 26.6913 14.4263 26.8318 14.2671 27.0285C14.2484 27.0519 14.239 27.0753 14.2203 27.094C14.0704 27.094 13.9018 27.1362 13.7613 27.2111C13.6536 27.2392 13.5506 27.286 13.4804 27.3469C13.3633 27.4546 13.2837 27.5764 13.2368 27.7075C13.2181 27.7122 13.1994 27.7075 13.1806 27.7168C13.087 27.759 13.0027 27.8573 12.9418 27.9697C12.8201 28.0119 12.703 28.0821 12.6374 28.1664C12.3892 28.4989 12.4642 28.9204 12.7545 29.1826C12.9699 29.3746 13.4148 29.4776 13.6021 29.1826C13.6489 29.1077 13.6677 29.0187 13.677 28.9204C13.7286 28.911 13.7847 28.9016 13.8363 28.8829C14.0283 28.9391 14.2296 28.9204 14.3748 28.7658C14.4404 28.6956 14.4825 28.6066 14.5106 28.5129C14.7307 28.6487 15.021 28.719 15.2552 28.63C15.3723 28.6534 15.4893 28.6441 15.6064 28.5785C15.7188 28.5176 15.8031 28.4193 15.8733 28.3022C15.9717 28.2694 16.07 28.232 16.173 28.1851C16.1871 28.1805 16.2011 28.1711 16.2152 28.1664C16.4212 28.246 16.6694 28.2554 16.8333 28.1102C17.0628 28.1524 17.3297 28.1102 17.4936 27.9557C17.6622 27.965 17.8542 27.9276 18.0649 27.8807C18.093 27.8761 18.1211 27.8667 18.1539 27.8573C18.285 27.8854 18.4255 27.8901 18.5613 27.8667C18.7112 27.9604 18.8891 27.9931 19.0624 27.9088C19.0811 27.8995 19.0952 27.8854 19.1139 27.8714C19.2404 27.9369 19.3996 27.9744 19.5541 27.9744C19.7508 28.0259 19.9568 28.0119 20.1535 27.9463C20.2144 27.9463 20.2753 27.9323 20.3408 27.9135C20.4486 28.0166 20.5797 28.1008 20.7295 28.1524C20.9122 28.2132 21.151 28.2132 21.3524 28.1383C21.4413 28.2179 21.5444 28.2882 21.6567 28.3397C21.7504 28.3818 21.8581 28.4052 21.9752 28.4146C22.111 28.5223 22.2749 28.5785 22.4575 28.5176C22.5699 28.4802 22.6636 28.4052 22.7479 28.3022C22.8322 28.335 22.9305 28.349 23.0288 28.349C23.0476 28.3631 23.0663 28.3818 23.0897 28.3959C23.1131 28.4099 23.1366 28.424 23.1647 28.438C23.2162 28.5317 23.2817 28.616 23.366 28.6909C23.5393 28.8548 23.839 28.9765 24.1012 28.9484C24.1387 28.9578 24.1808 28.9578 24.223 28.9531C24.3822 29.103 24.6023 29.1873 24.8365 29.1592C25.1408 29.1264 25.5108 28.8642 25.4171 28.527Z" fill="#00C113"/>
</svg>
