<svg width="57" height="71" viewBox="0 0 57 71" fill="none" xmlns="http://www.w3.org/2000/svg">
<path d="M27.4843 59.2329C27.4983 59.069 27.4187 58.877 27.3063 58.7225C27.3063 58.6944 27.311 58.6709 27.311 58.6382C27.3204 58.5586 27.311 58.4649 27.2923 58.3712C27.3625 58.2542 27.3906 58.123 27.325 57.9919C27.2408 57.8233 27.0534 57.7344 26.8333 57.6313C26.824 57.6267 26.8052 57.622 26.7959 57.6173C26.6741 57.3831 26.4447 57.163 26.2105 57.149C26.0794 57.1396 25.9295 57.1911 25.7937 57.2708C25.7282 57.2661 25.6673 57.2708 25.6158 57.2848C25.5549 57.2989 25.4987 57.3223 25.4472 57.3457C25.4425 57.341 25.4378 57.3363 25.4331 57.3363C25.2786 57.2614 25.0257 57.3035 24.8759 57.4019C24.8712 57.4019 24.8665 57.4019 24.8665 57.3972C24.8056 57.2239 24.6979 57.0741 24.5574 56.9991C24.3327 56.8821 23.9393 56.9336 23.7426 57.0881C23.7379 57.0881 23.7379 57.0928 23.7332 57.0975C23.7286 57.0975 23.7239 57.0975 23.7145 57.0975C23.6443 57.0507 23.574 57.0085 23.5038 56.9898C23.2134 56.9102 22.9371 56.971 22.7124 57.1162C22.6187 57.1162 22.5344 57.1349 22.4548 57.1677C22.2956 57.0132 22.0006 56.9149 21.7805 56.9851C21.6774 56.9664 21.5697 56.971 21.4854 56.9991C21.4433 57.0132 21.4105 57.046 21.373 57.0647C21.2513 57.0179 21.1248 57.0085 20.9984 57.0319C20.8673 56.8821 20.6847 56.7603 20.5114 56.765C20.4365 56.7697 20.3569 56.8025 20.2772 56.8446C20.1414 56.8212 20.0056 56.8352 19.8745 56.8727C19.8558 56.8633 19.8324 56.854 19.8136 56.8399C19.5608 56.6901 19.0831 56.6807 18.863 56.9008C18.8489 56.9148 18.8349 56.9429 18.8209 56.9617C18.6897 56.854 18.5305 56.7744 18.3853 56.7978C18.3572 56.8025 18.3338 56.8165 18.3057 56.8259C18.2074 56.7978 18.1044 56.7837 18.0248 56.7978C17.9779 56.8071 17.9311 56.8212 17.8889 56.8352C17.8047 56.8165 17.711 56.8118 17.608 56.8071C17.5471 56.7603 17.4862 56.7275 17.4253 56.7088C17.1444 56.6151 16.8681 56.6573 16.648 56.7884C16.5449 56.7369 16.4372 56.7135 16.3342 56.7182C16.1516 56.5824 15.8566 56.5168 15.6599 56.5683C15.6177 56.5777 15.5803 56.5964 15.5428 56.6105C15.4257 56.6386 15.318 56.6807 15.2431 56.7603C15.1963 56.8071 15.1588 56.868 15.1307 56.9336C15.0089 57.1069 14.9434 57.3223 14.9528 57.547C14.8872 57.7016 14.8685 57.8702 14.8966 58.0341C14.845 58.1043 14.7982 58.1839 14.7608 58.2729C14.7233 58.3666 14.7046 58.4743 14.6999 58.5867C14.6249 58.7974 14.6343 59.0315 14.7092 59.2469C14.6999 59.2797 14.6905 59.3172 14.6811 59.3547C14.536 59.3359 14.3674 59.3593 14.2269 59.4296C14.152 59.35 14.0677 59.2891 13.974 59.261C13.7586 59.1954 13.4449 59.2844 13.2529 59.4296C13.1686 59.4343 13.0889 59.453 13.0234 59.4811C12.9016 59.5326 12.7986 59.6075 12.7143 59.6918C12.6909 59.6918 12.6675 59.6871 12.6441 59.6871C12.4474 59.7012 12.2226 59.8791 12.1196 60.0618C12.0119 60.0618 11.9042 60.0758 11.8105 60.118C11.5764 60.0665 11.272 60.1133 11.094 60.2725C10.9816 60.3006 10.8739 60.3849 10.7896 60.4879C10.6819 60.4692 10.5602 60.4739 10.4431 60.5067C10.3448 60.4645 10.2464 60.4411 10.1528 60.4551C9.96075 60.4832 9.7547 60.6612 9.66104 60.8438C9.47373 60.9094 9.31451 61.0358 9.19275 61.2091C9.1787 61.2091 9.16934 61.2138 9.15529 61.2185C9.05227 61.1669 8.94456 61.1389 8.84153 61.1482C8.6027 61.1763 8.33109 61.4151 8.25617 61.6352C8.2468 61.668 8.24212 61.7008 8.23275 61.7336C8.03139 61.7149 7.77851 61.7945 7.65207 61.9256C7.59119 61.9865 7.54905 62.0567 7.51158 62.1269C7.39919 62.155 7.2868 62.2019 7.18846 62.2768C7.15568 62.2815 7.12758 62.2815 7.0948 62.2909C6.84661 62.3611 6.59373 62.6702 6.55626 62.9184C6.52817 63.101 6.5469 63.2696 6.60778 63.4241C6.36426 63.5037 6.13012 63.6676 6.05988 63.883C6.03178 63.9627 6.03178 64.061 6.04114 64.164C5.95685 64.342 5.92407 64.5621 5.96621 64.726C5.97558 64.7588 5.98963 64.7869 5.999 64.8149C5.9709 64.8899 5.95685 64.9601 5.95685 65.0257C5.96153 65.227 6.04114 65.4003 6.15822 65.5314C6.15822 65.7188 6.23314 65.8873 6.35958 66.0091C6.34553 66.1215 6.36427 66.2386 6.41109 66.3463C6.37831 66.4071 6.3549 66.468 6.33617 66.5383C6.25656 66.8333 6.35958 67.2828 6.68739 67.3859C6.64992 67.5545 6.70144 67.7792 6.80914 67.8963C6.81383 67.901 6.81851 67.9057 6.82788 67.9104C6.82319 68.0228 6.84192 68.1398 6.88407 68.2194C7.02924 68.4957 7.29617 68.6315 7.57714 68.6222C7.63802 68.6971 7.71295 68.758 7.80192 68.8095C7.88153 69.0951 8.15783 69.4136 8.48095 69.3527C8.54651 69.3855 8.61675 69.4089 8.69168 69.4229C8.78534 69.6571 8.97734 69.8678 9.23022 69.8678C9.37539 69.9615 9.53929 70.013 9.70788 70.0224C9.73597 70.0598 9.76875 70.0973 9.80622 70.1301C9.93266 70.2518 10.134 70.3455 10.3307 70.3736C10.4103 70.4251 10.4899 70.4672 10.5836 70.4953C10.7241 70.5422 10.9067 70.5468 11.0706 70.5094C11.2158 70.5703 11.375 70.5749 11.5061 70.4953C11.5717 70.5141 11.6372 70.5234 11.7122 70.5047C11.7403 70.4953 11.7684 70.4813 11.7965 70.4672C11.9229 70.5468 12.0634 70.603 12.2179 70.6265C12.4427 70.6639 12.733 70.603 12.9391 70.4532C13.1498 70.5281 13.3887 70.5234 13.6134 70.4345C13.6603 70.4157 13.7024 70.3923 13.7492 70.3642C13.7773 70.3642 13.8054 70.3689 13.8335 70.3642C13.9974 70.4626 14.1894 70.5047 14.3908 70.4907C14.5453 70.6265 14.7467 70.6967 14.9434 70.603C15.0136 70.5703 15.0698 70.5187 15.1213 70.4579C15.2478 70.5094 15.407 70.5281 15.5569 70.5047C15.5943 70.5234 15.6365 70.5422 15.6786 70.5515C15.8378 70.5984 16.0486 70.5984 16.2312 70.5375L16.2359 70.5422C16.3998 70.6171 16.5871 70.5984 16.7931 70.5515C16.9992 70.5984 17.2427 70.5609 17.5143 70.5094C17.6782 70.4906 17.8702 70.4017 18.0248 70.2752C18.1325 70.2612 18.2448 70.2284 18.3291 70.1675C18.493 70.2144 18.685 70.2144 18.9005 70.205C19.1018 70.2144 19.3688 70.1067 19.5327 69.9428C19.6029 70.0505 19.6966 70.1348 19.8324 70.1769C20.0337 70.2378 20.2491 70.1816 20.4833 70.0926C20.5488 70.1207 20.6191 70.1394 20.7034 70.1301C20.8767 70.116 21.0265 70.0224 21.1764 69.8912C21.2045 69.9006 21.2279 69.9146 21.256 69.924C21.3403 69.9474 21.4433 69.9568 21.5416 69.9521C21.6774 70.027 21.832 70.0551 21.9912 69.9896C22.1083 69.9427 22.2019 69.8585 22.2862 69.7507C22.5531 69.8304 22.8669 69.7976 23.0027 69.5353C23.0121 69.5119 23.0168 69.4885 23.0261 69.4651C23.0448 69.4604 23.0683 69.451 23.087 69.4417C23.2134 69.4838 23.3539 69.5026 23.4944 69.4932C23.7941 69.4745 24.1734 69.2684 24.2765 68.9593C24.3842 68.964 24.4919 68.9406 24.5808 68.8563C24.5949 68.8423 24.6043 68.8235 24.6183 68.8048C25.0023 68.8844 25.5502 68.7346 25.6064 68.2803C25.6158 68.196 25.6017 68.1117 25.5783 68.0274C25.6813 67.9385 25.7516 67.8308 25.7703 67.7043C25.8312 67.5779 25.8733 67.428 25.9202 67.2641C25.9436 67.1986 25.9576 67.1236 25.9623 67.044C26.0138 66.9831 26.0466 66.9129 26.0513 66.8239C26.0513 66.8052 26.0466 66.7865 26.0419 66.7677C26.0981 66.7022 26.1496 66.6272 26.2058 66.5523C26.2292 66.5242 26.248 66.4821 26.2667 66.4446C26.5664 66.3182 26.8333 66.0466 26.7584 65.7094C26.7256 65.5642 26.632 65.4425 26.5149 65.3254C26.5617 65.2177 26.5758 65.1053 26.557 65.0069C26.6039 64.9414 26.6413 64.8758 26.6507 64.8009C26.6601 64.74 26.6507 64.6698 26.6273 64.5995C26.6507 64.4497 26.646 64.2811 26.6367 64.0985C26.824 63.9065 26.9364 63.6161 26.8006 63.382C26.9083 63.1806 26.9223 62.923 26.927 62.6233C26.927 62.6093 26.927 62.5952 26.927 62.5812C27.0019 62.4828 27.0488 62.3658 27.03 62.23C27.0113 62.1082 26.9457 62.0005 26.8568 61.8975C26.8568 61.8179 26.8427 61.7336 26.8193 61.6446C26.838 61.6212 26.8568 61.5931 26.8708 61.5603C26.9176 61.4432 26.9036 61.3121 26.8708 61.1669C26.9364 61.0311 26.9551 60.8579 26.9738 60.6659C26.9926 60.5675 26.9738 60.4458 26.9364 60.3287C26.9504 60.3006 26.9645 60.2678 26.9785 60.235C27.016 60.2116 27.0534 60.1882 27.0862 60.1601C27.2782 60.0009 27.4328 59.6965 27.414 59.4249C27.4515 59.3874 27.4796 59.3125 27.4843 59.2329Z" fill="#FF8412"/>
<path d="M27.3859 47.0716L16.8821 46.3926L15.7207 57.4443C18.8161 57.3647 24.0563 57.7299 26.6507 58.1467L27.3859 47.0716Z" fill="#FFEA62"/>
<path d="M28.0228 49.5809C28.079 49.4451 28.0837 49.2999 28.0041 49.1641C27.9666 49.1033 27.9198 49.0564 27.8636 49.019C27.8636 49.0143 27.8683 49.0049 27.8683 49.0002C28.0462 48.8879 28.2008 48.7146 28.2289 48.532C28.2476 48.4102 28.2148 48.265 28.1492 48.1292C28.2195 47.9981 28.2476 47.8482 28.1961 47.7078C28.1961 47.5298 28.1446 47.3284 28.079 47.113C28.0556 47.01 27.9994 46.8976 27.9245 46.7946C27.873 46.6213 27.7653 46.4574 27.6201 46.4012C27.4796 46.3497 27.2735 46.3872 27.1331 46.4715C27.0722 46.4621 27.0019 46.4574 26.9317 46.4574C26.9083 46.4199 26.8849 46.3825 26.8568 46.3591C26.7537 46.2795 26.5898 46.2467 26.44 46.2514C26.2527 46.1062 25.9061 46.064 25.6954 46.153C25.6533 46.1718 25.6205 46.1905 25.583 46.2139C25.5174 46.1764 25.4472 46.1483 25.377 46.1437C25.3161 46.139 25.2552 46.153 25.1896 46.1764C25.1007 46.1062 25.0023 46.0547 24.904 46.0453C24.7916 46.036 24.6605 46.0734 24.5434 46.139C24.3233 46.036 24.033 46.0078 23.8456 46.1202C23.6958 46.0828 23.5366 46.0828 23.4195 46.1483C23.4148 46.153 23.4101 46.1577 23.4054 46.1577C23.368 46.1577 23.3305 46.1624 23.2931 46.1671C23.2696 46.153 23.2462 46.1343 23.2228 46.1249C23.1338 46.0875 23.0449 46.0734 22.9559 46.0687C22.806 45.9563 22.614 45.8767 22.4595 45.8767C22.3892 45.8767 22.3237 45.8861 22.2581 45.9001C22.2441 45.8908 22.2347 45.8814 22.2207 45.872C22.0052 45.755 21.6306 45.7971 21.4386 45.9376C21.4199 45.9517 21.4058 45.9704 21.3871 45.9844C21.3215 45.9844 21.2513 45.9938 21.1811 46.0172C21.1436 45.9985 21.1061 45.9798 21.0733 45.9704C20.8907 45.9282 20.7174 45.9517 20.5676 46.0219C20.4927 46.0032 20.4131 45.9891 20.3288 45.9704C20.31 45.9657 20.2913 45.9704 20.2726 45.9657C20.2211 45.8955 20.1555 45.8346 20.0806 45.8018C19.9401 45.7409 19.734 45.755 19.5701 45.8205C19.5654 45.8205 19.5654 45.8159 19.5608 45.8159C19.425 45.7878 19.2985 45.7971 19.1814 45.8252C19.1768 45.8252 19.1721 45.8205 19.1674 45.8159C18.9192 45.7269 18.6757 45.7503 18.4696 45.8533C18.2964 45.755 18.0294 45.7269 17.8234 45.7971C17.7204 45.755 17.6127 45.7316 17.519 45.7597C17.505 45.7643 17.4909 45.7737 17.4722 45.7831C17.2755 45.666 16.9992 45.6051 16.8166 45.7035C16.7089 45.7597 16.6152 45.8861 16.559 46.0172C16.4372 46.1109 16.3483 46.242 16.3014 46.3872C16.2827 46.4059 16.2593 46.4246 16.2452 46.4434C16.0813 46.6635 16.0298 46.9163 16.0673 47.1552C16.0064 47.2863 15.983 47.4502 16.0017 47.586C15.9783 47.6281 15.9549 47.6656 15.9455 47.7078C15.8753 47.9559 15.9081 48.1901 16.0111 48.3915C16.0111 48.4008 16.0017 48.4149 16.0017 48.4242C15.9924 48.5741 16.0252 48.7099 16.086 48.8223C15.9549 48.8598 15.8378 48.93 15.7629 49.0237C15.6037 49.225 15.5803 49.6278 15.6973 49.8525C15.7395 49.9368 15.7957 50.0071 15.8519 50.0726C15.7723 50.1476 15.702 50.2319 15.6458 50.3302C15.4913 50.5971 15.4492 51.0373 15.6458 51.3089C15.5662 51.4822 15.5381 51.6789 15.5615 51.8849C15.5615 51.899 15.5709 51.9177 15.5709 51.9318C15.5381 52.0535 15.5288 52.1846 15.5475 52.3158C15.5053 52.4235 15.4819 52.5359 15.4773 52.6529C15.3742 52.8309 15.3368 53.0791 15.3883 53.2477C15.407 53.3085 15.4304 53.3647 15.4632 53.4209V53.4256C15.4445 53.552 15.4538 53.6738 15.4913 53.7815C15.4398 53.8564 15.4117 53.9595 15.407 54.0672C15.2384 54.2966 15.1822 54.5729 15.2291 54.8445C15.1822 54.9944 15.1729 55.1536 15.201 55.3081C15.112 55.5282 15.1073 55.7718 15.1822 56.0012C15.1635 56.0668 15.1588 56.137 15.1541 56.2073C15.1307 56.2307 15.1026 56.2447 15.0839 56.2728C14.9621 56.4601 14.9715 56.8067 15.0886 56.994C15.0932 56.9987 15.0932 57.0034 15.0979 57.0034C14.9574 57.2469 14.9153 57.5934 15.1682 57.7714C15.2899 57.8603 15.4445 57.8744 15.6177 57.8744C15.7535 58.0664 16.0111 58.2256 16.2359 58.1273C16.3623 58.1881 16.5028 58.2303 16.6573 58.235C16.7697 58.2397 16.8915 58.2162 17.0132 58.1694C17.1537 58.3567 17.3645 58.4879 17.608 58.427C17.711 58.3989 17.8 58.338 17.8843 58.2631C17.9592 58.2912 18.0341 58.3099 18.1184 58.324C18.2683 58.3427 18.4462 58.3193 18.6054 58.2584C18.7085 58.3614 18.8396 58.4317 19.0035 58.4129C19.1393 58.3989 19.2564 58.3286 19.3781 58.235C19.4765 58.2912 19.5842 58.3099 19.7059 58.2724C19.7574 58.2537 19.8043 58.2256 19.8464 58.1928C19.8651 58.1975 19.8839 58.2069 19.9026 58.2116C19.9822 58.2209 20.0618 58.2022 20.1461 58.1741C20.3569 58.3239 20.6285 58.3895 20.9048 58.3427C20.9937 58.3942 21.0968 58.4317 21.1951 58.4504C21.4105 58.6471 21.7009 58.7595 21.9678 58.6096C22.0708 58.5534 22.1457 58.4644 22.2113 58.3614C22.3471 58.4644 22.511 58.5347 22.6936 58.5581C22.8388 58.5815 23.0168 58.5628 23.176 58.5019C23.4476 58.6705 23.7941 58.7033 24.1172 58.5815C24.1547 58.5675 24.1922 58.5487 24.225 58.53C24.2858 58.5347 24.3467 58.53 24.4076 58.5206C24.4123 58.5206 24.4123 58.5206 24.417 58.5206C24.5293 58.5628 24.6511 58.5768 24.7729 58.5628C24.9508 58.7688 25.2365 58.9093 25.4847 58.7548C25.5034 58.7454 25.5128 58.7267 25.5315 58.7126C25.6626 58.9561 25.8874 59.1481 26.1777 59.1013C26.3885 59.0685 26.5524 58.9187 26.7256 58.7314C26.7912 58.7126 26.8568 58.6939 26.9223 58.6752C27.1658 58.619 27.4655 58.352 27.4702 58.0898C27.4702 58.0711 27.4609 58.0477 27.4609 58.0289C27.5826 57.9072 27.6669 57.762 27.6763 57.6121C27.6856 57.4389 27.592 57.2328 27.4609 57.083C27.4843 56.9706 27.4983 56.8535 27.4749 56.7458C27.4796 56.7083 27.4843 56.6756 27.4796 56.6334C27.4702 56.5351 27.4187 56.4461 27.3532 56.3618C27.4749 56.2166 27.5592 56.0199 27.5171 55.8607C27.503 55.8092 27.4749 55.7577 27.4421 55.7109C27.4936 55.6219 27.5264 55.5282 27.5124 55.4393C27.5077 55.4018 27.4936 55.3643 27.4749 55.3269C27.5405 55.2285 27.5873 55.1115 27.6107 54.9897C27.7887 54.7977 27.9198 54.5167 27.8683 54.2873C27.8495 54.2077 27.8027 54.128 27.7465 54.0531C27.7278 53.9735 27.695 53.9033 27.6435 53.833C27.6575 53.7956 27.6763 53.7534 27.6903 53.7159C27.7559 53.5755 27.7746 53.3835 27.7465 53.2008C27.8402 52.9901 27.8542 52.7044 27.7606 52.4984C27.7231 52.4047 27.6716 52.3064 27.6013 52.2034C27.6013 52.1846 27.606 52.1706 27.606 52.1519C27.6669 52.1097 27.7231 52.0582 27.7606 51.9786C27.8308 51.8334 27.8168 51.6695 27.7793 51.4869C28.0181 51.2902 28.1914 50.9718 28.0228 50.6861C28.0041 50.658 27.9807 50.6346 27.9572 50.6112C27.9713 50.5737 27.9807 50.5362 27.9853 50.4941C27.99 50.4239 27.9666 50.3442 27.9385 50.2693C28.0509 50.0539 28.1258 49.7917 28.0228 49.5809ZM24.7401 57.3124C24.6511 57.289 24.5387 57.2937 24.4263 57.3124C24.4216 57.3078 24.4123 57.3078 24.4076 57.3031C24.2624 57.2047 24.0798 57.1298 23.8784 57.0502C23.6771 56.9565 23.3727 56.9472 23.1292 57.0315C23.1011 57.0268 23.073 57.0315 23.0449 57.0315C22.8294 56.8582 22.497 56.7458 22.2628 56.8395L22.2581 56.8441C22.2534 56.8395 22.2534 56.8395 22.2488 56.8348C22.0427 56.6662 21.6353 56.6381 21.4011 56.7505C21.3918 56.7552 21.3871 56.7599 21.3777 56.7645C21.3637 56.7599 21.3543 56.7505 21.3403 56.7458C21.1857 56.7037 20.9797 56.7458 20.8158 56.8348C20.5582 56.7177 20.1883 56.699 19.9775 56.8676C19.9541 56.8863 19.9354 56.9191 19.912 56.9472C19.8183 56.9097 19.7153 56.8957 19.6216 56.905C19.4905 56.8207 19.3407 56.7645 19.2095 56.7645C19.0503 56.7692 18.9052 56.8114 18.7834 56.8863C18.6991 56.8676 18.6101 56.8629 18.5258 56.8722C18.3151 56.6615 17.9217 56.5117 17.6548 56.6194C17.6361 56.6287 17.6127 56.6475 17.5939 56.6615C17.5846 56.6615 17.5705 56.6615 17.5612 56.6615C17.3972 56.6896 17.2568 56.7599 17.1397 56.8535C17.1022 56.8488 17.0694 56.8441 17.0273 56.8441C16.9992 56.8395 16.9664 56.8441 16.9336 56.8441C16.8587 56.7786 16.7604 56.7177 16.6527 56.6756C16.6573 56.5772 16.6339 56.4742 16.5684 56.3852C16.5637 56.3759 16.5543 56.3759 16.5496 56.3665C16.6199 56.2026 16.6573 56.0059 16.6854 55.7858C16.737 55.6266 16.737 55.4346 16.7276 55.2238C16.7697 55.0834 16.7932 54.9241 16.8212 54.7509C16.854 54.5917 16.8353 54.3903 16.7697 54.2077C16.7744 54.1842 16.7744 54.1655 16.7744 54.1421C16.8212 54.0812 16.854 54.0063 16.8587 53.922C16.8634 53.8377 16.8447 53.7581 16.8119 53.6785C17.0039 53.5193 17.1256 53.2851 17.0273 53.0416C17.0086 52.9901 16.9758 52.9433 16.943 52.9011C16.943 52.8964 16.9477 52.8918 16.9477 52.8871C17.0133 52.7419 17.0367 52.5312 17.0039 52.3392C17.046 52.2268 17.0648 52.0863 17.0554 51.9411C17.1725 51.7257 17.2193 51.4213 17.1303 51.1872C17.3036 51.0326 17.4394 50.8266 17.4394 50.6252C17.4394 50.4707 17.3551 50.2974 17.2427 50.1522C17.4815 49.9368 17.6361 49.6043 17.4628 49.314C17.4066 49.2203 17.3223 49.1548 17.2287 49.0939C17.313 49.019 17.3645 48.9206 17.3738 48.8036C17.4675 48.7286 17.5424 48.6303 17.5658 48.4992C17.5986 48.3259 17.5471 48.1526 17.4628 47.97C17.5846 47.8248 17.6454 47.6422 17.5705 47.4549C17.5799 47.3331 17.5705 47.202 17.5518 47.0615C17.5658 47.0568 17.5799 47.0521 17.5986 47.0428C17.6173 47.0475 17.6314 47.0568 17.6501 47.0615C17.7251 47.0802 17.8093 47.0849 17.8983 47.0756C17.9405 47.0943 17.9826 47.113 18.0294 47.1224C18.0903 47.216 18.1793 47.291 18.3011 47.3284C18.4369 47.3659 18.5727 47.3425 18.7178 47.2957C18.7787 47.3425 18.849 47.3799 18.9379 47.3893C19.0972 47.408 19.2517 47.3472 19.4156 47.2582C19.6451 47.4315 19.9775 47.5204 20.1976 47.3003C20.2023 47.2957 20.207 47.2863 20.2117 47.2816C20.2773 47.3565 20.3615 47.4127 20.4739 47.4268C20.6519 47.4502 20.8252 47.3706 21.0125 47.2629C21.0968 47.3238 21.1998 47.3706 21.2981 47.3846C21.448 47.5439 21.6681 47.6656 21.8835 47.6703C21.9678 47.7124 22.0568 47.7359 22.1645 47.7265C22.305 47.7124 22.4267 47.6516 22.5485 47.5579C22.6936 47.5532 22.8482 47.497 23.0168 47.4315C23.1385 47.5298 23.2931 47.5813 23.4476 47.5111C23.4897 47.4923 23.5272 47.4642 23.56 47.4361C23.6677 47.4877 23.7894 47.5158 23.9206 47.5158C23.9393 47.5158 23.958 47.5111 23.9768 47.5111C24.1313 47.5907 24.3092 47.6328 24.4966 47.6235C24.5293 47.6235 24.5621 47.6141 24.5949 47.6094C24.801 47.7218 25.096 47.7686 25.3114 47.6609C25.3301 47.6656 25.3442 47.6656 25.3629 47.6703C25.5502 47.881 25.8312 48.0262 26.0981 47.8857C26.1403 47.8623 26.1731 47.8342 26.2105 47.8014C26.3089 47.8436 26.4119 47.8576 26.5102 47.8342C26.5102 47.9372 26.529 48.0356 26.5617 48.1199C26.3932 48.3774 26.3182 48.7942 26.5336 49.0377C26.4634 49.1688 26.44 49.3468 26.4681 49.506C26.4306 49.5481 26.3932 49.5903 26.3744 49.6371C26.2901 49.8338 26.351 50.1429 26.4774 50.3208C26.4681 50.3396 26.4634 50.3583 26.4587 50.3817C26.44 50.4004 26.4119 50.4098 26.3932 50.4332C26.2433 50.6205 26.2199 50.9858 26.3229 51.1965C26.351 51.2574 26.3885 51.3136 26.4306 51.3651C26.4213 51.529 26.4587 51.6929 26.5477 51.8334C26.5383 51.8756 26.5243 51.913 26.5196 51.9552C26.44 52.0488 26.3791 52.1612 26.3604 52.2596C26.3416 52.3766 26.3463 52.489 26.3744 52.5967C26.2527 52.7981 26.2105 53.051 26.262 53.2992C26.2246 53.4303 26.2152 53.5708 26.2386 53.7113C26.2152 53.7815 26.1965 53.8518 26.1965 53.9173C26.1965 53.9922 26.2105 54.0578 26.2293 54.1234C26.159 54.217 26.1028 54.3247 26.07 54.4465C25.9951 54.6947 26.0279 55.0459 26.1965 55.2707C26.2058 55.3456 26.2246 55.4205 26.2527 55.4908C26.2152 55.5985 26.2105 55.7343 26.2386 55.856C26.2152 55.9076 26.1918 55.9591 26.1731 56.0153C26.1496 56.1042 26.145 56.2073 26.159 56.315C26.1403 56.3759 26.1262 56.4367 26.1262 56.4882C26.1309 56.5725 26.1496 56.6475 26.1731 56.7177C26.0934 56.8441 26.0466 56.9987 26.0419 57.1579C26.0045 57.2 25.9717 57.2422 25.9389 57.289C25.9295 57.3031 25.9202 57.3218 25.9108 57.3359C25.878 57.3546 25.8453 57.378 25.8125 57.3967C25.761 57.392 25.7141 57.3967 25.6626 57.4014C25.6533 57.392 25.6486 57.378 25.6392 57.3686C25.4706 57.2422 25.1475 57.2281 24.9649 57.3265C24.9368 57.3405 24.9133 57.3593 24.8899 57.3733C24.8478 57.3359 24.7963 57.3218 24.7401 57.3124Z" fill="#FF8412"/>
<path d="M55.0947 64.9552C55.0619 64.8007 54.9308 64.6461 54.781 64.5431C54.7716 64.3183 54.6733 64.0608 54.5047 63.9343C54.5047 63.9296 54.5 63.9296 54.5 63.9249C54.5375 63.8547 54.5609 63.7798 54.5609 63.7049C54.5609 63.4848 54.3689 63.1991 54.1722 63.1054C54.1581 63.0961 54.1394 63.0961 54.1254 63.0867C54.1254 63.082 54.1254 63.0773 54.1254 63.0727C54.2518 62.8526 54.2846 62.5856 54.1113 62.3796C53.9427 62.1829 53.6617 62.1314 53.3339 62.0752C53.3012 62.0658 53.2637 62.0611 53.2215 62.0565C53.2028 62.0377 53.1888 62.0143 53.1654 62.0003C53.1279 61.9769 53.0764 61.9581 53.0249 61.9488C53.0155 61.9347 53.0061 61.916 53.0014 61.9019C52.8844 61.6491 52.5332 61.3868 52.2428 61.4149C52.1538 61.3259 52.0508 61.2416 51.9384 61.1527C51.8682 61.0871 51.7745 61.0356 51.6668 60.9934C51.4889 60.7312 51.0721 60.497 50.763 60.5813C50.7583 60.5813 50.7536 60.586 50.749 60.586C50.5335 60.4221 50.2854 60.3706 50.0418 60.4081C49.9669 60.3753 49.8873 60.3519 49.8077 60.3425C49.6766 60.1037 49.4377 59.8789 49.1895 59.8649C49.0818 59.8602 48.9648 59.893 48.8524 59.9491C48.8243 59.9445 48.7962 59.9398 48.7681 59.9398C48.7494 59.9398 48.7353 59.9445 48.7213 59.9491C48.651 59.9023 48.5761 59.8602 48.4965 59.8321C48.4684 59.7665 48.4403 59.701 48.3888 59.6541C48.2015 59.4668 47.7987 59.3919 47.5552 59.4809C47.4616 59.5136 47.3773 59.5651 47.3023 59.6167C47.1478 59.5136 46.9324 59.4949 46.6889 59.4762H46.6842C46.642 59.4481 46.6046 59.4153 46.5624 59.3872C46.5343 59.3638 46.4969 59.3497 46.4641 59.331C46.4688 59.2046 46.436 59.0828 46.3423 58.9798C46.3283 58.9657 46.3096 58.9564 46.2955 58.9423C46.3423 58.7082 46.3283 58.4506 46.1925 58.2914C46.1831 58.2773 46.1644 58.2727 46.155 58.2586C46.1503 58.0572 46.0801 57.8465 45.9537 57.7154C46.0848 57.5234 46.141 57.2846 45.9958 57.0832C45.86 56.8912 45.6071 56.8209 45.3121 56.746C45.2746 56.732 45.2325 56.732 45.1903 56.7273C45.1669 56.7132 45.1482 56.6945 45.1248 56.6898C44.989 56.6524 44.8016 56.6945 44.6565 56.7741C44.6143 56.7648 44.5769 56.7507 44.53 56.7413C44.338 56.6805 44.0571 56.7086 43.8557 56.8163C43.6028 56.6992 43.3265 56.7086 43.0877 56.821C42.9753 56.8116 42.8676 56.821 42.7693 56.8537C42.7365 56.8397 42.7037 56.821 42.6709 56.8163C42.5351 56.7882 42.404 56.8022 42.2822 56.835C42.1698 56.7882 42.0434 56.7601 41.9404 56.7694C41.7858 56.7882 41.6547 56.8397 41.5423 56.9193C41.458 56.8725 41.3691 56.835 41.2848 56.8444C41.2614 56.8444 41.2379 56.8584 41.2145 56.8631C41.06 56.7367 40.868 56.6524 40.6947 56.6758C40.6245 56.6851 40.5542 56.7179 40.484 56.7648C40.2779 56.6851 40.0344 56.6617 39.8658 56.7554C39.8471 56.7648 39.8284 56.7882 39.8096 56.8022C39.6411 56.7741 39.4631 56.7882 39.3226 56.8537C39.2102 56.8631 39.0978 56.8912 38.9901 56.938C38.9105 56.9333 38.8309 56.9333 38.7466 56.938C38.6623 56.9333 38.564 56.9474 38.4656 56.9802C38.2221 56.9614 37.9833 57.0457 37.7913 57.205C37.7211 57.1909 37.6555 57.1909 37.5853 57.2003C37.3652 57.0551 37.0046 56.9942 36.7938 57.1347C36.7704 57.1534 36.7517 57.1769 36.7283 57.2003C36.7142 57.2003 36.7002 57.1956 36.6861 57.1956C36.6299 57.1441 36.5691 57.1066 36.4988 57.0879C36.3302 57.0411 36.0914 57.1019 35.9228 57.2096C35.8198 57.205 35.7168 57.219 35.6184 57.2471C35.5107 57.2143 35.3983 57.1956 35.3094 57.2096C35.0986 57.2424 34.9254 57.3361 34.7895 57.4719C34.6631 57.4859 34.5554 57.5328 34.4571 57.603C34.2557 57.4953 33.8857 57.4953 33.7218 57.6686C33.6188 57.7763 33.572 57.9729 33.586 58.1369C33.5439 58.2118 33.5111 58.2867 33.5017 58.357C33.4549 58.652 33.5392 58.9189 33.7031 59.1249C33.6469 59.1718 33.6001 59.2233 33.572 59.2842C33.4643 59.5089 33.5252 59.8883 33.6797 60.0803C33.7593 60.1833 33.8577 60.2582 33.9607 60.3191C33.9654 60.3659 33.97 60.4081 33.9841 60.4549C33.9232 60.6516 33.9466 60.8623 34.045 61.0543C34.0216 61.1667 34.0309 61.2791 34.059 61.3962C34.0075 61.4945 33.97 61.6022 33.9513 61.7193C33.9373 61.813 33.9419 61.9207 33.9654 62.0284C33.9654 62.0471 33.956 62.0658 33.956 62.0799C33.9607 62.3 34.0403 62.4873 34.1667 62.6325C34.1527 62.6559 34.1293 62.6793 34.1199 62.698C33.9279 63.1195 34.045 63.555 34.3447 63.8453C34.2744 63.9952 34.251 64.1872 34.2932 64.323C34.3166 64.4026 34.3634 64.4635 34.4056 64.5244C34.3775 64.6414 34.3775 64.7632 34.4009 64.8803C34.3025 65.1331 34.3166 65.4141 34.443 65.6623C34.4243 65.845 34.4571 66.037 34.546 66.2196C34.5648 66.2617 34.5929 66.2992 34.621 66.3367C34.6256 66.3507 34.6303 66.3648 34.635 66.3835C34.5882 66.5802 34.6069 66.8143 34.6865 66.9642C34.7287 67.0391 34.7802 67.1047 34.8364 67.1655C34.7661 67.4606 34.8177 67.793 35.1033 67.9429C35.2298 68.0085 35.3749 68.0225 35.5295 68.0085C35.5435 68.0272 35.5529 68.0506 35.5716 68.0693C35.5903 68.0881 35.6091 68.1115 35.6278 68.1302C35.6699 68.3035 35.7636 68.4627 35.9088 68.5891C35.9603 68.6313 36.0212 68.6688 36.0867 68.7015C36.0961 68.7109 36.1055 68.725 36.1195 68.7343C36.2225 68.8139 36.3583 68.842 36.5082 68.8514C36.5082 68.8561 36.5082 68.8561 36.5129 68.8608C36.6253 69.1745 37.0139 69.521 37.3745 69.3759C37.4214 69.3946 37.4682 69.4087 37.515 69.418C37.5197 69.4274 37.5244 69.4414 37.5337 69.4508C37.7164 69.7224 38.1613 69.9612 38.475 69.7458C38.5453 69.8254 38.6342 69.8863 38.7513 69.9097C38.9574 69.9472 39.1634 69.8489 39.3882 69.7224C39.4631 69.7646 39.5521 69.7973 39.6411 69.8114C39.7254 69.9144 39.8424 69.9847 39.9876 69.9706C40.114 69.9612 40.2217 69.8957 40.3295 69.8067C40.3763 69.8254 40.4278 69.8442 40.4793 69.8535C40.5449 70.0034 40.6619 70.1251 40.8399 70.1439C40.9757 70.1579 41.1021 70.1111 41.2379 70.0409C41.4018 70.2048 41.6313 70.3031 41.842 70.1767C41.8467 70.172 41.8514 70.1673 41.8608 70.1626C41.8936 70.1813 41.9263 70.2001 41.9638 70.2188C42.0528 70.3687 42.1886 70.481 42.3806 70.4904C42.5351 70.4998 42.685 70.4295 42.8348 70.3312C42.9332 70.3359 43.0362 70.3265 43.1486 70.3125C43.3078 70.5185 43.57 70.6637 43.8182 70.5607C44.0383 70.6403 44.2865 70.645 44.5254 70.5653C44.5769 70.5466 44.6331 70.5232 44.6846 70.4951C44.8157 70.5279 44.9702 70.5372 45.1341 70.5326C45.3308 70.7573 45.6305 70.9072 45.9115 70.762C46.0567 70.6871 46.1597 70.5513 46.2487 70.3827C46.3892 70.4811 46.5577 70.5466 46.7404 70.5607C46.8762 70.5747 47.0354 70.5466 47.1806 70.4857C47.2742 70.5091 47.3726 70.5138 47.4616 70.4951C47.6067 70.5747 47.794 70.6169 47.9673 70.5981C48.0844 70.659 48.2202 70.6777 48.356 70.6215C48.4075 70.5981 48.459 70.57 48.5012 70.5326C48.7072 70.6496 48.9648 70.6871 49.1474 70.5138C49.1615 70.5045 49.1661 70.4857 49.1755 70.4764C49.2457 70.4764 49.316 70.467 49.3815 70.4529C49.6438 70.659 50.1168 70.762 50.3369 70.4436C50.3931 70.4389 50.4493 70.4202 50.5008 70.3874C50.6647 70.3593 50.8379 70.3031 51.0253 70.2329C51.0346 70.2282 51.044 70.2235 51.0534 70.2235C51.2641 70.1813 51.4514 70.0268 51.6528 69.8395C51.9665 69.8629 52.3646 69.7177 52.5004 69.418C52.5238 69.4133 52.5472 69.4133 52.5753 69.404C52.7533 69.3431 52.8797 69.1886 53.0061 68.9966C53.2356 69.0247 53.4744 68.9591 53.5681 68.7343C53.5868 68.6875 53.5962 68.636 53.6009 68.5845C53.6664 68.5283 53.7367 68.458 53.8069 68.3831C53.8678 68.3269 53.9146 68.2473 53.9521 68.1583C54.0036 68.0881 54.0411 67.9991 54.0785 67.9008C54.1347 67.8773 54.1909 67.8399 54.2377 67.7884C54.3923 67.6104 54.397 67.3529 54.4063 67.0485C54.4063 67.0391 54.4063 67.025 54.4063 67.0157C54.4344 66.9595 54.4625 66.9033 54.4906 66.8471C54.4953 66.8424 54.4953 66.8377 54.4953 66.833C54.5796 66.7207 54.6545 66.5895 54.7341 66.4444C54.8231 66.3132 54.8699 66.1166 54.8699 65.9246C54.8887 65.8965 54.9121 65.8684 54.9215 65.8356C54.9495 65.7372 54.9355 65.6108 54.898 65.4937C55.0479 65.3345 55.1275 65.1285 55.0947 64.9552Z" fill="#FF8412"/>
<path d="M33.5393 47.0716L44.0431 46.3926L45.2045 57.4443C42.1091 57.3647 36.8689 57.7299 34.2745 58.1467L33.5393 47.0716Z" fill="#FFEA62"/>
<path d="M45.9115 56.6756C45.8788 56.5679 45.8085 56.4742 45.7149 56.3946C45.8881 56.2869 46.0099 56.123 46.0052 55.9029C46.0005 55.6594 45.8413 55.4487 45.6399 55.2145C45.6306 55.1396 45.6072 55.0647 45.5744 54.9991C45.6165 54.9429 45.6493 54.8867 45.6587 54.8212C45.6868 54.6666 45.6165 54.4653 45.5088 54.3295C45.5556 54.2311 45.5884 54.1328 45.5697 54.0391C45.5603 53.9829 45.5276 53.9267 45.4901 53.8705C45.4854 53.7628 45.4479 53.6504 45.3917 53.5287C45.4198 53.4819 45.4433 53.4257 45.4479 53.3601C45.4526 53.2477 45.4152 53.1447 45.3496 53.037C45.3777 52.8824 45.3496 52.6998 45.3168 52.4984C45.3121 52.4329 45.2887 52.3626 45.2606 52.2924C45.2559 52.2596 45.2513 52.2268 45.2419 52.194C45.4011 52.077 45.5135 51.9037 45.4807 51.693C45.4573 51.5478 45.373 51.426 45.2606 51.309C45.2747 51.2715 45.2981 51.2387 45.3028 51.2013C45.3075 51.1498 45.3028 51.0936 45.284 51.0327C45.3449 50.9578 45.3964 50.8781 45.4105 50.7892C45.4526 50.5784 45.3356 50.2881 45.1763 50.1242C45.2232 49.9275 45.1951 49.698 45.167 49.4405C45.1623 49.3609 45.1436 49.2766 45.1108 49.1923C45.1576 49.0659 45.1763 48.9394 45.1389 48.827C45.1061 48.7146 45.0124 48.6069 44.9 48.5226C44.9094 48.4337 44.9094 48.3494 44.8766 48.2791C44.8719 48.2697 44.8626 48.2651 44.8579 48.2557C44.9188 48.1386 44.9516 48.0122 44.9281 47.9045C44.9188 47.8717 44.9 47.8436 44.886 47.8108C44.9562 47.6891 44.9797 47.5533 44.9141 47.4128C44.8907 47.3659 44.8626 47.3238 44.8251 47.2863C44.8345 47.2161 44.8392 47.1505 44.8485 47.0756C44.8626 46.9866 44.8532 46.8836 44.8345 46.7806C44.9516 46.5652 44.9843 46.3029 44.8017 46.1109C44.6472 45.9517 44.4083 45.9142 44.1367 45.8815C44.0618 45.7831 43.9681 45.7035 43.8651 45.6801C43.8323 45.6707 43.7949 45.6754 43.7527 45.6754C43.6029 45.5958 43.4343 45.549 43.2938 45.563C43.1627 45.5771 43.0409 45.6145 42.9379 45.6707C42.8161 45.6005 42.685 45.5583 42.5633 45.5724C42.4977 45.5818 42.4275 45.6098 42.3572 45.652C42.2261 45.5911 42.0856 45.563 41.9592 45.5911C41.8702 45.6099 41.7812 45.6707 41.6969 45.741C41.5471 45.755 41.3972 45.8112 41.3036 45.8955C41.1865 45.8861 41.0741 45.9002 40.9617 45.9377C40.8774 45.9142 40.7931 45.9049 40.7088 45.9049C40.6667 45.858 40.6198 45.8159 40.5636 45.7878C40.3716 45.6895 40.0673 45.7222 39.8612 45.8253C39.6458 45.7222 39.3836 45.6754 39.1916 45.7644C39.1073 45.8018 39.037 45.8768 38.9668 45.9564C38.9387 45.9564 38.9106 45.9564 38.8825 45.9611C38.6062 45.8159 38.1238 45.8018 37.8944 46.0266C37.8803 46.0407 37.871 46.0641 37.8569 46.0828C37.7398 46.0594 37.6275 46.0641 37.5197 46.0875C37.2528 45.9845 36.9672 46.0032 36.7143 46.1297C36.5363 46.0594 36.3397 46.0313 36.1898 46.1016C36.1383 46.1297 36.0868 46.1671 36.0399 46.2186C36.0212 46.2233 36.0025 46.2233 35.9837 46.228C35.8854 46.1297 35.7683 46.0547 35.6466 46.0407C35.4967 46.0219 35.3094 46.0922 35.1642 46.1952C35.1268 46.1952 35.094 46.1999 35.0565 46.2046C34.8552 46.1016 34.5742 46.0735 34.3869 46.1484C34.2464 46.2046 34.134 46.2842 34.0403 46.3825C34.0122 46.3685 33.9841 46.3451 33.9607 46.3357C33.4643 46.1578 32.9773 46.4059 32.7666 46.8649C32.6355 47.1505 32.6542 47.6048 32.9211 47.8108C32.9211 47.9045 32.9399 47.9935 32.9726 48.0731C32.879 48.2979 32.8743 48.5554 32.9773 48.8036C32.9726 48.8973 32.9867 49.0003 33.0195 49.0846C32.8509 49.3047 32.7572 49.6606 32.9164 49.8994C32.804 50.1101 32.7759 50.4145 32.8556 50.6159C32.9211 50.7704 33.0148 50.8969 33.1272 50.9999C32.9773 51.2809 32.9679 51.6274 33.1084 51.9412C33.1131 51.9505 33.1178 51.9599 33.1225 51.9693C33.1412 52.1613 33.2255 52.3392 33.3566 52.4797C33.3566 52.5312 33.366 52.578 33.3754 52.6296C33.3379 52.7045 33.3192 52.7888 33.3145 52.8637C33.3098 52.8684 33.3004 52.8684 33.2958 52.8731C33.1272 53.0417 33.0663 53.4069 33.1459 53.6223C33.1599 53.6645 33.1834 53.6973 33.2021 53.7347C33.174 53.7909 33.1506 53.8565 33.1318 53.9174C33.0382 54.2545 33.1365 54.765 33.4784 54.9382C33.4456 54.9804 33.4128 55.0272 33.3941 55.074C33.2583 55.4065 33.3285 55.7437 33.5252 55.9919C33.5299 56.0575 33.5439 56.1183 33.5674 56.1745C33.5674 56.1792 33.5627 56.1839 33.558 56.1886C33.5018 56.3431 33.4971 56.5023 33.5299 56.6428C33.4784 56.7131 33.4316 56.7833 33.3941 56.8676C33.277 57.1345 33.2817 57.5513 33.4971 57.7855C33.4878 57.7995 33.4784 57.8136 33.469 57.8276C33.2911 58.1695 33.3004 58.7876 33.75 58.9375C34.0076 59.0218 34.2838 58.9187 34.607 58.7923C34.6444 58.7782 34.6866 58.7642 34.724 58.7408C34.7849 58.7267 34.8505 58.7127 34.916 58.6986C34.9488 58.6939 34.9816 58.6846 35.0191 58.6705C35.1221 58.708 35.2345 58.7267 35.3516 58.7267C35.4593 58.7267 35.581 58.6939 35.6934 58.6424C35.7449 58.6846 35.8058 58.722 35.8807 58.7361C36.0634 58.7736 36.246 58.708 36.4427 58.6097C36.63 58.6612 36.822 58.6565 37.0046 58.5956C37.1826 58.6471 37.3793 58.6565 37.5759 58.6097C37.5853 58.6097 37.5947 58.605 37.5994 58.6003C37.6509 58.619 37.7071 58.6331 37.7633 58.6424C37.9412 58.6705 38.1566 58.6378 38.3439 58.5581C38.5453 58.5862 38.7701 58.5254 39.0183 58.4504C39.2946 58.5956 39.6833 58.6378 39.9127 58.4223C39.9923 58.427 40.0673 58.413 40.1422 58.3849C40.2874 58.4458 40.4466 58.4551 40.5917 58.3615C40.6292 58.338 40.662 58.3053 40.6901 58.2725C40.8025 58.3146 40.9242 58.3193 41.0413 58.2491C41.0928 58.2163 41.135 58.1695 41.1724 58.1179C41.3457 58.4177 41.6829 58.6705 42.0247 58.516C42.1605 58.4551 42.2636 58.3427 42.3525 58.2069C42.4321 58.2116 42.5118 58.2069 42.596 58.1882C42.6148 58.1835 42.6335 58.1741 42.6522 58.1695C42.7318 58.1648 42.8208 58.1414 42.9098 58.1133C43.0409 58.2537 43.2236 58.3568 43.4109 58.3755C43.5279 58.4598 43.6637 58.5066 43.823 58.4785C43.8932 58.4645 43.9541 58.4411 44.015 58.4083C44.2023 58.53 44.4224 58.5816 44.6378 58.4738C44.7361 58.4223 44.8111 58.3474 44.8766 58.2538C44.989 58.221 45.1061 58.1788 45.2278 58.1273C45.5135 58.0337 45.846 57.6824 45.8273 57.3687C45.8226 57.2891 45.7898 57.2001 45.743 57.1158C45.8881 57.0034 45.9584 56.8489 45.9115 56.6756ZM41.0694 56.9191C40.9804 56.8957 40.8821 56.891 40.7884 56.9051L40.7837 56.9004C40.6245 56.7833 40.3436 56.7739 40.1516 56.8489C40.1141 56.8255 40.0813 56.802 40.0392 56.7927C39.9455 56.7599 39.8238 56.7693 39.7114 56.7974C39.6271 56.7224 39.5287 56.6709 39.4304 56.6522C39.2337 56.6194 38.9761 56.7178 38.8029 56.8582C38.6015 56.877 38.4095 56.9566 38.2503 57.0877C38.0255 56.8817 37.6509 56.7365 37.3839 56.8395C37.3137 56.8676 37.2435 56.9191 37.1826 56.9753C36.9531 56.9519 36.7096 56.9847 36.5644 57.1205L36.5598 57.1252C36.4614 57.1345 36.3537 57.1673 36.2554 57.2141C36.1102 57.2329 35.9744 57.2891 35.8573 57.378C35.7075 57.3172 35.5389 57.2984 35.4078 57.3546C35.3094 57.3125 35.2017 57.2844 35.094 57.2797C35.1549 57.1673 35.1877 57.0456 35.1736 56.9285C35.1502 56.7178 34.9629 56.4789 34.7615 56.3619C34.7615 56.3572 34.7615 56.3572 34.7568 56.3525C34.7943 56.2963 34.813 56.2354 34.8177 56.1652C34.8552 56.1183 34.8926 56.0668 34.9114 56.0013C34.9863 55.7624 34.8833 55.5002 34.7662 55.2005C34.7428 55.1256 34.6959 55.0459 34.6398 54.9663C34.6444 54.8961 34.6304 54.8212 34.607 54.7462C34.6538 54.676 34.6913 54.5964 34.71 54.5121C34.9114 54.306 35.0659 53.9829 35.0003 53.7254C34.9816 53.6598 34.9488 53.5942 34.9067 53.5287C34.9114 53.4538 34.902 53.3788 34.8692 53.3039C34.8177 53.1915 34.7334 53.1072 34.6257 53.0323C34.6257 53.0229 34.6257 53.0182 34.6257 53.0089C34.6023 52.8871 34.5274 52.7888 34.4243 52.6904C34.518 52.6342 34.5929 52.5593 34.6304 52.4469C34.6959 52.2596 34.6491 52.0536 34.5742 51.8288C34.5976 51.7679 34.6163 51.7023 34.6398 51.6368C34.7194 51.4307 34.7147 51.1263 34.6117 50.8875C34.7802 50.6955 34.8739 50.4426 34.7521 50.1944C34.6819 50.0493 34.5555 49.9509 34.4009 49.8619C34.4712 49.7917 34.5274 49.7121 34.5508 49.6231C34.6023 49.4171 34.4993 49.122 34.3447 48.9628C34.3822 48.8458 34.3775 48.7287 34.3166 48.621C34.3213 48.6022 34.326 48.5882 34.3354 48.5695C34.4103 48.3915 34.4056 48.1246 34.3213 47.9138C34.4665 47.9841 34.6304 48.0028 34.7896 47.9232C34.8505 47.8951 34.9067 47.853 34.9535 47.8015C35.0331 47.8202 35.1221 47.8155 35.2064 47.7827C35.2673 47.7593 35.3235 47.7172 35.3703 47.6703C35.6513 47.8061 36.0493 47.8155 36.2366 47.5392C36.2788 47.5392 36.3256 47.5345 36.3678 47.5252C36.3724 47.5298 36.3771 47.5345 36.3818 47.5392C36.6113 47.6891 36.9157 47.6563 37.2622 47.6188C37.3512 47.6141 37.4542 47.586 37.5525 47.5486C37.6462 47.5252 37.7445 47.4971 37.8429 47.4596C37.9599 47.4643 38.0817 47.4596 38.2175 47.4549C38.2362 47.4549 38.2503 47.4502 38.269 47.4502C38.4844 47.5439 38.7279 47.5626 38.9715 47.5018C39.0511 47.483 39.1354 47.4409 39.215 47.394C39.2431 47.394 39.2712 47.3894 39.2993 47.3847C39.4257 47.4502 39.5662 47.4924 39.7114 47.5018C39.7816 47.5064 39.8565 47.5018 39.9361 47.4877C40.1562 47.6001 40.4185 47.6282 40.6152 47.4549C40.6714 47.4081 40.7088 47.3472 40.7463 47.2817C40.7744 47.277 40.8025 47.2723 40.8353 47.2676C40.8727 47.2629 40.9149 47.2536 40.957 47.2442C41.0554 47.2489 41.1584 47.2442 41.2708 47.2348C41.3176 47.2348 41.3644 47.2255 41.4159 47.2161C41.6173 47.3425 41.8796 47.4034 42.0762 47.2723C42.0809 47.2723 42.0856 47.277 42.0903 47.277C42.2682 47.3332 42.5071 47.3285 42.7037 47.2489C42.8302 47.3659 42.9847 47.4362 43.172 47.4034C43.261 47.3894 43.3406 47.3425 43.4202 47.291C43.4296 47.3332 43.4483 47.3706 43.4624 47.4081C43.4483 47.5111 43.453 47.6141 43.4858 47.6937C43.5233 47.7874 43.5748 47.867 43.6356 47.9373C43.6263 47.9654 43.6122 47.9888 43.6029 48.0169C43.5467 48.1995 43.5748 48.4571 43.7012 48.621C43.7012 48.635 43.6965 48.6444 43.6965 48.6584C43.6918 48.7006 43.6965 48.7521 43.7059 48.7989C43.6591 48.8832 43.6216 48.9722 43.5982 49.0659C43.5795 49.1455 43.5748 49.2391 43.5841 49.3328C43.5186 49.6278 43.5982 49.9322 43.7902 50.1757C43.7902 50.1944 43.7902 50.2179 43.7902 50.2366C43.556 50.5176 43.4436 51.0655 43.8136 51.2996C43.8136 51.3137 43.8136 51.3277 43.8136 51.3418C43.7949 51.412 43.7855 51.4869 43.7902 51.5478C43.8089 51.7819 43.9119 51.9786 44.0665 52.1191C44.0712 52.1847 44.0805 52.2456 44.1039 52.3064C44.0196 52.5219 44.0384 52.7513 44.1367 52.948V52.9527C44.118 53.1072 44.1414 53.2477 44.207 53.3695C44.1461 53.5942 44.1882 53.805 44.3053 53.9736C44.2866 54.0063 44.2725 54.0391 44.2585 54.0719C44.2116 54.2077 44.207 54.3857 44.2538 54.5402C44.1695 54.7275 44.1508 54.9617 44.2725 55.1209C44.2023 55.2379 44.1555 55.3597 44.1508 55.4721C44.132 55.8093 44.2725 56.0996 44.502 56.2869C44.4692 56.3478 44.4458 56.4134 44.4318 56.4836C44.3475 56.4883 44.2678 56.5023 44.2023 56.5304C44.1695 56.5445 44.1414 56.5632 44.1086 56.5819C44.0618 56.5773 44.0103 56.5679 43.9635 56.5726C43.8417 56.5866 43.734 56.6194 43.6356 56.6662C43.4436 56.6241 43.2001 56.6616 43.0596 56.7599C43.0035 56.7974 42.9566 56.8395 42.9145 56.8863C42.8396 56.891 42.7693 56.9051 42.6991 56.9285C42.6756 56.9144 42.6569 56.9004 42.6288 56.891C42.6054 56.877 42.5726 56.8676 42.5445 56.8536C42.5352 56.8442 42.5352 56.8255 42.5258 56.8161C42.3432 56.6335 41.9498 56.5632 41.711 56.6475C41.5471 56.7037 41.4159 56.7974 41.3129 56.9144C41.2333 56.9004 41.149 56.9051 41.0694 56.9191Z" fill="#FF8412"/>
<path d="M17.0038 20.0935C17.0038 20.0935 20.2163 3.64239 39.3086 7.20141C56.6026 10.4233 55.6005 26.9774 50.2011 30.986C56.996 32.728 56.3872 40.8295 54.9917 45.1893C53.5962 49.5444 50.6085 55.0375 37.7632 53.9932C32.7619 53.1222 30.7716 51.2865 29.3761 48.3269C29.3761 48.3269 13.0842 57.866 4.45825 43.9717C-4.91229 28.8693 12.2975 18.0002 17.0038 20.0935Z" fill="#FFEA62"/>
<path d="M56.701 39.2656C56.6776 39.2188 56.6354 39.172 56.5933 39.1298C56.6074 38.891 56.5465 38.6381 56.4013 38.493C56.4294 38.418 56.4388 38.3337 56.42 38.2448C56.3826 38.0762 56.2608 37.9451 56.1063 37.8093C56.1578 37.65 56.1671 37.4768 56.0969 37.3503C56.0501 37.2613 55.9517 37.1864 55.8487 37.1302C55.8487 37.1209 55.844 37.1162 55.844 37.1068C55.9564 36.9897 56.0173 36.8399 55.9658 36.6713C55.9517 36.6292 55.9283 36.5917 55.9049 36.5542C55.9892 36.4418 56.0407 36.3107 56.036 36.189C56.0313 36.0297 55.9236 35.8471 55.7925 35.716C55.8113 35.5521 55.7738 35.3554 55.6942 35.1915C55.6708 35.0697 55.6146 34.9527 55.5396 34.8637C55.5912 34.7326 55.6005 34.5874 55.5069 34.4563C55.4741 34.4094 55.4272 34.372 55.3804 34.3392C55.3383 34.2128 55.2727 34.0816 55.2025 33.9458C55.1135 33.7398 54.8747 33.5244 54.6358 33.4588C54.5047 33.3043 54.3174 33.1825 54.1441 33.1825C54.1254 33.1825 54.102 33.1919 54.0786 33.1966C54.0505 33.1685 54.0224 33.1451 53.9943 33.1216C53.9287 33.0186 53.8397 32.9296 53.7508 32.8875C53.7461 32.8875 53.7414 32.8828 53.7367 32.8828C53.718 32.836 53.7039 32.7892 53.6852 32.7423C53.5962 32.452 53.2544 32.1101 52.9313 32.1008C52.9125 32.0867 52.8938 32.0633 52.8704 32.0539H52.8657C52.8657 32.0539 52.8657 32.0493 52.861 32.0493C52.7299 31.9134 52.5332 31.8666 52.3037 31.8385C52.2241 31.6418 52.0555 31.4452 51.8635 31.4077C51.8261 31.403 51.7839 31.4077 51.7465 31.4077C51.7137 31.3702 51.6809 31.3328 51.6341 31.2953C51.5779 31.2157 51.5123 31.1314 51.4374 31.0471C51.3906 30.9815 51.325 30.9207 51.2454 30.8692C51.222 30.8364 51.1939 30.7989 51.1705 30.7661C51.1705 30.7568 51.1705 30.7474 51.1658 30.738C51.1752 30.724 51.1845 30.7146 51.1892 30.7006C51.2969 30.6631 51.3906 30.5882 51.4374 30.4664C51.4514 30.4243 51.4608 30.3821 51.4608 30.3353C51.4702 30.3306 51.4749 30.3306 51.4842 30.3259C51.6669 30.2651 51.8635 30.0918 51.9712 29.8951C52.2522 29.7453 52.4817 29.4549 52.374 29.1365C52.3693 29.1224 52.3599 29.1084 52.3506 29.0943C52.3693 29.0615 52.388 29.0335 52.4021 29.0007C52.5707 28.9351 52.7205 28.8087 52.7814 28.6495C53.0811 28.509 53.3527 28.1999 53.2263 27.858C53.2216 27.8534 53.2169 27.844 53.2169 27.8393C53.2544 27.7831 53.2872 27.7269 53.2965 27.666C53.2965 27.6613 53.2965 27.6614 53.2965 27.6567C53.5447 27.5068 53.7508 27.2118 53.6103 26.9308C53.6009 26.9074 53.5822 26.8887 53.5681 26.8699C53.5775 26.7903 53.5869 26.706 53.5915 26.6124C53.5915 26.603 53.5915 26.589 53.5915 26.5796C53.6852 26.5047 53.7554 26.411 53.7835 26.308C53.8116 26.1956 53.7882 26.0504 53.7367 25.924C53.7554 25.8678 53.7695 25.8116 53.7882 25.7554C53.8304 25.6336 53.8397 25.4744 53.8116 25.3199C53.8163 25.2918 53.821 25.259 53.8257 25.2309C54.0036 25.1185 54.1582 24.9546 54.191 24.772C54.2284 24.58 54.1394 24.3224 54.0036 24.1492C54.0177 24.093 54.0271 24.0368 54.0177 23.9853C54.013 23.9665 54.0036 23.9478 53.999 23.9291C54.1207 23.7652 54.1863 23.4795 54.1348 23.2547C54.191 23.147 54.2237 23.0299 54.2003 22.9222C54.1863 22.8614 54.1535 22.8052 54.1113 22.7443C54.1582 22.6272 54.1769 22.4867 54.1582 22.3509C54.2752 22.1917 54.3408 21.9716 54.2565 21.7983C54.2846 21.7515 54.308 21.7 54.3127 21.6485C54.3221 21.5595 54.294 21.4565 54.2472 21.3675C54.383 21.1099 54.4345 20.7353 54.2752 20.5105C54.2284 20.445 54.1535 20.3888 54.0739 20.3419C54.0364 20.2717 53.9943 20.2014 53.9428 20.1593C53.9287 20.1499 53.9193 20.1406 53.9053 20.1312C53.8913 20.0797 53.8725 20.0282 53.8491 19.972C53.9521 19.8502 54.0177 19.7051 54.0177 19.5693C54.0177 19.5037 53.9943 19.4335 53.9662 19.3679C53.9709 19.3445 53.9755 19.3211 53.9755 19.2976C53.9662 19.0448 53.7882 18.8294 53.5728 18.5905C53.5728 18.5858 53.5775 18.5858 53.5775 18.5858C53.6477 18.3423 53.5353 18.0801 53.4042 17.7804C53.3902 17.7429 53.3714 17.7054 53.3527 17.668C53.3714 17.6071 53.3761 17.5462 53.3714 17.4854C53.4183 17.4151 53.4511 17.3402 53.4604 17.2606C53.4932 17.0077 53.3153 16.6612 53.1092 16.5254C53.1045 16.5207 53.0998 16.5207 53.0952 16.5207C53.0905 16.4364 53.0624 16.3568 52.9968 16.2912C52.964 16.2537 52.9266 16.2256 52.8844 16.2022C53.0483 16.0336 53.1467 15.8135 53.0624 15.5747C52.9687 15.3172 52.7112 15.1579 52.4068 14.9753C52.3834 14.9613 52.3506 14.9519 52.3225 14.9378C52.2991 14.9191 52.2803 14.8957 52.2569 14.8816C52.2663 14.8067 52.2663 14.7365 52.2522 14.6709C52.2007 14.4836 52.004 14.301 51.812 14.2214C51.7418 13.9591 51.4936 13.6547 51.2173 13.5611C51.1798 13.4534 51.1049 13.3456 51.0159 13.2614C50.9644 13.1255 50.8567 13.0132 50.7256 12.9148C50.7443 12.7462 50.7022 12.5823 50.5711 12.4512C50.5102 12.3903 50.4306 12.3482 50.3463 12.3154C50.3229 12.2171 50.276 12.1281 50.1917 12.0485C50.1402 12.0016 50.0794 11.9642 50.0138 11.9408C49.9951 11.8986 49.9763 11.8565 49.9435 11.8143C49.8265 11.6598 49.6392 11.5849 49.4191 11.5287C49.4191 11.5146 49.4191 11.5006 49.4191 11.4865C49.3675 11.2149 49.1287 11.0182 48.8524 10.7888C48.8477 10.7841 48.8384 10.7794 48.8337 10.7747C48.7166 10.6061 48.5012 10.5265 48.253 10.4469C48.2436 10.4235 48.2296 10.4001 48.2202 10.3767C48.1593 10.2409 48.0142 10.1051 47.855 10.0301C47.8222 9.99267 47.7847 9.95521 47.7473 9.91774C47.6114 9.75852 47.3398 9.63208 47.1057 9.64145C47.0354 9.41199 46.8856 9.19657 46.6889 9.12164C46.5156 9.05608 46.2674 9.08886 46.0754 9.17316C45.9724 9.09823 45.8553 9.03267 45.7289 8.95774C45.6352 8.89686 45.5088 8.8594 45.373 8.84067C45.3121 8.77511 45.2419 8.71891 45.1623 8.6955C45.1061 8.67677 45.0452 8.67208 44.975 8.67677C44.8766 8.61589 44.7642 8.56906 44.6565 8.55501C44.591 8.49413 44.5254 8.43794 44.4598 8.40984C44.2819 8.33491 44.1086 8.31618 43.94 8.34428C43.926 8.33491 43.9119 8.32555 43.8979 8.31618C43.8698 8.26467 43.837 8.21316 43.7902 8.17101C43.6918 8.08204 43.5654 8.03989 43.4249 8.01647C43.4062 7.99306 43.3921 7.96964 43.3687 7.95091C43.1908 7.79169 42.9332 7.7636 42.6382 7.75423C42.5679 7.70272 42.493 7.66994 42.4181 7.64652C42.4087 7.63247 42.4087 7.60906 42.3993 7.59501C42.2589 7.38896 41.8936 7.25316 41.6501 7.29062C41.5611 7.30467 41.4815 7.33277 41.4066 7.36555C41.2942 7.28125 41.1677 7.22974 41.046 7.24379C41.0132 7.24847 40.9757 7.26252 40.9383 7.27657C40.868 7.26252 40.7931 7.24847 40.7088 7.23911C40.6479 7.03306 40.5168 6.82701 40.367 6.72867C40.1188 6.56945 39.8425 6.5273 39.5896 6.58818C39.4819 6.56945 39.3648 6.5554 39.2384 6.54603C39.1681 6.53667 39.0885 6.53667 39.0089 6.55072C38.8403 6.43833 38.6296 6.37745 38.461 6.42896C38.447 6.43364 38.4329 6.44769 38.4189 6.45238C38.3861 6.44301 38.3486 6.43833 38.3158 6.42896C38.1941 6.39618 38.0442 6.39618 37.8944 6.42428C37.871 6.42428 37.8475 6.41491 37.8241 6.41491C37.6883 6.42428 37.5666 6.46174 37.4589 6.51794C37.4074 6.50389 37.3558 6.49452 37.2996 6.48047C37.0561 6.41023 36.6768 6.47579 36.4801 6.66311C36.3303 6.54603 36.1195 6.47579 35.951 6.51794C35.7028 6.37277 35.2626 6.33999 35.0425 6.53667C35.0144 6.56008 34.9956 6.59755 34.9722 6.63033C34.9067 6.60691 34.8458 6.59286 34.7802 6.58818C34.7521 6.56477 34.724 6.53667 34.6913 6.52262C34.3822 6.3634 34.0544 6.38213 33.7874 6.53199C33.661 6.47111 33.5252 6.43833 33.4081 6.47579C33.4034 6.47579 33.3988 6.48047 33.3894 6.48516C33.1974 6.37277 32.9633 6.31189 32.7806 6.38213C32.7478 6.39618 32.7151 6.4196 32.687 6.44301C32.6589 6.44301 32.6354 6.43833 32.612 6.43365C32.4762 6.41491 32.3123 6.43833 32.1578 6.49452C32.0594 6.43364 31.9517 6.38681 31.8534 6.37745C31.5303 6.34467 31.254 6.46174 31.0573 6.66779C30.8793 6.44769 30.4719 6.27442 30.205 6.38682C30.1816 6.39618 30.1582 6.4196 30.1348 6.43365C29.9943 6.42896 29.8304 6.48048 29.7086 6.56945C29.6571 6.56477 29.6103 6.56477 29.5681 6.57413C29.3949 6.60691 29.2544 6.69589 29.1513 6.81296C29.1326 6.80828 29.1139 6.79891 29.0905 6.79891C29.0155 6.73804 28.9359 6.69121 28.847 6.66779C28.5847 6.60691 28.2007 6.76145 28.0368 6.9675C27.9666 7.05647 27.9197 7.15013 27.8823 7.24847C27.8448 7.27189 27.812 7.30467 27.7793 7.33277C27.4983 7.26721 27.1049 7.34213 26.941 7.56223C26.9035 7.61374 26.8754 7.68399 26.852 7.75891C26.8239 7.77296 26.7958 7.77765 26.7724 7.79638C26.7396 7.82447 26.7069 7.86662 26.6834 7.91345C26.5476 7.91345 26.3978 7.9556 26.2807 8.02584C26.0044 8.00242 25.6157 8.15228 25.4987 8.40984C25.4893 8.42857 25.4893 8.45199 25.4846 8.47072C25.3488 8.45667 25.1755 8.51755 25.0538 8.61121C24.829 8.53628 24.5668 8.52223 24.3935 8.6393C24.2998 8.70018 24.2249 8.80789 24.1734 8.92964C24.0142 8.92496 23.855 8.95306 23.7426 9.01394C23.588 9.10291 23.471 9.22467 23.3913 9.36047C23.3117 9.38857 23.2415 9.42603 23.19 9.47286C23.1853 9.47755 23.1853 9.47755 23.1806 9.48223C22.9839 9.48691 22.7592 9.58525 22.6468 9.72106C22.5672 9.8194 22.511 9.92243 22.4829 10.0348C22.2909 10.0863 22.0989 10.2034 22.0052 10.3626C21.9396 10.4141 21.8834 10.4703 21.8366 10.5312C21.6399 10.6155 21.4479 10.7888 21.3777 10.962C21.3121 11.1119 21.2934 11.2664 21.3028 11.4116C20.9234 11.5334 20.6659 11.8658 20.6237 12.2779C20.4083 12.2826 20.1601 12.3716 20.029 12.5308C19.94 12.5495 19.8604 12.5823 19.7949 12.6338C19.6591 12.7415 19.5654 12.957 19.542 13.1583C19.4343 13.2801 19.364 13.4487 19.3547 13.5892C19.2657 13.6641 19.1908 13.7812 19.158 13.8982C18.9707 13.931 18.7834 14.02 18.7037 14.1698C18.685 14.2026 18.6803 14.2401 18.671 14.2775C18.4743 14.3618 18.301 14.507 18.2401 14.6803C18.1886 14.8348 18.2214 15.0409 18.301 15.2188C18.2963 15.2282 18.2916 15.2375 18.287 15.2422C18.2635 15.2891 18.2495 15.3406 18.2401 15.3968C18.1605 15.5092 18.1137 15.6356 18.1043 15.762C18.0341 15.8089 17.9685 15.8651 17.9076 15.9353C17.8468 15.9494 17.7906 15.9681 17.7391 15.9962C17.5283 16.132 17.3785 16.4879 17.4066 16.7314C17.4159 16.8016 17.43 16.8672 17.4534 16.9281C17.444 16.9515 17.4347 16.9702 17.4253 16.9936C17.1912 17.1529 17.0273 17.4057 16.9711 17.7054C16.9523 17.7991 16.9523 17.9068 16.9664 18.0098C16.9523 18.0379 16.943 18.0614 16.9336 18.0941C16.8072 18.2253 16.7275 18.45 16.751 18.6139C16.7556 18.6467 16.765 18.6748 16.7744 18.7029C16.7322 18.7357 16.6948 18.7685 16.6713 18.8106C16.6292 18.8855 16.6152 18.9886 16.6198 19.0963C16.5824 19.1291 16.5543 19.1618 16.5215 19.1993C16.2733 19.1337 15.9034 19.2742 15.7441 19.4709C15.7114 19.5131 15.6833 19.5552 15.6552 19.602C15.6271 19.6114 15.6036 19.6255 15.5755 19.6348C15.5662 19.6348 15.5615 19.6301 15.5568 19.6301C15.3976 19.4662 15.1354 19.3445 14.934 19.3492C14.6811 19.3538 14.461 19.4475 14.2924 19.5974C14.2737 19.5974 14.255 19.5974 14.2409 19.602C14.2081 19.6114 14.18 19.6301 14.1519 19.6442C14.0864 19.6161 14.0208 19.5927 13.9599 19.588C13.8756 19.5833 13.796 19.5927 13.7164 19.6067C13.6743 19.5693 13.6321 19.5318 13.5806 19.5131C13.3699 19.4194 13.0187 19.4896 12.8454 19.6395C12.8033 19.677 12.7658 19.7191 12.733 19.7566C12.63 19.7378 12.527 19.7332 12.438 19.7706C12.3022 19.8315 12.1804 19.986 12.1242 20.1453C12.1008 20.1593 12.0727 20.1687 12.054 20.1827C11.8292 20.0891 11.5576 20.061 11.375 20.1734C11.2438 20.253 11.1361 20.4169 11.0753 20.5901C10.9816 20.6604 10.902 20.7447 10.8645 20.8336C10.8645 20.8383 10.8598 20.843 10.8598 20.8477C10.7615 20.8805 10.6772 20.9273 10.5976 20.9929C10.5742 20.9929 10.5508 20.9882 10.5274 20.9882C10.237 20.9507 9.79681 21.1287 9.67974 21.4143C9.66101 21.4565 9.65633 21.508 9.65165 21.5595C9.53457 21.5782 9.4175 21.6204 9.34257 21.6859C9.30511 21.7187 9.27233 21.7515 9.24423 21.789C9.10842 21.803 8.96794 21.8498 8.88365 21.9294C8.87896 21.9341 8.8696 21.9435 8.86491 21.9482C8.79935 21.9482 8.73848 21.9575 8.68696 21.9763C8.59799 22.0044 8.52306 22.0465 8.45282 22.098C8.28423 22.0325 8.1016 22.0091 7.95174 22.0653C7.78784 22.1261 7.63799 22.2994 7.54433 22.4774C7.4413 22.5382 7.35233 22.6132 7.30081 22.6974C7.23057 22.8098 7.18842 22.9269 7.17438 23.044C7.13223 23.0627 7.09008 23.0768 7.0573 23.1049C6.95428 23.1985 6.88872 23.3765 6.88403 23.5357C6.8653 23.5544 6.85594 23.5778 6.8372 23.5966C6.75759 23.6106 6.68267 23.634 6.62647 23.6668C6.4813 23.7558 6.3736 23.8729 6.30335 24.0087C6.02706 24.1304 5.81165 24.3646 5.70862 24.6736C5.69457 24.7205 5.68052 24.772 5.67584 24.8235C5.50726 24.8329 5.34335 24.8891 5.24033 24.9968C5.13262 25.1138 5.08111 25.3199 5.08579 25.5072C5.0015 25.6149 4.9453 25.7414 4.92189 25.8772C4.85633 25.938 4.80482 26.0083 4.76735 26.0832C4.63623 26.1347 4.52384 26.219 4.43955 26.3267C4.1773 26.4251 3.98999 26.6171 3.89633 26.8559C3.8776 26.8653 3.8495 26.8653 3.83077 26.8746C3.67623 26.9683 3.56852 27.2071 3.56384 27.3991C3.54979 27.4132 3.53106 27.4272 3.51701 27.4413C3.48891 27.4787 3.46081 27.5209 3.44208 27.563C3.17516 27.5771 2.8614 27.7175 2.75838 27.947C2.70218 28.0735 2.70686 28.2467 2.74433 28.4059C2.59916 28.523 2.48208 28.6775 2.43994 28.8274C2.36969 29.0756 2.39779 29.3191 2.49145 29.5252C2.34628 29.586 2.21984 29.675 2.15428 29.7968C2.03252 30.0215 2.07467 30.4102 2.22452 30.6069C2.24325 30.6303 2.26199 30.6491 2.28072 30.6678C2.28072 30.6865 2.28072 30.7099 2.2854 30.7287C2.24794 30.7755 2.21516 30.8223 2.18706 30.8738C2.00911 30.9956 1.86394 31.211 1.83116 31.3936C1.79369 31.6137 1.82648 31.8151 1.91077 31.9931C1.89672 32.0212 1.88267 32.0446 1.8733 32.0727C1.81243 32.2225 1.79838 32.4286 1.85457 32.6018C1.84521 32.6253 1.83584 32.644 1.83116 32.6674C1.82647 32.6814 1.82647 32.6908 1.82647 32.7049C1.64852 32.9109 1.58296 33.1919 1.65321 33.4729C1.65321 33.4775 1.65789 33.4822 1.65789 33.4869C1.64852 33.501 1.63916 33.5103 1.63447 33.5244C1.59233 33.604 1.56423 33.7117 1.56423 33.8147C1.50804 33.8803 1.45652 33.9599 1.41906 34.0442C1.3816 34.1332 1.36286 34.2409 1.36755 34.3533C1.30199 34.4563 1.25516 34.5734 1.23643 34.7045C1.22706 34.7607 1.23174 34.8262 1.23643 34.8918C1.22238 34.9152 1.20833 34.9386 1.19428 34.9667C1.08189 35.0182 0.983548 35.0932 0.92267 35.1868C0.791548 35.4022 0.814961 35.7909 0.950766 35.997C0.997596 36.0672 1.04911 36.1234 1.1053 36.1749C1.10062 36.2873 1.10999 36.4044 1.14277 36.5168C1.20364 36.7369 1.37691 36.9804 1.59701 37.1115C1.59233 37.149 1.58764 37.1911 1.58764 37.2333C1.58764 37.3082 1.60169 37.3925 1.62511 37.4721C1.50335 37.8046 1.57828 38.3384 1.97633 38.4508C2.01379 38.5023 2.05594 38.5445 2.10745 38.5866C2.0653 38.6709 2.03721 38.7552 2.02784 38.8348C2.00911 39.0502 2.06062 39.2422 2.15896 39.4061C2.1496 39.5513 2.17769 39.6965 2.23389 39.8042C2.28072 39.8885 2.3416 39.9587 2.40247 40.0243C2.39779 40.1835 2.42589 40.3427 2.49145 40.4973C2.54764 40.6284 2.65067 40.7595 2.77711 40.8625C2.80521 40.9468 2.85203 41.0311 2.90823 41.0967C2.87545 41.1435 2.84267 41.195 2.81457 41.2512C2.63194 41.6118 2.65535 42.2534 3.12364 42.4032C3.17516 42.4173 3.22667 42.4219 3.27818 42.4266C3.29223 42.4407 3.30628 42.4547 3.32501 42.4688C3.26413 42.5952 3.23135 42.7357 3.24072 42.8481C3.25945 43.101 3.36716 43.3117 3.52638 43.4709C3.54042 43.5693 3.57321 43.6629 3.62004 43.7332C3.6856 43.8268 3.76989 43.9017 3.85886 43.9533C3.83545 44.1265 3.88228 44.3419 4.00872 44.4637C4.01808 44.4965 4.02745 44.5293 4.0415 44.5527C4.13516 44.7072 4.2616 44.8196 4.40677 44.8898C4.43487 45.0022 4.48638 45.1099 4.55194 45.2083C4.61282 45.2972 4.69711 45.3769 4.79545 45.4471C4.83291 45.5174 4.88442 45.5782 4.96403 45.6204C5.04833 45.6672 5.14667 45.6813 5.24969 45.6813C5.29652 45.8311 5.3855 45.981 5.50726 46.0746C5.62433 46.2713 5.81164 46.4212 6.03642 46.5008C6.06921 46.5382 6.10667 46.5757 6.14413 46.6085C6.20033 46.8239 6.32208 47.0253 6.50472 47.1798C6.51408 47.1845 6.52345 47.1938 6.52813 47.1985C6.5656 47.2875 6.62179 47.3671 6.71545 47.4233C6.80911 47.4795 6.91681 47.4982 7.03389 47.5029C7.07135 47.5825 7.11818 47.6621 7.17438 47.7324C7.27272 47.8541 7.43194 47.9572 7.60052 48.0133C7.65672 48.0883 7.72228 48.1492 7.80657 48.1819C7.81594 48.21 7.8253 48.2428 7.83935 48.2709C7.85808 48.3084 7.8815 48.3458 7.90491 48.3786C7.90023 48.7111 8.0454 49.0857 8.40598 49.1419H8.41067C8.49964 49.3386 8.66355 49.4932 8.89301 49.5025C8.9492 49.5025 9.0054 49.4932 9.0616 49.4791C9.10374 49.6477 9.18335 49.8163 9.30511 49.9568C9.43155 50.1019 9.62823 50.2237 9.83896 50.2752C9.87643 50.3876 9.94667 50.4859 10.0591 50.5515C10.2136 50.6358 10.4009 50.6358 10.607 50.603C10.8083 50.8606 11.1923 51.0619 11.5014 50.9074C11.5576 50.9168 11.6138 50.9214 11.6747 50.9027C11.7449 50.884 11.8058 50.8465 11.862 50.8044C11.9135 50.8465 11.965 50.8793 12.0212 50.9027C12.1945 51.0807 12.4333 51.1931 12.7049 51.2118C12.8173 51.2212 12.9437 51.2024 13.0655 51.165C13.103 51.1696 13.1404 51.1696 13.1779 51.1696C13.2154 51.2024 13.2528 51.2352 13.295 51.2633C13.3699 51.5068 13.5385 51.7129 13.8054 51.7363C13.9787 51.7503 14.1473 51.6801 14.3205 51.5817C14.3814 51.5864 14.447 51.5771 14.5172 51.563C14.6296 51.6848 14.7654 51.7831 14.9293 51.844C15.1119 51.9142 15.3601 51.9283 15.5755 51.8627C15.7395 52.0828 16.0111 52.242 16.2686 52.1343C16.3857 52.1765 16.5121 52.1999 16.6433 52.1952C16.6526 52.2046 16.662 52.2139 16.676 52.2233C16.9804 52.4621 17.5892 52.5652 17.8187 52.1531C17.8327 52.125 17.8374 52.0969 17.8468 52.0688C17.8889 52.036 17.9311 52.0032 17.9732 51.9704C18.0107 51.9798 18.0481 51.9938 18.0903 51.9985C18.1277 52.0032 18.1652 52.0079 18.2027 52.0079C18.2589 52.0453 18.3197 52.0828 18.3806 52.1109C18.6897 52.2514 19.1954 52.228 19.3968 51.9142C19.453 51.8955 19.5045 51.8721 19.556 51.844C19.5654 51.8393 19.5701 51.8346 19.5794 51.8299C19.631 51.8299 19.6778 51.8252 19.7293 51.8159C19.8651 51.8721 20.0103 51.8861 20.1554 51.8721C20.3662 52.0734 20.6612 52.1905 20.9281 52.0313C21.0733 51.947 21.167 51.7972 21.2466 51.6192C21.4011 51.7035 21.5791 51.7503 21.7711 51.7503C21.9912 51.7503 22.2628 51.6426 22.4314 51.4647C22.4782 51.4506 22.5203 51.4272 22.5672 51.3991C22.6234 51.4553 22.6889 51.4974 22.7732 51.5209C22.9043 51.5536 23.0401 51.5255 23.1853 51.474C23.2368 51.4974 23.293 51.5162 23.3539 51.5209C23.574 51.5396 23.78 51.4178 24.0048 51.2633C24.1687 51.3195 24.3513 51.3335 24.5106 51.2914C24.5995 51.3008 24.6885 51.2961 24.7822 51.2539C24.8946 51.2071 24.9835 51.1181 25.0632 51.0151C25.2224 50.9683 25.3629 50.8652 25.5033 50.7248C25.8171 50.8044 26.2245 50.7341 26.3416 50.4016C26.6038 50.5187 26.9223 50.5328 27.1096 50.2893C27.1752 50.2003 27.2079 50.0972 27.2267 49.9802C27.2594 49.9614 27.2969 49.9427 27.3344 49.924C27.3718 49.9099 27.4046 49.8772 27.4374 49.8537C27.6481 49.9052 27.9244 49.8631 28.0555 49.6805C28.1773 49.6805 28.3225 49.6383 28.4442 49.5681C28.7065 49.5962 29.0296 49.5072 29.1701 49.2777C29.1982 49.4229 29.2544 49.5634 29.3434 49.6945C29.3761 49.7413 29.4183 49.7882 29.4651 49.8303C29.4932 49.9334 29.5447 50.027 29.6477 50.0972C29.6665 50.1113 29.6899 50.116 29.7086 50.1253C29.7133 50.3033 29.7789 50.4719 29.9428 50.5749C29.9802 50.5983 30.0271 50.6124 30.0692 50.6264C30.0973 50.8184 30.191 50.987 30.383 51.0666C30.4673 51.0994 30.5562 51.1041 30.6452 51.0994C30.6733 51.165 30.7108 51.2258 30.7529 51.282C30.8044 51.4132 30.884 51.5209 30.9777 51.6098C30.9496 51.9564 31.0854 52.3638 31.4553 52.434C31.5256 52.5043 31.6005 52.5605 31.6801 52.6026C31.7223 52.7056 31.7925 52.7946 31.8955 52.8602C32.1344 53.0053 32.4434 52.9632 32.7947 52.9164C32.8134 52.9164 32.8368 52.9117 32.8555 52.907C32.9633 53.202 33.2161 53.4783 33.5486 53.4128C33.5533 53.4128 33.5627 53.4081 33.5673 53.4081C33.6797 53.5158 33.8296 53.586 33.9982 53.5533C34.0637 53.5439 34.1246 53.5158 34.1808 53.4877C34.326 53.5626 34.4899 53.6001 34.6632 53.6001C34.6678 53.6001 34.6772 53.6001 34.6819 53.6001C34.7287 53.6329 34.7802 53.661 34.8364 53.6703C35.0237 53.8764 35.3 54.0028 35.6044 54.0075C35.6044 54.0075 35.6044 54.0075 35.6091 54.0075C35.7074 54.0871 35.8245 54.148 35.9463 54.1761C36.0259 54.2463 36.1149 54.3072 36.2179 54.354C36.3209 54.4009 36.4427 54.429 36.5691 54.4383C36.6019 54.4805 36.6394 54.5226 36.6909 54.5554C36.9063 54.7053 37.1966 54.6772 37.5338 54.6491C37.5385 54.6491 37.5478 54.6491 37.5525 54.6491C37.6509 54.7287 37.7726 54.7708 37.9084 54.738C37.9974 54.7146 38.0723 54.6631 38.1426 54.5929C38.1473 54.5975 38.1566 54.6022 38.1613 54.6069C38.3767 54.7333 38.7373 54.7614 38.9387 54.5835C38.9808 54.5788 39.0276 54.5694 39.0698 54.5601C39.2712 54.6537 39.5147 54.6725 39.7441 54.5975C39.7722 54.5882 39.8003 54.5741 39.8237 54.5648C39.9783 54.621 40.1562 54.6303 40.3014 54.5694C40.4372 54.7708 40.6386 54.916 40.8961 54.8738C41.0741 54.8411 41.2239 54.724 41.3691 54.5741C41.4066 54.5882 41.4487 54.5975 41.4909 54.6069C41.5658 54.6631 41.6594 54.7006 41.7672 54.7006C41.8514 54.7006 41.9357 54.6772 42.0153 54.6397C42.1184 54.724 42.2448 54.7708 42.3947 54.7521C42.5398 54.7333 42.6663 54.6537 42.788 54.546C42.9238 54.5835 43.069 54.5975 43.2189 54.5788C43.2657 54.5741 43.3125 54.5601 43.364 54.546C43.556 54.621 43.7808 54.6397 43.9494 54.5367C44.0758 54.5507 44.207 54.5413 44.3381 54.5086C44.4411 54.4805 44.5441 54.429 44.6425 54.3634C44.6799 54.3634 44.7127 54.354 44.7549 54.3447C44.8719 54.3494 44.9984 54.3353 45.1389 54.3119C45.2606 54.3915 45.4011 54.4477 45.5603 54.4711C45.7711 54.4992 46.0427 54.4336 46.23 54.2885C46.3236 54.3259 46.4267 54.3306 46.5391 54.3025C46.7357 54.2463 46.8809 54.0871 47.0214 53.8904C47.0589 53.8857 47.0963 53.8811 47.1385 53.8717C47.3164 53.853 47.5365 53.7453 47.6864 53.5954C47.8269 53.5673 47.972 53.4971 48.0751 53.394C48.1828 53.3847 48.2952 53.3519 48.3888 53.3004C48.6183 53.3332 48.9227 53.2582 49.0913 53.0756C49.2692 53.1646 49.4659 53.188 49.6485 53.0709C49.7562 53.0007 49.8312 52.8976 49.892 52.7759C50.0138 52.8414 50.1496 52.8742 50.3041 52.8368C50.4821 52.7899 50.6179 52.6635 50.7537 52.4996C51.0206 52.5464 51.3063 52.4949 51.4468 52.242C51.5217 52.1156 51.5357 51.9657 51.5311 51.8065C51.6903 51.7316 51.812 51.6052 51.8354 51.4225C51.8401 51.4178 51.8495 51.4132 51.8542 51.4085C51.8823 51.3757 51.8963 51.3429 51.9151 51.3054C52.0555 51.2165 52.1914 51.09 52.3412 50.9449C52.3506 50.9355 52.3599 50.9261 52.3693 50.9168C52.5613 50.898 52.7392 50.8137 52.8282 50.6217C52.861 50.5515 52.8704 50.4766 52.8751 50.4016C52.9078 50.3782 52.9359 50.3501 52.964 50.3173C53.0624 50.1909 53.0811 50.027 53.0858 49.835C53.2731 49.7741 53.437 49.6383 53.4511 49.4416C53.4979 49.3808 53.5447 49.3058 53.5869 49.2262C53.6618 49.1934 53.7367 49.156 53.821 49.1185C53.9849 49.053 54.1582 48.875 54.2331 48.683C54.2472 48.6736 54.2612 48.669 54.2752 48.6549C54.5375 48.4582 54.7623 48.0133 54.589 47.6902C54.6077 47.6668 54.6312 47.6434 54.6452 47.6106C54.6733 47.5591 54.6827 47.5029 54.6873 47.4467C54.973 47.3718 55.2399 47.1704 55.2259 46.8567C55.2212 46.7817 55.1978 46.7115 55.1697 46.6412C55.1978 46.5757 55.2212 46.5101 55.2493 46.4399C55.254 46.4305 55.2587 46.4165 55.2633 46.4071C55.5865 46.2151 55.8815 45.7421 55.6567 45.3769C55.6567 45.3722 55.6567 45.3675 55.6614 45.3581C55.6895 45.2457 55.6848 45.1006 55.652 44.9601C55.7504 44.9039 55.8347 44.8149 55.8674 44.6885C55.9049 44.548 55.8768 44.3981 55.8206 44.2436C56.0313 44.0563 56.1718 43.7566 56.0126 43.499C56.0079 43.4896 55.9986 43.485 55.9939 43.4756C55.9939 43.4381 55.9939 43.4007 55.9939 43.3585C56.1484 43.2555 56.2608 43.0963 56.2421 42.8949C56.2327 42.7685 56.1718 42.6561 56.0875 42.5437C56.1578 42.4407 56.1906 42.3189 56.1437 42.1925C56.125 42.141 56.0969 42.0988 56.0641 42.0567C56.1765 41.9068 56.2327 41.6493 56.1718 41.4526C56.1765 41.373 56.1718 41.2887 56.1672 41.1997C56.1672 41.195 56.1672 41.1903 56.1672 41.1903C56.1906 41.1622 56.2093 41.1388 56.2327 41.1107C56.2655 41.0732 56.2936 41.0217 56.3217 40.9702C56.4294 40.914 56.5231 40.8251 56.5605 40.6939C56.6073 40.5347 56.5699 40.3708 56.509 40.1882C56.7197 39.9306 56.8368 39.5232 56.701 39.2656ZM44.3287 53.0054C44.1554 52.9023 43.8885 52.8695 43.6544 52.9117C43.5233 52.8976 43.3687 52.9351 43.2376 53.0054C43.0034 52.8976 42.6897 52.8742 42.4743 52.9913C42.3947 53.01 42.3197 53.0334 42.2542 53.0709C42.2448 53.0709 42.2308 53.0615 42.2214 53.0615C42.0622 53.0475 41.917 53.0803 41.7906 53.1365C41.7344 53.099 41.6782 53.0709 41.6173 53.0569C41.5705 53.0475 41.5236 53.0522 41.4721 53.0569C41.341 52.996 41.1958 52.9632 41.0788 52.9772C40.868 52.996 40.6901 53.0756 40.5449 53.1927C40.4606 53.1646 40.381 53.1458 40.3014 53.1646C40.2546 53.1739 40.2124 53.1973 40.1656 53.2208C40.1188 53.1973 40.0673 53.1739 40.0204 53.1692C39.9174 53.1599 39.7956 53.1973 39.6926 53.2582C39.6879 53.2582 39.6879 53.2535 39.6833 53.2535C39.4491 53.1318 39.037 53.1365 38.831 53.3191C38.8075 53.3191 38.7888 53.3191 38.7654 53.3238C38.6624 53.2348 38.5406 53.1739 38.4189 53.1692C38.3112 53.1692 38.1894 53.2208 38.0817 53.2957C37.8663 53.1318 37.6228 53.0756 37.3886 53.1037C37.309 53.0241 37.2013 52.9585 37.0795 52.9117C36.911 52.6822 36.6206 52.4809 36.3631 52.5043C36.3209 52.509 36.2741 52.5277 36.2273 52.5417C36.1617 52.5277 36.0961 52.5277 36.0259 52.5324C36.0165 52.5277 36.0118 52.5183 36.0072 52.5136C35.8105 52.3076 35.3843 52.1624 35.094 52.2654C35.0659 52.2373 35.0331 52.2139 35.005 52.1858C34.9394 52.1203 34.8411 52.0641 34.7381 52.0173C34.6163 51.9142 34.4477 51.844 34.2932 51.8253C34.1293 51.6754 33.8671 51.5817 33.6751 51.6052C33.6142 51.6145 33.5533 51.6286 33.4971 51.6426C33.4456 51.5724 33.3941 51.5068 33.3332 51.4647C33.174 51.3523 33.0007 51.2914 32.8321 51.2727C32.7806 51.0245 32.495 50.7529 32.2561 50.692C32.2374 50.6873 32.2233 50.6873 32.2046 50.6826C32.125 50.6124 32.0407 50.5421 31.9471 50.4719C31.9424 50.4672 31.933 50.4625 31.9283 50.4578C31.919 50.3642 31.9002 50.2752 31.8487 50.2096C31.8394 50.2003 31.8253 50.1909 31.8159 50.1815C31.7785 49.9802 31.6286 49.7648 31.46 49.6664C31.4038 49.5259 31.3149 49.3995 31.2165 49.3246C31.165 49.2871 31.1088 49.2543 31.0526 49.2309C31.0058 49.1326 30.9496 49.0436 30.8794 48.9921C30.8513 48.9733 30.8232 48.9546 30.7997 48.9406C30.7904 48.6455 30.6405 48.2896 30.3923 48.1726C30.3268 48.1398 30.2472 48.1257 30.1629 48.1211C30.1441 48.0976 30.1254 48.0742 30.1067 48.0555C29.9943 47.9103 29.8116 47.812 29.5962 47.7043C29.3714 47.5685 28.9453 47.5544 28.7486 47.7464C28.7112 47.7839 28.6737 47.8354 28.6503 47.8916C28.6034 47.9103 28.5613 47.9337 28.5192 47.9572C28.4068 47.915 28.285 47.901 28.182 47.9291C28.0228 47.9712 27.8635 48.1257 27.7699 48.2896C27.695 48.2943 27.62 48.3084 27.5592 48.3458C27.4936 48.388 27.4327 48.4582 27.3859 48.5378C27.2641 48.5566 27.1424 48.6502 27.0534 48.7626C27.0206 48.7673 26.9925 48.772 26.9597 48.7813C26.9082 48.7392 26.8473 48.7017 26.7865 48.683C26.557 48.6174 26.2058 48.7345 26.0513 48.9078C25.9904 48.978 25.9435 49.0576 25.9061 49.1326C25.7796 49.0389 25.6392 48.9827 25.5033 48.9874C25.3348 48.9968 25.1381 49.1232 25.0116 49.2684C24.9601 49.2824 24.9086 49.3012 24.8618 49.3246C24.7353 49.3058 24.6042 49.3105 24.5059 49.3433C24.4075 49.3761 24.3279 49.4229 24.2483 49.4791C24.239 49.4791 24.2296 49.4744 24.2202 49.4697C23.9908 49.4463 23.6957 49.6055 23.5553 49.7929C23.382 49.8397 23.2321 49.938 23.1104 50.0692C22.9746 50.0973 22.8528 50.1628 22.7498 50.2518C22.6421 50.2237 22.5156 50.219 22.3939 50.2471C22.2768 50.2237 22.1597 50.2331 22.0474 50.2658C21.8179 50.0879 21.4105 49.9895 21.1623 50.1347C21.1389 50.1488 21.1201 50.1722 21.0967 50.1909C20.886 50.1066 20.6003 50.1066 20.4224 50.1956C20.3194 50.2471 20.2351 50.3127 20.1601 50.3829C20.1367 50.3829 20.1133 50.3829 20.0899 50.3829C19.9213 50.3689 19.7012 50.4297 19.5279 50.5374C19.4717 50.5374 19.4155 50.5468 19.3593 50.5609C19.3125 50.5515 19.2704 50.5374 19.2189 50.5281C19.1486 50.5093 19.069 50.5 18.9894 50.5C18.8395 50.3829 18.6663 50.308 18.5024 50.3267C18.3197 50.3454 18.109 50.4859 17.9779 50.6498C17.9264 50.6498 17.8749 50.6498 17.8327 50.6686C17.8234 50.6733 17.8093 50.6826 17.7999 50.6873C17.725 50.6826 17.6548 50.6873 17.5845 50.7014C17.4768 50.589 17.3504 50.5093 17.2193 50.4859C17.0694 50.4625 16.8914 50.5187 16.7369 50.6124C16.6901 50.5983 16.6526 50.5843 16.6011 50.5749C16.4232 50.4625 16.1328 50.4344 15.9549 50.5093C15.9034 50.5328 15.8518 50.5609 15.8097 50.589C15.805 50.5843 15.805 50.5749 15.8003 50.5702C15.6739 50.2846 15.2758 49.9802 14.9574 50.027C14.9153 50.0317 14.8731 50.0551 14.831 50.0738C14.7186 49.9802 14.5828 49.9146 14.4657 49.8912C14.2971 49.8631 14.1426 49.8818 13.9974 49.924C13.8616 49.8116 13.693 49.7367 13.5432 49.7507C13.4729 49.7601 13.4027 49.7882 13.3371 49.8256C13.309 49.8116 13.2809 49.8022 13.2481 49.7929C13.2294 49.7741 13.2154 49.7554 13.1966 49.7367C12.9953 49.4978 12.5223 49.3152 12.2226 49.4557C12.2038 49.4651 12.1898 49.4838 12.1711 49.4932C12.0868 49.437 11.9837 49.3995 11.8807 49.3854C11.8198 49.2637 11.7402 49.1607 11.6325 49.0998C11.4499 48.9968 11.1595 49.0155 10.9488 49.1045C10.8645 49.0857 10.7802 49.0857 10.6959 49.0904C10.6772 48.7814 10.4758 48.388 10.1902 48.285C10.1434 48.2709 10.0918 48.2662 10.0403 48.2615C10.0356 48.2428 10.0356 48.2241 10.031 48.21C9.97945 48.0649 9.83896 47.9337 9.68443 47.8401C9.5814 47.6294 9.35194 47.428 9.14589 47.3812C9.10374 47.3718 9.06628 47.3671 9.02413 47.3671C8.98198 47.2734 8.93048 47.1845 8.85555 47.1376C8.78999 47.0908 8.69633 47.0721 8.60267 47.0627C8.55584 47.0065 8.49028 46.955 8.41535 46.9175C8.38257 46.6506 8.21867 46.3415 7.97984 46.2526C7.95643 46.2432 7.92364 46.2432 7.89555 46.2385C7.89086 46.2338 7.89086 46.2292 7.88618 46.2292C7.84403 46.2011 7.80189 46.1776 7.75974 46.1542C7.71291 45.8358 7.4413 45.4377 7.12286 45.3815C7.08072 45.3722 7.02921 45.3815 6.98238 45.3815C6.93555 45.3113 6.87935 45.2364 6.82316 45.1568C6.75291 45.0491 6.64052 44.946 6.50472 44.8711C6.43916 44.7774 6.3174 44.7025 6.19096 44.6604C6.13945 44.5761 6.07857 44.5012 6.01301 44.4543C5.98023 44.4356 5.94745 44.4215 5.91467 44.4028C5.88657 44.1406 5.75077 43.8502 5.54004 43.7472C5.45574 43.7051 5.34804 43.6957 5.24033 43.6957C5.17945 43.6723 5.11389 43.6489 5.04833 43.6301C5.03896 43.6067 5.02959 43.5833 5.01086 43.5646C5.06237 43.4569 5.09047 43.3398 5.07174 43.2274C5.09984 43.1478 5.11857 43.0682 5.10452 42.9745C5.06706 42.731 4.87506 42.5437 4.65028 42.3376C4.6456 42.3049 4.63623 42.2721 4.62218 42.244C4.66433 42.1597 4.68774 42.0613 4.66433 41.9536C4.65028 41.8787 4.61282 41.8178 4.57067 41.7523C4.6456 41.6305 4.69243 41.4994 4.68306 41.373C4.66901 41.106 4.41145 40.7782 4.16325 40.6799C4.08833 40.6518 4.0134 40.6331 3.93848 40.619C4.00404 40.4645 4.01808 40.2772 3.9572 40.1367C4.0134 39.9634 4.0134 39.7246 3.94784 39.5232C3.96189 39.4108 3.94784 39.2984 3.8776 39.1954C3.85418 39.1579 3.81672 39.1252 3.78394 39.0924C3.73243 38.891 3.58257 38.7037 3.41399 38.493C3.39526 38.4695 3.37184 38.4414 3.35311 38.418C3.35311 38.3946 3.34374 38.3759 3.34374 38.3572C3.38589 38.2729 3.40931 38.1745 3.38589 38.0668C3.36248 37.9638 3.30628 37.8701 3.23135 37.7858C3.29691 37.6641 3.33438 37.533 3.31565 37.4112C3.28755 37.2333 3.13769 37.0319 2.96443 36.9195C2.96443 36.8352 2.95506 36.7556 2.9176 36.6853C2.87545 36.6104 2.79584 36.5449 2.70218 36.4887C2.70218 36.4606 2.70218 36.4372 2.6975 36.4091C2.6975 36.4091 2.6975 36.4044 2.70218 36.4044C2.82394 36.189 2.85672 35.8331 2.75369 35.5708C2.76306 35.4444 2.73964 35.3226 2.65535 35.2102C2.62725 35.1728 2.58979 35.1447 2.55233 35.1166C2.56638 35.0463 2.56638 34.9808 2.55233 34.9199C2.65535 34.7654 2.70686 34.5734 2.67877 34.4094C2.76306 34.2924 2.81457 34.1613 2.79584 34.0395C2.79116 33.9833 2.76306 33.9271 2.73496 33.8709C2.79116 33.7913 2.8333 33.7023 2.82862 33.6134C2.82862 33.5993 2.81925 33.5853 2.81925 33.5712C2.84735 33.5197 2.87545 33.4682 2.90355 33.412C2.99252 33.2668 3.02062 33.0467 2.98784 32.85C3.03935 32.7657 3.06745 32.6768 3.07213 32.5878C3.11896 32.5456 3.15643 32.5035 3.19389 32.452C3.39994 32.3724 3.56852 32.2178 3.59194 31.9837C3.61067 31.7964 3.53106 31.6184 3.41867 31.4311C3.47487 31.3328 3.51233 31.197 3.51701 31.0612C3.57321 30.9909 3.61067 30.9066 3.60598 30.8036C3.60598 30.7989 3.6013 30.7895 3.6013 30.7849C3.8495 30.6163 4.06023 30.2697 3.99467 29.9607C4.10706 29.8811 4.19135 29.7733 4.22413 29.6235C4.27096 29.3847 4.16325 29.1412 4.02277 28.8742C4.06491 28.8508 4.10706 28.8274 4.14921 28.7993C4.35057 28.6541 4.52384 28.3685 4.51447 28.1015C4.66901 28.0688 4.82823 27.9845 4.93594 27.8627C5.04833 27.755 5.14667 27.6145 5.25438 27.46C5.31994 27.3757 5.36677 27.2539 5.39955 27.1275C5.41828 27.1088 5.43233 27.09 5.45106 27.0713C5.50257 27.0198 5.54004 26.9495 5.5775 26.8699C5.6056 26.8372 5.62901 26.8044 5.65242 26.7669C5.66179 26.7622 5.67116 26.7669 5.68052 26.7622C5.89594 26.692 6.03174 26.4766 6.18628 26.2284C6.19096 26.2237 6.19096 26.2143 6.19565 26.2096C6.21438 26.205 6.23779 26.2003 6.25652 26.1956C6.51408 26.116 6.79506 25.8584 6.81847 25.5681C6.89808 25.5259 6.97301 25.4791 7.0573 25.4323C7.34296 25.2918 7.6333 24.8703 7.57711 24.5425C7.58179 24.5238 7.58647 24.5097 7.59116 24.491V24.4863C7.65203 24.402 7.70355 24.3037 7.75974 24.196C7.76911 24.1866 7.76911 24.1679 7.77379 24.1538C7.77847 24.1538 7.77847 24.1538 7.78316 24.1538C7.86277 24.1398 7.94238 24.1023 8.0173 24.0508C8.2374 24.0742 8.4575 24.0087 8.57457 23.812C8.93047 23.7839 9.32852 23.5778 9.33321 23.1845C9.4456 23.1892 9.5533 23.1564 9.64228 23.0627C9.68442 23.0206 9.71252 22.9691 9.73594 22.9129C9.85769 22.9269 9.97477 22.8988 10.0684 22.8005C10.1246 22.7396 10.1574 22.6694 10.1855 22.5851C10.2604 22.5476 10.3307 22.4961 10.4056 22.4305C10.6585 22.4633 10.9207 22.3931 11.1408 22.2198C11.2157 22.1589 11.286 22.0793 11.3422 21.9903C11.3469 21.9903 11.3469 21.9856 11.3515 21.9856C11.4031 21.9622 11.4499 21.9295 11.4967 21.892C11.6934 21.9201 11.9135 21.8779 12.0353 21.7328C12.3771 21.7281 12.836 21.4799 12.8501 21.0912C12.9016 21.0959 12.9578 21.0912 13.0187 21.0818C13.2435 21.2083 13.5244 21.2504 13.7258 21.0631C13.8148 21.0397 13.8991 20.9929 13.9834 20.932C14.0395 20.9694 14.1051 20.9975 14.1754 21.0069C14.2971 21.1521 14.461 21.2457 14.6624 21.227C14.9106 21.2036 15.1073 21.021 15.3274 20.8055C15.3695 20.8009 15.407 20.7962 15.4491 20.7868C15.5334 20.8571 15.6411 20.8945 15.7582 20.8758C15.8003 20.8711 15.8378 20.8524 15.8753 20.8383C16.0766 21.0116 16.4044 21.1287 16.676 21.0631C16.6948 21.0631 16.7135 21.0678 16.7369 21.0631C16.9383 21.035 17.1069 20.8992 17.2754 20.7259C17.4955 20.6697 17.7297 20.5152 17.7906 20.3185C17.814 20.2483 17.8093 20.164 17.7999 20.0797C17.9592 19.9345 18.0809 19.7425 18.0762 19.5552C18.0715 19.4428 18.02 19.3211 17.9498 19.2087C17.9685 19.1618 17.9779 19.115 17.9826 19.0682C18.1231 18.9605 18.2214 18.8013 18.1793 18.6139C18.1746 18.5952 18.1652 18.5765 18.1558 18.5624C18.2214 18.5015 18.2823 18.4313 18.3244 18.3517C18.3525 18.333 18.3759 18.3142 18.404 18.2908C18.6335 18.1316 18.8442 17.7616 18.8208 17.4573C19.0831 17.3308 19.3032 17.092 19.2423 16.7876C19.2329 16.7501 19.2142 16.7174 19.2001 16.6799C19.3032 16.5628 19.3734 16.427 19.3734 16.2959C19.3734 16.2303 19.3547 16.1601 19.3266 16.0898C19.3313 16.0336 19.3313 15.9774 19.3313 15.9166C19.4858 15.8323 19.6403 15.6637 19.7012 15.4904C19.7293 15.4717 19.7574 15.453 19.7808 15.4295C19.9728 15.2563 20.1227 14.9425 20.0852 14.6662C20.0993 14.6381 20.1133 14.6147 20.1227 14.5866C20.221 14.5398 20.3053 14.4695 20.3568 14.3759C20.5535 14.3337 20.7455 14.2214 20.8345 14.0528C21.1295 13.9451 21.4152 13.6781 21.3917 13.3597C21.4714 13.2754 21.5416 13.1724 21.5837 13.06C21.7289 12.9757 21.8647 12.8539 22.0146 12.7134C22.1176 12.6292 22.2066 12.4934 22.2674 12.3482C22.2721 12.3435 22.2768 12.3388 22.2815 12.3341C22.2815 12.3341 22.2815 12.3294 22.2862 12.3294C22.5718 12.3388 22.8622 12.2358 22.9605 11.9454C22.9839 11.8705 22.9886 11.7909 22.9839 11.7066C23.0401 11.6364 23.0963 11.5661 23.1525 11.4865C23.2274 11.3975 23.2883 11.2805 23.3258 11.1494C23.3305 11.1447 23.3398 11.14 23.3445 11.1353C23.3539 11.1306 23.3586 11.1213 23.3679 11.1119C23.4991 11.0978 23.6161 11.0416 23.7004 10.9246C23.7285 10.8871 23.7473 10.8403 23.7613 10.7981C23.7988 10.7935 23.8315 10.7841 23.8643 10.77C24.0329 10.8356 24.2155 10.845 24.3794 10.7326C24.5246 10.6342 24.6089 10.475 24.6745 10.2877C24.7073 10.2736 24.74 10.2596 24.7681 10.2362C24.8009 10.2081 24.829 10.18 24.8524 10.1425C24.9414 10.1566 25.0304 10.1659 25.124 10.1613C25.3535 10.1472 25.6345 10.0161 25.789 9.81472C25.8452 9.78194 25.8967 9.73979 25.9342 9.67891C25.9529 9.64613 25.967 9.60867 25.9763 9.57121C25.9857 9.57121 25.9951 9.57121 26.0044 9.56652C26.0981 9.55716 26.2058 9.51501 26.3041 9.45882C26.4961 9.45413 26.6928 9.39325 26.8614 9.2715C26.927 9.22467 26.9878 9.15911 27.044 9.08418C27.0955 9.06545 27.1471 9.04203 27.1986 9.01394C27.2594 8.97647 27.3156 8.92965 27.3672 8.86877C27.3953 8.86408 27.4233 8.87345 27.4561 8.86877C27.4936 8.8594 27.5311 8.85003 27.5685 8.83599C27.7558 8.86408 27.9525 8.84067 28.1398 8.76106C28.1679 8.74701 28.196 8.73296 28.2194 8.71423C28.2803 8.70955 28.3459 8.70018 28.4068 8.66272C28.4395 8.64399 28.4723 8.61589 28.5004 8.58779C28.8001 8.70018 29.156 8.69081 29.348 8.40984C29.4276 8.29277 29.4604 8.15228 29.4651 7.99774C29.4745 7.99306 29.4792 7.99306 29.4885 7.98838C29.5213 7.98838 29.5588 7.98838 29.5962 7.97433C29.6852 7.95091 29.7601 7.89472 29.8304 7.82447C30.0036 7.92281 30.2378 7.97433 30.4204 7.8994C30.4766 7.91813 30.5375 7.93218 30.5984 7.93686C30.7014 7.95091 30.8232 7.93686 30.9402 7.90877C31.0386 8.03989 31.1744 8.12886 31.3523 8.13355C31.5958 8.14291 31.8113 7.98838 32.0548 7.80106C32.317 7.97433 32.6355 8.00243 32.9305 7.89004C32.996 7.91345 33.0616 7.93218 33.1318 7.94623C33.2349 7.96028 33.3519 7.9556 33.4643 7.9275C33.4971 7.9556 33.5346 7.97901 33.5767 7.99774C33.8202 8.10077 34.1012 8.01647 34.429 7.91813C34.4571 7.91345 34.4852 7.8994 34.5133 7.89004C34.5601 7.8994 34.6116 7.90408 34.6678 7.89004C34.7474 7.8713 34.8177 7.82447 34.8833 7.7636C34.9769 7.77765 35.0846 7.77765 35.197 7.77296C35.4124 7.91813 35.684 7.97433 35.9556 7.91813C36.0353 7.8994 36.1195 7.86662 36.2038 7.81979C36.2741 7.82916 36.349 7.82916 36.4239 7.81511C36.4708 7.83852 36.5223 7.85257 36.5785 7.84789C36.63 7.84321 36.6815 7.82916 36.7283 7.80574C36.8735 7.89004 37.0327 7.93218 37.2013 7.93218C37.3137 8.05394 37.4635 8.12886 37.6415 8.10545C37.7586 8.0914 37.8569 8.03521 37.9553 7.9556C38.18 8.01179 38.4189 7.99306 38.6436 7.89004C38.6624 7.89472 38.6764 7.90408 38.6952 7.90877C38.7326 7.91813 38.7748 7.92282 38.8169 7.92282C38.8637 8.01647 38.9387 8.10077 39.0417 8.15696C39.2852 8.28808 39.5943 8.23189 39.9455 8.16164C40.0204 8.15228 40.1047 8.12887 40.1843 8.0914C40.3201 8.22252 40.484 8.2834 40.6573 8.27872C40.7088 8.34896 40.7744 8.40984 40.8493 8.46135C40.9336 8.81257 41.2333 9.19657 41.6313 9.10291C41.6454 9.09823 41.6548 9.08886 41.6688 9.08418C41.7344 9.12165 41.8046 9.14974 41.8889 9.14974C41.917 9.14974 41.9451 9.14038 41.9732 9.13569C42.1324 9.2434 42.3151 9.29491 42.4977 9.29491C42.6803 9.41199 42.8911 9.45413 43.0971 9.43072C43.1158 9.44945 43.1346 9.46818 43.1533 9.48691C43.1954 9.66486 43.2985 9.82409 43.4905 9.88496C43.6263 9.93179 43.7761 9.91774 43.9354 9.8756C44.0524 10.0348 44.221 10.1472 44.4317 10.1051C44.4786 10.0957 44.5207 10.077 44.5582 10.0582C44.6425 10.1332 44.7455 10.194 44.8626 10.2315C45.078 10.3954 45.3636 10.461 45.654 10.4141C45.6914 10.4984 45.7383 10.578 45.7992 10.653C46.0239 10.9293 46.5203 11.1447 46.8434 10.9058C46.9652 11.0042 47.1104 11.0744 47.2743 11.0978C47.2836 11.1634 47.3024 11.229 47.3305 11.2805C47.3726 11.3601 47.4288 11.421 47.485 11.4818C47.5646 11.8377 47.8081 12.0953 48.1266 12.2077C48.1406 12.3341 48.1734 12.4559 48.2343 12.5449C48.3092 12.6526 48.3935 12.7415 48.4918 12.8118C48.5293 12.9101 48.5761 13.0038 48.637 13.0694C48.6885 13.1255 48.7447 13.1724 48.8056 13.2098C48.8384 13.2988 48.8758 13.3784 48.932 13.4393C49.0397 13.5657 49.1709 13.65 49.3067 13.7062C49.3863 13.8327 49.4893 13.9357 49.6157 14.0106C49.6345 14.2401 49.7375 14.4602 49.9763 14.5257C50.0138 14.5351 50.0559 14.5351 50.0981 14.5398C50.1449 14.6054 50.1964 14.6662 50.262 14.7177C50.3229 14.9191 50.454 15.1017 50.6319 15.2422C50.6788 15.5045 50.8333 15.7527 51.1143 15.7808C51.1283 15.7808 51.1424 15.7761 51.1564 15.7761C51.2454 16.0758 51.4468 16.2865 51.6996 16.3989C51.6622 16.53 51.6762 16.6986 51.7324 16.8297C51.5357 17.1435 51.4795 17.668 51.8589 17.874C51.8963 17.8928 51.9338 17.9021 51.9759 17.9162C51.9478 18.1831 52.0368 18.436 52.2101 18.6327C52.1679 18.7263 52.1305 18.8247 52.1305 18.909C52.1211 19.1618 52.2007 19.3819 52.3412 19.5552C52.2569 19.8643 52.3178 20.267 52.6503 20.3841C52.6643 20.3888 52.6784 20.3888 52.6924 20.3888C52.5707 20.6089 52.5379 20.8945 52.7112 21.0818C52.7018 21.1568 52.7018 21.2364 52.7065 21.3113C52.7252 21.508 52.8282 21.7374 52.9874 21.9014C52.9547 22.0278 52.9828 22.1917 53.0483 22.3181C52.9874 22.4446 52.9734 22.5851 52.9921 22.7349C52.9266 22.8145 52.8751 22.9082 52.8423 23.0112C52.8235 23.0768 52.8142 23.1517 52.8095 23.2266C52.7112 23.3999 52.669 23.6059 52.7018 23.8214C52.7065 23.8588 52.7158 23.901 52.7299 23.9431C52.7252 23.9572 52.7158 23.9665 52.7112 23.9806C52.7065 23.9946 52.7018 24.0087 52.6971 24.0274C52.6362 24.0742 52.5754 24.1257 52.5238 24.1866C52.3037 24.4442 52.1773 24.9406 52.4255 25.2215C52.3412 25.3995 52.3178 25.6009 52.3553 25.7975C52.2148 25.9849 52.1305 26.2705 52.2194 26.4906C52.2148 26.5187 52.2148 26.5515 52.2148 26.5796C52.2148 26.5796 52.2101 26.5796 52.2101 26.5843C52.0836 26.7201 52.0415 26.973 52.079 27.165C51.9244 27.1696 51.7699 27.2024 51.6669 27.2914C51.5264 27.4132 51.4421 27.652 51.4374 27.8627C51.3531 27.9751 51.3016 28.125 51.2922 28.2561C51.2454 28.2982 51.2033 28.3451 51.1705 28.3966C51.0253 28.4013 50.8895 28.434 50.7912 28.5136C50.6226 28.6494 50.5289 28.9492 50.5476 29.1786C50.4774 29.2535 50.4165 29.3425 50.3697 29.4409C50.3229 29.5345 50.2994 29.6469 50.2854 29.764C50.2714 29.8014 50.262 29.8389 50.2573 29.8811C50.1449 29.9513 50.0559 30.045 49.9904 30.1573C49.7843 30.1808 49.5783 30.2697 49.4799 30.4196C49.3441 30.6163 49.3535 30.9862 49.4706 31.1829C49.5408 31.3 49.6298 31.3936 49.7328 31.4639C49.8546 31.7589 50.1215 31.979 50.454 32.0633C50.5804 32.1757 50.7396 32.2506 50.9176 32.2834C50.9972 32.3583 51.0955 32.4145 51.2032 32.452C51.2548 32.5503 51.325 32.644 51.414 32.7236C51.4233 32.733 51.4327 32.7376 51.4468 32.747C51.4608 32.7751 51.4749 32.8032 51.4889 32.8219C51.6294 32.9952 51.812 33.0889 52.004 33.117C52.0274 33.1638 52.0555 33.2106 52.0836 33.2574C52.1211 33.309 52.1726 33.3605 52.2335 33.4073C52.3318 33.604 52.4911 33.7773 52.7065 33.8896C52.7627 33.9177 52.8282 33.9412 52.8985 33.9599C52.9219 33.9786 52.95 33.9973 52.9828 34.0067C53.0952 34.0489 53.2122 34.0348 53.3434 34.002C53.3902 34.077 53.4557 34.1472 53.5354 34.2034C53.6056 34.4001 53.7554 34.5734 53.9568 34.6857C53.9615 34.6904 53.9662 34.6904 53.9709 34.6904C54.0271 34.7794 54.102 34.859 54.191 34.9293C54.1956 34.9386 54.1956 34.9527 54.205 34.962C54.2237 34.9901 54.2472 35.0089 54.2706 35.0323C54.1535 35.2524 54.116 35.5427 54.294 35.7253C54.294 35.8518 54.3174 35.9829 54.3736 36.1047C54.2565 36.4278 54.2987 36.9008 54.6733 37.0272C54.6827 37.0319 54.692 37.0272 54.7014 37.0319C54.7295 37.074 54.7716 37.1021 54.8091 37.1349C54.7997 37.2613 54.8278 37.3831 54.884 37.4955C54.8372 37.6032 54.8044 37.7203 54.8044 37.8467C54.8044 37.8467 54.8044 37.8514 54.8044 37.8561C54.7576 37.9732 54.7389 38.0996 54.7529 38.2026C54.7763 38.3572 54.8372 38.493 54.9168 38.6053C54.9028 38.7505 54.9168 38.9004 54.973 39.0409C54.9262 39.2375 54.9355 39.4483 55.0058 39.6543C55.0152 39.6824 55.0292 39.7058 55.0386 39.7339C55.0339 39.7714 55.0245 39.8135 55.0245 39.851C55.0152 40.0196 55.0667 40.221 55.165 40.3895C55.1791 40.427 55.1884 40.4645 55.2072 40.5019C55.1556 40.619 55.1275 40.7501 55.1322 40.8906C55.1369 40.9328 55.1416 40.9796 55.1556 41.0264C55.1229 41.1388 55.1182 41.2559 55.1463 41.3683C55.0573 41.4853 55.0105 41.6305 55.0058 41.7897C54.9402 41.8647 54.8934 41.9771 54.8793 42.0894C54.7389 42.2252 54.6405 42.4453 54.6405 42.6139C54.6405 42.7123 54.6592 42.8013 54.692 42.8855C54.6499 42.9886 54.6312 43.0916 54.6312 43.1946C54.6031 43.218 54.5703 43.2321 54.5469 43.2602C54.4204 43.4288 54.4064 43.7378 54.486 43.9345C54.4298 44.1406 54.4485 44.3466 54.5328 44.5199C54.5281 44.5433 54.5234 44.5667 54.5188 44.5901C54.4064 44.6978 54.3268 44.8196 54.2799 44.9554C54.116 45.0069 53.9662 45.1006 53.8866 45.227C53.7789 45.4003 53.7742 45.6813 53.8397 45.9014C53.6712 46.0372 53.5353 46.2807 53.526 46.4773C53.5213 46.6225 53.5494 46.7536 53.6009 46.8754C53.5869 46.9269 53.5775 46.9831 53.5728 47.0393C53.5541 47.0533 53.5353 47.0674 53.5213 47.0814C53.4557 47.1564 53.4136 47.236 53.3855 47.3203C53.1513 47.3812 52.9172 47.517 52.8376 47.7136C52.7627 47.8963 52.7954 48.1632 52.8891 48.3599C52.8844 48.3693 52.8797 48.3786 52.8751 48.3927C52.861 48.4254 52.8516 48.4582 52.8423 48.491C52.7908 48.5472 52.7486 48.6034 52.7158 48.6736C52.6409 48.669 52.566 48.6783 52.5098 48.7064C52.4349 48.7439 52.374 48.8235 52.3225 48.9078C52.2148 48.9453 52.1117 49.0014 52.0509 49.0717C52.0321 49.0951 52.0181 49.1185 51.9993 49.1372C51.8027 49.1888 51.5966 49.3386 51.5123 49.4932C51.4749 49.5587 51.4514 49.629 51.4327 49.6992C51.2313 49.8303 51.0909 50.0364 51.0253 50.2799C51.0019 50.3127 50.9785 50.3454 50.9551 50.3782C50.9082 50.3782 50.8614 50.3735 50.8193 50.3876C50.7303 50.4157 50.646 50.4906 50.5757 50.5702C50.3931 50.6311 50.2105 50.7435 50.1215 50.8746C50.1215 50.8746 50.1168 50.8793 50.1168 50.884C49.9154 50.9636 49.7562 51.1041 49.6438 51.2727C49.4565 51.2399 49.2505 51.2539 49.11 51.3289C48.9554 51.4132 48.8431 51.5302 48.7588 51.6613C48.6464 51.6567 48.5433 51.6848 48.4544 51.7316C48.3279 51.6941 48.2015 51.6848 48.0938 51.7269C47.972 51.7737 47.8596 51.8908 47.7754 52.0219C47.7426 52.0266 47.7051 52.0219 47.677 52.0313C47.5974 52.0594 47.5178 52.1296 47.4522 52.2092C47.3164 52.1811 47.1806 52.1812 47.0776 52.2374C47.0214 52.2701 46.9699 52.3216 46.9277 52.3778C46.8528 52.3919 46.7779 52.4153 46.7076 52.4481C46.6468 52.4434 46.5859 52.4434 46.5344 52.4528C46.2628 52.509 46.052 52.6635 45.9209 52.8695C45.8741 52.8695 45.8272 52.8742 45.7804 52.8836C45.5931 52.7899 45.3777 52.7525 45.2091 52.818C45.092 52.8649 44.9843 52.9773 44.9 53.1084C44.8907 53.1131 44.8813 53.1131 44.8766 53.1177C44.7549 53.0709 44.6284 53.0615 44.5067 53.0756C44.4458 53.0615 44.3896 53.0334 44.3287 53.0054Z" fill="#FF8412"/>
<path d="M24.2343 24.1011C23.6629 23.3331 24.3232 21.3148 26.3275 21.399C28.3318 21.488 28.1632 23.2207 27.723 24.1011C27.3718 24.7989 25.6251 25.9743 24.2343 24.1011Z" fill="#494949"/>
<path d="M35.3843 25.4922C34.7568 24.7664 35.5061 22.4155 37.4776 22.7902C39.0745 23.0946 39.0417 24.1201 38.7841 25.0333C38.5219 25.9746 36.9297 27.2811 35.3843 25.4922Z" fill="#494949"/>
<path d="M27.3858 27.7029C27.0018 28.2789 28.2662 30.8217 30.3595 30.9716C31.6613 31.0653 32.42 30.7843 33.2348 30.4471C33.9372 30.1568 34.4758 29.1827 34.8036 28.499C35.1314 27.8153 33.5392 26.9021 31.0994 26.9162C28.786 26.9349 27.9993 26.7804 27.3858 27.7029Z" fill="#FFEA62"/>
<path d="M35.1548 28.1799C35.108 28.1003 35.0003 28.0441 34.8972 28.0207C34.916 27.9598 34.9253 27.9036 34.916 27.8474C34.8832 27.7116 34.724 27.5664 34.5929 27.5383C34.5741 27.5337 34.5554 27.5383 34.5367 27.5383C34.4992 27.4447 34.4336 27.3604 34.354 27.3323C34.3353 27.3089 34.3119 27.2855 34.2885 27.2667C34.2323 27.1918 34.1573 27.1216 34.073 27.042C33.956 26.9202 33.7031 26.8406 33.5345 26.9061C33.4549 26.8078 33.3472 26.7282 33.2348 26.7235C33.1739 26.7188 33.1131 26.7422 33.0475 26.7703C32.9726 26.761 32.893 26.7703 32.8321 26.7938C32.8133 26.8031 32.804 26.8172 32.7852 26.8265C32.7103 26.8078 32.6354 26.8078 32.5651 26.8265C32.5183 26.7797 32.4668 26.7376 32.4106 26.7282C32.3638 26.7235 32.3123 26.7329 32.2608 26.7516C32.2467 26.7469 32.2327 26.7376 32.2186 26.7376C32.1765 26.7282 32.1343 26.7329 32.0922 26.7376C32.0547 26.7095 32.0172 26.6814 31.9751 26.672C31.8908 26.6486 31.8159 26.6533 31.741 26.672C31.6894 26.6533 31.6332 26.6299 31.5724 26.6111C31.5255 26.5924 31.4693 26.5877 31.4085 26.5924C31.3851 26.583 31.3616 26.569 31.3335 26.5596C31.2914 26.5409 31.2446 26.5268 31.1931 26.5175C31.0807 26.4098 30.9121 26.3301 30.7716 26.3629C30.7201 26.3723 30.6732 26.4051 30.6264 26.4425C30.5187 26.4613 30.4204 26.5034 30.3454 26.569C30.3267 26.5596 30.308 26.5456 30.2892 26.5362C30.1113 26.4706 29.938 26.5128 29.8022 26.6158C29.7882 26.6158 29.7741 26.6158 29.7601 26.6158C29.7413 26.6064 29.7273 26.5924 29.7132 26.583C29.629 26.5502 29.5493 26.5456 29.4697 26.5549C29.362 26.4847 29.1841 26.4659 29.0764 26.5128C29.0295 26.5315 28.9921 26.5643 28.9593 26.5924C28.8984 26.569 28.8282 26.5596 28.7579 26.5643C28.7064 26.5549 28.6549 26.5502 28.5987 26.5456C28.5097 26.5315 28.402 26.5502 28.3037 26.5924C28.2756 26.5877 28.2475 26.583 28.2194 26.5877C28.1491 26.6018 28.0789 26.6486 28.018 26.7095C27.8682 26.7282 27.6949 26.878 27.6434 27.0185C27.6387 27.0373 27.6387 27.0513 27.634 27.07C27.5778 27.1122 27.531 27.1637 27.5029 27.2246C27.3718 27.1637 27.2126 27.1403 27.1002 27.2012C26.9644 27.2714 26.8613 27.4821 26.8707 27.632C26.8801 27.8099 26.9644 27.9504 27.0861 28.0488C27.0861 28.0581 27.0814 28.0675 27.0814 28.0769C27.0861 28.1331 27.1049 28.1986 27.133 28.2595C27.058 28.3906 27.0768 28.6248 27.1611 28.7512C27.2032 28.8121 27.2547 28.8542 27.3062 28.8964C27.3015 28.9479 27.3109 28.9994 27.3296 29.0462C27.2688 29.2429 27.2969 29.5052 27.5076 29.5895C27.5591 29.6738 27.6387 29.7393 27.7324 29.7908C27.7511 29.8283 27.7745 29.8564 27.812 29.8798C27.826 29.8892 27.8448 29.8939 27.8635 29.8985C27.8775 30.039 27.9384 30.1748 28.0836 30.2123C28.1772 30.2404 28.2709 30.217 28.3739 30.1795C28.3973 30.1982 28.4114 30.2217 28.4395 30.2404C28.477 30.2638 28.5191 30.2779 28.5659 30.2919C28.6174 30.3387 28.6783 30.3762 28.7439 30.3949C28.8048 30.5541 28.9687 30.7134 29.1466 30.6478C29.1794 30.6665 29.2122 30.6806 29.2496 30.6899C29.2637 30.7087 29.2684 30.7274 29.2871 30.7415C29.348 30.7883 29.4323 30.793 29.5259 30.793C29.5259 30.7977 29.5306 30.7977 29.5306 30.8023C29.554 30.8304 29.5821 30.8445 29.6055 30.8632C29.6664 31.0693 29.835 31.2191 30.0598 31.2659C30.1066 31.2753 30.1534 31.2753 30.205 31.2753C30.2424 31.2894 30.2799 31.2987 30.3173 31.3034C30.3782 31.3783 30.4625 31.4252 30.5655 31.4111C30.6311 31.4018 30.6873 31.3737 30.7388 31.3315C30.8652 31.4064 31.0151 31.4345 31.1369 31.3362C31.1696 31.3081 31.1977 31.2706 31.2165 31.2285C31.2212 31.2285 31.2211 31.2332 31.2258 31.2332C31.3616 31.2706 31.5068 31.2051 31.6707 31.1301C31.7175 31.1114 31.7644 31.0786 31.8065 31.0412C31.8159 31.0365 31.8252 31.0318 31.8346 31.0318C31.9236 31.0786 32.0219 31.1114 32.1296 31.1067C32.2654 31.102 32.4293 31.0271 32.5183 30.91C32.5417 30.9007 32.5605 30.896 32.5792 30.8866C32.5886 30.8866 32.5932 30.896 32.6026 30.896C32.6729 30.91 32.7525 30.896 32.8274 30.8679C32.9585 30.9147 33.1552 30.896 33.2442 30.7696C33.3519 30.7602 33.469 30.7134 33.5954 30.6619C33.7359 30.615 33.8857 30.4558 33.9279 30.2966C33.9326 30.2919 33.9372 30.2919 33.9466 30.2872C34.0403 30.2217 34.0871 30.1093 34.1292 29.9781C34.1339 29.9781 34.1386 29.9781 34.148 29.9735C34.2744 29.9313 34.4149 29.8142 34.4664 29.6738C34.4711 29.6691 34.4805 29.6597 34.4851 29.655C34.5788 29.5754 34.6491 29.4256 34.6631 29.2804C34.6631 29.2757 34.6678 29.2757 34.6678 29.271C34.6912 29.2617 34.7193 29.257 34.7427 29.2429C34.8411 29.2476 34.9394 29.2242 35.0143 29.1399C35.1173 29.0228 35.122 28.8449 35.1267 28.6435C35.1267 28.6248 35.122 28.606 35.122 28.5873C35.1923 28.4656 35.2204 28.2876 35.1548 28.1799ZM32.6354 30.1982C32.5792 30.1795 32.5183 30.1701 32.4715 30.1889C32.434 30.2029 32.3966 30.231 32.3638 30.2685C32.3076 30.2498 32.2514 30.2451 32.1999 30.2544C32.0641 30.1748 31.8627 30.1374 31.7363 30.217C31.6894 30.2451 31.652 30.2966 31.6192 30.3528C31.474 30.3247 31.3382 30.3575 31.2258 30.4418C31.2071 30.4418 31.1884 30.4418 31.165 30.4464C31.1509 30.4371 31.1415 30.4183 31.1275 30.4137C31.0104 30.3481 30.7997 30.3668 30.692 30.4464C30.6732 30.4605 30.6639 30.4792 30.6452 30.4933C30.5749 30.4979 30.5093 30.5214 30.4531 30.5495C30.4391 30.5307 30.4251 30.512 30.411 30.4886C30.3127 30.3387 30.0598 30.1982 29.8818 30.2591C29.8678 30.2638 29.8584 30.2732 29.8444 30.2779C29.7929 30.231 29.732 30.2076 29.6711 30.1982C29.6477 30.1655 29.6243 30.1327 29.5962 30.0952C29.5681 30.0531 29.5212 30.0109 29.4651 29.9781C29.4557 29.936 29.437 29.8985 29.4089 29.8704C29.3386 29.7955 29.1981 29.758 29.0857 29.7674C29.067 29.7534 29.0483 29.7346 29.0249 29.7206C28.9874 29.6878 28.9312 29.6644 28.875 29.6457C28.8656 29.6269 28.8516 29.6129 28.8422 29.5988C28.8001 29.4771 28.6877 29.36 28.58 29.3179C28.5097 29.2944 28.4395 29.2804 28.3739 29.2851C28.3646 29.2663 28.3552 29.2476 28.3458 29.2289C28.3739 29.1727 28.3973 29.1165 28.3927 29.0556C28.388 28.9245 28.285 28.7746 28.1679 28.6997C28.2475 28.5639 28.2756 28.4047 28.1726 28.2736C28.1164 28.1986 28.0321 28.1612 27.9291 28.1284C27.9103 28.105 27.8916 28.0862 27.8682 28.0628C27.8775 28.0441 27.8822 28.0207 27.8869 27.9973C27.9056 27.9739 27.9244 27.9458 27.9384 27.9177C27.9993 27.8896 28.0508 27.8427 28.093 27.7819C28.2803 27.8146 28.5004 27.7678 28.5847 27.5945C28.7205 27.5618 28.8375 27.4775 28.861 27.3323C28.8703 27.3323 28.8844 27.3276 28.8984 27.3276C29.0014 27.4447 29.1607 27.5243 29.3058 27.4447C29.3386 27.4306 29.362 27.4072 29.3854 27.3838C29.4651 27.3698 29.5447 27.337 29.6383 27.3042C29.643 27.3042 29.643 27.2995 29.6477 27.2995C29.6851 27.351 29.732 27.3885 29.7975 27.4072C29.9287 27.4447 30.0692 27.3838 30.2284 27.3136C30.2986 27.4259 30.4063 27.5102 30.5468 27.5009C30.6405 27.4915 30.7248 27.4447 30.8091 27.3791C30.8278 27.3838 30.8418 27.3979 30.8606 27.4025C31.0011 27.4447 31.1977 27.4306 31.3335 27.337C31.3663 27.351 31.4038 27.3557 31.4412 27.3604C31.4787 27.4119 31.5209 27.454 31.5911 27.4681C31.6613 27.4821 31.7269 27.4681 31.8018 27.44C31.8346 27.4728 31.8768 27.4915 31.9283 27.5009C32.0079 27.5102 32.0875 27.4775 32.1718 27.4353C32.1811 27.44 32.1811 27.4494 32.1905 27.454C32.1999 27.4587 32.2139 27.4634 32.2233 27.4728C32.2373 27.4868 32.2467 27.5009 32.2608 27.5149C32.3544 27.5899 32.4809 27.5945 32.626 27.5945C32.7244 27.7303 32.893 27.8334 33.0569 27.7631C33.1318 27.8053 33.2208 27.8287 33.3144 27.8334C33.3191 27.8334 33.3191 27.838 33.3238 27.838C33.3332 27.838 33.3472 27.838 33.3566 27.838C33.3753 27.838 33.3893 27.838 33.4081 27.838C33.4596 27.8334 33.5064 27.8146 33.5579 27.7912H33.5626C33.6563 27.8474 33.7546 27.8849 33.8717 27.8849C33.8811 27.8849 33.8951 27.8849 33.9045 27.8802C33.9138 27.9083 33.9372 27.9317 33.9513 27.9598C33.9091 28.1612 33.9841 28.4468 34.2182 28.4796C34.2276 28.4796 34.2323 28.4796 34.2416 28.4796C34.2323 28.5124 34.2229 28.5499 34.2182 28.5873C34.1714 28.6248 34.1292 28.6669 34.0918 28.7231C34.0684 28.7606 34.045 28.8121 34.0309 28.8589C33.8857 28.9058 33.778 29.0041 33.7078 29.1352C33.6375 29.1539 33.572 29.1774 33.5251 29.2289C33.4643 29.2944 33.4362 29.4115 33.4362 29.5145C33.3847 29.5895 33.3566 29.6784 33.3519 29.7721C33.3285 29.7861 33.3051 29.7955 33.2863 29.8142C33.1458 29.8611 33.0241 29.9547 32.9491 30.0952C32.907 30.0765 32.8602 30.0671 32.8227 30.0765C32.7571 30.0952 32.6869 30.142 32.6354 30.1982Z" fill="#494949"/>
<path d="M16.7463 1.16491C16.6151 0.972906 16.3623 0.89798 16.0719 0.813687C15.819 0.720028 15.3835 0.790272 15.2196 1.01974C15.0932 1.20705 15.0932 1.55359 15.2056 1.74559C15.2103 1.75495 15.2149 1.75964 15.2196 1.769C15.1962 1.81115 15.1775 1.85798 15.1634 1.90481C15.1634 1.91417 15.1587 1.92354 15.1587 1.92822C15.0698 2.02188 15.0042 2.13895 14.9667 2.26539C14.9386 2.27944 14.9059 2.28413 14.8824 2.30286C14.7139 2.44803 14.6249 2.78052 14.6811 2.99125C14.6904 3.02871 14.7045 3.06149 14.7185 3.09427C14.6436 3.23008 14.6015 3.38461 14.6015 3.54852C14.5546 3.56256 14.5125 3.57661 14.475 3.60003C14.2596 3.73115 14.1098 4.08705 14.1332 4.33056C14.1425 4.40549 14.1566 4.47573 14.18 4.5413C14.1191 4.64432 14.077 4.75671 14.0536 4.87847C14.0348 4.97681 14.0348 5.0892 14.0536 5.19691C13.988 5.23437 13.9224 5.2812 13.8663 5.33271C13.6415 5.53408 13.4729 5.92276 13.5525 6.23183C13.5478 6.29271 13.5572 6.35359 13.5665 6.41447C13.4963 6.56432 13.4776 6.761 13.515 6.91554C13.412 7.145 13.4167 7.38852 13.5057 7.60393C13.5057 7.60861 13.5057 7.6133 13.501 7.61798C13.3277 7.67417 13.1685 7.77252 13.0889 7.913C12.9718 8.12842 13.014 8.50774 13.1591 8.69974C13.1732 8.71378 13.1872 8.72783 13.1966 8.74188C12.9952 8.94793 12.8969 9.24764 12.9344 9.55671C12.9765 9.92666 13.323 10.4043 13.7539 10.2826C14.0021 10.2123 14.166 9.97349 14.3533 9.70188C14.5078 9.50988 14.5781 9.15398 14.4938 8.89174C14.7607 8.69974 14.9855 8.28764 14.8122 7.97388C14.8216 7.96452 14.8309 7.95515 14.8356 7.94578C14.934 7.77252 14.9199 7.56178 14.8824 7.32295C15.0885 7.15437 15.229 6.89681 15.1025 6.64393C15.1025 6.64393 15.1025 6.64393 15.1025 6.63925C15.1213 6.61115 15.1353 6.58773 15.1494 6.55495C15.3273 6.4613 15.4772 6.32081 15.5287 6.15691C15.5989 5.94149 15.5193 5.63242 15.3788 5.42637C15.51 5.33271 15.627 5.16881 15.6926 4.99086C15.8752 4.85505 15.997 4.66305 15.9548 4.42422C15.9314 4.2931 15.8612 4.18071 15.7628 4.073C15.805 3.99808 15.8331 3.91847 15.8284 3.83886C15.8331 3.83417 15.8378 3.82949 15.8378 3.82481C15.9267 3.73583 15.997 3.59534 16.0391 3.45017C16.2405 3.305 16.381 3.08022 16.292 2.83203C16.278 2.79456 16.2545 2.76178 16.2358 2.729C16.3201 2.59788 16.3623 2.40588 16.3529 2.22793C16.3997 2.16237 16.4372 2.08744 16.4606 2.01251C16.7322 1.82988 16.9476 1.45993 16.7463 1.16491Z" fill="#494949"/>
<path d="M11.7168 13.593C11.286 13.0124 11.7824 11.4951 13.2903 11.5607C14.7982 11.6262 14.6718 12.9328 14.3393 13.593C14.0817 14.1175 12.7705 15.0026 11.7168 13.593Z" fill="#494949"/>
</svg>
