<svg width="233" height="47" viewBox="0 0 233 47" fill="none" xmlns="http://www.w3.org/2000/svg">
<path d="M29.1721 12.451C28.8343 10.8108 28.1821 9.39264 27.227 8.20875C26.272 7.02486 24.9559 6.12461 23.3253 5.52034C21.6948 4.91606 19.7032 4.74341 17.3505 5.01472C12.4239 5.52034 7.31096 6.08762 2 6.74122L2.67552 41.4193L12.8199 42.5292L12.983 34.5379C15.3356 34.0693 17.4437 33.2554 19.3305 32.1208C21.2173 30.9863 22.8478 29.6297 24.2338 28.0759C25.6198 26.522 26.7262 24.8325 27.5648 23.0197C28.4034 21.1945 28.9624 19.394 29.2419 17.6059C29.5331 15.8054 29.5098 14.0912 29.1721 12.451ZM18.0144 18.8144C17.9562 19.0857 17.7931 19.4433 17.5136 19.8996C17.2341 20.3559 16.8381 20.8369 16.3372 21.3425C15.8364 21.8481 15.2075 22.3167 14.4738 22.7607C13.7284 23.2047 12.8548 23.55 11.8532 23.7843L12.2725 16.6809C13.6119 16.1137 14.6834 15.83 15.4754 15.8177C16.2674 15.8054 16.8497 15.941 17.2108 16.2123C17.5718 16.496 17.8164 16.8413 17.9212 17.2606C18.0377 17.6799 18.0726 18.0252 18.0493 18.3211C18.0377 18.6294 18.0144 18.7897 18.0144 18.8144Z" fill="#FF8412"/>
<path d="M61.5852 10.6011C61.1077 9.66385 60.3972 8.71427 59.4655 7.78936C58.5337 6.86445 57.3923 6.06285 56.0529 5.40925C54.7136 4.75565 53.2111 4.33635 51.5456 4.13904C49.8801 3.94172 48.0982 4.10204 46.1997 4.60766C44.1848 5.17494 42.298 5.98886 40.5161 7.04943C38.7458 8.10999 37.1385 9.38021 35.7176 10.8477C34.2967 12.3153 33.0737 13.9431 32.0721 15.7559C31.0705 17.5564 30.3367 19.4803 29.8942 21.5027C29.4516 23.5252 29.3118 25.634 29.4982 27.8291C29.6845 30.0243 30.2436 32.2194 31.1986 34.4392C32.0372 36.4246 33.132 38.0402 34.4714 39.2734C35.8108 40.5189 37.2899 41.4438 38.8972 42.0481C40.5044 42.6524 42.1816 42.973 43.9286 42.9977C45.6756 43.0224 47.3761 42.8374 49.0183 42.4181C50.6721 41.9988 52.2095 41.3945 53.6537 40.5929C55.0979 39.7913 56.3208 38.8664 57.3225 37.7935C59.3606 35.5737 60.898 33.2429 61.9346 30.8012C62.9712 28.3594 63.6001 25.9423 63.8447 23.5375C64.0893 21.1328 63.9844 18.8266 63.5535 16.5945C63.0993 14.3871 62.4471 12.3769 61.5852 10.6011ZM52.4191 22.9949C52.3493 23.8212 52.1513 24.7338 51.8368 25.7203C51.5107 26.7069 51.0099 27.7798 50.3111 28.939C49.8335 29.7036 49.2512 30.3819 48.5524 30.9615C47.8536 31.5411 47.1082 31.9727 46.3045 32.2687C45.5126 32.5647 44.7089 32.688 43.8937 32.651C43.0784 32.614 42.3679 32.3674 41.739 31.9357C41.1101 31.5041 40.5976 30.8505 40.19 29.9626C39.7823 29.0747 39.596 27.9154 39.6193 26.4973C39.6193 24.9927 39.8638 23.6115 40.353 22.366C40.8422 21.1204 41.4595 20.0599 42.2165 19.1966C42.9736 18.321 43.8121 17.6428 44.7322 17.1495C45.6523 16.6562 46.5608 16.3849 47.4576 16.3232C48.3544 16.2616 49.1813 16.4465 49.95 16.8535C50.7187 17.2605 51.3127 17.9511 51.732 18.9006C51.9882 19.4309 52.1746 20.0352 52.3143 20.7258C52.4541 21.4164 52.489 22.1687 52.4191 22.9949Z" fill="#FF8412"/>
<path d="M169.272 19.5545C169.004 18.2966 168.55 17.1004 167.897 15.9782C167.245 14.8559 166.488 13.8447 165.626 12.9444C164.764 12.0442 163.833 11.2919 162.831 10.6753C161.829 10.0587 160.828 9.63942 159.838 9.39278C158.219 9.03515 156.682 8.89949 155.226 8.99815C155.214 8.99815 155.214 8.98582 155.202 8.98582C154.119 8.01158 152.943 7.20999 151.662 6.58105C150.381 5.95211 149.041 5.53281 147.655 5.3355C146.269 5.13818 144.837 5.18751 143.381 5.47115C141.925 5.75479 140.481 6.3344 139.06 7.19766C137.79 7.96225 136.777 8.89949 136.043 9.98472C135.298 11.0823 134.786 12.2538 134.483 13.4994C134.192 14.7449 134.087 16.0275 134.192 17.347C134.296 18.6666 134.541 19.9244 134.925 21.133C135.321 22.3416 135.834 23.4638 136.463 24.4873C136.474 24.512 136.498 24.5367 136.509 24.5613C136.428 24.845 136.346 25.141 136.288 25.4369C135.973 26.8798 135.869 28.3843 136.008 29.9505C136.137 31.5167 136.544 33.0829 137.22 34.6737C137.814 36.0919 138.594 37.2388 139.549 38.1267C140.504 39.0146 141.552 39.6682 142.705 40.0999C143.847 40.5315 145.046 40.7535 146.293 40.7781C147.539 40.8028 148.75 40.6671 149.926 40.3712C151.103 40.0752 152.209 39.6436 153.234 39.0763C154.259 38.509 155.133 37.8431 155.855 37.0785C156.833 36.0179 157.625 34.9204 158.277 33.7858C159.197 33.6625 160.106 33.4405 160.979 33.1199C162.307 32.6389 163.553 31.9113 164.73 30.9617C165.906 30.0122 166.954 28.8159 167.851 27.3607C168.666 26.0659 169.167 24.7587 169.365 23.4268C169.575 22.1072 169.54 20.8124 169.272 19.5545Z" fill="#FFEB62"/>
<path d="M91.634 8.20863C90.6673 7.02474 89.3745 6.12449 87.7323 5.52021C86.1018 4.91594 84.1101 4.74329 81.7575 5.0146C76.8425 5.52021 71.7296 6.08749 66.4186 6.7411L67.0941 41.4191L77.2385 42.529L77.4016 34.5378C79.7542 34.0692 81.8623 33.2552 83.7491 32.1207C85.6359 30.9861 87.2664 29.6296 88.6524 28.0757C90.0384 26.5219 91.1448 24.8324 91.9834 23.0196C92.822 21.1944 93.381 19.3939 93.6605 17.6057C93.9401 15.8176 93.9168 14.1034 93.579 12.4509C93.2413 10.7984 92.6007 9.39251 91.634 8.20863ZM82.433 18.8143C82.3748 19.0856 82.2117 19.4432 81.9322 19.8995C81.6527 20.3558 81.2567 20.8368 80.7559 21.3424C80.255 21.848 79.6261 22.3166 78.8924 22.7606C78.147 23.2045 77.2735 23.5498 76.2718 23.7841L76.6911 16.6808C78.0305 16.1135 79.102 15.8299 79.894 15.8176C80.686 15.8052 81.2683 15.9409 81.6294 16.2122C81.9904 16.4958 82.235 16.8411 82.3398 17.2604C82.4563 17.6797 82.4912 18.025 82.4679 18.321C82.4446 18.6293 82.433 18.7896 82.433 18.8143Z" fill="#FF8412"/>
<path d="M119.959 29.9134C118.492 30.4437 117.327 30.5053 116.477 30.0861C115.627 29.6668 114.963 29.0255 114.508 28.1499C114.043 27.2743 113.751 26.4851 113.623 25.7698C113.495 25.0545 113.437 24.6722 113.437 24.6106C113.716 23.3034 114.019 22.2551 114.357 21.4412C114.695 20.6273 115.137 19.8257 115.696 19.0488C116.255 18.2595 116.943 17.7416 117.77 17.4949C118.596 17.2483 119.575 17.3593 120.705 17.8279C121.834 18.2965 123.162 19.3817 124.664 21.0712L132.002 11.5261C130.325 9.39268 128.636 7.77717 126.947 6.69194C125.258 5.60671 123.64 4.85445 122.079 4.44749C120.518 4.04053 119.086 3.9172 117.758 4.05286C116.43 4.18851 115.277 4.41049 114.299 4.71879C113.32 5.0271 112.272 5.50805 111.154 6.16166C109.838 7.07424 108.545 8.30745 107.276 9.84897C106.006 11.3905 104.9 13.117 103.968 15.0408C103.036 16.9646 102.303 19.0241 101.79 21.2069C101.278 23.402 101.115 25.5848 101.313 27.7799C101.511 29.9751 102.105 32.0962 103.118 34.168C104.131 36.2398 105.68 38.139 107.777 39.8531C109.232 41.037 110.816 41.8633 112.54 42.3442C114.264 42.8128 116.011 43.0102 117.781 42.9485C119.552 42.8745 121.299 42.5909 122.999 42.1099C124.699 41.6166 126.272 41.0124 127.693 40.2724C129.114 39.5325 130.348 38.7186 131.385 37.8307C132.421 36.9427 133.143 36.0672 133.563 35.2162L125.387 25.9794C123.244 28.0636 121.427 29.3831 119.959 29.9134Z" fill="#FF8412"/>
<path d="M194.871 24.4131C196.199 22.6373 197.166 20.8121 197.783 18.9253C198.4 17.0508 198.645 15.2133 198.517 13.4251C198.389 11.637 197.876 10.0708 196.968 8.71426C196.059 7.37005 194.732 6.33415 192.985 5.63122C191.238 4.91595 189.048 4.71864 186.428 5.01461C181.513 5.52023 176.388 6.09984 171.077 6.74111L171.753 41.4192L181.897 42.529L182.025 34.9324L192.216 42.8744L198.715 35.1051L189.957 29.0253C191.902 27.7305 193.544 26.1889 194.871 24.4131ZM187.091 18.8143C187.033 19.0856 186.87 19.4432 186.614 19.8995C186.346 20.3558 185.962 20.8368 185.461 21.3424C184.96 21.848 184.331 22.3166 183.597 22.7606C182.852 23.2045 181.978 23.5499 180.977 23.7842L181.396 16.6808C182.736 16.1136 183.795 15.8299 184.587 15.8176C185.368 15.8053 185.95 15.9409 186.323 16.2122C186.695 16.4959 186.94 16.8412 187.033 17.2604C187.126 17.6797 187.161 18.025 187.138 18.321C187.103 18.6293 187.091 18.7896 187.091 18.8143Z" fill="#FF8412"/>
<path d="M231 5.54514L218.503 4.65723L218.13 19.3572L202.104 5.27383L201.568 42.221L213.6 41.4194L213.006 30.9371L229.067 39.4216L231 5.54514Z" fill="#FF8412"/>
<path d="M142.356 23.4021C141.517 23.0568 141.051 21.0096 142.682 20.0354C144.313 19.0611 145.035 20.6027 145.128 21.5769C145.186 22.3415 144.382 24.2406 142.356 23.4021Z" fill="#FF8412"/>
<path d="M151.895 18.728C151.033 18.4444 150.474 16.0766 152.221 15.3613C153.642 14.7817 154.119 15.6573 154.364 16.5576C154.62 17.4948 154.003 19.4186 151.895 18.728Z" fill="#FF8412"/>
<path d="M153.572 23.1552C153.467 22.8716 153.199 22.5509 152.92 22.5263C152.908 22.5263 152.896 22.5263 152.885 22.5263C152.85 22.4276 152.78 22.3413 152.687 22.2796C152.628 22.2426 152.57 22.218 152.512 22.2056V22.1933C152.477 22.1316 152.43 22.07 152.372 22.0207C152.372 21.9343 152.349 21.8603 152.291 21.7863C152.256 21.7493 152.221 21.7123 152.174 21.6754C152.174 21.6507 152.174 21.6384 152.174 21.6137C152.186 21.5027 152.163 21.367 152.128 21.2314C152.139 21.1451 152.139 21.0464 152.093 20.9601C151.999 20.7628 151.79 20.6518 151.545 20.5285C151.336 20.4051 150.94 20.4051 150.765 20.6025C150.625 20.7504 150.579 21.0834 150.648 21.2807C150.683 21.3917 150.742 21.478 150.812 21.552C150.8 21.7617 150.858 21.9713 150.986 22.144C150.998 22.218 151.021 22.292 151.056 22.3536C151.091 22.4029 151.126 22.4523 151.161 22.4893C151.149 22.5386 151.138 22.6003 151.138 22.6619C151.138 22.7483 151.149 22.8469 151.173 22.9456C151.056 22.9949 150.94 23.0689 150.87 23.1675C150.835 23.1799 150.8 23.1922 150.765 23.2045C150.683 23.2539 150.602 23.3525 150.555 23.4635C150.334 23.5868 150.171 23.7965 150.113 24.0555C149.903 24.0061 149.647 24.0308 149.472 24.1418C149.367 24.1788 149.262 24.2404 149.181 24.3144C148.936 24.2158 148.657 24.3268 148.342 24.4501C148.296 24.4624 148.238 24.4871 148.191 24.5241C148.156 24.4871 148.121 24.4378 148.075 24.4254C147.911 24.2898 147.679 24.2404 147.411 24.1911C147.119 24.1048 146.654 24.2281 146.491 24.5241C146.362 24.7584 146.397 25.153 146.537 25.3627C146.747 25.671 147.05 25.8066 147.364 25.7943C147.562 26.0039 147.911 26.1519 148.156 25.9423C148.168 25.9423 148.168 25.9546 148.179 25.9546C148.505 26.1149 148.843 26.0533 149.111 25.856C149.123 25.856 149.123 25.856 149.134 25.856C149.274 25.9916 149.437 26.0779 149.635 26.0286C149.81 25.9793 149.95 25.856 150.078 25.6833C150.183 25.6833 150.299 25.6833 150.404 25.6463C150.637 25.5723 150.893 25.3627 150.986 25.1037C151.149 24.9927 151.266 24.8077 151.405 24.5981C151.417 24.5734 151.44 24.5487 151.452 24.5241C151.662 24.4624 151.871 24.3021 151.906 24.0801C151.93 24.0678 151.953 24.0555 151.965 24.0431C151.976 24.0308 151.988 24.0308 151.999 24.0185C152.069 24.0185 152.128 24.0185 152.186 23.9938C152.197 24.0061 152.209 24.0185 152.232 24.0308C152.302 24.1541 152.407 24.2528 152.524 24.3391C152.64 24.4254 152.78 24.4748 152.943 24.4994C153.176 24.5981 153.444 24.5857 153.677 24.4624C153.991 24.3021 154.306 23.8458 154.073 23.4758C153.979 23.3032 153.793 23.2169 153.572 23.1552Z" fill="#FF8412"/>
</svg>
