<svg width="164" height="164" viewBox="0 0 164 164" fill="none" xmlns="http://www.w3.org/2000/svg">
<path d="M79.1901 126.4C79.2201 126.05 79.0501 125.64 78.8101 125.31C78.8101 125.25 78.8201 125.2 78.8201 125.13C78.8401 124.96 78.8201 124.76 78.7801 124.56C78.9301 124.31 78.9901 124.03 78.8501 123.75C78.6701 123.39 78.2701 123.2 77.8001 122.98C77.7801 122.97 77.7401 122.96 77.7201 122.95C77.4601 122.45 76.9701 121.98 76.4701 121.95C76.1901 121.93 75.8701 122.04 75.5801 122.21C75.4401 122.2 75.3101 122.21 75.2001 122.24C75.0701 122.27 74.9501 122.32 74.8401 122.37C74.8301 122.36 74.8201 122.35 74.8101 122.35C74.4801 122.19 73.9401 122.28 73.6201 122.49C73.6101 122.49 73.6001 122.49 73.6001 122.48C73.4701 122.11 73.2401 121.79 72.9401 121.63C72.4601 121.38 71.6201 121.49 71.2001 121.82C71.1901 121.82 71.1901 121.83 71.1801 121.84C71.1701 121.84 71.1601 121.84 71.1401 121.84C70.9901 121.74 70.8401 121.65 70.6901 121.61C70.0701 121.44 69.4801 121.57 69.0001 121.88C68.8001 121.88 68.6201 121.92 68.4501 121.99C68.1101 121.66 67.4801 121.45 67.0101 121.6C66.7901 121.56 66.5601 121.57 66.3801 121.63C66.2901 121.66 66.2201 121.73 66.1401 121.77C65.8801 121.67 65.6101 121.65 65.3401 121.7C65.0601 121.38 64.6701 121.12 64.3001 121.13C64.1401 121.14 63.9701 121.21 63.8001 121.3C63.5101 121.25 63.2201 121.28 62.9401 121.36C62.9001 121.34 62.8501 121.32 62.8101 121.29C62.2701 120.97 61.2501 120.95 60.7801 121.42C60.7501 121.45 60.7201 121.51 60.6901 121.55C60.4101 121.32 60.0701 121.15 59.7601 121.2C59.7001 121.21 59.6501 121.24 59.5901 121.26C59.3801 121.2 59.1601 121.17 58.9901 121.2C58.8901 121.22 58.7901 121.25 58.7001 121.28C58.5201 121.24 58.3201 121.23 58.1001 121.22C57.9701 121.12 57.8401 121.05 57.7101 121.01C57.1101 120.81 56.5201 120.9 56.0501 121.18C55.8301 121.07 55.6001 121.02 55.3801 121.03C54.9901 120.74 54.3601 120.6 53.9401 120.71C53.8501 120.73 53.7701 120.77 53.6901 120.8C53.4401 120.86 53.2101 120.95 53.0501 121.12C52.9501 121.22 52.8701 121.35 52.8101 121.49C52.5501 121.86 52.4201 122.32 52.4301 122.8C52.2901 123.13 52.2501 123.49 52.3101 123.84C52.2001 123.99 52.1001 124.16 52.0201 124.35C51.9401 124.55 51.9001 124.78 51.8901 125.02C51.7301 125.47 51.7501 125.97 51.9101 126.43C51.8901 126.5 51.8701 126.58 51.8501 126.66C51.5401 126.62 51.1801 126.67 50.8801 126.82C50.7201 126.65 50.5401 126.52 50.3401 126.46C49.8801 126.32 49.2101 126.51 48.8001 126.82C48.6201 126.83 48.4501 126.87 48.3101 126.93C48.0501 127.04 47.8301 127.2 47.6501 127.38C47.6001 127.38 47.5501 127.37 47.5001 127.37C47.0801 127.4 46.6001 127.78 46.3801 128.17C46.1501 128.17 45.9201 128.2 45.7201 128.29C45.2201 128.18 44.5701 128.28 44.1901 128.62C43.9501 128.68 43.7201 128.86 43.5401 129.08C43.3101 129.04 43.0501 129.05 42.8001 129.12C42.5901 129.03 42.3801 128.98 42.1801 129.01C41.7701 129.07 41.3301 129.45 41.1301 129.84C40.7301 129.98 40.3901 130.25 40.1301 130.62C40.1001 130.62 40.0801 130.63 40.0501 130.64C39.8301 130.53 39.6001 130.47 39.3801 130.49C38.8701 130.55 38.2901 131.06 38.1301 131.53C38.1101 131.6 38.1001 131.67 38.0801 131.74C37.6501 131.7 37.1101 131.87 36.8401 132.15C36.7101 132.28 36.6201 132.43 36.5401 132.58C36.3001 132.64 36.0601 132.74 35.8501 132.9C35.7801 132.91 35.7201 132.91 35.6501 132.93C35.1201 133.08 34.5801 133.74 34.5001 134.27C34.4401 134.66 34.4801 135.02 34.6101 135.35C34.0901 135.52 33.5901 135.87 33.4401 136.33C33.3801 136.5 33.3801 136.71 33.4001 136.92C33.2201 137.3 33.1501 137.77 33.2401 138.12C33.2601 138.19 33.2901 138.25 33.3101 138.31C33.2501 138.47 33.2201 138.62 33.2201 138.76C33.2301 139.19 33.4001 139.56 33.6501 139.84C33.6501 140.24 33.8101 140.6 34.0801 140.86C34.0501 141.1 34.0901 141.35 34.1901 141.58C34.1201 141.71 34.0701 141.84 34.0301 141.99C33.8601 142.62 34.0801 143.58 34.7801 143.8C34.7001 144.16 34.8101 144.64 35.0401 144.89C35.0501 144.9 35.0601 144.91 35.0801 144.92C35.0701 145.16 35.1101 145.41 35.2001 145.58C35.5101 146.17 36.0801 146.46 36.6801 146.44C36.8101 146.6 36.9701 146.73 37.1601 146.84C37.3301 147.45 37.9201 148.13 38.6101 148C38.7501 148.07 38.9001 148.12 39.0601 148.15C39.2601 148.65 39.6701 149.1 40.2101 149.1C40.5201 149.3 40.8701 149.41 41.2301 149.43C41.2901 149.51 41.3601 149.59 41.4401 149.66C41.7101 149.92 42.1401 150.12 42.5601 150.18C42.7301 150.29 42.9001 150.38 43.1001 150.44C43.4001 150.54 43.7901 150.55 44.1401 150.47C44.4501 150.6 44.7901 150.61 45.0701 150.44C45.2101 150.48 45.3501 150.5 45.5101 150.46C45.5701 150.44 45.6301 150.41 45.6901 150.38C45.9601 150.55 46.2601 150.67 46.5901 150.72C47.0701 150.8 47.6901 150.67 48.1301 150.35C48.5801 150.51 49.0901 150.5 49.5701 150.31C49.6701 150.27 49.7601 150.22 49.8601 150.16C49.9201 150.16 49.9801 150.17 50.0401 150.16C50.3901 150.37 50.8001 150.46 51.2301 150.43C51.5601 150.72 51.9901 150.87 52.4101 150.67C52.5601 150.6 52.6801 150.49 52.7901 150.36C53.0601 150.47 53.4001 150.51 53.7201 150.46C53.8101 150.5 53.8901 150.54 53.9801 150.56C54.3201 150.66 54.7701 150.66 55.1601 150.53L55.1701 150.54C55.5201 150.7 55.9201 150.66 56.3601 150.56C56.8001 150.66 57.3201 150.58 57.9001 150.47C58.2501 150.43 58.6601 150.24 58.9901 149.97C59.2201 149.94 59.4601 149.87 59.6401 149.74C59.9901 149.84 60.4001 149.84 60.8601 149.82C61.2901 149.84 61.8601 149.61 62.2101 149.26C62.3601 149.49 62.5601 149.67 62.8501 149.76C63.2801 149.89 63.7401 149.77 64.2401 149.58C64.3801 149.64 64.5301 149.68 64.7101 149.66C65.0801 149.63 65.4001 149.43 65.7201 149.15C65.7801 149.17 65.8301 149.2 65.8901 149.22C66.0801 149.27 66.2901 149.29 66.5001 149.28C66.7901 149.44 67.1201 149.5 67.4601 149.36C67.7101 149.26 67.9101 149.08 68.0901 148.85C68.6601 149.02 69.3301 148.95 69.6201 148.39C69.6401 148.34 69.6501 148.29 69.6701 148.24C69.7101 148.23 69.7601 148.21 69.8001 148.19C70.0701 148.28 70.3701 148.32 70.6701 148.3C71.3101 148.26 72.1201 147.82 72.3401 147.16C72.5701 147.17 72.8001 147.12 72.9901 146.94C73.0201 146.91 73.0401 146.87 73.0701 146.83C73.8901 147 75.0601 146.68 75.1801 145.71C75.2001 145.53 75.1701 145.35 75.1201 145.17C75.3401 144.98 75.4901 144.75 75.5301 144.48C75.6601 144.21 75.7501 143.89 75.8501 143.54C75.9001 143.4 75.9301 143.24 75.9401 143.07C76.0501 142.94 76.1201 142.79 76.1301 142.6C76.1301 142.56 76.1201 142.52 76.1101 142.48C76.2301 142.34 76.3401 142.18 76.4601 142.02C76.5101 141.96 76.5501 141.87 76.5901 141.79C77.2301 141.52 77.8001 140.94 77.6401 140.22C77.5701 139.91 77.3701 139.65 77.1201 139.4C77.2201 139.17 77.2501 138.93 77.2101 138.72C77.3101 138.58 77.3901 138.44 77.4101 138.28C77.4301 138.15 77.4101 138 77.3601 137.85C77.4101 137.53 77.4001 137.17 77.3801 136.78C77.7801 136.37 78.0201 135.75 77.7301 135.25C77.9601 134.82 77.9901 134.27 78.0001 133.63C78.0001 133.6 78.0001 133.57 78.0001 133.54C78.1601 133.33 78.2601 133.08 78.2201 132.79C78.1801 132.53 78.0401 132.3 77.8501 132.08C77.8501 131.91 77.8201 131.73 77.7701 131.54C77.8101 131.49 77.8501 131.43 77.8801 131.36C77.9801 131.11 77.9501 130.83 77.8801 130.52C78.0201 130.23 78.0601 129.86 78.1001 129.45C78.1401 129.24 78.1001 128.98 78.0201 128.73C78.0501 128.67 78.0801 128.6 78.1101 128.53C78.1901 128.48 78.2701 128.43 78.3401 128.37C78.7501 128.03 79.0801 127.38 79.0401 126.8C79.1201 126.73 79.1801 126.57 79.1901 126.4Z" fill="#FF8412"/>
<path d="M78.9801 100.43L56.5501 98.98L54.0701 122.58C60.6801 122.41 71.8701 123.19 77.4101 124.08L78.9801 100.43Z" fill="#FFEA62"/>
<path d="M80.34 105.79C80.46 105.5 80.4701 105.19 80.3001 104.9C80.2201 104.77 80.12 104.67 80 104.59C80 104.58 80.01 104.56 80.01 104.55C80.39 104.31 80.72 103.94 80.78 103.55C80.82 103.29 80.75 102.98 80.61 102.69C80.76 102.41 80.82 102.09 80.71 101.79C80.71 101.41 80.6 100.98 80.46 100.52C80.41 100.3 80.29 100.06 80.13 99.84C80.02 99.47 79.7901 99.12 79.4801 99C79.1801 98.89 78.74 98.97 78.4401 99.15C78.3101 99.13 78.16 99.12 78.01 99.12C77.9601 99.04 77.91 98.96 77.85 98.91C77.63 98.74 77.28 98.67 76.96 98.68C76.56 98.37 75.8201 98.28 75.3701 98.47C75.2801 98.51 75.21 98.55 75.13 98.6C74.99 98.52 74.84 98.46 74.6901 98.45C74.5601 98.44 74.43 98.47 74.29 98.52C74.1 98.37 73.89 98.26 73.68 98.24C73.44 98.22 73.1601 98.3 72.9101 98.44C72.4401 98.22 71.82 98.16 71.42 98.4C71.1 98.32 70.76 98.32 70.51 98.46C70.5 98.47 70.4901 98.48 70.4801 98.48C70.4001 98.48 70.32 98.49 70.25 98.5C70.2 98.47 70.15 98.43 70.1 98.41C69.91 98.33 69.72 98.3 69.53 98.29C69.21 98.05 68.8 97.88 68.47 97.88C68.32 97.88 68.17 97.9 68.04 97.93C68.01 97.91 67.99 97.89 67.96 97.87C67.5 97.62 66.7 97.71 66.29 98.01C66.25 98.04 66.22 98.08 66.18 98.11C66.04 98.11 65.89 98.13 65.74 98.18C65.66 98.14 65.58 98.1 65.51 98.08C65.12 97.99 64.75 98.04 64.43 98.19C64.27 98.15 64.1 98.12 63.92 98.08C63.88 98.07 63.84 98.08 63.8 98.07C63.6901 97.92 63.55 97.79 63.39 97.72C63.09 97.59 62.6501 97.62 62.3 97.76C62.29 97.76 62.29 97.75 62.28 97.75C61.99 97.69 61.72 97.71 61.47 97.77C61.46 97.77 61.45 97.76 61.44 97.75C60.91 97.56 60.39 97.61 59.95 97.83C59.58 97.62 59.01 97.56 58.57 97.71C58.35 97.62 58.12 97.57 57.92 97.63C57.89 97.64 57.86 97.66 57.82 97.68C57.4 97.43 56.81 97.3 56.42 97.51C56.19 97.63 55.99 97.9 55.87 98.18C55.61 98.38 55.42 98.66 55.32 98.97C55.28 99.01 55.23 99.05 55.2 99.09C54.85 99.56 54.74 100.1 54.82 100.61C54.69 100.89 54.64 101.24 54.68 101.53C54.63 101.62 54.58 101.7 54.56 101.79C54.41 102.32 54.48 102.82 54.7 103.25C54.7 103.27 54.68 103.3 54.68 103.32C54.66 103.64 54.73 103.93 54.86 104.17C54.58 104.25 54.33 104.4 54.17 104.6C53.83 105.03 53.78 105.89 54.03 106.37C54.12 106.55 54.24 106.7 54.36 106.84C54.19 107 54.04 107.18 53.92 107.39C53.59 107.96 53.5 108.9 53.92 109.48C53.75 109.85 53.69 110.27 53.74 110.71C53.74 110.74 53.76 110.78 53.76 110.81C53.69 111.07 53.67 111.35 53.71 111.63C53.62 111.86 53.57 112.1 53.56 112.35C53.34 112.73 53.26 113.26 53.37 113.62C53.41 113.75 53.46 113.87 53.53 113.99V114C53.49 114.27 53.51 114.53 53.59 114.76C53.48 114.92 53.4201 115.14 53.4101 115.37C53.0501 115.86 52.93 116.45 53.03 117.03C52.93 117.35 52.91 117.69 52.97 118.02C52.78 118.49 52.77 119.01 52.93 119.5C52.89 119.64 52.88 119.79 52.87 119.94C52.82 119.99 52.76 120.02 52.72 120.08C52.46 120.48 52.4901 121.22 52.7301 121.62C52.7401 121.63 52.74 121.64 52.75 121.64C52.45 122.16 52.36 122.9 52.9 123.28C53.16 123.47 53.49 123.5 53.86 123.5C54.15 123.91 54.7 124.25 55.18 124.04C55.45 124.17 55.75 124.26 56.08 124.27C56.32 124.28 56.58 124.23 56.84 124.13C57.14 124.53 57.59 124.81 58.11 124.68C58.33 124.62 58.52 124.49 58.7 124.33C58.86 124.39 59.02 124.43 59.2 124.46C59.52 124.5 59.9 124.45 60.24 124.32C60.46 124.54 60.74 124.69 61.09 124.65C61.38 124.62 61.63 124.47 61.89 124.27C62.1 124.39 62.33 124.43 62.59 124.35C62.7 124.31 62.8 124.25 62.89 124.18C62.93 124.19 62.97 124.21 63.01 124.22C63.18 124.24 63.35 124.2 63.53 124.14C63.98 124.46 64.56 124.6 65.15 124.5C65.34 124.61 65.56 124.69 65.77 124.73C66.23 125.15 66.85 125.39 67.42 125.07C67.64 124.95 67.8 124.76 67.94 124.54C68.23 124.76 68.58 124.91 68.97 124.96C69.28 125.01 69.66 124.97 70 124.84C70.58 125.2 71.32 125.27 72.01 125.01C72.09 124.98 72.17 124.94 72.24 124.9C72.37 124.91 72.5 124.9 72.63 124.88C72.64 124.88 72.64 124.88 72.65 124.88C72.89 124.97 73.1501 125 73.4101 124.97C73.7901 125.41 74.4 125.71 74.93 125.38C74.97 125.36 74.99 125.32 75.03 125.29C75.31 125.81 75.7901 126.22 76.4101 126.12C76.8601 126.05 77.21 125.73 77.58 125.33C77.72 125.29 77.86 125.25 78 125.21C78.52 125.09 79.16 124.52 79.17 123.96C79.17 123.92 79.15 123.87 79.15 123.83C79.41 123.57 79.59 123.26 79.61 122.94C79.63 122.57 79.43 122.13 79.15 121.81C79.2 121.57 79.23 121.32 79.18 121.09C79.19 121.01 79.2001 120.94 79.1901 120.85C79.17 120.64 79.06 120.45 78.92 120.27C79.18 119.96 79.36 119.54 79.27 119.2C79.24 119.09 79.18 118.98 79.11 118.88C79.22 118.69 79.2901 118.49 79.26 118.3C79.25 118.22 79.22 118.14 79.18 118.06C79.32 117.85 79.42 117.6 79.47 117.34C79.85 116.93 80.13 116.33 80.02 115.84C79.98 115.67 79.8801 115.5 79.76 115.34C79.72 115.17 79.65 115.02 79.54 114.87C79.57 114.79 79.61 114.7 79.64 114.62C79.78 114.32 79.82 113.91 79.76 113.52C79.9601 113.07 79.99 112.46 79.79 112.02C79.71 111.82 79.6 111.61 79.45 111.39C79.45 111.35 79.46 111.32 79.46 111.28C79.59 111.19 79.71 111.08 79.79 110.91C79.94 110.6 79.91 110.25 79.83 109.86C80.34 109.44 80.71 108.76 80.35 108.15C80.31 108.09 80.26 108.04 80.21 107.98C80.24 107.9 80.26 107.82 80.27 107.73C80.28 107.58 80.23 107.41 80.17 107.25C80.4 106.8 80.56 106.24 80.34 105.79ZM73.33 122.3C73.14 122.25 72.9001 122.26 72.6601 122.3C72.6501 122.29 72.6301 122.29 72.6201 122.28C72.3101 122.07 71.92 121.91 71.49 121.74C71.06 121.54 70.41 121.52 69.89 121.7C69.83 121.69 69.77 121.7 69.71 121.7C69.25 121.33 68.54 121.09 68.04 121.29L68.03 121.3C68.02 121.29 68.02 121.29 68.01 121.28C67.57 120.92 66.7 120.86 66.2 121.1C66.18 121.11 66.17 121.12 66.15 121.13C66.12 121.12 66.1 121.1 66.07 121.09C65.74 121 65.3 121.09 64.95 121.28C64.4 121.03 63.6101 120.99 63.1601 121.35C63.1101 121.39 63.07 121.46 63.02 121.52C62.82 121.44 62.6 121.41 62.4 121.43C62.12 121.25 61.8 121.13 61.52 121.13C61.18 121.14 60.87 121.23 60.61 121.39C60.43 121.35 60.24 121.34 60.06 121.36C59.61 120.91 58.77 120.59 58.2 120.82C58.16 120.84 58.11 120.88 58.07 120.91C58.05 120.91 58.02 120.91 58 120.91C57.65 120.97 57.35 121.12 57.1 121.32C57.02 121.31 56.95 121.3 56.86 121.3C56.8 121.29 56.7301 121.3 56.6601 121.3C56.5001 121.16 56.29 121.03 56.06 120.94C56.07 120.73 56.02 120.51 55.88 120.32C55.87 120.3 55.85 120.3 55.84 120.28C55.99 119.93 56.07 119.51 56.13 119.04C56.24 118.7 56.24 118.29 56.22 117.84C56.31 117.54 56.3601 117.2 56.4101 116.83C56.4801 116.49 56.4401 116.06 56.3001 115.67C56.3101 115.62 56.31 115.58 56.31 115.53C56.41 115.4 56.48 115.24 56.49 115.06C56.5 114.88 56.46 114.71 56.39 114.54C56.79 114.2 57.06 113.7 56.85 113.18C56.81 113.07 56.74 112.97 56.67 112.88C56.67 112.87 56.68 112.86 56.68 112.85C56.82 112.54 56.8701 112.09 56.8001 111.68C56.8901 111.44 56.9301 111.14 56.9101 110.83C57.1601 110.37 57.26 109.72 57.07 109.22C57.44 108.89 57.7301 108.45 57.7301 108.02C57.7301 107.69 57.55 107.32 57.31 107.01C57.82 106.55 58.15 105.84 57.78 105.22C57.66 105.02 57.48 104.88 57.28 104.75C57.46 104.59 57.57 104.38 57.59 104.13C57.79 103.97 57.95 103.76 58 103.48C58.07 103.11 57.96 102.74 57.78 102.35C58.04 102.04 58.17 101.65 58.01 101.25C58.03 100.99 58.01 100.71 57.97 100.41C58 100.4 58.03 100.39 58.07 100.37C58.11 100.38 58.14 100.4 58.18 100.41C58.34 100.45 58.52 100.46 58.71 100.44C58.8 100.48 58.89 100.52 58.99 100.54C59.12 100.74 59.31 100.9 59.57 100.98C59.86 101.06 60.15 101.01 60.46 100.91C60.59 101.01 60.74 101.09 60.93 101.11C61.27 101.15 61.6 101.02 61.94 100.83C62.43 101.2 63.14 101.39 63.61 100.92C63.62 100.91 63.63 100.89 63.64 100.88C63.78 101.04 63.96 101.16 64.2 101.19C64.58 101.24 64.95 101.07 65.35 100.84C65.53 100.97 65.75 101.07 65.96 101.1C66.28 101.44 66.75 101.7 67.21 101.71C67.39 101.8 67.58 101.85 67.81 101.83C68.11 101.8 68.37 101.67 68.63 101.47C68.94 101.46 69.27 101.34 69.63 101.2C69.89 101.41 70.2201 101.52 70.5501 101.37C70.6401 101.33 70.72 101.27 70.79 101.21C71.02 101.32 71.28 101.38 71.56 101.38C71.6 101.38 71.64 101.37 71.68 101.37C72.01 101.54 72.39 101.63 72.79 101.61C72.86 101.61 72.93 101.59 73 101.58C73.44 101.82 74.07 101.92 74.53 101.69C74.57 101.7 74.6 101.7 74.64 101.71C75.04 102.16 75.64 102.47 76.21 102.17C76.3 102.12 76.37 102.06 76.45 101.99C76.66 102.08 76.88 102.11 77.09 102.06C77.09 102.28 77.13 102.49 77.2 102.67C76.84 103.22 76.68 104.11 77.14 104.63C76.99 104.91 76.94 105.29 77 105.63C76.92 105.72 76.8401 105.81 76.8001 105.91C76.6201 106.33 76.75 106.99 77.02 107.37C77 107.41 76.9901 107.45 76.9801 107.5C76.9401 107.54 76.88 107.56 76.84 107.61C76.52 108.01 76.4701 108.79 76.6901 109.24C76.76 109.37 76.83 109.49 76.92 109.6C76.9 109.95 76.98 110.3 77.17 110.6C77.15 110.69 77.12 110.77 77.11 110.86C76.94 111.06 76.81 111.3 76.77 111.51C76.73 111.76 76.7401 112 76.8001 112.23C76.5401 112.66 76.45 113.2 76.56 113.73C76.48 114.01 76.4601 114.31 76.51 114.61C76.4601 114.76 76.42 114.91 76.42 115.05C76.42 115.21 76.45 115.35 76.49 115.49C76.34 115.69 76.22 115.92 76.15 116.18C75.99 116.71 76.06 117.46 76.42 117.94C76.44 118.1 76.48 118.26 76.54 118.41C76.46 118.64 76.4501 118.93 76.51 119.19C76.4501 119.3 76.4101 119.41 76.3701 119.53C76.3201 119.72 76.31 119.94 76.34 120.17C76.3 120.3 76.27 120.43 76.27 120.54C76.28 120.72 76.3201 120.88 76.3701 121.03C76.2001 121.3 76.1 121.63 76.09 121.97C76.01 122.06 75.9401 122.15 75.8701 122.25C75.85 122.28 75.83 122.32 75.81 122.35C75.74 122.39 75.67 122.44 75.6 122.48C75.49 122.47 75.39 122.48 75.28 122.49C75.26 122.47 75.2501 122.44 75.2301 122.42C74.8701 122.15 74.18 122.12 73.79 122.33C73.73 122.36 73.68 122.4 73.63 122.43C73.56 122.35 73.4501 122.32 73.33 122.3Z" fill="#FF8412"/>
<path d="M138.15 138.62C138.08 138.29 137.8 137.96 137.48 137.74C137.46 137.26 137.25 136.71 136.89 136.44C136.89 136.43 136.88 136.43 136.88 136.42C136.96 136.27 137.01 136.11 137.01 135.95C137.01 135.48 136.6 134.87 136.18 134.67C136.15 134.65 136.11 134.65 136.08 134.63C136.08 134.62 136.08 134.61 136.08 134.6C136.35 134.13 136.42 133.56 136.05 133.12C135.69 132.7 135.09 132.59 134.39 132.47C134.32 132.45 134.24 132.44 134.15 132.43C134.11 132.39 134.08 132.34 134.03 132.31C133.95 132.26 133.84 132.22 133.73 132.2C133.71 132.17 133.69 132.13 133.68 132.1C133.43 131.56 132.68 131 132.06 131.06C131.87 130.87 131.65 130.69 131.41 130.5C131.26 130.36 131.06 130.25 130.83 130.16C130.45 129.6 129.56 129.1 128.9 129.28C128.89 129.28 128.88 129.29 128.87 129.29C128.41 128.94 127.88 128.83 127.36 128.91C127.2 128.84 127.03 128.79 126.86 128.77C126.58 128.26 126.07 127.78 125.54 127.75C125.31 127.74 125.06 127.81 124.82 127.93C124.76 127.92 124.7 127.91 124.64 127.91C124.6 127.91 124.57 127.92 124.54 127.93C124.39 127.83 124.23 127.74 124.06 127.68C124 127.54 123.94 127.4 123.83 127.3C123.43 126.9 122.57 126.74 122.05 126.93C121.85 127 121.67 127.11 121.51 127.22C121.18 127 120.72 126.96 120.2 126.92H120.19C120.1 126.86 120.02 126.79 119.93 126.73C119.87 126.68 119.79 126.65 119.72 126.61C119.73 126.34 119.66 126.08 119.46 125.86C119.43 125.83 119.39 125.81 119.36 125.78C119.46 125.28 119.43 124.73 119.14 124.39C119.12 124.36 119.08 124.35 119.06 124.32C119.05 123.89 118.9 123.44 118.63 123.16C118.91 122.75 119.03 122.24 118.72 121.81C118.43 121.4 117.89 121.25 117.26 121.09C117.18 121.06 117.09 121.06 117 121.05C116.95 121.02 116.91 120.98 116.86 120.97C116.57 120.89 116.17 120.98 115.86 121.15C115.77 121.13 115.69 121.1 115.59 121.08C115.18 120.95 114.58 121.01 114.15 121.24C113.61 120.99 113.02 121.01 112.51 121.25C112.27 121.23 112.04 121.25 111.83 121.32C111.76 121.29 111.69 121.25 111.62 121.24C111.33 121.18 111.05 121.21 110.79 121.28C110.55 121.18 110.28 121.12 110.06 121.14C109.73 121.18 109.45 121.29 109.21 121.46C109.03 121.36 108.84 121.28 108.66 121.3C108.61 121.3 108.56 121.33 108.51 121.34C108.18 121.07 107.77 120.89 107.4 120.94C107.25 120.96 107.1 121.03 106.95 121.13C106.51 120.96 105.99 120.91 105.63 121.11C105.59 121.13 105.55 121.18 105.51 121.21C105.15 121.15 104.77 121.18 104.47 121.32C104.23 121.34 103.99 121.4 103.76 121.5C103.59 121.49 103.42 121.49 103.24 121.5C103.06 121.49 102.85 121.52 102.64 121.59C102.12 121.55 101.61 121.73 101.2 122.07C101.05 122.04 100.91 122.04 100.76 122.06C100.29 121.75 99.52 121.62 99.07 121.92C99.02 121.96 98.98 122.01 98.93 122.06C98.9 122.06 98.87 122.05 98.84 122.05C98.72 121.94 98.59 121.86 98.44 121.82C98.08 121.72 97.57 121.85 97.21 122.08C96.99 122.07 96.77 122.1 96.56 122.16C96.33 122.09 96.09 122.05 95.9 122.08C95.45 122.15 95.08 122.35 94.79 122.64C94.52 122.67 94.29 122.77 94.08 122.92C93.65 122.69 92.86 122.69 92.51 123.06C92.29 123.29 92.19 123.71 92.22 124.06C92.13 124.22 92.06 124.38 92.04 124.53C91.94 125.16 92.12 125.73 92.47 126.17C92.35 126.27 92.25 126.38 92.19 126.51C91.96 126.99 92.09 127.8 92.42 128.21C92.59 128.43 92.8 128.59 93.02 128.72C93.03 128.82 93.04 128.91 93.07 129.01C92.94 129.43 92.99 129.88 93.2 130.29C93.15 130.53 93.17 130.77 93.23 131.02C93.12 131.23 93.04 131.46 93 131.71C92.97 131.91 92.98 132.14 93.03 132.37C93.03 132.41 93.01 132.45 93.01 132.48C93.02 132.95 93.19 133.35 93.46 133.66C93.43 133.71 93.38 133.76 93.36 133.8C92.95 134.7 93.2 135.63 93.84 136.25C93.69 136.57 93.64 136.98 93.73 137.27C93.78 137.44 93.88 137.57 93.97 137.7C93.91 137.95 93.91 138.21 93.96 138.46C93.75 139 93.78 139.6 94.05 140.13C94.01 140.52 94.08 140.93 94.27 141.32C94.31 141.41 94.37 141.49 94.43 141.57C94.44 141.6 94.45 141.63 94.46 141.67C94.36 142.09 94.4 142.59 94.57 142.91C94.66 143.07 94.77 143.21 94.89 143.34C94.74 143.97 94.85 144.68 95.46 145C95.73 145.14 96.04 145.17 96.37 145.14C96.4 145.18 96.42 145.23 96.46 145.27C96.5 145.31 96.54 145.36 96.58 145.4C96.67 145.77 96.87 146.11 97.18 146.38C97.29 146.47 97.42 146.55 97.56 146.62C97.58 146.64 97.6 146.67 97.63 146.69C97.85 146.86 98.14 146.92 98.46 146.94C98.46 146.95 98.46 146.95 98.47 146.96C98.71 147.63 99.54 148.37 100.31 148.06C100.41 148.1 100.51 148.13 100.61 148.15C100.62 148.17 100.63 148.2 100.65 148.22C101.04 148.8 101.99 149.31 102.66 148.85C102.81 149.02 103 149.15 103.25 149.2C103.69 149.28 104.13 149.07 104.61 148.8C104.77 148.89 104.96 148.96 105.15 148.99C105.33 149.21 105.58 149.36 105.89 149.33C106.16 149.31 106.39 149.17 106.62 148.98C106.72 149.02 106.83 149.06 106.94 149.08C107.08 149.4 107.33 149.66 107.71 149.7C108 149.73 108.27 149.63 108.56 149.48C108.91 149.83 109.4 150.04 109.85 149.77C109.86 149.76 109.87 149.75 109.89 149.74C109.96 149.78 110.03 149.82 110.11 149.86C110.3 150.18 110.59 150.42 111 150.44C111.33 150.46 111.65 150.31 111.97 150.1C112.18 150.11 112.4 150.09 112.64 150.06C112.98 150.5 113.54 150.81 114.07 150.59C114.54 150.76 115.07 150.77 115.58 150.6C115.69 150.56 115.81 150.51 115.92 150.45C116.2 150.52 116.53 150.54 116.88 150.53C117.3 151.01 117.94 151.33 118.54 151.02C118.85 150.86 119.07 150.57 119.26 150.21C119.56 150.42 119.92 150.56 120.31 150.59C120.6 150.62 120.94 150.56 121.25 150.43C121.45 150.48 121.66 150.49 121.85 150.45C122.16 150.62 122.56 150.71 122.93 150.67C123.18 150.8 123.47 150.84 123.76 150.72C123.87 150.67 123.98 150.61 124.07 150.53C124.51 150.78 125.06 150.86 125.45 150.49C125.48 150.47 125.49 150.43 125.51 150.41C125.66 150.41 125.81 150.39 125.95 150.36C126.51 150.8 127.52 151.02 127.99 150.34C128.11 150.33 128.23 150.29 128.34 150.22C128.69 150.16 129.06 150.04 129.46 149.89C129.48 149.88 129.5 149.87 129.52 149.87C129.97 149.78 130.37 149.45 130.8 149.05C131.47 149.1 132.32 148.79 132.61 148.15C132.66 148.14 132.71 148.14 132.77 148.12C133.15 147.99 133.42 147.66 133.69 147.25C134.18 147.31 134.69 147.17 134.89 146.69C134.93 146.59 134.95 146.48 134.96 146.37C135.1 146.25 135.25 146.1 135.4 145.94C135.53 145.82 135.63 145.65 135.71 145.46C135.82 145.31 135.9 145.12 135.98 144.91C136.1 144.86 136.22 144.78 136.32 144.67C136.65 144.29 136.66 143.74 136.68 143.09C136.68 143.07 136.68 143.04 136.68 143.02C136.74 142.9 136.8 142.78 136.86 142.66C136.87 142.65 136.87 142.64 136.87 142.63C137.05 142.39 137.21 142.11 137.38 141.8C137.57 141.52 137.67 141.1 137.67 140.69C137.71 140.63 137.76 140.57 137.78 140.5C137.84 140.29 137.81 140.02 137.73 139.77C138.05 139.43 138.22 138.99 138.15 138.62Z" fill="#FF8412"/>
<path d="M92.12 100.43L114.55 98.98L117.03 122.58C110.42 122.41 99.23 123.19 93.69 124.08L92.12 100.43Z" fill="#FFEA62"/>
<path d="M118.54 120.93C118.47 120.7 118.32 120.5 118.12 120.33C118.49 120.1 118.75 119.75 118.74 119.28C118.73 118.76 118.39 118.31 117.96 117.81C117.94 117.65 117.89 117.49 117.82 117.35C117.91 117.23 117.98 117.11 118 116.97C118.06 116.64 117.91 116.21 117.68 115.92C117.78 115.71 117.85 115.5 117.81 115.3C117.79 115.18 117.72 115.06 117.64 114.94C117.63 114.71 117.55 114.47 117.43 114.21C117.49 114.11 117.54 113.99 117.55 113.85C117.56 113.61 117.48 113.39 117.34 113.16C117.4 112.83 117.34 112.44 117.27 112.01C117.26 111.87 117.21 111.72 117.15 111.57C117.14 111.5 117.13 111.43 117.11 111.36C117.45 111.11 117.69 110.74 117.62 110.29C117.57 109.98 117.39 109.72 117.15 109.47C117.18 109.39 117.23 109.32 117.24 109.24C117.25 109.13 117.24 109.01 117.2 108.88C117.33 108.72 117.44 108.55 117.47 108.36C117.56 107.91 117.31 107.29 116.97 106.94C117.07 106.52 117.01 106.03 116.95 105.48C116.94 105.31 116.9 105.13 116.83 104.95C116.93 104.68 116.97 104.41 116.89 104.17C116.82 103.93 116.62 103.7 116.38 103.52C116.4 103.33 116.4 103.15 116.33 103C116.32 102.98 116.3 102.97 116.29 102.95C116.42 102.7 116.49 102.43 116.44 102.2C116.42 102.13 116.38 102.07 116.35 102C116.5 101.74 116.55 101.45 116.41 101.15C116.36 101.05 116.3 100.96 116.22 100.88C116.24 100.73 116.25 100.59 116.27 100.43C116.3 100.24 116.28 100.02 116.24 99.8C116.49 99.34 116.56 98.78 116.17 98.37C115.84 98.03 115.33 97.95 114.75 97.88C114.59 97.67 114.39 97.5 114.17 97.45C114.1 97.43 114.02 97.44 113.93 97.44C113.61 97.27 113.25 97.17 112.95 97.2C112.67 97.23 112.41 97.31 112.19 97.43C111.93 97.28 111.65 97.19 111.39 97.22C111.25 97.24 111.1 97.3 110.95 97.39C110.67 97.26 110.37 97.2 110.1 97.26C109.91 97.3 109.72 97.43 109.54 97.58C109.22 97.61 108.9 97.73 108.7 97.91C108.45 97.89 108.21 97.92 107.97 98C107.79 97.95 107.61 97.93 107.43 97.93C107.34 97.83 107.24 97.74 107.13 97.68C106.72 97.47 106.07 97.54 105.63 97.76C105.17 97.54 104.61 97.44 104.2 97.63C104.02 97.71 103.87 97.87 103.72 98.04C103.66 98.04 103.6 98.04 103.54 98.05C102.95 97.74 101.92 97.71 101.43 98.19C101.4 98.22 101.38 98.27 101.35 98.31C101.1 98.26 100.86 98.27 100.63 98.32C100.06 98.1 99.4501 98.14 98.9101 98.41C98.5301 98.26 98.11 98.2 97.79 98.35C97.68 98.41 97.57 98.49 97.47 98.6C97.43 98.61 97.3901 98.61 97.3501 98.62C97.1401 98.41 96.8901 98.25 96.6301 98.22C96.3101 98.18 95.9101 98.33 95.6001 98.55C95.5201 98.55 95.45 98.56 95.37 98.57C94.95 98.35 94.3401 98.29 93.9401 98.45C93.6401 98.57 93.4 98.74 93.2 98.95C93.14 98.92 93.08 98.87 93.03 98.85C91.97 98.47 90.93 99 90.48 99.98C90.2 100.59 90.24 101.56 90.81 102C90.81 102.2 90.85 102.39 90.92 102.56C90.72 103.04 90.71 103.59 90.93 104.12C90.92 104.32 90.9501 104.54 91.0201 104.72C90.6601 105.19 90.4601 105.95 90.8001 106.46C90.5601 106.91 90.5 107.56 90.67 107.99C90.81 108.32 91.01 108.59 91.25 108.81C90.93 109.41 90.9101 110.15 91.2101 110.82C91.2201 110.84 91.2301 110.86 91.2401 110.88C91.2801 111.29 91.4601 111.67 91.7401 111.97C91.7301 112.08 91.76 112.19 91.78 112.29C91.7 112.45 91.66 112.63 91.65 112.79C91.64 112.8 91.62 112.8 91.61 112.81C91.25 113.17 91.12 113.95 91.29 114.41C91.32 114.5 91.3701 114.57 91.4101 114.65C91.3501 114.77 91.3 114.91 91.26 115.04C91.06 115.76 91.27 116.85 92 117.22C91.93 117.31 91.8601 117.41 91.8201 117.51C91.5301 118.22 91.6801 118.94 92.1001 119.47C92.1101 119.61 92.1401 119.74 92.1901 119.86C92.1901 119.87 92.18 119.88 92.18 119.89C92.06 120.22 92.05 120.56 92.12 120.86C92.01 121.01 91.9101 121.16 91.83 121.34C91.58 121.91 91.5901 122.8 92.0501 123.3C92.0301 123.33 92.01 123.36 92 123.39C91.62 124.12 91.6401 125.44 92.6001 125.75C93.1501 125.93 93.74 125.71 94.43 125.44C94.51 125.41 94.6 125.38 94.68 125.33C94.81 125.3 94.95 125.27 95.09 125.24C95.16 125.23 95.23 125.21 95.31 125.18C95.53 125.26 95.7701 125.3 96.0201 125.3C96.2501 125.3 96.51 125.23 96.75 125.12C96.86 125.21 96.99 125.29 97.15 125.32C97.54 125.4 97.9301 125.26 98.3501 125.05C98.7501 125.16 99.1601 125.15 99.5501 125.02C99.9301 125.13 100.35 125.15 100.77 125.05C100.79 125.05 100.81 125.04 100.83 125.03C100.94 125.07 101.06 125.1 101.18 125.12C101.56 125.18 102.02 125.11 102.42 124.94C102.85 125 103.33 124.87 103.86 124.71C104.45 125.02 105.28 125.11 105.77 124.65C105.94 124.66 106.1 124.63 106.26 124.57C106.57 124.7 106.91 124.72 107.22 124.52C107.3 124.47 107.37 124.4 107.43 124.33C107.67 124.42 107.93 124.43 108.18 124.28C108.29 124.21 108.38 124.11 108.46 124C108.83 124.64 109.55 125.18 110.28 124.85C110.57 124.72 110.79 124.48 110.98 124.19C111.15 124.2 111.32 124.19 111.5 124.15C111.54 124.14 111.58 124.12 111.62 124.11C111.79 124.1 111.98 124.05 112.17 123.99C112.45 124.29 112.84 124.51 113.24 124.55C113.49 124.73 113.78 124.83 114.12 124.77C114.27 124.74 114.4 124.69 114.53 124.62C114.93 124.88 115.4 124.99 115.86 124.76C116.07 124.65 116.23 124.49 116.37 124.29C116.61 124.22 116.86 124.13 117.12 124.02C117.73 123.82 118.44 123.07 118.4 122.4C118.39 122.23 118.32 122.04 118.22 121.86C118.49 121.64 118.64 121.31 118.54 120.93ZM108.2 121.46C108.01 121.41 107.8 121.4 107.6 121.43L107.59 121.42C107.25 121.17 106.65 121.15 106.24 121.31C106.16 121.26 106.09 121.21 106 121.19C105.8 121.12 105.54 121.14 105.3 121.2C105.12 121.04 104.91 120.93 104.7 120.89C104.28 120.82 103.73 121.03 103.36 121.33C102.93 121.37 102.52 121.54 102.18 121.82C101.7 121.38 100.9 121.07 100.33 121.29C100.18 121.35 100.03 121.46 99.9 121.58C99.41 121.53 98.8901 121.6 98.5801 121.89L98.5701 121.9C98.3601 121.92 98.13 121.99 97.92 122.09C97.61 122.13 97.3201 122.25 97.0701 122.44C96.7501 122.31 96.39 122.27 96.11 122.39C95.9 122.3 95.6701 122.24 95.4401 122.23C95.5701 121.99 95.64 121.73 95.61 121.48C95.56 121.03 95.16 120.52 94.73 120.27C94.73 120.26 94.73 120.26 94.72 120.25C94.8 120.13 94.84 120 94.84 119.85C94.92 119.75 95 119.64 95.04 119.5C95.2 118.99 94.98 118.43 94.73 117.79C94.68 117.63 94.5801 117.46 94.4601 117.29C94.4701 117.14 94.44 116.98 94.39 116.82C94.49 116.67 94.57 116.5 94.61 116.32C95.04 115.88 95.37 115.19 95.23 114.64C95.19 114.5 95.12 114.36 95.03 114.22C95.04 114.06 95.02 113.9 94.95 113.74C94.84 113.5 94.66 113.32 94.43 113.16C94.43 113.14 94.43 113.13 94.43 113.11C94.38 112.85 94.22 112.64 94 112.43C94.2 112.31 94.3601 112.15 94.4401 111.91C94.5801 111.51 94.4801 111.07 94.3201 110.59C94.3701 110.46 94.4101 110.32 94.4601 110.18C94.6301 109.74 94.62 109.09 94.4 108.58C94.76 108.17 94.96 107.63 94.7 107.1C94.55 106.79 94.28 106.58 93.95 106.39C94.1 106.24 94.2201 106.07 94.2701 105.88C94.3801 105.44 94.16 104.81 93.83 104.47C93.91 104.22 93.9001 103.97 93.7701 103.74C93.7801 103.7 93.79 103.67 93.81 103.63C93.97 103.25 93.96 102.68 93.78 102.23C94.09 102.38 94.44 102.42 94.78 102.25C94.91 102.19 95.0301 102.1 95.1301 101.99C95.3001 102.03 95.49 102.02 95.68 101.95C95.81 101.9 95.93 101.81 96.03 101.71C96.63 102 97.4801 102.02 97.8801 101.43C97.9701 101.43 98.0701 101.42 98.1601 101.4C98.1701 101.41 98.1801 101.42 98.1901 101.43C98.6801 101.75 99.3301 101.68 100.07 101.6C100.26 101.59 100.48 101.53 100.69 101.45C100.89 101.4 101.1 101.34 101.31 101.26C101.56 101.27 101.82 101.26 102.11 101.25C102.15 101.25 102.18 101.24 102.22 101.24C102.68 101.44 103.2 101.48 103.72 101.35C103.89 101.31 104.07 101.22 104.24 101.12C104.3 101.12 104.36 101.11 104.42 101.1C104.69 101.24 104.99 101.33 105.3 101.35C105.45 101.36 105.61 101.35 105.78 101.32C106.25 101.56 106.81 101.62 107.23 101.25C107.35 101.15 107.43 101.02 107.51 100.88C107.57 100.87 107.63 100.86 107.7 100.85C107.78 100.84 107.87 100.82 107.96 100.8C108.17 100.81 108.39 100.8 108.63 100.78C108.73 100.78 108.83 100.76 108.94 100.74C109.37 101.01 109.93 101.14 110.35 100.86C110.36 100.86 110.37 100.87 110.38 100.87C110.76 100.99 111.27 100.98 111.69 100.81C111.96 101.06 112.29 101.21 112.69 101.14C112.88 101.11 113.05 101.01 113.22 100.9C113.24 100.99 113.28 101.07 113.31 101.15C113.28 101.37 113.29 101.59 113.36 101.76C113.44 101.96 113.55 102.13 113.68 102.28C113.66 102.34 113.63 102.39 113.61 102.45C113.49 102.84 113.55 103.39 113.82 103.74C113.82 103.77 113.81 103.79 113.81 103.82C113.8 103.91 113.81 104.02 113.83 104.12C113.73 104.3 113.65 104.49 113.6 104.69C113.56 104.86 113.55 105.06 113.57 105.26C113.43 105.89 113.6 106.54 114.01 107.06C114.01 107.1 114.01 107.15 114.01 107.19C113.51 107.79 113.27 108.96 114.06 109.46C114.06 109.49 114.06 109.52 114.06 109.55C114.02 109.7 114 109.86 114.01 109.99C114.05 110.49 114.27 110.91 114.6 111.21C114.61 111.35 114.63 111.48 114.68 111.61C114.5 112.07 114.54 112.56 114.75 112.98V112.99C114.71 113.32 114.76 113.62 114.9 113.88C114.77 114.36 114.86 114.81 115.11 115.17C115.07 115.24 115.04 115.31 115.01 115.38C114.91 115.67 114.9 116.05 115 116.38C114.82 116.78 114.78 117.28 115.04 117.62C114.89 117.87 114.79 118.13 114.78 118.37C114.74 119.09 115.04 119.71 115.53 120.11C115.46 120.24 115.41 120.38 115.38 120.53C115.2 120.54 115.03 120.57 114.89 120.63C114.82 120.66 114.76 120.7 114.69 120.74C114.58 120.73 114.48 120.71 114.38 120.72C114.12 120.75 113.89 120.82 113.68 120.92C113.27 120.83 112.75 120.91 112.45 121.12C112.33 121.2 112.23 121.29 112.14 121.39C111.98 121.4 111.83 121.43 111.68 121.48C111.63 121.45 111.59 121.42 111.53 121.4C111.48 121.37 111.41 121.35 111.35 121.32C111.33 121.3 111.33 121.26 111.31 121.24C110.92 120.85 110.08 120.7 109.57 120.88C109.22 121 108.94 121.2 108.72 121.45C108.55 121.42 108.37 121.42 108.2 121.46Z" fill="#FF8412"/>
<path d="M56.8101 42.82C56.8101 42.82 63.6701 7.69 104.44 15.29C141.37 22.17 139.23 57.52 127.7 66.08C142.21 69.8 140.91 87.1 137.93 96.41C134.95 105.71 128.57 117.44 101.14 115.21C90.4601 113.35 86.2101 109.43 83.2301 103.11C83.2301 103.11 48.4401 123.48 30.0201 93.81C10.0101 61.56 46.7601 38.35 56.8101 42.82Z" fill="#FFEA62"/>
<path d="M141.58 83.76C141.53 83.66 141.44 83.56 141.35 83.47C141.38 82.96 141.25 82.42 140.94 82.11C141 81.95 141.02 81.77 140.98 81.58C140.9 81.22 140.64 80.94 140.31 80.65C140.42 80.31 140.44 79.94 140.29 79.67C140.19 79.48 139.99 79.32 139.76 79.2C139.76 79.18 139.75 79.17 139.75 79.15C139.99 78.9 140.12 78.58 140.01 78.22C139.98 78.13 139.93 78.05 139.88 77.97C140.06 77.73 140.17 77.45 140.16 77.19C140.15 76.85 139.92 76.46 139.64 76.18C139.68 75.83 139.6 75.41 139.43 75.06C139.38 74.8 139.26 74.55 139.1 74.36C139.21 74.08 139.23 73.77 139.03 73.49C138.96 73.39 138.86 73.31 138.76 73.24C138.67 72.97 138.53 72.69 138.38 72.4C138.19 71.96 137.68 71.5 137.17 71.36C136.89 71.03 136.49 70.77 136.12 70.77C136.08 70.77 136.03 70.79 135.98 70.8C135.92 70.74 135.86 70.69 135.8 70.64C135.66 70.42 135.47 70.23 135.28 70.14C135.27 70.14 135.26 70.13 135.25 70.13C135.21 70.03 135.18 69.93 135.14 69.83C134.95 69.21 134.22 68.48 133.53 68.46C133.49 68.43 133.45 68.38 133.4 68.36H133.39C133.39 68.36 133.39 68.35 133.38 68.35C133.1 68.06 132.68 67.96 132.19 67.9C132.02 67.48 131.66 67.06 131.25 66.98C131.17 66.97 131.08 66.98 131 66.98C130.93 66.9 130.85 66.82 130.76 66.74C130.64 66.57 130.5 66.39 130.34 66.21C130.24 66.07 130.1 65.94 129.93 65.83C129.88 65.76 129.82 65.68 129.77 65.61C129.77 65.59 129.77 65.57 129.76 65.55C129.78 65.52 129.8 65.5 129.81 65.47C130.04 65.39 130.24 65.23 130.34 64.97C130.37 64.88 130.39 64.79 130.39 64.69C130.41 64.68 130.42 64.68 130.44 64.67C130.83 64.54 131.25 64.17 131.48 63.75C132.08 63.43 132.57 62.81 132.34 62.13C132.33 62.1 132.31 62.07 132.29 62.04C132.33 61.97 132.37 61.91 132.4 61.84C132.76 61.7 133.08 61.43 133.21 61.09C133.85 60.79 134.43 60.13 134.16 59.4C134.15 59.39 134.14 59.37 134.14 59.36C134.22 59.24 134.29 59.12 134.31 58.99C134.31 58.98 134.31 58.98 134.31 58.97C134.84 58.65 135.28 58.02 134.98 57.42C134.96 57.37 134.92 57.33 134.89 57.29C134.91 57.12 134.93 56.94 134.94 56.74C134.94 56.72 134.94 56.69 134.94 56.67C135.14 56.51 135.29 56.31 135.35 56.09C135.41 55.85 135.36 55.54 135.25 55.27C135.29 55.15 135.32 55.03 135.36 54.91C135.45 54.65 135.47 54.31 135.41 53.98C135.42 53.92 135.43 53.85 135.44 53.79C135.82 53.55 136.15 53.2 136.22 52.81C136.3 52.4 136.11 51.85 135.82 51.48C135.85 51.36 135.87 51.24 135.85 51.13C135.84 51.09 135.82 51.05 135.81 51.01C136.07 50.66 136.21 50.05 136.1 49.57C136.22 49.34 136.29 49.09 136.24 48.86C136.21 48.73 136.14 48.61 136.05 48.48C136.15 48.23 136.19 47.93 136.15 47.64C136.4 47.3 136.54 46.83 136.36 46.46C136.42 46.36 136.47 46.25 136.48 46.14C136.5 45.95 136.44 45.73 136.34 45.54C136.63 44.99 136.74 44.19 136.4 43.71C136.3 43.57 136.14 43.45 135.97 43.35C135.89 43.2 135.8 43.05 135.69 42.96C135.66 42.94 135.64 42.92 135.61 42.9C135.58 42.79 135.54 42.68 135.49 42.56C135.71 42.3 135.85 41.99 135.85 41.7C135.85 41.56 135.8 41.41 135.74 41.27C135.75 41.22 135.76 41.17 135.76 41.12C135.74 40.58 135.36 40.12 134.9 39.61C134.9 39.6 134.91 39.6 134.91 39.6C135.06 39.08 134.82 38.52 134.54 37.88C134.51 37.8 134.47 37.72 134.43 37.64C134.47 37.51 134.48 37.38 134.47 37.25C134.57 37.1 134.64 36.94 134.66 36.77C134.73 36.23 134.35 35.49 133.91 35.2C133.9 35.19 133.89 35.19 133.88 35.19C133.87 35.01 133.81 34.84 133.67 34.7C133.6 34.62 133.52 34.56 133.43 34.51C133.78 34.15 133.99 33.68 133.81 33.17C133.61 32.62 133.06 32.28 132.41 31.89C132.36 31.86 132.29 31.84 132.23 31.81C132.18 31.77 132.14 31.72 132.09 31.69C132.11 31.53 132.11 31.38 132.08 31.24C131.97 30.84 131.55 30.45 131.14 30.28C130.99 29.72 130.46 29.07 129.87 28.87C129.79 28.64 129.63 28.41 129.44 28.23C129.33 27.94 129.1 27.7 128.82 27.49C128.86 27.13 128.77 26.78 128.49 26.5C128.36 26.37 128.19 26.28 128.01 26.21C127.96 26 127.86 25.81 127.68 25.64C127.57 25.54 127.44 25.46 127.3 25.41C127.26 25.32 127.22 25.23 127.15 25.14C126.9 24.81 126.5 24.65 126.03 24.53C126.03 24.5 126.03 24.47 126.03 24.44C125.92 23.86 125.41 23.44 124.82 22.95C124.81 22.94 124.79 22.93 124.78 22.92C124.53 22.55 124.07 22.39 123.54 22.22C123.52 22.17 123.49 22.12 123.47 22.07C123.34 21.78 123.03 21.49 122.69 21.33C122.62 21.25 122.54 21.17 122.46 21.09C122.17 20.75 121.59 20.48 121.09 20.5C120.94 20.01 120.62 19.55 120.2 19.39C119.83 19.25 119.3 19.32 118.89 19.5C118.67 19.34 118.42 19.2 118.15 19.04C117.95 18.91 117.68 18.83 117.39 18.79C117.26 18.65 117.11 18.53 116.94 18.48C116.82 18.44 116.69 18.43 116.54 18.44C116.33 18.31 116.09 18.21 115.86 18.18C115.72 18.05 115.58 17.93 115.44 17.87C115.06 17.71 114.69 17.67 114.33 17.73C114.3 17.71 114.27 17.69 114.24 17.67C114.18 17.56 114.11 17.45 114.01 17.36C113.8 17.17 113.53 17.08 113.23 17.03C113.19 16.98 113.16 16.93 113.11 16.89C112.73 16.55 112.18 16.49 111.55 16.47C111.4 16.36 111.24 16.29 111.08 16.24C111.06 16.21 111.06 16.16 111.04 16.13C110.74 15.69 109.96 15.4 109.44 15.48C109.25 15.51 109.08 15.57 108.92 15.64C108.68 15.46 108.41 15.35 108.15 15.38C108.08 15.39 108 15.42 107.92 15.45C107.77 15.42 107.61 15.39 107.43 15.37C107.3 14.93 107.02 14.49 106.7 14.28C106.17 13.94 105.58 13.85 105.04 13.98C104.81 13.94 104.56 13.91 104.29 13.89C104.14 13.87 103.97 13.87 103.8 13.9C103.44 13.66 102.99 13.53 102.63 13.64C102.6 13.65 102.57 13.68 102.54 13.69C102.47 13.67 102.39 13.66 102.32 13.64C102.06 13.57 101.74 13.57 101.42 13.63C101.37 13.63 101.32 13.61 101.27 13.61C100.98 13.63 100.72 13.71 100.49 13.83C100.38 13.8 100.27 13.78 100.15 13.75C99.63 13.6 98.82 13.74 98.4 14.14C98.08 13.89 97.63 13.74 97.27 13.83C96.74 13.52 95.8 13.45 95.33 13.87C95.27 13.92 95.23 14 95.18 14.07C95.04 14.02 94.91 13.99 94.77 13.98C94.71 13.93 94.64 13.87 94.58 13.84C93.92 13.5 93.22 13.54 92.65 13.86C92.38 13.73 92.09 13.66 91.84 13.74C91.83 13.74 91.82 13.75 91.8 13.76C91.39 13.52 90.89 13.39 90.5 13.54C90.43 13.57 90.36 13.62 90.3 13.67C90.24 13.67 90.19 13.66 90.14 13.65C89.85 13.61 89.5 13.66 89.17 13.78C88.96 13.65 88.73 13.55 88.52 13.53C87.83 13.46 87.24 13.71 86.82 14.15C86.44 13.68 85.57 13.31 85 13.55C84.95 13.57 84.9 13.62 84.85 13.65C84.55 13.64 84.2 13.75 83.94 13.94C83.83 13.93 83.73 13.93 83.64 13.95C83.27 14.02 82.97 14.21 82.75 14.46C82.71 14.45 82.67 14.43 82.62 14.43C82.46 14.3 82.29 14.2 82.1 14.15C81.54 14.02 80.72 14.35 80.37 14.79C80.22 14.98 80.12 15.18 80.04 15.39C79.96 15.44 79.89 15.51 79.82 15.57C79.22 15.43 78.38 15.59 78.03 16.06C77.95 16.17 77.89 16.32 77.84 16.48C77.78 16.51 77.72 16.52 77.67 16.56C77.6 16.62 77.53 16.71 77.48 16.81C77.19 16.81 76.87 16.9 76.62 17.05C76.03 17 75.2 17.32 74.95 17.87C74.93 17.91 74.93 17.96 74.92 18C74.63 17.97 74.26 18.1 74 18.3C73.52 18.14 72.96 18.11 72.59 18.36C72.39 18.49 72.23 18.72 72.12 18.98C71.78 18.97 71.44 19.03 71.2 19.16C70.87 19.35 70.62 19.61 70.45 19.9C70.28 19.96 70.13 20.04 70.02 20.14C70.01 20.15 70.01 20.15 70 20.16C69.58 20.17 69.1 20.38 68.86 20.67C68.69 20.88 68.57 21.1 68.51 21.34C68.1 21.45 67.69 21.7 67.49 22.04C67.35 22.15 67.23 22.27 67.13 22.4C66.71 22.58 66.3 22.95 66.15 23.32C66.01 23.64 65.97 23.97 65.99 24.28C65.18 24.54 64.63 25.25 64.54 26.13C64.08 26.14 63.55 26.33 63.27 26.67C63.08 26.71 62.91 26.78 62.77 26.89C62.48 27.12 62.28 27.58 62.23 28.01C62 28.27 61.85 28.63 61.83 28.93C61.64 29.09 61.48 29.34 61.41 29.59C61.01 29.66 60.61 29.85 60.44 30.17C60.4 30.24 60.39 30.32 60.37 30.4C59.95 30.58 59.58 30.89 59.45 31.26C59.34 31.59 59.41 32.03 59.58 32.41C59.57 32.43 59.56 32.45 59.55 32.46C59.5 32.56 59.47 32.67 59.45 32.79C59.28 33.03 59.18 33.3 59.16 33.57C59.01 33.67 58.87 33.79 58.74 33.94C58.61 33.97 58.49 34.01 58.38 34.07C57.93 34.36 57.61 35.12 57.67 35.64C57.69 35.79 57.72 35.93 57.77 36.06C57.75 36.11 57.73 36.15 57.71 36.2C57.21 36.54 56.86 37.08 56.74 37.72C56.7 37.92 56.7 38.15 56.73 38.37C56.7 38.43 56.68 38.48 56.66 38.55C56.39 38.83 56.22 39.31 56.27 39.66C56.28 39.73 56.3 39.79 56.32 39.85C56.23 39.92 56.15 39.99 56.1 40.08C56.01 40.24 55.98 40.46 55.99 40.69C55.91 40.76 55.85 40.83 55.78 40.91C55.25 40.77 54.46 41.07 54.12 41.49C54.05 41.58 53.99 41.67 53.93 41.77C53.87 41.79 53.82 41.82 53.76 41.84C53.74 41.84 53.73 41.83 53.72 41.83C53.38 41.48 52.82 41.22 52.39 41.23C51.85 41.24 51.38 41.44 51.02 41.76C50.98 41.76 50.94 41.76 50.91 41.77C50.84 41.79 50.78 41.83 50.72 41.86C50.58 41.8 50.44 41.75 50.31 41.74C50.13 41.73 49.96 41.75 49.79 41.78C49.7 41.7 49.61 41.62 49.5 41.58C49.05 41.38 48.3 41.53 47.93 41.85C47.84 41.93 47.76 42.02 47.69 42.1C47.47 42.06 47.25 42.05 47.06 42.13C46.77 42.26 46.52 42.59 46.39 42.93C46.34 42.96 46.28 42.98 46.24 43.01C45.76 42.81 45.18 42.75 44.79 42.99C44.51 43.16 44.28 43.51 44.15 43.88C43.95 44.03 43.78 44.21 43.7 44.4C43.7 44.41 43.69 44.42 43.69 44.43C43.48 44.5 43.3 44.6 43.13 44.74C43.08 44.74 43.03 44.73 42.98 44.73C42.36 44.65 41.42 45.03 41.17 45.64C41.13 45.73 41.12 45.84 41.11 45.95C40.86 45.99 40.61 46.08 40.45 46.22C40.37 46.29 40.3 46.36 40.24 46.44C39.95 46.47 39.65 46.57 39.47 46.74C39.46 46.75 39.44 46.77 39.43 46.78C39.29 46.78 39.16 46.8 39.05 46.84C38.86 46.9 38.7 46.99 38.55 47.1C38.19 46.96 37.8 46.91 37.48 47.03C37.13 47.16 36.81 47.53 36.61 47.91C36.39 48.04 36.2 48.2 36.09 48.38C35.94 48.62 35.85 48.87 35.82 49.12C35.73 49.16 35.64 49.19 35.57 49.25C35.35 49.45 35.21 49.83 35.2 50.17C35.16 50.21 35.14 50.26 35.1 50.3C34.93 50.33 34.77 50.38 34.65 50.45C34.34 50.64 34.11 50.89 33.96 51.18C33.37 51.44 32.91 51.94 32.69 52.6C32.66 52.7 32.63 52.81 32.62 52.92C32.26 52.94 31.91 53.06 31.69 53.29C31.46 53.54 31.35 53.98 31.36 54.38C31.18 54.61 31.06 54.88 31.01 55.17C30.87 55.3 30.76 55.45 30.68 55.61C30.4 55.72 30.16 55.9 29.98 56.13C29.42 56.34 29.02 56.75 28.82 57.26C28.78 57.28 28.72 57.28 28.68 57.3C28.35 57.5 28.12 58.01 28.11 58.42C28.08 58.45 28.04 58.48 28.01 58.51C27.95 58.59 27.89 58.68 27.85 58.77C27.28 58.8 26.61 59.1 26.39 59.59C26.27 59.86 26.28 60.23 26.36 60.57C26.05 60.82 25.8 61.15 25.71 61.47C25.56 62 25.62 62.52 25.82 62.96C25.51 63.09 25.24 63.28 25.1 63.54C24.84 64.02 24.93 64.85 25.25 65.28C25.29 65.33 25.33 65.37 25.37 65.41C25.37 65.45 25.37 65.5 25.38 65.54C25.3 65.64 25.23 65.74 25.17 65.85C24.79 66.11 24.48 66.57 24.41 66.96C24.33 67.43 24.4 67.86 24.58 68.24C24.55 68.3 24.52 68.35 24.5 68.41C24.37 68.73 24.34 69.17 24.46 69.54C24.44 69.59 24.42 69.63 24.41 69.68C24.4 69.71 24.4 69.73 24.4 69.76C24.02 70.2 23.88 70.8 24.03 71.4C24.03 71.41 24.04 71.42 24.04 71.43C24.02 71.46 24 71.48 23.99 71.51C23.9 71.68 23.84 71.91 23.84 72.13C23.72 72.27 23.61 72.44 23.53 72.62C23.45 72.81 23.41 73.04 23.42 73.28C23.28 73.5 23.18 73.75 23.14 74.03C23.12 74.15 23.13 74.29 23.14 74.43C23.11 74.48 23.08 74.53 23.05 74.59C22.81 74.7 22.6 74.86 22.47 75.06C22.19 75.52 22.24 76.35 22.53 76.79C22.63 76.94 22.74 77.06 22.86 77.17C22.85 77.41 22.87 77.66 22.94 77.9C23.07 78.37 23.44 78.89 23.91 79.17C23.9 79.25 23.89 79.34 23.89 79.43C23.89 79.59 23.92 79.77 23.97 79.94C23.71 80.65 23.87 81.79 24.72 82.03C24.8 82.14 24.89 82.23 25 82.32C24.91 82.5 24.85 82.68 24.83 82.85C24.79 83.31 24.9 83.72 25.11 84.07C25.09 84.38 25.15 84.69 25.27 84.92C25.37 85.1 25.5 85.25 25.63 85.39C25.62 85.73 25.68 86.07 25.82 86.4C25.94 86.68 26.16 86.96 26.43 87.18C26.49 87.36 26.59 87.54 26.71 87.68C26.64 87.78 26.57 87.89 26.51 88.01C26.12 88.78 26.17 90.15 27.17 90.47C27.28 90.5 27.39 90.51 27.5 90.52C27.53 90.55 27.56 90.58 27.6 90.61C27.47 90.88 27.4 91.18 27.42 91.42C27.46 91.96 27.69 92.41 28.03 92.75C28.06 92.96 28.13 93.16 28.23 93.31C28.37 93.51 28.55 93.67 28.74 93.78C28.69 94.15 28.79 94.61 29.06 94.87C29.08 94.94 29.1 95.01 29.13 95.06C29.33 95.39 29.6 95.63 29.91 95.78C29.97 96.02 30.08 96.25 30.22 96.46C30.35 96.65 30.53 96.82 30.74 96.97C30.82 97.12 30.93 97.25 31.1 97.34C31.28 97.44 31.49 97.47 31.71 97.47C31.81 97.79 32 98.11 32.26 98.31C32.51 98.73 32.91 99.05 33.39 99.22C33.46 99.3 33.54 99.38 33.62 99.45C33.74 99.91 34 100.34 34.39 100.67C34.41 100.68 34.43 100.7 34.44 100.71C34.52 100.9 34.64 101.07 34.84 101.19C35.04 101.31 35.27 101.35 35.52 101.36C35.6 101.53 35.7 101.7 35.82 101.85C36.03 102.11 36.37 102.33 36.73 102.45C36.85 102.61 36.99 102.74 37.17 102.81C37.19 102.87 37.21 102.94 37.24 103C37.28 103.08 37.33 103.16 37.38 103.23C37.37 103.94 37.68 104.74 38.45 104.86H38.46C38.65 105.28 39 105.61 39.49 105.63C39.61 105.63 39.73 105.61 39.85 105.58C39.94 105.94 40.11 106.3 40.37 106.6C40.64 106.91 41.06 107.17 41.51 107.28C41.59 107.52 41.74 107.73 41.98 107.87C42.31 108.05 42.71 108.05 43.15 107.98C43.58 108.53 44.4 108.96 45.06 108.63C45.18 108.65 45.3 108.66 45.43 108.62C45.58 108.58 45.71 108.5 45.83 108.41C45.94 108.5 46.05 108.57 46.17 108.62C46.54 109 47.05 109.24 47.63 109.28C47.87 109.3 48.14 109.26 48.4 109.18C48.48 109.19 48.56 109.19 48.64 109.19C48.72 109.26 48.8 109.33 48.89 109.39C49.05 109.91 49.41 110.35 49.98 110.4C50.35 110.43 50.71 110.28 51.08 110.07C51.21 110.08 51.35 110.06 51.5 110.03C51.74 110.29 52.03 110.5 52.38 110.63C52.77 110.78 53.3 110.81 53.76 110.67C54.11 111.14 54.69 111.48 55.24 111.25C55.49 111.34 55.76 111.39 56.04 111.38C56.06 111.4 56.08 111.42 56.11 111.44C56.76 111.95 58.06 112.17 58.55 111.29C58.58 111.23 58.59 111.17 58.61 111.11C58.7 111.04 58.79 110.97 58.88 110.9C58.96 110.92 59.04 110.95 59.13 110.96C59.21 110.97 59.29 110.98 59.37 110.98C59.49 111.06 59.62 111.14 59.75 111.2C60.41 111.5 61.49 111.45 61.92 110.78C62.04 110.74 62.15 110.69 62.26 110.63C62.28 110.62 62.29 110.61 62.31 110.6C62.42 110.6 62.52 110.59 62.63 110.57C62.92 110.69 63.23 110.72 63.54 110.69C63.99 111.12 64.62 111.37 65.19 111.03C65.5 110.85 65.7 110.53 65.87 110.15C66.2 110.33 66.58 110.43 66.99 110.43C67.46 110.43 68.04 110.2 68.4 109.82C68.5 109.79 68.59 109.74 68.69 109.68C68.81 109.8 68.95 109.89 69.13 109.94C69.41 110.01 69.7 109.95 70.01 109.84C70.12 109.89 70.24 109.93 70.37 109.94C70.84 109.98 71.28 109.72 71.76 109.39C72.11 109.51 72.5 109.54 72.84 109.45C73.03 109.47 73.22 109.46 73.42 109.37C73.66 109.27 73.85 109.08 74.02 108.86C74.36 108.76 74.66 108.54 74.96 108.24C75.63 108.41 76.5 108.26 76.75 107.55C77.31 107.8 77.99 107.83 78.39 107.31C78.53 107.12 78.6 106.9 78.64 106.65C78.71 106.61 78.79 106.57 78.87 106.53C78.95 106.5 79.02 106.43 79.09 106.38C79.54 106.49 80.13 106.4 80.41 106.01C80.67 106.01 80.98 105.92 81.24 105.77C81.8 105.83 82.49 105.64 82.79 105.15C82.85 105.46 82.97 105.76 83.16 106.04C83.23 106.14 83.32 106.24 83.42 106.33C83.48 106.55 83.59 106.75 83.81 106.9C83.85 106.93 83.9 106.94 83.94 106.96C83.95 107.34 84.09 107.7 84.44 107.92C84.52 107.97 84.62 108 84.71 108.03C84.77 108.44 84.97 108.8 85.38 108.97C85.56 109.04 85.75 109.05 85.94 109.04C86 109.18 86.08 109.31 86.17 109.43C86.28 109.71 86.45 109.94 86.65 110.13C86.59 110.87 86.88 111.74 87.67 111.89C87.82 112.04 87.98 112.16 88.15 112.25C88.24 112.47 88.39 112.66 88.61 112.8C89.12 113.11 89.78 113.02 90.53 112.92C90.57 112.92 90.62 112.91 90.66 112.9C90.89 113.53 91.43 114.12 92.14 113.98C92.15 113.98 92.17 113.97 92.18 113.96C92.42 114.19 92.74 114.34 93.1 114.27C93.24 114.25 93.37 114.19 93.49 114.13C93.8 114.29 94.15 114.37 94.52 114.37C94.53 114.37 94.55 114.37 94.56 114.37C94.66 114.44 94.77 114.5 94.89 114.52C95.29 114.96 95.88 115.23 96.53 115.24C96.53 115.24 96.53 115.24 96.54 115.24C96.75 115.41 97 115.54 97.26 115.6C97.43 115.75 97.62 115.88 97.84 115.98C98.06 116.08 98.32 116.14 98.59 116.16C98.66 116.25 98.74 116.34 98.85 116.41C99.31 116.73 99.93 116.67 100.65 116.61C100.66 116.61 100.68 116.61 100.69 116.61C100.9 116.78 101.16 116.87 101.45 116.8C101.64 116.75 101.8 116.64 101.95 116.49C101.96 116.5 101.98 116.51 101.99 116.52C102.45 116.79 103.21 116.85 103.65 116.47C103.74 116.46 103.84 116.44 103.93 116.42C104.36 116.62 104.88 116.66 105.37 116.5C105.43 116.48 105.49 116.45 105.54 116.43C105.87 116.55 106.25 116.57 106.56 116.44C106.85 116.87 107.28 117.18 107.83 117.09C108.21 117.02 108.53 116.77 108.84 116.45C108.92 116.48 109.01 116.5 109.1 116.52C109.26 116.64 109.46 116.72 109.69 116.72C109.87 116.72 110.05 116.67 110.22 116.59C110.44 116.77 110.71 116.87 111.03 116.83C111.34 116.79 111.61 116.62 111.87 116.39C112.16 116.47 112.47 116.5 112.79 116.46C112.89 116.45 112.99 116.42 113.1 116.39C113.51 116.55 113.99 116.59 114.35 116.37C114.62 116.4 114.9 116.38 115.18 116.31C115.4 116.25 115.62 116.14 115.83 116C115.91 116 115.98 115.98 116.07 115.96C116.32 115.97 116.59 115.94 116.89 115.89C117.15 116.06 117.45 116.18 117.79 116.23C118.24 116.29 118.82 116.15 119.22 115.84C119.42 115.92 119.64 115.93 119.88 115.87C120.3 115.75 120.61 115.42 120.91 114.99C120.99 114.98 121.07 114.97 121.16 114.95C121.54 114.91 122.01 114.68 122.33 114.36C122.63 114.3 122.94 114.15 123.16 113.93C123.39 113.91 123.63 113.84 123.83 113.73C124.32 113.8 124.97 113.64 125.33 113.25C125.71 113.44 126.13 113.49 126.52 113.24C126.75 113.09 126.91 112.87 127.04 112.61C127.3 112.75 127.59 112.82 127.92 112.74C128.3 112.64 128.59 112.37 128.88 112.02C129.45 112.12 130.06 112.01 130.36 111.47C130.52 111.2 130.55 110.88 130.54 110.54C130.88 110.38 131.14 110.11 131.19 109.72C131.2 109.71 131.22 109.7 131.23 109.69C131.29 109.62 131.32 109.55 131.36 109.47C131.66 109.28 131.95 109.01 132.27 108.7C132.29 108.68 132.31 108.66 132.33 108.64C132.74 108.6 133.12 108.42 133.31 108.01C133.38 107.86 133.4 107.7 133.41 107.54C133.48 107.49 133.54 107.43 133.6 107.36C133.81 107.09 133.85 106.74 133.86 106.33C134.26 106.2 134.61 105.91 134.64 105.49C134.74 105.36 134.84 105.2 134.93 105.03C135.09 104.96 135.25 104.88 135.43 104.8C135.78 104.66 136.15 104.28 136.31 103.87C136.34 103.85 136.37 103.84 136.4 103.81C136.96 103.39 137.44 102.44 137.07 101.75C137.11 101.7 137.16 101.65 137.19 101.58C137.25 101.47 137.27 101.35 137.28 101.23C137.89 101.07 138.46 100.64 138.43 99.97C138.42 99.81 138.37 99.66 138.31 99.51C138.37 99.37 138.42 99.23 138.48 99.08C138.49 99.06 138.5 99.03 138.51 99.01C139.2 98.6 139.83 97.59 139.35 96.81C139.35 96.8 139.35 96.79 139.36 96.77C139.42 96.53 139.41 96.22 139.34 95.92C139.55 95.8 139.73 95.61 139.8 95.34C139.88 95.04 139.82 94.72 139.7 94.39C140.15 93.99 140.45 93.35 140.11 92.8C140.1 92.78 140.08 92.77 140.07 92.75C140.07 92.67 140.07 92.59 140.07 92.5C140.4 92.28 140.64 91.94 140.6 91.51C140.58 91.24 140.45 91 140.26 90.76C140.41 90.54 140.48 90.28 140.38 90.01C140.34 89.9 140.28 89.81 140.21 89.72C140.45 89.4 140.57 88.85 140.44 88.43C140.45 88.26 140.44 88.08 140.43 87.89C140.43 87.88 140.43 87.87 140.43 87.87C140.48 87.81 140.52 87.76 140.57 87.7C140.64 87.62 140.7 87.51 140.76 87.4C140.99 87.28 141.19 87.09 141.27 86.81C141.37 86.47 141.29 86.12 141.16 85.73C141.62 85.18 141.87 84.31 141.58 83.76ZM115.16 113.09C114.79 112.87 114.22 112.8 113.72 112.89C113.44 112.86 113.11 112.94 112.83 113.09C112.33 112.86 111.66 112.81 111.2 113.06C111.03 113.1 110.87 113.15 110.73 113.23C110.71 113.23 110.68 113.21 110.66 113.21C110.32 113.18 110.01 113.25 109.74 113.37C109.62 113.29 109.5 113.23 109.37 113.2C109.27 113.18 109.17 113.19 109.06 113.2C108.78 113.07 108.47 113 108.22 113.03C107.77 113.07 107.39 113.24 107.08 113.49C106.9 113.43 106.73 113.39 106.56 113.43C106.46 113.45 106.37 113.5 106.27 113.55C106.17 113.5 106.06 113.45 105.96 113.44C105.74 113.42 105.48 113.5 105.26 113.63C105.25 113.63 105.25 113.62 105.24 113.62C104.74 113.36 103.86 113.37 103.42 113.76C103.37 113.76 103.33 113.76 103.28 113.77C103.06 113.58 102.8 113.45 102.54 113.44C102.31 113.44 102.05 113.55 101.82 113.71C101.36 113.36 100.84 113.24 100.34 113.3C100.17 113.13 99.94 112.99 99.68 112.89C99.32 112.4 98.7 111.97 98.15 112.02C98.06 112.03 97.96 112.07 97.86 112.1C97.72 112.07 97.58 112.07 97.43 112.08C97.41 112.07 97.4 112.05 97.39 112.04C96.97 111.6 96.06 111.29 95.44 111.51C95.38 111.45 95.31 111.4 95.25 111.34C95.11 111.2 94.9 111.08 94.68 110.98C94.42 110.76 94.06 110.61 93.73 110.57C93.38 110.25 92.82 110.05 92.41 110.1C92.28 110.12 92.15 110.15 92.03 110.18C91.92 110.03 91.81 109.89 91.68 109.8C91.34 109.56 90.97 109.43 90.61 109.39C90.5 108.86 89.89 108.28 89.38 108.15C89.34 108.14 89.31 108.14 89.27 108.13C89.1 107.98 88.92 107.83 88.72 107.68C88.71 107.67 88.69 107.66 88.68 107.65C88.66 107.45 88.62 107.26 88.51 107.12C88.49 107.1 88.46 107.08 88.44 107.06C88.36 106.63 88.04 106.17 87.68 105.96C87.56 105.66 87.37 105.39 87.16 105.23C87.05 105.15 86.93 105.08 86.81 105.03C86.71 104.82 86.59 104.63 86.44 104.52C86.38 104.48 86.32 104.44 86.27 104.41C86.25 103.78 85.93 103.02 85.4 102.77C85.26 102.7 85.09 102.67 84.91 102.66C84.87 102.61 84.83 102.56 84.79 102.52C84.55 102.21 84.16 102 83.7 101.77C83.22 101.48 82.31 101.45 81.89 101.86C81.81 101.94 81.73 102.05 81.68 102.17C81.58 102.21 81.49 102.26 81.4 102.31C81.16 102.22 80.9 102.19 80.68 102.25C80.34 102.34 80 102.67 79.8 103.02C79.64 103.03 79.48 103.06 79.35 103.14C79.21 103.23 79.08 103.38 78.98 103.55C78.72 103.59 78.46 103.79 78.27 104.03C78.2 104.04 78.14 104.05 78.07 104.07C77.96 103.98 77.83 103.9 77.7 103.86C77.21 103.72 76.46 103.97 76.13 104.34C76 104.49 75.9 104.66 75.82 104.82C75.55 104.62 75.25 104.5 74.96 104.51C74.6 104.53 74.18 104.8 73.91 105.11C73.8 105.14 73.69 105.18 73.59 105.23C73.32 105.19 73.04 105.2 72.83 105.27C72.62 105.34 72.45 105.44 72.28 105.56C72.26 105.56 72.24 105.55 72.22 105.54C71.73 105.49 71.1 105.83 70.8 106.23C70.43 106.33 70.11 106.54 69.85 106.82C69.56 106.88 69.3 107.02 69.08 107.21C68.85 107.15 68.58 107.14 68.32 107.2C68.07 107.15 67.82 107.17 67.58 107.24C67.09 106.86 66.22 106.65 65.69 106.96C65.64 106.99 65.6 107.04 65.55 107.08C65.1 106.9 64.49 106.9 64.11 107.09C63.89 107.2 63.71 107.34 63.55 107.49C63.5 107.49 63.45 107.49 63.4 107.49C63.04 107.46 62.57 107.59 62.2 107.82C62.08 107.82 61.96 107.84 61.84 107.87C61.74 107.85 61.65 107.82 61.54 107.8C61.39 107.76 61.22 107.74 61.05 107.74C60.73 107.49 60.36 107.33 60.01 107.37C59.62 107.41 59.17 107.71 58.89 108.06C58.78 108.06 58.67 108.06 58.58 108.1C58.56 108.11 58.53 108.13 58.51 108.14C58.35 108.13 58.2 108.14 58.05 108.17C57.82 107.93 57.55 107.76 57.27 107.71C56.95 107.66 56.57 107.78 56.24 107.98C56.14 107.95 56.06 107.92 55.95 107.9C55.57 107.66 54.95 107.6 54.57 107.76C54.46 107.81 54.35 107.87 54.26 107.93C54.25 107.92 54.25 107.9 54.24 107.89C53.97 107.28 53.12 106.63 52.44 106.73C52.35 106.74 52.26 106.79 52.17 106.83C51.93 106.63 51.64 106.49 51.39 106.44C51.03 106.38 50.7 106.42 50.39 106.51C50.1 106.27 49.74 106.11 49.42 106.14C49.27 106.16 49.12 106.22 48.98 106.3C48.92 106.27 48.86 106.25 48.79 106.23C48.75 106.19 48.72 106.15 48.68 106.11C48.25 105.6 47.24 105.21 46.6 105.51C46.56 105.53 46.53 105.57 46.49 105.59C46.31 105.47 46.09 105.39 45.87 105.36C45.74 105.1 45.57 104.88 45.34 104.75C44.95 104.53 44.33 104.57 43.88 104.76C43.7 104.72 43.52 104.72 43.34 104.73C43.3 104.07 42.87 103.23 42.26 103.01C42.16 102.98 42.05 102.97 41.94 102.96C41.93 102.92 41.93 102.88 41.92 102.85C41.81 102.54 41.51 102.26 41.18 102.06C40.96 101.61 40.47 101.18 40.03 101.08C39.94 101.06 39.86 101.05 39.77 101.05C39.68 100.85 39.57 100.66 39.41 100.56C39.27 100.46 39.07 100.42 38.87 100.4C38.77 100.28 38.63 100.17 38.47 100.09C38.4 99.52 38.05 98.86 37.54 98.67C37.49 98.65 37.42 98.65 37.36 98.64C37.35 98.63 37.35 98.62 37.34 98.62C37.25 98.56 37.16 98.51 37.07 98.46C36.97 97.78 36.39 96.94 35.71 96.81C35.62 96.79 35.51 96.81 35.41 96.81C35.31 96.66 35.19 96.5 35.07 96.33C34.92 96.1 34.68 95.88 34.39 95.72C34.25 95.52 33.99 95.36 33.72 95.27C33.61 95.09 33.48 94.93 33.34 94.83C33.27 94.79 33.2 94.76 33.13 94.72C33.07 94.16 32.78 93.54 32.33 93.32C32.15 93.23 31.92 93.21 31.69 93.21C31.56 93.16 31.42 93.11 31.28 93.07C31.26 93.02 31.24 92.97 31.2 92.93C31.31 92.7 31.37 92.45 31.33 92.21C31.39 92.04 31.43 91.87 31.4 91.67C31.32 91.15 30.91 90.75 30.43 90.31C30.42 90.24 30.4 90.17 30.37 90.11C30.46 89.93 30.51 89.72 30.46 89.49C30.43 89.33 30.35 89.2 30.26 89.06C30.42 88.8 30.52 88.52 30.5 88.25C30.47 87.68 29.92 86.98 29.39 86.77C29.23 86.71 29.07 86.67 28.91 86.64C29.05 86.31 29.08 85.91 28.95 85.61C29.07 85.24 29.07 84.73 28.93 84.3C28.96 84.06 28.93 83.82 28.78 83.6C28.73 83.52 28.65 83.45 28.58 83.38C28.47 82.95 28.15 82.55 27.79 82.1C27.75 82.05 27.7 81.99 27.66 81.94C27.66 81.89 27.64 81.85 27.64 81.81C27.73 81.63 27.78 81.42 27.73 81.19C27.68 80.97 27.56 80.77 27.4 80.59C27.54 80.33 27.62 80.05 27.58 79.79C27.52 79.41 27.2 78.98 26.83 78.74C26.83 78.56 26.81 78.39 26.73 78.24C26.64 78.08 26.47 77.94 26.27 77.82C26.27 77.76 26.27 77.71 26.26 77.65C26.26 77.65 26.26 77.64 26.27 77.64C26.53 77.18 26.6 76.42 26.38 75.86C26.4 75.59 26.35 75.33 26.17 75.09C26.11 75.01 26.03 74.95 25.95 74.89C25.98 74.74 25.98 74.6 25.95 74.47C26.17 74.14 26.28 73.73 26.22 73.38C26.4 73.13 26.51 72.85 26.47 72.59C26.46 72.47 26.4 72.35 26.34 72.23C26.46 72.06 26.55 71.87 26.54 71.68C26.54 71.65 26.52 71.62 26.52 71.59C26.58 71.48 26.64 71.37 26.7 71.25C26.89 70.94 26.95 70.47 26.88 70.05C26.99 69.87 27.05 69.68 27.06 69.49C27.16 69.4 27.24 69.31 27.32 69.2C27.76 69.03 28.12 68.7 28.17 68.2C28.21 67.8 28.04 67.42 27.8 67.02C27.92 66.81 28 66.52 28.01 66.23C28.13 66.08 28.21 65.9 28.2 65.68C28.2 65.67 28.19 65.65 28.19 65.64C28.72 65.28 29.17 64.54 29.03 63.88C29.27 63.71 29.45 63.48 29.52 63.16C29.62 62.65 29.39 62.13 29.09 61.56C29.18 61.51 29.27 61.46 29.36 61.4C29.79 61.09 30.16 60.48 30.14 59.91C30.47 59.84 30.81 59.66 31.03 59.4C31.27 59.17 31.48 58.87 31.71 58.54C31.85 58.36 31.95 58.1 32.02 57.83C32.06 57.79 32.09 57.75 32.13 57.71C32.24 57.6 32.32 57.45 32.4 57.28C32.46 57.21 32.51 57.14 32.56 57.06C32.58 57.05 32.6 57.06 32.62 57.05C33.08 56.9 33.37 56.44 33.7 55.91C33.71 55.9 33.71 55.88 33.72 55.87C33.76 55.86 33.81 55.85 33.85 55.84C34.4 55.67 35 55.12 35.05 54.5C35.22 54.41 35.39 54.31 35.56 54.21C36.17 53.91 36.79 53.01 36.67 52.31C36.68 52.27 36.69 52.24 36.7 52.2V52.19C36.83 52.01 36.94 51.8 37.06 51.57C37.08 51.55 37.08 51.51 37.09 51.48C37.1 51.48 37.1 51.48 37.11 51.48C37.28 51.45 37.45 51.37 37.61 51.26C38.08 51.31 38.55 51.17 38.8 50.75C39.56 50.69 40.41 50.25 40.42 49.41C40.66 49.42 40.89 49.35 41.08 49.15C41.17 49.06 41.23 48.95 41.28 48.83C41.54 48.86 41.79 48.8 41.99 48.59C42.11 48.46 42.18 48.31 42.24 48.13C42.4 48.05 42.55 47.94 42.71 47.8C43.25 47.87 43.81 47.72 44.28 47.35C44.44 47.22 44.59 47.05 44.71 46.86C44.72 46.86 44.72 46.85 44.73 46.85C44.84 46.8 44.94 46.73 45.04 46.65C45.46 46.71 45.93 46.62 46.19 46.31C46.92 46.3 47.9 45.77 47.93 44.94C48.04 44.95 48.16 44.94 48.29 44.92C48.77 45.19 49.37 45.28 49.8 44.88C49.98 44.83 50.17 44.73 50.35 44.6C50.48 44.68 50.61 44.74 50.76 44.75C51.02 45.06 51.37 45.26 51.8 45.22C52.33 45.17 52.75 44.78 53.22 44.32C53.31 44.31 53.39 44.3 53.48 44.28C53.66 44.43 53.89 44.51 54.14 44.47C54.23 44.46 54.31 44.42 54.39 44.39C54.82 44.76 55.52 45.01 56.1 44.87C56.14 44.87 56.18 44.88 56.23 44.87C56.66 44.81 57.02 44.52 57.38 44.15C57.85 44.03 58.35 43.7 58.48 43.28C58.53 43.13 58.52 42.95 58.5 42.77C58.84 42.46 59.1 42.05 59.09 41.65C59.08 41.41 58.97 41.15 58.82 40.91C58.86 40.81 58.88 40.71 58.89 40.61C59.19 40.38 59.4 40.04 59.31 39.64C59.3 39.6 59.28 39.56 59.26 39.53C59.4 39.4 59.53 39.25 59.62 39.08C59.68 39.04 59.73 39 59.79 38.95C60.28 38.61 60.73 37.82 60.68 37.17C61.24 36.9 61.71 36.39 61.58 35.74C61.56 35.66 61.52 35.59 61.49 35.51C61.71 35.26 61.86 34.97 61.86 34.69C61.86 34.55 61.82 34.4 61.76 34.25C61.77 34.13 61.77 34.01 61.77 33.88C62.1 33.7 62.43 33.34 62.56 32.97C62.62 32.93 62.68 32.89 62.73 32.84C63.14 32.47 63.46 31.8 63.38 31.21C63.41 31.15 63.44 31.1 63.46 31.04C63.67 30.94 63.85 30.79 63.96 30.59C64.38 30.5 64.79 30.26 64.98 29.9C65.61 29.67 66.22 29.1 66.17 28.42C66.34 28.24 66.49 28.02 66.58 27.78C66.89 27.6 67.18 27.34 67.5 27.04C67.72 26.86 67.91 26.57 68.04 26.26C68.05 26.25 68.06 26.24 68.07 26.23C68.07 26.23 68.07 26.22 68.08 26.22C68.69 26.24 69.31 26.02 69.52 25.4C69.57 25.24 69.58 25.07 69.57 24.89C69.69 24.74 69.81 24.59 69.93 24.42C70.09 24.23 70.22 23.98 70.3 23.7C70.31 23.69 70.33 23.68 70.34 23.67C70.36 23.66 70.37 23.64 70.39 23.62C70.67 23.59 70.92 23.47 71.1 23.22C71.16 23.14 71.2 23.04 71.23 22.95C71.31 22.94 71.38 22.92 71.45 22.89C71.81 23.03 72.2 23.05 72.55 22.81C72.86 22.6 73.04 22.26 73.18 21.86C73.25 21.83 73.32 21.8 73.38 21.75C73.45 21.69 73.51 21.63 73.56 21.55C73.75 21.58 73.94 21.6 74.14 21.59C74.63 21.56 75.23 21.28 75.56 20.85C75.68 20.78 75.79 20.69 75.87 20.56C75.91 20.49 75.94 20.41 75.96 20.33C75.98 20.33 76 20.33 76.02 20.32C76.22 20.3 76.45 20.21 76.66 20.09C77.07 20.08 77.49 19.95 77.85 19.69C77.99 19.59 78.12 19.45 78.24 19.29C78.35 19.25 78.46 19.2 78.57 19.14C78.7 19.06 78.82 18.96 78.93 18.83C78.99 18.82 79.05 18.84 79.12 18.83C79.2 18.81 79.28 18.79 79.36 18.76C79.76 18.82 80.18 18.77 80.58 18.6C80.64 18.57 80.7 18.54 80.75 18.5C80.88 18.49 81.02 18.47 81.15 18.39C81.22 18.35 81.29 18.29 81.35 18.23C81.99 18.47 82.75 18.45 83.16 17.85C83.33 17.6 83.4 17.3 83.41 16.97C83.43 16.96 83.44 16.96 83.46 16.95C83.53 16.95 83.61 16.95 83.69 16.92C83.88 16.87 84.04 16.75 84.19 16.6C84.56 16.81 85.06 16.92 85.45 16.76C85.57 16.8 85.7 16.83 85.83 16.84C86.05 16.87 86.31 16.84 86.56 16.78C86.77 17.06 87.06 17.25 87.44 17.26C87.96 17.28 88.42 16.95 88.94 16.55C89.5 16.92 90.19 16.98 90.81 16.74C90.95 16.79 91.09 16.83 91.24 16.86C91.46 16.89 91.71 16.88 91.95 16.82C92.02 16.88 92.1 16.93 92.19 16.97C92.71 17.19 93.31 17.01 94.01 16.8C94.07 16.79 94.13 16.76 94.19 16.74C94.29 16.76 94.4 16.77 94.52 16.74C94.69 16.7 94.84 16.6 94.98 16.47C95.18 16.5 95.41 16.5 95.65 16.49C96.11 16.8 96.69 16.92 97.27 16.8C97.44 16.76 97.62 16.69 97.8 16.59C97.95 16.61 98.11 16.61 98.27 16.58C98.37 16.63 98.48 16.66 98.6 16.65C98.71 16.64 98.82 16.61 98.92 16.56C99.23 16.74 99.57 16.83 99.93 16.83C100.17 17.09 100.49 17.25 100.87 17.2C101.12 17.17 101.33 17.05 101.54 16.88C102.02 17 102.53 16.96 103.01 16.74C103.05 16.75 103.08 16.77 103.12 16.78C103.2 16.8 103.29 16.81 103.38 16.81C103.48 17.01 103.64 17.19 103.86 17.31C104.38 17.59 105.04 17.47 105.79 17.32C105.95 17.3 106.13 17.25 106.3 17.17C106.59 17.45 106.94 17.58 107.31 17.57C107.42 17.72 107.56 17.85 107.72 17.96C107.9 18.71 108.54 19.53 109.39 19.33C109.42 19.32 109.44 19.3 109.47 19.29C109.61 19.37 109.76 19.43 109.94 19.43C110 19.43 110.06 19.41 110.12 19.4C110.46 19.63 110.85 19.74 111.24 19.74C111.63 19.99 112.08 20.08 112.52 20.03C112.56 20.07 112.6 20.11 112.64 20.15C112.73 20.53 112.95 20.87 113.36 21C113.66 21.1 113.97 21.07 114.31 20.98C114.56 21.32 114.92 21.56 115.37 21.47C115.47 21.45 115.56 21.41 115.64 21.37C115.82 21.53 116.04 21.66 116.29 21.74C116.75 22.09 117.36 22.23 117.98 22.13C118.06 22.31 118.16 22.48 118.29 22.64C118.77 23.23 119.83 23.69 120.52 23.18C120.78 23.39 121.09 23.54 121.44 23.59C121.46 23.73 121.5 23.87 121.56 23.98C121.65 24.15 121.77 24.28 121.89 24.41C122.06 25.17 122.58 25.72 123.26 25.96C123.29 26.23 123.36 26.49 123.49 26.68C123.64 26.91 123.83 27.1 124.04 27.25C124.12 27.46 124.22 27.66 124.35 27.8C124.46 27.92 124.58 28.02 124.71 28.1C124.78 28.29 124.86 28.46 124.98 28.59C125.21 28.86 125.49 29.04 125.78 29.16C125.95 29.43 126.17 29.65 126.44 29.81C126.48 30.3 126.7 30.77 127.21 30.91C127.29 30.93 127.38 30.93 127.47 30.94C127.57 31.08 127.68 31.21 127.82 31.32C127.95 31.75 128.23 32.14 128.61 32.44C128.71 33 129.04 33.53 129.64 33.59C129.67 33.59 129.7 33.58 129.73 33.58C129.92 34.22 130.35 34.67 130.89 34.91C130.81 35.19 130.84 35.55 130.96 35.83C130.54 36.5 130.42 37.62 131.23 38.06C131.31 38.1 131.39 38.12 131.48 38.15C131.42 38.72 131.61 39.26 131.98 39.68C131.89 39.88 131.81 40.09 131.81 40.27C131.79 40.81 131.96 41.28 132.26 41.65C132.08 42.31 132.21 43.17 132.92 43.42C132.95 43.43 132.98 43.43 133.01 43.43C132.75 43.9 132.68 44.51 133.05 44.91C133.03 45.07 133.03 45.24 133.04 45.4C133.08 45.82 133.3 46.31 133.64 46.66C133.57 46.93 133.63 47.28 133.77 47.55C133.64 47.82 133.61 48.12 133.65 48.44C133.51 48.61 133.4 48.81 133.33 49.03C133.29 49.17 133.27 49.33 133.26 49.49C133.05 49.86 132.96 50.3 133.03 50.76C133.04 50.84 133.06 50.93 133.09 51.02C133.08 51.05 133.06 51.07 133.05 51.1C133.04 51.13 133.03 51.16 133.02 51.2C132.89 51.3 132.76 51.41 132.65 51.54C132.18 52.09 131.91 53.15 132.44 53.75C132.26 54.13 132.21 54.56 132.29 54.98C131.99 55.38 131.81 55.99 132 56.46C131.99 56.52 131.99 56.59 131.99 56.65L131.98 56.66C131.71 56.95 131.62 57.49 131.7 57.9C131.37 57.91 131.04 57.98 130.82 58.17C130.52 58.43 130.34 58.94 130.33 59.39C130.15 59.63 130.04 59.95 130.02 60.23C129.92 60.32 129.83 60.42 129.76 60.53C129.45 60.54 129.16 60.61 128.95 60.78C128.59 61.07 128.39 61.71 128.43 62.2C128.28 62.36 128.15 62.55 128.05 62.76C127.95 62.96 127.9 63.2 127.87 63.45C127.84 63.53 127.82 63.61 127.81 63.7C127.57 63.85 127.38 64.05 127.24 64.29C126.8 64.34 126.36 64.53 126.15 64.85C125.86 65.27 125.88 66.06 126.13 66.48C126.28 66.73 126.47 66.93 126.69 67.08C126.95 67.71 127.52 68.18 128.23 68.36C128.5 68.6 128.84 68.76 129.22 68.83C129.39 68.99 129.6 69.11 129.83 69.19C129.94 69.4 130.09 69.6 130.28 69.77C130.3 69.79 130.32 69.8 130.35 69.82C130.38 69.88 130.41 69.94 130.44 69.98C130.74 70.35 131.13 70.55 131.54 70.61C131.59 70.71 131.65 70.81 131.71 70.91C131.79 71.02 131.9 71.13 132.03 71.23C132.24 71.65 132.58 72.02 133.04 72.26C133.16 72.32 133.3 72.37 133.45 72.41C133.5 72.45 133.56 72.49 133.63 72.51C133.87 72.6 134.12 72.57 134.4 72.5C134.5 72.66 134.64 72.81 134.81 72.93C134.96 73.35 135.28 73.72 135.71 73.96C135.72 73.97 135.73 73.97 135.74 73.97C135.86 74.16 136.02 74.33 136.21 74.48C136.22 74.5 136.22 74.53 136.24 74.55C136.28 74.61 136.33 74.65 136.38 74.7C136.13 75.17 136.05 75.79 136.43 76.18C136.43 76.45 136.49 76.73 136.6 76.99C136.35 77.68 136.44 78.69 137.24 78.96C137.26 78.97 137.28 78.96 137.3 78.97C137.36 79.06 137.45 79.12 137.53 79.19C137.51 79.46 137.57 79.72 137.69 79.96C137.58 80.19 137.52 80.44 137.52 80.71C137.52 80.71 137.52 80.72 137.52 80.73C137.42 80.98 137.38 81.25 137.41 81.47C137.46 81.8 137.59 82.09 137.76 82.33C137.73 82.64 137.76 82.96 137.88 83.26C137.78 83.68 137.8 84.13 137.95 84.57C137.97 84.63 138 84.68 138.02 84.74C138.01 84.82 137.99 84.91 137.99 84.99C137.97 85.35 138.08 85.78 138.29 86.14C138.32 86.22 138.34 86.3 138.38 86.38C138.27 86.63 138.21 86.91 138.22 87.21C138.23 87.3 138.24 87.4 138.27 87.5C138.2 87.74 138.19 87.99 138.25 88.23C138.06 88.48 137.96 88.79 137.95 89.13C137.81 89.29 137.71 89.53 137.68 89.77C137.38 90.06 137.17 90.53 137.17 90.89C137.17 91.1 137.21 91.29 137.27 91.47C137.18 91.69 137.14 91.91 137.14 92.13C137.08 92.18 137.01 92.21 136.96 92.27C136.69 92.63 136.66 93.29 136.83 93.71C136.71 94.15 136.75 94.59 136.93 94.96C136.92 95.01 136.91 95.06 136.9 95.11C136.66 95.34 136.49 95.6 136.39 95.89C136.04 96 135.72 96.2 135.55 96.47C135.32 96.84 135.31 97.44 135.45 97.91C135.09 98.2 134.8 98.72 134.78 99.14C134.77 99.45 134.83 99.73 134.94 99.99C134.91 100.1 134.89 100.22 134.88 100.33C134.84 100.36 134.8 100.39 134.77 100.42C134.63 100.58 134.54 100.75 134.48 100.93C133.98 101.06 133.48 101.35 133.31 101.77C133.15 102.16 133.22 102.73 133.42 103.15C133.41 103.17 133.4 103.19 133.39 103.22C133.36 103.29 133.34 103.36 133.32 103.43C133.21 103.55 133.12 103.67 133.05 103.82C132.89 103.81 132.73 103.83 132.61 103.89C132.45 103.97 132.32 104.14 132.21 104.32C131.98 104.4 131.76 104.52 131.63 104.67C131.59 104.72 131.56 104.77 131.52 104.81C131.1 104.92 130.66 105.24 130.48 105.57C130.4 105.71 130.35 105.86 130.31 106.01C129.88 106.29 129.58 106.73 129.44 107.25C129.39 107.32 129.34 107.39 129.29 107.46C129.19 107.46 129.09 107.45 129 107.48C128.81 107.54 128.63 107.7 128.48 107.87C128.09 108 127.7 108.24 127.51 108.52C127.51 108.52 127.5 108.53 127.5 108.54C127.07 108.71 126.73 109.01 126.49 109.37C126.09 109.3 125.65 109.33 125.35 109.49C125.02 109.67 124.78 109.92 124.6 110.2C124.36 110.19 124.14 110.25 123.95 110.35C123.68 110.27 123.41 110.25 123.18 110.34C122.92 110.44 122.68 110.69 122.5 110.97C122.43 110.98 122.35 110.97 122.29 110.99C122.12 111.05 121.95 111.2 121.81 111.37C121.52 111.31 121.23 111.31 121.01 111.43C120.89 111.5 120.78 111.61 120.69 111.73C120.53 111.76 120.37 111.81 120.22 111.88C120.09 111.87 119.96 111.87 119.85 111.89C119.27 112.01 118.82 112.34 118.54 112.78C118.44 112.78 118.34 112.79 118.24 112.81C117.84 112.61 117.38 112.53 117.02 112.67C116.77 112.77 116.54 113.01 116.36 113.29C116.34 113.3 116.32 113.3 116.31 113.31C116.05 113.21 115.78 113.19 115.52 113.22C115.41 113.22 115.29 113.16 115.16 113.09Z" fill="#FF8412"/>
<path d="M72.25 51.38C71.03 49.74 72.44 45.43 76.72 45.61C81 45.8 80.64 49.5 79.7 51.38C78.95 52.86 75.22 55.38 72.25 51.38Z" fill="#494949"/>
<path d="M96.0601 54.35C94.7201 52.8 96.3201 47.78 100.53 48.58C103.94 49.23 103.87 51.42 103.32 53.37C102.76 55.38 99.3601 58.17 96.0601 54.35Z" fill="#494949"/>
<path d="M94.29 64.48C94.43 63.83 94.25 62.93 93.74 62.55C93.72 62.54 93.69 62.53 93.67 62.52C93.71 62.3 93.68 62.07 93.56 61.84C93.49 61.71 93.41 61.6 93.3 61.5C93.3 61.49 93.31 61.48 93.31 61.47C93.32 61.32 93.29 61.16 93.23 60.99C93.32 60.84 93.37 60.66 93.35 60.46C93.34 60.34 93.3 60.23 93.25 60.13C93.28 60.09 93.3 60.06 93.33 60.02C93.49 59.83 93.6 59.55 93.67 59.26C93.8 59.12 93.9 58.94 93.92 58.73C93.97 58.25 93.68 57.8 93.35 57.29C93.08 56.81 92.32 56.33 91.76 56.48C91.31 56.59 90.85 57.13 90.77 57.58C90.72 57.83 90.73 58.07 90.77 58.29C90.52 58.66 90.4 59.11 90.43 59.59C90.37 59.75 90.32 59.91 90.33 60.05C90.33 60.18 90.36 60.3 90.39 60.42C90.3 60.51 90.22 60.6 90.15 60.7C90.04 60.85 89.96 61.04 89.9 61.25C89.9 61.25 89.9 61.25 89.9 61.26C89.61 61.19 89.32 61.2 89.07 61.29C88.99 61.26 88.91 61.24 88.82 61.24C88.6 61.23 88.35 61.32 88.12 61.46C87.54 61.41 87 61.61 86.59 62C86.24 61.65 85.72 61.38 85.26 61.38C85 61.32 84.74 61.31 84.5 61.35V61.34C84.13 60.87 83.47 60.73 82.72 60.57C82.6 60.54 82.47 60.52 82.34 60.52C82.31 60.4 82.29 60.28 82.22 60.18C82.04 59.74 81.65 59.36 81.2 58.93C80.73 58.43 79.68 58.09 79.05 58.43C78.55 58.7 78.16 59.48 78.19 60.04C78.24 60.85 78.68 61.48 79.32 61.82C79.46 62.45 79.98 63.13 80.68 63.04C80.69 63.06 80.7 63.08 80.71 63.1C81.18 63.78 81.89 64.09 82.63 64.06C82.64 64.06 82.66 64.07 82.67 64.08C82.77 64.5 83.01 64.86 83.45 65C83.84 65.13 84.25 65.05 84.71 64.91C84.91 65.05 85.14 65.16 85.39 65.24C85.92 65.4 86.66 65.32 87.14 64.96C87.57 64.96 88.02 64.77 88.53 64.54C88.59 64.52 88.64 64.49 88.7 64.46C89.18 64.6 89.75 64.56 90.08 64.2C90.13 64.2 90.19 64.21 90.24 64.2C90.27 64.2 90.3 64.19 90.33 64.19C90.45 64.27 90.58 64.34 90.71 64.37C90.73 64.41 90.75 64.45 90.77 64.49C90.78 64.79 90.85 65.1 90.98 65.4C91.11 65.68 91.33 65.97 91.6 66.2C91.94 66.66 92.46 66.96 93.07 67.03C93.85 67.12 95 66.65 94.95 65.7C94.9 65.25 94.63 64.87 94.29 64.48Z" fill="#494949"/>
<path d="M14.68 6.008H12.584V16.28H14.68V11.656H16.664V9.928H14.68V6.008ZM14.952 19.864V18.2H7.384V15.352H5.272V19.864H14.952ZM10.664 14.328V7.032H8.552V9.224H5.848V7.032H3.768V14.328H10.664ZM8.552 12.712H5.848V10.808H8.552V12.712ZM30.5078 13.128V11.384H28.4598V6.008H26.3478V20.264H28.4598V13.128H30.5078ZM24.7638 7.48H17.9958V9.224H22.5238C22.2358 11.944 20.2358 14.68 17.1318 16.136L18.3158 17.8C22.9558 15.256 24.6518 11.656 24.7638 7.48ZM39.5835 9.688C39.5835 7.928 38.0795 6.6 35.7435 6.6C33.4395 6.6 31.9195 7.928 31.9195 9.688C31.9195 11.4 33.4395 12.664 35.7435 12.664C38.0315 12.664 39.5835 11.4 39.5835 9.688ZM38.3995 17.128H41.1995V20.264H43.3435V6.008H41.1995V15.56H38.3995V17.128ZM36.7355 19.848V14.904C37.9835 14.84 39.1035 14.728 40.3355 14.568L40.2075 12.952C39.2155 13.096 37.5355 13.192 35.6955 13.288C34.3515 13.336 32.6715 13.384 30.9755 13.384L31.2315 15.08C32.0955 15.08 33.2955 15.064 34.6075 15.016V19.848H36.7355ZM37.4235 9.672C37.4235 10.392 36.7835 10.984 35.7435 10.984C34.7515 10.984 34.0795 10.392 34.0795 9.672C34.0795 8.92 34.7675 8.328 35.7435 8.328C36.7675 8.328 37.4235 8.92 37.4235 9.672ZM56.7553 10.472C56.7553 8.296 54.6593 6.792 51.4433 6.792C48.2433 6.792 46.1473 8.296 46.1473 10.472C46.1473 12.664 48.2433 14.184 51.4433 14.184C54.6593 14.184 56.7553 12.664 56.7553 10.472ZM57.8913 18.504V16.824H55.1233V14.584L52.9633 14.68V16.824H49.9073V14.68L47.7473 14.584V16.824H45.0113V18.504H57.8913ZM54.5953 10.488C54.5953 11.704 53.3313 12.584 51.4433 12.584C49.5233 12.584 48.2913 11.704 48.2913 10.488C48.2913 9.304 49.5233 8.424 51.4433 8.424C53.3633 8.424 54.5953 9.304 54.5953 10.488ZM59.751 15.096H61.543L61.799 6.952H59.415L59.751 15.096ZM59.575 18.568H61.719V16.536H59.575V18.568Z" fill="#FF8412"/>
</svg>
