<svg width="120" height="142" viewBox="0 0 120 142" fill="none" xmlns="http://www.w3.org/2000/svg">
<path d="M57.1901 116.86C57.2201 116.51 57.0501 116.1 56.8001 115.77C56.8001 115.71 56.8101 115.66 56.8101 115.59C56.8301 115.42 56.8101 115.22 56.7701 115.02C56.9201 114.77 56.9801 114.49 56.8401 114.21C56.6601 113.85 56.2601 113.66 55.7901 113.44C55.7701 113.43 55.7301 113.42 55.7101 113.41C55.4501 112.91 54.9601 112.44 54.4601 112.41C54.1801 112.39 53.8601 112.5 53.5701 112.67C53.4301 112.66 53.3001 112.67 53.1901 112.7C53.0601 112.73 52.9401 112.78 52.8301 112.83C52.8201 112.82 52.8101 112.81 52.8001 112.81C52.4701 112.65 51.9301 112.74 51.6101 112.95C51.6001 112.95 51.5901 112.95 51.5901 112.94C51.4601 112.57 51.2301 112.25 50.9301 112.09C50.4501 111.84 49.6101 111.95 49.1901 112.28C49.1801 112.28 49.1801 112.29 49.1701 112.3C49.1601 112.3 49.1501 112.3 49.1301 112.3C48.9801 112.2 48.8301 112.11 48.6801 112.07C48.0601 111.9 47.4701 112.03 46.9901 112.34C46.7901 112.34 46.6101 112.38 46.4401 112.45C46.1001 112.12 45.4701 111.91 45.0001 112.06C44.7801 112.02 44.5501 112.03 44.3701 112.09C44.2801 112.12 44.2101 112.19 44.1301 112.23C43.8701 112.13 43.6001 112.11 43.3301 112.16C43.0501 111.84 42.6601 111.58 42.2901 111.59C42.1301 111.6 41.9601 111.67 41.7901 111.76C41.5001 111.71 41.2101 111.74 40.9301 111.82C40.8801 111.8 40.8401 111.78 40.8001 111.75C40.2601 111.43 39.2401 111.41 38.7701 111.88C38.7401 111.91 38.7101 111.97 38.6801 112.01C38.4001 111.78 38.0601 111.61 37.7501 111.66C37.6901 111.67 37.6401 111.7 37.5801 111.72C37.3701 111.66 37.1501 111.63 36.9801 111.66C36.8801 111.68 36.7801 111.71 36.6901 111.74C36.5101 111.7 36.3101 111.69 36.0901 111.68C35.9601 111.58 35.8301 111.51 35.7001 111.47C35.1001 111.27 34.5101 111.36 34.0401 111.64C33.8201 111.53 33.5901 111.48 33.3701 111.49C32.9801 111.2 32.3501 111.06 31.9301 111.17C31.8401 111.19 31.7601 111.23 31.6801 111.26C31.4301 111.32 31.2001 111.41 31.0401 111.58C30.9401 111.68 30.8601 111.81 30.8001 111.95C30.5401 112.32 30.4101 112.78 30.4201 113.26C30.2801 113.59 30.2401 113.95 30.3001 114.3C30.1901 114.45 30.0901 114.62 30.0101 114.81C29.9301 115.01 29.8901 115.24 29.8801 115.48C29.7201 115.93 29.7401 116.43 29.9001 116.89C29.8801 116.96 29.8601 117.04 29.8401 117.12C29.5301 117.08 29.1701 117.13 28.8701 117.28C28.7101 117.11 28.5301 116.98 28.3301 116.92C27.8701 116.78 27.2001 116.97 26.7901 117.28C26.6101 117.29 26.4401 117.33 26.3001 117.39C26.0401 117.5 25.8201 117.66 25.6401 117.84C25.5901 117.84 25.5401 117.83 25.4901 117.83C25.0701 117.86 24.5901 118.24 24.3701 118.63C24.1401 118.63 23.9101 118.66 23.7101 118.75C23.2101 118.64 22.5601 118.74 22.1801 119.08C21.9401 119.14 21.7101 119.32 21.5301 119.54C21.3001 119.5 21.0401 119.51 20.7901 119.58C20.5801 119.49 20.3701 119.44 20.1701 119.47C19.7601 119.53 19.3201 119.91 19.1201 120.3C18.7201 120.44 18.3801 120.71 18.1201 121.08C18.0901 121.08 18.0701 121.09 18.0401 121.1C17.8201 120.99 17.5901 120.93 17.3701 120.95C16.8601 121.01 16.2801 121.52 16.1201 121.99C16.1001 122.06 16.0901 122.13 16.0701 122.2C15.6401 122.16 15.1001 122.33 14.8301 122.61C14.7001 122.74 14.6101 122.89 14.5301 123.04C14.2901 123.1 14.0501 123.2 13.8401 123.36C13.7701 123.37 13.7101 123.37 13.6401 123.39C13.1101 123.54 12.5701 124.2 12.4901 124.73C12.4301 125.12 12.4701 125.48 12.6001 125.81C12.0801 125.98 11.5801 126.33 11.4301 126.79C11.3701 126.96 11.3701 127.17 11.3901 127.38C11.2101 127.76 11.1401 128.23 11.2301 128.58C11.2501 128.65 11.2801 128.71 11.3001 128.77C11.2401 128.93 11.2101 129.08 11.2101 129.22C11.2201 129.65 11.3901 130.02 11.6401 130.3C11.6401 130.7 11.8001 131.06 12.0701 131.32C12.0401 131.56 12.0801 131.81 12.1801 132.04C12.1101 132.17 12.0601 132.3 12.0201 132.45C11.8501 133.08 12.0701 134.04 12.7701 134.26C12.6901 134.62 12.8001 135.1 13.0301 135.35C13.0401 135.36 13.0501 135.37 13.0701 135.38C13.0601 135.62 13.1001 135.87 13.1901 136.04C13.5001 136.63 14.0701 136.92 14.6701 136.9C14.8001 137.06 14.9601 137.19 15.1501 137.3C15.3201 137.91 15.9101 138.59 16.6001 138.46C16.7401 138.53 16.8901 138.58 17.0501 138.61C17.2501 139.11 17.6601 139.56 18.2001 139.56C18.5101 139.76 18.8601 139.87 19.2201 139.89C19.2801 139.97 19.3501 140.05 19.4301 140.12C19.7001 140.38 20.1301 140.58 20.5501 140.64C20.7201 140.75 20.8901 140.84 21.0901 140.9C21.3901 141 21.7801 141.01 22.1301 140.93C22.4401 141.06 22.7801 141.07 23.0601 140.9C23.2001 140.94 23.3401 140.96 23.5001 140.92C23.5601 140.9 23.6201 140.87 23.6801 140.84C23.9501 141.01 24.2501 141.13 24.5801 141.18C25.0601 141.26 25.6801 141.13 26.1201 140.81C26.5701 140.97 27.0801 140.96 27.5601 140.77C27.6601 140.73 27.7501 140.68 27.8501 140.62C27.9101 140.62 27.9701 140.63 28.0301 140.62C28.3801 140.83 28.7901 140.92 29.2201 140.89C29.5501 141.18 29.9701 141.33 30.4001 141.13C30.5501 141.06 30.6701 140.95 30.7801 140.82C31.0501 140.93 31.3901 140.97 31.7101 140.92C31.8001 140.96 31.8801 141 31.9701 141.02C32.3101 141.12 32.7601 141.12 33.1501 140.99L33.1601 141C33.5101 141.16 33.9101 141.12 34.3501 141.02C34.7901 141.12 35.3101 141.04 35.8901 140.93C36.2401 140.89 36.6501 140.7 36.9801 140.43C37.2101 140.4 37.4501 140.33 37.6301 140.2C37.9801 140.3 38.3901 140.3 38.8501 140.28C39.2801 140.3 39.8501 140.07 40.2001 139.72C40.3501 139.95 40.5501 140.13 40.8401 140.22C41.2701 140.35 41.7301 140.23 42.2301 140.04C42.3701 140.1 42.5201 140.14 42.7001 140.12C43.0701 140.09 43.3901 139.89 43.7101 139.61C43.7701 139.63 43.8201 139.66 43.8901 139.68C44.0701 139.73 44.2901 139.75 44.5001 139.74C44.7901 139.9 45.1201 139.96 45.4601 139.82C45.7101 139.72 45.9101 139.54 46.0901 139.31C46.6601 139.48 47.3301 139.41 47.6201 138.85C47.6401 138.8 47.6501 138.75 47.6701 138.7C47.7101 138.69 47.7601 138.67 47.8001 138.65C48.0701 138.74 48.3701 138.78 48.6701 138.76C49.3101 138.72 50.1201 138.28 50.3401 137.62C50.5701 137.63 50.8001 137.58 50.9901 137.4C51.0201 137.37 51.0401 137.33 51.0701 137.29C51.8901 137.46 53.0601 137.14 53.1801 136.17C53.2001 135.99 53.1701 135.81 53.1201 135.63C53.3401 135.44 53.4901 135.21 53.5301 134.94C53.6601 134.67 53.7501 134.35 53.8501 134C53.9001 133.86 53.9301 133.7 53.9401 133.53C54.0501 133.4 54.1201 133.25 54.1301 133.06C54.1301 133.02 54.1201 132.98 54.1101 132.94C54.2301 132.8 54.3401 132.64 54.4601 132.48C54.5101 132.42 54.5501 132.33 54.5901 132.25C55.2301 131.98 55.8001 131.4 55.6401 130.68C55.5701 130.37 55.3701 130.11 55.1201 129.86C55.2201 129.63 55.2501 129.39 55.2101 129.18C55.3101 129.04 55.3901 128.9 55.4101 128.74C55.4301 128.61 55.4101 128.46 55.3601 128.31C55.4101 127.99 55.4001 127.63 55.3801 127.24C55.7801 126.83 56.0201 126.21 55.7301 125.71C55.9601 125.28 55.9901 124.73 56.0001 124.09C56.0001 124.06 56.0001 124.03 56.0001 124C56.1601 123.79 56.2601 123.54 56.2201 123.25C56.1801 122.99 56.0401 122.76 55.8501 122.54C55.8501 122.37 55.8201 122.19 55.7701 122C55.8101 121.95 55.8501 121.89 55.8801 121.82C55.9801 121.57 55.9501 121.29 55.8801 120.98C56.0201 120.69 56.0601 120.32 56.1001 119.91C56.1401 119.7 56.1001 119.44 56.0201 119.19C56.0501 119.13 56.0801 119.06 56.1101 118.99C56.1901 118.94 56.2701 118.89 56.3401 118.83C56.7501 118.49 57.0801 117.84 57.0401 117.26C57.1201 117.19 57.1801 117.02 57.1901 116.86Z" fill="#FF8412"/>
<path d="M56.9801 90.8799L34.5501 89.4299L32.0701 113.03C38.6801 112.86 49.8701 113.64 55.4101 114.53L56.9801 90.8799Z" fill="#FFEA62"/>
<path d="M58.34 96.25C58.46 95.96 58.47 95.65 58.3 95.36C58.22 95.23 58.12 95.13 58 95.05C58 95.04 58.01 95.02 58.01 95.01C58.39 94.77 58.72 94.4 58.78 94.01C58.82 93.75 58.75 93.44 58.61 93.15C58.76 92.87 58.82 92.55 58.71 92.25C58.71 91.87 58.6 91.44 58.46 90.98C58.41 90.76 58.29 90.52 58.13 90.3C58.02 89.93 57.8 89.58 57.48 89.46C57.18 89.35 56.74 89.43 56.44 89.61C56.31 89.59 56.16 89.58 56.01 89.58C55.96 89.5 55.91 89.42 55.85 89.37C55.63 89.2 55.28 89.13 54.96 89.14C54.56 88.83 53.82 88.74 53.37 88.93C53.28 88.97 53.21 89.01 53.13 89.06C52.99 88.98 52.84 88.92 52.69 88.91C52.56 88.9 52.43 88.93 52.29 88.98C52.1 88.83 51.89 88.72 51.68 88.7C51.44 88.68 51.16 88.76 50.91 88.9C50.44 88.68 49.82 88.62 49.42 88.86C49.1 88.78 48.76 88.78 48.51 88.92C48.5 88.93 48.49 88.94 48.48 88.94C48.4 88.94 48.32 88.95 48.24 88.96C48.19 88.93 48.14 88.89 48.09 88.87C47.9 88.79 47.71 88.76 47.52 88.75C47.2 88.51 46.79 88.34 46.46 88.34C46.31 88.34 46.16 88.36 46.03 88.39C46 88.37 45.98 88.35 45.95 88.33C45.49 88.08 44.69 88.17 44.28 88.47C44.24 88.5 44.21 88.54 44.17 88.57C44.03 88.57 43.88 88.59 43.73 88.64C43.65 88.6 43.57 88.56 43.5 88.54C43.11 88.45 42.74 88.5 42.42 88.65C42.26 88.61 42.09 88.58 41.91 88.54C41.87 88.53 41.83 88.54 41.79 88.53C41.68 88.38 41.54 88.25 41.38 88.18C41.08 88.05 40.64 88.08 40.29 88.22C40.28 88.22 40.28 88.21 40.27 88.21C39.98 88.15 39.71 88.17 39.46 88.23C39.45 88.23 39.44 88.22 39.43 88.21C38.9 88.02 38.38 88.07 37.94 88.29C37.57 88.08 37 88.02 36.56 88.17C36.34 88.08 36.11 88.03 35.91 88.09C35.88 88.1 35.85 88.12 35.81 88.14C35.39 87.89 34.8 87.76 34.41 87.97C34.18 88.09 33.98 88.36 33.86 88.64C33.6 88.84 33.41 89.12 33.31 89.43C33.27 89.47 33.22 89.51 33.19 89.55C32.84 90.02 32.73 90.56 32.81 91.07C32.68 91.35 32.63 91.7 32.67 91.99C32.62 92.08 32.57 92.16 32.55 92.25C32.4 92.78 32.47 93.28 32.69 93.71C32.69 93.73 32.67 93.76 32.67 93.78C32.65 94.1 32.72 94.39 32.85 94.63C32.57 94.71 32.32 94.86 32.16 95.06C31.82 95.49 31.77 96.35 32.02 96.83C32.11 97.01 32.23 97.16 32.35 97.3C32.18 97.46 32.03 97.64 31.91 97.85C31.58 98.42 31.49 99.36 31.91 99.94C31.74 100.31 31.68 100.73 31.73 101.17C31.73 101.2 31.75 101.24 31.75 101.27C31.68 101.53 31.66 101.81 31.7 102.09C31.61 102.32 31.56 102.56 31.55 102.81C31.33 103.19 31.25 103.72 31.36 104.08C31.4 104.21 31.45 104.33 31.52 104.45V104.46C31.48 104.73 31.5 104.99 31.58 105.22C31.47 105.38 31.41 105.6 31.4 105.83C31.04 106.32 30.92 106.91 31.02 107.49C30.92 107.81 30.9 108.15 30.96 108.48C30.77 108.95 30.76 109.47 30.92 109.96C30.88 110.1 30.87 110.25 30.86 110.4C30.81 110.45 30.75 110.48 30.71 110.54C30.45 110.94 30.47 111.68 30.72 112.08C30.73 112.09 30.73 112.1 30.74 112.1C30.44 112.62 30.35 113.36 30.89 113.74C31.15 113.93 31.48 113.96 31.85 113.96C32.14 114.37 32.69 114.71 33.17 114.5C33.44 114.63 33.74 114.72 34.07 114.73C34.31 114.74 34.57 114.69 34.83 114.59C35.13 114.99 35.58 115.27 36.1 115.14C36.32 115.08 36.51 114.95 36.69 114.79C36.85 114.85 37.01 114.89 37.19 114.92C37.51 114.96 37.89 114.91 38.23 114.78C38.45 115 38.73 115.15 39.08 115.11C39.37 115.08 39.62 114.93 39.88 114.73C40.09 114.85 40.32 114.89 40.57 114.81C40.68 114.77 40.78 114.71 40.87 114.64C40.91 114.65 40.95 114.67 40.99 114.68C41.16 114.7 41.33 114.66 41.51 114.6C41.96 114.92 42.54 115.06 43.13 114.96C43.32 115.07 43.54 115.15 43.75 115.19C44.21 115.61 44.83 115.85 45.4 115.53C45.62 115.41 45.78 115.22 45.92 115C46.21 115.22 46.56 115.37 46.95 115.42C47.26 115.47 47.64 115.43 47.98 115.3C48.56 115.66 49.3 115.73 49.99 115.47C50.07 115.44 50.15 115.4 50.22 115.36C50.35 115.37 50.48 115.36 50.61 115.34C50.62 115.34 50.62 115.34 50.63 115.34C50.87 115.43 51.13 115.46 51.39 115.43C51.77 115.87 52.38 116.17 52.91 115.84C52.95 115.82 52.97 115.78 53.01 115.75C53.29 116.27 53.77 116.68 54.39 116.58C54.84 116.51 55.19 116.19 55.56 115.79C55.7 115.75 55.84 115.71 55.98 115.67C56.5 115.55 57.14 114.98 57.15 114.42C57.15 114.38 57.13 114.33 57.13 114.29C57.39 114.03 57.57 113.72 57.59 113.4C57.61 113.03 57.41 112.59 57.13 112.27C57.18 112.03 57.21 111.78 57.16 111.55C57.17 111.47 57.18 111.4 57.17 111.31C57.15 111.1 57.04 110.91 56.9 110.73C57.16 110.42 57.34 110 57.26 109.66C57.23 109.55 57.17 109.44 57.1 109.34C57.21 109.15 57.28 108.95 57.25 108.76C57.24 108.68 57.21 108.6 57.17 108.52C57.31 108.31 57.41 108.06 57.46 107.8C57.84 107.39 58.12 106.79 58.01 106.3C57.97 106.13 57.87 105.96 57.75 105.8C57.71 105.63 57.64 105.48 57.54 105.33C57.57 105.25 57.61 105.16 57.64 105.08C57.78 104.78 57.82 104.37 57.76 103.98C57.96 103.53 57.99 102.92 57.79 102.48C57.71 102.28 57.6 102.07 57.45 101.85C57.45 101.81 57.46 101.78 57.46 101.74C57.59 101.65 57.71 101.54 57.79 101.37C57.94 101.06 57.91 100.71 57.83 100.32C58.34 99.9 58.71 99.22 58.35 98.61C58.31 98.55 58.26 98.5 58.21 98.44C58.24 98.36 58.26 98.28 58.27 98.19C58.28 98.04 58.23 97.87 58.17 97.71C58.4 97.26 58.56 96.7 58.34 96.25ZM51.33 112.76C51.14 112.71 50.9 112.72 50.66 112.76C50.65 112.75 50.63 112.75 50.62 112.74C50.31 112.53 49.92 112.37 49.49 112.2C49.06 112 48.41 111.98 47.89 112.16C47.83 112.15 47.77 112.16 47.71 112.16C47.25 111.79 46.54 111.55 46.04 111.75L46.03 111.76C46.02 111.75 46.02 111.75 46.01 111.74C45.57 111.38 44.7 111.32 44.2 111.56C44.18 111.57 44.17 111.58 44.15 111.59C44.12 111.58 44.1 111.56 44.07 111.55C43.74 111.46 43.3 111.55 42.95 111.74C42.4 111.49 41.61 111.45 41.16 111.81C41.11 111.85 41.07 111.92 41.02 111.98C40.82 111.9 40.6 111.87 40.4 111.89C40.12 111.71 39.8 111.59 39.52 111.59C39.18 111.6 38.88 111.69 38.61 111.85C38.43 111.81 38.24 111.8 38.06 111.82C37.61 111.37 36.77 111.05 36.2 111.28C36.16 111.3 36.11 111.34 36.07 111.37C36.05 111.37 36.02 111.37 36 111.37C35.65 111.43 35.35 111.58 35.1 111.78C35.02 111.77 34.95 111.76 34.86 111.76C34.8 111.75 34.73 111.76 34.66 111.76C34.5 111.62 34.29 111.49 34.06 111.4C34.07 111.19 34.02 110.97 33.88 110.78C33.87 110.76 33.85 110.76 33.84 110.74C33.99 110.39 34.07 109.97 34.13 109.5C34.24 109.16 34.24 108.75 34.22 108.3C34.31 108 34.36 107.66 34.41 107.29C34.48 106.95 34.44 106.52 34.3 106.13C34.31 106.08 34.31 106.04 34.31 105.99C34.41 105.86 34.48 105.7 34.5 105.52C34.51 105.34 34.47 105.17 34.4 105C34.8 104.66 35.07 104.16 34.86 103.64C34.82 103.53 34.75 103.43 34.68 103.34C34.68 103.33 34.69 103.32 34.69 103.31C34.83 103 34.88 102.55 34.81 102.14C34.9 101.9 34.94 101.6 34.92 101.29C35.17 100.83 35.27 100.18 35.08 99.68C35.45 99.35 35.74 98.91 35.74 98.48C35.74 98.15 35.56 97.78 35.32 97.47C35.83 97.01 36.16 96.3 35.79 95.68C35.67 95.48 35.49 95.34 35.29 95.21C35.47 95.05 35.58 94.84 35.6 94.59C35.8 94.43 35.96 94.22 36.01 93.94C36.08 93.57 35.97 93.2 35.79 92.81C36.05 92.5 36.18 92.11 36.02 91.71C36.04 91.45 36.02 91.17 35.98 90.87C36.01 90.86 36.04 90.85 36.08 90.83C36.12 90.84 36.15 90.86 36.19 90.87C36.35 90.91 36.53 90.92 36.72 90.9C36.81 90.94 36.9 90.98 37 91C37.13 91.2 37.32 91.36 37.58 91.44C37.87 91.52 38.16 91.47 38.47 91.37C38.6 91.47 38.75 91.55 38.94 91.57C39.28 91.61 39.61 91.48 39.96 91.29C40.45 91.66 41.16 91.85 41.63 91.38C41.64 91.37 41.65 91.35 41.66 91.34C41.8 91.5 41.98 91.62 42.22 91.65C42.6 91.7 42.97 91.53 43.37 91.3C43.55 91.43 43.77 91.53 43.98 91.56C44.3 91.9 44.77 92.16 45.23 92.17C45.41 92.26 45.6 92.31 45.83 92.29C46.13 92.26 46.39 92.13 46.65 91.93C46.96 91.92 47.29 91.8 47.65 91.66C47.91 91.87 48.24 91.98 48.57 91.83C48.66 91.79 48.74 91.73 48.81 91.67C49.04 91.78 49.3 91.84 49.58 91.84C49.62 91.84 49.66 91.83 49.69 91.83C50.02 92 50.4 92.09 50.8 92.07C50.87 92.07 50.94 92.05 51.01 92.04C51.45 92.28 52.08 92.38 52.54 92.15C52.58 92.16 52.61 92.16 52.65 92.17C53.05 92.62 53.65 92.93 54.22 92.63C54.31 92.58 54.38 92.52 54.46 92.45C54.67 92.54 54.89 92.57 55.1 92.52C55.1 92.74 55.14 92.95 55.21 93.13C54.85 93.68 54.69 94.57 55.15 95.09C55 95.37 54.95 95.75 55.01 96.09C54.93 96.18 54.85 96.27 54.81 96.37C54.63 96.79 54.76 97.45 55.03 97.83C55.01 97.87 55 97.91 54.99 97.96C54.95 98 54.89 98.02 54.85 98.07C54.53 98.47 54.48 99.25 54.7 99.7C54.77 99.83 54.84 99.95 54.93 100.06C54.91 100.41 54.99 100.76 55.18 101.06C55.16 101.15 55.12 101.23 55.12 101.32C54.95 101.52 54.82 101.76 54.78 101.97C54.74 102.22 54.75 102.46 54.81 102.69C54.55 103.12 54.46 103.66 54.57 104.19C54.49 104.47 54.47 104.77 54.52 105.07C54.47 105.22 54.43 105.37 54.43 105.51C54.43 105.67 54.46 105.81 54.5 105.95C54.35 106.15 54.23 106.38 54.16 106.64C54 107.17 54.07 107.92 54.43 108.39C54.45 108.55 54.49 108.71 54.55 108.86C54.47 109.09 54.46 109.38 54.52 109.64C54.47 109.75 54.42 109.86 54.38 109.98C54.33 110.17 54.32 110.39 54.35 110.62C54.31 110.75 54.28 110.88 54.28 110.99C54.29 111.17 54.33 111.33 54.38 111.48C54.21 111.75 54.11 112.08 54.1 112.42C54.02 112.51 53.95 112.6 53.88 112.7C53.86 112.73 53.84 112.77 53.82 112.8C53.75 112.84 53.68 112.89 53.61 112.93C53.5 112.92 53.4 112.93 53.29 112.94C53.27 112.92 53.26 112.89 53.24 112.87C52.88 112.6 52.19 112.57 51.8 112.78C51.74 112.81 51.69 112.85 51.64 112.88C51.56 112.8 51.45 112.78 51.33 112.76Z" fill="#FF8412"/>
<path d="M116.15 129.08C116.08 128.75 115.8 128.42 115.48 128.2C115.46 127.72 115.25 127.17 114.89 126.9C114.89 126.89 114.88 126.89 114.88 126.88C114.96 126.73 115.01 126.57 115.01 126.41C115.01 125.94 114.6 125.33 114.18 125.13C114.15 125.11 114.11 125.11 114.08 125.09C114.08 125.08 114.08 125.07 114.08 125.06C114.35 124.59 114.42 124.02 114.05 123.58C113.69 123.16 113.09 123.05 112.39 122.93C112.32 122.91 112.24 122.9 112.15 122.89C112.11 122.85 112.08 122.8 112.03 122.77C111.95 122.72 111.84 122.68 111.73 122.66C111.71 122.63 111.69 122.59 111.68 122.56C111.43 122.02 110.68 121.46 110.06 121.52C109.87 121.33 109.65 121.15 109.41 120.96C109.26 120.82 109.06 120.71 108.83 120.62C108.45 120.06 107.56 119.56 106.9 119.74C106.89 119.74 106.88 119.75 106.87 119.75C106.41 119.4 105.88 119.29 105.36 119.37C105.2 119.3 105.03 119.25 104.86 119.23C104.58 118.72 104.07 118.24 103.54 118.21C103.31 118.2 103.06 118.27 102.82 118.39C102.76 118.38 102.7 118.37 102.64 118.37C102.6 118.37 102.57 118.38 102.54 118.39C102.39 118.29 102.23 118.2 102.06 118.15C102 118.01 101.94 117.87 101.83 117.77C101.43 117.37 100.57 117.21 100.05 117.4C99.85 117.47 99.67 117.58 99.51 117.69C99.18 117.47 98.72 117.43 98.2 117.39H98.19C98.1 117.33 98.02 117.26 97.93 117.2C97.87 117.15 97.79 117.12 97.72 117.08C97.73 116.81 97.66 116.55 97.46 116.33C97.43 116.3 97.39 116.28 97.36 116.25C97.46 115.75 97.43 115.2 97.14 114.86C97.12 114.83 97.08 114.82 97.06 114.79C97.05 114.36 96.9 113.91 96.63 113.63C96.91 113.22 97.03 112.71 96.72 112.28C96.43 111.87 95.89 111.72 95.26 111.56C95.19 111.53 95.09 111.53 95 111.52C94.95 111.49 94.91 111.45 94.86 111.44C94.57 111.36 94.17 111.45 93.86 111.62C93.77 111.6 93.69 111.57 93.59 111.55C93.18 111.42 92.58 111.48 92.15 111.71C91.61 111.46 91.02 111.48 90.51 111.72C90.27 111.7 90.04 111.72 89.83 111.79C89.76 111.76 89.69 111.72 89.62 111.71C89.33 111.65 89.05 111.68 88.79 111.75C88.55 111.65 88.28 111.59 88.06 111.61C87.73 111.65 87.45 111.76 87.21 111.93C87.03 111.83 86.84 111.75 86.66 111.77C86.61 111.77 86.56 111.8 86.51 111.81C86.18 111.54 85.77 111.36 85.4 111.41C85.25 111.43 85.1 111.5 84.95 111.6C84.51 111.43 83.99 111.38 83.63 111.58C83.59 111.6 83.55 111.65 83.51 111.68C83.15 111.62 82.77 111.65 82.47 111.79C82.23 111.81 81.99 111.87 81.76 111.97C81.59 111.96 81.42 111.96 81.24 111.97C81.06 111.96 80.85 111.99 80.64 112.06C80.12 112.02 79.61 112.2 79.2 112.54C79.05 112.51 78.91 112.51 78.76 112.53C78.29 112.22 77.52 112.09 77.07 112.39C77.02 112.43 76.98 112.48 76.93 112.53C76.9 112.53 76.87 112.52 76.84 112.52C76.72 112.41 76.59 112.33 76.44 112.29C76.08 112.19 75.57 112.32 75.21 112.55C74.99 112.54 74.77 112.57 74.56 112.63C74.33 112.56 74.09 112.52 73.9 112.55C73.45 112.62 73.08 112.82 72.79 113.11C72.52 113.14 72.29 113.24 72.08 113.39C71.65 113.16 70.86 113.16 70.51 113.53C70.29 113.76 70.19 114.18 70.22 114.53C70.13 114.69 70.06 114.85 70.04 115C69.94 115.63 70.12 116.2 70.47 116.64C70.35 116.74 70.26 116.85 70.19 116.98C69.96 117.46 70.09 118.27 70.42 118.68C70.59 118.9 70.8 119.06 71.02 119.19C71.03 119.29 71.04 119.38 71.07 119.48C70.94 119.9 70.99 120.35 71.2 120.76C71.15 121 71.17 121.24 71.23 121.49C71.12 121.7 71.04 121.93 71 122.18C70.97 122.38 70.98 122.61 71.03 122.84C71.03 122.88 71.01 122.92 71.01 122.95C71.02 123.42 71.19 123.82 71.46 124.13C71.43 124.18 71.38 124.23 71.36 124.27C70.95 125.17 71.2 126.1 71.84 126.72C71.69 127.04 71.64 127.45 71.73 127.74C71.78 127.91 71.88 128.04 71.97 128.17C71.91 128.42 71.91 128.68 71.96 128.93C71.75 129.47 71.78 130.07 72.05 130.6C72.01 130.99 72.08 131.4 72.27 131.79C72.31 131.88 72.37 131.96 72.43 132.04C72.44 132.07 72.45 132.1 72.46 132.14C72.36 132.56 72.4 133.06 72.57 133.38C72.66 133.54 72.77 133.68 72.89 133.81C72.74 134.44 72.85 135.15 73.47 135.47C73.74 135.61 74.05 135.64 74.38 135.61C74.41 135.65 74.43 135.7 74.47 135.74C74.51 135.78 74.55 135.83 74.59 135.87C74.68 136.24 74.88 136.58 75.19 136.85C75.3 136.94 75.43 137.02 75.57 137.09C75.59 137.11 75.61 137.14 75.64 137.16C75.86 137.33 76.15 137.39 76.47 137.41C76.47 137.42 76.47 137.42 76.48 137.43C76.72 138.1 77.55 138.84 78.32 138.53C78.42 138.57 78.52 138.6 78.62 138.62C78.63 138.64 78.64 138.67 78.66 138.69C79.05 139.27 80 139.78 80.67 139.32C80.82 139.49 81.01 139.62 81.26 139.67C81.7 139.75 82.14 139.54 82.62 139.27C82.78 139.36 82.97 139.43 83.16 139.46C83.34 139.68 83.59 139.83 83.9 139.8C84.17 139.78 84.4 139.64 84.63 139.45C84.73 139.49 84.84 139.53 84.95 139.55C85.09 139.87 85.34 140.13 85.72 140.17C86.01 140.2 86.28 140.1 86.57 139.95C86.92 140.3 87.41 140.51 87.86 140.24C87.87 140.23 87.88 140.22 87.9 140.21C87.97 140.25 88.04 140.29 88.12 140.33C88.31 140.65 88.6 140.89 89.01 140.91C89.34 140.93 89.66 140.78 89.98 140.57C90.19 140.58 90.41 140.56 90.65 140.53C90.99 140.97 91.55 141.28 92.08 141.06C92.55 141.23 93.08 141.24 93.59 141.07C93.7 141.03 93.82 140.98 93.93 140.92C94.21 140.99 94.54 141.01 94.89 141C95.31 141.48 95.95 141.8 96.55 141.49C96.86 141.33 97.08 141.04 97.27 140.68C97.57 140.89 97.93 141.02 98.32 141.06C98.61 141.09 98.95 141.03 99.26 140.9C99.46 140.95 99.67 140.96 99.86 140.92C100.17 141.09 100.57 141.18 100.94 141.14C101.19 141.27 101.48 141.31 101.77 141.19C101.88 141.14 101.99 141.08 102.08 140.99C102.52 141.24 103.07 141.32 103.46 140.95C103.49 140.93 103.5 140.89 103.52 140.87C103.67 140.87 103.82 140.85 103.96 140.82C104.52 141.26 105.53 141.48 106 140.8C106.12 140.79 106.24 140.75 106.35 140.68C106.7 140.62 107.07 140.5 107.47 140.35C107.49 140.34 107.51 140.33 107.53 140.33C107.98 140.24 108.38 139.91 108.81 139.51C109.48 139.56 110.33 139.25 110.62 138.61C110.67 138.6 110.72 138.6 110.78 138.58C111.16 138.45 111.43 138.12 111.7 137.71C112.19 137.77 112.7 137.63 112.9 137.15C112.94 137.05 112.96 136.94 112.97 136.83C113.11 136.71 113.26 136.56 113.41 136.4C113.54 136.28 113.64 136.11 113.72 135.92C113.83 135.77 113.91 135.58 113.99 135.37C114.11 135.32 114.23 135.24 114.33 135.13C114.66 134.75 114.67 134.2 114.69 133.55C114.69 133.53 114.69 133.5 114.69 133.48C114.75 133.36 114.81 133.24 114.87 133.12C114.88 133.11 114.88 133.1 114.88 133.09C115.06 132.85 115.22 132.57 115.39 132.26C115.58 131.98 115.68 131.56 115.68 131.15C115.72 131.09 115.77 131.03 115.79 130.96C115.85 130.75 115.82 130.48 115.74 130.23C116.05 129.89 116.22 129.45 116.15 129.08Z" fill="#FF8412"/>
<path d="M70.12 90.88L92.55 89.43L95.03 113.03C88.42 112.86 77.23 113.64 71.69 114.53L70.12 90.88Z" fill="#FFEA62"/>
<path d="M96.54 111.39C96.47 111.16 96.32 110.96 96.12 110.79C96.49 110.56 96.75 110.21 96.74 109.74C96.73 109.22 96.39 108.77 95.96 108.27C95.94 108.11 95.89 107.95 95.82 107.81C95.91 107.69 95.98 107.57 96 107.43C96.06 107.1 95.91 106.67 95.68 106.38C95.78 106.17 95.85 105.96 95.81 105.76C95.79 105.64 95.72 105.52 95.64 105.4C95.63 105.17 95.55 104.93 95.43 104.67C95.49 104.57 95.54 104.45 95.54 104.31C95.55 104.07 95.47 103.85 95.33 103.62C95.39 103.29 95.33 102.9 95.26 102.47C95.25 102.33 95.2 102.18 95.14 102.03C95.13 101.96 95.12 101.89 95.1 101.82C95.44 101.57 95.68 101.2 95.61 100.75C95.56 100.44 95.38 100.18 95.14 99.93C95.17 99.85 95.22 99.78 95.23 99.7C95.24 99.59 95.23 99.47 95.19 99.34C95.32 99.18 95.43 99.01 95.46 98.82C95.55 98.37 95.3 97.75 94.96 97.4C95.06 96.98 95 96.49 94.94 95.94C94.93 95.77 94.89 95.59 94.82 95.41C94.92 95.14 94.96 94.87 94.88 94.63C94.81 94.39 94.61 94.16 94.37 93.98C94.39 93.79 94.39 93.61 94.32 93.46C94.31 93.44 94.29 93.43 94.28 93.41C94.41 93.16 94.48 92.89 94.43 92.66C94.41 92.59 94.37 92.53 94.34 92.46C94.49 92.2 94.54 91.91 94.4 91.61C94.35 91.51 94.29 91.42 94.21 91.34C94.23 91.19 94.24 91.05 94.26 90.89C94.29 90.7 94.27 90.48 94.23 90.26C94.48 89.8 94.55 89.24 94.16 88.83C93.83 88.49 93.32 88.41 92.74 88.34C92.58 88.13 92.38 87.96 92.16 87.91C92.09 87.89 92.01 87.9 91.92 87.9C91.6 87.73 91.24 87.63 90.94 87.66C90.66 87.69 90.4 87.77 90.18 87.89C89.92 87.74 89.64 87.65 89.38 87.68C89.24 87.7 89.09 87.76 88.94 87.85C88.66 87.72 88.36 87.66 88.09 87.72C87.9 87.76 87.71 87.89 87.53 88.04C87.21 88.07 86.89 88.19 86.69 88.37C86.44 88.35 86.2 88.38 85.96 88.46C85.78 88.41 85.6 88.39 85.42 88.39C85.33 88.29 85.23 88.2 85.12 88.14C84.71 87.93 84.06 88 83.62 88.22C83.16 88 82.6 87.9 82.19 88.09C82.01 88.17 81.86 88.33 81.71 88.5C81.65 88.5 81.59 88.5 81.53 88.51C80.94 88.2 79.91 88.17 79.42 88.65C79.39 88.68 79.37 88.73 79.34 88.77C79.09 88.72 78.85 88.73 78.61 88.78C78.04 88.56 77.43 88.6 76.89 88.87C76.51 88.72 76.09 88.66 75.77 88.81C75.66 88.87 75.55 88.95 75.45 89.06C75.41 89.07 75.37 89.07 75.33 89.08C75.12 88.87 74.87 88.71 74.61 88.68C74.29 88.64 73.89 88.79 73.58 89.01C73.5 89.01 73.43 89.02 73.35 89.03C72.92 88.81 72.32 88.75 71.92 88.91C71.62 89.03 71.38 89.2 71.18 89.41C71.12 89.38 71.06 89.33 71.01 89.31C69.95 88.93 68.91 89.46 68.46 90.44C68.18 91.05 68.22 92.02 68.79 92.46C68.79 92.66 68.83 92.85 68.9 93.02C68.7 93.5 68.69 94.05 68.91 94.58C68.9 94.78 68.93 95 69 95.18C68.64 95.65 68.44 96.41 68.78 96.92C68.54 97.37 68.48 98.02 68.65 98.45C68.79 98.78 68.99 99.05 69.23 99.27C68.91 99.87 68.89 100.61 69.19 101.28C69.2 101.3 69.21 101.32 69.22 101.34C69.26 101.75 69.44 102.13 69.72 102.43C69.72 102.54 69.74 102.64 69.76 102.75C69.68 102.91 69.64 103.09 69.63 103.25C69.62 103.26 69.6 103.26 69.59 103.27C69.23 103.63 69.1 104.41 69.27 104.87C69.3 104.96 69.35 105.03 69.39 105.11C69.33 105.23 69.28 105.37 69.24 105.5C69.04 106.22 69.25 107.31 69.98 107.68C69.91 107.77 69.84 107.87 69.8 107.97C69.51 108.68 69.66 109.4 70.08 109.93C70.09 110.07 70.12 110.2 70.17 110.32C70.17 110.33 70.16 110.34 70.16 110.35C70.04 110.68 70.03 111.02 70.1 111.32C69.99 111.47 69.89 111.62 69.81 111.8C69.56 112.37 69.57 113.26 70.03 113.76C70.01 113.79 69.99 113.82 69.98 113.85C69.6 114.58 69.62 115.9 70.58 116.21C71.13 116.39 71.72 116.17 72.41 115.9C72.49 115.87 72.58 115.84 72.66 115.79C72.79 115.76 72.93 115.73 73.07 115.7C73.14 115.69 73.21 115.67 73.29 115.64C73.51 115.72 73.75 115.76 74 115.76C74.23 115.76 74.49 115.69 74.73 115.58C74.84 115.67 74.97 115.75 75.13 115.78C75.52 115.86 75.91 115.72 76.33 115.51C76.73 115.62 77.14 115.61 77.53 115.48C77.91 115.59 78.33 115.61 78.75 115.51C78.77 115.51 78.79 115.5 78.81 115.49C78.92 115.53 79.04 115.56 79.16 115.58C79.54 115.64 80 115.57 80.4 115.4C80.83 115.46 81.31 115.33 81.84 115.17C82.43 115.48 83.26 115.57 83.75 115.11C83.92 115.12 84.08 115.09 84.24 115.03C84.55 115.16 84.89 115.18 85.2 114.98C85.28 114.93 85.35 114.86 85.41 114.79C85.65 114.88 85.91 114.89 86.16 114.74C86.27 114.67 86.36 114.57 86.44 114.46C86.81 115.1 87.53 115.64 88.26 115.31C88.55 115.18 88.77 114.94 88.96 114.65C89.13 114.66 89.3 114.65 89.48 114.61C89.52 114.6 89.56 114.58 89.6 114.57C89.77 114.56 89.96 114.51 90.15 114.45C90.43 114.74 90.82 114.97 91.22 115.01C91.47 115.19 91.76 115.29 92.1 115.23C92.25 115.2 92.38 115.15 92.51 115.08C92.91 115.34 93.38 115.45 93.84 115.22C94.05 115.11 94.21 114.95 94.35 114.75C94.59 114.68 94.84 114.59 95.1 114.48C95.71 114.28 96.42 113.53 96.38 112.86C96.37 112.69 96.3 112.5 96.2 112.32C96.49 112.09 96.64 111.76 96.54 111.39ZM86.2 111.92C86.01 111.87 85.8 111.86 85.6 111.89L85.59 111.88C85.25 111.63 84.65 111.61 84.24 111.77C84.16 111.72 84.09 111.67 84 111.65C83.8 111.58 83.54 111.6 83.3 111.66C83.12 111.5 82.91 111.39 82.7 111.35C82.28 111.28 81.73 111.49 81.36 111.79C80.93 111.83 80.52 112 80.18 112.28C79.7 111.84 78.9 111.53 78.33 111.75C78.18 111.81 78.03 111.92 77.9 112.04C77.41 111.99 76.89 112.06 76.58 112.35L76.57 112.36C76.36 112.38 76.13 112.45 75.92 112.55C75.61 112.59 75.32 112.71 75.07 112.9C74.75 112.77 74.39 112.73 74.11 112.85C73.9 112.76 73.67 112.7 73.44 112.69C73.57 112.45 73.64 112.19 73.61 111.94C73.56 111.49 73.16 110.98 72.73 110.73C72.73 110.72 72.73 110.72 72.72 110.71C72.8 110.59 72.84 110.46 72.85 110.31C72.93 110.21 73.01 110.1 73.05 109.96C73.21 109.45 72.99 108.89 72.74 108.25C72.69 108.09 72.59 107.92 72.47 107.75C72.48 107.6 72.45 107.44 72.4 107.28C72.5 107.13 72.58 106.96 72.62 106.78C73.05 106.34 73.38 105.65 73.24 105.1C73.2 104.96 73.13 104.82 73.04 104.68C73.05 104.52 73.03 104.36 72.96 104.2C72.85 103.96 72.67 103.78 72.44 103.62C72.44 103.6 72.44 103.59 72.44 103.57C72.39 103.31 72.23 103.1 72.01 102.89C72.21 102.77 72.37 102.61 72.45 102.37C72.59 101.97 72.49 101.53 72.33 101.05C72.38 100.92 72.42 100.78 72.47 100.64C72.64 100.2 72.63 99.55 72.41 99.04C72.77 98.63 72.97 98.09 72.71 97.56C72.56 97.25 72.29 97.04 71.96 96.85C72.11 96.7 72.23 96.53 72.28 96.34C72.39 95.9 72.17 95.27 71.84 94.93C71.92 94.68 71.91 94.43 71.78 94.2C71.79 94.16 71.8 94.13 71.82 94.09C71.98 93.71 71.97 93.14 71.79 92.69C72.1 92.84 72.45 92.88 72.79 92.71C72.92 92.65 73.04 92.56 73.14 92.45C73.31 92.49 73.5 92.48 73.69 92.41C73.82 92.36 73.94 92.27 74.04 92.17C74.64 92.46 75.49 92.48 75.89 91.89C75.98 91.89 76.08 91.88 76.17 91.86C76.18 91.87 76.19 91.88 76.2 91.89C76.69 92.21 77.34 92.14 78.08 92.06C78.27 92.05 78.49 91.99 78.7 91.91C78.9 91.86 79.11 91.8 79.32 91.72C79.57 91.73 79.83 91.72 80.12 91.71C80.16 91.71 80.19 91.7 80.23 91.7C80.69 91.9 81.21 91.94 81.73 91.81C81.9 91.77 82.08 91.68 82.25 91.58C82.31 91.58 82.37 91.57 82.43 91.56C82.7 91.7 82.99 91.79 83.31 91.81C83.46 91.82 83.62 91.81 83.79 91.78C84.26 92.02 84.82 92.08 85.24 91.71C85.36 91.61 85.44 91.48 85.52 91.34C85.58 91.33 85.64 91.32 85.71 91.31C85.79 91.3 85.88 91.28 85.97 91.26C86.18 91.27 86.4 91.26 86.64 91.24C86.74 91.24 86.84 91.22 86.95 91.2C87.38 91.47 87.94 91.6 88.36 91.32C88.37 91.32 88.38 91.33 88.39 91.33C88.77 91.45 89.28 91.44 89.7 91.27C89.97 91.52 90.3 91.67 90.7 91.6C90.89 91.57 91.06 91.47 91.23 91.36C91.25 91.45 91.29 91.53 91.32 91.61C91.29 91.83 91.3 92.05 91.37 92.22C91.45 92.42 91.56 92.59 91.69 92.74C91.67 92.8 91.64 92.85 91.63 92.91C91.51 93.3 91.57 93.85 91.84 94.2C91.84 94.23 91.83 94.25 91.83 94.28C91.82 94.37 91.83 94.48 91.85 94.58C91.75 94.76 91.67 94.95 91.62 95.15C91.58 95.32 91.57 95.52 91.59 95.72C91.45 96.35 91.62 97 92.03 97.52C92.03 97.56 92.03 97.61 92.03 97.65C91.53 98.25 91.29 99.42 92.08 99.92C92.08 99.95 92.08 99.98 92.08 100.01C92.04 100.16 92.02 100.32 92.03 100.45C92.07 100.95 92.29 101.37 92.62 101.67C92.63 101.81 92.65 101.94 92.7 102.07C92.52 102.53 92.56 103.02 92.77 103.44V103.45C92.73 103.78 92.78 104.08 92.92 104.34C92.79 104.82 92.88 105.27 93.13 105.63C93.09 105.7 93.06 105.77 93.03 105.84C92.93 106.13 92.92 106.51 93.02 106.84C92.84 107.24 92.8 107.74 93.06 108.08C92.91 108.33 92.81 108.59 92.8 108.83C92.76 109.55 93.06 110.17 93.55 110.57C93.48 110.7 93.43 110.84 93.4 110.99C93.22 111 93.05 111.03 92.91 111.09C92.84 111.12 92.78 111.16 92.71 111.2C92.6 111.19 92.5 111.17 92.4 111.18C92.14 111.21 91.91 111.28 91.7 111.38C91.29 111.29 90.77 111.37 90.47 111.58C90.35 111.66 90.25 111.75 90.16 111.85C90 111.86 89.85 111.89 89.7 111.94C89.65 111.91 89.61 111.88 89.55 111.86C89.5 111.83 89.43 111.81 89.37 111.78C89.35 111.76 89.35 111.72 89.33 111.7C88.94 111.31 88.1 111.16 87.59 111.34C87.24 111.46 86.96 111.66 86.74 111.91C86.55 111.88 86.37 111.88 86.2 111.92Z" fill="#FF8412"/>
<path d="M34.8101 33.28C34.8101 33.28 41.6701 -1.85004 82.4401 5.74996C119.37 12.63 117.23 47.98 105.7 56.54C120.21 60.26 118.91 77.56 115.93 86.87C112.95 96.17 106.57 107.9 79.1401 105.67C68.4601 103.81 64.2101 99.89 61.2301 93.57C61.2301 93.57 26.4401 113.94 8.02008 84.27C-11.9899 52.02 24.7601 28.81 34.8101 33.28Z" fill="#FFEA62"/>
<path d="M119.58 74.21C119.53 74.11 119.44 74.01 119.35 73.92C119.38 73.41 119.25 72.87 118.94 72.56C119 72.4 119.02 72.22 118.98 72.03C118.9 71.67 118.64 71.39 118.31 71.1C118.42 70.76 118.44 70.39 118.29 70.12C118.19 69.93 117.99 69.77 117.76 69.65C117.76 69.63 117.75 69.62 117.75 69.6C117.99 69.35 118.12 69.03 118.01 68.67C117.98 68.58 117.93 68.5 117.88 68.42C118.06 68.18 118.17 67.9 118.16 67.64C118.15 67.3 117.92 66.91 117.64 66.63C117.68 66.28 117.6 65.86 117.43 65.51C117.38 65.25 117.26 65 117.1 64.81C117.21 64.53 117.23 64.22 117.03 63.94C116.96 63.84 116.86 63.76 116.76 63.69C116.67 63.42 116.53 63.14 116.38 62.85C116.19 62.41 115.68 61.95 115.17 61.81C114.89 61.48 114.49 61.22 114.12 61.22C114.08 61.22 114.03 61.24 113.98 61.25C113.92 61.19 113.86 61.14 113.8 61.09C113.66 60.87 113.47 60.68 113.28 60.59C113.27 60.59 113.26 60.58 113.25 60.58C113.21 60.48 113.18 60.38 113.14 60.28C112.95 59.66 112.22 58.93 111.53 58.91C111.49 58.88 111.45 58.83 111.4 58.81C111.4 58.81 111.4 58.81 111.39 58.81L111.38 58.8C111.1 58.51 110.68 58.41 110.19 58.35C110.02 57.93 109.66 57.51 109.25 57.43C109.17 57.42 109.09 57.43 109 57.43C108.93 57.35 108.85 57.27 108.76 57.19C108.64 57.02 108.5 56.84 108.34 56.66C108.24 56.52 108.1 56.39 107.93 56.28C107.88 56.21 107.82 56.13 107.77 56.06C107.77 56.04 107.77 56.02 107.76 56C107.78 55.97 107.8 55.95 107.81 55.92C108.04 55.84 108.24 55.68 108.34 55.42C108.37 55.33 108.39 55.24 108.39 55.14C108.41 55.13 108.42 55.13 108.44 55.12C108.83 54.99 109.25 54.62 109.48 54.2C110.08 53.88 110.57 53.26 110.34 52.58C110.33 52.55 110.31 52.52 110.29 52.49C110.33 52.42 110.37 52.36 110.4 52.29C110.76 52.15 111.08 51.88 111.21 51.54C111.85 51.24 112.43 50.58 112.16 49.85C112.15 49.84 112.14 49.82 112.14 49.81C112.22 49.69 112.29 49.57 112.31 49.44C112.31 49.43 112.31 49.43 112.31 49.42C112.84 49.1 113.28 48.47 112.98 47.87C112.96 47.82 112.92 47.78 112.89 47.74C112.91 47.57 112.93 47.38 112.94 47.19C112.94 47.17 112.94 47.14 112.94 47.12C113.14 46.96 113.29 46.76 113.35 46.54C113.41 46.3 113.36 45.99 113.25 45.72C113.29 45.6 113.32 45.48 113.36 45.36C113.45 45.1 113.47 44.76 113.41 44.43C113.42 44.37 113.43 44.3 113.44 44.24C113.82 44 114.15 43.65 114.22 43.26C114.3 42.85 114.11 42.3 113.82 41.93C113.85 41.81 113.87 41.69 113.86 41.58C113.85 41.54 113.83 41.5 113.82 41.46C114.08 41.11 114.22 40.5 114.11 40.02C114.23 39.79 114.29 39.54 114.25 39.31C114.22 39.18 114.15 39.06 114.06 38.93C114.16 38.68 114.2 38.38 114.16 38.09C114.41 37.75 114.55 37.28 114.37 36.91C114.43 36.81 114.48 36.7 114.49 36.59C114.51 36.4 114.45 36.18 114.35 35.99C114.64 35.44 114.75 34.64 114.41 34.16C114.31 34.02 114.15 33.9 113.98 33.8C113.9 33.65 113.81 33.5 113.7 33.41C113.67 33.39 113.65 33.37 113.62 33.35C113.59 33.24 113.55 33.13 113.5 33.01C113.72 32.75 113.86 32.44 113.86 32.15C113.86 32.01 113.81 31.86 113.75 31.72C113.76 31.67 113.77 31.62 113.77 31.57C113.75 31.03 113.37 30.57 112.91 30.06C112.91 30.05 112.92 30.05 112.92 30.05C113.07 29.53 112.83 28.97 112.55 28.33C112.52 28.25 112.48 28.17 112.44 28.09C112.48 27.96 112.49 27.83 112.48 27.7C112.58 27.55 112.65 27.39 112.67 27.22C112.74 26.68 112.36 25.94 111.92 25.65C111.91 25.64 111.9 25.64 111.89 25.64C111.88 25.46 111.82 25.29 111.68 25.15C111.61 25.07 111.53 25.01 111.44 24.96C111.79 24.6 112 24.13 111.82 23.62C111.62 23.07 111.07 22.73 110.42 22.34C110.37 22.31 110.3 22.29 110.24 22.26C110.19 22.22 110.15 22.17 110.1 22.14C110.12 21.98 110.12 21.83 110.09 21.69C109.98 21.29 109.56 20.9 109.15 20.73C109 20.17 108.47 19.52 107.88 19.32C107.8 19.09 107.64 18.86 107.45 18.68C107.34 18.39 107.11 18.15 106.83 17.94C106.87 17.58 106.78 17.23 106.5 16.95C106.37 16.82 106.2 16.73 106.02 16.66C105.97 16.45 105.87 16.26 105.69 16.09C105.58 15.99 105.45 15.91 105.31 15.86C105.27 15.77 105.23 15.68 105.16 15.59C104.91 15.26 104.51 15.1 104.04 14.98C104.04 14.95 104.04 14.92 104.04 14.89C103.93 14.31 103.42 13.89 102.83 13.4C102.82 13.39 102.8 13.38 102.79 13.37C102.54 13 102.08 12.84 101.55 12.67C101.53 12.62 101.5 12.57 101.48 12.52C101.35 12.23 101.04 11.94 100.7 11.78C100.63 11.7 100.55 11.62 100.47 11.54C100.18 11.2 99.6 10.93 99.1 10.95C98.95 10.46 98.63 9.99996 98.21 9.83996C97.84 9.69996 97.31 9.76996 96.9 9.94996C96.68 9.78996 96.43 9.64996 96.16 9.48996C95.96 9.35996 95.69 9.27996 95.4 9.23996C95.27 9.09996 95.12 8.97996 94.95 8.92996C94.83 8.88996 94.7 8.87996 94.55 8.88996C94.34 8.75996 94.1 8.65996 93.87 8.62996C93.73 8.49996 93.59 8.37996 93.45 8.31996C93.07 8.15996 92.7 8.11996 92.34 8.17996C92.31 8.15996 92.28 8.13996 92.25 8.11996C92.19 8.00996 92.12 7.89996 92.02 7.80996C91.81 7.61996 91.54 7.52996 91.24 7.47996C91.2 7.42996 91.17 7.37996 91.12 7.33996C90.74 6.99996 90.19 6.93996 89.56 6.91996C89.41 6.80996 89.25 6.73996 89.09 6.68996C89.07 6.65996 89.07 6.60996 89.05 6.57996C88.75 6.13996 87.97 5.84996 87.45 5.92996C87.26 5.95996 87.09 6.01996 86.93 6.08996C86.69 5.90996 86.42 5.79996 86.16 5.82996C86.09 5.83996 86.01 5.86996 85.93 5.89996C85.78 5.86996 85.62 5.83996 85.44 5.81996C85.31 5.37996 85.03 4.93996 84.71 4.72996C84.18 4.38996 83.59 4.29996 83.05 4.42996C82.82 4.38996 82.57 4.35996 82.3 4.33996C82.15 4.31996 81.98 4.31996 81.81 4.34996C81.45 4.10996 81 3.97996 80.64 4.08996C80.61 4.09996 80.58 4.12996 80.55 4.13996C80.48 4.11996 80.4 4.10996 80.33 4.08996C80.07 4.01996 79.75 4.01996 79.43 4.07996C79.38 4.07996 79.33 4.05996 79.28 4.05996C78.99 4.07996 78.73 4.15996 78.5 4.27996C78.39 4.24996 78.28 4.22996 78.16 4.19996C77.64 4.04996 76.83 4.18996 76.41 4.58996C76.09 4.33996 75.64 4.18996 75.28 4.27996C74.75 3.96996 73.81 3.89996 73.34 4.31996C73.28 4.36996 73.24 4.44996 73.19 4.51996C73.05 4.46996 72.92 4.43996 72.78 4.42996C72.72 4.37996 72.65 4.31996 72.59 4.28996C71.93 3.94996 71.23 3.98996 70.66 4.30996C70.39 4.17996 70.1 4.10996 69.85 4.18996C69.84 4.18996 69.83 4.19996 69.81 4.20996C69.4 3.96996 68.9 3.83996 68.51 3.98996C68.44 4.01996 68.37 4.06996 68.31 4.11996C68.25 4.11996 68.2 4.10996 68.15 4.09996C67.86 4.05996 67.51 4.10996 67.18 4.22996C66.97 4.09996 66.74 3.99996 66.53 3.97996C65.84 3.90996 65.25 4.15996 64.83 4.59996C64.45 4.12996 63.58 3.75996 63.01 3.99996C62.96 4.01996 62.91 4.06996 62.86 4.09996C62.56 4.08996 62.21 4.19996 61.95 4.38996C61.84 4.37996 61.74 4.37996 61.65 4.39996C61.28 4.46996 60.98 4.65996 60.76 4.90996C60.72 4.89996 60.68 4.87996 60.63 4.87996C60.47 4.74996 60.3 4.64996 60.11 4.59996C59.55 4.46996 58.73 4.79996 58.38 5.23996C58.23 5.42996 58.13 5.62996 58.05 5.83996C57.97 5.88996 57.9 5.95996 57.83 6.01996C57.23 5.87996 56.39 6.03996 56.04 6.50996C55.96 6.61996 55.9 6.76996 55.85 6.92996C55.79 6.95996 55.73 6.96996 55.68 7.00996C55.61 7.06996 55.54 7.15996 55.49 7.25996C55.2 7.25996 54.88 7.34996 54.63 7.49996C54.04 7.44996 53.21 7.76996 52.96 8.31996C52.94 8.35996 52.94 8.40996 52.93 8.44996C52.64 8.41996 52.27 8.54996 52.01 8.74996C51.53 8.58996 50.97 8.55996 50.6 8.80996C50.4 8.93996 50.24 9.16996 50.13 9.42996C49.8 9.41996 49.45 9.47996 49.21 9.60996C48.88 9.79996 48.63 10.06 48.46 10.35C48.29 10.41 48.14 10.49 48.03 10.59C48.02 10.6 48.02 10.6 48.01 10.61C47.59 10.62 47.11 10.83 46.87 11.12C46.7 11.33 46.58 11.55 46.52 11.79C46.11 11.9 45.7 12.15 45.5 12.49C45.36 12.6 45.24 12.72 45.14 12.85C44.72 13.03 44.31 13.4 44.16 13.77C44.02 14.09 43.98 14.42 44 14.73C43.19 14.99 42.64 15.7 42.55 16.58C42.09 16.59 41.56 16.78 41.28 17.12C41.09 17.16 40.92 17.23 40.78 17.34C40.49 17.57 40.29 18.03 40.24 18.46C40.01 18.72 39.86 19.08 39.84 19.38C39.65 19.54 39.49 19.79 39.42 20.04C39.02 20.11 38.62 20.3 38.45 20.62C38.41 20.69 38.4 20.77 38.38 20.85C37.96 21.03 37.59 21.34 37.46 21.71C37.35 22.04 37.43 22.48 37.59 22.86C37.58 22.88 37.57 22.9 37.56 22.91C37.51 23.01 37.48 23.12 37.46 23.24C37.29 23.48 37.19 23.75 37.17 24.02C37.02 24.12 36.88 24.24 36.75 24.39C36.62 24.42 36.5 24.46 36.39 24.52C35.94 24.81 35.62 25.57 35.68 26.09C35.7 26.24 35.73 26.38 35.78 26.51C35.76 26.56 35.74 26.6 35.72 26.65C35.22 26.99 34.87 27.53 34.75 28.17C34.71 28.37 34.71 28.6 34.74 28.82C34.72 28.88 34.69 28.93 34.67 29C34.4 29.28 34.23 29.76 34.28 30.11C34.29 30.18 34.31 30.24 34.33 30.3C34.24 30.37 34.16 30.44 34.11 30.53C34.02 30.69 33.99 30.91 34 31.14C33.92 31.21 33.86 31.28 33.79 31.36C33.26 31.22 32.47 31.52 32.13 31.94C32.06 32.03 32 32.12 31.94 32.22C31.88 32.24 31.83 32.27 31.77 32.29C31.76 32.29 31.74 32.28 31.73 32.28C31.39 31.93 30.83 31.67 30.4 31.68C29.86 31.69 29.39 31.89 29.03 32.21C28.99 32.21 28.95 32.21 28.92 32.22C28.85 32.24 28.79 32.28 28.73 32.31C28.59 32.25 28.45 32.2 28.32 32.19C28.14 32.18 27.97 32.2 27.8 32.23C27.71 32.15 27.62 32.07 27.51 32.03C27.06 31.83 26.31 31.98 25.94 32.3C25.85 32.38 25.77 32.47 25.7 32.55C25.48 32.51 25.26 32.5 25.07 32.58C24.78 32.71 24.53 33.04 24.4 33.38C24.35 33.41 24.29 33.43 24.25 33.46C23.77 33.26 23.19 33.2 22.8 33.44C22.52 33.61 22.29 33.96 22.16 34.33C21.96 34.48 21.79 34.66 21.71 34.85C21.71 34.86 21.7 34.87 21.7 34.88C21.49 34.95 21.31 35.05 21.14 35.19C21.09 35.19 21.04 35.18 20.99 35.18C20.37 35.1 19.43 35.48 19.18 36.09C19.14 36.18 19.13 36.29 19.12 36.4C18.87 36.44 18.62 36.53 18.46 36.67C18.38 36.74 18.31 36.81 18.25 36.89C17.96 36.92 17.66 37.02 17.48 37.19C17.46 37.2 17.45 37.22 17.44 37.23C17.3 37.23 17.17 37.25 17.06 37.29C16.87 37.35 16.71 37.44 16.56 37.55C16.2 37.41 15.81 37.36 15.49 37.48C15.14 37.61 14.82 37.98 14.62 38.36C14.4 38.49 14.21 38.65 14.1 38.83C13.95 39.07 13.86 39.32 13.83 39.57C13.74 39.61 13.65 39.64 13.58 39.7C13.36 39.9 13.22 40.28 13.21 40.62C13.17 40.66 13.15 40.71 13.11 40.75C12.94 40.78 12.78 40.83 12.66 40.9C12.35 41.09 12.12 41.34 11.97 41.63C11.38 41.89 10.92 42.39 10.7 43.05C10.67 43.15 10.64 43.26 10.63 43.37C10.27 43.39 9.92004 43.51 9.70004 43.74C9.47004 43.99 9.36004 44.43 9.37004 44.83C9.19004 45.06 9.07004 45.33 9.02004 45.62C8.88004 45.75 8.77004 45.9 8.69004 46.06C8.41004 46.17 8.17004 46.35 7.99004 46.58C7.43004 46.79 7.03004 47.2 6.83004 47.71C6.79004 47.73 6.73004 47.73 6.69004 47.75C6.36004 47.95 6.13004 48.46 6.12004 48.87C6.09004 48.9 6.05004 48.93 6.02004 48.96C5.96004 49.04 5.90004 49.13 5.86004 49.22C5.29004 49.25 4.62004 49.55 4.40004 50.04C4.28004 50.31 4.29004 50.68 4.37004 51.02C4.06004 51.27 3.81004 51.6 3.72004 51.92C3.57004 52.45 3.63004 52.97 3.83004 53.41C3.52004 53.54 3.25004 53.73 3.11004 53.99C2.85004 54.47 2.94004 55.3 3.26004 55.73C3.30004 55.78 3.34004 55.82 3.38004 55.86C3.38004 55.9 3.38004 55.95 3.39004 55.99C3.31004 56.09 3.24004 56.19 3.18004 56.3C2.80004 56.56 2.49004 57.02 2.42004 57.41C2.34004 57.88 2.41004 58.31 2.59004 58.69C2.56004 58.75 2.53004 58.8 2.51004 58.86C2.38004 59.18 2.35004 59.62 2.47004 59.99C2.45004 60.04 2.43004 60.08 2.42004 60.13C2.41004 60.16 2.41004 60.18 2.41004 60.21C2.03004 60.65 1.89004 61.25 2.04004 61.85C2.04004 61.86 2.05004 61.87 2.05004 61.88C2.03004 61.91 2.01004 61.93 2.00004 61.96C1.91004 62.13 1.85004 62.36 1.85004 62.58C1.73004 62.72 1.62004 62.89 1.54004 63.07C1.46004 63.26 1.42004 63.49 1.43004 63.73C1.29004 63.95 1.19004 64.2 1.15004 64.48C1.13004 64.6 1.14004 64.74 1.15004 64.88C1.12004 64.93 1.09004 64.98 1.06004 65.04C0.820043 65.15 0.610041 65.31 0.480041 65.51C0.200041 65.97 0.250042 66.8 0.540042 67.24C0.640042 67.39 0.75004 67.51 0.87004 67.62C0.86004 67.86 0.880042 68.11 0.950042 68.35C1.08004 68.82 1.45004 69.34 1.92004 69.62C1.91004 69.7 1.90004 69.79 1.90004 69.88C1.90004 70.04 1.93004 70.22 1.98004 70.39C1.72004 71.1 1.88004 72.24 2.73004 72.48C2.81004 72.59 2.90004 72.68 3.01004 72.77C2.92004 72.95 2.86004 73.13 2.84004 73.3C2.80004 73.76 2.91004 74.17 3.12004 74.52C3.10004 74.83 3.16004 75.14 3.28004 75.37C3.38004 75.55 3.51004 75.7 3.64004 75.84C3.63004 76.18 3.69004 76.52 3.83004 76.85C3.95004 77.13 4.17004 77.41 4.44004 77.63C4.50004 77.81 4.60004 77.99 4.72004 78.13C4.65004 78.23 4.58004 78.34 4.52004 78.46C4.13004 79.23 4.18004 80.6 5.18004 80.92C5.29004 80.95 5.40004 80.96 5.51004 80.97C5.54004 81 5.57004 81.03 5.61004 81.06C5.48004 81.33 5.41004 81.63 5.43004 81.87C5.47004 82.41 5.70004 82.86 6.04004 83.2C6.07004 83.41 6.14004 83.61 6.24004 83.76C6.38004 83.96 6.56004 84.12 6.75004 84.23C6.70004 84.6 6.80004 85.06 7.07004 85.32C7.09004 85.39 7.11004 85.46 7.14004 85.51C7.34004 85.84 7.61004 86.08 7.92004 86.23C7.98004 86.47 8.09004 86.7 8.23004 86.91C8.36004 87.1 8.54004 87.27 8.75004 87.42C8.83004 87.57 8.94004 87.7 9.11004 87.79C9.29004 87.89 9.50004 87.92 9.72004 87.92C9.82004 88.24 10.01 88.56 10.27 88.76C10.52 89.18 10.92 89.5 11.4 89.67C11.47 89.75 11.55 89.83 11.63 89.9C11.75 90.36 12.01 90.79 12.4 91.12C12.42 91.13 12.44 91.15 12.45 91.16C12.53 91.35 12.65 91.52 12.85 91.64C13.05 91.76 13.28 91.8 13.53 91.81C13.61 91.98 13.71 92.15 13.83 92.3C14.04 92.56 14.38 92.78 14.74 92.9C14.86 93.06 15 93.19 15.18 93.26C15.2 93.32 15.22 93.39 15.25 93.45C15.29 93.53 15.34 93.61 15.39 93.68C15.38 94.39 15.69 95.19 16.46 95.31H16.47C16.66 95.73 17.01 96.06 17.5 96.08C17.62 96.08 17.74 96.06 17.86 96.03C17.95 96.39 18.12 96.75 18.38 97.05C18.64 97.36 19.07 97.62 19.52 97.73C19.6 97.97 19.75 98.18 19.99 98.32C20.32 98.5 20.72 98.5 21.16 98.43C21.59 98.98 22.41 99.41 23.07 99.08C23.19 99.1 23.31 99.11 23.44 99.07C23.59 99.03 23.72 98.95 23.84 98.86C23.95 98.95 24.06 99.02 24.18 99.07C24.55 99.45 25.06 99.69 25.64 99.73C25.88 99.75 26.15 99.71 26.41 99.63C26.49 99.64 26.57 99.64 26.65 99.64C26.73 99.71 26.81 99.78 26.9 99.84C27.06 100.36 27.42 100.8 28 100.85C28.37 100.88 28.73 100.73 29.1 100.52C29.23 100.53 29.37 100.51 29.52 100.48C29.76 100.74 30.05 100.95 30.4 101.08C30.79 101.23 31.32 101.26 31.78 101.12C32.13 101.59 32.71 101.93 33.26 101.7C33.51 101.79 33.78 101.84 34.06 101.83C34.08 101.85 34.1 101.87 34.13 101.89C34.78 102.4 36.08 102.62 36.57 101.74C36.6 101.68 36.61 101.62 36.63 101.56C36.72 101.49 36.81 101.42 36.9 101.35C36.98 101.37 37.06 101.4 37.15 101.41C37.23 101.42 37.31 101.43 37.39 101.43C37.51 101.51 37.64 101.59 37.77 101.65C38.43 101.95 39.51 101.9 39.94 101.23C40.06 101.19 40.17 101.14 40.28 101.08C40.3 101.07 40.31 101.06 40.33 101.05C40.44 101.05 40.54 101.04 40.65 101.02C40.94 101.14 41.25 101.17 41.56 101.14C42.01 101.57 42.64 101.82 43.21 101.48C43.52 101.3 43.72 100.98 43.89 100.6C44.22 100.78 44.6 100.88 45.01 100.88C45.48 100.88 46.06 100.65 46.42 100.27C46.51 100.24 46.61 100.19 46.71 100.13C46.83 100.25 46.97 100.34 47.15 100.39C47.43 100.46 47.72 100.4 48.03 100.29C48.14 100.34 48.26 100.38 48.39 100.39C48.86 100.43 49.3 100.17 49.78 99.84C50.13 99.96 50.52 99.99 50.86 99.9C51.05 99.92 51.24 99.91 51.44 99.82C51.68 99.72 51.87 99.53 52.04 99.31C52.38 99.21 52.68 98.99 52.98 98.69C53.65 98.86 54.52 98.71 54.77 98C55.33 98.25 56.01 98.28 56.41 97.76C56.55 97.57 56.62 97.35 56.66 97.1C56.73 97.06 56.81 97.02 56.89 96.98C56.97 96.95 57.04 96.88 57.11 96.83C57.56 96.94 58.15 96.85 58.43 96.46C58.69 96.46 59 96.37 59.26 96.22C59.82 96.28 60.51 96.09 60.81 95.6C60.87 95.91 60.99 96.21 61.18 96.49C61.25 96.59 61.34 96.69 61.44 96.78C61.5 97 61.61 97.2 61.83 97.35C61.87 97.38 61.92 97.39 61.96 97.41C61.97 97.79 62.11 98.15 62.46 98.37C62.54 98.42 62.64 98.45 62.73 98.48C62.79 98.89 62.98 99.25 63.4 99.42C63.58 99.49 63.77 99.5 63.96 99.49C64.02 99.63 64.1 99.76 64.19 99.88C64.3 100.16 64.47 100.39 64.67 100.58C64.61 101.32 64.9 102.19 65.69 102.34C65.84 102.49 66 102.61 66.17 102.7C66.26 102.92 66.41 103.11 66.63 103.25C67.14 103.56 67.8 103.47 68.55 103.37C68.59 103.37 68.64 103.36 68.68 103.35C68.91 103.98 69.45 104.57 70.16 104.43C70.17 104.43 70.19 104.42 70.2 104.41C70.44 104.64 70.76 104.79 71.12 104.72C71.26 104.7 71.39 104.64 71.51 104.58C71.82 104.74 72.17 104.82 72.54 104.82C72.55 104.82 72.57 104.82 72.58 104.82C72.68 104.89 72.79 104.95 72.91 104.97C73.31 105.41 73.9 105.68 74.55 105.69C74.55 105.69 74.55 105.69 74.56 105.69C74.77 105.86 75.02 105.99 75.28 106.05C75.45 106.2 75.64 106.33 75.86 106.43C76.08 106.53 76.34 106.59 76.61 106.61C76.68 106.7 76.76 106.79 76.87 106.86C77.33 107.18 77.95 107.12 78.67 107.06C78.68 107.06 78.7 107.06 78.71 107.06C78.92 107.23 79.18 107.32 79.47 107.25C79.66 107.2 79.82 107.09 79.97 106.94C79.98 106.95 80 106.96 80.01 106.97C80.47 107.24 81.24 107.3 81.67 106.92C81.76 106.91 81.86 106.89 81.95 106.87C82.38 107.07 82.9 107.11 83.39 106.95C83.45 106.93 83.51 106.9 83.56 106.88C83.89 107 84.27 107.02 84.58 106.89C84.87 107.32 85.3 107.63 85.85 107.54C86.23 107.47 86.55 107.22 86.86 106.9C86.94 106.93 87.03 106.95 87.12 106.97C87.28 107.09 87.48 107.17 87.71 107.17C87.89 107.17 88.07 107.12 88.24 107.04C88.46 107.22 88.73 107.32 89.05 107.28C89.36 107.24 89.63 107.07 89.89 106.84C90.18 106.92 90.49 106.95 90.81 106.91C90.91 106.9 91.01 106.87 91.12 106.84C91.53 107 92.01 107.04 92.37 106.82C92.64 106.85 92.92 106.83 93.2 106.76C93.42 106.7 93.64 106.59 93.85 106.45C93.93 106.45 94 106.43 94.09 106.41C94.34 106.42 94.61 106.39 94.91 106.34C95.17 106.51 95.47 106.63 95.81 106.68C96.26 106.74 96.84 106.6 97.24 106.29C97.44 106.37 97.66 106.38 97.9 106.32C98.32 106.2 98.63 105.87 98.93 105.44C99.01 105.43 99.09 105.42 99.18 105.4C99.56 105.36 100.03 105.13 100.35 104.81C100.65 104.75 100.96 104.6 101.18 104.38C101.41 104.36 101.65 104.29 101.85 104.18C102.34 104.25 102.99 104.09 103.35 103.7C103.73 103.89 104.15 103.94 104.54 103.69C104.77 103.54 104.93 103.32 105.06 103.06C105.32 103.2 105.61 103.27 105.94 103.19C106.32 103.09 106.61 102.82 106.9 102.47C107.47 102.57 108.08 102.46 108.38 101.92C108.54 101.65 108.57 101.33 108.56 100.99C108.9 100.83 109.16 100.56 109.21 100.17C109.22 100.16 109.24 100.15 109.25 100.14C109.31 100.07 109.34 100 109.38 99.92C109.68 99.73 109.98 99.46 110.29 99.15C110.31 99.13 110.33 99.11 110.35 99.09C110.76 99.05 111.14 98.87 111.33 98.46C111.4 98.31 111.42 98.15 111.43 97.99C111.5 97.94 111.56 97.88 111.62 97.81C111.83 97.54 111.87 97.19 111.88 96.78C112.28 96.65 112.63 96.36 112.66 95.94C112.76 95.81 112.86 95.65 112.95 95.48C113.11 95.41 113.27 95.33 113.45 95.25C113.8 95.11 114.17 94.73 114.33 94.32C114.36 94.3 114.39 94.29 114.42 94.26C114.98 93.84 115.46 92.89 115.09 92.2C115.13 92.15 115.18 92.1 115.21 92.03C115.27 91.92 115.29 91.8 115.3 91.68C115.91 91.52 116.48 91.09 116.45 90.42C116.44 90.26 116.39 90.11 116.33 89.96C116.39 89.82 116.44 89.68 116.5 89.53C116.51 89.51 116.52 89.48 116.53 89.46C117.22 89.05 117.85 88.04 117.37 87.26C117.37 87.25 117.37 87.24 117.38 87.22C117.44 86.98 117.43 86.67 117.36 86.37C117.57 86.25 117.75 86.06 117.82 85.79C117.9 85.49 117.84 85.17 117.72 84.84C118.17 84.44 118.47 83.8 118.13 83.25C118.12 83.23 118.1 83.22 118.09 83.2C118.09 83.12 118.09 83.04 118.09 82.95C118.42 82.73 118.66 82.39 118.62 81.96C118.6 81.69 118.47 81.45 118.28 81.21C118.43 80.99 118.5 80.73 118.4 80.46C118.36 80.35 118.3 80.26 118.23 80.17C118.47 79.85 118.59 79.3 118.46 78.88C118.47 78.71 118.46 78.53 118.45 78.34C118.45 78.33 118.45 78.32 118.45 78.32C118.5 78.26 118.54 78.21 118.59 78.15C118.66 78.07 118.72 77.96 118.78 77.85C119.01 77.73 119.21 77.54 119.29 77.26C119.39 76.92 119.31 76.57 119.18 76.18C119.62 75.63 119.87 74.77 119.58 74.21ZM93.16 103.55C92.79 103.33 92.22 103.26 91.72 103.35C91.44 103.32 91.11 103.4 90.83 103.55C90.33 103.32 89.66 103.27 89.2 103.52C89.03 103.56 88.87 103.61 88.73 103.69C88.71 103.69 88.68 103.67 88.66 103.67C88.32 103.64 88.01 103.71 87.74 103.83C87.62 103.75 87.5 103.69 87.37 103.66C87.27 103.64 87.17 103.65 87.06 103.66C86.78 103.53 86.47 103.46 86.22 103.49C85.77 103.53 85.39 103.7 85.08 103.95C84.9 103.89 84.73 103.85 84.56 103.89C84.46 103.91 84.37 103.96 84.27 104.01C84.17 103.96 84.07 103.91 83.96 103.9C83.74 103.88 83.48 103.96 83.26 104.09C83.25 104.09 83.25 104.08 83.24 104.08C82.74 103.82 81.86 103.83 81.42 104.22C81.37 104.22 81.33 104.22 81.28 104.23C81.06 104.04 80.8 103.91 80.54 103.9C80.31 103.9 80.05 104.01 79.82 104.17C79.36 103.82 78.84 103.7 78.34 103.76C78.17 103.59 77.94 103.45 77.68 103.35C77.32 102.86 76.7 102.43 76.15 102.48C76.06 102.49 75.96 102.53 75.86 102.56C75.72 102.53 75.58 102.53 75.43 102.54C75.41 102.53 75.4 102.51 75.39 102.5C74.97 102.06 74.06 101.75 73.44 101.97C73.38 101.91 73.31 101.86 73.25 101.8C73.11 101.66 72.9 101.54 72.68 101.44C72.42 101.22 72.06 101.07 71.73 101.03C71.38 100.71 70.82 100.51 70.41 100.56C70.28 100.58 70.15 100.61 70.03 100.64C69.92 100.49 69.81 100.35 69.68 100.26C69.34 100.02 68.97 99.89 68.61 99.85C68.5 99.32 67.89 98.74 67.38 98.61C67.34 98.6 67.31 98.6 67.27 98.59C67.1 98.44 66.92 98.29 66.72 98.14C66.71 98.13 66.69 98.12 66.68 98.11C66.66 97.91 66.62 97.72 66.51 97.58C66.49 97.56 66.46 97.54 66.44 97.52C66.36 97.09 66.04 96.63 65.68 96.42C65.56 96.12 65.37 95.85 65.16 95.69C65.05 95.61 64.93 95.54 64.81 95.49C64.71 95.28 64.59 95.09 64.44 94.98C64.38 94.94 64.32 94.9 64.27 94.87C64.25 94.24 63.93 93.48 63.4 93.23C63.26 93.16 63.09 93.13 62.91 93.12C62.87 93.07 62.83 93.02 62.79 92.98C62.55 92.67 62.16 92.46 61.7 92.23C61.22 91.94 60.31 91.91 59.89 92.32C59.81 92.4 59.73 92.51 59.68 92.63C59.58 92.67 59.49 92.72 59.4 92.77C59.16 92.68 58.9 92.65 58.68 92.71C58.34 92.8 58 93.13 57.8 93.48C57.64 93.49 57.48 93.52 57.35 93.6C57.21 93.69 57.08 93.84 56.98 94.01C56.72 94.06 56.46 94.25 56.27 94.49C56.2 94.5 56.14 94.51 56.07 94.53C55.96 94.44 55.83 94.36 55.7 94.32C55.21 94.18 54.46 94.43 54.13 94.8C54 94.95 53.9 95.12 53.82 95.28C53.55 95.08 53.25 94.96 52.96 94.97C52.6 94.99 52.18 95.26 51.91 95.57C51.8 95.6 51.69 95.64 51.59 95.69C51.32 95.65 51.04 95.66 50.83 95.73C50.62 95.8 50.45 95.9 50.28 96.02C50.26 96.02 50.24 96.01 50.22 96C49.73 95.95 49.1 96.29 48.8 96.69C48.43 96.79 48.11 97 47.85 97.28C47.56 97.34 47.3 97.48 47.08 97.67C46.85 97.61 46.58 97.6 46.32 97.66C46.07 97.61 45.82 97.63 45.58 97.7C45.09 97.32 44.22 97.11 43.69 97.42C43.64 97.45 43.6 97.5 43.55 97.54C43.1 97.36 42.49 97.36 42.11 97.55C41.89 97.66 41.71 97.8 41.55 97.95C41.5 97.95 41.45 97.95 41.4 97.95C41.04 97.92 40.57 98.05 40.2 98.28C40.08 98.28 39.96 98.3 39.84 98.33C39.74 98.31 39.65 98.28 39.54 98.26C39.39 98.22 39.22 98.2 39.05 98.2C38.73 97.95 38.36 97.79 38.01 97.83C37.62 97.87 37.17 98.17 36.89 98.52C36.78 98.52 36.67 98.52 36.58 98.56C36.56 98.57 36.53 98.59 36.51 98.6C36.35 98.59 36.2 98.6 36.05 98.63C35.82 98.39 35.55 98.22 35.27 98.17C34.95 98.12 34.57 98.24 34.24 98.44C34.14 98.41 34.06 98.38 33.95 98.36C33.57 98.12 32.95 98.06 32.57 98.22C32.46 98.27 32.35 98.33 32.26 98.39C32.25 98.38 32.25 98.36 32.24 98.35C31.97 97.74 31.12 97.09 30.43 97.19C30.34 97.2 30.25 97.25 30.16 97.29C29.91 97.09 29.63 96.95 29.38 96.9C29.02 96.84 28.69 96.88 28.38 96.97C28.09 96.73 27.73 96.57 27.41 96.6C27.26 96.62 27.11 96.68 26.97 96.76C26.91 96.73 26.85 96.71 26.78 96.69C26.74 96.65 26.71 96.61 26.67 96.57C26.24 96.06 25.23 95.67 24.59 95.97C24.55 95.99 24.52 96.03 24.48 96.05C24.3 95.93 24.08 95.85 23.86 95.82C23.73 95.56 23.56 95.34 23.33 95.21C22.94 94.99 22.32 95.03 21.87 95.22C21.69 95.18 21.51 95.18 21.33 95.19C21.29 94.53 20.86 93.69 20.25 93.47C20.16 93.44 20.04 93.43 19.93 93.42C19.92 93.38 19.92 93.34 19.91 93.31C19.8 93 19.5 92.72 19.18 92.52C18.96 92.07 18.47 91.64 18.03 91.54C17.94 91.52 17.86 91.51 17.77 91.51C17.68 91.31 17.57 91.12 17.41 91.02C17.27 90.92 17.07 90.88 16.87 90.86C16.77 90.74 16.64 90.63 16.47 90.55C16.4 89.98 16.05 89.32 15.54 89.13C15.49 89.11 15.42 89.11 15.36 89.1C15.35 89.09 15.35 89.08 15.34 89.08C15.25 89.02 15.16 88.97 15.07 88.92C14.97 88.24 14.39 87.39 13.71 87.27C13.62 87.25 13.51 87.27 13.41 87.27C13.31 87.12 13.19 86.96 13.07 86.79C12.92 86.56 12.68 86.34 12.39 86.18C12.25 85.98 11.99 85.82 11.72 85.73C11.61 85.55 11.48 85.39 11.33 85.29C11.26 85.25 11.19 85.22 11.12 85.18C11.06 84.62 10.77 84 10.32 83.78C10.14 83.69 9.91004 83.67 9.68004 83.67C9.55004 83.62 9.41004 83.57 9.27004 83.53C9.25004 83.48 9.23004 83.43 9.19004 83.39C9.30004 83.16 9.36004 82.91 9.32004 82.67C9.38004 82.5 9.42004 82.33 9.39004 82.13C9.31004 81.61 8.90004 81.21 8.42004 80.77C8.41004 80.7 8.39004 80.63 8.36004 80.57C8.45004 80.39 8.50004 80.18 8.45004 79.95C8.42004 79.79 8.34004 79.66 8.25004 79.52C8.41004 79.26 8.51004 78.98 8.49004 78.71C8.46004 78.14 7.91004 77.44 7.38004 77.23C7.22004 77.17 7.06004 77.13 6.90004 77.1C7.04004 76.77 7.07004 76.37 6.94004 76.07C7.06004 75.7 7.06004 75.19 6.92004 74.76C6.95004 74.52 6.92004 74.28 6.77004 74.06C6.72004 73.98 6.64004 73.91 6.57004 73.84C6.46004 73.41 6.14004 73.01 5.78004 72.56C5.74004 72.51 5.69004 72.45 5.65004 72.4C5.65004 72.35 5.63004 72.31 5.63004 72.27C5.72004 72.09 5.77004 71.88 5.72004 71.65C5.67004 71.43 5.55004 71.23 5.39004 71.05C5.53004 70.79 5.61004 70.51 5.57004 70.25C5.51004 69.87 5.19004 69.44 4.82004 69.2C4.82004 69.02 4.80004 68.85 4.72004 68.7C4.63004 68.54 4.46004 68.4 4.26004 68.28C4.26004 68.22 4.26004 68.17 4.25004 68.11C4.25004 68.11 4.25004 68.1 4.26004 68.1C4.52004 67.64 4.59004 66.88 4.37004 66.32C4.39004 66.05 4.34004 65.79 4.16005 65.55C4.10005 65.47 4.02004 65.41 3.94004 65.35C3.97004 65.2 3.97004 65.06 3.94004 64.93C4.16004 64.6 4.27004 64.19 4.21004 63.84C4.39004 63.59 4.50004 63.31 4.46004 63.05C4.45004 62.93 4.40004 62.81 4.33004 62.69C4.45004 62.52 4.54004 62.33 4.53004 62.14C4.53004 62.11 4.51004 62.08 4.51004 62.05C4.57004 61.94 4.63004 61.83 4.69004 61.71C4.88004 61.4 4.94004 60.93 4.87004 60.51C4.98004 60.33 5.04004 60.14 5.05004 59.95C5.15004 59.86 5.23004 59.77 5.31004 59.66C5.75004 59.49 6.11004 59.16 6.16005 58.66C6.20005 58.26 6.03004 57.88 5.79004 57.48C5.91004 57.27 5.99004 56.98 6.00004 56.69C6.12004 56.54 6.20004 56.36 6.19004 56.14C6.19004 56.13 6.18004 56.11 6.18004 56.1C6.71004 55.74 7.16004 55 7.02004 54.34C7.26004 54.17 7.44004 53.94 7.51004 53.62C7.61004 53.11 7.38004 52.59 7.08004 52.02C7.17004 51.97 7.26004 51.92 7.35004 51.86C7.78004 51.55 8.15004 50.94 8.13004 50.37C8.46004 50.3 8.80004 50.12 9.03004 49.86C9.27004 49.63 9.48004 49.33 9.71004 49C9.85004 48.82 9.95004 48.56 10.02 48.29C10.06 48.25 10.09 48.21 10.13 48.17C10.24 48.06 10.32 47.91 10.4 47.74C10.46 47.67 10.51 47.6 10.56 47.52C10.58 47.51 10.6 47.52 10.62 47.51C11.08 47.36 11.37 46.9 11.7 46.37C11.71 46.36 11.71 46.34 11.72 46.33C11.76 46.32 11.81 46.31 11.85 46.3C12.4 46.13 13 45.58 13.06 44.96C13.23 44.87 13.39 44.77 13.57 44.67C14.18 44.37 14.8 43.47 14.68 42.77C14.69 42.73 14.7 42.7 14.71 42.66V42.65C14.84 42.47 14.95 42.26 15.07 42.03C15.08 42.01 15.09 41.97 15.1 41.94C15.11 41.94 15.11 41.94 15.12 41.94C15.29 41.91 15.46 41.83 15.62 41.72C16.09 41.77 16.56 41.63 16.81 41.21C17.57 41.15 18.42 40.71 18.43 39.87C18.67 39.88 18.9 39.81 19.09 39.61C19.18 39.52 19.24 39.41 19.29 39.29C19.55 39.32 19.8 39.26 20 39.05C20.12 38.92 20.19 38.77 20.25 38.59C20.41 38.51 20.56 38.4 20.72 38.26C21.26 38.33 21.82 38.18 22.29 37.81C22.45 37.68 22.6 37.51 22.72 37.32C22.73 37.32 22.74 37.31 22.74 37.31C22.85 37.26 22.95 37.19 23.05 37.11C23.47 37.17 23.94 37.08 24.2 36.77C24.93 36.76 25.91 36.23 25.94 35.4C26.05 35.41 26.17 35.4 26.3 35.38C26.78 35.65 27.38 35.74 27.81 35.34C28 35.29 28.18 35.19 28.36 35.06C28.48 35.14 28.62 35.2 28.77 35.22C29.03 35.53 29.38 35.73 29.81 35.69C30.34 35.64 30.76 35.25 31.23 34.79C31.32 34.78 31.4 34.77 31.49 34.75C31.67 34.9 31.9 34.98 32.15 34.94C32.24 34.93 32.32 34.89 32.4 34.86C32.83 35.23 33.53 35.48 34.11 35.34C34.15 35.34 34.19 35.35 34.24 35.34C34.67 35.28 35.03 34.99 35.39 34.62C35.86 34.5 36.36 34.17 36.49 33.75C36.54 33.6 36.53 33.42 36.51 33.24C36.85 32.93 37.11 32.52 37.1 32.12C37.09 31.88 36.98 31.62 36.83 31.38C36.87 31.28 36.89 31.18 36.9 31.08C37.2 30.85 37.41 30.51 37.32 30.11C37.31 30.07 37.29 30.03 37.27 30C37.41 29.87 37.54 29.72 37.63 29.55C37.69 29.51 37.74 29.47 37.8 29.42C38.29 29.08 38.74 28.29 38.69 27.64C39.25 27.37 39.72 26.86 39.59 26.21C39.57 26.13 39.53 26.06 39.5 25.98C39.72 25.73 39.87 25.44 39.87 25.16C39.87 25.02 39.83 24.87 39.77 24.72C39.78 24.6 39.78 24.48 39.78 24.35C40.11 24.17 40.44 23.81 40.57 23.44C40.63 23.4 40.69 23.36 40.74 23.31C41.15 22.94 41.47 22.27 41.39 21.68C41.42 21.62 41.45 21.57 41.47 21.51C41.68 21.41 41.86 21.26 41.97 21.06C42.39 20.97 42.8 20.73 42.99 20.37C43.62 20.14 44.23 19.57 44.18 18.89C44.35 18.71 44.5 18.49 44.59 18.25C44.9 18.07 45.19 17.81 45.51 17.51C45.73 17.33 45.92 17.04 46.05 16.73C46.06 16.72 46.07 16.71 46.08 16.7C46.08 16.7 46.08 16.69 46.09 16.69C46.7 16.71 47.32 16.49 47.53 15.87C47.58 15.71 47.59 15.54 47.58 15.36C47.7 15.21 47.82 15.06 47.94 14.89C48.1 14.7 48.23 14.45 48.31 14.17C48.32 14.16 48.34 14.15 48.35 14.14C48.37 14.13 48.38 14.11 48.4 14.09C48.68 14.06 48.93 13.94 49.11 13.69C49.17 13.61 49.21 13.51 49.24 13.42C49.32 13.41 49.39 13.39 49.46 13.36C49.82 13.5 50.21 13.52 50.56 13.28C50.87 13.07 51.05 12.73 51.19 12.33C51.26 12.3 51.33 12.27 51.39 12.22C51.46 12.16 51.52 12.1 51.57 12.02C51.76 12.05 51.95 12.07 52.15 12.06C52.64 12.03 53.24 11.75 53.57 11.32C53.69 11.25 53.8 11.16 53.88 11.03C53.92 10.96 53.95 10.88 53.97 10.8C53.99 10.8 54.01 10.8 54.03 10.79C54.23 10.77 54.46 10.68 54.67 10.56C55.08 10.55 55.5 10.42 55.86 10.16C56 10.06 56.13 9.91996 56.25 9.75996C56.36 9.71996 56.47 9.66996 56.58 9.60996C56.71 9.52996 56.83 9.42996 56.94 9.29996C57 9.28996 57.06 9.30996 57.13 9.29996C57.21 9.27996 57.29 9.25996 57.37 9.22996C57.77 9.28996 58.19 9.23996 58.59 9.06996C58.65 9.03996 58.71 9.00996 58.76 8.96996C58.89 8.95996 59.03 8.93996 59.16 8.85996C59.23 8.81996 59.3 8.75996 59.36 8.69996C60 8.93996 60.76 8.91996 61.17 8.31996C61.34 8.06996 61.41 7.76996 61.42 7.43996C61.44 7.42996 61.45 7.42996 61.47 7.41996C61.54 7.41996 61.62 7.41996 61.7 7.38996C61.89 7.33996 62.05 7.21996 62.2 7.06996C62.57 7.27996 63.07 7.38996 63.46 7.22996C63.58 7.26996 63.71 7.29996 63.84 7.30996C64.06 7.33996 64.32 7.30996 64.57 7.24996C64.78 7.52996 65.07 7.71996 65.45 7.72996C65.97 7.74996 66.43 7.41996 66.95 7.01996C67.51 7.38996 68.19 7.44996 68.82 7.20996C68.96 7.25996 69.1 7.29996 69.25 7.32996C69.47 7.35996 69.72 7.34996 69.96 7.28996C70.03 7.34996 70.11 7.39996 70.2 7.43996C70.72 7.65996 71.32 7.47996 72.02 7.26996C72.08 7.25996 72.14 7.22996 72.2 7.20996C72.3 7.22996 72.41 7.23996 72.53 7.20996C72.7 7.16996 72.85 7.06996 72.99 6.93996C73.19 6.96996 73.42 6.96996 73.66 6.95996C74.12 7.26996 74.7 7.38996 75.28 7.26996C75.45 7.22996 75.63 7.15996 75.81 7.05996C75.96 7.07996 76.12 7.07996 76.28 7.04996C76.38 7.09996 76.49 7.12996 76.61 7.11996C76.72 7.10996 76.83 7.07996 76.93 7.02996C77.24 7.20996 77.58 7.29996 77.94 7.29996C78.18 7.55996 78.5 7.71996 78.88 7.66996C79.13 7.63996 79.34 7.51996 79.55 7.34996C80.03 7.46996 80.54 7.42996 81.02 7.20996C81.06 7.21996 81.09 7.23996 81.13 7.24996C81.21 7.26996 81.3 7.27996 81.39 7.27996C81.49 7.47996 81.65 7.65996 81.87 7.77996C82.39 8.05996 83.05 7.93996 83.8 7.78996C83.96 7.76996 84.14 7.71996 84.31 7.63996C84.6 7.91996 84.95 8.04996 85.32 8.03996C85.43 8.18996 85.57 8.31996 85.73 8.42996C85.91 9.17996 86.55 9.99996 87.4 9.79996C87.43 9.78996 87.45 9.76996 87.48 9.75996C87.62 9.83996 87.77 9.89996 87.95 9.89996C88.01 9.89996 88.07 9.87996 88.13 9.86996C88.47 10.1 88.86 10.21 89.25 10.21C89.64 10.46 90.09 10.55 90.53 10.5C90.57 10.54 90.61 10.58 90.65 10.62C90.74 11 90.96 11.34 91.37 11.47C91.67 11.57 91.98 11.54 92.32 11.45C92.57 11.79 92.93 12.03 93.38 11.94C93.48 11.92 93.57 11.88 93.65 11.84C93.83 12 94.05 12.13 94.3 12.21C94.76 12.56 95.37 12.7 95.99 12.6C96.07 12.78 96.17 12.95 96.3 13.11C96.78 13.7 97.84 14.16 98.53 13.65C98.79 13.86 99.1 14.01 99.45 14.06C99.47 14.2 99.51 14.34 99.57 14.45C99.66 14.62 99.78 14.75 99.9 14.88C100.07 15.64 100.59 16.19 101.27 16.43C101.3 16.7 101.37 16.96 101.5 17.15C101.66 17.38 101.84 17.57 102.05 17.72C102.13 17.93 102.23 18.13 102.36 18.27C102.47 18.39 102.59 18.49 102.72 18.57C102.79 18.76 102.87 18.93 102.99 19.06C103.22 19.33 103.5 19.51 103.79 19.63C103.96 19.9 104.18 20.12 104.45 20.28C104.49 20.77 104.71 21.24 105.22 21.38C105.3 21.4 105.39 21.4 105.48 21.41C105.58 21.55 105.69 21.68 105.83 21.79C105.96 22.22 106.24 22.61 106.62 22.91C106.72 23.47 107.05 24 107.65 24.06C107.68 24.06 107.71 24.05 107.74 24.05C107.93 24.69 108.36 25.14 108.9 25.38C108.82 25.66 108.85 26.02 108.97 26.3C108.55 26.97 108.43 28.09 109.24 28.53C109.32 28.57 109.4 28.59 109.49 28.62C109.43 29.19 109.62 29.73 109.99 30.15C109.9 30.35 109.82 30.56 109.82 30.74C109.8 31.28 109.97 31.75 110.27 32.12C110.09 32.78 110.22 33.64 110.93 33.89C110.96 33.9 110.99 33.9 111.02 33.9C110.76 34.37 110.69 34.98 111.06 35.38C111.04 35.54 111.04 35.71 111.05 35.87C111.09 36.29 111.31 36.78 111.65 37.13C111.58 37.4 111.64 37.75 111.78 38.02C111.65 38.29 111.62 38.59 111.66 38.91C111.52 39.08 111.41 39.28 111.34 39.5C111.3 39.64 111.28 39.8 111.27 39.96C111.06 40.33 110.97 40.77 111.04 41.23C111.05 41.31 111.07 41.4 111.1 41.49C111.09 41.52 111.07 41.54 111.06 41.57C111.05 41.6 111.04 41.63 111.03 41.67C110.9 41.77 110.77 41.88 110.66 42.01C110.19 42.56 109.92 43.62 110.45 44.22C110.27 44.6 110.22 45.03 110.3 45.45C110 45.85 109.82 46.46 110.01 46.93C110 46.99 110 47.06 110 47.12L109.99 47.13C109.72 47.42 109.63 47.96 109.71 48.37C109.38 48.38 109.05 48.45 108.83 48.64C108.53 48.9 108.35 49.41 108.34 49.86C108.16 50.1 108.05 50.42 108.04 50.7C107.94 50.79 107.85 50.89 107.78 51C107.47 51.01 107.18 51.08 106.97 51.25C106.61 51.54 106.41 52.18 106.45 52.67C106.3 52.83 106.17 53.02 106.07 53.23C105.97 53.43 105.92 53.67 105.89 53.92C105.86 54 105.84 54.08 105.83 54.17C105.59 54.32 105.4 54.52 105.26 54.76C104.82 54.81 104.38 55 104.17 55.32C103.88 55.74 103.9 56.53 104.15 56.95C104.3 57.2 104.49 57.4 104.71 57.55C104.97 58.18 105.54 58.65 106.25 58.83C106.52 59.07 106.86 59.23 107.24 59.3C107.41 59.46 107.62 59.58 107.85 59.66C107.96 59.87 108.11 60.07 108.3 60.24C108.32 60.26 108.34 60.27 108.37 60.29C108.4 60.35 108.43 60.41 108.46 60.45C108.76 60.82 109.15 61.02 109.56 61.08C109.61 61.18 109.67 61.28 109.73 61.38C109.81 61.49 109.92 61.6 110.05 61.7C110.26 62.12 110.6 62.49 111.06 62.73C111.18 62.79 111.32 62.84 111.47 62.88C111.52 62.92 111.58 62.96 111.65 62.98C111.89 63.07 112.14 63.04 112.42 62.97C112.52 63.13 112.66 63.28 112.83 63.4C112.98 63.82 113.3 64.19 113.73 64.43C113.74 64.44 113.75 64.44 113.76 64.44C113.88 64.63 114.04 64.8 114.23 64.95C114.24 64.97 114.24 65 114.26 65.02C114.3 65.08 114.35 65.12 114.4 65.17C114.14 65.64 114.07 66.26 114.45 66.65C114.45 66.92 114.5 67.2 114.62 67.46C114.37 68.15 114.46 69.16 115.26 69.43C115.28 69.44 115.3 69.43 115.32 69.44C115.38 69.53 115.47 69.59 115.55 69.66C115.53 69.93 115.59 70.19 115.71 70.43C115.61 70.66 115.54 70.91 115.54 71.18C115.54 71.18 115.54 71.19 115.54 71.2C115.45 71.45 115.4 71.72 115.43 71.94C115.48 72.27 115.61 72.56 115.78 72.8C115.75 73.11 115.78 73.43 115.9 73.73C115.8 74.15 115.82 74.6 115.97 75.04C115.99 75.1 116.02 75.15 116.04 75.21C116.03 75.29 116.01 75.38 116.01 75.46C115.99 75.82 116.1 76.25 116.31 76.61C116.33 76.69 116.36 76.77 116.4 76.85C116.29 77.1 116.23 77.38 116.24 77.68C116.25 77.77 116.26 77.87 116.29 77.97C116.22 78.21 116.21 78.46 116.27 78.7C116.08 78.95 115.98 79.26 115.97 79.6C115.83 79.76 115.73 80 115.7 80.24C115.4 80.53 115.19 81 115.19 81.36C115.19 81.57 115.23 81.76 115.3 81.94C115.21 82.16 115.17 82.38 115.17 82.6C115.11 82.65 115.04 82.68 114.99 82.74C114.72 83.1 114.69 83.76 114.86 84.18C114.74 84.62 114.78 85.06 114.96 85.43C114.95 85.48 114.94 85.53 114.93 85.58C114.69 85.81 114.52 86.07 114.42 86.36C114.07 86.47 113.75 86.67 113.58 86.94C113.35 87.31 113.34 87.91 113.48 88.38C113.12 88.67 112.83 89.19 112.81 89.61C112.8 89.92 112.86 90.2 112.97 90.46C112.94 90.57 112.92 90.69 112.91 90.8C112.87 90.83 112.83 90.86 112.8 90.89C112.66 91.05 112.57 91.22 112.51 91.4C112.01 91.53 111.51 91.82 111.34 92.24C111.18 92.63 111.25 93.2 111.45 93.62C111.44 93.64 111.43 93.66 111.42 93.69C111.39 93.76 111.37 93.83 111.35 93.9C111.24 94.02 111.15 94.14 111.08 94.29C110.92 94.28 110.76 94.3 110.64 94.36C110.48 94.44 110.35 94.61 110.24 94.79C110.01 94.87 109.79 94.99 109.66 95.14C109.62 95.19 109.59 95.24 109.55 95.28C109.13 95.39 108.69 95.71 108.5 96.04C108.42 96.18 108.37 96.33 108.33 96.48C107.9 96.76 107.6 97.2 107.46 97.72C107.41 97.79 107.36 97.86 107.31 97.93C107.21 97.93 107.11 97.92 107.02 97.95C106.83 98.01 106.65 98.17 106.5 98.34C106.11 98.47 105.72 98.71 105.53 98.99C105.53 98.99 105.52 99 105.52 99.01C105.09 99.18 104.75 99.48 104.51 99.84C104.11 99.77 103.67 99.8 103.37 99.96C103.04 100.14 102.8 100.39 102.62 100.67C102.38 100.66 102.16 100.72 101.97 100.82C101.7 100.74 101.43 100.72 101.2 100.81C100.94 100.91 100.7 101.16 100.52 101.44C100.45 101.45 100.37 101.44 100.31 101.46C100.14 101.52 99.97 101.67 99.83 101.84C99.54 101.78 99.25 101.78 99.03 101.9C98.91 101.97 98.8 102.08 98.71 102.2C98.55 102.23 98.39 102.28 98.24 102.35C98.11 102.34 97.98 102.34 97.87 102.36C97.29 102.48 96.84 102.81 96.56 103.25C96.46 103.25 96.36 103.26 96.26 103.28C95.86 103.08 95.4 103 95.04 103.14C94.79 103.24 94.56 103.48 94.38 103.76C94.36 103.77 94.34 103.77 94.33 103.77C94.07 103.67 93.8 103.65 93.54 103.68C93.41 103.68 93.29 103.61 93.16 103.55Z" fill="#FF8412"/>
<path d="M29.8701 7.05999C29.8701 6.96999 29.83 6.86999 29.7701 6.77999C29.8101 6.65999 29.8101 6.51999 29.7501 6.41999C29.7401 6.40999 29.7301 6.40999 29.7201 6.39999C29.6701 6.30999 29.6101 6.22999 29.5401 6.12999C29.5201 6.09999 29.4901 6.06999 29.4501 6.03999C29.43 5.99999 29.4101 5.96999 29.3901 5.92999C29.3601 5.85999 29.2901 5.79999 29.2201 5.74999C29.2201 5.73999 29.2201 5.72999 29.2101 5.71999C29.2101 5.70999 29.2201 5.69999 29.2201 5.68999C29.2201 5.65999 29.2001 5.62999 29.1901 5.59999C28.7201 3.17999 27.43 1.73999 25.84 1.04999C25.7801 0.949992 25.6701 0.879992 25.5401 0.799992C25.5301 0.789992 25.5101 0.789994 25.5001 0.789994C25.4801 0.759994 25.4701 0.739992 25.4501 0.709992C25.41 0.639992 25.3301 0.589992 25.2401 0.549992C25.1601 0.489992 25.0601 0.459992 24.9701 0.459992C24.8701 0.379992 24.6901 0.349994 24.5801 0.399994C24.5501 0.409994 24.5401 0.429991 24.5101 0.439991C24.4101 0.419991 24.3101 0.419994 24.2301 0.449994C24.1601 0.479994 24.1101 0.529995 24.0601 0.579995C24.0301 0.579995 24.0101 0.569993 23.9801 0.569993C23.9501 0.539993 23.9101 0.519991 23.8701 0.509991C23.7901 0.489991 23.7001 0.509994 23.6101 0.539994C22.4301 0.489994 21.2101 0.729993 20.1001 1.17999C20.0901 1.17999 20.0801 1.16999 20.0701 1.17999C19.9701 1.19999 19.8801 1.24999 19.8101 1.30999C19.7701 1.32999 19.7201 1.34999 19.6801 1.37999C19.4601 1.31999 19.25 1.37999 19.09 1.52999C19.0601 1.52999 19.0301 1.52999 18.9901 1.53999C18.9701 1.52999 18.9501 1.50999 18.9301 1.50999C18.8901 1.49999 18.8501 1.51999 18.8101 1.52999C18.7101 1.48999 18.6 1.47999 18.5201 1.49999C18.2001 1.58999 18.0301 1.88999 18.0801 2.20999V2.21999C18.0701 2.25999 18.0601 2.30999 18.0601 2.35999C18.0401 2.38999 18.0201 2.41999 18.0101 2.44999C16.7301 3.51999 15.9301 4.96999 16.0801 6.55999C16.0601 6.57999 16.0301 6.59999 16.0101 6.61999C15.9701 6.66999 15.9601 6.74999 15.9601 6.82999C15.9201 6.80999 15.8701 6.79999 15.8301 6.79999C15.8001 6.79999 15.7801 6.82999 15.7501 6.83999C15.7301 6.82999 15.7101 6.81999 15.6901 6.80999C15.6401 6.78999 15.5801 6.77999 15.5101 6.77999L15.5001 6.76999C15.4601 6.70999 15.4101 6.63999 15.3601 6.60999C15.2801 6.55999 15.1901 6.53999 15.1101 6.52999C14.5301 6.21999 13.9101 6.06999 13.2601 6.03999C13.1601 5.99999 13.0501 5.98999 12.9601 6.02999C12.9301 6.01999 12.8901 6.01999 12.8501 6.00999C12.8101 5.95999 12.76 5.91999 12.7 5.88999C12.64 5.77999 12.5601 5.68999 12.4601 5.65999C12.3801 5.63999 12.2901 5.64999 12.2 5.67999C12.11 5.65999 12.0201 5.64999 11.95 5.66999C11.8101 5.71999 11.7001 5.81999 11.6501 5.93999C11.5901 5.96999 11.5301 6.00999 11.4901 6.05999C11.3701 6.02999 11.2301 6.02999 11.1401 6.10999C11.1101 6.13999 11.1001 6.17999 11.0801 6.21999C11.0501 6.22999 11.0301 6.24999 11.0101 6.25999C10.9301 6.22999 10.8601 6.20999 10.7901 6.22999C10.6801 6.25999 10.58 6.37999 10.52 6.48999C10.47 6.51999 10.4201 6.53999 10.3801 6.57999C10.2401 6.59999 10.1101 6.66999 10.0101 6.77999C9.92005 6.81999 9.85006 6.87999 9.80006 6.94999C9.71006 6.96999 9.62006 7.01999 9.55006 7.07999C9.46006 7.06999 9.37006 7.07999 9.30006 7.12999C9.22006 7.18999 9.17005 7.29999 9.15005 7.40999C9.12005 7.42999 9.09006 7.45999 9.05006 7.47999H9.04005C9.00005 7.48999 8.96005 7.51999 8.93005 7.53999C8.91005 7.53999 8.89006 7.52999 8.87006 7.52999C8.75006 7.53999 8.65005 7.58999 8.57005 7.65999C8.51005 7.66999 8.45006 7.66999 8.41006 7.68999C8.30006 7.74999 8.23005 7.82999 8.18005 7.91999C8.10005 7.94999 8.03006 7.99999 7.98006 8.05999C7.87006 8.07999 7.77006 8.12999 7.69006 8.20999C7.57006 8.23999 7.46006 8.30999 7.37006 8.40999C7.28006 8.46999 7.19006 8.53999 7.16006 8.62999C7.12006 8.72999 7.11006 8.81999 7.12006 8.90999C7.05006 9.01999 7.01006 9.13999 7.01006 9.26999C7.01006 9.26999 7.01005 9.26999 7.00005 9.27999C6.98005 9.33999 6.97005 9.39999 6.97005 9.45999C6.95005 9.47999 6.93005 9.48999 6.92005 9.50999C6.87005 9.60999 6.86006 9.70999 6.87006 9.80999C6.84006 9.83999 6.81005 9.85999 6.78005 9.88999C6.72005 9.95999 6.68005 10.07 6.67005 10.18C6.67005 10.19 6.66006 10.19 6.66006 10.2C6.63006 10.26 6.60005 10.32 6.57005 10.38C6.54005 10.43 6.52005 10.48 6.50005 10.53C6.42005 10.71 6.34005 10.89 6.27005 11.07C6.27005 11.08 6.27006 11.08 6.26006 11.09C6.26006 11.1 6.26005 11.1 6.25005 11.11C6.16005 11.2 6.08005 11.33 6.08005 11.44C6.08005 11.45 6.08005 11.45 6.08005 11.46C6.05005 11.5 6.01005 11.54 6.00005 11.59C5.97005 11.71 5.98006 11.83 6.01006 11.93C5.99006 12.01 5.98005 12.1 5.96005 12.18C5.94005 12.21 5.93005 12.24 5.92005 12.27C5.81005 12.29 5.71006 12.35 5.66006 12.43C5.63006 12.49 5.61005 12.56 5.61005 12.64C5.56005 12.68 5.51006 12.72 5.48006 12.78C5.44006 12.87 5.46005 13 5.50005 13.11C5.45005 13.25 5.46005 13.41 5.53005 13.56C5.54005 13.57 5.55006 13.58 5.55006 13.59C5.55006 13.62 5.54005 13.65 5.54005 13.68C5.56005 13.86 5.68006 14.07 5.87006 14.13C5.90006 14.25 5.96006 14.36 6.05006 14.44C6.32006 15.48 6.94005 16.52 7.99005 17.49C7.95005 17.63 7.97005 17.78 8.06005 17.89C8.05005 18.02 8.09005 18.15 8.21005 18.22C8.28005 18.27 8.37005 18.28 8.46005 18.29C8.47005 18.31 8.49005 18.32 8.50005 18.33C8.50005 18.34 8.50005 18.34 8.50005 18.35C8.48005 18.58 8.63005 18.91 8.90005 18.89C8.99005 18.88 9.08006 18.83 9.16006 18.76C9.19006 18.76 9.23005 18.76 9.27005 18.76C9.27005 18.86 9.29005 18.96 9.38005 19.03C9.50005 19.13 9.67005 19.13 9.86005 19.13C9.93005 19.22 10.0301 19.28 10.1501 19.25C10.1801 19.24 10.2001 19.22 10.2301 19.2C10.2801 19.23 10.3401 19.25 10.4001 19.26C10.4201 19.29 10.4301 19.32 10.4601 19.34C10.5401 19.43 10.6801 19.49 10.8101 19.49C10.8301 19.52 10.85 19.56 10.8801 19.59C10.9901 19.67 11.1301 19.67 11.3001 19.66C11.3201 19.67 11.3401 19.68 11.3601 19.69C11.3901 19.72 11.4201 19.73 11.4601 19.74C11.4801 19.75 11.5 19.76 11.52 19.77C11.58 19.88 11.6701 19.96 11.8001 19.95C11.8301 19.95 11.8501 19.93 11.8701 19.92C11.8801 19.92 11.8901 19.93 11.9001 19.93C11.9201 19.95 11.93 19.97 11.95 19.99C12.01 20.03 12.0901 20.06 12.1701 20.08C12.2501 20.17 12.3701 20.24 12.5001 20.2C12.5101 20.2 12.51 20.19 12.52 20.19C12.55 20.2 12.5801 20.22 12.6201 20.23C12.6501 20.25 12.6901 20.26 12.7201 20.27C12.7501 20.31 12.7801 20.34 12.8101 20.37C12.8401 20.43 12.8901 20.49 12.9601 20.52C13.0701 20.57 13.2 20.55 13.34 20.52C13.36 20.53 13.3801 20.55 13.4001 20.56C13.4501 20.57 13.4901 20.56 13.5401 20.55C13.5401 20.55 13.5501 20.55 13.5501 20.56C13.5701 20.58 13.5801 20.6 13.6001 20.61C13.6501 20.63 13.7001 20.64 13.7601 20.64C13.8401 20.83 14.0101 21.01 14.2301 20.95C14.2701 20.94 14.3001 20.9 14.3301 20.88C14.3501 20.89 14.3701 20.91 14.4001 20.92C14.5201 21.04 14.6801 21.11 14.8701 21.1C14.8801 21.1 14.9001 21.09 14.9101 21.09C14.9501 21.21 15.0301 21.31 15.1501 21.35C15.1901 21.4 15.2401 21.45 15.3101 21.47C15.4101 21.5 15.5101 21.49 15.6301 21.46C15.6801 21.5 15.7301 21.54 15.8001 21.54C15.8701 21.54 15.9401 21.52 16.0101 21.48C16.0801 21.55 16.1801 21.6 16.2801 21.59C16.3501 21.63 16.4201 21.65 16.5001 21.66C16.6101 21.75 16.7501 21.8 16.9001 21.8C16.9401 21.8 16.9801 21.79 17.0201 21.78C17.0301 21.78 17.0301 21.79 17.0401 21.79C17.1401 21.83 17.2701 21.83 17.3801 21.8C17.3901 21.8 17.4101 21.8 17.4201 21.8C17.5201 21.92 17.6501 22.01 17.8101 21.95C17.8301 21.94 17.8401 21.93 17.8501 21.92C18.0001 22.02 18.2101 22.06 18.3601 21.96C18.3701 21.96 18.3701 21.96 18.3701 21.96C18.4601 21.97 18.5601 21.95 18.6501 21.92C18.7001 21.92 18.7401 21.92 18.7901 21.9C18.8201 21.91 18.8401 21.93 18.8701 21.93H18.8801C18.8801 21.93 18.8801 21.94 18.8901 21.94C19.0101 22.01 19.1601 22 19.3301 21.98C19.4301 22.08 19.5601 22.15 19.6901 22.09C19.7501 22.06 19.79 22.02 19.84 21.96C19.8601 21.96 19.8801 21.95 19.9001 21.95C19.9501 22.02 20.0101 22.08 20.1101 22.08C20.1601 22.08 20.2101 22.06 20.2501 22.04C20.3701 22.11 20.5201 22.12 20.6501 22.08C20.7501 22.12 20.8601 22.15 20.9801 22.13C21.0101 22.13 21.05 22.11 21.09 22.1C21.1901 22.14 21.3001 22.15 21.3801 22.07C21.4401 22.08 21.5001 22.08 21.5601 22.07C21.6301 22.11 21.7201 22.13 21.8101 22.13C21.8501 22.17 21.8901 22.2 21.9501 22.21C21.9901 22.21 22.0201 22.2 22.0501 22.19C22.1601 22.28 22.3001 22.34 22.4601 22.34C22.5401 22.34 22.6201 22.32 22.7001 22.28C22.7401 22.32 22.7701 22.36 22.8201 22.38C22.9601 22.46 23.1601 22.48 23.3201 22.41C23.4501 22.55 23.6401 22.63 23.8201 22.53C23.8601 22.5 23.8901 22.45 23.9201 22.41C23.9401 22.4 23.9601 22.4 23.9801 22.39C24.0401 22.46 24.1301 22.51 24.2301 22.49C24.2601 22.48 24.2801 22.46 24.3101 22.45C24.3501 22.48 24.4001 22.5 24.4601 22.5C24.4801 22.5 24.4901 22.49 24.5001 22.49C24.5201 22.49 24.5301 22.5 24.5401 22.5C24.6601 22.49 24.7501 22.4 24.8601 22.3C24.8801 22.28 24.8901 22.24 24.9101 22.22C25.0901 22.19 25.2701 22.07 25.2501 21.87C25.2501 21.82 25.2201 21.78 25.2001 21.74C25.2701 21.68 25.3101 21.6 25.3201 21.53C25.3201 21.52 25.3101 21.51 25.3101 21.49C25.3401 21.47 25.3601 21.43 25.3901 21.4C25.4601 21.37 25.5301 21.33 25.5601 21.25C25.6001 21.16 25.5901 21.06 25.5601 20.96C25.5901 20.91 25.6001 20.85 25.6001 20.79C25.7601 20.73 25.92 20.6 25.9501 20.44C25.9601 20.38 25.9401 20.32 25.9101 20.25C25.9501 20.18 25.9801 20.09 25.9901 19.99C26.0301 19.94 26.07 19.88 26.09 19.81C26.18 19.75 26.2501 19.65 26.2601 19.54C26.2701 19.53 26.2801 19.52 26.2901 19.51C26.3001 19.48 26.3001 19.44 26.3001 19.41C26.4301 19.37 26.5401 19.29 26.5801 19.17C26.6401 19.13 26.6901 19.08 26.7101 19C26.7501 18.87 26.7201 18.73 26.6601 18.58C26.7101 18.54 26.7601 18.49 26.8201 18.44C26.9401 18.34 27.0301 18.13 27.0201 17.95C27.0301 17.93 27.0401 17.92 27.0401 17.9C27.2101 17.78 27.3401 17.53 27.2401 17.33C27.2501 17.32 27.2601 17.3 27.2601 17.29C27.2701 17.28 27.2801 17.27 27.2901 17.27C27.3301 17.24 27.3601 17.19 27.3901 17.13C27.4501 17.1 27.5101 17.05 27.5301 16.98C27.5701 16.87 27.5401 16.76 27.4901 16.63C27.7301 16.6 28.0301 16.37 27.9501 16.09C27.93 16.03 27.8901 15.99 27.8501 15.95C27.8501 15.94 27.8501 15.94 27.8501 15.93C27.8901 15.91 27.9301 15.88 27.9601 15.85C28.1001 15.83 28.23 15.75 28.2701 15.61C28.3101 15.48 28.26 15.33 28.2001 15.18C28.2701 15.1 28.3301 15 28.3801 14.87C28.4201 14.79 28.4301 14.67 28.4101 14.56C28.4101 14.51 28.4201 14.46 28.4101 14.4C28.4401 14.37 28.4601 14.34 28.4701 14.29C28.4801 14.22 28.4601 14.16 28.4301 14.09C28.5001 14.04 28.56 13.96 28.59 13.87C28.7101 13.78 28.8001 13.66 28.8101 13.53C28.8101 13.49 28.7901 13.46 28.7801 13.42C28.7901 13.38 28.8101 13.35 28.8101 13.31C28.8101 13.24 28.7801 13.18 28.7401 13.11C28.8101 13.03 28.85 12.93 28.84 12.84C28.83 12.75 28.7801 12.67 28.7101 12.59C28.7201 12.54 28.7301 12.51 28.7301 12.46C28.7901 12.39 28.8201 12.3 28.8001 12.21C28.8701 12.14 28.9201 12.05 28.9301 11.96C29.0101 11.89 29.0601 11.79 29.0401 11.68C29.0301 11.64 29.0001 11.61 28.9801 11.57C28.9901 11.54 29.0101 11.51 29.0101 11.47C29.0101 11.43 28.9901 11.4 28.9801 11.37C29.0101 11.31 29.0301 11.25 29.0601 11.18C29.0901 11.12 29.1001 11.05 29.1001 10.97C29.1901 10.84 29.25 10.66 29.2001 10.53C29.1901 10.5 29.1601 10.48 29.1401 10.45C29.1701 10.25 29.2101 10.04 29.2301 9.83999C29.3301 9.75999 29.4001 9.64999 29.3701 9.50999C29.3601 9.44999 29.32 9.39999 29.2701 9.33999C29.2701 9.31999 29.2701 9.30999 29.2701 9.28999C29.32 9.20999 29.3501 9.10999 29.3901 8.99999C29.4001 8.96999 29.4001 8.93999 29.4101 8.90999C29.5401 8.79999 29.6301 8.63999 29.5601 8.46999C29.5301 8.39999 29.4801 8.35999 29.4201 8.30999C29.5601 8.19999 29.6901 7.99999 29.6501 7.82999C29.6501 7.81999 29.6301 7.80999 29.6301 7.79999C29.6301 7.78999 29.6401 7.77999 29.6401 7.76999C29.6601 7.67999 29.6301 7.57999 29.5801 7.48999C29.5901 7.45999 29.5901 7.42999 29.6001 7.39999C29.7701 7.30999 29.8701 7.17999 29.8701 7.05999Z" fill="#FFB2A3"/>
<path d="M71.7401 53C71.7201 52.99 71.6901 52.98 71.6701 52.97C71.7101 52.75 71.6801 52.52 71.5601 52.29C71.4901 52.16 71.4101 52.05 71.3001 51.95C71.3001 51.94 71.3101 51.93 71.3101 51.92C71.3201 51.77 71.2901 51.61 71.2301 51.44C71.3201 51.29 71.3701 51.11 71.3501 50.91C71.3401 50.79 71.3001 50.68 71.2501 50.58C71.2801 50.54 71.3001 50.51 71.3301 50.47C71.4901 50.28 71.6001 50 71.6701 49.71C71.8001 49.57 71.8901 49.39 71.9201 49.18C71.9701 48.7 71.6801 48.25 71.3501 47.74C71.0801 47.26 70.3201 46.78 69.7601 46.93C69.3101 47.04 68.8501 47.58 68.7701 48.03C68.7201 48.28 68.7301 48.52 68.7801 48.74C68.5301 49.11 68.4101 49.56 68.4401 50.04C68.3801 50.2 68.3301 50.36 68.3401 50.5C68.3401 50.63 68.3701 50.75 68.4001 50.87C68.3101 50.96 68.2301 51.05 68.1601 51.15C68.0501 51.3 67.9701 51.49 67.9101 51.7C67.9101 51.7 67.9101 51.7 67.9101 51.71C67.6201 51.64 67.3301 51.65 67.0801 51.74C67.0001 51.71 66.9201 51.69 66.8301 51.69C66.6101 51.68 66.3601 51.77 66.1301 51.91C65.5501 51.86 65.0101 52.06 64.6001 52.45C64.2501 52.1 63.7301 51.83 63.2701 51.83C63.0101 51.77 62.7501 51.76 62.5101 51.8V51.79C62.1401 51.32 61.4801 51.18 60.7301 51.02C60.6101 50.99 60.4801 50.97 60.3501 50.97C60.3201 50.85 60.3001 50.73 60.2301 50.63C60.0501 50.19 59.6601 49.81 59.2101 49.38C58.7401 48.88 57.6901 48.54 57.0601 48.88C56.5601 49.15 56.1701 49.93 56.2001 50.49C56.2501 51.3 56.6901 51.93 57.3301 52.27C57.4701 52.9 57.9901 53.58 58.6901 53.49C58.7001 53.51 58.7101 53.53 58.7201 53.55C59.1901 54.23 59.9001 54.54 60.6401 54.51C60.6501 54.51 60.6701 54.52 60.6801 54.53C60.7801 54.95 61.0201 55.31 61.4601 55.45C61.8501 55.58 62.2601 55.5 62.7101 55.36C62.9101 55.5 63.1401 55.61 63.3901 55.69C63.9201 55.85 64.6601 55.77 65.1401 55.41C65.5701 55.41 66.0201 55.22 66.5301 54.99C66.5801 54.97 66.6401 54.94 66.7001 54.91C67.1801 55.05 67.7501 55.01 68.0801 54.65C68.1301 54.65 68.1901 54.66 68.2501 54.65C68.2801 54.65 68.3101 54.64 68.3401 54.64C68.4601 54.72 68.5901 54.79 68.7201 54.82C68.7401 54.86 68.7601 54.9 68.7801 54.94C68.7901 55.24 68.8601 55.55 68.9901 55.85C69.1201 56.13 69.3401 56.42 69.6101 56.65C69.9501 57.11 70.4701 57.41 71.0801 57.48C71.8601 57.57 73.0101 57.1 72.9601 56.15C72.9401 55.72 72.6801 55.34 72.3301 54.94C72.4301 54.28 72.2501 53.38 71.7401 53Z" fill="#494949"/>
<path d="M82.9901 45.3C82.8901 44.99 82.6201 44.68 82.3501 44.57C82.3301 44.56 82.3101 44.56 82.2901 44.55C82.1501 44.4 81.9601 44.29 81.7301 44.21C81.6001 43.99 81.4201 43.79 81.2301 43.7C80.9301 43.55 80.6301 43.5 80.3401 43.53C80.3001 43.49 80.2601 43.44 80.2201 43.41C80.0601 43.32 79.8201 43.31 79.6001 43.35C79.5301 43.21 79.4501 43.07 79.3601 42.92C79.1601 42.51 78.6001 42.11 78.1101 42.13C78.2301 42.01 78.3201 41.88 78.3601 41.74C78.3701 41.71 78.3601 41.67 78.3701 41.64C78.5801 41.61 78.7901 41.55 78.9901 41.44C79.0801 41.38 79.1701 41.31 79.2601 41.22C79.6201 41.42 80.0701 41.49 80.4001 41.26C80.4901 41.26 80.5801 41.24 80.6701 41.2C80.8501 41.12 80.9901 40.99 81.1201 40.81C81.4001 40.87 81.7001 40.85 81.9501 40.74C82.1701 40.76 82.3901 40.72 82.5801 40.56C82.7001 40.46 82.7801 40.32 82.8501 40.17C83.0901 40.12 83.3201 40.03 83.5301 39.88C84.0301 39.52 84.4401 38.64 83.9101 38.12C83.6101 37.82 83.1401 37.77 82.5901 37.72C82.4301 37.69 82.2401 37.72 82.0501 37.76C81.7701 37.76 81.4701 37.83 81.2801 37.97C81.2701 37.98 81.2701 37.98 81.2601 37.99C81.2101 37.98 81.1501 37.95 81.1001 37.95C80.8201 37.95 80.4901 38.12 80.2501 38.34C80.2301 38.34 80.2101 38.34 80.1901 38.35C80.0801 38.39 80.0001 38.46 79.9001 38.51C79.5501 38.47 79.1001 38.61 78.8801 38.84C78.8001 38.92 78.7301 39.01 78.6701 39.11C78.3701 39.11 78.0701 39.19 77.8901 39.38C77.5101 39.41 77.1001 39.59 76.9401 39.88C76.9001 39.96 76.8701 40.05 76.8501 40.14C76.8201 40.16 76.7801 40.17 76.7601 40.19C76.7501 40.2 76.7401 40.22 76.7301 40.24C76.4201 40.3 76.1301 40.45 75.8901 40.7C75.7701 40.82 75.6701 40.98 75.5901 41.16C75.2001 41.11 74.7201 41.22 74.5001 41.51C74.4301 41.61 74.3901 41.73 74.3701 41.87C74.3401 41.9 74.3001 41.93 74.2801 41.96C73.9001 42.48 74.0301 43.13 74.4901 43.53C74.5601 43.59 74.6601 43.65 74.7601 43.69C74.8301 44.08 75.0401 44.44 75.4601 44.53C75.8601 44.61 76.2701 44.4 76.7401 44.15C76.7501 44.15 76.7501 44.14 76.7601 44.14C76.7901 44.14 76.8201 44.14 76.8401 44.13C77.0001 44.4 77.2701 44.63 77.5701 44.64C77.7301 44.78 77.9301 44.89 78.1401 44.97C78.3701 45.05 78.6501 45.06 78.9101 45.02C78.8601 45.48 78.9901 45.96 79.4501 46.15C79.7001 46.26 79.9801 46.23 80.2901 46.17C80.3801 46.22 80.4601 46.28 80.5601 46.31C80.6401 46.54 80.7901 46.74 81.0501 46.82C81.3301 46.91 81.6301 46.82 81.9601 46.7C82.0401 46.76 82.1201 46.82 82.2201 46.86C82.2501 46.87 82.3001 46.87 82.3301 46.88C82.4601 47.07 82.6401 47.23 82.8801 47.32C83.2901 47.48 83.9701 47.39 84.0801 46.87C84.1401 46.57 83.9901 46.27 83.8101 45.93C83.6701 45.62 83.3201 45.34 82.9901 45.3Z" fill="#494949"/>
<path d="M57.4901 40.94C57.6101 41.13 57.7801 41.28 58.0301 41.33C58.4301 41.41 58.8401 41.2 59.3101 40.95C59.3601 40.93 59.4101 40.88 59.4501 40.85C59.5301 40.85 59.6201 40.83 59.7001 40.81C60.0101 40.88 60.3301 40.82 60.5101 40.54C60.6701 40.28 60.6301 39.93 60.5701 39.54C60.5601 39.46 60.5401 39.38 60.5101 39.29C60.5601 39.09 60.5501 38.88 60.4201 38.69C60.2501 38.43 59.9501 38.31 59.6001 38.19C59.5901 38.15 59.5701 38.11 59.5501 38.08C59.5201 37.75 59.3501 37.39 59.1201 37.2C58.9101 37.03 58.6801 36.93 58.4401 36.88C58.4801 36.66 58.4401 36.43 58.2801 36.24C58.1001 36.03 57.8301 35.93 57.5101 35.85C57.3501 35.7 57.1301 35.6 56.8901 35.5C56.7901 35.12 56.5401 34.73 56.2101 34.61C56.2001 34.61 56.2001 34.61 56.1901 34.61C56.1701 34.59 56.1701 34.56 56.1501 34.54C55.9501 34.33 55.5801 34.22 55.2601 34.22C55.1201 34.05 54.9701 33.9 54.7801 33.8C54.6901 33.66 54.5901 33.53 54.4601 33.46C54.3701 33.41 54.2501 33.38 54.1301 33.36C53.8501 33.23 53.4901 33.19 53.1001 33.15C52.6201 33.07 51.8701 33.33 51.6601 33.8C51.4901 34.17 51.6101 34.79 51.8701 35.09C52.1301 35.39 52.4501 35.55 52.7901 35.61C52.7901 35.62 52.8001 35.63 52.8001 35.64C53.0101 35.99 53.4601 36.31 53.9001 36.34C53.9201 36.36 53.9501 36.38 53.9701 36.39C54.0001 36.41 54.0301 36.42 54.0501 36.43C54.2701 36.85 54.7001 37.23 55.1701 37.16C55.3701 37.31 55.6101 37.42 55.8601 37.46C56.0801 37.75 56.3701 37.92 56.6901 37.99C56.6501 38.15 56.6301 38.31 56.6501 38.46C56.4201 38.34 56.1801 38.27 55.9601 38.31C55.6601 38.37 55.3401 38.64 55.1601 38.93C55.1601 38.93 55.1601 38.93 55.1501 38.93C55.1001 38.95 55.0501 38.98 55.0001 39.02C54.8501 39.01 54.7001 39.03 54.5601 39.07C54.1101 38.96 53.6601 39.06 53.2901 39.32C52.8601 39.25 52.3001 39.36 52.0601 39.69C52.0401 39.72 52.0301 39.75 52.0201 39.79C51.9401 39.84 51.8701 39.89 51.8001 39.95C51.7301 39.94 51.6701 39.92 51.6001 39.93C51.4701 39.95 51.3401 40.03 51.2301 40.13C51.1001 40.07 50.9601 40.02 50.8301 40.04C50.7301 40.05 50.6301 40.11 50.5401 40.17C50.2701 40.05 49.9701 39.99 49.7401 40.08C49.4101 40.21 49.1101 40.67 49.0901 41.02C49.0501 41.79 49.5901 42.37 50.3201 42.47C50.6901 42.52 51.1901 42.39 51.4501 42.08C51.6001 42.05 51.7501 42 51.8601 41.91C51.8601 41.91 51.8601 41.91 51.8701 41.91C52.2201 42.02 52.6001 41.86 53.0401 41.68C53.0601 41.67 53.0801 41.66 53.1001 41.65C53.1901 41.66 53.2701 41.68 53.3601 41.68C53.7001 41.73 54.0901 41.63 54.5201 41.49C54.6601 41.46 54.8201 41.38 54.9601 41.28C55.0901 41.27 55.2201 41.24 55.3301 41.14C55.4301 41.06 55.5001 40.94 55.5501 40.82C55.7101 40.95 55.9001 41.06 56.1101 41.13C56.5201 41.3 57.1301 41.25 57.4901 40.94Z" fill="#494949"/>
</svg>
