<svg width="201" height="40" viewBox="0 0 201 40" fill="none" xmlns="http://www.w3.org/2000/svg">
<path d="M25.33 11.0405C25.04 9.71054 24.48 8.56054 23.66 7.60054C22.84 6.64054 21.71 5.91054 20.31 5.42054C18.91 4.93054 17.2 4.79054 15.18 5.01054C10.95 5.42054 6.56 5.88054 2 6.41054L2.58 34.5305L11.29 35.4305L11.43 28.9505C13.45 28.5705 15.26 27.9105 16.88 26.9905C18.5 26.0705 19.9 24.9705 21.09 23.7105C22.28 22.4505 23.23 21.0805 23.95 19.6105C24.67 18.1305 25.15 16.6705 25.39 15.2205C25.64 13.7605 25.62 12.3705 25.33 11.0405ZM15.75 16.2005C15.7 16.4205 15.56 16.7105 15.32 17.0805C15.08 17.4505 14.74 17.8405 14.31 18.2505C13.88 18.6605 13.34 19.0405 12.71 19.4005C12.07 19.7605 11.32 20.0405 10.46 20.2305L10.82 14.4705C11.97 14.0105 12.89 13.7805 13.57 13.7705C14.25 13.7605 14.75 13.8705 15.06 14.0905C15.37 14.3205 15.58 14.6005 15.67 14.9405C15.77 15.2805 15.8 15.5605 15.78 15.8005C15.77 16.0505 15.75 16.1805 15.75 16.2005Z" fill="#FF8412"/>
<path d="M53.1601 9.54055C52.7501 8.78055 52.1401 8.01055 51.3401 7.26055C50.5401 6.51055 49.5601 5.86055 48.4101 5.33055C47.2601 4.80055 45.9701 4.46055 44.5401 4.30055C43.1101 4.14055 41.5801 4.27055 39.9501 4.68055C38.2201 5.14055 36.6001 5.80055 35.0701 6.66055C33.5501 7.52055 32.1701 8.55055 30.9501 9.74055C29.7301 10.9305 28.6801 12.2505 27.8201 13.7205C26.9601 15.1805 26.3301 16.7406 25.9501 18.3806C25.5701 20.0206 25.4501 21.7305 25.6101 23.5105C25.7701 25.2906 26.2501 27.0706 27.0701 28.8706C27.7901 30.4806 28.7301 31.7905 29.8801 32.7905C31.0301 33.8005 32.3001 34.5505 33.6801 35.0405C35.0601 35.5305 36.5001 35.7905 38.0001 35.8105C39.5001 35.8305 40.9601 35.6806 42.3701 35.3406C43.7901 35.0006 45.1101 34.5105 46.3501 33.8605C47.5901 33.2105 48.6401 32.4606 49.5001 31.5905C51.2501 29.7906 52.5701 27.9005 53.4601 25.9205C54.3501 23.9405 54.8901 21.9806 55.1001 20.0306C55.3101 18.0806 55.2201 16.2106 54.8501 14.4005C54.4601 12.6105 53.9001 10.9805 53.1601 9.54055ZM45.2901 19.5905C45.2301 20.2605 45.0601 21.0006 44.7901 21.8006C44.5101 22.6005 44.0801 23.4705 43.4801 24.4105C43.0701 25.0306 42.5701 25.5806 41.9701 26.0506C41.3701 26.5205 40.7301 26.8706 40.0401 27.1105C39.3601 27.3505 38.6701 27.4506 37.9701 27.4205C37.2701 27.3905 36.6601 27.1905 36.1201 26.8405C35.5801 26.4905 35.1401 25.9605 34.7901 25.2405C34.4401 24.5205 34.2801 23.5805 34.3001 22.4305C34.3001 21.2106 34.5101 20.0905 34.9301 19.0805C35.3501 18.0705 35.8801 17.2105 36.5301 16.5105C37.1801 15.8005 37.9001 15.2505 38.6901 14.8505C39.4801 14.4506 40.2601 14.2305 41.0301 14.1805C41.8001 14.1305 42.5101 14.2806 43.1701 14.6105C43.8301 14.9405 44.3401 15.5005 44.7001 16.2705C44.9201 16.7006 45.0801 17.1905 45.2001 17.7505C45.3201 18.3105 45.3501 18.9205 45.2901 19.5905Z" fill="#FF8412"/>
<path d="M145.62 16.8005C145.39 15.7805 145 14.8105 144.44 13.9005C143.88 12.9905 143.23 12.1705 142.49 11.4405C141.75 10.7105 140.95 10.1005 140.09 9.60054C139.23 9.10054 138.37 8.76054 137.52 8.56054C136.13 8.27054 134.81 8.16054 133.56 8.24054C133.55 8.24054 133.55 8.23054 133.54 8.23054C132.61 7.44054 131.6 6.79054 130.5 6.28054C129.4 5.77054 128.25 5.43054 127.06 5.27054C125.87 5.11054 124.64 5.15054 123.39 5.38054C122.14 5.61054 120.9 6.08054 119.68 6.78054C118.59 7.40054 117.72 8.16054 117.09 9.04054C116.45 9.93054 116.01 10.8805 115.75 11.8905C115.5 12.9005 115.41 13.9405 115.5 15.0105C115.59 16.0805 115.8 17.1005 116.13 18.0805C116.47 19.0605 116.91 19.9705 117.45 20.8005C117.46 20.8205 117.48 20.8405 117.49 20.8605C117.42 21.0905 117.35 21.3305 117.3 21.5705C117.03 22.7405 116.94 23.9605 117.06 25.2305C117.17 26.5005 117.52 27.7705 118.1 29.0605C118.61 30.2105 119.28 31.1405 120.1 31.8605C120.92 32.5805 121.82 33.1105 122.81 33.4605C123.79 33.8105 124.82 33.9905 125.89 34.0105C126.96 34.0305 128 33.9205 129.01 33.6805C130.02 33.4405 130.97 33.0905 131.85 32.6305C132.73 32.1705 133.48 31.6305 134.1 31.0105C134.94 30.1505 135.62 29.2605 136.18 28.3405C136.97 28.2405 137.75 28.0605 138.5 27.8005C139.64 27.4105 140.71 26.8205 141.72 26.0505C142.73 25.2805 143.63 24.3105 144.4 23.1305C145.1 22.0805 145.53 21.0205 145.7 19.9405C145.88 18.8705 145.85 17.8205 145.62 16.8005Z" fill="#FF8412"/>
<path d="M78.9601 7.60054C78.1301 6.64054 77.0201 5.91054 75.6101 5.42054C74.2101 4.93054 72.5001 4.79054 70.4801 5.01054C66.2601 5.42054 61.8701 5.88054 57.3101 6.41054L57.8901 34.5305L66.6001 35.4305L66.7401 28.9505C68.7601 28.5705 70.5701 27.9105 72.1901 26.9905C73.8101 26.0705 75.2101 24.9705 76.4001 23.7105C77.5901 22.4505 78.5401 21.0805 79.2601 19.6105C79.9801 18.1305 80.4601 16.6705 80.7001 15.2205C80.9401 13.7705 80.9201 12.3805 80.6301 11.0405C80.3401 9.70054 79.7901 8.56054 78.9601 7.60054ZM71.0601 16.2005C71.0101 16.4205 70.8701 16.7105 70.6301 17.0805C70.3901 17.4505 70.0501 17.8405 69.6201 18.2505C69.1901 18.6605 68.6501 19.0405 68.0201 19.4005C67.3801 19.7605 66.6301 20.0405 65.7701 20.2305L66.1301 14.4705C67.2801 14.0105 68.2001 13.7805 68.8801 13.7705C69.5601 13.7605 70.0601 13.8705 70.3701 14.0905C70.6801 14.3205 70.8901 14.6005 70.9801 14.9405C71.0801 15.2805 71.1101 15.5605 71.0901 15.8005C71.0701 16.0505 71.0601 16.1805 71.0601 16.2005Z" fill="#FF8412"/>
<path d="M103.28 25.2005C102.02 25.6305 101.02 25.6805 100.29 25.3405C99.56 25.0005 98.99 24.4805 98.6 23.7705C98.2 23.0605 97.95 22.4205 97.84 21.8405C97.73 21.2605 97.68 20.9505 97.68 20.9005C97.92 19.8405 98.18 18.9905 98.47 18.3305C98.76 17.6705 99.14 17.0205 99.62 16.3905C100.1 15.7505 100.69 15.3305 101.4 15.1305C102.11 14.9305 102.95 15.0205 103.92 15.4005C104.89 15.7805 106.03 16.6605 107.32 18.0305L113.62 10.2905C112.18 8.56054 110.73 7.25055 109.28 6.37054C107.83 5.49054 106.44 4.88054 105.1 4.55054C103.76 4.22054 102.53 4.12054 101.39 4.23054C100.25 4.34054 99.26 4.52055 98.42 4.77055C97.58 5.02055 96.68 5.41054 95.72 5.94054C94.59 6.68054 93.48 7.68054 92.39 8.93054C91.3 10.1805 90.35 11.5805 89.55 13.1405C88.75 14.7005 88.12 16.3705 87.68 18.1405C87.24 19.9205 87.1 21.6905 87.27 23.4705C87.44 25.2505 87.95 26.9705 88.82 28.6505C89.69 30.3305 91.02 31.8705 92.82 33.2605C94.07 34.2205 95.43 34.8905 96.91 35.2805C98.39 35.6605 99.89 35.8205 101.41 35.7705C102.93 35.7105 104.43 35.4805 105.89 35.0905C107.35 34.6905 108.7 34.2005 109.92 33.6005C111.14 33.0005 112.2 32.3405 113.09 31.6205C113.98 30.9005 114.6 30.1905 114.96 29.5005L107.94 22.0105C106.1 23.7005 104.54 24.7705 103.28 25.2005Z" fill="#FF8412"/>
<path d="M167.6 20.7405C168.74 19.3005 169.57 17.8205 170.1 16.2905C170.63 14.7705 170.84 13.2805 170.73 11.8305C170.62 10.3805 170.18 9.11054 169.4 8.01054C168.62 6.92054 167.48 6.08054 165.98 5.51054C164.48 4.93054 162.6 4.77054 160.35 5.01054C156.13 5.42054 151.73 5.89054 147.17 6.41054L147.75 34.5305L156.46 35.4305L156.57 29.2705L165.32 35.7105L170.9 29.4105L163.38 24.4805C165.05 23.4305 166.46 22.1805 167.6 20.7405ZM160.92 16.2005C160.87 16.4205 160.73 16.7105 160.51 17.0805C160.28 17.4505 159.95 17.8405 159.52 18.2505C159.09 18.6605 158.55 19.0405 157.92 19.4005C157.28 19.7605 156.53 20.0405 155.67 20.2305L156.03 14.4705C157.18 14.0105 158.09 13.7805 158.77 13.7705C159.44 13.7605 159.94 13.8705 160.26 14.0905C160.58 14.3205 160.79 14.6005 160.87 14.9405C160.95 15.2805 160.98 15.5605 160.96 15.8005C160.93 16.0505 160.92 16.1805 160.92 16.2005Z" fill="#FF8412"/>
<path d="M198.62 5.44055L187.89 4.72055L187.57 16.6405L173.81 5.22055L173.35 35.1805L183.68 34.5306L183.17 26.0306L196.96 32.9106L198.62 5.44055Z" fill="#FF8412"/>
<path d="M122.51 19.9206C121.79 19.6406 121.39 17.9806 122.79 17.1906C124.19 16.4006 124.81 17.6506 124.89 18.4406C124.94 19.0606 124.25 20.6006 122.51 19.9206Z" fill="white"/>
<path d="M130.7 16.1306C129.96 15.9006 129.48 13.9806 130.98 13.4006C132.2 12.9306 132.61 13.6406 132.82 14.3706C133.04 15.1306 132.51 16.6906 130.7 16.1306Z" fill="white"/>
<path d="M132.14 19.7205C132.05 19.4905 131.82 19.2305 131.58 19.2105C131.57 19.2105 131.56 19.2105 131.55 19.2105C131.52 19.1305 131.46 19.0605 131.38 19.0105C131.33 18.9805 131.28 18.9605 131.23 18.9505V18.9405C131.2 18.8905 131.16 18.8405 131.11 18.8005C131.11 18.7305 131.09 18.6705 131.04 18.6105C131.01 18.5805 130.98 18.5505 130.94 18.5205C130.94 18.5005 130.94 18.4905 130.94 18.4705C130.95 18.3805 130.93 18.2705 130.9 18.1605C130.91 18.0905 130.91 18.0105 130.87 17.9405C130.79 17.7805 130.61 17.6905 130.4 17.5905C130.22 17.4905 129.88 17.4905 129.73 17.6505C129.61 17.7705 129.57 18.0405 129.63 18.2005C129.66 18.2905 129.71 18.3605 129.77 18.4205C129.76 18.5905 129.81 18.7605 129.92 18.9005C129.93 18.9605 129.95 19.0205 129.98 19.0705C130.01 19.1105 130.04 19.1505 130.07 19.1805C130.06 19.2205 130.05 19.2705 130.05 19.3205C130.05 19.3905 130.06 19.4705 130.08 19.5505C129.98 19.5905 129.88 19.6505 129.82 19.7305C129.79 19.7405 129.76 19.7505 129.73 19.7605C129.66 19.8005 129.59 19.8805 129.55 19.9705C129.36 20.0705 129.22 20.2405 129.17 20.4505C128.99 20.4105 128.77 20.4305 128.62 20.5205C128.53 20.5505 128.44 20.6005 128.37 20.6605C128.16 20.5805 127.92 20.6705 127.65 20.7705C127.61 20.7805 127.56 20.8005 127.52 20.8305C127.49 20.8005 127.46 20.7605 127.42 20.7505C127.28 20.6405 127.08 20.6005 126.85 20.5605C126.6 20.4905 126.2 20.5905 126.06 20.8305C125.95 21.0205 125.98 21.3405 126.1 21.5105C126.28 21.7605 126.54 21.8705 126.81 21.8605C126.98 22.0305 127.28 22.1505 127.49 21.9805C127.5 21.9805 127.5 21.9905 127.51 21.9905C127.79 22.1205 128.08 22.0705 128.31 21.9105C128.32 21.9105 128.32 21.9105 128.33 21.9105C128.45 22.0205 128.59 22.0905 128.76 22.0505C128.91 22.0105 129.03 21.9105 129.14 21.7705C129.23 21.7705 129.33 21.7705 129.42 21.7405C129.62 21.6805 129.84 21.5105 129.92 21.3005C130.06 21.2105 130.16 21.0605 130.28 20.8905C130.29 20.8705 130.31 20.8505 130.32 20.8305C130.5 20.7805 130.68 20.6505 130.71 20.4705C130.73 20.4605 130.75 20.4505 130.76 20.4405C130.77 20.4305 130.78 20.4305 130.79 20.4205C130.85 20.4205 130.9 20.4205 130.95 20.4005C130.96 20.4105 130.97 20.4205 130.99 20.4305C131.05 20.5305 131.14 20.6105 131.24 20.6805C131.34 20.7505 131.46 20.7905 131.6 20.8105C131.8 20.8905 132.03 20.8805 132.23 20.7805C132.5 20.6505 132.77 20.2805 132.57 19.9805C132.49 19.8405 132.33 19.7705 132.14 19.7205Z" fill="white"/>
</svg>
