<svg width="200" height="40" viewBox="0 0 200 40" fill="none" xmlns="http://www.w3.org/2000/svg">
<path d="M25.0199 11.03C24.7299 9.70005 24.1699 8.55005 23.3499 7.59005C22.5299 6.63005 21.3999 5.90005 19.9999 5.41005C18.5999 4.92005 16.8899 4.78005 14.8699 5.00005C10.6399 5.41005 6.24994 5.87005 1.68994 6.40005L2.26994 34.52L10.9799 35.42L11.1199 28.94C13.1399 28.56 14.9499 27.9 16.5699 26.98C18.1899 26.06 19.5899 24.96 20.7799 23.7C21.9699 22.44 22.9199 21.07 23.6399 19.6C24.3599 18.12 24.8399 16.66 25.0799 15.21C25.3299 13.75 25.3099 12.36 25.0199 11.03ZM15.4399 16.19C15.3899 16.41 15.2499 16.7 15.0099 17.07C14.7699 17.44 14.4299 17.83 13.9999 18.24C13.5699 18.65 13.0299 19.03 12.3999 19.39C11.7599 19.75 11.0099 20.03 10.1499 20.22L10.5099 14.46C11.6599 14 12.5799 13.77 13.2599 13.76C13.9399 13.75 14.4399 13.86 14.7499 14.08C15.0599 14.31 15.2699 14.59 15.3599 14.93C15.4599 15.27 15.4899 15.55 15.4699 15.79C15.4599 16.04 15.4399 16.17 15.4399 16.19Z" fill="#00C113"/>
<path d="M52.85 9.52993C52.44 8.76993 51.83 7.99993 51.03 7.24993C50.23 6.49993 49.25 5.84993 48.1 5.31993C46.95 4.78993 45.66 4.44993 44.23 4.28993C42.8 4.12993 41.27 4.25993 39.64 4.66993C37.91 5.12993 36.29 5.78993 34.76 6.64993C33.24 7.50993 31.86 8.53993 30.64 9.72993C29.42 10.9199 28.37 12.2399 27.51 13.7099C26.65 15.1699 26.02 16.7299 25.64 18.3699C25.26 20.0099 25.14 21.7199 25.3 23.4999C25.46 25.2799 25.94 27.0599 26.76 28.8599C27.48 30.4699 28.42 31.7799 29.57 32.7799C30.72 33.7899 31.99 34.5399 33.37 35.0299C34.75 35.5199 36.19 35.7799 37.69 35.7999C39.19 35.8199 40.65 35.6699 42.06 35.3299C43.48 34.9899 44.8 34.4999 46.04 33.8499C47.28 33.1999 48.33 32.4499 49.19 31.5799C50.94 29.7799 52.26 27.8899 53.15 25.9099C54.04 23.9299 54.58 21.9699 54.79 20.0199C55 18.0699 54.91 16.1999 54.54 14.3899C54.15 12.5999 53.59 10.9699 52.85 9.52993ZM44.98 19.5799C44.92 20.2499 44.75 20.9899 44.48 21.7899C44.2 22.5899 43.77 23.4599 43.17 24.3999C42.76 25.0199 42.26 25.5699 41.66 26.0399C41.06 26.5099 40.42 26.8599 39.73 27.0999C39.05 27.3399 38.36 27.4399 37.66 27.4099C36.96 27.3799 36.35 27.1799 35.81 26.8299C35.27 26.4799 34.83 25.9499 34.48 25.2299C34.13 24.5099 33.97 23.5699 33.99 22.4199C33.99 21.1999 34.2 20.0799 34.62 19.0699C35.04 18.0599 35.57 17.1999 36.22 16.4999C36.87 15.7899 37.59 15.2399 38.38 14.8399C39.17 14.4399 39.95 14.2199 40.72 14.1699C41.49 14.1199 42.2 14.2699 42.86 14.5999C43.52 14.9299 44.03 15.4899 44.39 16.2599C44.61 16.6899 44.77 17.1799 44.89 17.7399C45.01 18.2999 45.04 18.9099 44.98 19.5799Z" fill="#00C113"/>
<path d="M145.31 16.79C145.08 15.77 144.69 14.8 144.13 13.89C143.57 12.98 142.92 12.16 142.18 11.43C141.44 10.7 140.64 10.09 139.78 9.58998C138.92 9.08998 138.06 8.74998 137.21 8.54998C135.82 8.25998 134.5 8.14998 133.25 8.22998C133.24 8.22998 133.24 8.21998 133.23 8.21998C132.3 7.42998 131.29 6.77998 130.19 6.26998C129.09 5.75998 127.94 5.41998 126.75 5.25998C125.56 5.09998 124.33 5.13998 123.08 5.36998C121.83 5.59998 120.59 6.06998 119.37 6.76998C118.28 7.38998 117.41 8.14998 116.78 9.02998C116.14 9.91998 115.7 10.87 115.44 11.88C115.19 12.89 115.1 13.93 115.19 15C115.28 16.07 115.49 17.09 115.82 18.07C116.16 19.05 116.6 19.96 117.14 20.79C117.15 20.81 117.17 20.83 117.18 20.85C117.11 21.08 117.04 21.32 116.99 21.56C116.72 22.73 116.63 23.95 116.75 25.22C116.86 26.49 117.21 27.76 117.79 29.05C118.3 30.2 118.97 31.13 119.79 31.85C120.61 32.57 121.51 33.1 122.5 33.45C123.48 33.8 124.51 33.98 125.58 34C126.65 34.02 127.69 33.91 128.7 33.67C129.71 33.43 130.66 33.08 131.54 32.62C132.42 32.16 133.17 31.62 133.79 31C134.63 30.14 135.31 29.25 135.87 28.33C136.66 28.23 137.44 28.05 138.19 27.79C139.33 27.4 140.4 26.81 141.41 26.04C142.42 25.27 143.32 24.3 144.09 23.12C144.79 22.07 145.22 21.01 145.39 19.93C145.57 18.86 145.54 17.81 145.31 16.79Z" fill="#00C113"/>
<path d="M78.65 7.59005C77.82 6.63005 76.71 5.90005 75.3 5.41005C73.9 4.92005 72.19 4.78005 70.17 5.00005C65.95 5.41005 61.56 5.87005 57 6.40005L57.58 34.52L66.29 35.42L66.43 28.94C68.45 28.56 70.26 27.9 71.88 26.98C73.5 26.06 74.9 24.96 76.09 23.7C77.28 22.44 78.23 21.07 78.95 19.6C79.67 18.12 80.15 16.66 80.39 15.21C80.63 13.76 80.61 12.37 80.32 11.03C80.03 9.69005 79.48 8.55005 78.65 7.59005ZM70.75 16.19C70.7 16.41 70.56 16.7 70.32 17.07C70.08 17.44 69.74 17.83 69.31 18.24C68.88 18.65 68.34 19.03 67.71 19.39C67.07 19.75 66.32 20.03 65.46 20.22L65.82 14.46C66.97 14 67.89 13.77 68.57 13.76C69.25 13.75 69.75 13.86 70.06 14.08C70.37 14.31 70.58 14.59 70.67 14.93C70.77 15.27 70.8 15.55 70.78 15.79C70.76 16.04 70.75 16.17 70.75 16.19Z" fill="#00C113"/>
<path d="M102.97 25.19C101.71 25.62 100.71 25.67 99.9799 25.33C99.2499 24.99 98.6799 24.47 98.2899 23.76C97.8899 23.05 97.6399 22.41 97.5299 21.83C97.4199 21.25 97.3699 20.94 97.3699 20.89C97.6099 19.83 97.8699 18.98 98.1599 18.32C98.4499 17.66 98.8299 17.01 99.3099 16.38C99.7899 15.74 100.38 15.32 101.09 15.12C101.8 14.92 102.64 15.01 103.61 15.39C104.58 15.77 105.72 16.65 107.01 18.02L113.31 10.28C111.87 8.54999 110.42 7.23999 108.97 6.35999C107.52 5.47999 106.13 4.86999 104.79 4.53999C103.45 4.20999 102.22 4.10999 101.08 4.21999C99.9399 4.32999 98.9499 4.50999 98.1099 4.75999C97.2699 5.00999 96.3699 5.39999 95.4099 5.92999C94.2799 6.66999 93.1699 7.66999 92.0799 8.91999C90.9899 10.17 90.0399 11.57 89.2399 13.13C88.4399 14.69 87.8099 16.36 87.3699 18.13C86.9299 19.91 86.7899 21.68 86.9599 23.46C87.1299 25.24 87.6399 26.96 88.5099 28.64C89.3799 30.32 90.7099 31.86 92.5099 33.25C93.7599 34.21 95.1199 34.88 96.5999 35.27C98.0799 35.65 99.5799 35.81 101.1 35.76C102.62 35.7 104.12 35.47 105.58 35.08C107.04 34.68 108.39 34.19 109.61 33.59C110.83 32.99 111.89 32.33 112.78 31.61C113.67 30.89 114.29 30.18 114.65 29.49L107.63 22C105.79 23.69 104.23 24.76 102.97 25.19Z" fill="#00C113"/>
<path d="M167.29 20.73C168.43 19.29 169.26 17.81 169.79 16.28C170.32 14.76 170.53 13.27 170.42 11.82C170.31 10.37 169.87 9.10004 169.09 8.00004C168.31 6.91004 167.17 6.07004 165.67 5.50004C164.17 4.92004 162.29 4.76004 160.04 5.00004C155.82 5.41004 151.42 5.88004 146.86 6.40004L147.44 34.52L156.15 35.42L156.26 29.26L165.01 35.7L170.59 29.4L163.07 24.47C164.74 23.42 166.15 22.17 167.29 20.73ZM160.61 16.19C160.56 16.41 160.42 16.7 160.2 17.07C159.97 17.44 159.64 17.83 159.21 18.24C158.78 18.65 158.24 19.03 157.61 19.39C156.97 19.75 156.22 20.03 155.36 20.22L155.72 14.46C156.87 14 157.78 13.77 158.46 13.76C159.13 13.75 159.63 13.86 159.95 14.08C160.27 14.31 160.48 14.59 160.56 14.93C160.64 15.27 160.67 15.55 160.65 15.79C160.62 16.04 160.61 16.17 160.61 16.19Z" fill="#00C113"/>
<path d="M198.31 5.42996L187.58 4.70996L187.26 16.63L173.5 5.20996L173.04 35.17L183.37 34.52L182.86 26.02L196.65 32.9L198.31 5.42996Z" fill="#00C113"/>
<path d="M122.2 19.91C121.48 19.63 121.08 17.97 122.48 17.18C123.88 16.39 124.5 17.64 124.58 18.43C124.63 19.05 123.94 20.59 122.2 19.91Z" fill="#FFEB62"/>
<path d="M130.39 16.12C129.65 15.89 129.17 13.97 130.67 13.39C131.89 12.92 132.3 13.63 132.51 14.36C132.73 15.12 132.2 16.68 130.39 16.12Z" fill="#FFEB62"/>
<path d="M131.83 19.71C131.74 19.48 131.51 19.22 131.27 19.2C131.26 19.2 131.25 19.2 131.24 19.2C131.21 19.12 131.15 19.05 131.07 19C131.02 18.97 130.97 18.95 130.92 18.94V18.93C130.89 18.88 130.85 18.83 130.8 18.79C130.8 18.72 130.78 18.66 130.73 18.6C130.7 18.57 130.67 18.54 130.63 18.51C130.63 18.49 130.63 18.48 130.63 18.46C130.64 18.37 130.62 18.26 130.59 18.15C130.6 18.08 130.6 18 130.56 17.93C130.48 17.77 130.3 17.68 130.09 17.58C129.91 17.48 129.57 17.48 129.42 17.64C129.3 17.76 129.26 18.03 129.32 18.19C129.35 18.28 129.4 18.35 129.46 18.41C129.45 18.58 129.5 18.75 129.61 18.89C129.62 18.95 129.64 19.01 129.67 19.06C129.7 19.1 129.73 19.14 129.76 19.17C129.75 19.21 129.74 19.26 129.74 19.31C129.74 19.38 129.75 19.46 129.77 19.54C129.67 19.58 129.57 19.64 129.51 19.72C129.48 19.73 129.45 19.74 129.42 19.75C129.35 19.79 129.28 19.87 129.24 19.96C129.05 20.06 128.91 20.23 128.86 20.44C128.68 20.4 128.46 20.42 128.31 20.51C128.22 20.54 128.13 20.59 128.06 20.65C127.85 20.57 127.61 20.66 127.34 20.76C127.3 20.77 127.25 20.79 127.21 20.82C127.18 20.79 127.15 20.75 127.11 20.74C126.97 20.63 126.77 20.59 126.54 20.55C126.29 20.48 125.89 20.58 125.75 20.82C125.64 21.01 125.67 21.33 125.79 21.5C125.97 21.75 126.23 21.86 126.5 21.85C126.67 22.02 126.97 22.14 127.18 21.97C127.19 21.97 127.19 21.98 127.2 21.98C127.48 22.11 127.77 22.06 128 21.9C128.01 21.9 128.01 21.9 128.02 21.9C128.14 22.01 128.28 22.08 128.45 22.04C128.6 22 128.72 21.9 128.83 21.76C128.92 21.76 129.02 21.76 129.11 21.73C129.31 21.67 129.53 21.5 129.61 21.29C129.75 21.2 129.85 21.05 129.97 20.88C129.98 20.86 130 20.84 130.01 20.82C130.19 20.77 130.37 20.64 130.4 20.46C130.42 20.45 130.44 20.44 130.45 20.43C130.46 20.42 130.47 20.42 130.48 20.41C130.54 20.41 130.59 20.41 130.64 20.39C130.65 20.4 130.66 20.41 130.68 20.42C130.74 20.52 130.83 20.6 130.93 20.67C131.03 20.74 131.15 20.78 131.29 20.8C131.49 20.88 131.72 20.87 131.92 20.77C132.19 20.64 132.46 20.27 132.26 19.97C132.18 19.83 132.02 19.76 131.83 19.71Z" fill="#FFEB62"/>
</svg>
