<svg width="198" height="32" viewBox="0 0 198 32" fill="none" xmlns="http://www.w3.org/2000/svg">
<path d="M24.0199 7.03005C23.7299 5.70005 23.1699 4.55005 22.3499 3.59005C21.5299 2.63005 20.3999 1.90005 18.9999 1.41005C17.5999 0.920046 15.8899 0.780046 13.8699 1.00005C9.63994 1.41005 5.24994 1.87005 0.689941 2.40005L1.26994 30.52L9.97994 31.42L10.1199 24.94C12.1399 24.56 13.9499 23.9 15.5699 22.98C17.1899 22.06 18.5899 20.96 19.7799 19.7C20.9699 18.44 21.9199 17.07 22.6399 15.6C23.3599 14.12 23.8399 12.66 24.0799 11.21C24.3299 9.75005 24.3099 8.36005 24.0199 7.03005ZM14.4399 12.19C14.3899 12.41 14.2499 12.7 14.0099 13.07C13.7699 13.44 13.4299 13.83 12.9999 14.24C12.5699 14.65 12.0299 15.03 11.3999 15.39C10.7599 15.75 10.0099 16.03 9.14994 16.22L9.50994 10.46C10.6599 10 11.5799 9.77005 12.2599 9.76005C12.9399 9.75005 13.4399 9.86005 13.7499 10.08C14.0599 10.31 14.2699 10.59 14.3599 10.93C14.4599 11.27 14.4899 11.55 14.4699 11.79C14.4599 12.04 14.4399 12.17 14.4399 12.19Z" fill="#323232"/>
<path d="M51.85 5.52993C51.44 4.76993 50.83 3.99993 50.03 3.24993C49.23 2.49993 48.25 1.84993 47.1 1.31993C45.95 0.789929 44.66 0.449929 43.23 0.289929C41.8 0.129929 40.27 0.259929 38.64 0.669929C36.91 1.12993 35.29 1.78993 33.76 2.64993C32.24 3.50993 30.86 4.53993 29.64 5.72993C28.42 6.91993 27.37 8.23993 26.51 9.70993C25.65 11.1699 25.02 12.7299 24.64 14.3699C24.26 16.0099 24.14 17.7199 24.3 19.4999C24.46 21.2799 24.94 23.0599 25.76 24.8599C26.48 26.4699 27.42 27.7799 28.57 28.7799C29.72 29.7899 30.99 30.5399 32.37 31.0299C33.75 31.5199 35.19 31.7799 36.69 31.7999C38.19 31.8199 39.65 31.6699 41.06 31.3299C42.48 30.9899 43.8 30.4999 45.04 29.8499C46.28 29.1999 47.33 28.4499 48.19 27.5799C49.94 25.7799 51.26 23.8899 52.15 21.9099C53.04 19.9299 53.58 17.9699 53.79 16.0199C54 14.0699 53.91 12.1999 53.54 10.3899C53.15 8.59993 52.59 6.96993 51.85 5.52993ZM43.98 15.5799C43.92 16.2499 43.75 16.9899 43.48 17.7899C43.2 18.5899 42.77 19.4599 42.17 20.3999C41.76 21.0199 41.26 21.5699 40.66 22.0399C40.06 22.5099 39.42 22.8599 38.73 23.0999C38.05 23.3399 37.36 23.4399 36.66 23.4099C35.96 23.3799 35.35 23.1799 34.81 22.8299C34.27 22.4799 33.83 21.9499 33.48 21.2299C33.13 20.5099 32.97 19.5699 32.99 18.4199C32.99 17.1999 33.2 16.0799 33.62 15.0699C34.04 14.0599 34.57 13.1999 35.22 12.4999C35.87 11.7899 36.59 11.2399 37.38 10.8399C38.17 10.4399 38.95 10.2199 39.72 10.1699C40.49 10.1199 41.2 10.2699 41.86 10.5999C42.52 10.9299 43.03 11.4899 43.39 12.2599C43.61 12.6899 43.77 13.1799 43.89 13.7399C44.01 14.2999 44.04 14.9099 43.98 15.5799Z" fill="#323232"/>
<path d="M144.31 12.79C144.08 11.77 143.69 10.8 143.13 9.88998C142.57 8.97998 141.92 8.15998 141.18 7.42998C140.44 6.69998 139.64 6.08998 138.78 5.58998C137.92 5.08998 137.06 4.74998 136.21 4.54998C134.82 4.25998 133.5 4.14998 132.25 4.22998C132.24 4.22998 132.24 4.21998 132.23 4.21998C131.3 3.42998 130.29 2.77998 129.19 2.26998C128.09 1.75998 126.94 1.41998 125.75 1.25998C124.56 1.09998 123.33 1.13998 122.08 1.36998C120.83 1.59998 119.59 2.06998 118.37 2.76998C117.28 3.38998 116.41 4.14998 115.78 5.02998C115.14 5.91998 114.7 6.86998 114.44 7.87998C114.19 8.88998 114.1 9.92998 114.19 11C114.28 12.07 114.49 13.09 114.82 14.07C115.16 15.05 115.6 15.96 116.14 16.79C116.15 16.81 116.17 16.83 116.18 16.85C116.11 17.08 116.04 17.32 115.99 17.56C115.72 18.73 115.63 19.95 115.75 21.22C115.86 22.49 116.21 23.76 116.79 25.05C117.3 26.2 117.97 27.13 118.79 27.85C119.61 28.57 120.51 29.1 121.5 29.45C122.48 29.8 123.51 29.98 124.58 30C125.65 30.02 126.69 29.91 127.7 29.67C128.71 29.43 129.66 29.08 130.54 28.62C131.42 28.16 132.17 27.62 132.79 27C133.63 26.14 134.31 25.25 134.87 24.33C135.66 24.23 136.44 24.05 137.19 23.79C138.33 23.4 139.4 22.81 140.41 22.04C141.42 21.27 142.32 20.3 143.09 19.12C143.79 18.07 144.22 17.01 144.39 15.93C144.57 14.86 144.54 13.81 144.31 12.79Z" fill="#323232"/>
<path d="M77.65 3.59005C76.82 2.63005 75.71 1.90005 74.3 1.41005C72.9 0.920046 71.19 0.780046 69.17 1.00005C64.95 1.41005 60.56 1.87005 56 2.40005L56.58 30.52L65.29 31.42L65.43 24.94C67.45 24.56 69.26 23.9 70.88 22.98C72.5 22.06 73.9 20.96 75.09 19.7C76.28 18.44 77.23 17.07 77.95 15.6C78.67 14.12 79.15 12.66 79.39 11.21C79.63 9.76005 79.61 8.37005 79.32 7.03005C79.03 5.69005 78.48 4.55005 77.65 3.59005ZM69.75 12.19C69.7 12.41 69.56 12.7 69.32 13.07C69.08 13.44 68.74 13.83 68.31 14.24C67.88 14.65 67.34 15.03 66.71 15.39C66.07 15.75 65.32 16.03 64.46 16.22L64.82 10.46C65.97 10 66.89 9.77005 67.57 9.76005C68.25 9.75005 68.75 9.86005 69.06 10.08C69.37 10.31 69.58 10.59 69.67 10.93C69.77 11.27 69.8 11.55 69.78 11.79C69.76 12.04 69.75 12.17 69.75 12.19Z" fill="#323232"/>
<path d="M101.97 21.19C100.71 21.62 99.7099 21.67 98.9799 21.33C98.2499 20.99 97.6799 20.47 97.2899 19.76C96.8899 19.05 96.6399 18.41 96.5299 17.83C96.4199 17.25 96.3699 16.94 96.3699 16.89C96.6099 15.83 96.8699 14.98 97.1599 14.32C97.4499 13.66 97.8299 13.01 98.3099 12.38C98.7899 11.74 99.3799 11.32 100.09 11.12C100.8 10.92 101.64 11.01 102.61 11.39C103.58 11.77 104.72 12.65 106.01 14.02L112.31 6.27999C110.87 4.54999 109.42 3.23999 107.97 2.35999C106.52 1.47999 105.13 0.869986 103.79 0.539986C102.45 0.209986 101.22 0.109986 100.08 0.219986C98.9399 0.329986 97.9499 0.509986 97.1099 0.759986C96.2699 1.00999 95.3699 1.39999 94.4099 1.92999C93.2799 2.66999 92.1699 3.66999 91.0799 4.91999C89.9899 6.16999 89.0399 7.56999 88.2399 9.12999C87.4399 10.69 86.8099 12.36 86.3699 14.13C85.9299 15.91 85.7899 17.68 85.9599 19.46C86.1299 21.24 86.6399 22.96 87.5099 24.64C88.3799 26.32 89.7099 27.86 91.5099 29.25C92.7599 30.21 94.1199 30.88 95.5999 31.27C97.0799 31.65 98.5799 31.81 100.1 31.76C101.62 31.7 103.12 31.47 104.58 31.08C106.04 30.68 107.39 30.19 108.61 29.59C109.83 28.99 110.89 28.33 111.78 27.61C112.67 26.89 113.29 26.18 113.65 25.49L106.63 18C104.79 19.69 103.23 20.76 101.97 21.19Z" fill="#323232"/>
<path d="M166.29 16.73C167.43 15.29 168.26 13.81 168.79 12.28C169.32 10.76 169.53 9.27004 169.42 7.82004C169.31 6.37004 168.87 5.10004 168.09 4.00004C167.31 2.91004 166.17 2.07004 164.67 1.50004C163.17 0.920044 161.29 0.760044 159.04 1.00004C154.82 1.41004 150.42 1.88004 145.86 2.40004L146.44 30.52L155.15 31.42L155.26 25.26L164.01 31.7L169.59 25.4L162.07 20.47C163.74 19.42 165.15 18.17 166.29 16.73ZM159.61 12.19C159.56 12.41 159.42 12.7 159.2 13.07C158.97 13.44 158.64 13.83 158.21 14.24C157.78 14.65 157.24 15.03 156.61 15.39C155.97 15.75 155.22 16.03 154.36 16.22L154.72 10.46C155.87 10 156.78 9.77004 157.46 9.76004C158.13 9.75004 158.63 9.86004 158.95 10.08C159.27 10.31 159.48 10.59 159.56 10.93C159.64 11.27 159.67 11.55 159.65 11.79C159.62 12.04 159.61 12.17 159.61 12.19Z" fill="#323232"/>
<path d="M197.31 1.42996L186.58 0.709961L186.26 12.63L172.5 1.20996L172.04 31.17L182.37 30.52L181.86 22.02L195.65 28.9L197.31 1.42996Z" fill="#323232"/>
<path d="M121.2 15.91C120.48 15.63 120.08 13.97 121.48 13.18C122.88 12.39 123.5 13.64 123.58 14.43C123.63 15.05 122.94 16.59 121.2 15.91Z" fill="#FFEB62"/>
<path d="M129.39 12.12C128.65 11.89 128.17 9.97002 129.67 9.39002C130.89 8.92002 131.3 9.63002 131.51 10.36C131.73 11.12 131.2 12.68 129.39 12.12Z" fill="#FFEB62"/>
<path d="M130.83 15.71C130.74 15.48 130.51 15.22 130.27 15.2C130.26 15.2 130.25 15.2 130.24 15.2C130.21 15.12 130.15 15.05 130.07 15C130.02 14.97 129.97 14.95 129.92 14.94V14.93C129.89 14.88 129.85 14.83 129.8 14.79C129.8 14.72 129.78 14.66 129.73 14.6C129.7 14.57 129.67 14.54 129.63 14.51C129.63 14.49 129.63 14.48 129.63 14.46C129.64 14.37 129.62 14.26 129.59 14.15C129.6 14.08 129.6 14 129.56 13.93C129.48 13.77 129.3 13.68 129.09 13.58C128.91 13.48 128.57 13.48 128.42 13.64C128.3 13.76 128.26 14.03 128.32 14.19C128.35 14.28 128.4 14.35 128.46 14.41C128.45 14.58 128.5 14.75 128.61 14.89C128.62 14.95 128.64 15.01 128.67 15.06C128.7 15.1 128.73 15.14 128.76 15.17C128.75 15.21 128.74 15.26 128.74 15.31C128.74 15.38 128.75 15.46 128.77 15.54C128.67 15.58 128.57 15.64 128.51 15.72C128.48 15.73 128.45 15.74 128.42 15.75C128.35 15.79 128.28 15.87 128.24 15.96C128.05 16.06 127.91 16.23 127.86 16.44C127.68 16.4 127.46 16.42 127.31 16.51C127.22 16.54 127.13 16.59 127.06 16.65C126.85 16.57 126.61 16.66 126.34 16.76C126.3 16.77 126.25 16.79 126.21 16.82C126.18 16.79 126.15 16.75 126.11 16.74C125.97 16.63 125.77 16.59 125.54 16.55C125.29 16.48 124.89 16.58 124.75 16.82C124.64 17.01 124.67 17.33 124.79 17.5C124.97 17.75 125.23 17.86 125.5 17.85C125.67 18.02 125.97 18.14 126.18 17.97C126.19 17.97 126.19 17.98 126.2 17.98C126.48 18.11 126.77 18.06 127 17.9C127.01 17.9 127.01 17.9 127.02 17.9C127.14 18.01 127.28 18.08 127.45 18.04C127.6 18 127.72 17.9 127.83 17.76C127.92 17.76 128.02 17.76 128.11 17.73C128.31 17.67 128.53 17.5 128.61 17.29C128.75 17.2 128.85 17.05 128.97 16.88C128.98 16.86 129 16.84 129.01 16.82C129.19 16.77 129.37 16.64 129.4 16.46C129.42 16.45 129.44 16.44 129.45 16.43C129.46 16.42 129.47 16.42 129.48 16.41C129.54 16.41 129.59 16.41 129.64 16.39C129.65 16.4 129.66 16.41 129.68 16.42C129.74 16.52 129.83 16.6 129.93 16.67C130.03 16.74 130.15 16.78 130.29 16.8C130.49 16.88 130.72 16.87 130.92 16.77C131.19 16.64 131.46 16.27 131.26 15.97C131.18 15.83 131.02 15.76 130.83 15.71Z" fill="#FFEB62"/>
</svg>
