<svg width="1440" height="240" viewBox="0 0 1440 240" fill="none" xmlns="http://www.w3.org/2000/svg">
<path d="M1324.79 24C1295.99 24 1295.99 0 1267.19 0C1238.39 0 1238.39 24 1209.59 24C1180.79 24 1180.79 0 1151.99 0C1123.19 0 1123.19 24 1094.39 24C1065.59 24 1065.59 0 1036.79 0C1007.99 0 1007.99 24 979.19 24C950.39 24 950.39 0 921.59 0C892.79 0 892.79 24 863.99 24C835.19 24 835.19 0 806.39 0C777.59 0 777.59 24 748.79 24C719.99 24 719.99 0 691.19 0C662.39 0 662.39 24 633.59 24C604.79 24 604.79 0 576 0C547.2 0 547.2 24 518.4 24C489.6 24 489.6 0 460.8 0C432 0 432 24 403.2 24C374.4 24 374.4 0 345.6 0C316.8 0 316.8 24 288 24C259.2 24 259.2 0 230.4 0C201.6 0 201.6 24 172.8 24C144 24 144 0 115.2 0C86.4 0 86.4 24 57.6 24C28.8 24 28.8 0 0 0V240H1440V24C1411.2 24 1411.2 0 1382.39 0C1353.58 0 1353.59 24 1324.79 24Z" fill="#FFEA62"/>
</svg>
